<svg xmlns="http://www.w3.org/2000/svg" xmlns:xlink="http://www.w3.org/1999/xlink" width="222.94" height="222.945" viewBox="0 0 222.94 222.945">
  <defs>
    <radialGradient id="radial-gradient" cx="0.076" cy="0.019" r="1.465" gradientTransform="translate(0)" gradientUnits="objectBoundingBox">
      <stop offset="0" stop-color="#f6f6f7"/>
      <stop offset="0.477" stop-color="#f9f9fa"/>
      <stop offset="0.715" stop-color="#fff"/>
    </radialGradient>
  </defs>
  <g id="Grupo_134264" data-name="Grupo 134264" transform="translate(-1015.969 -4233.743)">
    <path id="Trazado_40936" data-name="Trazado 40936" d="M417.562,2257.189a111.47,111.47,0,1,1-111.468-111.468A111.468,111.468,0,0,1,417.562,2257.189Z" transform="translate(821.346 2088.021)" fill="#fff"/>
    <path id="Trazado_40937" data-name="Trazado 40937" d="M415.569,2255.017A111.467,111.467,0,1,0,304.1,2366.492,111.031,111.031,0,0,0,415.569,2255.017Z" transform="translate(823.34 2090.195)" fill="url(#radial-gradient)"/>
    <path id="Trazado_40938" data-name="Trazado 40938" d="M389.579,2246.181a94.349,94.349,0,1,0-94.349,94.35A94.011,94.011,0,0,0,389.579,2246.181Z" transform="translate(832.429 2099.273)" fill="none" stroke="#1d272b" stroke-miterlimit="10" stroke-width="5"/>
    <path id="Trazado_40939" data-name="Trazado 40939" d="M392.465,2164.488A111.483,111.483,0,0,1,200.545,2275.5a111.8,111.8,0,0,0,11.094,14.849,111.485,111.485,0,0,0,180.826-125.859Z" transform="translate(835.172 2131.838)" fill="#eceef0"/>
    <path id="Trazado_173918" data-name="Trazado 173918" d="M3104.335,365.836c-.912.867-1.788,1.664-2.609,2.512a1.148,1.148,0,0,0-.151.807c.05.525.228,1.04.259,1.564a6.376,6.376,0,0,0,1.072,3.2,4.456,4.456,0,0,1-.228,5.226,4.6,4.6,0,0,1-4.936,2,4.674,4.674,0,0,1-3.8-3.616c-.1-.378-.146-.774-.224-1.2-.719.279-.8.663-.357,1.265a7.5,7.5,0,0,1,.785,1.376,6.844,6.844,0,0,0,1.92,2.552,4.9,4.9,0,0,1-5.541,7.974,4.975,4.975,0,0,1-2.385-6.1,7.178,7.178,0,0,0,.2-1.179l-.322-.116-3.966,4.427c.883,1.187,1.688,2.309,2.544,3.39a3.214,3.214,0,0,0,.894.6,4.989,4.989,0,0,1,1.916,6.34,4.889,4.889,0,0,1-9.2-3.14,1.3,1.3,0,0,0-.722-1.725c-1.523,2-3.088,3.99-4.592,6.03-1.334,1.81-2.612,3.663-3.889,5.514-.392.568-.831.99-1.552.73-.79-.284-.857-.96-.689-1.65.767-3.146,1.557-6.287,2.341-9.428.077-.306.169-.608.237-.854a15.792,15.792,0,0,1-2.61-.024,4.588,4.588,0,0,1-3.875-3.528,4.682,4.682,0,0,1,1.563-5.018,4.947,4.947,0,0,1,5.114-.834,13.681,13.681,0,0,0,3.279.347c.154.01.386-.227.479-.4,1.3-2.452,2.578-4.913,3.917-7.476-.283.1-.51.163-.73.248a4.905,4.905,0,0,1-6.063-2.212,5.016,5.016,0,0,1,1.443-6.39,4.732,4.732,0,0,1,6.317.574,6.1,6.1,0,0,0,2.957,1.679l5.6-7.733c-2.976-.007-4.913-1.31-5.457-4.2a4.567,4.567,0,0,1,2.585-5.114c3.71-1.544,5.978.2,7.342,3.808l6.2-7.212c-2.643-.971-4.134-2.721-3.815-5.568a4.462,4.462,0,0,1,3.356-4.018c2.873-.833,4.853.452,6.27,3.146l2.244-2.41c-.55-.447-1.086-.817-1.544-1.267a4.888,4.888,0,0,1,6.41-7.348c1.419,1.09,2.316,1.013,3.546-.3,1.469-1.565,2.938-3.129,4.484-4.776-2.611-1.293-3.856-3.28-3.157-6.132a4.461,4.461,0,0,1,3.887-3.506c2.448-.377,4.216.723,5.408,3.047l5.07-5.575c-.324-.065-.494-.113-.666-.131a4.941,4.941,0,0,1-2.29-9.039,4.826,4.826,0,0,1,5.738.312c1.16.934,2.595.589,3.878.937.139.038.4-.2.539-.368,2.4-2.905,4.78-5.82,7.007-8.9a3.662,3.662,0,0,0-.425.38,5.649,5.649,0,0,1-7.739,1.052,5.739,5.739,0,0,1-1.367-7.643,5.642,5.642,0,0,1,7.431-1.9,3.765,3.765,0,0,0,1.577.368c1.884.048,3.769.045,5.653.016a1.388,1.388,0,0,0,1-.358c1.9-2.787,3.752-5.607,5.612-8.422a2.028,2.028,0,0,0,.118-.428,16.18,16.18,0,0,0-1.767.11c-.911.155-1.811.381-2.714.583a2.877,2.877,0,0,0-2.515,2.069,4.633,4.633,0,0,1-5.359,2.763,4.889,4.889,0,0,1-3.883-4.864,4.678,4.678,0,0,1,3.847-4.75,23.458,23.458,0,0,0,4.651-1.27,25.148,25.148,0,0,1,11.141-1.3,1.2,1.2,0,0,0,.937-.563c1.721-3.353,3.394-6.732,5.078-10.1.059-.118.116-.238.166-.361a1.16,1.16,0,0,1,1.463-.858c.731.2.907.781.808,1.489-.47,3.34-.783,6.711-1.454,10.009-.39,1.917-.377,3.345,1.589,4.258a3.907,3.907,0,0,1,1.038.915,8.914,8.914,0,0,0,3.445,2.477,4.657,4.657,0,0,1,2.522,5.809,4.886,4.886,0,0,1-9.556-1.31c-.047-1.173-.047-1.173-1.123-1.989-.089.255-.174.482-.247.713-1,3.185-1.987,6.375-3.017,9.55a1.042,1.042,0,0,0,.25,1.219,15.649,15.649,0,0,1,3.507,6.374,2.759,2.759,0,0,0,.75,1.208,5.775,5.775,0,0,1,.77,7.81,5.562,5.562,0,0,1-7.471,1.251,5.7,5.7,0,0,1-1.844-7.532,1.7,1.7,0,0,0,.274-.93,4.555,4.555,0,0,0-.344.474q-3.136,5.688-6.258,11.384c-.133.243-.337.617-.244.785.771,1.4.756,3.081,1.917,4.387a4.855,4.855,0,0,1-1.143,7.133,4.919,4.919,0,0,1-6.908-1.637c-.134-.225-.26-.455-.444-.778-1.334,1.629-2.638,3.191-3.9,4.783-.365.46.317,1.528,1.126,1.839a4.954,4.954,0,0,1,2.795,6.981,4.84,4.84,0,0,1-9.124-1.642c-.037-.315-.076-.63.113-.642-2.253,2.078-4.511,4.15-6.745,6.248a.786.786,0,0,0-.089.691c.529,1.392.768,2.853,1.906,4.048,1.411,1.482,1.28,3.976.06,5.725a4.891,4.891,0,0,1-8.875-2.588c-.014-.287-.026-.574-.046-1-.3.225-.51.357-.69.524-2.236,2.065-4.458,4.147-6.708,6.2a1.985,1.985,0,0,0-.776,1.6,12.578,12.578,0,0,1-.285,2.359,11.8,11.8,0,0,0-.355,4.357,4.593,4.593,0,0,1-3.349,4.916,4.848,4.848,0,0,1-5.716-2.247Zm43.384-71.419.019-.122c1.7.226,3.429.33,5.1.7,3.916.875,6.866,2.995,8.335,6.888a2.466,2.466,0,0,1-.307,2.738,3.3,3.3,0,0,0,5.322,3.912,3.315,3.315,0,0,0-.71-4.671,2.719,2.719,0,0,1-1.163-1.733,13.006,13.006,0,0,0-9.454-9.771,25.086,25.086,0,0,0-9.927-.761,2.949,2.949,0,0,1-2.21-.559,3.222,3.222,0,0,0-4.474.856,3.407,3.407,0,0,0,.713,4.625,3.129,3.129,0,0,0,4.492-.6,2.7,2.7,0,0,1,2.682-1.41C3146.661,294.515,3147.19,294.449,3147.718,294.416Zm-7.763,33.4c2.107-2.754,4.144-5.392,6.135-8.063a1.23,1.23,0,0,0-.008-1,7.907,7.907,0,0,0-3.218-3.664,16.326,16.326,0,0,0-6.314-2.217,1.558,1.558,0,0,0-1.148.5c-1.736,1.861-3.424,3.767-5.125,5.66-.5.554-.988,1.114-1.566,1.766C3132.886,322.51,3136.778,324.438,3139.955,327.812Zm10.857-14.717c2.13-4.1,4.18-8.1,6.284-12.068a1.186,1.186,0,0,0-.423-1.739,12.745,12.745,0,0,0-6.7-2.461,1.392,1.392,0,0,0-1.431.6c-2.358,2.984-4.751,5.942-7.127,8.912a5.1,5.1,0,0,0-.343.562C3146.192,309.046,3146.192,309.046,3150.812,313.1Zm-36.487,40.247c.063-.015.146-.009.188-.047,2.811-2.607,5.626-5.208,8.406-7.848a1.042,1.042,0,0,0,.07-.938,8.93,8.93,0,0,0-5.329-4.757c-2.085-.734-4.118-1.493-6.375.022-1.59,1.067-2.566,2.552-3.931,3.748C3111.891,347.65,3111.891,347.65,3114.325,353.342Zm21.139-20.446c-.867-.8-1.58-1.577-2.407-2.2a32.726,32.726,0,0,0-8.768-4.279,1.369,1.369,0,0,0-1.141.366c-1.621,1.646-3.187,3.346-4.768,5.032-.219.233-.419.482-.646.744,6.743,2.858,6.743,2.858,10.759,7.565Zm-34.68,33.346c1.5-1.667,2.813-3.149,4.149-4.616a6.9,6.9,0,0,1,1.608-1.57,1.985,1.985,0,0,0,1.106-1.709c.048-.393.1-.787.128-1.182.219-3.184-2.339-7.36-5.2-8.405l-7.487,8.661A23.864,23.864,0,0,1,3100.784,366.242ZM3158,277.678a13.337,13.337,0,0,1,10.475,4.577,2.9,2.9,0,0,1,.965,2.637,2.411,2.411,0,0,0,2.314,2.692,2.634,2.634,0,0,0,2.777-2.293,2.51,2.51,0,0,0-2.161-2.844,2.716,2.716,0,0,1-1.96-1.145c-3.652-4.369-8.352-6.085-14-5.735-3.856.239-7.2,2.294-10.992,2.733-1.242.144-1.91,1.625-1.679,2.882a2.538,2.538,0,0,0,2.6,2.128,2.445,2.445,0,0,0,2.461-2.26c.084-.725.187-1.345,1-1.645A23.394,23.394,0,0,1,3158,277.678Zm-45.19,58.62.111.18c.493.044.987.083,1.48.132,6.051.6,10.269,4.036,11.636,9.459a2.025,2.025,0,0,1-.373,2.021,2.545,2.545,0,0,0,.339,3.635,2.579,2.579,0,0,0,3.641-.349,2.536,2.536,0,0,0-.358-3.638,3.21,3.21,0,0,1-1.157-1.972,13.549,13.549,0,0,0-7.162-9.487,20.7,20.7,0,0,0-8.022-1.991,2.87,2.87,0,0,1-1.614-.7,2.578,2.578,0,0,0-3.65-.215,2.7,2.7,0,0,0-.173,3.762,2.757,2.757,0,0,0,3.766.043A9.33,9.33,0,0,1,3112.81,336.3Zm21.56-26.069a23.265,23.265,0,0,1,8.535,2.216,10.607,10.607,0,0,1,5.781,6.7,1.7,1.7,0,0,1-.305,1.836,2.562,2.562,0,0,0,.058,3.784,2.534,2.534,0,0,0,3.635-.206,2.665,2.665,0,0,0-.385-3.87,2.85,2.85,0,0,1-.786-1.4,12.118,12.118,0,0,0-5.559-7.882,23.6,23.6,0,0,0-10.4-3.279,2.75,2.75,0,0,1-1.819-.824,2.5,2.5,0,0,0-3.712,0,2.65,2.65,0,0,0,.1,3.672,2.6,2.6,0,0,0,3.731-.109A4.669,4.669,0,0,1,3134.37,310.23Zm-21.9,46.217a35.124,35.124,0,0,0-1.194-4.542c-1.4-3.5-4.164-5.793-7.273-7.745a4.043,4.043,0,0,1-1.277-1.4,2.569,2.569,0,0,0-3.376-1.2,2.614,2.614,0,0,0-1.271,3.44,2.436,2.436,0,0,0,3.292,1.324,2.009,2.009,0,0,1,2.447.268c.254.21.548.369.816.563,4.681,3.388,6.428,8.062,4.935,13.146a1.921,1.921,0,0,1-1.3,1.459,2.615,2.615,0,0,0-1.725,2.99,2.583,2.583,0,0,0,3.122,2.04,2.514,2.514,0,0,0,1.83-3.3,3.734,3.734,0,0,1,0-2.391C3111.893,359.64,3112.128,358.14,3112.472,356.447Zm28.714-17.974a2.528,2.528,0,0,0,2.564-2.274,2.583,2.583,0,0,0-2.046-2.86,2.293,2.293,0,0,1-1.578-1.168,23.258,23.258,0,0,0-2.979-3.8c-3.23-3.079-7.289-4.727-11.418-6.189a1.918,1.918,0,0,1-1.393-1.359,2.507,2.507,0,0,0-3.349-1.741,2.618,2.618,0,0,0,1.863,4.894,2.43,2.43,0,0,1,1.414-.054c1.74.626,3.468,1.3,5.161,2.042a19.479,19.479,0,0,1,7.414,5.165c1.1,1.321,2.284,2.593,1.84,4.648A2.433,2.433,0,0,0,3141.186,338.473Zm-42.775,40.466a2.694,2.694,0,0,0,2.638-1.571,2.4,2.4,0,0,0-.538-2.831,2.626,2.626,0,0,1-.808-1.921,20.378,20.378,0,0,0-8.055-15.1,3.476,3.476,0,0,1-1.052-1.552,2.586,2.586,0,1,0-4.982,1.387,2.489,2.489,0,0,0,3.191,1.738,1.891,1.891,0,0,1,1.986.442,18.272,18.272,0,0,1,6.82,12.873,2.127,2.127,0,0,1-.675,2.032,2.423,2.423,0,0,0-.627,2.9A2.47,2.47,0,0,0,3098.411,378.939Zm-2.864,6.053c-.4-.647-.657-1.57-1.24-1.882a4.337,4.337,0,0,1-1.931-2.492,11.8,11.8,0,0,0-1-1.825c-2.61-4.062-6.467-6.417-10.909-8a3.51,3.51,0,0,1-1.521-1.114,2.606,2.606,0,1,0-.664,3.467,2.04,2.04,0,0,1,1.447-.308,17.151,17.151,0,0,1,10.506,8.2,2.646,2.646,0,0,1,.171,3.034,2.39,2.39,0,0,0,.549,2.911,2.527,2.527,0,0,0,2.762.538A3.1,3.1,0,0,0,3095.548,384.993Zm-21.751,2.774c3.794.028,6.694,1.06,8.667,4.017a1.78,1.78,0,0,1,.2,1.853,2.58,2.58,0,1,0,4.673,2.186,2.753,2.753,0,0,0-1.453-3.555,3.486,3.486,0,0,1-1.313-1.213,10.3,10.3,0,0,0-7.5-5.145,25.53,25.53,0,0,0-4.14-.2,3.505,3.505,0,0,1-2.141-.478,2.454,2.454,0,0,0-3.421.962,2.529,2.529,0,0,0,.8,3.482,2.388,2.388,0,0,0,3.41-.612A2.165,2.165,0,0,1,3073.8,387.767Zm17.883-12.849c.927-.932,1.979-1.933,2.95-3.007a1.612,1.612,0,0,0,.35-1.188,14.47,14.47,0,0,0-2.7-6.314c-.422-.566-.909-1.083-1.465-1.738l-5.425,7.455Zm68.918-82.639a7.326,7.326,0,0,0,.3-.715c.808-2.581,1.648-5.154,2.4-7.752.769-2.663.723-2.652-1.99-3.408a1.022,1.022,0,0,0-1.363.519c-1.755,2.756-3.565,5.475-5.352,8.211a3.941,3.941,0,0,0-.24.467Zm-73.829,87.752a15.252,15.252,0,0,0-5.189-4l-4.041,7.42,4.625,1.71Zm-14.538,17.205.242.111,5.161-6.769c-.962-.18-1.7-.356-2.439-.434a.812.812,0,0,0-.671.37C3073.732,392.746,3072.987,394.993,3072.23,397.236ZM3165.445,274.6c.279-1.568.53-2.974.781-4.379l-.184-.065-2.06,3.89Z" transform="translate(-1991.497 4013.053)" fill="#008f85"/>
    <path id="Trazado_173919" data-name="Trazado 173919" d="M3427.963,536.815c-.283-.3-.561-.849-.919-.908a1.593,1.593,0,0,0-1.319.5c-.789,1.129-1.426,2.362-2.134,3.548-.412.691-.45,1.345.292,1.793.764.461,1.309.054,1.706-.619.668-1.133,1.335-2.267,1.991-3.407A9.208,9.208,0,0,0,3427.963,536.815Z" transform="translate(-2278.929 3793.077)" fill="#008f85"/>
    <path id="Trazado_173920" data-name="Trazado 173920" d="M3481.3,457.161c.257.282.542.865.875.894a1.7,1.7,0,0,0,1.375-.571c.923-1.515,1.716-3.111,2.534-4.689a1.1,1.1,0,0,0-.442-1.68,1.146,1.146,0,0,0-1.624.659c-.8,1.513-1.608,3.023-2.4,4.538A8.4,8.4,0,0,0,3481.3,457.161Z" transform="translate(-2325.414 3861.136)" fill="#008f85"/>
    <path id="Trazado_173921" data-name="Trazado 173921" d="M3241.778,732.7c.15-.076.533-.146.7-.375.978-1.321,1.964-2.644,2.806-4.051a1.624,1.624,0,0,0-.314-1.441.925.925,0,0,0-1.471.137c-.984,1.316-1.95,2.65-2.837,4.033C3240.175,731.77,3240.739,732.683,3241.778,732.7Z" transform="translate(-2132.411 3640.29)" fill="#008f85"/>
    <path id="Trazado_173922" data-name="Trazado 173922" d="M3427.963,536.815a9.208,9.208,0,0,1-.382.9c-.656,1.141-1.323,2.274-1.991,3.407-.4.673-.943,1.08-1.706.619-.742-.448-.7-1.1-.292-1.793.708-1.186,1.346-2.419,2.134-3.548a1.593,1.593,0,0,1,1.319-.5C3427.4,535.965,3427.68,536.514,3427.963,536.815Z" transform="translate(-2278.929 3793.077)" fill="#008f85"/>
    <path id="Trazado_173923" data-name="Trazado 173923" d="M3481.3,457.161a8.4,8.4,0,0,1,.315-.849c.8-1.515,1.6-3.025,2.4-4.538a1.146,1.146,0,0,1,1.624-.659,1.1,1.1,0,0,1,.442,1.68c-.818,1.578-1.611,3.173-2.534,4.689a1.7,1.7,0,0,1-1.375.571C3481.842,458.026,3481.557,457.443,3481.3,457.161Z" transform="translate(-2325.414 3861.136)" fill="#008f85"/>
    <path id="Trazado_173924" data-name="Trazado 173924" d="M3310.057,663.626c.283.212.734.379.837.67a1.551,1.551,0,0,1-.063,1.259,34.417,34.417,0,0,1-2.5,2.8,1.028,1.028,0,0,1-1.511.071,1,1,0,0,1-.23-1.488c.831-1.019,1.738-1.978,2.641-2.935C3309.395,663.828,3309.693,663.785,3310.057,663.626Z" transform="translate(-2185.2 3690.706)" fill="#008f85"/>
    <path id="Trazado_173925" data-name="Trazado 173925" d="M3371.438,606.194c-.86,1.117-1.614,2.171-2.472,3.132-.132.147-.908-.01-1.094-.251a1.526,1.526,0,0,1-.26-1.3,10.941,10.941,0,0,1,1.57-2.385,1.392,1.392,0,0,1,1.215-.29C3370.75,605.21,3370.989,605.7,3371.438,606.194Z" transform="translate(-2234.248 3737.641)" fill="#008f85"/>
    <path id="Trazado_173926" data-name="Trazado 173926" d="M3241.778,732.7c-1.039-.02-1.6-.934-1.114-1.7.887-1.382,1.853-2.716,2.837-4.033a.925.925,0,0,1,1.471-.137,1.624,1.624,0,0,1,.314,1.441c-.842,1.407-1.828,2.73-2.806,4.051C3242.311,732.557,3241.928,732.628,3241.778,732.7Z" transform="translate(-2132.411 3640.29)" fill="#008f85"/>
  </g>
</svg>
