<svg xmlns="http://www.w3.org/2000/svg" xmlns:xlink="http://www.w3.org/1999/xlink" width="114.636" height="114.635" viewBox="0 0 114.636 114.635">
  <defs>
    <radialGradient id="radial-gradient" cx="0.076" cy="0.019" r="1.465" gradientTransform="translate(0.001)" gradientUnits="objectBoundingBox">
      <stop offset="0" stop-color="#f6f6f7"/>
      <stop offset="0.477" stop-color="#f9f9fa"/>
      <stop offset="0.715" stop-color="#fff"/>
    </radialGradient>
  </defs>
  <g id="Grupo_134257" data-name="Grupo 134257" transform="translate(-741.764 -849)">
    <path id="Trazado_40936" data-name="Trazado 40936" d="M309.259,2203.037a57.318,57.318,0,1,1-57.317-57.316A57.317,57.317,0,0,1,309.259,2203.037Z" transform="translate(547.141 -1296.721)" fill="#fff"/>
    <path id="Trazado_40937" data-name="Trazado 40937" d="M308.648,2202.372a57.316,57.316,0,1,0-57.317,57.319A57.091,57.091,0,0,0,308.648,2202.372Z" transform="translate(547.751 -1296.056)" fill="url(#radial-gradient)"/>
    <path id="Trazado_40938" data-name="Trazado 40938" d="M289.672,2196.986a43.75,43.75,0,1,0-43.75,43.75A43.587,43.587,0,0,0,289.672,2196.986Z" transform="translate(553.334 -1290.479)" fill="none" stroke="#1d272b" stroke-miterlimit="10" stroke-width="4"/>
    <path id="Trazado_40939" data-name="Trazado 40939" d="M299.231,2164.488a57.325,57.325,0,0,1-98.686,57.081,57.143,57.143,0,0,0,98.686-57.081Z" transform="translate(551.373 -1283.309)" fill="#eceef0"/>
    <path id="Trazado_173880" data-name="Trazado 173880" d="M675.867,87.557c-.274.787-.863,1.54-.089,2.377.113.122.091.387.1.587q.019.766,0,1.533c-.023,1.185-.108,2.281,1.078,3.175a3.822,3.822,0,0,1,1.125,3.218c0,2.2-.011,4.393.061,6.587a5.962,5.962,0,0,0,1.98,4.183,9.269,9.269,0,0,1,3,7.03c-.018,3.729.01,7.459-.009,11.188a4.236,4.236,0,0,1-4.555,4.532q-8.927.014-17.854,0a4.219,4.219,0,0,1-4.56-4.67c.2-4.717.362-9.443.8-14.142a29.742,29.742,0,0,1,4.033-12.093c1-1.747,1.974-3.514,3.044-5.219a15.913,15.913,0,0,1,1.582-1.726,1.63,1.63,0,0,0,.446-.847c.057-.916-.012-1.84.039-2.756a2.244,2.244,0,0,1,.387-.932c.127-.214.5-.375.5-.559a8.937,8.937,0,0,0-.218-2.015c-.037-.159-.511-.292-.789-.3-.943-.037-1.89-.008-2.835-.015-.9-.007-1.215-.3-1.235-1.173-.017-.74-.031-1.483.016-2.221a3.911,3.911,0,0,1,3.91-3.742q8.62-.04,17.241,0a2.58,2.58,0,0,1,2.614,2.851,2.51,2.51,0,0,1-2.644,2.639c-1.4.018-2.81,0-4.215.006-1.067,0-1.322.312-1.126,1.335a4.464,4.464,0,0,0,4.063,3.569c.9.065,1.31.432,1.222,1.09-.084.634-.622.937-1.475.83C678.872,91.542,677.284,90.3,675.867,87.557ZM669.6,130.078c2.937,0,5.874.005,8.811,0a2.483,2.483,0,0,0,2.81-2.766c.008-3.7.015-7.406,0-11.11a7.234,7.234,0,0,0-2.272-5.417,8.523,8.523,0,0,1-2.778-6.556c.027-1.889.01-3.78,0-5.67a2.849,2.849,0,0,0-3.111-3.149c-1.634-.007-3.27.025-4.9-.011a2.662,2.662,0,0,0-2.553,1.486c-.958,1.684-1.938,3.356-2.906,5.034a29.258,29.258,0,0,0-3.967,12.341c-.348,4.323-.472,8.665-.651,13-.079,1.907.86,2.812,2.784,2.816Q665.237,130.084,669.6,130.078Zm7.285-48.6h-.932c-3.165,0-6.333.079-9.5-.027-2.1-.07-3.02,1.41-2.581,3.244,1.332.225,2.808-.321,4.028.693,1.27,1.056.939,2.535,1.035,3.923h4.471a7,7,0,0,1,3.037-5.379.992.992,0,0,0,.416-.582C676.925,82.752,676.889,82.143,676.889,81.48Zm-8.836,9.847v2.117h5.838V91.327Zm10.754-9.843a10.526,10.526,0,0,0,.016,1.27c.019.145.22.377.341.379,1.32.023,2.642.031,3.961-.008a.62.62,0,0,0,.588-.868c-.091-.3-.406-.728-.638-.74C681.688,81.449,680.3,81.484,678.807,81.484Z" transform="translate(122.775 804.766)" fill="#1d272b"/>
    <path id="Trazado_173881" data-name="Trazado 173881" d="M867.059,66.063c-.359-.074-1.037-.18-1.695-.359a.924.924,0,0,1-.735-1.215c.145-.581.646-.8,1.331-.6a4.768,4.768,0,0,0,3.074-.066,2.367,2.367,0,0,0,1.576-1.543.961.961,0,0,1,1.23-.715c1.837.283,2.827-.947,2.2-2.7-.343-.951-.129-1.324.884-1.569,1.6-.388,2.861-1.218,3.125-2.945a5.671,5.671,0,0,0-.32-2.216,1.285,1.285,0,0,1,.128-1.279,2.1,2.1,0,0,0-.513-3.327,3.784,3.784,0,0,0-.39-.24c-.775-.435-1.022-.953-.713-1.5.3-.532.9-.581,1.688-.165,2.057,1.09,3.253,3.713,1.953,5.833a1.137,1.137,0,0,0-.036.783,5.327,5.327,0,0,1-3.059,6.432.972.972,0,0,0-.67,1.079,3.535,3.535,0,0,1-3.446,3.815.983.983,0,0,0-.639.276C870.886,65.448,869.264,66,867.059,66.063Z" transform="translate(-53.714 833.715)" fill="#1d272b"/>
    <path id="Trazado_173882" data-name="Trazado 173882" d="M874.056,75.949a.881.881,0,0,1,.975.818.87.87,0,0,1-.817,1.076c-2.8.386-5.6.775-8.406,1.133a.859.859,0,0,1-1.058-.84.883.883,0,0,1,.857-1.047q3.294-.445,6.587-.9C872.775,76.112,873.357,76.04,874.056,75.949Z" transform="translate(-53.848 807.803)" fill="#1d272b"/>
    <path id="Trazado_173883" data-name="Trazado 173883" d="M868.533,102.288c.865,0,1.73-.009,2.595,0,.744.01,1.142.343,1.117.943-.028.662-.427.937-1.057.937l-5.495,0c-.637,0-1.044-.3-1.035-.949s.408-.94,1.052-.934C866.65,102.3,867.592,102.289,868.533,102.288Z" transform="translate(-53.774 785.505)" fill="#1d272b"/>
    <path id="Trazado_173884" data-name="Trazado 173884" d="M867.118,123.865c-.5-.1-1.209-.186-1.888-.379a.874.874,0,0,1-.648-1.124.886.886,0,0,1,1.071-.738c.675.1,1.342.255,2.007.409a.883.883,0,0,1,.737,1.133C868.284,123.725,867.872,123.937,867.118,123.865Z" transform="translate(-53.682 769.142)" fill="#1d272b"/>
    <path id="Trazado_173886" data-name="Trazado 173886" d="M704.567,272c-3.933-.023-6.458-2.62-6.609-6.7a10.148,10.148,0,0,1,1.582-5.888c1.261-2,2.722-3.868,4.16-5.745.606-.792,1.188-.76,1.845-.029,2.37,2.631,4.5,5.418,5.461,8.908a8.827,8.827,0,0,1-.386,5.769C709.633,270.745,707.492,272.021,704.567,272Zm.031-16.56c-.821,1.094-1.6,2.039-2.272,3.056a28.951,28.951,0,0,0-1.65,2.92,7.829,7.829,0,0,0-.765,4.079c.167,2.774,1.7,4.387,4.431,4.6a4.25,4.25,0,0,0,4.578-2.7,6.948,6.948,0,0,0,.279-4.134C708.478,260.242,706.612,257.887,704.6,255.444Z" transform="translate(87.375 657.822)" fill="#1d272b"/>
    <path id="Trazado_173887" data-name="Trazado 173887" d="M727.883,310.111c1.312.1,1.68.339,1.67,1.012-.011.657-.375.887-1.655,1.013-.04.735.017,1.676-1.074,1.614-.9-.052-.941-.85-.9-1.619-.776-.078-1.72-.006-1.667-1.1.047-.962.888-.867,1.606-.9.131-.716-.061-1.7,1.089-1.657C727.992,308.515,727.835,309.393,727.883,310.111Z" transform="translate(65.103 610.927)" fill="#1d272b"/>
  </g>
</svg>
