<?xml version="1.0" encoding="utf-8"?>
<!-- Generator: Adobe Illustrator 26.0.1, SVG Export Plug-In . SVG Version: 6.00 Build 0)  -->
<svg version="1.1" id="Layer_1" xmlns="http://www.w3.org/2000/svg" xmlns:xlink="http://www.w3.org/1999/xlink" x="0px" y="0px"
	 viewBox="0 0 329.2 87" style="enable-background:new 0 0 329.2 87;" xml:space="preserve">
<style type="text/css">
	.st0{enable-background:new    ;}
	.st1{fill:#FFFFFF;}
	.st2{fill:#B42218;}
</style>
<g id="Grupo_134259" transform="translate(-770.17 -1322.952)">
	<g id="Grupo_133803" transform="translate(722.176 1184.867)">
		<g class="st0">
			<path class="st1" d="M57.5,157.6h-2.9v6.5h-3.7v-17.8h6.6c2.1,0,3.7,0.5,4.9,1.4c1.1,0.9,1.7,2.3,1.7,4c0,1.2-0.3,2.2-0.8,3
				c-0.5,0.8-1.3,1.5-2.4,1.9l3.8,7.3v0.2h-3.9L57.5,157.6z M54.6,154.6h3c0.9,0,1.6-0.2,2.1-0.7c0.5-0.5,0.8-1.1,0.8-1.9
				c0-0.8-0.2-1.5-0.7-2c-0.5-0.5-1.2-0.7-2.2-0.7h-2.9V154.6z"/>
			<path class="st1" d="M77.6,156.4h-7v4.8h8.3v2.9H66.9v-17.8h11.9v3h-8.2v4.2h7V156.4z"/>
			<path class="st1" d="M95,161.8c-0.7,0.8-1.6,1.4-2.8,1.8c-1.2,0.4-2.5,0.7-4,0.7c-1.5,0-2.9-0.3-4-1c-1.2-0.7-2.1-1.6-2.7-2.9
				c-0.6-1.3-1-2.8-1-4.5v-1.2c0-1.8,0.3-3.3,0.9-4.6c0.6-1.3,1.5-2.3,2.6-3c1.1-0.7,2.4-1,4-1c2.1,0,3.8,0.5,4.9,1.5
				c1.2,1,1.9,2.5,2.1,4.4h-3.6c-0.2-1-0.5-1.8-1.1-2.2c-0.6-0.5-1.3-0.7-2.3-0.7c-1.2,0-2.2,0.5-2.8,1.4c-0.7,0.9-1,2.3-1,4.2v1.1
				c0,1.9,0.4,3.3,1.1,4.2s1.7,1.4,3.1,1.4c1.4,0,2.4-0.3,2.9-0.9v-3.1H88v-2.7h7V161.8z"/>
			<path class="st1" d="M101.9,164.1h-3.7v-17.8h3.7V164.1z"/>
			<path class="st1" d="M119.9,155.6c0,1.8-0.3,3.3-0.9,4.6c-0.6,1.3-1.5,2.3-2.7,3.1c-1.2,0.7-2.5,1.1-4,1.1
				c-1.5,0-2.8-0.4-3.9-1.1c-1.2-0.7-2.1-1.7-2.7-3c-0.6-1.3-1-2.8-1-4.5v-0.9c0-1.7,0.3-3.3,0.9-4.6c0.6-1.3,1.5-2.4,2.7-3.1
				c1.2-0.7,2.5-1.1,3.9-1.1c1.5,0,2.8,0.4,3.9,1.1c1.2,0.7,2,1.7,2.7,3.1c0.6,1.3,0.9,2.9,0.9,4.6V155.6z M116.2,154.8
				c0-1.9-0.3-3.3-1-4.2c-0.7-1-1.6-1.5-2.9-1.5c-1.2,0-2.2,0.5-2.8,1.4c-0.7,1-1,2.4-1,4.2v0.9c0,1.8,0.3,3.2,1,4.2
				c0.7,1,1.6,1.5,2.9,1.5c1.2,0,2.2-0.5,2.8-1.4c0.7-1,1-2.4,1-4.2V154.8z"/>
			<path class="st1" d="M137,164.1h-3.7l-7.1-11.7v11.7h-3.7v-17.8h3.7l7.1,11.7v-11.7h3.6V164.1z"/>
			<path class="st1" d="M150.9,156.4h-7v4.8h8.3v2.9h-11.9v-17.8h11.9v3h-8.2v4.2h7V156.4z"/>
			<path class="st1" d="M163.5,159.4c0-0.7-0.2-1.2-0.7-1.6s-1.4-0.8-2.6-1.2s-2.3-0.8-3-1.2c-2-1.1-3-2.6-3-4.4
				c0-1,0.3-1.8,0.8-2.6c0.5-0.8,1.3-1.3,2.3-1.8c1-0.4,2.1-0.6,3.4-0.6c1.3,0,2.4,0.2,3.4,0.7c1,0.5,1.8,1.1,2.3,1.9
				c0.5,0.8,0.8,1.8,0.8,2.9h-3.7c0-0.8-0.3-1.4-0.8-1.9c-0.5-0.5-1.2-0.7-2.2-0.7c-0.9,0-1.6,0.2-2.1,0.6c-0.5,0.4-0.7,0.9-0.7,1.5
				c0,0.6,0.3,1.1,0.9,1.5c0.6,0.4,1.4,0.8,2.6,1.1c2.1,0.6,3.6,1.4,4.6,2.3s1.4,2.1,1.4,3.5c0,1.5-0.6,2.7-1.7,3.6
				c-1.2,0.9-2.7,1.3-4.7,1.3c-1.4,0-2.6-0.2-3.7-0.8c-1.1-0.5-2-1.2-2.6-2.1c-0.6-0.9-0.9-1.9-0.9-3h3.7c0,2,1.2,2.9,3.5,2.9
				c0.9,0,1.6-0.2,2-0.5C163.2,160.6,163.5,160.1,163.5,159.4z"/>
		</g>
		<g class="st0">
			<path class="st2" d="M72,197.3H60l-2.3,6.9h-7.3l12.4-33.4h6.4l12.5,33.4h-7.3L72,197.3z M61.8,191.7h8.4L66,179.2L61.8,191.7z"
				/>
			<path class="st2" d="M84.8,204.2v-33.4h11.7c4.1,0,7.1,0.8,9.2,2.3c2.1,1.6,3.1,3.8,3.1,6.8c0,1.6-0.4,3.1-1.3,4.3
				c-0.8,1.2-2,2.2-3.5,2.7c1.7,0.4,3.1,1.3,4.1,2.6c1,1.3,1.5,2.9,1.5,4.8c0,3.2-1,5.6-3.1,7.3c-2.1,1.7-5,2.5-8.8,2.5H84.8z
				 M91.7,184.8h5.1c3.5-0.1,5.2-1.4,5.2-4.2c0-1.5-0.4-2.6-1.3-3.3c-0.9-0.7-2.3-1-4.2-1h-4.8V184.8z M91.7,189.7v9h5.9
				c1.6,0,2.9-0.4,3.8-1.2c0.9-0.8,1.4-1.8,1.4-3.2c0-3.1-1.6-4.6-4.8-4.7H91.7z"/>
			<path class="st2" d="M114.8,204.2v-33.4h10.3c2.9,0,5.6,0.7,7.9,2c2.3,1.3,4.1,3.2,5.4,5.6c1.3,2.4,2,5.2,2,8.3v1.5
				c0,3.1-0.6,5.9-1.9,8.3c-1.3,2.4-3.1,4.3-5.4,5.6c-2.3,1.3-4.9,2-7.9,2H114.8z M121.7,176.4v22.3h3.3c2.7,0,4.8-0.9,6.2-2.6
				c1.4-1.8,2.1-4.3,2.2-7.6v-1.8c0-3.4-0.7-6-2.1-7.7c-1.4-1.8-3.5-2.6-6.2-2.6H121.7z"/>
			<path class="st2" d="M172.8,188.3c0,3.3-0.6,6.2-1.7,8.7c-1.2,2.5-2.8,4.4-5,5.7c-2.2,1.3-4.6,2-7.4,2c-2.8,0-5.2-0.7-7.4-2
				c-2.2-1.3-3.9-3.2-5-5.7s-1.8-5.3-1.8-8.5v-1.7c0-3.3,0.6-6.2,1.8-8.7c1.2-2.5,2.9-4.4,5-5.8c2.2-1.3,4.6-2,7.4-2
				c2.8,0,5.3,0.7,7.4,2c2.2,1.3,3.8,3.3,5,5.8c1.2,2.5,1.8,5.4,1.8,8.7V188.3z M165.8,186.7c0-3.5-0.6-6.2-1.9-8
				c-1.3-1.8-3-2.7-5.4-2.7c-2.3,0-4.1,0.9-5.3,2.7c-1.3,1.8-1.9,4.4-1.9,7.9v1.6c0,3.4,0.6,6.1,1.9,7.9c1.3,1.9,3.1,2.8,5.4,2.8
				c2.3,0,4.1-0.9,5.3-2.7c1.2-1.8,1.9-4.5,1.9-7.9V186.7z"/>
			<path class="st2" d="M186.8,170.8l8.6,24.2l8.5-24.2h9v33.4H206v-9.1l0.7-15.8l-9,24.9H193l-9-24.9l0.7,15.7v9.1h-6.9v-33.4
				H186.8z"/>
			<path class="st2" d="M226.3,204.2h-6.9v-33.4h6.9V204.2z"/>
			<path class="st2" d="M259.8,204.2h-6.9l-13.4-22v22h-6.9v-33.4h6.9l13.4,22v-22h6.9V204.2z"/>
			<path class="st2" d="M285.1,197.3H273l-2.3,6.9h-7.3l12.4-33.4h6.4l12.5,33.4h-7.3L285.1,197.3z M274.9,191.7h8.4l-4.2-12.5
				L274.9,191.7z"/>
			<path class="st2" d="M304.8,198.7h14.6v5.5h-21.5v-33.4h6.9V198.7z"/>
			<path class="st2" d="M343.4,189.7h-13.2v9h15.5v5.5h-22.4v-33.4h22.4v5.6h-15.5v8h13.2V189.7z"/>
			<path class="st2" d="M367.1,195.4c0-1.3-0.5-2.3-1.4-3c-0.9-0.7-2.6-1.4-5-2.2c-2.4-0.8-4.3-1.5-5.7-2.3c-3.8-2-5.7-4.8-5.7-8.3
				c0-1.8,0.5-3.4,1.5-4.8c1-1.4,2.5-2.5,4.4-3.3c1.9-0.8,4-1.2,6.4-1.2c2.4,0,4.5,0.4,6.4,1.3c1.9,0.9,3.3,2.1,4.3,3.7
				c1,1.6,1.5,3.4,1.5,5.4h-6.9c0-1.5-0.5-2.7-1.4-3.6c-1-0.8-2.3-1.3-4.1-1.3c-1.7,0-3,0.4-3.9,1.1c-0.9,0.7-1.4,1.6-1.4,2.8
				c0,1.1,0.5,2,1.6,2.7c1.1,0.7,2.7,1.4,4.8,2.1c3.9,1.2,6.8,2.6,8.6,4.4c1.8,1.7,2.7,3.9,2.7,6.5c0,2.9-1.1,5.2-3.3,6.8
				c-2.2,1.6-5.1,2.5-8.8,2.5c-2.6,0-4.9-0.5-7-1.4c-2.1-0.9-3.7-2.2-4.8-3.9c-1.1-1.6-1.7-3.5-1.7-5.7h6.9c0,3.7,2.2,5.5,6.6,5.5
				c1.6,0,2.9-0.3,3.8-1C366.6,197.6,367.1,196.6,367.1,195.4z"/>
		</g>
	</g>
	<g id="Grupo_133804" transform="translate(955.036 1019.114)">
		<rect id="Rectángulo_36458" x="-184.9" y="388.3" class="st1" width="327.2" height="2.5"/>
	</g>
</g>
</svg>
