<?xml version="1.0" encoding="utf-8"?>
<!-- Generator: Adobe Illustrator 26.0.1, SVG Export Plug-In . SVG Version: 6.00 Build 0)  -->
<svg version="1.1" id="Layer_1" xmlns="http://www.w3.org/2000/svg" xmlns:xlink="http://www.w3.org/1999/xlink" x="0px" y="0px"
	 viewBox="0 0 281 79.1" style="enable-background:new 0 0 281 79.1;" xml:space="preserve">
<style type="text/css">
	.st0{enable-background:new    ;}
	.st1{fill:#FFFFFF;}
	.st2{fill:#B42218;}
</style>
<g id="Grupo_134260" transform="translate(-209.988 -2113.985)">
	<g id="Grupo_134172" transform="translate(160.807 1975.9)">
		<g class="st0">
			<path class="st1" d="M54.6,157.8v6.3h-3.7v-17.8h6.9c1.3,0,2.5,0.2,3.5,0.7c1,0.5,1.8,1.2,2.3,2.1c0.5,0.9,0.8,1.9,0.8,3.1
				c0,1.7-0.6,3.1-1.8,4.1c-1.2,1-2.8,1.5-4.9,1.5H54.6z M54.6,154.9h3.3c1,0,1.7-0.2,2.2-0.7c0.5-0.5,0.8-1.1,0.8-2
				c0-0.9-0.3-1.6-0.8-2.1s-1.2-0.8-2.1-0.8h-3.4V154.9z"/>
			<path class="st1" d="M73.6,157.6h-2.9v6.5h-3.7v-17.8h6.6c2.1,0,3.7,0.5,4.9,1.4c1.1,0.9,1.7,2.3,1.7,4c0,1.2-0.3,2.2-0.8,3
				c-0.5,0.8-1.3,1.5-2.4,1.9l3.8,7.3v0.2H77L73.6,157.6z M70.7,154.6h3c0.9,0,1.6-0.2,2.1-0.7c0.5-0.5,0.8-1.1,0.8-1.9
				c0-0.8-0.2-1.5-0.7-2c-0.5-0.5-1.2-0.7-2.2-0.7h-2.9V154.6z"/>
			<path class="st1" d="M97.6,155.6c0,1.8-0.3,3.3-0.9,4.6c-0.6,1.3-1.5,2.3-2.7,3.1c-1.2,0.7-2.5,1.1-4,1.1c-1.5,0-2.8-0.4-3.9-1.1
				c-1.2-0.7-2.1-1.7-2.7-3c-0.6-1.3-1-2.8-1-4.5v-0.9c0-1.7,0.3-3.3,0.9-4.6c0.6-1.3,1.5-2.4,2.7-3.1c1.2-0.7,2.5-1.1,3.9-1.1
				c1.5,0,2.8,0.4,3.9,1.1c1.2,0.7,2,1.7,2.7,3.1c0.6,1.3,0.9,2.9,0.9,4.6V155.6z M93.9,154.8c0-1.9-0.3-3.3-1-4.2
				c-0.7-1-1.6-1.5-2.9-1.5c-1.2,0-2.2,0.5-2.8,1.4c-0.7,1-1,2.4-1,4.2v0.9c0,1.8,0.3,3.2,1,4.2c0.7,1,1.6,1.5,2.9,1.5
				c1.2,0,2.2-0.5,2.8-1.4c0.7-1,1-2.4,1-4.2V154.8z"/>
			<path class="st1" d="M114.2,158.2c-0.1,1.9-0.8,3.4-2.1,4.5c-1.3,1.1-3,1.6-5,1.6c-2.3,0-4.1-0.8-5.4-2.3c-1.3-1.5-2-3.6-2-6.3
				v-1.1c0-1.7,0.3-3.2,0.9-4.5c0.6-1.3,1.5-2.3,2.6-3c1.1-0.7,2.4-1,3.9-1c2.1,0,3.7,0.5,5,1.6c1.3,1.1,2,2.6,2.2,4.6h-3.7
				c-0.1-1.1-0.4-2-1-2.5c-0.5-0.5-1.4-0.8-2.5-0.8c-1.2,0-2.1,0.4-2.7,1.3c-0.6,0.9-0.9,2.2-0.9,4.1v1.3c0,1.9,0.3,3.3,0.9,4.2
				c0.6,0.9,1.5,1.3,2.8,1.3c1.1,0,2-0.3,2.5-0.8c0.6-0.5,0.9-1.3,1-2.4H114.2z"/>
			<path class="st1" d="M127.3,156.4h-7v4.8h8.3v2.9h-11.9v-17.8h11.9v3h-8.2v4.2h7V156.4z"/>
			<path class="st1" d="M139.9,159.4c0-0.7-0.2-1.2-0.7-1.6s-1.4-0.8-2.6-1.2s-2.3-0.8-3-1.2c-2-1.1-3-2.6-3-4.4
				c0-1,0.3-1.8,0.8-2.6c0.5-0.8,1.3-1.3,2.3-1.8c1-0.4,2.1-0.6,3.4-0.6c1.3,0,2.4,0.2,3.4,0.7c1,0.5,1.8,1.1,2.3,1.9
				c0.5,0.8,0.8,1.8,0.8,2.9h-3.7c0-0.8-0.3-1.4-0.8-1.9c-0.5-0.5-1.2-0.7-2.2-0.7c-0.9,0-1.6,0.2-2.1,0.6c-0.5,0.4-0.7,0.9-0.7,1.5
				c0,0.6,0.3,1.1,0.9,1.5c0.6,0.4,1.4,0.8,2.6,1.1c2.1,0.6,3.6,1.4,4.6,2.3s1.4,2.1,1.4,3.5c0,1.5-0.6,2.7-1.7,3.6
				c-1.2,0.9-2.7,1.3-4.7,1.3c-1.4,0-2.6-0.2-3.7-0.8c-1.1-0.5-2-1.2-2.6-2.1c-0.6-0.9-0.9-1.9-0.9-3h3.7c0,2,1.2,2.9,3.5,2.9
				c0.9,0,1.6-0.2,2-0.5C139.7,160.6,139.9,160.1,139.9,159.4z"/>
			<path class="st1" d="M160.7,155.6c0,1.8-0.3,3.3-0.9,4.6c-0.6,1.3-1.5,2.3-2.7,3.1c-1.2,0.7-2.5,1.1-4,1.1
				c-1.5,0-2.8-0.4-3.9-1.1c-1.2-0.7-2.1-1.7-2.7-3c-0.6-1.3-1-2.8-1-4.5v-0.9c0-1.7,0.3-3.3,0.9-4.6c0.6-1.3,1.5-2.4,2.7-3.1
				c1.2-0.7,2.5-1.1,3.9-1.1c1.5,0,2.8,0.4,3.9,1.1c1.2,0.7,2,1.7,2.7,3.1c0.6,1.3,0.9,2.9,0.9,4.6V155.6z M156.9,154.8
				c0-1.9-0.3-3.3-1-4.2c-0.7-1-1.6-1.5-2.9-1.5c-1.2,0-2.2,0.5-2.8,1.4c-0.7,1-1,2.4-1,4.2v0.9c0,1.8,0.3,3.2,1,4.2
				c0.7,1,1.6,1.5,2.9,1.5c1.2,0,2.2-0.5,2.8-1.4c0.7-1,1-2.4,1-4.2V154.8z"/>
			<path class="st1" d="M169.5,164.1v-17.8h5.5c1.6,0,3,0.4,4.2,1.1c1.2,0.7,2.2,1.7,2.9,3c0.7,1.3,1,2.8,1,4.4v0.8
				c0,1.7-0.3,3.1-1,4.4c-0.7,1.3-1.6,2.3-2.9,3c-1.2,0.7-2.6,1.1-4.2,1.1H169.5z M173.2,149.3v11.9h1.8c1.4,0,2.5-0.5,3.3-1.4
				s1.1-2.3,1.2-4v-0.9c0-1.8-0.4-3.2-1.1-4.1c-0.7-0.9-1.8-1.4-3.3-1.4H173.2z"/>
			<path class="st1" d="M196.5,156.4h-7v4.8h8.3v2.9h-11.9v-17.8h11.9v3h-8.2v4.2h7V156.4z"/>
		</g>
		<g class="st0">
			<path class="st2" d="M72,197.3H60l-2.3,6.9h-7.3l12.4-33.4h6.4l12.5,33.4h-7.3L72,197.3z M61.8,191.7h8.4L66,179.2L61.8,191.7z"
				/>
			<path class="st2" d="M102.1,195.4c0-1.3-0.5-2.3-1.4-3c-0.9-0.7-2.6-1.4-5-2.2c-2.4-0.8-4.3-1.5-5.7-2.3c-3.8-2-5.7-4.8-5.7-8.3
				c0-1.8,0.5-3.4,1.5-4.8c1-1.4,2.5-2.5,4.4-3.3c1.9-0.8,4-1.2,6.4-1.2c2.4,0,4.5,0.4,6.4,1.3c1.9,0.9,3.3,2.1,4.3,3.7
				c1,1.6,1.5,3.4,1.5,5.4h-6.9c0-1.5-0.5-2.7-1.4-3.6c-1-0.8-2.3-1.3-4.1-1.3c-1.7,0-3,0.4-3.9,1.1c-0.9,0.7-1.4,1.6-1.4,2.8
				c0,1.1,0.5,2,1.6,2.7s2.7,1.4,4.8,2.1c3.9,1.2,6.8,2.6,8.6,4.4s2.7,3.9,2.7,6.5c0,2.9-1.1,5.2-3.3,6.8c-2.2,1.6-5.1,2.5-8.8,2.5
				c-2.6,0-4.9-0.5-7-1.4c-2.1-0.9-3.7-2.2-4.8-3.9c-1.1-1.6-1.7-3.5-1.7-5.7h6.9c0,3.7,2.2,5.5,6.6,5.5c1.6,0,2.9-0.3,3.8-1
				C101.7,197.6,102.1,196.6,102.1,195.4z"/>
			<path class="st2" d="M120.6,192.4v11.8h-6.9v-33.4h13c2.5,0,4.7,0.5,6.6,1.4c1.9,0.9,3.4,2.2,4.4,3.9c1,1.7,1.5,3.6,1.5,5.8
				c0,3.3-1.1,5.9-3.4,7.7c-2.2,1.9-5.3,2.8-9.3,2.8H120.6z M120.6,186.9h6.2c1.8,0,3.2-0.4,4.2-1.3c1-0.9,1.4-2.1,1.4-3.7
				c0-1.6-0.5-3-1.4-4s-2.3-1.5-4-1.6h-6.3V186.9z"/>
			<path class="st2" d="M151.3,204.2h-6.9v-33.4h6.9V204.2z"/>
			<path class="st2" d="M170.1,192h-5.5v12.2h-6.9v-33.4h12.4c3.9,0,7,0.9,9.1,2.6c2.1,1.8,3.2,4.2,3.2,7.5c0,2.3-0.5,4.2-1.5,5.7
				c-1,1.5-2.5,2.7-4.5,3.6l7.2,13.7v0.3h-7.4L170.1,192z M164.6,186.4h5.6c1.7,0,3.1-0.4,4-1.3c0.9-0.9,1.4-2.1,1.4-3.6
				c0-1.6-0.4-2.8-1.3-3.7c-0.9-0.9-2.3-1.4-4.1-1.4h-5.5V186.4z"/>
			<path class="st2" d="M206.6,197.3h-12.1l-2.3,6.9h-7.3l12.4-33.4h6.4l12.5,33.4h-7.3L206.6,197.3z M196.3,191.7h8.4l-4.2-12.5
				L196.3,191.7z"/>
			<path class="st2" d="M245.1,193.1c-0.3,3.6-1.6,6.4-4,8.5c-2.4,2.1-5.5,3.1-9.5,3.1c-4.3,0-7.7-1.4-10.1-4.3
				c-2.5-2.9-3.7-6.8-3.7-11.9v-2c0-3.2,0.6-6,1.7-8.5c1.1-2.4,2.8-4.3,4.9-5.6c2.1-1.3,4.5-2,7.3-2c3.9,0,7,1,9.3,3.1
				c2.4,2.1,3.7,5,4.1,8.7h-6.9c-0.2-2.2-0.8-3.7-1.8-4.7c-1-1-2.6-1.5-4.7-1.5c-2.3,0-4,0.8-5.2,2.5c-1.1,1.6-1.7,4.2-1.8,7.7v2.5
				c0,3.6,0.5,6.2,1.6,7.9c1.1,1.7,2.8,2.5,5.2,2.5c2.1,0,3.7-0.5,4.8-1.5c1-1,1.6-2.5,1.8-4.5H245.1z"/>
			<path class="st2" d="M256.9,204.2H250v-33.4h6.9V204.2z"/>
			<path class="st2" d="M290.7,188.3c0,3.3-0.6,6.2-1.7,8.7s-2.8,4.4-5,5.7c-2.2,1.3-4.6,2-7.4,2c-2.8,0-5.2-0.7-7.4-2
				c-2.2-1.3-3.9-3.2-5-5.7s-1.8-5.3-1.8-8.5v-1.7c0-3.3,0.6-6.2,1.8-8.7c1.2-2.5,2.9-4.4,5-5.8c2.2-1.3,4.6-2,7.4-2s5.3,0.7,7.4,2
				c2.2,1.3,3.8,3.3,5,5.8c1.2,2.5,1.8,5.4,1.8,8.7V188.3z M283.8,186.7c0-3.5-0.6-6.2-1.9-8c-1.3-1.8-3-2.7-5.4-2.7
				c-2.3,0-4.1,0.9-5.3,2.7c-1.3,1.8-1.9,4.4-1.9,7.9v1.6c0,3.4,0.6,6.1,1.9,7.9c1.3,1.9,3.1,2.8,5.4,2.8c2.3,0,4.1-0.9,5.3-2.7
				c1.2-1.8,1.9-4.5,1.9-7.9V186.7z M277.8,161.8h7.2l-6.4,7.1h-5.4L277.8,161.8z"/>
			<path class="st2" d="M322.9,204.2H316l-13.4-22v22h-6.9v-33.4h6.9l13.4,22v-22h6.9V204.2z"/>
		</g>
	</g>
</g>
</svg>
