<svg xmlns="http://www.w3.org/2000/svg" xmlns:xlink="http://www.w3.org/1999/xlink" width="438.711" height="380.49" viewBox="0 0 438.711 380.49">
  <defs>
    <clipPath id="clip-path">
      <path id="Trazado_170707" data-name="Trazado 170707" d="M105.315,415.1H49.9v16.416h63.117a4.355,4.355,0,0,0,4.355-4.355h0A12.059,12.059,0,0,0,105.315,415.1Z" transform="translate(-49.902 -415.103)" fill="none"/>
    </clipPath>
  </defs>
  <g id="Grupo_134289" data-name="Grupo 134289" transform="translate(-218.819 -5001.859)">
    <g id="Grupo_133232" data-name="Grupo 133232" transform="translate(246.48 4996.109)">
      <path id="Trazado_151846" data-name="Trazado 151846" d="M429.775,467.169c15.208-24.062,19.534-55.29,11.482-82.866-5.091-17.434-14.861-33.631-16.111-51.811-2.5-36.349,29-65.735,35.529-101.534,2.872-15.733-.261-34.063-12.571-43.619-12.158-9.439-29.511-7.512-43.275-.9s-25.411,17.193-38.627,24.929-29.488,12.519-43.444,6.362c-14.136-6.237-22.155-21.958-26.646-37.279s-6.7-31.641-14.362-45.522c-12.634-22.877-39.571-35.351-64.673-32.124s-47.53,20.909-59.56,44.139-14.133,51.326-8.144,76.983c3.038,13.013,8.042,25.474,10.771,38.562s2.979,27.412-3.113,39.2c-12.739,24.65-46.347,28.088-63.946,49.228-14.525,17.447-14.981,44.073-6.738,65.53s23.735,38.865,39.181,55.428c72.045,2.529,145.381,2.7,217.426,5.225C370.954,478.081,401.807,468.889,429.775,467.169Z" transform="translate(-80.961 -91.343)" fill="#a4a4b4" opacity="0.354" style="mix-blend-mode: multiply;isolation: isolate"/>
      <path id="Trazado_151847" data-name="Trazado 151847" d="M359.209,164.3c-.083,11.093,8.34,20.748,6.874,31.688-.784,5.854-4.346,11.788-2.276,17.127,1.832,4.725,7.078,5.544,11.089,4.008,9.39-3.6,15.1-15.613,17.826-27.423,2.567-11.108,3.2-23.516-.907-33.872-3.313-8.343-10.957-15.709-18.719-15.027C365.987,141.423,359.272,155.942,359.209,164.3Z" transform="translate(-5.381 -43.323)" fill="#a4a4b4" opacity="0.31" style="mix-blend-mode: multiply;isolation: isolate"/>
      <path id="Trazado_151848" data-name="Trazado 151848" d="M115.715,141.218a57.153,57.153,0,0,0-1.338,59.885c3.443,5.8,8.092,11.2,14.37,14.422s14.377,3.942,20.625.671c9.476-4.961,11.572-16.661,10.818-26.65s-3.22-20.459.971-29.7c2.733-6.025,7.979-10.723,12.633-15.657s9-10.693,9.239-17.216c.623-16.908-18.937-15.645-30.726-12.133C137.257,119.322,123.874,128.724,115.715,141.218Z" transform="translate(-78.384 -94.66)" fill="#a4a4b4" opacity="0.31" style="mix-blend-mode: multiply;isolation: isolate"/>
      <g id="Grupo_107069" data-name="Grupo 107069" transform="translate(8.637 5.75)" style="mix-blend-mode: multiply;isolation: isolate">
        <path id="Trazado_151849" data-name="Trazado 151849" d="M424.293,472.984l-1.546-1.477c4.253-4.864,11.042-16.015,8.744-36.062-1.023-8.924-3.559-17.74-6.011-26.265-1.095-3.809-2.227-7.747-3.216-11.658-10.547-41.727-5.933-87.758,12.657-126.289,1.651-3.419,3.438-6.85,5.167-10.168,5.124-9.835,10.422-20.007,12.7-30.993,4-19.28-3.9-33.73-12.932-39-8.663-5.056-20.891-4.283-33.547,2.121-4.63,2.342-9.13,5.206-13.482,7.976-5.751,3.662-11.7,7.447-18.083,10.128-25.121,10.546-56.529,1.583-73.055-20.845-7.943-10.778-12.428-23.8-16.764-36.4-1.68-4.881-3.418-9.93-5.329-14.76-5.944-15.017-16.822-33.868-34.893-38.376-15.878-3.964-31.961,4.748-42.654,12.753-20.458,15.317-34.879,36.061-40.608,58.409-3.862,15.071-4.018,31.474-4.168,47.337-.224,23.623-.456,48.051-13.2,67.724-5.8,8.95-13.777,16.09-21.49,23-7.225,6.467-14.7,13.155-20.265,21.261-12.619,18.367-15.713,44.371-8.486,71.345,6.493,24.235,19.729,45.739,32.529,66.535l-1.759,1.184c-12.883-20.931-26.206-42.576-32.784-67.128-7.4-27.618-4.19-54.3,8.8-73.213,5.716-8.321,13.285-15.1,20.6-21.647,7.61-6.812,15.478-13.856,21.119-22.561,12.4-19.127,12.613-42.146,12.844-66.517.152-16,.308-32.544,4.241-47.884,5.853-22.836,20.56-44.01,41.411-59.623,11.047-8.27,27.709-17.257,44.357-13.1,18.93,4.723,30.211,24.179,36.34,39.668,1.931,4.878,3.677,9.95,5.365,14.856,4.282,12.438,8.709,25.3,16.452,35.806,15.976,21.681,46.336,30.344,70.62,20.15,6.223-2.612,12.095-6.35,17.774-9.965,4.393-2.8,8.936-5.691,13.657-8.078,13.278-6.717,26.208-7.472,35.478-2.063,9.682,5.649,18.18,21.006,13.958,41.374-2.342,11.295-7.713,21.606-12.909,31.578-1.721,3.3-3.5,6.717-5.135,10.106-18.363,38.058-22.92,83.525-12.5,124.742.979,3.875,2.107,7.8,3.2,11.587,2.478,8.615,5.04,17.522,6.086,26.635C435.967,456.1,428.786,467.845,424.293,472.984Z" transform="translate(-87.906 -97.739)" fill="#a4a4b4"/>
      </g>
    </g>
    <g id="Grupo_133231" data-name="Grupo 133231" transform="translate(179.092 4931.438)">
      <g id="Grupo_133193" data-name="Grupo 133193" transform="translate(269.382 116.531)">
        <rect id="Rectángulo_36419" data-name="Rectángulo 36419" width="195.888" height="130.011" rx="6.333" fill="#fff" stroke="#ebebeb" stroke-miterlimit="10" stroke-width="1"/>
        <g id="Grupo_133187" data-name="Grupo 133187" transform="translate(115.57 33.809)">
          <g id="Grupo_133174" data-name="Grupo 133174" transform="translate(0.404 36.057)">
            <path id="Trazado_170585" data-name="Trazado 170585" d="M399.985,183.555a1.214,1.214,0,0,1-1.213,1.213H372.259a1.213,1.213,0,1,1,0-2.425h26.513A1.213,1.213,0,0,1,399.985,183.555Z" transform="translate(-371.046 -182.343)" fill="#ebebeb"/>
          </g>
          <g id="Grupo_133175" data-name="Grupo 133175" transform="translate(2.299 29.717)">
            <path id="Trazado_170586" data-name="Trazado 170586" d="M398.012,177.479a1.213,1.213,0,0,1-1.213,1.212H374.075a1.213,1.213,0,0,1,0-2.425H396.8A1.214,1.214,0,0,1,398.012,177.479Z" transform="translate(-372.863 -176.266)" fill="#ebebeb"/>
          </g>
          <g id="Grupo_133176" data-name="Grupo 133176" transform="translate(7.815 23.377)">
            <path id="Trazado_170587" data-name="Trazado 170587" d="M392.261,171.4a1.214,1.214,0,0,1-1.213,1.213H379.363a1.213,1.213,0,0,1,0-2.426h11.685A1.214,1.214,0,0,1,392.261,171.4Z" transform="translate(-378.15 -170.188)" fill="#ebebeb"/>
          </g>
          <g id="Grupo_133177" data-name="Grupo 133177" transform="translate(0.404 70.808)">
            <path id="Trazado_170588" data-name="Trazado 170588" d="M399.985,216.868a1.214,1.214,0,0,1-1.213,1.213H372.259a1.213,1.213,0,1,1,0-2.426h26.513A1.214,1.214,0,0,1,399.985,216.868Z" transform="translate(-371.046 -215.655)" fill="#ebebeb"/>
          </g>
          <g id="Grupo_133178" data-name="Grupo 133178" transform="translate(2.299 64.771)">
            <path id="Trazado_170589" data-name="Trazado 170589" d="M398.012,211.081a1.214,1.214,0,0,1-1.213,1.213H374.075a1.213,1.213,0,0,1,0-2.426H396.8A1.214,1.214,0,0,1,398.012,211.081Z" transform="translate(-372.863 -209.868)" fill="#ebebeb"/>
          </g>
          <g id="Grupo_133179" data-name="Grupo 133179" transform="translate(7.815 58.734)">
            <path id="Trazado_170590" data-name="Trazado 170590" d="M392.261,205.294a1.214,1.214,0,0,1-1.213,1.213H379.363a1.213,1.213,0,0,1,0-2.426h11.685A1.214,1.214,0,0,1,392.261,205.294Z" transform="translate(-378.15 -204.081)" fill="#ebebeb"/>
          </g>
          <g id="Grupo_133180" data-name="Grupo 133180" transform="translate(0.404 1.836)">
            <path id="Trazado_170591" data-name="Trazado 170591" d="M399.985,150.752a1.213,1.213,0,0,1-1.213,1.212H372.259a1.213,1.213,0,1,1,0-2.425h26.513A1.214,1.214,0,0,1,399.985,150.752Z" transform="translate(-371.046 -149.539)" fill="#ebebeb"/>
          </g>
          <g id="Grupo_133181" data-name="Grupo 133181" transform="translate(2.299 7.873)">
            <path id="Trazado_170592" data-name="Trazado 170592" d="M398.012,156.538a1.214,1.214,0,0,1-1.213,1.213H374.075a1.213,1.213,0,0,1,0-2.425H396.8A1.213,1.213,0,0,1,398.012,156.538Z" transform="translate(-372.863 -155.326)" fill="#ebebeb"/>
          </g>
          <g id="Grupo_133182" data-name="Grupo 133182" transform="translate(7.821 13.91)">
            <path id="Trazado_170593" data-name="Trazado 170593" d="M392.267,162.325a1.214,1.214,0,0,1-1.213,1.213H379.369a1.213,1.213,0,1,1,0-2.425h11.685A1.213,1.213,0,0,1,392.267,162.325Z" transform="translate(-378.156 -161.113)" fill="#ebebeb"/>
          </g>
          <g id="Grupo_133183" data-name="Grupo 133183" transform="translate(2.112 42.396)">
            <path id="Trazado_170594" data-name="Trazado 170594" d="M397.834,189.633a1.214,1.214,0,0,1-1.213,1.213H373.9a1.213,1.213,0,0,1,0-2.426h22.724A1.214,1.214,0,0,1,397.834,189.633Z" transform="translate(-372.684 -188.42)" fill="#ebebeb"/>
          </g>
          <g id="Grupo_133184" data-name="Grupo 133184" transform="translate(7.032 48.736)">
            <path id="Trazado_170595" data-name="Trazado 170595" d="M392.763,195.71a1.214,1.214,0,0,1-1.213,1.213H378.612a1.213,1.213,0,0,1,0-2.426H391.55A1.214,1.214,0,0,1,392.763,195.71Z" transform="translate(-377.4 -194.497)" fill="#ebebeb"/>
          </g>
          <g id="Grupo_133185" data-name="Grupo 133185" transform="translate(0 0.009)">
            <path id="Trazado_170596" data-name="Trazado 170596" d="M400.406,185.052c0,9.774-7.1,14.549-13.97,19.167-6.45,4.335-12.541,8.43-12.541,16.481a1.617,1.617,0,0,1-3.235,0c0-9.774,7.1-14.548,13.97-19.167,6.45-4.335,12.541-8.43,12.541-16.481s-6.091-12.146-12.541-16.481c-6.868-4.617-13.97-9.392-13.97-19.165a1.617,1.617,0,0,1,3.235,0c0,8.05,6.091,12.145,12.54,16.48C393.3,170.5,400.406,175.278,400.406,185.052Z" transform="translate(-370.659 -147.788)" fill="#dbdbdb"/>
          </g>
          <g id="Grupo_133186" data-name="Grupo 133186">
            <path id="Trazado_170597" data-name="Trazado 170597" d="M400.406,149.4c0,9.775-7.1,14.55-13.971,19.169-6.449,4.335-12.54,8.431-12.54,16.482s6.091,12.148,12.541,16.484c6.868,4.618,13.97,9.394,13.97,19.168a1.617,1.617,0,0,1-3.235,0c0-8.051-6.091-12.147-12.54-16.482-6.869-4.619-13.971-9.395-13.971-19.17s7.1-14.549,13.97-19.167c6.45-4.337,12.541-8.433,12.541-16.484a1.617,1.617,0,1,1,3.235,0Z" transform="translate(-370.659 -147.779)" fill="#dbdbdb"/>
          </g>
        </g>
        <line id="Línea_2142" data-name="Línea 2142" x2="66.811" transform="translate(64.538 16.002)" fill="none" stroke="#ebebeb" stroke-linecap="round" stroke-linejoin="round" stroke-width="4"/>
        <g id="Grupo_133192" data-name="Grupo 133192" transform="translate(17.08 40.696)">
          <g id="Grupo_133188" data-name="Grupo 133188" transform="translate(41.877 21.184)">
            <path id="Trazado_170598" data-name="Trazado 170598" d="M346.617,175.583a1.341,1.341,0,0,1-.821,1.708l-27.623,9.691a1.339,1.339,0,1,1-.887-2.528l27.623-9.691A1.34,1.34,0,0,1,346.617,175.583Z" transform="translate(-316.39 -174.687)" fill="#ebebeb"/>
          </g>
          <path id="Trazado_170599" data-name="Trazado 170599" d="M346.19,180.754a7.555,7.555,0,1,1-3.537-10.082A7.554,7.554,0,0,1,346.19,180.754Z" transform="translate(-273.846 -153.709)" fill="#dbdbdb"/>
          <g id="Grupo_133189" data-name="Grupo 133189" transform="translate(10.047 31.393)">
            <path id="Trazado_170600" data-name="Trazado 170600" d="M285.88,187.512a1.339,1.339,0,0,1,1.263-1.411l29.229-1.624a1.339,1.339,0,1,1,.148,2.675l-29.228,1.624A1.341,1.341,0,0,1,285.88,187.512Z" transform="translate(-285.878 -184.474)" fill="#ebebeb"/>
          </g>
          <g id="Grupo_133190" data-name="Grupo 133190" transform="translate(41.082 32.658)">
            <path id="Trazado_170601" data-name="Trazado 170601" d="M332.43,213.447a1.341,1.341,0,0,1-1.833-.479L315.812,187.7a1.34,1.34,0,0,1,2.313-1.353l14.785,25.266A1.339,1.339,0,0,1,332.43,213.447Z" transform="translate(-315.628 -185.686)" fill="#ebebeb"/>
          </g>
          <g id="Grupo_133191" data-name="Grupo 133191" transform="translate(38.915 0.753)">
            <path id="Trazado_170602" data-name="Trazado 170602" d="M314.816,155.1a1.341,1.341,0,0,1,1.411,1.263l1.624,29.228a1.339,1.339,0,0,1-2.675.149l-1.624-29.229A1.339,1.339,0,0,1,314.816,155.1Z" transform="translate(-313.551 -155.102)" fill="#ebebeb"/>
          </g>
          <circle id="Elipse_4502" data-name="Elipse 4502" cx="9.85" cy="9.85" r="9.85" transform="translate(29.03 27.457) rotate(-23.076)" fill="#dbdbdb"/>
          <path id="Trazado_170603" data-name="Trazado 170603" d="M315.858,169.479a7.555,7.555,0,1,1,7.124-7.963A7.556,7.556,0,0,1,315.858,169.479Z" transform="translate(-274.88 -154.381)" fill="#dbdbdb"/>
          <path id="Trazado_170604" data-name="Trazado 170604" d="M327.34,214.047a7.555,7.555,0,1,1,9.222-5.4A7.556,7.556,0,0,1,327.34,214.047Z" transform="translate(-274.284 -152.446)" fill="#dbdbdb"/>
          <path id="Trazado_170605" data-name="Trazado 170605" d="M284.22,195.375a7.555,7.555,0,1,1,7.124-7.963A7.554,7.554,0,0,1,284.22,195.375Z" transform="translate(-276.247 -153.262)" fill="#dbdbdb"/>
        </g>
        <line id="Línea_2143" data-name="Línea 2143" y2="82.042" transform="translate(97.944 31.277)" fill="none" stroke="#ebebeb" stroke-miterlimit="10" stroke-width="1"/>
        <line id="Línea_2144" data-name="Línea 2144" x2="31.178" transform="translate(155.032 79.496)" fill="none" stroke="#ebebeb" stroke-linecap="round" stroke-linejoin="round" stroke-width="3"/>
        <line id="Línea_2145" data-name="Línea 2145" x2="31.178" transform="translate(155.032 88.194)" fill="none" stroke="#ebebeb" stroke-linecap="round" stroke-linejoin="round" stroke-width="3"/>
        <line id="Línea_2146" data-name="Línea 2146" x2="31.178" transform="translate(155.032 96.892)" fill="none" stroke="#ebebeb" stroke-linecap="round" stroke-linejoin="round" stroke-width="3"/>
        <line id="Línea_2147" data-name="Línea 2147" x2="16.471" transform="translate(155.032 105.59)" fill="none" stroke="#ebebeb" stroke-linecap="round" stroke-linejoin="round" stroke-width="3"/>
        <line id="Línea_2148" data-name="Línea 2148" x2="31.178" transform="translate(155.032 37.099)" fill="none" stroke="#ebebeb" stroke-linecap="round" stroke-linejoin="round" stroke-width="3"/>
        <line id="Línea_2149" data-name="Línea 2149" x2="16.471" transform="translate(155.032 45.797)" fill="none" stroke="#ebebeb" stroke-linecap="round" stroke-linejoin="round" stroke-width="3"/>
      </g>
      <g id="Grupo_133207" data-name="Grupo 133207" transform="translate(84.259 88.484)">
        <path id="Trazado_170606" data-name="Trazado 170606" d="M121.257,149.157c.855-1.784,2.531-3,3.917-4.412s2.581-3.36,2.074-5.272a31.274,31.274,0,0,0-1.538-3.081c-.9-2.3.319-5,2.225-6.568s4.362-2.275,6.741-2.94c-3.52-2.671-5.925-7.221-4.924-11.524.875-3.757,5.927-7.71,9.8-7.3a3.991,3.991,0,0,1-1.393-4.344c.722-2.11,2.845-3.421,4.958-4.13a18.248,18.248,0,0,1,14.289,1.182,12.884,12.884,0,0,1-4.368-6.427c-.534-1.8-.526-4.06.962-5.209a3.8,3.8,0,0,1,3.409-.449,9.419,9.419,0,0,1,3.052,1.818,41.832,41.832,0,0,1,9.521,10.54c.1-1.825-.745-3.55-1.158-5.33s-.213-3.992,1.348-4.944a4.262,4.262,0,0,1,3.958.146,8.935,8.935,0,0,1,4.643,6.007,4.479,4.479,0,0,1,8.3.251c1.674-2.3,4.82-4.294,7.4-5.493,2.239-1.039,4.9-1.562,7.16-.58s3.77,3.869,2.614,6.05a20.228,20.228,0,0,0,5.855.587,14.97,14.97,0,0,1,5.8.889,5.561,5.561,0,0,1,3.529,4.375c.152,1.963-1.563,4.027-3.517,3.777a7.405,7.405,0,0,1,5.028,2.159,3.879,3.879,0,0,1,.776,4.91,11.152,11.152,0,0,1-2.824,2.118c-.962.692-1.786,1.924-1.3,3.006l7.646-1.212c1.964-.311,4.416-.415,5.46,1.278a3.419,3.419,0,0,1-.8,4.066,8.564,8.564,0,0,1-4.01,1.877,15.081,15.081,0,0,0-4.23,1.419,23.292,23.292,0,0,1,6.014,4.01,7.77,7.77,0,0,1,2.352,6.537c-.431,2.366-2.772,4.409-5.136,3.967.623,1.885,2.011,3.4,3.125,5.039s2,3.677,1.416,5.575a5.488,5.488,0,0,1-4.24,3.437c-.214.046-.431.054-.647.083.4.4.8.815,1.173,1.246a6.325,6.325,0,0,1,1.349,2.125,2.578,2.578,0,0,1-.33,2.408c-.927,1.126-2.694.878-4.091.463s-3.069-.846-4.187.091a7.3,7.3,0,0,1,2.695,3.943c.379,1.2.388,2.735-.628,3.483a3.083,3.083,0,0,1-1.641.487,8.981,8.981,0,0,1-7.643-3.5l3.434-10.844-50.588,1.492c6.219,10.287,10.263,21.591,7,32.5-.511,1.709-2.7,2.288-4.462,2.013s-3.443-1.1-5.225-1.065-3.421.934-5.087,1.577-3.643,1.017-5.164.08c-2.337-1.44-2.9-5.5-5.641-5.612-.987-.039-1.907.523-2.892.587-2.34.151-3.912-2.443-4.26-4.761s-.092-4.836-1.29-6.851c-.8,2.042-3.886,2.392-5.527.939s-1.917-4-1.252-6.086,2.3-3.82,3.7-5.506c-2.263-.242-3.524,3.191-5.8,3.184a2.724,2.724,0,0,1-2.385-1.869,5.425,5.425,0,0,1,0-3.178,11.136,11.136,0,0,1,2.759-4.9l-1.869.055C122.711,157.658,119.53,152.76,121.257,149.157Z" transform="translate(-80.758 -88.484)" fill="#263238"/>
        <g id="Grupo_133196" data-name="Grupo 133196" transform="translate(26.657 243.308)">
          <g id="Grupo_133194" data-name="Grupo 133194">
            <path id="Trazado_170607" data-name="Trazado 170607" d="M253.514,440.713H107.968s8.66-75.739,34.5-118.994h86.352S260.405,352.932,253.514,440.713Z" transform="translate(-107.968 -321.719)" fill="#38474f"/>
          </g>
          <g id="Grupo_133195" data-name="Grupo 133195" transform="translate(49.856 3.064)">
            <path id="Trazado_170608" data-name="Trazado 170608" d="M222.688,324.66c-11.031.763-22.023,1.445-33.087,1.6q-16.552.235-33.1-.54c-1-.045-.983,1.473,0,1.541q16.526,1.138,33.1,1.167c1.482,0,2.968-.008,4.452-.013a1.17,1.17,0,0,0-.016.125c.493,6.326,1.056,12.645,1.6,18.966.337,3.926.169,12.821,6.518,11.482a1.328,1.328,0,0,0,.985-1.277c-.661-9.778-.943-19.579-.909-29.378,6.832-.111,13.666-.336,20.458-.806C224.522,327.4,224.534,324.533,222.688,324.66Zm-22.243,31.659c-1.646-.708-1.733-4.109-1.854-5.464q-.322-3.626-.647-7.251c-.449-5.022-.887-10.044-1.374-15.062a1.3,1.3,0,0,0-.04-.133c1.236-.008,2.472-.026,3.71-.042C199.947,337.685,200.033,347.005,200.445,356.319Z" transform="translate(-155.76 -324.656)" fill="#263238"/>
            <path id="Trazado_170609" data-name="Trazado 170609" d="M208.513,437.808c-.521-5.328-1.133-22.643-1.881-27.948a247.819,247.819,0,0,0-6.144-31.513c-1.748-6.32-3.327-7.6-3.786.725-.449,8.14-.522,16.3-.634,24.44-.091,7.662.068,27.314.113,34.976h12.4Z" transform="translate(-154.021 -322.559)" fill="#263238"/>
          </g>
        </g>
        <path id="Trazado_170610" data-name="Trazado 170610" d="M175.826,276.484c9.993,95.081-16.834,158.977-16.834,158.977-32.192-8.292-53.165,1.951-76.577-6.342,27.8-65.359,47.821-152.635,47.821-152.635Z" transform="translate(-82.415 -80.365)" fill="#ebebeb"/>
        <path id="Trazado_170611" data-name="Trazado 170611" d="M222.035,187.821c15.44,11.811,68.164,80.948,68.164,80.948l-5.866,52.9c-33.965-7.122-80.744-63.058-80.744-63.058Z" transform="translate(-77.181 -84.194)" fill="#ebebeb"/>
        <path id="Trazado_170612" data-name="Trazado 170612" d="M282.149,321.678c16.006-27.911,33.957-76.732,39.634-114.249l-32.743-19.837L254.41,263.847Z" transform="translate(-74.987 -84.204)" fill="#ebebeb"/>
        <path id="Trazado_170613" data-name="Trazado 170613" d="M254.375,282.11q.161-2.374.388-4.742.446-4.674,1.141-9.321a164.818,164.818,0,0,1,3.822-18.487c.922-3.43,2.04-6.794,3.21-10.147a.822.822,0,0,1,.75-.569c.008-.082.009-.166.018-.248a1.149,1.149,0,0,1,2.3,0c.014,2.786-.156,5.564-.075,8.355s.263,5.561.48,8.334a105.333,105.333,0,0,0,2.763,16.511A.6.6,0,0,1,268,272.1a102.818,102.818,0,0,1-3.669-16.549,76.926,76.926,0,0,1-.716-8.325c-.043-1.283-.085-2.587-.1-3.891a197.266,197.266,0,0,0-6.353,33.2q-.264,2.646-.451,5.3c-.123,1.757-.086,3.572-.376,5.31-.218,1.309-2.073.887-2.168-.28A32.172,32.172,0,0,1,254.375,282.11Z" transform="translate(-74.998 -82.049)" fill="#dbdbdb"/>
        <path id="Trazado_170614" data-name="Trazado 170614" d="M112.76,212.235C100.547,223.7,81.971,346.34,93.682,358.243l37.067-22.06,21.642-76.35Z" transform="translate(-82.089 -83.14)" fill="#ebebeb"/>
        <path id="Trazado_170615" data-name="Trazado 170615" d="M226.01,187.889c-15.231-2.9-57.108-1.1-57.108-1.1s-39.625,10.531-57.074,26.573c-1.451,6.552,1.786,53.852,30.49,114.213H228.67c-2.8-41.776,15.383-45.1,16.439-67.5C246.177,237.41,220.209,220.237,226.01,187.889Z" transform="translate(-81.157 -84.262)" fill="#ebebeb"/>
        <path id="Trazado_170616" data-name="Trazado 170616" d="M208.673,189.363c4.3,8.389,8.7,16.729,12.931,25.16,2.08,4.15,4.244,8.269,6.222,12.468.772,1.64,1.254,3.406.463,5.131a6.376,6.376,0,0,1-2.49,2.584c-1.183.755-2.486,1.3-3.705,1.987a11.274,11.274,0,0,0-1.15.748l11.358-.595a1.182,1.182,0,0,1,1.128,1.462l-8.449,55.833c-.8,5.3-1.544,10.618-2.43,15.906a1.153,1.153,0,0,1-1.4.816,1.169,1.169,0,0,1-.816-1.4c1.267-9.373,2.808-18.715,4.224-28.067q2.1-13.886,4.2-27.772,1.088-7.189,2.176-14.377l-12.473.653a1.173,1.173,0,0,1-1.128-1.463c.96-2.506,3.312-3.646,5.567-4.788a10.5,10.5,0,0,0,2.82-1.827,2.866,2.866,0,0,0,.308-3.228c-.862-2.105-2-4.135-2.986-6.185l-2.914-6.053q-2.978-6.186-5.9-12.4c-2.206-4.67-4.318-9.386-6.515-14.06C207.422,189.273,208.347,188.726,208.673,189.363Z" transform="translate(-77.006 -84.14)" fill="#dbdbdb"/>
        <path id="Trazado_170617" data-name="Trazado 170617" d="M144.024,207.793c-.059-3.532-.185-7.06-.322-10.589-.032-.832,1.166-.783,1.262,0a179.08,179.08,0,0,1,.281,38.082c-.293,3.175-.677,6.343-1.113,9.5a107.038,107.038,0,0,1,25.119,5.586,1.173,1.173,0,0,1,0,2.25q-5.542,1.915-11.241,3.325c-1.853.456-3.725.836-5.6,1.186-1.594.3-3.214.41-4.815.632A163.829,163.829,0,0,1,159.47,284.36a196.239,196.239,0,0,1,7.787,29.221,119.783,119.783,0,0,1,2.2,16.985c.044,1.083-1.744,1.355-1.916.247-.765-4.934-1.337-9.894-2.2-14.814s-1.917-9.817-3.156-14.663a198.675,198.675,0,0,0-9.6-28.36c-2.214-5.216-4.622-10.362-7.127-15.444a.889.889,0,0,1,.76-1.306c1.937-.226,3.863-.848,5.77-1.254,1.865-.4,3.718-.846,5.57-1.3,2.583-.639,5.135-1.391,7.671-2.19a104.549,104.549,0,0,0-22.4-4.494,1.192,1.192,0,0,1-1.128-1.462A238.454,238.454,0,0,0,144.024,207.793Z" transform="translate(-79.855 -83.815)" fill="#dbdbdb"/>
        <path id="Trazado_170618" data-name="Trazado 170618" d="M156.051,190.108s18.6,57.285,21.015,76.122,2.15,63.784,2.15,63.784h42.016s-3.512-72.817-3.387-79.715-13.953-63.935-13.953-63.935Z" transform="translate(-79.235 -84.257)" fill="#a4a4b4"/>
        <path id="Trazado_170619" data-name="Trazado 170619" d="M210.8,307.7c20.418,37.2,31.928,125.181,31.928,125.181a120.759,120.759,0,0,0,28.438-4.928c-4.636-14.471-8.464-40.943-19.365-73.772-.222-.656-.433-1.311-.668-1.967-.222-.679-.457-1.358-.691-2.037q-.282-.807-.562-1.615a342.679,342.679,0,0,0-32.97-69Z" transform="translate(-76.87 -80.231)" fill="#ebebeb"/>
        <path id="Trazado_170620" data-name="Trazado 170620" d="M225.925,318.971c4.053,14.013,7.981,28.059,11.561,42.2q5.352,21.143,10.011,42.442,1.307,5.976,2.559,11.964.62,2.959,1.229,5.919a40.7,40.7,0,0,1,1.015,6.216c.054,1.115-1.477,1.161-1.817.235a37.125,37.125,0,0,1-1.322-5.3q-.552-2.679-1.115-5.355-1.125-5.353-2.284-10.7-2.289-10.623-4.72-21.216c-3.251-14.173-6.543-28.332-9.991-42.459-1.933-7.923-3.883-15.847-5.922-23.743A.412.412,0,0,1,225.925,318.971Z" transform="translate(-76.252 -78.542)" fill="#dbdbdb"/>
        <path id="Trazado_170621" data-name="Trazado 170621" d="M199.23,158.039l-.631,14.028-.72,16.135-.177,8.452a17.656,17.656,0,0,1-16.946,17.273h0a17.655,17.655,0,0,1-18.291-16.045l-4.526-49.837Z" transform="translate(-79.153 -85.912)" fill="#f39672"/>
        <path id="Trazado_170622" data-name="Trazado 170622" d="M203.891,186.39,198,185.755l-7.612,23.266L161.823,188.3l-5.773,1.835L169.56,219.2l35.091-6.141Z" transform="translate(-79.235 -84.283)" fill="#a4a4b4"/>
        <path id="Trazado_170623" data-name="Trazado 170623" d="M165.3,208.393a56.238,56.238,0,0,1,3.694,5.141,41.929,41.929,0,0,0,4.151,4.826,46.322,46.322,0,0,0,9.185,7.215,133.8,133.8,0,0,1,8.072-15.358.545.545,0,0,1,.82-.148c.032,0,.054-.02.09-.013a23.261,23.261,0,0,1,7.924,3.938,41.987,41.987,0,0,1,5.508,4.559c.2-1.325.389-2.649.591-3.972.285-1.867.428-3.833.891-5.663a.928.928,0,0,1,1.818.235c-.113,1.918-.569,3.866-.865,5.765q-.452,2.9-.926,5.8a.916.916,0,0,1-1.525.413,40.1,40.1,0,0,0-6.4-5.782c-2.178-1.566-4.572-2.757-6.813-4.205,2.061,6.617,4.011,13.245,5.43,20.036q1.632,7.813,2.665,15.746c4.359-1.02,8.7-2.105,13-3.348.393-.114.54.48.16.61-4.314,1.482-8.63,2.947-12.973,4.318.153,1.247.31,2.492.442,3.74a217.4,217.4,0,0,1,.155,42.887,226.013,226.013,0,0,1-3.495,23.832c-.3,1.476-2.553.875-2.257-.592a222.4,222.4,0,0,0,4.382-42.223,238.491,238.491,0,0,0-1.32-26.99c-5.492,1.686-11.037,3.193-16.69,4.332-1.454.293-2.058-1.909-.589-2.247,5.68-1.31,11.391-2.526,17.079-3.831-.512-4.515-1.138-9.015-1.909-13.482-1.283-7.445-2.716-14.916-4.7-22.213a172.134,172.134,0,0,0-7.356,15.646.938.938,0,0,1-1.263.347A42.534,42.534,0,0,1,171.506,220a46.091,46.091,0,0,1-4.324-5.033,16.819,16.819,0,0,1-3.209-5.811A.8.8,0,0,1,165.3,208.393Z" transform="translate(-78.893 -83.316)" fill="#1d272b"/>
        <path id="Trazado_170624" data-name="Trazado 170624" d="M188.474,230.041a1.146,1.146,0,0,1,.3-.527.874.874,0,0,1,.387-.246,1.05,1.05,0,0,1,.868,0,.874.874,0,0,1,.387.246,1.146,1.146,0,0,1,.3.527c.088.224.187.448.259.677l.053.173a1.665,1.665,0,0,1,.08.426,2.759,2.759,0,0,1,0,.335l-.031.243-.093.23-.155.2a.721.721,0,0,1-.319.2.954.954,0,0,1-.478.062.483.483,0,0,1-.237-.062.718.718,0,0,1-.318-.2,2.594,2.594,0,0,1-.242-.237,2.642,2.642,0,0,1-.343-.527c-.118-.211-.211-.437-.314-.655a1.164,1.164,0,0,1-.151-.574Z" transform="translate(-77.836 -82.408)" fill="#1d272b"/>
        <path id="Trazado_170625" data-name="Trazado 170625" d="M192.329,256.782a.842.842,0,0,1,.236-.371l.237-.18a.831.831,0,0,1,.408-.126.559.559,0,0,1,.282,0,.828.828,0,0,1,.408.126l.237.18a1.116,1.116,0,0,1,.29.5c.035.255.073.509.108.763a4.564,4.564,0,0,1,.066.643c0,.127-.015.256-.021.384a1.1,1.1,0,0,1-.31.747l-.225.172a.8.8,0,0,1-.388.12.531.531,0,0,1-.268,0,.8.8,0,0,1-.387-.12,1.126,1.126,0,0,1-.5-.651c-.035-.123-.075-.244-.106-.368a1.9,1.9,0,0,1-.031-.19c-.022-.149-.044-.3-.057-.449-.023-.256-.044-.512-.066-.768A.832.832,0,0,1,192.329,256.782Z" transform="translate(-77.672 -81.246)" fill="#1d272b"/>
        <path id="Trazado_170626" data-name="Trazado 170626" d="M198.564,168.341l-.972,18.279c-18.838,1.948-27.867-8.644-31.988-20.3C173.453,164.261,198.564,168.341,198.564,168.341Z" transform="translate(-78.822 -85.148)" fill="#263238"/>
        <path id="Trazado_170627" data-name="Trazado 170627" d="M203.34,112.552a21.539,21.539,0,0,0-13.061-4.941c-12.542-.814-27.384,6.242-33.877,15.057-9.492,12.881-7.339,28.873,1.041,41.1a44.938,44.938,0,0,0,14.934,13.843c10.417,5.9,24.1,7.676,34.037,1,7.178-4.8,11.313-13.357,12.219-21.963C220.175,142.1,214.683,122.452,203.34,112.552Z" transform="translate(-79.489 -87.661)" fill="#f39672"/>
        <path id="Trazado_170628" data-name="Trazado 170628" d="M206.854,137.371c.7,1.689.291,3.522-.921,4.095s-2.763-.334-3.467-2.024-.291-3.523.92-4.095S206.151,135.681,206.854,137.371Z" transform="translate(-77.245 -86.468)" fill="#263238"/>
        <path id="Trazado_170629" data-name="Trazado 170629" d="M188.838,144.171c.7,1.689.29,3.523-.921,4.095s-2.763-.334-3.467-2.024-.291-3.523.92-4.095S188.134,142.481,188.838,144.171Z" transform="translate(-78.023 -86.174)" fill="#263238"/>
        <path id="Trazado_170630" data-name="Trazado 170630" d="M202.145,145.065c-2.863-3.65-5.894-7.122-8.972-10.584-.3-.336-.857.045-.576.417,2.27,3.015,4.551,5.979,6.958,8.891,1.163,1.408,2.642,2.86,3.216,4.637a4.563,4.563,0,0,1-1.033,4.075.46.46,0,0,0,.4.738,3.021,3.021,0,0,0,2.27-3.078C204.417,148.235,203.288,146.521,202.145,145.065Z" transform="translate(-77.66 -86.503)" fill="#263238"/>
        <path id="Trazado_170631" data-name="Trazado 170631" d="M188.985,107.151A13.743,13.743,0,0,1,201,107.056a6.747,6.747,0,0,1,2.849,2.317,3.416,3.416,0,0,1,.189,3.525c-.84,1.362-2.736,1.692-4.292,1.314a27.888,27.888,0,0,1-4.383-1.935,5.353,5.353,0,0,0-4.628-.215c1.7.522,4.017,1.02,5.211,2.336a5.737,5.737,0,0,1,1.511,4.908,4.059,4.059,0,0,1-3.71,3.251c-2.19.015-3.806-1.964-5.037-3.775s-2.735-3.834-4.92-3.988a6.971,6.971,0,0,0,.617,5.583,34.324,34.324,0,0,1,2.647,5.189c.58,1.857.4,4.144-1.091,5.392a4.41,4.41,0,0,1-4.373.517,8.411,8.411,0,0,1-3.508-2.916,15.818,15.818,0,0,1-3.134-8.842c-1.512,1.383-1.517,3.639-2.012,5.627s-1.262,4.138-3.062,5.118a4,4,0,0,1-5.106-5.928,9.894,9.894,0,0,1,1.637,5.982,5.641,5.641,0,0,1-3.027,4.739,4.219,4.219,0,0,1-5.223-1.365,21.9,21.9,0,0,1,7.133,8.3,9.35,9.35,0,0,1,1.059,4.623,4.617,4.617,0,0,1-2.44,3.869,3.108,3.108,0,0,1-4.074-1.368c.805.246.863.149,1.38.814a7.65,7.65,0,0,1-.249,9.607c-2.381,2.546-6.945,2.731-9.326.185a23.209,23.209,0,0,1-6.334-15.806,38.522,38.522,0,0,1,12.653-28.731C165.993,108.192,178.277,105.84,188.985,107.151Z" transform="translate(-79.699 -87.74)" fill="#263238"/>
        <path id="Trazado_170632" data-name="Trazado 170632" d="M148.508,153.979c-7.006-30.278,10.8-50.257,36.256-49.572" transform="translate(-79.627 -87.797)" fill="none" stroke="#d93328" stroke-miterlimit="10" stroke-width="1"/>
        <path id="Trazado_170633" data-name="Trazado 170633" d="M150.524,150.888c-3.72-.546-7.95.789-9.8,4.061-1.543,2.725-1.154,6.153-.108,9.1a18.768,18.768,0,0,0,7.158,9.513,13.655,13.655,0,0,0,11.582,1.745,10.776,10.776,0,0,0,7.33-8.808C167.435,158.79,157.21,151.867,150.524,150.888Z" transform="translate(-79.941 -85.794)" fill="#f39672"/>
        <path id="Trazado_170634" data-name="Trazado 170634" d="M157.827,163.057c-3.527-2.682-7.363-2.7-11.514-1.815-.617.131-.526,1.178.127,1.122,3.384-.291,7.213,1.812,9.537,3.679a1.756,1.756,0,0,0,1.348.212,1.757,1.757,0,0,0,.5-3.2Z" transform="translate(-79.673 -85.365)" fill="#263238"/>
        <path id="Trazado_170635" data-name="Trazado 170635" d="M207.473,120.462c-1.689-2.561-9.758.281-10.276,3.32C196.521,127.74,210.38,124.869,207.473,120.462Z" transform="translate(-77.459 -87.146)" fill="#263238"/>
        <path id="Trazado_170636" data-name="Trazado 170636" d="M180.165,131.219c-2.25-2.8-11.225,1.306-11.5,4.905C168.176,142.376,182.925,134.652,180.165,131.219Z" transform="translate(-78.691 -86.679)" fill="#263238"/>
        <g id="Grupo_133197" data-name="Grupo 133197" transform="translate(113.066 71.611)">
          <path id="Trazado_170637" data-name="Trazado 170637" d="M190.814,157.923c.161-.828,7.316-1.141,8.091-.28.493.548-.911,3.556-3.97,3.613C192.409,161.3,190.627,158.886,190.814,157.923Z" transform="translate(-190.8 -157.13)" fill="#ebebeb"/>
        </g>
        <path id="Trazado_170638" data-name="Trazado 170638" d="M287.619,187.6c.033.121.308.857.8,2,2.208,5.066,8.857,18.065,19.7,20.12,3.615.681,7.691.143,12.229-2.3l-10.966-6.648-20.482-12.4Z" transform="translate(-73.552 -84.203)" fill="#38474f"/>
        <path id="Trazado_170639" data-name="Trazado 170639" d="M288.388,190.22c2.208,5.066,8.857,18.065,19.7,20.12.451-2.824.878-5.824,1.263-8.944a228.872,228.872,0,0,0,1.857-24.417l-16.164-3.637L288.872,189Z" transform="translate(-73.519 -84.819)" fill="#f39672"/>
        <g id="Grupo_133199" data-name="Grupo 133199" transform="translate(185.898 11.949)">
          <path id="Trazado_170640" data-name="Trazado 170640" d="M285.9,144.438l-14.146-15.123a3.675,3.675,0,0,1,.061-5.085h0a3.676,3.676,0,0,1,4.34-.677l16.959,8.953Z" transform="translate(-260.179 -98.937)" fill="#263238"/>
          <path id="Trazado_170641" data-name="Trazado 170641" d="M283.95,143.989c4.327,23.5,7.884,39.147,27.447,34.253l.175-31.457Z" transform="translate(-259.609 -98.036)" fill="#38474f"/>
          <g id="Grupo_133198" data-name="Grupo 133198">
            <path id="Trazado_170642" data-name="Trazado 170642" d="M264.64,160.658h0a5.489,5.489,0,0,1-3.821-6.758L274.947,103a2.964,2.964,0,0,1,3.649-2.063l4.869,1.352a2.962,2.962,0,0,1,2.062,3.648l-14.129,50.9A5.489,5.489,0,0,1,264.64,160.658Z" transform="translate(-260.617 -99.9)" fill="#ebebeb"/>
            <path id="Trazado_170643" data-name="Trazado 170643" d="M265.3,156.728h0a3.2,3.2,0,0,1-2.226-3.936l4.68-16.859,7.786-3.779-6.3,22.349A3.2,3.2,0,0,1,265.3,156.728Z" transform="translate(-260.516 -98.547)" fill="#b42218"/>
            <path id="Trazado_170644" data-name="Trazado 170644" d="M284.646,109.387l-11.517-3.2a3.183,3.183,0,0,1-2.217-3.918h0a3.183,3.183,0,0,1,3.918-2.217l11.517,3.2a3.185,3.185,0,0,1,2.217,3.919h0A3.184,3.184,0,0,1,284.646,109.387Z" transform="translate(-260.177 -99.938)" fill="#ebebeb"/>
          </g>
          <path id="Trazado_170645" data-name="Trazado 170645" d="M273.676,118.38l16.588-2.055a4.9,4.9,0,0,1,4.095,1.423l15.361,20.06a12.227,12.227,0,0,1,2.51,7.926l-1.358,33.776c-2.1-3.777-11.473-2.209-17.19-11.7-6.926-9.681-3.444-33.5-3.444-33.5l-3.267-8.65-13.322-1.184a3.061,3.061,0,0,1-2.782-2.857A3.137,3.137,0,0,1,273.676,118.38Z" transform="translate(-260.174 -99.232)" fill="#38474f"/>
          <path id="Trazado_170646" data-name="Trazado 170646" d="M289.5,130.566c-8.323,2.43-10.558,8.181-6.957,11.8-.54,5.016,1.375,7.629,5.448,8.979-5.925.765-5.285,6.411-3.233,8.412s12.795,4.4,12.795,4.4l6.119-26.15Z" transform="translate(-259.741 -98.616)" fill="#38474f"/>
          <path id="Trazado_170647" data-name="Trazado 170647" d="M291.108,130.151a6.719,6.719,0,0,1,3.032-.588,11.333,11.333,0,0,1,3.21.583,22.066,22.066,0,0,1,5.753,2.67c.312.213-.042.748-.369.557a15.548,15.548,0,0,0-5.678-2.1c-.963-.129-1.94-.193-2.908-.279a27.6,27.6,0,0,1-3.011-.4A.228.228,0,0,1,291.108,130.151Z" transform="translate(-259.306 -98.659)" fill="#263238"/>
          <path id="Trazado_170648" data-name="Trazado 170648" d="M284.448,139.6a9.082,9.082,0,0,0,1.026-.544,9.144,9.144,0,0,1,.972-.336,14.2,14.2,0,0,1,2.051-.36,13.724,13.724,0,0,1,4.387.116,14.865,14.865,0,0,1,7.462,4.12c.294.292-.109.765-.428.488a15.039,15.039,0,0,0-7.289-3.287,17.93,17.93,0,0,0-3.943-.319,14.415,14.415,0,0,0-1.926.253c-.334.059-.668.115-1,.185a4.224,4.224,0,0,0-1.07.187C284.315,140.307,284.067,139.7,284.448,139.6Z" transform="translate(-259.596 -98.284)" fill="#263238"/>
          <path id="Trazado_170649" data-name="Trazado 170649" d="M288.527,148.391a2.926,2.926,0,0,1,1.017-.143,9.048,9.048,0,0,1,1.128.049,7.394,7.394,0,0,1,2.057.544,30.072,30.072,0,0,1,3.882,1.853.337.337,0,0,1-.293.607,21.82,21.82,0,0,0-4.012-1.185,16.26,16.26,0,0,1-2.069-.507,5.98,5.98,0,0,1-1.807-.739A.285.285,0,0,1,288.527,148.391Z" transform="translate(-259.42 -97.852)" fill="#263238"/>
          <path id="Trazado_170650" data-name="Trazado 170650" d="M292.65,161.665a3.739,3.739,0,0,1,3.04,2.785c.534,1.724.114,3.592.657,5.327a7.6,7.6,0,0,0,2.482,3.631,6.955,6.955,0,0,0,1.868,1.068c.736.283,1.743.288,2.279.908a.869.869,0,0,1-.289,1.334c-.724.4-1.672-.046-2.351-.369a9.69,9.69,0,0,1-1.917-1.189,10.721,10.721,0,0,1-2.9-3.481,10.1,10.1,0,0,1-.979-4.612c-.017-1.486-.035-4.125-1.96-4.486C292.009,162.475,292.048,161.606,292.65,161.665Z" transform="translate(-259.254 -97.273)" fill="#263238"/>
          <path id="Trazado_170651" data-name="Trazado 170651" d="M312.183,193.08c-13.464,2.66-22.1-7.212-22.1-7.212l4.893-12.4,16.155-2.851Z" transform="translate(-259.344 -96.886)" fill="#38474f"/>
        </g>
        <g id="Grupo_133204" data-name="Grupo 133204" transform="translate(113.455 174.637)">
          <path id="Trazado_170652" data-name="Trazado 170652" d="M191.242,270.889l-.069,49.715,88.729.122.068-49.715Zm26.519,9.057,53.283.073L271,311.693l-53.283-.073Z" transform="translate(-191.173 -255.243)" fill="#dbdbdb"/>
          <rect id="Rectángulo_36420" data-name="Rectángulo 36420" width="12.72" height="31.674" transform="translate(79.828 56.45) rotate(-179.921)" fill="#dbdbdb"/>
          <path id="Trazado_170653" data-name="Trazado 170653" d="M251.875,255.946l10.888.015a3.124,3.124,0,1,1-.008,6.248h-.385l-.066,47.826a5.059,5.059,0,1,1-10.119-.014l.066-47.827h-.385a3.124,3.124,0,0,1,.009-6.248Z" transform="translate(-188.686 -255.889)" fill="#fff"/>
          <path id="Trazado_170654" data-name="Trazado 170654" d="M232.064,255.918l10.889.016a3.124,3.124,0,0,1-.009,6.248h-.385l-.066,47.827a5.059,5.059,0,0,1-10.119-.014l.067-47.827h-.385a3.124,3.124,0,1,1,.008-6.248Z" transform="translate(-189.542 -255.89)" fill="#fff"/>
          <path id="Trazado_170655" data-name="Trazado 170655" d="M212.253,255.891l10.889.015a3.124,3.124,0,0,1-.008,6.249h-.385l-.067,47.827a5.059,5.059,0,1,1-10.118-.015l.066-47.826h-.385a3.124,3.124,0,1,1,.008-6.248Z" transform="translate(-190.398 -255.891)" fill="#fff"/>
          <g id="Grupo_133203" data-name="Grupo 133203" transform="translate(18.726)">
            <g id="Grupo_133200" data-name="Grupo 133200" transform="translate(41.333 0.057)">
              <path id="Trazado_170656" data-name="Trazado 170656" d="M252.1,266.561l-.058,43.007a5.055,5.055,0,1,0,10.11.014l.058-43.007Z" transform="translate(-248.604 -255.488)" fill="#38474f"/>
              <path id="Trazado_170657" data-name="Trazado 170657" d="M251.875,255.946l10.888.015a3.124,3.124,0,1,1-.008,6.248h-.385l-.066,47.826a5.059,5.059,0,1,1-10.119-.014l.066-47.827h-.385a3.124,3.124,0,0,1,.009-6.248Z" transform="translate(-248.746 -255.946)" fill="none" stroke="#ebebeb" stroke-linecap="round" stroke-linejoin="round" stroke-width="1"/>
            </g>
            <g id="Grupo_133201" data-name="Grupo 133201" transform="translate(20.667 0.028)">
              <path id="Trazado_170658" data-name="Trazado 170658" d="M232.259,290.375l-.025,18.135a5.055,5.055,0,0,0,10.11.015l.025-18.135Z" transform="translate(-228.792 -254.43)" fill="#e4cbb7"/>
              <path id="Trazado_170659" data-name="Trazado 170659" d="M232.064,255.918l10.889.016a3.124,3.124,0,0,1-.009,6.248h-.385l-.066,47.827a5.059,5.059,0,0,1-10.119-.014l.067-47.827h-.385a3.124,3.124,0,1,1,.008-6.248Z" transform="translate(-228.935 -255.918)" fill="none" stroke="#ebebeb" stroke-linecap="round" stroke-linejoin="round" stroke-width="1"/>
            </g>
            <g id="Grupo_133202" data-name="Grupo 133202">
              <path id="Trazado_170660" data-name="Trazado 170660" d="M212.468,276.484l-.045,32.6a5.055,5.055,0,1,0,10.11.014l.045-32.6Z" transform="translate(-208.981 -255.002)" fill="#38474f"/>
              <path id="Trazado_170661" data-name="Trazado 170661" d="M212.253,255.891l10.889.015a3.124,3.124,0,0,1-.008,6.249h-.385l-.067,47.827a5.059,5.059,0,1,1-10.118-.015l.066-47.826h-.385a3.124,3.124,0,1,1,.008-6.248Z" transform="translate(-209.124 -255.891)" fill="none" stroke="#ebebeb" stroke-linecap="round" stroke-linejoin="round" stroke-width="1"/>
            </g>
          </g>
          <g id="Trazado_170662" data-name="Trazado 170662" transform="translate(-190.444 -255.242)" fill="#fff" stroke-miterlimit="10">
            <path d="M 278.6727294921875 320.2246398925781 L 208.5636749267578 320.1279907226562 L 208.6301116943359 271.4126586914062 L 278.7391967773438 271.5093688964844 L 278.6727294921875 320.2246398925781 Z M 216.531982421875 279.4443054199219 L 216.5312957763672 279.9443054199219 L 216.488525390625 311.61865234375 L 216.4878540039062 312.1186218261719 L 216.9878387451172 312.1193237304688 L 270.2708435058594 312.1923522949219 L 270.7708740234375 312.1930236816406 L 270.7715454101562 311.6930236816406 L 270.8143310546875 280.0186462402344 L 270.8150024414062 279.5186767578125 L 270.3150329589844 279.5179748535156 L 217.031982421875 279.4449768066406 L 216.531982421875 279.4443054199219 Z" stroke="none"/>
            <path d="M 209.1294250488281 271.913330078125 L 209.0643615722656 319.628662109375 L 278.1734313964844 319.7239685058594 L 278.2384948730469 272.0086669921875 L 209.1294250488281 271.913330078125 M 271.2702026367188 312.6937255859375 L 215.9871826171875 312.6179504394531 L 216.0326538085938 278.943603515625 L 271.315673828125 279.0193481445312 L 271.2702026367188 312.6937255859375 M 208.1307983398438 270.9119567871094 L 279.2398681640625 271.0100402832031 L 279.1720581054688 320.725341796875 L 208.06298828125 320.6272888183594 L 208.1307983398438 270.9119567871094 Z M 270.2715454101562 311.6923522949219 L 270.3143310546875 280.0179748535156 L 217.0313110351562 279.9449768066406 L 216.988525390625 311.6193237304688 L 270.2715454101562 311.6923522949219 Z" stroke="none" fill="#ebebeb"/>
          </g>
        </g>
        <g id="Grupo_133206" data-name="Grupo 133206" transform="translate(19.534 212.706)">
          <path id="Trazado_170663" data-name="Trazado 170663" d="M101.14,349.04l95.453-22.482,5.486-16.489s-50.705-2.054-100.312,2.186Z" transform="translate(-101.14 -291.642)" fill="#f39672"/>
          <g id="Grupo_133205" data-name="Grupo 133205" transform="translate(87.775)">
            <path id="Trazado_170664" data-name="Trazado 170664" d="M192.959,327.059l59.258,0-49.836-29.07-17.1,22.733Z" transform="translate(-185.281 -292.142)" fill="#38474f"/>
            <path id="Trazado_170665" data-name="Trazado 170665" d="M205.579,305.406l-6.037-5.528a3.7,3.7,0,0,1,.482-5.829l.625-.407a7.769,7.769,0,0,1,11.115,2.9h0a7.77,7.77,0,0,1-.786,8.429h0A3.7,3.7,0,0,1,205.579,305.406Z" transform="translate(-184.717 -292.384)" fill="#38474f"/>
            <path id="Trazado_170666" data-name="Trazado 170666" d="M218.351,311.471l32.431,15.005.933-.619a14.9,14.9,0,0,1,12.419-1.9,1.59,1.59,0,0,0,1.759-.651,1.983,1.983,0,0,0,.144-.286,5.922,5.922,0,0,0-2.244-7.16,6.416,6.416,0,0,0-1.269-.618l-2.134-.59-.217-.056a11.58,11.58,0,0,0-10.527,2.31l-30.31-5.257Z" transform="translate(-183.853 -291.56)" fill="#38474f"/>
            <path id="Trazado_170667" data-name="Trazado 170667" d="M227.892,319.982l16.382,4.516c5.757-4.383,10.432-4.382,14.645-3.154a1.59,1.59,0,0,0,1.759-.651,1.986,1.986,0,0,0,.145-.286,5.878,5.878,0,0,0-.846-5.867l-.217-.056a11.58,11.58,0,0,0-10.527,2.31l-6.724,4.426Z" transform="translate(-183.441 -291.447)" fill="#38474f"/>
            <path id="Trazado_170668" data-name="Trazado 170668" d="M243.247,321.545l.928-.617a14.918,14.918,0,0,1,12.414-1.9h0a1.58,1.58,0,0,0,1.906-.93h0a5.927,5.927,0,0,0-3.507-7.785l-2.354-.642a11.641,11.641,0,0,0-10.539,2.311h0l-31.288-5.437Z" transform="translate(-184.179 -291.772)" fill="#38474f"/>
            <path id="Trazado_170669" data-name="Trazado 170669" d="M229.5,319.827c1.133.085,2.247.328,3.372.483,1.146.16,2.308.265,3.461.352a24.907,24.907,0,0,0,3.561.057,14.636,14.636,0,0,0,3.435-.755c3.772-1.18,7.978-4.332,11.922-1.9a.316.316,0,0,1-.312.55c-2.046-.873-4.378-.16-6.283.739-1.96.925-3.973,2.084-6.152,2.36a25.168,25.168,0,0,1-6.447.134,29.09,29.09,0,0,1-6.61-1.615C229.247,320.155,229.245,319.807,229.5,319.827Z" transform="translate(-183.38 -291.314)" fill="#263238"/>
            <path id="Trazado_170670" data-name="Trazado 170670" d="M239.689,323.16a4.687,4.687,0,0,0,3.045.437,10.588,10.588,0,0,0,2.15-.9,16.072,16.072,0,0,1,4.23-1.879,17.563,17.563,0,0,1,8.948-.145.261.261,0,0,1-.131.5,20.421,20.421,0,0,0-5-.214,14.3,14.3,0,0,0-4.725,1.459c-1.395.661-2.6,1.764-4.054,2.283-1.635.584-3.159-.739-4.541-1.409C239.522,323.251,239.6,323.12,239.689,323.16Z" transform="translate(-182.936 -291.185)" fill="#263238"/>
            <path id="Trazado_170671" data-name="Trazado 170671" d="M204.919,303.839a4.817,4.817,0,0,0,2.566,1.076,6.155,6.155,0,0,0,1.461-.069,2.947,2.947,0,0,0,1.394-.467.266.266,0,0,1,.376.376,5.322,5.322,0,0,1-1.355,1.314,3.384,3.384,0,0,1-1.978.429,3.835,3.835,0,0,1-3.157-2.13A.442.442,0,0,1,204.919,303.839Z" transform="translate(-184.465 -291.894)" fill="#263238"/>
          </g>
          <path id="Trazado_170672" data-name="Trazado 170672" d="M195.819,309.978,181.98,308.72s-6.038,13.964-.629,22.142l17.361-5.661Z" transform="translate(-97.773 -291.678)" fill="#38474f"/>
        </g>
        <path id="Trazado_170673" data-name="Trazado 170673" d="M93.528,354.341c17.385,4.887,85.593-9.947,85.593-9.947l.646-35.021s-51.206-6-80.6-6.8Z" transform="translate(-81.935 -79.238)" fill="#ebebeb"/>
        <path id="Trazado_170674" data-name="Trazado 170674" d="M113.529,328.119a117.863,117.863,0,0,1,9.509-10.163,128.444,128.444,0,0,1,10.786-8.478,1.227,1.227,0,0,1-.135-.77c1.833-13.783,3.742-27.627,2.944-41.567a31.463,31.463,0,0,0-.513-5.373c-.323-1.37-.683-2.72-.931-4.1a82.572,82.572,0,0,0-1.9-8.227,70.646,70.646,0,0,0-6.344-15.246,49.741,49.741,0,0,0-11.819-14.373c-.322-.259.112-.837.444-.584a51.958,51.958,0,0,1,11.624,12.061,60.661,60.661,0,0,1,7.481,15.387,73.127,73.127,0,0,1,2.2,8.276,33.346,33.346,0,0,1,.682,4.252c.049.691.056,1.386.069,2.079.017.912.137,1.8.236,2.71a124.021,124.021,0,0,1,.29,21.2c-.507,8.034-1.507,16.032-2.568,24.008a.7.7,0,0,1-.165.359.853.853,0,0,1,.318.606,1.08,1.08,0,0,1,.116-.021c4.953.335,9.893.783,14.853,1.035q7.367.374,14.739.674c2.852.115,5.669.44,8.528.381a.357.357,0,0,1,0,.714c-2.467.063-4.912.307-7.372.5-2.493.192-5.017.2-7.516.21-4.911.022-9.83-.206-14.73-.527-2.774-.182-5.56-.357-8.324-.67-.3.4-.647.775-.95,1.164q-.663.85-1.3,1.721c-.866,1.192-1.654,2.438-2.512,3.636a43.712,43.712,0,0,0-4.588,7.525c-.171.384-.845.116-.689-.28,1.093-2.775,2.1-5.614,3.447-8.284a30.2,30.2,0,0,1,2.344-3.73c.17-.243.353-.478.527-.718-2.683,2-5.316,4.069-7.861,6.247-3.459,2.958-7.14,5.708-10.344,8.953C113.734,329.069,113.181,328.507,113.529,328.119Z" transform="translate(-81.076 -82.84)" fill="#dbdbdb"/>
        <path id="Trazado_170675" data-name="Trazado 170675" d="M111.8,351.506c2-.411,4.054-.622,6.074-.913l5.79-.835,12.015-1.731c7.917-1.141,15.829-2.3,23.774-3.223,4.51-.528,9.05-.812,13.551-1.393a.4.4,0,0,1,.129.795c-3.95.629-7.847,1.541-11.789,2.218-3.988.685-7.976,1.359-11.979,1.954-7.908,1.175-15.824,2.308-23.737,3.45l-6.659.962c-2.261.327-4.534.754-6.81.946A1.13,1.13,0,0,1,111.8,351.506Z" transform="translate(-81.185 -77.474)" fill="#dbdbdb"/>
        <path id="Trazado_170676" data-name="Trazado 170676" d="M146.053,427.875c.792-2.633,1.752-5.221,2.6-7.836s1.681-5.244,2.489-7.876c1.619-5.265,3.113-10.564,4.549-15.883,2.858-10.587,5.386-21.255,7.5-32.017,1.194-6.081,2.265-12.181,3.324-18.287.078-.451.849-.357.8.1-1.134,10.912-3,21.752-5.209,32.492q-3.349,16.263-8.1,32.171-1.324,4.427-2.753,8.821c-.964,2.967-1.88,5.98-3.031,8.88a1.16,1.16,0,0,1-1.369.8A1.133,1.133,0,0,1,146.053,427.875Z" transform="translate(-79.668 -77.376)" fill="#dbdbdb"/>
        <path id="Trazado_170677" data-name="Trazado 170677" d="M108.868,365.257a19.808,19.808,0,0,1,3.85.889q1.917.5,3.842.977,3.92.964,7.867,1.8,7.825,1.668,15.744,2.845c2.673.4,5.357.719,8.03,1.1a6.355,6.355,0,0,0,.392-.894c.2-.618.376-1.242.563-1.863a.724.724,0,0,1,.291-.4c-.008,0-.015,0-.023,0-2.545-.331-5.114-.436-7.67-.661-2.509-.221-5.013-.514-7.512-.826-4.967-.619-9.926-1.284-14.885-1.952-2.842-.383-5.685-.751-8.524-1.154a1.168,1.168,0,0,1-.829-1.418,1.191,1.191,0,0,1,1.419-.829c5.01.65,10.015,1.365,15.021,2.05,4.946.677,9.916,1.328,14.825,2.232,2.806.516,5.593,1.158,8.419,1.559.479.067.462.6.173.861a.734.734,0,0,1,.765.92c-.154.63-.319,1.258-.463,1.889-.148.651-.087,1.306-.238,1.949a1.105,1.105,0,0,1-1.06.818c-5.353-.411-10.705-1.308-15.99-2.233q-7.88-1.38-15.666-3.247-2.2-.529-4.4-1.1a20.561,20.561,0,0,1-4.466-1.346A1.064,1.064,0,0,1,108.868,365.257Z" transform="translate(-81.317 -76.634)" fill="#dbdbdb"/>
        <path id="Trazado_170678" data-name="Trazado 170678" d="M237.554,350.707a5.743,5.743,0,0,1,1.744,3.079.912.912,0,0,0,1.1.644c3.114-.8,6.182-1.838,9.249-2.786l1.019-.316c-.222-.656-.433-1.311-.668-1.967l-.878.282c-2.821.913-5.69,1.767-8.476,2.8a12.984,12.984,0,0,0-.645-1.206,8.207,8.207,0,0,0-.527-.7c1.031-.258,2.049-.6,3.044-.914,1.441-.444,2.869-.9,4.285-1.393.843-.293,1.674-.586,2.506-.9q-.282-.807-.562-1.615c-.843.292-1.686.561-2.529.831-1.475.467-2.95.936-4.438,1.37a30.7,30.7,0,0,0-4.226,1.346C236.9,349.548,237.1,350.368,237.554,350.707Z" transform="translate(-75.733 -77.375)" fill="#dbdbdb"/>
      </g>
      <line id="Línea_2150" data-name="Línea 2150" x2="438.711" transform="translate(39.726 450.411)" fill="none" stroke="#263238" stroke-miterlimit="10" stroke-width="1"/>
      <g id="Grupo_133221" data-name="Grupo 133221" transform="translate(276.878 282.947)">
        <path id="Trazado_170679" data-name="Trazado 170679" d="M312.745,308.281V296.173a19.985,19.985,0,0,1,19.984-19.984h0a19.985,19.985,0,0,1,19.985,19.984v62.4a5.4,5.4,0,0,0,5.4,5.406h9.011" transform="translate(-265.086 -274.84)" fill="none" stroke="#f7b242" stroke-miterlimit="10" stroke-width="3"/>
        <g id="Grupo_133209" data-name="Grupo 133209" transform="translate(94.593)">
          <g id="Grupo_133208" data-name="Grupo 133208" transform="translate(3.728)">
            <g id="Trazado_170680" data-name="Trazado 170680" transform="translate(-361.309 -274.116)" fill="#fff" stroke-miterlimit="10">
              <path d="M 403.6437072753906 377.9898986816406 L 367.2593383789062 377.9898986816406 C 364.6209716796875 377.9898986816406 362.4745178222656 375.8434448242188 362.4745178222656 373.205078125 C 362.4745178222656 372.3324584960938 362.7133178710938 371.4760437011719 363.1650695800781 370.7283935546875 L 365.1668090820312 367.4185791015625 L 365.625732421875 366.6598205566406 L 364.7389831542969 366.6598205566406 L 361.8089904785156 366.6598205566406 L 361.8089904785156 359.9589538574219 L 369.3968505859375 359.9589538574219 L 369.6788024902344 359.9589538574219 L 369.82470703125 359.7176818847656 L 380.6144104003906 341.8749694824219 L 380.6865539550781 341.7556457519531 L 380.6865539550781 341.6162414550781 L 380.6865539550781 293.4649963378906 L 390.2164916992188 293.4649963378906 L 390.2164916992188 341.6162414550781 L 390.2164916992188 341.7556762695312 L 390.2886657714844 341.8749694824219 L 407.7380981445312 370.7285461425781 C 408.1897583007812 371.4759826660156 408.4285278320312 372.3323669433594 408.4285278320312 373.205078125 C 408.4285278320312 375.8434448242188 406.2820739746094 377.9898986816406 403.6437072753906 377.9898986816406 Z" stroke="none"/>
              <path d="M 403.6437072753906 377.4898986816406 C 406.0063781738281 377.4898986816406 407.9285278320312 375.5677490234375 407.9285278320312 373.205078125 C 407.9285278320312 372.4235534667969 407.7146911621094 371.6565551757812 407.3102722167969 370.9873046875 L 389.7164916992188 341.8951110839844 L 389.7164916992188 293.9649963378906 L 381.1865539550781 293.9649963378906 L 381.1865539550781 341.8950805664062 L 369.9607543945312 360.4589538574219 L 362.3089904785156 360.4589538574219 L 362.3089904785156 366.1598205566406 L 366.512451171875 366.1598205566406 L 363.5929870605469 370.9869995117188 C 363.1883850097656 371.6566162109375 362.9745178222656 372.4236145019531 362.9745178222656 373.205078125 C 362.9745178222656 375.5677490234375 364.8966674804688 377.4898986816406 367.2593383789062 377.4898986816406 L 403.6437072753906 377.4898986816406 M 403.6437072753906 378.4898986816406 L 367.2593383789062 378.4898986816406 C 364.3404846191406 378.4898986816406 361.9745178222656 376.1239318847656 361.9745178222656 373.205078125 C 361.9745178222656 372.2411804199219 362.2384948730469 371.2950134277344 362.7371215820312 370.4698181152344 L 364.7389831542969 367.1598205566406 L 361.3089904785156 367.1598205566406 L 361.3089904785156 359.4589538574219 L 369.3968505859375 359.4589538574219 L 380.1865539550781 341.6162414550781 L 380.1865539550781 292.9649963378906 L 390.7164916992188 292.9649963378906 L 390.7164916992188 341.6162414550781 L 408.1659545898438 370.4698181152344 C 408.6646118164062 371.2950134277344 408.9285278320312 372.2411804199219 408.9285278320312 373.205078125 C 408.9285278320312 376.1239318847656 406.5625610351562 378.4898986816406 403.6437072753906 378.4898986816406 Z" stroke="none" fill="#ebebeb"/>
            </g>
            <g id="Trazado_170681" data-name="Trazado 170681" transform="translate(-361.309 -274.116)" fill="#fff" stroke-miterlimit="10">
              <path d="M 403.6437072753906 377.9898986816406 L 367.2593383789062 377.9898986816406 C 364.6209716796875 377.9898986816406 362.4745178222656 375.8434448242188 362.4745178222656 373.205078125 C 362.4745178222656 372.3324584960938 362.7133178710938 371.4760437011719 363.1650695800781 370.7283935546875 L 365.1668090820312 367.4185791015625 L 365.625732421875 366.6598205566406 L 364.7389831542969 366.6598205566406 L 361.8089904785156 366.6598205566406 L 361.8089904785156 359.9589538574219 L 369.3968505859375 359.9589538574219 L 369.6788024902344 359.9589538574219 L 369.82470703125 359.7176818847656 L 380.6144104003906 341.8749694824219 L 380.6865539550781 341.7556457519531 L 380.6865539550781 341.6162414550781 L 380.6865539550781 293.4649963378906 L 390.2164916992188 293.4649963378906 L 390.2164916992188 341.6162414550781 L 390.2164916992188 341.7556762695312 L 390.2886657714844 341.8749694824219 L 407.7380981445312 370.7285461425781 C 408.1897583007812 371.4759826660156 408.4285278320312 372.3323669433594 408.4285278320312 373.205078125 C 408.4285278320312 375.8434448242188 406.2820739746094 377.9898986816406 403.6437072753906 377.9898986816406 Z" stroke="none"/>
              <path d="M 403.6437072753906 377.4898986816406 C 406.0063781738281 377.4898986816406 407.9285278320312 375.5677490234375 407.9285278320312 373.205078125 C 407.9285278320312 372.4235534667969 407.7146911621094 371.6565551757812 407.3102722167969 370.9873046875 L 389.7164916992188 341.8951110839844 L 389.7164916992188 293.9649963378906 L 381.1865539550781 293.9649963378906 L 381.1865539550781 341.8950805664062 L 369.9607543945312 360.4589538574219 L 362.3089904785156 360.4589538574219 L 362.3089904785156 366.1598205566406 L 366.512451171875 366.1598205566406 L 363.5929870605469 370.9869995117188 C 363.1883850097656 371.6566162109375 362.9745178222656 372.4236145019531 362.9745178222656 373.205078125 C 362.9745178222656 375.5677490234375 364.8966674804688 377.4898986816406 367.2593383789062 377.4898986816406 L 403.6437072753906 377.4898986816406 M 403.6437072753906 378.4898986816406 L 367.2593383789062 378.4898986816406 C 364.3404846191406 378.4898986816406 361.9745178222656 376.1239318847656 361.9745178222656 373.205078125 C 361.9745178222656 372.2411804199219 362.2384948730469 371.2950134277344 362.7371215820312 370.4698181152344 L 364.7389831542969 367.1598205566406 L 361.3089904785156 367.1598205566406 L 361.3089904785156 359.4589538574219 L 369.3968505859375 359.4589538574219 L 380.1865539550781 341.6162414550781 L 380.1865539550781 292.9649963378906 L 390.7164916992188 292.9649963378906 L 390.7164916992188 341.6162414550781 L 408.1659545898438 370.4698181152344 C 408.6646118164062 371.2950134277344 408.9285278320312 372.2411804199219 408.9285278320312 373.205078125 C 408.9285278320312 376.1239318847656 406.5625610351562 378.4898986816406 403.6437072753906 378.4898986816406 Z" stroke="none" fill="#ebebeb"/>
            </g>
            <g id="Trazado_170682" data-name="Trazado 170682" transform="translate(-360.442 -274.896)" fill="#fff" stroke-miterlimit="10">
              <path d="M 384.5845031738281 353.7378845214844 C 383.095458984375 353.7378845214844 381.8840026855469 352.5264587402344 381.8840026855469 351.0373840332031 L 381.8840026855469 348.4001770019531 C 381.8840026855469 347.4478149414062 382.3796691894531 346.5839233398438 383.2099304199219 346.0892944335938 L 383.4540100097656 345.9438781738281 L 383.4540100097656 345.6597595214844 L 383.4540100097656 276.5265197753906 C 383.4540100097656 275.9031677246094 383.9611511230469 275.39599609375 384.5845031738281 275.39599609375 C 385.2084350585938 275.39599609375 385.7160339355469 275.9031677246094 385.7160339355469 276.5265197753906 L 385.7160339355469 345.6597595214844 L 385.7160339355469 345.9437255859375 L 385.9598999023438 346.0891723632812 C 386.7896423339844 346.5840454101562 387.2850036621094 347.4479675292969 387.2850036621094 348.4001770019531 L 387.2850036621094 351.0373840332031 C 387.2850036621094 352.5264587402344 386.0735473632812 353.7378845214844 384.5845031738281 353.7378845214844 Z" stroke="none"/>
              <path d="M 384.5845031738281 353.2378845214844 C 385.7978515625 353.2378845214844 386.7850036621094 352.250732421875 386.7850036621094 351.0373840332031 L 386.7850036621094 348.4001770019531 C 386.7850036621094 347.6257934570312 386.3808288574219 346.9223937988281 385.7037963867188 346.5186157226562 L 385.2160339355469 346.2276916503906 L 385.2160339355469 276.5265197753906 C 385.2160339355469 276.1788330078125 384.9327392578125 275.89599609375 384.5845031738281 275.89599609375 C 384.2368469238281 275.89599609375 383.9540100097656 276.1788330078125 383.9540100097656 276.5265197753906 L 383.9540100097656 346.2279968261719 L 383.4658203125 346.5188598632812 C 382.7884216308594 346.9224243164062 382.3840026855469 347.625732421875 382.3840026855469 348.4001770019531 L 382.3840026855469 351.0373840332031 C 382.3840026855469 352.250732421875 383.3711547851562 353.2378845214844 384.5845031738281 353.2378845214844 M 384.5845031738281 354.2378845214844 C 382.8173217773438 354.2378845214844 381.3840026855469 352.8055725097656 381.3840026855469 351.0373840332031 L 381.3840026855469 348.4001770019531 C 381.3840026855469 347.2307739257812 382.0172119140625 346.2178649902344 382.9540100097656 345.6597595214844 L 382.9540100097656 276.5265197753906 C 382.9540100097656 275.6251831054688 383.6842041015625 274.89599609375 384.5845031738281 274.89599609375 C 385.4858093261719 274.89599609375 386.2160339355469 275.6251831054688 386.2160339355469 276.5265197753906 L 386.2160339355469 345.6597595214844 C 387.1517944335938 346.2178649902344 387.7850036621094 347.2307739257812 387.7850036621094 348.4001770019531 L 387.7850036621094 351.0373840332031 C 387.7850036621094 352.8055725097656 386.3527221679688 354.2378845214844 384.5845031738281 354.2378845214844 Z" stroke="none" fill="#ebebeb"/>
            </g>
            <path id="Trazado_170683" data-name="Trazado 170683" d="M385.094,344.448V317.873h-1.111v26.575a2.073,2.073,0,0,0-1.524,1.995v2.818a2.079,2.079,0,0,0,2.079,2.079h0a2.079,2.079,0,0,0,2.079-2.079v-2.818A2.074,2.074,0,0,0,385.094,344.448Z" transform="translate(-360.395 -273.04)" fill="#db8804"/>
            <rect id="Rectángulo_36421" data-name="Rectángulo 36421" width="12.645" height="4.623" transform="translate(0.277 86.918)" fill="#db8804"/>
            <path id="Trazado_170684" data-name="Trazado 170684" d="M401.349,372.553H369.093a3.134,3.134,0,0,1-2.678-4.765l8-13.147h21.636l7.976,13.147A3.134,3.134,0,0,1,401.349,372.553Z" transform="translate(-361.108 -271.452)" fill="#e4cbb7"/>
            <path id="Trazado_170685" data-name="Trazado 170685" d="M380.22,357.363a1.7,1.7,0,0,0,0,3.388A1.7,1.7,0,0,0,380.22,357.363Z" transform="translate(-360.563 -271.334)" fill="#db8804"/>
            <path id="Trazado_170686" data-name="Trazado 170686" d="M388.59,360.34c-3.431,0-3.432,5.324,0,5.324S392.022,360.34,388.59,360.34Z" transform="translate(-360.242 -271.206)" fill="#db8804"/>
            <path id="Trazado_170687" data-name="Trazado 170687" d="M382.452,364.969c-2.807,0-2.808,4.356,0,4.356S385.26,364.969,382.452,364.969Z" transform="translate(-360.487 -271.006)" fill="#db8804"/>
          </g>
          <path id="Rectángulo_36422" data-name="Rectángulo 36422" d="M3.161,0h.7A3.161,3.161,0,0,1,7.026,3.161v.567a0,0,0,0,1,0,0H0a0,0,0,0,1,0,0V3.161A3.161,3.161,0,0,1,3.161,0Z" transform="translate(0 92.662) rotate(-90)" fill="#38474f"/>
        </g>
        <g id="Grupo_133210" data-name="Grupo 133210" transform="translate(17.743 107.912)">
          <line id="Línea_2151" data-name="Línea 2151" y2="48.33" fill="none" stroke="#38474f" stroke-miterlimit="10" stroke-width="1"/>
          <line id="Línea_2152" data-name="Línea 2152" y2="48.33" transform="translate(29.914)" fill="none" stroke="#38474f" stroke-miterlimit="10" stroke-width="1"/>
        </g>
        <g id="Grupo_133214" data-name="Grupo 133214" transform="translate(7.685 28.739)">
          <path id="Trazado_170688" data-name="Trazado 170688" d="M319.6,311.847H306.434v-2.819a6.584,6.584,0,0,1,6.584-6.584h0a6.584,6.584,0,0,1,6.584,6.584Z" transform="translate(-273.044 -302.445)" fill="#38474f"/>
          <g id="Grupo_133212" data-name="Grupo 133212" transform="translate(3.867 9.402)">
            <g id="Trazado_170689" data-name="Trazado 170689" transform="translate(-278.133 -311.458)" fill="#fff" stroke-miterlimit="10">
              <path d="M 314.2388305664062 405.3166198730469 C 309.431884765625 405.3166198730469 304.7689819335938 404.3752746582031 300.379638671875 402.5187072753906 C 296.1397705078125 400.7254028320312 292.3318786621094 398.1579895019531 289.0617370605469 394.8878479003906 C 285.7915954589844 391.6177062988281 283.2242126464844 387.809814453125 281.430908203125 383.5699768066406 C 279.5743408203125 379.1806335449219 278.6329956054688 374.5177307128906 278.6329956054688 369.7107849121094 C 278.6329956054688 365.4916687011719 279.3635559082031 361.3628845214844 280.8043518066406 357.4391174316406 C 282.196533203125 353.6477355957031 284.21484375 350.1409301757812 286.8031921386719 347.0160522460938 C 289.37109375 343.9158630371094 292.4171447753906 341.2906799316406 295.856689453125 339.21337890625 C 299.3658142089844 337.0940856933594 303.1786804199219 335.6110534667969 307.1893920898438 334.8055114746094 L 307.5909118652344 334.724853515625 L 307.5909118652344 334.3153076171875 L 307.5909118652344 311.9580078125 L 320.8878173828125 311.9580078125 L 320.8878173828125 334.3153076171875 L 320.8878173828125 334.724853515625 L 321.2893676757812 334.8055114746094 C 325.2998046875 335.6110534667969 329.1124572753906 337.0940856933594 332.6214294433594 339.21337890625 C 336.0608520507812 341.2906799316406 339.1067810058594 343.9158630371094 341.6745910644531 347.0160522460938 C 344.2629089355469 350.1409301757812 346.2811889648438 353.6477661132812 347.6733703613281 357.4391174316406 C 349.1141357421875 361.3628845214844 349.8446960449219 365.4916687011719 349.8446960449219 369.7107849121094 C 349.8446960449219 374.5177307128906 348.9033508300781 379.1806335449219 347.0467834472656 383.5699768066406 C 345.2534790039062 387.809814453125 342.6860656738281 391.6177062988281 339.4159240722656 394.8878479003906 C 336.1457824707031 398.1579895019531 332.337890625 400.7254028320312 328.0980224609375 402.5187072753906 C 323.7086791992188 404.3752746582031 319.0457763671875 405.3166198730469 314.2388305664062 405.3166198730469 Z" stroke="none"/>
              <path d="M 308.0909118652344 312.4580078125 L 308.0909118652344 335.1344299316406 L 307.287841796875 335.2957153320312 C 303.3338317871094 336.0898742675781 299.5747985839844 337.5519714355469 296.1151733398438 339.6413879394531 C 292.7237243652344 341.6896057128906 289.7202758789062 344.2781066894531 287.1882629394531 347.3349914550781 C 284.63623046875 350.416015625 282.6462707519531 353.87353515625 281.2737121582031 357.6114807128906 C 279.8532409667969 361.4798583984375 279.1329956054688 365.5506286621094 279.1329956054688 369.7107849121094 C 279.1329956054688 374.450439453125 280.06103515625 379.0478210449219 281.8913879394531 383.3751831054688 C 283.6594848632812 387.5554504394531 286.1908874511719 391.3099060058594 289.4153137207031 394.5343017578125 C 292.6396789550781 397.7586975097656 296.3941650390625 400.2901000976562 300.5744018554688 402.0582275390625 C 304.9017944335938 403.8885498046875 309.4991455078125 404.8166198730469 314.2388305664062 404.8166198730469 C 318.978515625 404.8166198730469 323.5758666992188 403.8885498046875 327.9032592773438 402.0582275390625 C 332.08349609375 400.2901000976562 335.8379821777344 397.7586975097656 339.0623779296875 394.5343017578125 C 342.2867736816406 391.3099060058594 344.8181762695312 387.555419921875 346.5862731933594 383.3751831054688 C 348.4166259765625 379.0478210449219 349.3446960449219 374.450439453125 349.3446960449219 369.7107849121094 C 349.3446960449219 365.5506591796875 348.6244506835938 361.4798583984375 347.2039794921875 357.6114807128906 C 345.8314208984375 353.87353515625 343.8415222167969 350.416015625 341.2895202636719 347.3349609375 C 338.757568359375 344.2781066894531 335.7542419433594 341.6896057128906 332.3629455566406 339.641357421875 C 328.9034729003906 337.5519714355469 325.1446228027344 336.0898742675781 321.1908874511719 335.2957153320312 L 320.3878173828125 335.1344299316406 L 320.3878173828125 312.4580078125 L 308.0909118652344 312.4580078125 M 307.0909118652344 311.4580078125 L 321.3878173828125 311.4580078125 L 321.3878173828125 334.3153076171875 C 337.9035949707031 337.6326904296875 350.3446960449219 352.217529296875 350.3446960449219 369.7107849121094 C 350.3446960449219 389.6513366699219 334.1794128417969 405.8166198730469 314.2388305664062 405.8166198730469 C 294.2982482910156 405.8166198730469 278.1329956054688 389.6513366699219 278.1329956054688 369.7107849121094 C 278.1329956054688 352.217529296875 290.5740661621094 337.6326904296875 307.0909118652344 334.3153076171875 L 307.0909118652344 311.4580078125 Z" stroke="none" fill="#ebebeb"/>
            </g>
            <g id="Trazado_170690" data-name="Trazado 170690" transform="translate(-278.133 -311.458)" fill="#fff" stroke-miterlimit="10">
              <path d="M 314.2388305664062 405.3166198730469 C 309.431884765625 405.3166198730469 304.7689819335938 404.3752746582031 300.379638671875 402.5187072753906 C 296.1397705078125 400.7254028320312 292.3318786621094 398.1579895019531 289.0617370605469 394.8878479003906 C 285.7915954589844 391.6177062988281 283.2242126464844 387.809814453125 281.430908203125 383.5699768066406 C 279.5743408203125 379.1806335449219 278.6329956054688 374.5177307128906 278.6329956054688 369.7107849121094 C 278.6329956054688 365.4916687011719 279.3635559082031 361.3628845214844 280.8043518066406 357.4391174316406 C 282.196533203125 353.6477355957031 284.21484375 350.1409301757812 286.8031921386719 347.0160522460938 C 289.37109375 343.9158630371094 292.4171447753906 341.2906799316406 295.856689453125 339.21337890625 C 299.3658142089844 337.0940856933594 303.1786804199219 335.6110534667969 307.1893920898438 334.8055114746094 L 307.5909118652344 334.724853515625 L 307.5909118652344 334.3153076171875 L 307.5909118652344 311.9580078125 L 320.8878173828125 311.9580078125 L 320.8878173828125 334.3153076171875 L 320.8878173828125 334.724853515625 L 321.2893676757812 334.8055114746094 C 325.2998046875 335.6110534667969 329.1124572753906 337.0940856933594 332.6214294433594 339.21337890625 C 336.0608520507812 341.2906799316406 339.1067810058594 343.9158630371094 341.6745910644531 347.0160522460938 C 344.2629089355469 350.1409301757812 346.2811889648438 353.6477661132812 347.6733703613281 357.4391174316406 C 349.1141357421875 361.3628845214844 349.8446960449219 365.4916687011719 349.8446960449219 369.7107849121094 C 349.8446960449219 374.5177307128906 348.9033508300781 379.1806335449219 347.0467834472656 383.5699768066406 C 345.2534790039062 387.809814453125 342.6860656738281 391.6177062988281 339.4159240722656 394.8878479003906 C 336.1457824707031 398.1579895019531 332.337890625 400.7254028320312 328.0980224609375 402.5187072753906 C 323.7086791992188 404.3752746582031 319.0457763671875 405.3166198730469 314.2388305664062 405.3166198730469 Z" stroke="none"/>
              <path d="M 308.0909118652344 312.4580078125 L 308.0909118652344 335.1344299316406 L 307.287841796875 335.2957153320312 C 303.3338317871094 336.0898742675781 299.5747985839844 337.5519714355469 296.1151733398438 339.6413879394531 C 292.7237243652344 341.6896057128906 289.7202758789062 344.2781066894531 287.1882629394531 347.3349914550781 C 284.63623046875 350.416015625 282.6462707519531 353.87353515625 281.2737121582031 357.6114807128906 C 279.8532409667969 361.4798583984375 279.1329956054688 365.5506286621094 279.1329956054688 369.7107849121094 C 279.1329956054688 374.450439453125 280.06103515625 379.0478210449219 281.8913879394531 383.3751831054688 C 283.6594848632812 387.5554504394531 286.1908874511719 391.3099060058594 289.4153137207031 394.5343017578125 C 292.6396789550781 397.7586975097656 296.3941650390625 400.2901000976562 300.5744018554688 402.0582275390625 C 304.9017944335938 403.8885498046875 309.4991455078125 404.8166198730469 314.2388305664062 404.8166198730469 C 318.978515625 404.8166198730469 323.5758666992188 403.8885498046875 327.9032592773438 402.0582275390625 C 332.08349609375 400.2901000976562 335.8379821777344 397.7586975097656 339.0623779296875 394.5343017578125 C 342.2867736816406 391.3099060058594 344.8181762695312 387.555419921875 346.5862731933594 383.3751831054688 C 348.4166259765625 379.0478210449219 349.3446960449219 374.450439453125 349.3446960449219 369.7107849121094 C 349.3446960449219 365.5506591796875 348.6244506835938 361.4798583984375 347.2039794921875 357.6114807128906 C 345.8314208984375 353.87353515625 343.8415222167969 350.416015625 341.2895202636719 347.3349609375 C 338.757568359375 344.2781066894531 335.7542419433594 341.6896057128906 332.3629455566406 339.641357421875 C 328.9034729003906 337.5519714355469 325.1446228027344 336.0898742675781 321.1908874511719 335.2957153320312 L 320.3878173828125 335.1344299316406 L 320.3878173828125 312.4580078125 L 308.0909118652344 312.4580078125 M 307.0909118652344 311.4580078125 L 321.3878173828125 311.4580078125 L 321.3878173828125 334.3153076171875 C 337.9035949707031 337.6326904296875 350.3446960449219 352.217529296875 350.3446960449219 369.7107849121094 C 350.3446960449219 389.6513366699219 334.1794128417969 405.8166198730469 314.2388305664062 405.8166198730469 C 294.2982482910156 405.8166198730469 278.1329956054688 389.6513366699219 278.1329956054688 369.7107849121094 C 278.1329956054688 352.217529296875 290.5740661621094 337.6326904296875 307.0909118652344 334.3153076171875 L 307.0909118652344 311.4580078125 Z" stroke="none" fill="#ebebeb"/>
            </g>
            <g id="Grupo_133211" data-name="Grupo 133211" transform="translate(29.318 26.782)">
              <path id="Trazado_170691" data-name="Trazado 170691" d="M317.827,353.942h0a6.79,6.79,0,0,1-9.6,0h0a6.79,6.79,0,0,1-.8-8.64l5.6-8.171,5.6,8.171A6.791,6.791,0,0,1,317.827,353.942Z" transform="translate(-306.237 -337.131)" fill="#db8804"/>
            </g>
            <path id="Trazado_170692" data-name="Trazado 170692" d="M342.9,368.153a28.955,28.955,0,1,1-57.374-5.529h56.839A28.809,28.809,0,0,1,342.9,368.153Z" transform="translate(-277.837 -309.248)" fill="#e4cbb7"/>
            <path id="Trazado_170693" data-name="Trazado 170693" d="M305.9,367.317c-3.146,0-3.147,4.883,0,4.883S309.052,367.317,305.9,367.317Z" transform="translate(-277.035 -309.045)" fill="#db8804"/>
            <path id="Trazado_170694" data-name="Trazado 170694" d="M318.683,372c-6.293,0-6.3,9.765,0,9.765S324.979,372,318.683,372Z" transform="translate(-276.585 -308.843)" fill="#db8804"/>
            <path id="Trazado_170695" data-name="Trazado 170695" d="M305.56,381.359c-4.617,0-4.619,7.165,0,7.165S310.179,381.359,305.56,381.359Z" transform="translate(-277.098 -308.439)" fill="#db8804"/>
          </g>
          <g id="Grupo_133213" data-name="Grupo 133213" transform="translate(0 76.557)">
            <line id="Línea_2153" data-name="Línea 2153" y2="48.33" transform="translate(69.886 2.616)" fill="none" stroke="#38474f" stroke-miterlimit="10" stroke-width="1"/>
            <rect id="Rectángulo_36423" data-name="Rectángulo 36423" width="79.943" height="6.027" fill="#263238"/>
            <rect id="Rectángulo_36424" data-name="Rectángulo 36424" width="13.575" height="6.027" transform="translate(7.441)" fill="#38474f"/>
            <rect id="Rectángulo_36425" data-name="Rectángulo 36425" width="6.542" height="6.027" transform="translate(24.518)" fill="#38474f"/>
          </g>
        </g>
        <g id="Grupo_133215" data-name="Grupo 133215" transform="translate(0 156.242)">
          <path id="Trazado_170696" data-name="Trazado 170696" d="M273.655,435.891H458.063a11.222,11.222,0,0,0-11.223-11.222H284.878a11.222,11.222,0,0,0-11.223,11.222Z" transform="translate(-266.774 -424.669)" fill="#38474f"/>
          <path id="Trazado_170697" data-name="Trazado 170697" d="M267.059,435.891h47.258a11.221,11.221,0,0,0-11.222-11.222H278.281a11.221,11.221,0,0,0-11.222,11.222Z" transform="translate(-267.059 -424.669)" fill="#263238"/>
        </g>
        <rect id="Rectángulo_36426" data-name="Rectángulo 36426" width="8.223" height="154.388" transform="translate(160.699 7.657)" fill="#38474f"/>
        <line id="Línea_2154" data-name="Línea 2154" x1="35.568" transform="translate(129.242 38.396)" fill="none" stroke="#38474f" stroke-miterlimit="10" stroke-width="1"/>
        <line id="Línea_2155" data-name="Línea 2155" x1="42.675" transform="translate(122.135 107.912)" fill="none" stroke="#38474f" stroke-miterlimit="10" stroke-width="1"/>
        <g id="Grupo_133216" data-name="Grupo 133216" transform="translate(115.296 35.383)">
          <rect id="Rectángulo_36427" data-name="Rectángulo 36427" width="6.667" height="6.027" transform="translate(8.33)" fill="#263238"/>
          <rect id="Rectángulo_36428" data-name="Rectángulo 36428" width="6.027" height="6.027" fill="#263238"/>
          <rect id="Rectángulo_36429" data-name="Rectángulo 36429" width="2.384" height="6.027" transform="translate(1.425)" fill="#38474f"/>
          <rect id="Rectángulo_36430" data-name="Rectángulo 36430" width="2.741" height="6.027" transform="translate(10.368)" fill="#38474f"/>
        </g>
        <g id="Grupo_133217" data-name="Grupo 133217" transform="translate(96.113 104.898)">
          <rect id="Rectángulo_36431" data-name="Rectángulo 36431" width="52.044" height="6.027" fill="#263238"/>
          <rect id="Rectángulo_36432" data-name="Rectángulo 36432" width="13.373" height="6.027" transform="translate(7.33)" fill="#38474f"/>
          <rect id="Rectángulo_36433" data-name="Rectángulo 36433" width="6.445" height="6.027" transform="translate(24.154)" fill="#38474f"/>
        </g>
        <g id="Grupo_133220" data-name="Grupo 133220" transform="translate(105.039 115.897)">
          <g id="Grupo_133218" data-name="Grupo 133218" transform="translate(0 34.317)">
            <rect id="Rectángulo_36434" data-name="Rectángulo 36434" width="34.192" height="6.027" fill="#263238"/>
            <rect id="Rectángulo_36435" data-name="Rectángulo 36435" width="12.922" height="6.027" transform="translate(2.859)" fill="#38474f"/>
          </g>
          <path id="Trazado_170698" data-name="Trazado 170698" d="M383.7,402.02c6.828.674,9.305-9.375.582-16.025.2,2.944-1.986,4.824-3.668,7.066C377.984,396.565,379.766,401.632,383.7,402.02Z" transform="translate(-367.247 -385.995)" fill="#f7b242"/>
          <path id="Trazado_170699" data-name="Trazado 170699" d="M383.847,400.848c3.774.535,5.385-4.984.7-8.881.041,1.639-1.216,2.631-2.2,3.836C380.8,397.686,381.674,400.54,383.847,400.848Z" transform="translate(-367.153 -385.737)" fill="#db8804"/>
          <g id="Grupo_133219" data-name="Grupo 133219" transform="translate(12.197 15)">
            <rect id="Rectángulo_36436" data-name="Rectángulo 36436" width="9.799" height="19.317" fill="#263238"/>
            <rect id="Rectángulo_36437" data-name="Rectángulo 36437" width="4.409" height="19.317" transform="translate(1.38)" fill="#38474f"/>
          </g>
        </g>
        <path id="Rectángulo_36438" data-name="Rectángulo 36438" d="M3.354,0H6.719a3.354,3.354,0,0,1,3.354,3.354v.374a0,0,0,0,1,0,0H0a0,0,0,0,1,0,0V3.354A3.354,3.354,0,0,1,3.354,0Z" transform="translate(117.427 15.121)" fill="#38474f"/>
      </g>
      <g id="Grupo_133227" data-name="Grupo 133227" transform="translate(46.935 422.679)">
        <g id="Grupo_133226" data-name="Grupo 133226">
          <path id="Trazado_170700" data-name="Trazado 170700" d="M49.9,408.844v26.989H187.125a7.757,7.757,0,0,0,7.254-5.456,8.611,8.611,0,0,0,.457-2.792V417.092a8.718,8.718,0,0,0-.51-2.949,7.749,7.749,0,0,0-7.2-5.3Z" transform="translate(-46.496 -408.843)" fill="#263238"/>
          <path id="Trazado_170701" data-name="Trazado 170701" d="M113.964,413.924v16.234h77.649a8.611,8.611,0,0,0,.457-2.792V416.873a8.718,8.718,0,0,0-.51-2.949Z" transform="translate(-43.729 -408.624)" fill="#38474f"/>
          <path id="Trazado_170702" data-name="Trazado 170702" d="M111.744,408.844h-59.7v26.992h59.7a13.5,13.5,0,0,0,13.5-13.5h0A13.5,13.5,0,0,0,111.744,408.844Z" transform="translate(-46.404 -408.843)" fill="#38474f"/>
          <path id="Trazado_170703" data-name="Trazado 170703" d="M48.527,408.844H60.356v4.043H48.527a1.959,1.959,0,0,1-1.89-2.022h0A1.959,1.959,0,0,1,48.527,408.844Z" transform="translate(-46.637 -408.843)" fill="#38474f"/>
          <path id="Trazado_170704" data-name="Trazado 170704" d="M48.659,430.839h11.7v4.043h-11.7a2.021,2.021,0,0,1-2.022-2.022h0A2.021,2.021,0,0,1,48.659,430.839Z" transform="translate(-46.637 -407.893)" fill="#38474f"/>
          <g id="Grupo_133225" data-name="Grupo 133225" transform="translate(3.406 4.048)">
            <path id="Trazado_170705" data-name="Trazado 170705" d="M111.03,412.723H49.9v18.9H111.03a9.45,9.45,0,0,0,9.449-9.449h0A9.449,9.449,0,0,0,111.03,412.723Z" transform="translate(-49.902 -412.723)" fill="#ebebeb"/>
            <g id="Trazado_170706" data-name="Trazado 170706" transform="translate(-49.902 -412.62)" fill="#fff" stroke-miterlimit="10">
              <path d="M 112.816780090332 431.0186157226562 L 50.40199661254883 431.0186157226562 L 50.40199661254883 415.6029968261719 L 105.517578125 415.6029968261719 C 108.551025390625 415.6029968261719 111.4029541015625 416.7843933105469 113.5480041503906 418.9295654296875 C 115.693115234375 421.0747985839844 116.8744888305664 423.9270629882812 116.8744888305664 426.9609375 C 116.8744888305664 429.1983642578125 115.0542068481445 431.0186157226562 112.816780090332 431.0186157226562 Z" stroke="none"/>
              <path d="M 50.90199279785156 416.1029968261719 L 50.90199279785156 430.5186157226562 L 112.816780090332 430.5186157226562 C 114.7785034179688 430.5186157226562 116.3744812011719 428.9226379394531 116.3744812011719 426.9609375 C 116.3744812011719 424.0606079101562 115.2451248168945 421.3339233398438 113.1944351196289 419.2831115722656 C 111.1438293457031 417.2323913574219 108.4174652099609 416.1029968261719 105.517578125 416.1029968261719 L 50.90199279785156 416.1029968261719 M 49.90199279785156 415.1029968261719 L 105.517578125 415.1029968261719 C 112.0656814575195 415.1029968261719 117.3744812011719 420.4117736816406 117.3744812011719 426.9609375 C 117.3744812011719 429.4781494140625 115.3339996337891 431.5186157226562 112.816780090332 431.5186157226562 L 49.90199279785156 431.5186157226562 L 49.90199279785156 415.1029968261719 Z" stroke="none" fill="#ebebeb"/>
            </g>
            <g id="Grupo_133224" data-name="Grupo 133224" transform="translate(0 2.483)">
              <g id="Grupo_133223" data-name="Grupo 133223" clip-path="url(#clip-path)">
                <g id="Grupo_133222" data-name="Grupo 133222" transform="translate(0 3.398)">
                  <line id="Línea_2156" data-name="Línea 2156" x1="68.027" fill="none" stroke="#ebebeb" stroke-miterlimit="10" stroke-width="1"/>
                  <line id="Línea_2157" data-name="Línea 2157" x1="70.345" transform="translate(0 3.342)" fill="none" stroke="#ebebeb" stroke-miterlimit="10" stroke-width="1"/>
                  <line id="Línea_2158" data-name="Línea 2158" x1="70.345" transform="translate(0 6.683)" fill="none" stroke="#ebebeb" stroke-miterlimit="10" stroke-width="1"/>
                  <line id="Línea_2159" data-name="Línea 2159" x1="70.345" transform="translate(0 10.025)" fill="none" stroke="#ebebeb" stroke-miterlimit="10" stroke-width="1"/>
                </g>
              </g>
            </g>
          </g>
          <path id="Trazado_170708" data-name="Trazado 170708" d="M121.369,434.939h7.641a7.757,7.757,0,0,0,7.256-5.453h-7.641A7.757,7.757,0,0,1,121.369,434.939Z" transform="translate(-43.409 -407.951)" fill="#00978e"/>
          <path id="Trazado_170709" data-name="Trazado 170709" d="M128.57,414.141h7.642a7.753,7.753,0,0,0-7.2-5.3h-7.641A7.752,7.752,0,0,1,128.57,414.141Z" transform="translate(-43.409 -408.843)" fill="#00978e"/>
          <path id="Trazado_170710" data-name="Trazado 170710" d="M162.614,434.939h7.641a7.757,7.757,0,0,0,7.256-5.453H169.87A7.759,7.759,0,0,1,162.614,434.939Z" transform="translate(-41.628 -407.951)" fill="#00978e"/>
          <path id="Trazado_170711" data-name="Trazado 170711" d="M169.815,414.141h7.642a7.754,7.754,0,0,0-7.2-5.3h-7.641A7.752,7.752,0,0,1,169.815,414.141Z" transform="translate(-41.628 -408.843)" fill="#00978e"/>
        </g>
        <path id="Trazado_170712" data-name="Trazado 170712" d="M128.781,427.363a8.671,8.671,0,0,1-.454,2.795h7.641a8.671,8.671,0,0,0,.454-2.795V416.871a8.7,8.7,0,0,0-.508-2.949h-7.642a8.676,8.676,0,0,1,.509,2.949Z" transform="translate(-43.111 -408.624)" fill="#00978e"/>
        <path id="Trazado_170713" data-name="Trazado 170713" d="M170.026,427.363a8.671,8.671,0,0,1-.454,2.795h7.641a8.671,8.671,0,0,0,.454-2.795V416.871a8.7,8.7,0,0,0-.508-2.949h-7.642a8.676,8.676,0,0,1,.509,2.949Z" transform="translate(-41.33 -408.624)" fill="#00978e"/>
        <path id="Trazado_170714" data-name="Trazado 170714" d="M169.248,434.939h7.641a7.759,7.759,0,0,0,7.257-5.453H176.5A7.757,7.757,0,0,1,169.248,434.939Z" transform="translate(-41.341 -407.951)" fill="#00978e"/>
        <path id="Trazado_170715" data-name="Trazado 170715" d="M176.45,414.141h7.641a7.753,7.753,0,0,0-7.2-5.3h-7.641A7.754,7.754,0,0,1,176.45,414.141Z" transform="translate(-41.341 -408.843)" fill="#00978e"/>
        <path id="Trazado_170716" data-name="Trazado 170716" d="M176.66,427.363a8.671,8.671,0,0,1-.454,2.795h7.642a8.7,8.7,0,0,0,.454-2.795V416.871a8.7,8.7,0,0,0-.509-2.949h-7.641a8.7,8.7,0,0,1,.508,2.949Z" transform="translate(-41.043 -408.624)" fill="#00978e"/>
      </g>
      <g id="Grupo_133230" data-name="Grupo 133230" transform="translate(42.064 200.814)">
        <line id="Línea_2160" data-name="Línea 2160" x2="1.986" y2="24.228" transform="translate(27.755 55.508)" fill="none" stroke="#dbdbdb" stroke-miterlimit="10" stroke-width="1" stroke-dasharray="4 2"/>
        <g id="Grupo_133229" data-name="Grupo 133229" transform="translate(0 0)">
          <g id="Grupo_133228" data-name="Grupo 133228" transform="translate(8.612 9.016)">
            <path id="Trazado_170717" data-name="Trazado 170717" d="M58.165,229.517a4.578,4.578,0,1,1-2.032,6.146A4.578,4.578,0,0,1,58.165,229.517Z" transform="translate(-49.988 -203.759)" fill="#d93328"/>
            <path id="Trazado_170718" data-name="Trazado 170718" d="M78.816,219.983A2.746,2.746,0,1,0,82.5,221.2,2.747,2.747,0,0,0,78.816,219.983Z" transform="translate(-49.053 -204.163)" fill="#dbdbdb"/>
            <path id="Trazado_170719" data-name="Trazado 170719" d="M58.943,205.816a6.453,6.453,0,1,0,8.665,2.865A6.452,6.452,0,0,0,58.943,205.816Z" transform="translate(-49.999 -204.792)" fill="#d93328"/>
            <path id="Trazado_170720" data-name="Trazado 170720" d="M80.407,237.772a2.226,2.226,0,1,1-.506-3.108A2.224,2.224,0,0,1,80.407,237.772Z" transform="translate(-49.093 -203.534)" fill="#38474f"/>
            <path id="Trazado_170721" data-name="Trazado 170721" d="M77.416,207.536a1.723,1.723,0,1,0-2.4.392A1.724,1.724,0,0,0,77.416,207.536Z" transform="translate(-49.183 -204.806)" fill="#38474f"/>
            <path id="Trazado_170722" data-name="Trazado 170722" d="M70.043,223.847a1.723,1.723,0,1,0-2.406.392A1.722,1.722,0,0,0,70.043,223.847Z" transform="translate(-49.501 -204.101)" fill="#008f85"/>
            <path id="Trazado_170723" data-name="Trazado 170723" d="M89.628,229.318a1.723,1.723,0,1,0-2.4.392A1.723,1.723,0,0,0,89.628,229.318Z" transform="translate(-48.655 -203.865)" fill="#008f85"/>
            <path id="Trazado_170724" data-name="Trazado 170724" d="M51.813,225.029a.878.878,0,1,0-1.226.2A.878.878,0,0,0,51.813,225.029Z" transform="translate(-50.223 -203.992)" fill="#008f85"/>
          </g>
          <path id="Trazado_170725" data-name="Trazado 170725" d="M92.249,240.13a27.754,27.754,0,1,1-6.314-38.738A27.755,27.755,0,0,1,92.249,240.13Z" transform="translate(-41.967 -196.163)" fill="none" stroke="#38474f" stroke-miterlimit="10" stroke-width="1" stroke-dasharray="4 2"/>
          <path id="Trazado_170726" data-name="Trazado 170726" d="M83.144,291.17a11.9,11.9,0,1,1-2.708-16.616A11.905,11.905,0,0,1,83.144,291.17Z" transform="translate(-41.12 -192.874)" fill="none" stroke="#38474f" stroke-miterlimit="10" stroke-width="1" stroke-dasharray="4 2"/>
        </g>
      </g>
    </g>
  </g>
</svg>
