<svg xmlns="http://www.w3.org/2000/svg" width="120.522" height="130.137" viewBox="0 0 120.522 130.137">
  <g id="Grupo_134290" data-name="Grupo 134290" transform="translate(-775.969 -5076.039)">
    <path id="Trazado_170560" data-name="Trazado 170560" d="M-1351.634-767.227q0,23.6,0,47.2c0,1.935.026,3.871-.007,5.806a12.314,12.314,0,0,1-9.426,11.718,12.469,12.469,0,0,1-2.809.339c-11.962.022-23.924.053-35.886,0a11.836,11.836,0,0,1-10.471-6.008,12.061,12.061,0,0,1-1.776-6.5c0-5.84.033-11.679.033-17.519,0-6.443-.031-12.885-.036-19.328q-.01-13.282,0-26.565,0-11.084,0-22.167,0-9.73,0-19.459a12.2,12.2,0,0,1,2.365-7.428,11.775,11.775,0,0,1,9.737-5.1c8.491-.06,16.984-.008,25.476-.006,3.492,0,6.983-.013,10.475-.013a12.289,12.289,0,0,1,12,9.558,12.849,12.849,0,0,1,.313,2.814q.027,25.95.013,51.9Zm-18.005,59.807c1.348,0,2.616.021,3.882-.006a21.171,21.171,0,0,0,3.4-.181,6.966,6.966,0,0,0,5.431-6.541c.028-3.682.013-7.364.013-11.045q0-18.681,0-37.361,0-12.961,0-25.922v-.789h-43.35v25.647q0,20.6,0,41.192c0,.194,0,.388,0,.582a1.378,1.378,0,0,1-1.275,1.433,1.357,1.357,0,0,1-1.323-1.373c-.018-.709-.01-1.419-.01-2.129q0-24.109,0-48.219,0-8.18,0-16.361a1.817,1.817,0,0,0-.018-.514c-.034-.113-.176-.273-.271-.275-1.175-.019-2.351-.012-3.564-.012v.881q0,15.642,0,31.284,0,21.273,0,42.547a7.005,7.005,0,0,0,7.069,7.157c1.724.019,3.449,0,5.173,0a5.273,5.273,0,0,0,.543-.06v-.8c0-10.56.016-21.12-.013-31.68-.006-2.031.192-2.419,2.389-2.392,3.728.046,7.456.05,11.184.061,3.014.009,6.028-.022,9.041.014,1.353.016,1.7.436,1.7,1.777q0,16.1,0,32.2Zm-37.086-87c.421-.163.723-.249,1-.391q4.351-2.249,8.694-4.514c2.534-1.322,5.058-2.661,7.6-3.97.4-.2.7-.32.7-.9-.039-3.814-.03-7.628-.033-11.442,0-1.388.384-1.773,1.75-1.773h10.28c1.567,0,1.916.355,1.916,1.955,0,3.534.026,7.069-.018,10.6a1.643,1.643,0,0,0,1.057,1.788c5.407,2.732,10.759,5.572,16.134,8.368a3.531,3.531,0,0,0,.69.189c.02-.255.044-.422.044-.59q0-12.5,0-25a6.81,6.81,0,0,0-5.025-6.586,17.236,17.236,0,0,0-4.138-.309q-16.61-.036-33.22-.013a8.129,8.129,0,0,0-1.608.1,7.045,7.045,0,0,0-5.809,7.168q0,12.215,0,24.43Zm34.434,86.98v-32.218h-19.026v32.218Zm-27.954-87.241.019.118h37.007c-.2-.131-.25-.17-.305-.2q-6.085-3.174-12.171-6.343a.816.816,0,0,0-.359-.1c-3.06,0-6.122.087-9.178-.011a8.826,8.826,0,0,0-4.753,1.144C-1393.364-798.2-1396.82-796.464-1400.245-794.676Zm14.134-20.074v10.893h8.579v-10.893Z" transform="translate(2187.987 5908.314)" fill="#1d272b"/>
    <path id="Trazado_170561" data-name="Trazado 170561" d="M-901.538-370.168q0-10.54,0-21.08c0-2.885-.024-5.77.007-8.655a7.784,7.784,0,0,1,6.425-7.7,10.708,10.708,0,0,1,1.995-.129q10.928-.014,21.856-.007c5.3,0,10.6.013,15.9,0a7.823,7.823,0,0,1,7.326,4.185,7.776,7.776,0,0,1,.961,3.9c-.01,5.192-.045,10.384-.044,15.576,0,6.959.037,13.919.044,20.878q.011,11.306-.007,22.613a7.882,7.882,0,0,1-8.094,8.058q-19.2,0-38.409,0a7.785,7.785,0,0,1-7.869-6.69,26.6,26.6,0,0,1-.085-3.873c-.008-3.532,0-7.064,0-10.6Q-901.538-361.927-901.538-370.168Zm5.22-12.251v.819q0,11.154,0,22.307,0,9.28,0,18.559a2.653,2.653,0,0,0,2.908,2.934c2.091.007,4.182,0,6.273,0,.205,0,.411-.017.652-.028v-.714q0-13.516,0-27.031c0-1.852.032-3.7.017-5.557a1.4,1.4,0,0,1,1.553-1.6q2.193,0,4.386,0h16.684c1.158,0,1.662.5,1.662,1.632q0,16.228,0,32.455v.8c.27.015.479.036.689.036q3.136,0,6.273,0a2.624,2.624,0,0,0,2.863-2.9q-.006-8.532,0-17.065,0-11.964,0-23.927c0-.229,0-.458,0-.714h-37.855c-.013.154-.032.278-.032.4q0,8.406,0,16.812,0,6.531,0,13.063a1.222,1.222,0,0,1-.91,1.253c-.918.3-1.688-.384-1.688-1.5q0-14.615,0-29.23v-.817ZM-883.8-337.83h18.984v-32.178H-883.8Zm31.408-50.781c.018-.218.034-.322.034-.426,0-3.619.016-7.239-.016-10.858a2.605,2.605,0,0,0-2.717-2.6q-5.654-.008-11.308,0l-26.889,0a2.747,2.747,0,0,0-3.027,3.041q0,5.074,0,10.148c0,.2.02.4.036.711a35.536,35.536,0,0,1,21.948-7.489A35.541,35.541,0,0,1-852.394-388.611Zm-3.5.967.055-.2a33.444,33.444,0,0,0-21.875-5.478c-4.641.389-13.815,3.746-15.1,5.678Z" transform="translate(1743.558 5538.689)" fill="#1d272b"/>
    <path id="Trazado_170562" data-name="Trazado 170562" d="M-1177.948-675.951h.01c0,.58-.005,1.159,0,1.739a1.35,1.35,0,0,0,1.277,1.477,1.353,1.353,0,0,0,1.387-1.441q.025-1.771,0-3.543a1.372,1.372,0,0,0-1.353-1.481,1.375,1.375,0,0,0-1.325,1.51C-1177.955-677.11-1177.948-676.531-1177.948-675.951Z" transform="translate(1984.195 5775.038)" fill="#1d272b"/>
    <path id="Trazado_170563" data-name="Trazado 170563" d="M-1177.948-675.951c0-.58-.008-1.16,0-1.739a1.375,1.375,0,0,1,1.325-1.51,1.372,1.372,0,0,1,1.353,1.481q.018,1.771,0,3.543a1.353,1.353,0,0,1-1.387,1.441,1.35,1.35,0,0,1-1.277-1.477c-.007-.58,0-1.159,0-1.739Z" transform="translate(1984.195 5775.038)" fill="#008f85"/>
  </g>
</svg>
