<svg xmlns="http://www.w3.org/2000/svg" width="131.51" height="216.838" viewBox="0 0 131.51 216.838">
  <g id="Grupo_134292" data-name="Grupo 134292" transform="translate(-792.969 -5572.99)">
    <path id="Trazado_170566" data-name="Trazado 170566" d="M291.289-1218.615c0,16.176.2,32.355-.1,48.525a69.39,69.39,0,0,1-2.3,17.716,74.472,74.472,0,0,0-.967,36.656c1.293,6.14,2.213,12.375,2.98,18.607,1.037,8.424-2.14,15.2-9.365,19.571-7.583,4.594-15.5,4.451-22.855-.581-6.872-4.7-9.641-11.551-8.435-19.777,1.488-10.152,3.364-20.249,4.788-30.409,1.012-7.222-.289-14.328-2.249-21.277a77.118,77.118,0,0,1-2.893-21.264c.074-32.95.026-65.9.037-98.851,0-12.351,8.663-21.318,20.571-21.353,12.028-.035,20.784,9.013,20.791,21.514Q291.3-1244.076,291.289-1218.615Zm-2.937.631h-.013c0-17.67.138-35.341-.045-53.01-.139-13.467-14.99-21.612-26.641-14.81-6.531,3.813-8.965,9.646-8.943,17.045.1,33.343,0,66.686.091,100.03a53.218,53.218,0,0,0,1.2,11.557c2.1,9.242,4.919,18.42,3.768,28.006-1.234,10.277-3.052,20.483-4.61,30.722-1.132,7.436.824,13.772,7.251,18.027,6.494,4.3,13.411,4.414,20,.234,6.119-3.881,8.722-9.737,7.713-16.934q-1.3-9.314-3.126-18.553c-2.435-12.224-2.481-24.273.839-36.43a73.153,73.153,0,0,0,2.4-17.667C288.562-1185.833,288.353-1201.91,288.353-1217.983Z" transform="translate(543.081 6864.042)"/>
    <path id="Trazado_170567" data-name="Trazado 170567" d="M434.359-1264.8c-.031,14.8-11.553,26.081-26.581,26.014a25.942,25.942,0,0,1-25.73-26.011,26.043,26.043,0,0,1,26.472-26.236A26,26,0,0,1,434.359-1264.8Zm-19.942,11.414c.6.686,1.316,1.618,2.147,2.438a14.854,14.854,0,0,0,1.892,1.376,8.68,8.68,0,0,1-1.58,1.6,9.053,9.053,0,0,1-2.767,1.094,7.23,7.23,0,0,1-2.159-.207,9.077,9.077,0,0,1,.409-2.028,2.406,2.406,0,0,0-2.22-3.573c-1.1,0-2.192.068-3.287.047-2.548-.047-3.338,1.372-2.258,3.81.25.564-.1,1.394-.171,2.1-2-.688-4.575-.842-5.836-2.209-1.336-1.449.784-1.616,1.974-2.071.684-.261,1.1-1.539,1.359-2.439.1-.354-.664-1.365-.82-1.321a4.933,4.933,0,0,0-1.939,1.059c-2.16,1.987-4.258,4.042-6.385,6.079a23.176,23.176,0,0,0,32.888-1.773c7.88-8.939,7.814-24.019-.283-30.716-1.935,1.983-3.921,3.945-5.808,6a6.653,6.653,0,0,0-1.113,2.179c-.031.08.847.742,1.062.637a13.6,13.6,0,0,0,2.609-1.69c.212-.173-.056-.982.146-1.114a6.7,6.7,0,0,1,1.815-.732c.856,1.84,1.616,3.725,2.29,5.639.011.031-1.313.854-1.814.692-3.588-1.162-4.164-.78-4.111,3.026.011.8-.056,1.6-.032,2.393.062,2.046,1.671,2.931,3.6,2.1a8.518,8.518,0,0,1,2.1-.339,8.086,8.086,0,0,1,.137,2.239,8.522,8.522,0,0,1-1.12,2.751,6.9,6.9,0,0,1-1.687,1.369,8.794,8.794,0,0,1-1.187-1.708c-.739-1.878-2.741-2.409-4.038-.983C417.091-1256.414,415.982-1255.144,414.417-1253.384Zm-10.3-23.757c2.376,0,3.955-.017,5.532,0,2.545.033,3.414-1.376,2.315-3.656-.265-.551-.476-1.684-.274-1.8a3.518,3.518,0,0,1,2.144-.407,5.7,5.7,0,0,1,2.178.937,22.959,22.959,0,0,1,2.142,1.763,7.4,7.4,0,0,0-2.076,1.455,18.8,18.8,0,0,0-1.491,3.242c.659.1,1.614.534,1.932.252,2.433-2.162,4.742-4.464,7.088-6.72-8.9-8.715-24.023-7.864-32.539,1.473-8.094,8.875-8.182,24.121.207,31.11,1.865-2.011,3.8-4.025,5.635-6.121a7.276,7.276,0,0,0,1.129-2.2c.029-.074-.842-.733-1.075-.629a9.371,9.371,0,0,0-2.66,1.617,9.265,9.265,0,0,0-1.327,2.252,29.387,29.387,0,0,1-1.924-2.414,6.422,6.422,0,0,1-.928-2.192c-.119-.606-.09-1.655.243-1.839.5-.274,1.317.086,2,.093a7.072,7.072,0,0,0,2.919-.184c.479-.226.643-1.419.693-2.195.1-1.576.03-3.164.03-5.578-1.469.22-2.782.487-4.107.583a6.974,6.974,0,0,1-1.878-.385c.638-1.933,1.227-3.886,1.988-5.768.079-.2,1.182,0,1.8.068.111.012.275.332.264.5-.172,2.546,1.844,2.265,3.218,2.78,1.023-1.1,1.838-2.11,2.789-2.971,2.463-2.232,2.22-3.395-.9-4.772-.511-.225-.7-1.172-1.043-1.786l5.839-2.454a6.523,6.523,0,0,1,.576,1.945C404.518-1279.791,404.27-1278.448,404.113-1277.141Zm-1.049,20.043c5,2.68,9.508,1.9,12.654-2.085,2.618-3.321,2.6-7.962.179-10.515Zm-2.889-3.147,13-12.45a9.1,9.1,0,0,0-11.433.943A8.959,8.959,0,0,0,400.175-1260.245Z" transform="translate(490.108 6864.034)"/>
    <path id="Trazado_170568" data-name="Trazado 170568" d="M434.372-1151.469c.1,14.321-11.454,25.857-26.084,26.043a26.158,26.158,0,0,1-26.234-25.9,26.216,26.216,0,0,1,25.94-26.536A26.177,26.177,0,0,1,434.372-1151.469ZM421.5-1162.79a52.419,52.419,0,0,1,3.395,5.119c2.887,5.684.165,10.931-6.121,11.465-5.3.45-9.336,2.832-13.112,6.408-1.56,1.476-4.324,2.726-6.321,2.457-3.254-.438-4.675,1.118-6.262,3.162,9.058,8.619,24.285,7.608,32.713-2.07,7.765-8.916,7.657-23.947-.321-30.449Zm-27.651,23.461c-4.38-5.032-4.274-10.332-1.635-15.8,4.08-8.447,15.637-13.161,24.5-10.158a4.477,4.477,0,0,0,3.164-.063,26.514,26.514,0,0,0,3.958-3.046c-7.9-8.8-23.227-8.463-31.85.069-8.9,8.81-9.462,24.2-.94,31.957Zm22.546-22.835c-5.749-2.44-10.844-1.117-15.643,2.036s-7.935,7.363-7.252,13.411c.2,1.76,1.307,3.417,2.229,5.69,2.126-2.189,3.505-3.76,5.044-5.153s3.225-2.6,4.7-3.762c-2.767-3.932-3.077-6-1.68-7.95a6.366,6.366,0,0,1,7.5-2.048C413.927-1158.87,415.092-1160.1,416.391-1162.164Zm-17.361,21.42.7,1.026c1.315-.65,2.977-.989,3.884-2a22.257,22.257,0,0,1,15.486-7.441c3.148-.264,4.737-2.4,3.8-5.4-.661-2.123-2.15-3.99-3.689-6.714-1.467,2.234-3.158,3.62-3.07,4.882.36,5.136-.913,6.82-6.216,7.111a4.385,4.385,0,0,0-2.5.591C404.554-1146.123,401.816-1143.407,399.03-1140.744Zm11.839-16.118-.172-.878c-1.467.455-3.1.663-4.316,1.49-.459.313.058,2.056.13,3.148l.98.2Z" transform="translate(490.105 6818.673)"/>
    <path id="Trazado_170569" data-name="Trazado 170569" d="M434.347-1038.6c.231,14.271-11.275,26.366-25.273,26.566-14.546.209-26.762-11.191-27-25.2-.259-15.07,11.075-27.067,25.776-27.28A26.026,26.026,0,0,1,434.347-1038.6ZM423.4-1055.851a23.071,23.071,0,0,0-31.572,1.023c-8.781,9-9.278,23.006-1.1,31.64a3.373,3.373,0,0,0,.747-.434c6.721-6.687,13.481-13.338,20.075-20.148.716-.739.826-2.487.6-3.644-.837-4.218,2.255-7.752,6.315-6.474C420.951-1053.1,422.139-1053.839,423.4-1055.851Zm-30.082,35.076c7.675,8.194,22.8,7.684,31.615-1.2,8.488-8.554,8.854-23.742.753-31.334-2.742,1.46-3.852,3.453-2.234,6.457a11.439,11.439,0,0,1,1,2.805,4.883,4.883,0,0,1-2.833,5.949,4.881,4.881,0,0,1-6.209-1.355,19.568,19.568,0,0,1-1.413-2.086Zm26.724-27.079c-1.219,1.109-2.542,1.76-2.838,2.727a5.285,5.285,0,0,0,.494,3.735,2.811,2.811,0,0,0,2.733.5,4.008,4.008,0,0,0,1.015-3C421.357-1045.109,420.639-1046.272,420.043-1047.854Z" transform="translate(490.101 6773.242)"/>
    <path id="Trazado_170570" data-name="Trazado 170570" d="M287.845-1211.214q0,20.813-.007,41.625c-.01,6.6-4.434,11.3-10.571,11.309-6.116.005-10.663-4.684-10.674-11.239q-.07-41.625-.035-83.251c0-5.935,2.733-9.874,7.532-11.271a10.267,10.267,0,0,1,11.84,4.17,13.171,13.171,0,0,1,1.835,6.433C287.923-1239.365,287.846-1225.289,287.845-1211.214Zm-2.836-.156h.01c0-13.975.026-27.949-.014-41.924-.014-4.938-3.363-8.447-7.83-8.408a7.842,7.842,0,0,0-7.784,8.165q-.077,42.224-.01,84.447a7.417,7.417,0,0,0,4.815,7.272c5.4,2.281,10.769-1.481,10.795-7.628C285.048-1183.42,285.008-1197.4,285.008-1211.37Z" transform="translate(536.405 6853.403)" fill="#b42218"/>
    <path id="Trazado_170571" data-name="Trazado 170571" d="M278.649-964.955a8.355,8.355,0,0,1-8.5-8.464,8.582,8.582,0,0,1,8.692-8.4,8.607,8.607,0,0,1,8.359,8.723A8.315,8.315,0,0,1,278.649-964.955Z" transform="translate(534.961 6740.092)"/>
    <path id="Trazado_170572" data-name="Trazado 170572" d="M405.206-1048.129c3.72-.061,6.233,2.683,5.511,6.032a46.643,46.643,0,0,1-2.325,7.382,5.094,5.094,0,0,1-6.693,2.827,5.109,5.109,0,0,1-3.019-6.327c.608-2.2,1.263-4.4,2.05-6.538S403.051-1048.194,405.206-1048.129Zm2.916,4.932c-.518-.59-1.073-1.782-1.85-1.95a2.973,2.973,0,0,0-2.626,1.1,28.462,28.462,0,0,0-2.157,6.793,3.233,3.233,0,0,0,1.688,2.563,2.884,2.884,0,0,0,2.56-1.219A68.729,68.729,0,0,0,408.122-1043.2Z" transform="translate(483.529 6766.673)"/>
    <path id="Trazado_170573" data-name="Trazado 170573" d="M427.347-1000.722c-3.184-.05-5.252-1.877-5.549-4.493-.335-2.947,1.057-5.222,3.881-5.83a51.645,51.645,0,0,1,7.376-1.014,4.874,4.874,0,0,1,5.469,4.338,4.97,4.97,0,0,1-3.717,5.689C432.22-1001.367,429.532-1001.092,427.347-1000.722Zm-.857-2.79a56.707,56.707,0,0,0,7.363-1.347,3.089,3.089,0,0,0,1.636-2.562,3.194,3.194,0,0,0-2.467-1.884,24,24,0,0,0-6.685,1.159,3.219,3.219,0,0,0-1.7,2.591C424.713-1004.721,426.01-1004,426.49-1003.512Z" transform="translate(474.195 6752.222)"/>
    <path id="Trazado_170574" data-name="Trazado 170574" d="M284.908-1205.564q0,20.357,0,40.713a7.73,7.73,0,0,1-.09,2.375,2.031,2.031,0,0,1-1.361,1.241c-.452.022-1.149-.662-1.364-1.188a5.768,5.768,0,0,1-.092-2.071q0-41.013,0-82.026a8.034,8.034,0,0,1,.152-2.368,1.688,1.688,0,0,1,1.246-.973,1.683,1.683,0,0,1,1.307.92,9.66,9.66,0,0,1,.2,2.664Q284.915-1225.921,284.908-1205.564Z" transform="translate(530.23 6847.532)"/>
  </g>
</svg>
