<svg xmlns="http://www.w3.org/2000/svg" width="139.594" height="171.833" viewBox="0 0 139.594 171.833">
  <g id="Grupo_134294" data-name="Grupo 134294" transform="translate(-1238.048 -6380.747)">
    <path id="Trazado_170582" data-name="Trazado 170582" d="M-2831.237-86.779a40.3,40.3,0,0,1-5.888-2.075c-6.178-3.282-9.792-8.447-9.852-15.524-.146-17.282-.054-34.565-.134-51.848a8.315,8.315,0,0,0-1-3.751c-1.847-3.426-3.883-6.751-5.847-10.115a4.569,4.569,0,0,1,1.5-6.535,4.395,4.395,0,0,1,6.451,1.618c2.653,4.694,5.174,9.463,7.683,14.237a5.426,5.426,0,0,1,.4,2.257c.059,1.556.018,3.117.018,4.871.641.03,1.23.08,1.819.081,5.2,0,10.407.106,15.6-.051a5.072,5.072,0,0,1,5.012,4.754,4.837,4.837,0,0,1-5.022,4.693c-5.146.013-10.292,0-15.437,0h-1.911v5.508c1.948,0,3.83-.036,5.71.008,2.71.064,4.61,1.325,5.216,3.383a4.809,4.809,0,0,1-4.677,6.185c-2.063.063-4.129.012-6.348.012v9.094h65.77v-1.985c0-12.193-.014-24.387.028-36.58a6.522,6.522,0,0,1,.65-2.86q3.463-6.742,7.11-13.389c1.544-2.814,4.073-3.482,6.755-2.079a5.363,5.363,0,0,1,1.876,7.12c-1.894,3.208-3.8,6.408-5.595,9.674a6.488,6.488,0,0,0-.771,2.98c-.046,17.06-.022,34.119-.038,51.179-.008,8.632-4.757,15.458-12.618,18.174-1.125.389-2.295.65-3.444.97Zm58.767-23.375h-65.488c0,1.961-.083,3.8.018,5.636a8.525,8.525,0,0,0,8.083,7.666q24.653.038,49.3-.013a7.971,7.971,0,0,0,6.993-4.174C-2771.826-103.872-2772.718-107.007-2772.471-110.154Z" transform="translate(4092.776 6639.359)" fill="#1d272b"/>
    <path id="Trazado_170583" data-name="Trazado 170583" d="M-2689.739-419.015c2.109,1.157,3.65,2.646,3.4,5.343-.031.328.469.811.834,1.055q26.608,17.713,53.239,35.395c6.22,4.136,9.5,9.918,9.284,17.428-.2,6.919-3.559,12.214-9.3,15.879-7.61,4.86-15.23,4.05-22.543-.73-14.44-9.438-28.814-18.977-43.213-28.477-3.066-2.023-6.1-4.094-9.206-6.057a2.478,2.478,0,0,0-1.9-.189,5.447,5.447,0,0,1-5.722-1.178,4.732,4.732,0,0,1-.341-5.741c4.347-6.664,8.769-13.279,13.161-19.913,2.145-3.24,4.194-6.548,6.475-9.689a21.627,21.627,0,0,1,3.482-3.125Zm7.371,44.786c.443.3.614.417.787.532q16.261,10.782,32.527,21.556a10.634,10.634,0,0,0,8.751,1.733,9.571,9.571,0,0,0,7.464-7.486c.888-4.1-.024-8-3.414-10.538-5.384-4.023-11.092-7.614-16.7-11.331a2.558,2.558,0,0,0-1.713-.1C-2663.8-378.028-2672.926-376.157-2682.368-374.229Zm-20.5-13.3c2.87,1.9,5.578,3.749,8.354,5.489a3.236,3.236,0,0,0,2.119.438c4.631-.885,9.241-1.881,13.859-2.832,4.52-.931,9.042-1.85,13.948-2.853l-26.865-17.593Z" transform="translate(4000.616 6799.762)" fill="#1d272b"/>
    <path id="Trazado_170584" data-name="Trazado 170584" d="M-2720.6-216.577a15.457,15.457,0,0,1-12.492,15.252,14.671,14.671,0,0,1-14.192-4.377c-4.052-4.329-5.772-9.5-3.75-15.381,2.364-6.878,6.468-12.78,10.9-18.434,2.343-2.991,5.726-2.887,7.923.063,3.756,5.043,7.416,10.175,9.881,16.006.914,2.163,1.439,4.491,2.142,6.743Zm-15.229-11.965-.7.068c-1.837,3.537-3.732,7.045-5.462,10.633a4.3,4.3,0,0,0-.129,2.711,6.036,6.036,0,0,0,7.293,4.49c3.177-.714,5.767-4.219,4.447-7.153C-2732.037-221.452-2734.005-224.966-2735.834-228.542Z" transform="translate(4024.452 6681.965)" fill="#b42218"/>
  </g>
</svg>
