<svg xmlns="http://www.w3.org/2000/svg" xmlns:xlink="http://www.w3.org/1999/xlink" width="321.031" height="353.009" viewBox="0 0 321.031 353.009">
  <defs>
    <linearGradient id="linear-gradient" x1="0.5" x2="0.5" y2="1" gradientUnits="objectBoundingBox">
      <stop offset="0" stop-color="#f5f5f5"/>
      <stop offset="0.25" stop-color="#f5f5f5"/>
      <stop offset="1" stop-color="#eeeef2"/>
    </linearGradient>
    <linearGradient id="linear-gradient-2" x1="0.5" x2="0.5" y2="1" gradientUnits="objectBoundingBox">
      <stop offset="0" stop-color="#fff"/>
      <stop offset="1" stop-color="#f8f8f8"/>
    </linearGradient>
    <linearGradient id="linear-gradient-7" x1="0.5" x2="0.5" y2="1" gradientUnits="objectBoundingBox">
      <stop offset="0" stop-color="#f5f5f5"/>
      <stop offset="0.25" stop-color="#f5f5f5"/>
      <stop offset="1" stop-color="#a7b3cf"/>
    </linearGradient>
    <clipPath id="clip-path">
      <rect id="Rectángulo_35309" data-name="Rectángulo 35309" width="11.108" height="4.279" fill="none"/>
    </clipPath>
  </defs>
  <g id="Grupo_134305" data-name="Grupo 134305" transform="translate(-1025.847 -11299.344)">
    <g id="Grupo_133237" data-name="Grupo 133237">
      <path id="Trazado_164055" data-name="Trazado 164055" d="M299.395,426.353c9.523-21.37,12.233-49.1,7.19-73.6-3.188-15.484-9.306-29.868-10.089-46.015-1.565-32.283,18.157-58.381,22.249-90.176,1.8-13.973-.164-30.252-7.872-38.74-7.614-8.383-18.48-6.672-27.1-.8S267.86,192.3,259.584,199.167s-18.466,11.118-27.205,5.65c-8.852-5.539-13.874-19.5-16.686-33.109s-4.193-28.1-8.993-40.43c-7.911-20.318-24.78-31.4-40.5-28.53s-29.764,18.57-37.3,39.2-8.85,45.584-5.1,68.371c1.9,11.557,5.036,22.624,6.745,34.248s1.865,24.345-1.95,34.815c-7.978,21.893-29.023,24.946-40.044,43.721-9.1,15.5-9.381,39.143-4.219,58.2s14.863,34.518,24.536,49.228c45.116,2.246,91.04,2.395,136.156,4.64C262.56,436.045,281.881,427.88,299.395,426.353Z" transform="translate(1013.107 11199.116)" fill="#a4a4b4" opacity="0.354" style="mix-blend-mode: multiply;isolation: isolate"/>
      <path id="Trazado_164056" data-name="Trazado 164056" d="M359.21,166.043c-.111,11.916,11.216,22.286,9.244,34.038-1.054,6.288-5.845,12.662-3.061,18.4,2.463,5.075,9.519,5.955,14.914,4.3,12.628-3.863,20.3-16.771,23.974-29.456,3.453-11.932,4.31-25.26-1.22-36.383-4.456-8.962-14.736-16.873-25.175-16.142C368.325,141.473,359.293,157.068,359.21,166.043Z" transform="translate(939.792 11221.051)" fill="#a4a4b4" opacity="0.31" style="mix-blend-mode: multiply;isolation: isolate"/>
      <path id="Trazado_164057" data-name="Trazado 164057" d="M112.718,133.6a45.121,45.121,0,0,0-.9,43.906c2.316,4.25,5.445,8.211,9.668,10.574s9.673,2.89,13.877.492c6.376-3.637,7.786-12.216,7.279-19.539s-2.167-15,.653-21.777c1.839-4.417,5.368-7.862,8.5-11.479s6.054-7.84,6.216-12.622c.419-12.4-12.742-11.47-20.673-8.9A45.077,45.077,0,0,0,112.718,133.6Z" transform="translate(1012.162 11193.465)" fill="#a4a4b4" opacity="0.31" style="mix-blend-mode: multiply;isolation: isolate"/>
      <g id="Grupo_127879" data-name="Grupo 127879" transform="translate(1097.225 11299.344)" style="mix-blend-mode: multiply;isolation: isolate">
        <path id="Trazado_151849" data-name="Trazado 151849" d="M301.577,430.823l-.982-1.311c2.7-4.318,7.014-14.215,5.554-32.011a195.279,195.279,0,0,0-3.818-23.314c-.7-3.381-1.415-6.877-2.043-10.348-6.7-37.039-3.769-77.9,8.04-112.1,1.049-3.035,2.184-6.081,3.282-9.025,3.255-8.73,6.62-17.759,8.067-27.511,2.538-17.114-2.479-29.941-8.214-34.616-5.5-4.488-13.27-3.8-21.309,1.883a101.527,101.527,0,0,0-8.563,7.08c-3.653,3.25-7.43,6.611-11.486,8.99-15.957,9.361-35.907,1.406-46.4-18.5-5.045-9.567-7.894-21.13-10.649-32.312-1.067-4.333-2.171-8.814-3.385-13.1-3.775-13.33-10.685-30.062-22.164-34.065-10.086-3.519-20.3,4.214-27.093,11.32-13,13.6-22.155,32.01-25.794,51.847-2.453,13.377-2.552,27.937-2.648,42.018-.142,20.969-.289,42.653-8.387,60.115-3.684,7.944-8.751,14.282-13.651,20.412-4.589,5.74-9.335,11.677-12.872,18.872-8.015,16.3-9.98,39.386-5.391,63.329,4.124,21.512,12.532,40.6,20.662,59.06l-1.117,1.051C103.028,410.005,94.566,390.792,90.387,369c-4.7-24.515-2.662-48.2,5.591-64.987,3.631-7.386,8.438-13.4,13.086-19.215,4.834-6.046,9.832-12.3,13.415-20.026,7.873-16.978,8.012-37.411,8.158-59.043.1-14.2.2-28.887,2.694-42.5,3.718-20.27,13.06-39.065,26.3-52.924,7.017-7.341,17.6-15.318,28.175-11.629,12.024,4.193,19.19,21.463,23.083,35.212,1.226,4.33,2.335,8.833,3.408,13.187,2.72,11.04,5.532,22.458,10.45,31.783,10.148,19.245,29.433,26.935,44.857,17.886,3.953-2.319,7.683-5.637,11.29-8.845a102.331,102.331,0,0,1,8.675-7.171c8.434-5.962,16.647-6.632,22.535-1.831,6.15,5.015,11.548,18.646,8.866,36.726-1.488,10.026-4.9,19.178-8.2,28.03-1.093,2.932-2.223,5.962-3.262,8.97-11.664,33.782-14.559,74.141-7.941,110.727.622,3.44,1.338,6.92,2.031,10.285a197.57,197.57,0,0,1,3.866,23.642C308.992,415.836,304.431,426.262,301.577,430.823Z" transform="translate(-87.906 -97.739)" fill="#a4a4b4"/>
      </g>
      <g id="Grupo_127880" data-name="Grupo 127880" transform="translate(1112.931 11334.589)">
        <g id="Grupo_121036" data-name="Grupo 121036" transform="translate(0 45.479)">
          <path id="Trazado_158690" data-name="Trazado 158690" d="M597.717,236.21C596.961,234.621,592,250.64,592,250.64l-.752-5.261-5.562-4.359s-2.706,3.307-3.307,5.562-6.614,29.162-5.411,33.371.6,13.378,6.614,16.986,12.326-7.065,15.182-10.372S600.723,242.523,597.717,236.21Z" transform="translate(-576.814 -236.099)" fill="url(#linear-gradient)"/>
          <path id="Trazado_158691" data-name="Trazado 158691" d="M589.226,248.917s-1.052,13.529.3,15.032-2.405,19.091-.9,20.143,4.059-8.418,3.006-11.575,2.556,3.006,2.556-.15,1.653-15.934-5.111-24.051" transform="translate(-574.495 -233.624)" fill="#868695"/>
        </g>
        <g id="Grupo_121037" data-name="Grupo 121037" transform="translate(3.962 44.693)">
          <path id="Trazado_158692" data-name="Trazado 158692" d="M593.83,253.124c-.433-.1-2.02.361-3.788.565a8.857,8.857,0,0,1-3.523-.156,9.735,9.735,0,0,1-6.41-5.219c1.539-1.611,5.724-12.867,5.724-12.867l4.618.938,2.02.409c-.168,1.034-.277,2.008-.349,2.934v.012a45.042,45.042,0,0,0,.084,6.963C592.339,248.77,594.973,253.352,593.83,253.124Z" transform="translate(-580.109 -235.446)" fill="#db8804"/>
          <path id="Trazado_158693" data-name="Trazado 158693" d="M591.344,236.635c-.168,1.034-.277,2.008-.349,2.934v.012a1.417,1.417,0,0,1-.229.132c-2.561,1.275-5.111-2.1-5.111-2.1l3.668-1.383Z" transform="translate(-578.985 -235.288)" fill="#f7b242"/>
          <path id="Trazado_158694" data-name="Trazado 158694" d="M592.694,251.657c-.433-.1-2.02.361-3.788.565a3.275,3.275,0,0,1-.421-3.271c-.9-1.443-2.766-5.881-2.766-5.881-.072-1.359,2.85,1.275,3.908,1.948a1.909,1.909,0,0,0,1.443.216C591.2,247.3,593.837,251.885,592.694,251.657Z" transform="translate(-578.973 -233.979)" fill="#f7b242"/>
        </g>
        <g id="Grupo_121038" data-name="Grupo 121038" transform="translate(2.104 23.775)">
          <path id="Trazado_158695" data-name="Trazado 158695" d="M597.541,229.276l-2.058,6.351c-2.046,6.36-2.965,5.66-6.372,6.833-3.184,1.1-5.836-4.5-6.293-7.1-.4-2.195-4.409-6.206-4.249-8.11.064-.768.6-.379,1.694,1.041a13.075,13.075,0,0,0,3.038,2.748c.945-2.144-4.314-7.7-2.957-9.844.664-1.038,3.735,7.61,5.163,7.724,0,0,.416-.747-.749-5.108-.665-2.5-1.373-5.078-.744-5.641,1.15-1.017,1.637,4.47,4.466,10.046,0,0-.239-2.816-.635-5.41-.373-2.368-.967-4.542.1-4.607.877-.056,1.355,3.653,1.751,6.006a26.668,26.668,0,0,0,3.128,8.943,9.386,9.386,0,0,0,.71,1.1C596.166,227.947,597.541,229.276,597.541,229.276Z" transform="translate(-578.564 -218.051)" fill="#db8804"/>
          <path id="Trazado_158696" data-name="Trazado 158696" d="M591.576,231.706s-2.691,1.193-3.22,3.378a3.633,3.633,0,0,1,2.511-4.476A9.383,9.383,0,0,0,591.576,231.706Z" transform="translate(-576.605 -215.508)" fill="#f7b242"/>
        </g>
        <g id="Grupo_121039" data-name="Grupo 121039" transform="translate(8.183 41.112)">
          <path id="Trazado_158697" data-name="Trazado 158697" d="M660.018,260.473a61.17,61.17,0,0,1-.9,7.756q-.613,3.572-1.443,7.107v.012a170.543,170.543,0,0,1-5.195,17.75,68.485,68.485,0,0,1-4.149,10.426c-.794,1.455-2.177,2.73-2.381,4.425-.349,2.838.806,2.946-1.19,5.4-1.3,1.6-.493,3.944.313,5.844.385.914.758,1.828,1.106,2.754,5.8,14.912,7.372,30.413,5.941,46.359-.7,7.745-1.684,15.465-2.61,23.185-.481,3.932-1.659,8.707-.866,12.663.866,4.365-1.058,46.262-6.855,69.135a59.3,59.3,0,0,1-2.814,8.695l-9.176-.265s-4-50.916-4.209-70.951c-.132-13.721-2.9-32.036-4.63-42.222-.806-4.7-1.383-7.684-1.383-7.684s2.213,31.459,2.213,38.482a73.045,73.045,0,0,1-2.008,15.032s4.413,48.5,3.006,70.145l-8.911.565-.505.036s-.18-.493-.493-1.419c-.854-2.465-2.73-8.021-4.931-15.3-.084-.265-.156-.529-.228-.77-.024-.072-.036-.132-.06-.2q-.541-1.786-1.046-3.572c-.481-1.624-.95-3.259-1.407-4.894q-.307-1.1-.613-2.237c-.228-.782-.433-1.563-.637-2.345-.409-1.563-.83-3.163-1.239-4.774-1.022-4.041-2.008-8.226-2.9-12.435-.349-1.684-.7-3.367-1.01-5.051-.168-.842-.313-1.684-.469-2.525-3.187-17.846-4.089-26.841-4.341-30.87a27.149,27.149,0,0,1-.072-2.8,173.338,173.338,0,0,1-10.222-50.1c-.673-15.248,2.79-26.24,5.989-32.95a36.594,36.594,0,0,1,4.834-7.937.131.131,0,0,1-.024-.048c-.156-.445-1.311-3.8-.373-4.365a7.585,7.585,0,0,0,.758-.517,10.558,10.558,0,0,0,1.046-.89s-.986-6.277-1.9-14.924c-1.7-15.934-3.151-39.889,2.309-47.261,4.041-5.472,11.809-4.558,14.214-4.149a23.946,23.946,0,0,1,4.69,2.3c5.375,3.067,13.156,8.117,13.156,8.117s10.787-1.96,16.86-1.3a11.646,11.646,0,0,1,1.78.3c5.411,1.407,10.222,4.209,12.627,13.433A17.414,17.414,0,0,1,660.018,260.473Z" transform="translate(-583.619 -232.468)" fill="url(#linear-gradient-2)"/>
          <path id="Trazado_158698" data-name="Trazado 158698" d="M639.935,241.465c-9.572,2.309-22.632,10.258-25.627,9.777-3.764-.6-6.013-6.169-2.862-3.92s13.829-1.347,13.829-1.347-10.679.746-13.084-3.463a20.6,20.6,0,0,1-2.273-7.865c5.375,3.067,13.156,8.117,13.156,8.117S633.862,240.8,639.935,241.465Z" transform="translate(-578.291 -232.027)" fill="url(#linear-gradient)"/>
          <path id="Trazado_158699" data-name="Trazado 158699" d="M601.019,301.25c.938.409-6.77.83-12.35-.577a36.59,36.59,0,0,1,4.834-7.937S599.66,300.649,601.019,301.25Z" transform="translate(-582.596 -220.26)" fill="#868695"/>
          <path id="Trazado_158700" data-name="Trazado 158700" d="M631.976,295.449c-.914.649-24.508,17.281-38.843-4.149a10.562,10.562,0,0,0,1.046-.89s-.986-6.277-1.9-14.924c1.792,5.616,5.4,13.6,12.976,18.88C616.4,302.147,631.278,295.749,631.976,295.449Z" transform="translate(-581.864 -223.754)" fill="#868695"/>
          <path id="Trazado_158701" data-name="Trazado 158701" d="M640.039,454.909a59.3,59.3,0,0,1-2.814,8.695l-9.176-.265s-4-50.916-4.209-70.951c-.132-13.721-2.9-32.036-4.63-42.222-.806-4.7-1.383-7.684-1.383-7.684s2.213,31.459,2.213,38.482A73.046,73.046,0,0,1,618.032,396s4.413,48.5,3.006,70.145l-8.911.565a10.683,10.683,0,0,1-1-1.383c-2.694-4.317-3.788-11.088-4.93-15.3-.084-.265-.156-.529-.229-.77-.024-.072-.036-.132-.06-.2q-.541-1.786-1.046-3.572c-.481-1.623-.95-3.259-1.407-4.894q-.307-1.1-.613-2.237c-.229-.782-.433-1.563-.637-2.345-.433-1.587-.842-3.175-1.239-4.774q-1.587-6.187-2.9-12.435c-.349-1.684-.7-3.367-1.01-5.051-.168-.842-.313-1.684-.469-2.525-3.187-17.846-4.089-26.841-4.341-30.87.95.974,1.756,1.84,2.333,2.513,3.307,3.908,2.1,11.725,8.418,13.829s8.719-11.424,8.719-15.333S601.2,365.427,603.3,363.623s6.915-11.725,6.915-11.725-12.326,6.013-14.731,1.8,7.215-2.1,9.32-2.1,9.019-2.405,5.412-3.908-11.424-1.5-12.627-3.307,6.614-5.712,9.32-4.51c.938.421-.4-.517-.565-.673-1.215-1.082-2.694-1.924-3.98-2.91a23.891,23.891,0,0,1-5.3-4.834c-.649-.938-2.477-4.93.469-3.872.734.253,1.323.854,2.08,1,.361.072.734.048,1.094.12,1.371.313,1.888,2.044,3.079,2.766a4.818,4.818,0,0,0,3.031.337,4.1,4.1,0,0,0-1.623-1.611c-1.852-1.263-3.7-2.513-5.544-3.776-.012-.012-3.728-2.994-1.587-3.187,2.393-.217,4.425,1.792,6.794,2.177,1.948.325,3.981-.481,5.917-.084a15.27,15.27,0,0,1,2.67,1.022c4.317,1.768,9.248,1.046,13.757-.168q-3.121,2.742-6.217,5.508c2.814-.457,6.614-2.273,9.308-2.032-.2,3.884-7.829,8.177-10.751,10.222,2.718.938,5.868,1.623,8.31,3.055a13.4,13.4,0,0,0-3.115,7.877c-.938,9.308-1.852,18.928,1,27.827a49.9,49.9,0,0,1,2.213,7.336c.4,2.694.012,5.46.505,8.141s2.261,5.46,4.967,5.808a2.443,2.443,0,0,1,1.178.289c1.046.746-.084,2.273-.842,3.307-1.576,2.117-1.275,5.123-.132,7.492s2.994,4.293,4.546,6.41a3.839,3.839,0,0,1,.89,1.912,4.758,4.758,0,0,1-1.034,2.706c-1.852,3.115-2.453,6.783-3.03,10.342a10.619,10.619,0,0,0-.108,4.173c.216.842.625,1.624.878,2.453.806,2.646-.1,5.532.445,8.25C636.768,450.063,638.788,452.324,640.039,454.909Z" transform="translate(-581.87 -214.087)" fill="url(#linear-gradient)"/>
          <path id="Trazado_158702" data-name="Trazado 158702" d="M651.852,256a61.175,61.175,0,0,1-.9,7.757q-.613,3.572-1.443,7.107v.012a170.513,170.513,0,0,1-5.2,17.75,68.466,68.466,0,0,1-4.149,10.426c-.794,1.455-2.177,2.73-2.381,4.425-.349,2.838.806,2.946-1.19,5.4-1.3,1.6-.493,3.944.313,5.844.385.914.758,1.828,1.106,2.754-.866,1.395-1.756,2.225-2.646,2.333-7.516.9-8.117-3.908-4.209-6.013s4.51-7.215,4.51-7.215-6.614,4.81-9.621,4.81-4.065-5.111,5.556-11.725c7.083-4.858,13.517-38.7,19.842-45.1C651.6,255.035,651.732,255.516,651.852,256Z" transform="translate(-575.453 -227.992)" fill="#868695"/>
        </g>
        <g id="Grupo_121040" data-name="Grupo 121040" transform="translate(31.717 276.408)">
          <path id="Trazado_158703" data-name="Trazado 158703" d="M622.91,452.768c-1.427-1.514-1.781-20.133-2.434-23.512,0,0-3.045-1.728-9.32-.9-5.712.752-7.967,3.307-7.967,3.307.761,2.046,6.5,17.15,5.888,20.106-.518,2.5-3.207,5.712-1.052,9.72h16.895A8.3,8.3,0,0,0,622.91,452.768Z" transform="translate(-603.189 -428.13)" fill="#db8804"/>
          <path id="Trazado_158704" data-name="Trazado 158704" d="M607.763,451.217s4.609-5.985,14.03-1.2c0,0,.4,4.209-4.009,3.407S610.77,455.826,607.763,451.217Z" transform="translate(-602.263 -424.073)" fill="#f7b242"/>
        </g>
        <g id="Grupo_121041" data-name="Grupo 121041" transform="translate(52.311 275.653)">
          <path id="Trazado_158705" data-name="Trazado 158705" d="M633.245,450.69c-1.171-1.536,2.606-18.524,2.852-20.706,0,0-1.955-1.643-6.614-2.255a20.043,20.043,0,0,0-9.17.6c.42,2.613,1.987,21.2,1.506,24.565-1,7,1.6,8.719,1.6,8.719h16.895C645.142,453.581,635.221,453.28,633.245,450.69Z" transform="translate(-620.314 -427.502)" fill="#db8804"/>
          <path id="Trazado_158706" data-name="Trazado 158706" d="M624.718,451.129s5.611-5.528,14.472-.253c0,0-.041,3.259-4.451,2.457S627.724,455.738,624.718,451.129Z" transform="translate(-619.422 -423.229)" fill="#f7b242"/>
        </g>
        <g id="Grupo_121047" data-name="Grupo 121047" transform="translate(34.031 0)">
          <path id="Trazado_158707" data-name="Trazado 158707" d="M624.1,209.482c8.646.1,17.638,9.22,18.038,15.032s-5.211,22.048-16.836,21.447-18.522-18.139-17.929-23.45S615.177,209.382,624.1,209.482Z" transform="translate(-604.664 -196.012)" fill="#a7c6ce"/>
          <path id="Trazado_158708" data-name="Trazado 158708" d="M632.7,221.042s3.512-4.082,4.317.316c.932,5.094-3.575,7.517-4.611,5.954S632.7,221.042,632.7,221.042Z" transform="translate(-599.664 -194.019)" fill="#ff8b66"/>
          <path id="Trazado_158709" data-name="Trazado 158709" d="M611.187,222.879s-4.089-3.5-4.219.966c-.152,5.177,4.671,6.891,5.458,5.188S611.187,222.879,611.187,222.879Z" transform="translate(-604.739 -193.563)" fill="#ff8b66"/>
          <path id="Trazado_158710" data-name="Trazado 158710" d="M625.688,243.066c8.431-.642,12.77-6.511,11.512-23.028-.648-8.52-5.382-13.416-14.825-12.7S609.352,213.589,610,222.109C611.352,239.858,616.978,243.73,625.688,243.066Z" transform="translate(-604.138 -196.46)" fill="#ff8b66"/>
          <path id="Trazado_158711" data-name="Trazado 158711" d="M612.685,224.564a2,2,0,1,0,2.095-1.366A1.79,1.79,0,0,0,612.685,224.564Z" transform="translate(-603.581 -193.236)" fill="#db614d"/>
          <path id="Trazado_158712" data-name="Trazado 158712" d="M627.135,223.929a2,2,0,1,0,1.715-1.822A1.791,1.791,0,0,0,627.135,223.929Z" transform="translate(-600.655 -193.459)" fill="#db614d"/>
          <g id="Grupo_121042" data-name="Grupo 121042" transform="translate(11.853 20.045)">
            <path id="Trazado_158713" data-name="Trazado 158713" d="M615.213,217.33a.421.421,0,0,0,.506-.115,4.842,4.842,0,0,1,3.154-1.419.423.423,0,0,0-.037-.845,5.655,5.655,0,0,0-3.771,1.73.422.422,0,0,0,.06.594A.427.427,0,0,0,615.213,217.33Z" transform="translate(-614.97 -214.95)" fill="#0c476b"/>
          </g>
          <g id="Grupo_121043" data-name="Grupo 121043" transform="translate(24.066 19.36)">
            <path id="Trazado_158714" data-name="Trazado 158714" d="M625.37,215.205a.42.42,0,0,0,.222.037,4.861,4.861,0,0,1,3.335.926.422.422,0,0,0,.565-.628,5.637,5.637,0,0,0-3.99-1.139.423.423,0,0,0-.132.8Z" transform="translate(-625.126 -214.38)" fill="#0c476b"/>
          </g>
          <path id="Trazado_158715" data-name="Trazado 158715" d="M616.238,220.968c.081,1.047.616,1.86,1.2,1.815s.989-.928.909-1.975-.616-1.86-1.2-1.816S616.158,219.921,616.238,220.968Z" transform="translate(-602.862 -194.086)" fill="#1a4850"/>
          <path id="Trazado_158716" data-name="Trazado 158716" d="M626.126,220.255c.079,1.047.616,1.86,1.2,1.816s.99-.93.909-1.976-.616-1.86-1.2-1.816S626.045,219.208,626.126,220.255Z" transform="translate(-600.859 -194.23)" fill="#1a4850"/>
          <path id="Trazado_158717" data-name="Trazado 158717" d="M626.708,228.444s-5.2,1.134-8-.07c0,0,1.824,3.772,4.666,3.2A4.213,4.213,0,0,0,626.708,228.444Z" transform="translate(-602.36 -192.185)" fill="#1a4850"/>
          <path id="Trazado_158718" data-name="Trazado 158718" d="M619.422,220.49s-.964-2.521-1.963-2.258-1.6,2.53-1.6,2.53l-1.557-.679,1.512.082s.6-2.363,1.605-2.444C618.845,217.605,619.422,220.49,619.422,220.49Z" transform="translate(-603.252 -194.344)" fill="#1a4850"/>
          <path id="Trazado_158719" data-name="Trazado 158719" d="M625.388,220.28s.571-2.637,1.6-2.529,1.963,2.258,1.963,2.258l1.437-.908-1.482.31s-.956-2.245-1.957-2.173C625.52,217.34,625.388,220.28,625.388,220.28Z" transform="translate(-601.006 -194.441)" fill="#1a4850"/>
          <g id="Grupo_121044" data-name="Grupo 121044" transform="translate(18.657 28.607)">
            <path id="Trazado_158720" data-name="Trazado 158720" d="M621.754,225.734a2.637,2.637,0,0,0,.613.2l.171-.9c-.762-.146-.961-.6-.993-.946a1.127,1.127,0,0,1,.49-1.088q.236-.09.523.285l.725-.553a1.31,1.31,0,0,0-1.58-.581,2,2,0,0,0-1.065,2.02A1.868,1.868,0,0,0,621.754,225.734Z" transform="translate(-620.628 -222.069)" fill="#db614d"/>
          </g>
          <path id="Trazado_158721" data-name="Trazado 158721" d="M612.193,220.446l-1.056,4.25s-3.154-.843-1.767-5.877S612.193,220.446,612.193,220.446Z" transform="translate(-604.322 -194.502)" fill="#0c476b"/>
          <path id="Trazado_158722" data-name="Trazado 158722" d="M624,208.993s-10.247,18.427-15.652,15.91c0,0-1.437-19.715,14.211-19.715S641.3,214,641.256,222.72c0,0-2.186,3.226-4.122,2.768C637.134,225.488,639.563,209.363,624,208.993Z" transform="translate(-604.466 -196.882)" fill="#0c476b"/>
          <path id="Trazado_158723" data-name="Trazado 158723" d="M615.548,228.277s-7.016-4.309-8.269-11.149" transform="translate(-604.675 -194.463)" fill="none" stroke="#ffd5a2" stroke-linecap="round" stroke-miterlimit="10" stroke-width="0.5"/>
          <path id="Trazado_158724" data-name="Trazado 158724" d="M629.9,229.138s7.315-6.714,7.815-16.26" transform="translate(-600.091 -195.324)" fill="none" stroke="#ffd5a2" stroke-linecap="round" stroke-miterlimit="10" stroke-width="0.5"/>
          <path id="Trazado_158725" data-name="Trazado 158725" d="M611.216,228.957c2.781,9.847,21.947,14.932,25.855-1.829" transform="translate(-603.877 -192.438)" fill="none" stroke="#ffd5a2" stroke-linecap="round" stroke-miterlimit="10" stroke-width="0.5"/>
          <path id="Trazado_158726" data-name="Trazado 158726" d="M623.677,221.152c5.2-.332,10.722,4.609,11.424,7.916s-3.408,11.225-10.122,11.725c-6.212.464-11.825-6.915-11.825-10.421S618.967,221.452,623.677,221.152Z" transform="translate(-603.484 -193.651)" fill="#fff"/>
          <path id="Trazado_158727" data-name="Trazado 158727" d="M620.363,222.512a3.578,3.578,0,0,1,3.858-.15" transform="translate(-602.024 -193.508)" fill="none" stroke="#ffd5a2" stroke-linecap="round" stroke-linejoin="round" stroke-width="0.5"/>
          <path id="Trazado_158728" data-name="Trazado 158728" d="M612.331,222.246a2.513,2.513,0,0,0,.361.168.037.037,0,0,1-.024.012S612.536,222.354,612.331,222.246Z" transform="translate(-603.651 -193.426)" fill="#4ba6c6"/>
          <g id="Grupo_121045" data-name="Grupo 121045" transform="translate(2.475 20.79)">
            <path id="Trazado_158729" data-name="Trazado 158729" d="M632.155,217.826l.2,3.959a14.929,14.929,0,0,0,4.209-1.7c.469-.308,1.4-2.806,1.153-3.307A12.425,12.425,0,0,1,632.155,217.826Z" transform="translate(-602.111 -215.325)" fill="#23687a"/>
            <path id="Trazado_158730" data-name="Trazado 158730" d="M611.461,218.208a27.106,27.106,0,0,1-4.158-.6,8.072,8.072,0,0,0,.1,3.258c.451.951,3.959,1.453,3.959,1.453Z" transform="translate(-607.172 -215.156)" fill="#23687a"/>
            <path id="Trazado_158731" data-name="Trazado 158731" d="M636.14,222.379c-.036.9-2.742,2.369-3.812,2.453s-4.606-3.283-8.286-3.355-6.686,3.307-7.552,3.608a1.982,1.982,0,0,1-.926-.06,12.728,12.728,0,0,1-4.293-1.972c-.421-.553-.277-5.616.337-5.712a100.875,100.875,0,0,1,10.9-1.01l1.022-.036c1.263-.036,2.453-.048,3.572-.048a62.71,62.71,0,0,1,8.6.457C636.6,216.932,636.176,221.477,636.14,222.379Z" transform="translate(-606.39 -215.432)" fill="#008f85" opacity="0.25"/>
            <path id="Trazado_158732" data-name="Trazado 158732" d="M622.5,216.316l-6.939,8.695a12.728,12.728,0,0,1-4.293-1.972c-.421-.553-.277-5.616.337-5.712A100.875,100.875,0,0,1,622.5,216.316Z" transform="translate(-606.39 -215.418)" fill="#fff" opacity="0.25"/>
            <path id="Trazado_158733" data-name="Trazado 158733" d="M625.594,216.246l-7.143,5.291s2.008-2.754,3.572-5.243C623.285,216.258,624.476,216.246,625.594,216.246Z" transform="translate(-604.887 -215.432)" fill="#fff" opacity="0.25"/>
            <path id="Trazado_158734" data-name="Trazado 158734" d="M636.481,216.672c-.806-1.2-5.255-1.154-12.026-1.058-6.013.1-12.627,1.058-13.529,1.756-.818.637-.722,4.245-.337,5.808.012,0,.012,0,0,.012a3.781,3.781,0,0,0,.132.4c.505,1.2,5.111,2.8,6.217,2.706s3.511-3.776,7.312-4.017c4.065-.241,6.47,2.91,7.576,3.415s4.149-1.106,4.906-2.309c.036-.06.072-.132.108-.2v-.012C637.455,221.735,637.238,217.814,636.481,216.672Zm-24.652,1.443c.445-.493,3.656-1,11.977-1.347s11.521.2,11.869.553c.313.3.4,3.548.2,4.606a.79.79,0,0,1-.1.3c-.3.409-2.862,2.213-3.463,2.008s-3.86-3.163-8.021-3.055-7.107,3.451-7.708,3.7c-.4.168-2.225-.505-3.487-1.118a2.517,2.517,0,0,1-.361-.168.012.012,0,0,0-.012-.012,2.709,2.709,0,0,1-.854-.553C611.624,222.576,611.407,218.584,611.828,218.115Z" transform="translate(-606.538 -215.569)" fill="#1d272b"/>
            <path id="Trazado_158735" data-name="Trazado 158735" d="M636.05,221.312a1.864,1.864,0,0,1-.3.505c.192-1.058.108-4.305-.2-4.606-.349-.349-3.56-.9-11.869-.553s-11.533.854-11.978,1.347c-.421.469-.2,4.461.048,4.918a2.317,2.317,0,0,1-.553-.505c-.349-.505-.3-3.656-.048-4.51.2-.685,4.209-1.551,12.483-1.756s11.725.361,12.122.758S636.351,220.47,636.05,221.312Z" transform="translate(-606.408 -215.459)" fill="#4ba6c6"/>
            <path id="Trazado_158736" data-name="Trazado 158736" d="M636.793,222.107c-.036.072-.072.144-.108.2-.758,1.2-3.812,2.8-4.906,2.309s-3.511-3.656-7.576-3.415c-3.8.241-6.205,3.908-7.312,4.017s-5.712-1.5-6.217-2.706a3.781,3.781,0,0,1-.132-.4,3.356,3.356,0,0,0,1.239,1.191c1.154.553,4.51,1.708,5.015,1.455s3.848-4,7.768-3.908c3.9.108,6.807,3.163,7.456,3.4C632.548,224.464,635.4,223.237,636.793,222.107Z" transform="translate(-606.489 -214.498)" fill="#4ba6c6"/>
          </g>
          <path id="Trazado_158737" data-name="Trazado 158737" d="M644.276,213.511c-1.5-1.96-1.058-4.365-3.307-7.215s-10.234-8.562-17.738-7.973c-7.672.6-5.556,3.764-9.765,5.255-4.209,1.515-7.071,10.077-6.47,11.28s-2.1,2.549-1.8,10.823a16.217,16.217,0,0,0,1.215,5.868,9.165,9.165,0,0,0,3.86,4.63.147.147,0,0,1,.036.024c-.156,1.046,2.56,4.508,2.561,4.51a7.177,7.177,0,0,0-1.775,1.66c-.256,1.181,1.408,2.2,2.154,3.015a36.688,36.688,0,0,1,2.42,3.486,5.466,5.466,0,0,0,3.348,2.432,8.422,8.422,0,0,0,3.356-.491c3.6-.919,7.342-.74,11.021-.932,1.2-.064,4.9.124,5.774-.789,1.01-1.057-.875-2.278-1.8-2.969.9,0,1.2-5.868,2.561-6.614s4.209-7.36,4.81-9.765,0-5.267.89-6.614C646.537,221.773,645.78,215.46,644.276,213.511Zm-17.63,31.375a12.983,12.983,0,0,1-2.261.036,11.189,11.189,0,0,1-2.225-.409c-9.007-2.525-13.445-15.345-12.014-20.937,1.66-6.458,8.418-6.458,14.743-6.915,6.6-.469,12.314,1.058,14.575,6.157C641.727,227.942,638.636,243.648,626.647,244.886Z" transform="translate(-605.102 -198.281)" fill="url(#linear-gradient-2)"/>
          <path id="Trazado_158738" data-name="Trazado 158738" d="M639.322,219.109c-2.91-8.117-7.219-5.513-15.633-6.109-13.859-.984-16.039,6.8-15.137,12.923s6.418,12.331,6.418,12.331l-2.51-2.109s6.509,9.643,10.519,9.517a16.307,16.307,0,0,0,14.735-9.617l-2.409,2.4S642.22,227.227,639.322,219.109ZM626,241.922c-11.977,1.239-18.147-14.852-16.5-21.309s8.418-6.458,14.743-6.915c6.6-.469,12.314,1.058,14.575,6.157C641.078,224.978,637.987,240.683,626,241.922Z" transform="translate(-604.453 -195.316)" fill="#868695"/>
          <path id="Trazado_158739" data-name="Trazado 158739" d="M612.606,213.493s3.106-1.9,4.81-1.9,5.611.1,7.616-.1,5.111-.5,7.116.3,3.307,1.3,3.307,1.3-5.212-3.408-9.019-3.107-5.612.3-7.215.3S613.809,211.389,612.606,213.493Z" transform="translate(-603.596 -195.914)" fill="#1d272b"/>
          <path id="Trazado_158740" data-name="Trazado 158740" d="M636.39,218.732a19.592,19.592,0,0,1-.7,8.418A7.206,7.206,0,0,0,636.39,218.732Z" transform="translate(-598.92 -194.138)" fill="#1d272b"/>
          <path id="Trazado_158741" data-name="Trazado 158741" d="M610.068,231.479a9.165,9.165,0,0,1-3.86-4.63,10.109,10.109,0,0,1,.89-5.363s0,4,1.5,6.109A7.567,7.567,0,0,1,610.068,231.479Z" transform="translate(-604.902 -193.58)" fill="#1d272b"/>
          <g id="Grupo_121046" data-name="Grupo 121046" transform="translate(0 46.233)">
            <path id="Trazado_158742" data-name="Trazado 158742" d="M623.784,239.468a.512.512,0,0,0-.1.553,1.108,1.108,0,0,0,.373.445,2.826,2.826,0,0,1-1.323.529c-.613.168-.577.024-1.034.6-.6.746-1.167,1.515-1.744,2.273-.9,1.191-1.792,2.393-2.658,3.6-.277.361-.529.734-.794,1.094-5.844,8.25-10.979,17.774-10.1,28.212,1.371,8.947,1.179,18.051.986,26.865-.144,6.566-.3,13.372.216,20.035.746,2.946.132,6.386-.469,9.717a35.973,35.973,0,0,0-.734,5.965,17.167,17.167,0,0,0,2.309,7.6l-1.01.637a18.307,18.307,0,0,1-2.5-8.238,36.679,36.679,0,0,1,.758-6.181c.565-3.2,1.166-6.506.457-9.308-.529-6.831-.373-13.661-.228-20.263.193-8.755.385-17.81-.974-26.685-.878-10.426,3.98-19.975,9.777-28.3.493-.709,1-1.419,1.515-2.116.685-.95,1.383-1.876,2.08-2.8.6-.806,1.179-1.611,1.816-2.393.6-.734,1.263-.77,2.1-1.191a.364.364,0,0,0,.216-.2c.036-.168-.18-.277-.313-.385a.684.684,0,0,1,.024-1.046c.18-.108.445-.216.409-.421a.387.387,0,0,0-.144-.216,1.735,1.735,0,0,1-.529-1.118,11.186,11.186,0,0,0,2.225.409c.036.385.024.806.084,1.215.036.313.06.685-.192.878C624.133,239.336,623.928,239.348,623.784,239.468Z" transform="translate(-605.113 -236.726)" fill="#1d272b"/>
          </g>
        </g>
        <g id="Grupo_121048" data-name="Grupo 121048" transform="translate(22.179 59.852)">
          <path id="Trazado_158743" data-name="Trazado 158743" d="M657.564,257.834c-.144,9.476-13.072,48.1-25.254,49.906-4.449.661-9.68-2.441-14.611-6.758-.012-.012-.024-.024-.036-.024-8.55-7.5-16.174-18.652-17.221-20.275-1.648-2.549-5.965-9.164-5.063-13.372s4.016-4.353,4.016-4.353,1.287,1.046,2.189,1.647,7.732,7.372,9.38,8.262c1.66.914,12.783,8.875,12.783,8.875s1.5-4.51,3.307-4.353a3.1,3.1,0,0,0,3.307-1.96,107.534,107.534,0,0,1,5.508-12.17C640.356,255,647.306,246,655.688,248.466c.036,0,.445.024.89.878v.012C657.071,250.33,657.648,252.639,657.564,257.834Z" transform="translate(-595.257 -248.051)" fill="url(#linear-gradient)"/>
          <path id="Trazado_158744" data-name="Trazado 158744" d="M631.263,276.173c-1.347-.144-5.868-1.2-7.215-1.2s-3.463,2.405-3.608,3.608,5.267,4.353,7.215,7.215-1.058,5.412-2.862,1.8a55.733,55.733,0,0,0-5.844-8.418s1.5-4.51,3.307-4.353a3.1,3.1,0,0,0,3.307-1.96,107.531,107.531,0,0,1,5.508-12.17C628.774,267.3,632.6,276.317,631.263,276.173Z" transform="translate(-590.458 -245.49)" fill="#868695"/>
          <path id="Trazado_158745" data-name="Trazado 158745" d="M653.784,257.614c-.144,9.476-13.072,48.1-25.254,49.906-4.449.661-9.68-2.441-14.611-6.758,2.345,1.335,8.2,4.522,11.749,5.111,4.51.758,9.765-3.307,10.077-6.013.289-2.706-1.058-6.313.6-6.313s5.1-.9,5.1-2.862c0-1.912,14.611-29.571,11.352-41.548C653.291,250.11,653.868,252.419,653.784,257.614Z" transform="translate(-591.477 -247.832)" fill="#1d272b"/>
        </g>
        <g id="Grupo_121049" data-name="Grupo 121049" transform="translate(12.54 56.088)">
          <path id="Trazado_158746" data-name="Trazado 158746" d="M590.418,246.467c.049-.51.948-.91.948-.91a4.813,4.813,0,0,0,1.342,2.266,11.078,11.078,0,0,1,2.964,3.754c.879,1.708,1.877,7.456,1.877,7.456s-5.283-5.528-5.438-6.53S590.418,246.467,590.418,246.467Z" transform="translate(-586.599 -244.793)" fill="#f7b242"/>
          <path id="Trazado_158747" data-name="Trazado 158747" d="M608.524,269.447s-1.4,8.818-7.917,10.823c0,0-5.776-13.264-6.006-14.408-.049-.321-.1-.533-.1-.533-6.121-3.748-5.725-7.11-5.725-7.11s-2.007-.91-.4-3.21a2.742,2.742,0,0,1-.792-1.67c-.031-.444,1.409-1.625,1.409-1.625s-.8-1.427-.376-1.7a3.855,3.855,0,0,1,2.5-.38,12.862,12.862,0,0,0-2.1-2.225c-1.923-1.038-2.749-3.18.014-2.268,1.381.441,5.194,4.179,6.318,5.961,1.151,1.767,3.142,8.548,3.735,9.679S608.524,269.447,608.524,269.447Z" transform="translate(-587.242 -244.922)" fill="#db8804"/>
          <path id="Trazado_158748" data-name="Trazado 158748" d="M588.687,250.582a3.043,3.043,0,0,1,2.049.361C591.791,251.543,588.687,250.582,588.687,250.582Z" transform="translate(-586.949 -243.785)" fill="#4ba6c6"/>
          <path id="Trazado_158749" data-name="Trazado 158749" d="M588.179,253.311s1.514-.065,1.8.337S589.225,253.785,588.179,253.311Z" transform="translate(-587.052 -243.223)" fill="#4ba6c6"/>
          <path id="Trazado_158750" data-name="Trazado 158750" d="M595.134,263.7c-.1.075-.387.054-.789-.079-.049-.321-.1-.533-.1-.533-6.121-3.748-5.725-7.11-5.725-7.11l.77.2a41.608,41.608,0,0,0,2.838,4.44c1.016,1.2,2.025,2.3,3.249,1.875S595.681,263.243,595.134,263.7Z" transform="translate(-586.985 -242.682)" fill="#f7b242"/>
        </g>
      </g>
      <g id="Grupo_133234" data-name="Grupo 133234" transform="translate(-24.428 -40.757)">
        <g id="Grupo_127829" data-name="Grupo 127829" transform="translate(1050.275 11570.098)">
          <path id="Trazado_164035" data-name="Trazado 164035" d="M364.926,477.164c-5.421,0-8.169-3.234-8.169-9.611V427.991h1.282v39.562c0,5.683,2.189,8.329,6.887,8.329,5.43,0,6.247-1.194,6.247-9.129,0-.985-.022-2.08-.048-3.247-.138-6.749-.312-15.148,3.142-18.673a5.331,5.331,0,0,1,3.954-1.625h8.969v1.281h-8.969a4.043,4.043,0,0,0-3.04,1.241c-3.076,3.14-2.9,11.585-2.773,17.75.025,1.175.048,2.283.048,3.274C372.455,474.818,371.466,477.164,364.926,477.164Z" transform="translate(-296.64 -400.494)" fill="#51799e"/>
          <rect id="Rectángulo_35296" data-name="Rectángulo 35296" width="44.421" height="8.97" rx="2.332" transform="translate(1.548)" fill="#008f85"/>
          <rect id="Rectángulo_35297" data-name="Rectángulo 35297" width="224.247" height="8.97" rx="2.332" transform="translate(46.61)" fill="#008f85"/>
          <rect id="Rectángulo_35298" data-name="Rectángulo 35298" width="40.23" height="47.838" transform="translate(84.838 56.381)" fill="#acc1d1"/>
          <rect id="Rectángulo_35299" data-name="Rectángulo 35299" width="40.23" height="21.89" transform="translate(84.838 29.899)" fill="#707b82"/>
          <path id="Trazado_164036" data-name="Trazado 164036" d="M449.781,419.22h-94.5l27.229,18.58h40.363Z" transform="translate(-297.672 -406.62)" fill="#c7d0d8"/>
          <path id="Trazado_164037" data-name="Trazado 164037" d="M470.073,482.662,346.1,483.3l42.819-10.892h40.363Z" transform="translate(-304.082 -369.473)" fill="#c7d0d8"/>
          <path id="Trazado_164038" data-name="Trazado 164038" d="M367.423,427.549h70.233l12.063-8.329h-94.5Z" transform="translate(-297.715 -406.62)" opacity="0.25"/>
          <rect id="Rectángulo_35300" data-name="Rectángulo 35300" width="273.154" height="8.542" transform="translate(0 6.621)" fill="url(#linear-gradient-7)"/>
          <rect id="Rectángulo_35301" data-name="Rectángulo 35301" width="125.361" height="9.61" transform="translate(41.698 113.402)" fill="#f2f3f4"/>
          <rect id="Rectángulo_35302" data-name="Rectángulo 35302" width="48.906" height="5.98" rx="1.554" transform="translate(80.78 51.148)" fill="#f2f3f4"/>
          <g id="Grupo_127825" data-name="Grupo 127825" transform="translate(89.015 61.284)">
            <rect id="Rectángulo_35303" data-name="Rectángulo 35303" width="16.199" height="30.837" rx="0.667" transform="translate(0 16.199) rotate(-90)" fill="#fff"/>
            <g id="Grupo_127824" data-name="Grupo 127824" transform="translate(2.795 5.497)">
              <rect id="Rectángulo_35304" data-name="Rectángulo 35304" width="12.037" height="5.071" rx="0.263" fill="#7aa2cc"/>
              <rect id="Rectángulo_35305" data-name="Rectángulo 35305" width="11.108" height="4.279" transform="translate(0.4 0.381)" fill="#d93328"/>
              <g id="Grupo_127823" data-name="Grupo 127823" transform="translate(0.381 0.401)">
                <g id="Grupo_127822" data-name="Grupo 127822" clip-path="url(#clip-path)">
                  <rect id="Rectángulo_35306" data-name="Rectángulo 35306" width="1.72" height="10.044" transform="translate(10.044 -1.116) rotate(49.414)" fill="#fff" opacity="0.26"/>
                  <rect id="Rectángulo_35307" data-name="Rectángulo 35307" width="1.154" height="10.044" transform="translate(6.934 -1.117) rotate(49.415)" fill="#fff" opacity="0.26"/>
                  <rect id="Rectángulo_35308" data-name="Rectángulo 35308" width="1.013" height="8.815" transform="translate(11.118 1.159) rotate(49.412)" fill="#fff" opacity="0.26"/>
                </g>
              </g>
            </g>
            <rect id="Rectángulo_35310" data-name="Rectángulo 35310" width="11.949" height="12.551" rx="0.531" transform="translate(16.367 1.874)" fill="#7aa2cc"/>
            <rect id="Rectángulo_35311" data-name="Rectángulo 35311" width="2.611" height="1.205" rx="0.156" transform="translate(17.521 3.029)" fill="#b5d6ff"/>
            <rect id="Rectángulo_35312" data-name="Rectángulo 35312" width="2.611" height="1.205" rx="0.156" transform="translate(20.785 3.029)" fill="#b5d6ff"/>
            <rect id="Rectángulo_35313" data-name="Rectángulo 35313" width="2.611" height="1.205" rx="0.156" transform="translate(24.023 3.029)" fill="#b5d6ff"/>
            <rect id="Rectángulo_35314" data-name="Rectángulo 35314" width="2.611" height="1.205" rx="0.156" transform="translate(17.521 4.811)" fill="#b5d6ff"/>
            <rect id="Rectángulo_35315" data-name="Rectángulo 35315" width="2.611" height="1.205" rx="0.156" transform="translate(20.785 4.811)" fill="#b5d6ff"/>
            <rect id="Rectángulo_35316" data-name="Rectángulo 35316" width="2.611" height="1.205" rx="0.156" transform="translate(24.023 4.811)" fill="#b5d6ff"/>
            <rect id="Rectángulo_35317" data-name="Rectángulo 35317" width="2.611" height="1.205" rx="0.156" transform="translate(17.521 6.669)" fill="#b5d6ff"/>
            <rect id="Rectángulo_35318" data-name="Rectángulo 35318" width="2.611" height="1.205" rx="0.156" transform="translate(20.785 6.669)" fill="#b5d6ff"/>
            <rect id="Rectángulo_35319" data-name="Rectángulo 35319" width="2.611" height="1.205" rx="0.156" transform="translate(24.023 6.669)" fill="#b5d6ff"/>
            <rect id="Rectángulo_35320" data-name="Rectángulo 35320" width="2.611" height="1.205" rx="0.156" transform="translate(17.521 8.501)" fill="#b5d6ff"/>
            <rect id="Rectángulo_35321" data-name="Rectángulo 35321" width="2.611" height="1.205" rx="0.156" transform="translate(20.785 8.501)" fill="#b5d6ff"/>
            <rect id="Rectángulo_35322" data-name="Rectángulo 35322" width="2.611" height="1.205" rx="0.156" transform="translate(24.023 8.501)" fill="#b5d6ff"/>
            <rect id="Rectángulo_35323" data-name="Rectángulo 35323" width="6.125" height="2.36" transform="translate(19.027 11.112)" fill="#f2f2f2"/>
            <rect id="Rectángulo_35324" data-name="Rectángulo 35324" width="4.569" height="0.201" rx="0.05" transform="translate(19.705 11.589)" opacity="0.41"/>
            <rect id="Rectángulo_35325" data-name="Rectángulo 35325" width="4.569" height="0.201" rx="0.05" transform="translate(19.705 11.965)" opacity="0.41"/>
            <rect id="Rectángulo_35326" data-name="Rectángulo 35326" width="3.79" height="0.201" rx="0.05" transform="translate(19.705 12.342)" opacity="0.41"/>
            <rect id="Rectángulo_35327" data-name="Rectángulo 35327" width="1.807" height="0.201" rx="0.05" transform="translate(19.705 12.819)" opacity="0.41"/>
          </g>
          <g id="Grupo_127826" data-name="Grupo 127826" transform="translate(88.067 84.275)">
            <rect id="Rectángulo_35328" data-name="Rectángulo 35328" width="15.557" height="10.013" fill="#d7e9f4"/>
            <rect id="Rectángulo_35329" data-name="Rectángulo 35329" width="11.057" height="2.146" rx="0.558" transform="translate(2.086 0.685)" fill="#175a8b"/>
            <rect id="Rectángulo_35330" data-name="Rectángulo 35330" width="8.784" height="0.492" rx="0.128" transform="translate(3.196 1.475)" fill="#fff"/>
            <rect id="Rectángulo_35331" data-name="Rectángulo 35331" width="13.299" height="0.335" rx="0.087" transform="translate(1.028 4.001)" opacity="0.17"/>
            <rect id="Rectángulo_35332" data-name="Rectángulo 35332" width="13.299" height="0.335" rx="0.087" transform="translate(1.028 4.805)" opacity="0.17"/>
            <rect id="Rectángulo_35333" data-name="Rectángulo 35333" width="13.299" height="0.335" rx="0.087" transform="translate(1.028 5.677)" opacity="0.17"/>
            <rect id="Rectángulo_35334" data-name="Rectángulo 35334" width="13.299" height="0.335" rx="0.087" transform="translate(1.028 6.482)" opacity="0.17"/>
            <rect id="Rectángulo_35335" data-name="Rectángulo 35335" width="8.844" height="0.335" rx="0.087" transform="translate(3.517 7.376)" opacity="0.17"/>
          </g>
          <g id="Grupo_127828" data-name="Grupo 127828" transform="translate(54.536 15.744)">
            <g id="Grupo_127827" data-name="Grupo 127827">
              <rect id="Rectángulo_35336" data-name="Rectángulo 35336" width="11.949" height="12.551" rx="0.531" transform="translate(0.48 0.48)" fill="#7aa2cc"/>
              <path id="Trazado_164039" data-name="Trazado 164039" d="M365.219,434.583H354.631a1.162,1.162,0,0,1-1.16-1.162V422.233a1.162,1.162,0,0,1,1.16-1.162h10.588a1.162,1.162,0,0,1,1.162,1.162v11.189A1.162,1.162,0,0,1,365.219,434.583Zm-10.588-12.551a.2.2,0,0,0-.2.2v11.189a.2.2,0,0,0,.2.2h10.588a.2.2,0,0,0,.2-.2V422.233a.2.2,0,0,0-.2-.2Z" transform="translate(-353.471 -421.071)" fill="#f2f2f2"/>
            </g>
            <rect id="Rectángulo_35337" data-name="Rectángulo 35337" width="2.611" height="1.205" rx="0.156" transform="translate(1.635 1.635)" fill="#b5d6ff"/>
            <rect id="Rectángulo_35338" data-name="Rectángulo 35338" width="2.611" height="1.205" rx="0.156" transform="translate(4.898 1.635)" fill="#b5d6ff"/>
            <rect id="Rectángulo_35339" data-name="Rectángulo 35339" width="2.611" height="1.205" rx="0.156" transform="translate(8.136 1.635)" fill="#b5d6ff"/>
            <rect id="Rectángulo_35340" data-name="Rectángulo 35340" width="2.611" height="1.205" rx="0.156" transform="translate(1.635 3.417)" fill="#b5d6ff"/>
            <rect id="Rectángulo_35341" data-name="Rectángulo 35341" width="2.611" height="1.205" rx="0.156" transform="translate(4.898 3.417)" fill="#b5d6ff"/>
            <rect id="Rectángulo_35342" data-name="Rectángulo 35342" width="2.611" height="1.205" rx="0.156" transform="translate(8.136 3.417)" fill="#b5d6ff"/>
            <rect id="Rectángulo_35343" data-name="Rectángulo 35343" width="2.611" height="1.205" rx="0.156" transform="translate(1.635 5.275)" fill="#b5d6ff"/>
            <rect id="Rectángulo_35344" data-name="Rectángulo 35344" width="2.611" height="1.205" rx="0.156" transform="translate(4.898 5.275)" fill="#b5d6ff"/>
            <rect id="Rectángulo_35345" data-name="Rectángulo 35345" width="2.611" height="1.205" rx="0.156" transform="translate(8.136 5.275)" fill="#b5d6ff"/>
            <rect id="Rectángulo_35346" data-name="Rectángulo 35346" width="2.611" height="1.205" rx="0.156" transform="translate(1.635 7.107)" fill="#b5d6ff"/>
            <rect id="Rectángulo_35347" data-name="Rectángulo 35347" width="2.611" height="1.205" rx="0.156" transform="translate(4.898 7.107)" fill="#b5d6ff"/>
            <rect id="Rectángulo_35348" data-name="Rectángulo 35348" width="2.611" height="1.205" rx="0.156" transform="translate(8.136 7.107)" fill="#b5d6ff"/>
            <rect id="Rectángulo_35349" data-name="Rectángulo 35349" width="6.125" height="2.36" transform="translate(3.141 9.718)" fill="#f2f2f2"/>
            <rect id="Rectángulo_35350" data-name="Rectángulo 35350" width="4.569" height="0.201" rx="0.05" transform="translate(3.819 10.195)" opacity="0.41"/>
            <rect id="Rectángulo_35351" data-name="Rectángulo 35351" width="4.569" height="0.201" rx="0.05" transform="translate(3.819 10.571)" opacity="0.41"/>
            <rect id="Rectángulo_35352" data-name="Rectángulo 35352" width="3.79" height="0.201" rx="0.05" transform="translate(3.819 10.948)" opacity="0.41"/>
            <rect id="Rectángulo_35353" data-name="Rectángulo 35353" width="1.807" height="0.201" rx="0.05" transform="translate(3.819 11.424)" opacity="0.41"/>
          </g>
        </g>
        <path id="Trazado_164040" data-name="Trazado 164040" d="M324.6,423.567s41.435-1.36,55.022-.936,59.018,2.547,71.756,1.274c9.944-1,127.377-.849,127.377-.849s3.821-27.174.849-28.023-7.643,5.1-11.464,12.313c0,0-40.761-10.19-68.359-9.766S445.436,399.7,431,398.43,339.214,387.562,324.6,423.567Z" transform="translate(731.18 11146.53)" fill="#1d272b"/>
        <path id="Trazado_164041" data-name="Trazado 164041" d="M364.75,402.194c-9.4-.068-17.374,7.947-26.771,8.05a70.594,70.594,0,0,1,32.615-12.43c7-.793,14.078-.53,21.122-.265A95.9,95.9,0,0,1,407.4,399a164.907,164.907,0,0,1-22.211,3.95l5.389,1.618q-16.653,4.764-33.3,9.531a94.541,94.541,0,0,1,20.937-9.541,22.085,22.085,0,0,0-14.5-.557A3.176,3.176,0,0,1,364.75,402.194Z" transform="translate(740.521 11148.159)" fill="#fff" opacity="0.28"/>
        <path id="Trazado_164042" data-name="Trazado 164042" d="M393.649,410.243a205.39,205.39,0,0,0,27.846-6.236c-11.044-.007-22.274-.041-32.853-3.212q22.095-1.029,44.193-2.057c-.623.552.555,1.311,1.389,1.306q19.5-.1,39-.212a348.025,348.025,0,0,0-46.07,6.97C416.113,409.237,404.781,412.228,393.649,410.243Z" transform="translate(775.902 11149.175)" fill="#fff" opacity="0.28"/>
        <path id="Trazado_164043" data-name="Trazado 164043" d="M492.359,400.126c-.384-.64-1.4-.3-1.924.228-1.992,1.987-2.308,5.606-4.913,6.673a6.738,6.738,0,0,1-3.726.048c-11.5-2.091-23.174-5.385-34.682-3.354a123.682,123.682,0,0,1,26.7,5.3,62.792,62.792,0,0,0-13.977,3.247l25.075.749a2.091,2.091,0,0,0,2.488-1.636Q489.879,405.756,492.359,400.126Z" transform="translate(816.736 11149.9)" fill="#fff" opacity="0.28"/>
      </g>
      <g id="Grupo_133233" data-name="Grupo 133233" transform="translate(1199.536 11312.645)">
        <text id="FLUIDOS_DEL" data-name="FLUIDOS DEL" transform="translate(7.825 24.716)" fill="#008f85" font-size="21" font-family="Roboto-Bold, Roboto" font-weight="700"><tspan x="0" y="0">FLUIDOS DEL</tspan></text>
        <text id="EMBALSAMAMIENTO" transform="translate(8.342 40.528)" fill="#1d272b" font-size="14" font-family="Roboto-Bold, Roboto" font-weight="700"><tspan x="0" y="0">EMBALSAMAMIENTO</tspan></text>
        <rect id="Rectángulo_34968" data-name="Rectángulo 34968" width="4.171" height="50.051" fill="#d93328"/>
      </g>
      <g id="Grupo_127878" data-name="Grupo 127878" transform="translate(1220.834 11489.471)">
        <path id="Trazado_163809" data-name="Trazado 163809" d="M285.493,240.3H267.049l5.076,26.986h8.292Z" transform="translate(-205.827 -240.305)" fill="#868695"/>
        <rect id="Rectángulo_35043" data-name="Rectángulo 35043" width="9.717" height="6.397" rx="1.111" transform="translate(65.598 26.986)" fill="#1d272b"/>
        <rect id="Rectángulo_35044" data-name="Rectángulo 35044" width="17.723" height="23.664" rx="4.786" transform="translate(48.451 9.719)" fill="#1d272b"/>
        <rect id="Rectángulo_35045" data-name="Rectángulo 35045" width="4.602" height="6.792" transform="translate(55.011 3.852)" fill="#868695"/>
        <rect id="Rectángulo_35046" data-name="Rectángulo 35046" width="7.986" height="4.966" rx="1.306" transform="translate(53.32 3.292)" fill="#868695"/>
        <g id="Grupo_127674" data-name="Grupo 127674" transform="translate(14.637 33.389)">
          <path id="Trazado_163810" data-name="Trazado 163810" d="M289.775,382.4h-1.434V274.89H222.229V382.4H220.8V273.456h68.98Z" transform="translate(-220.795 -273.456)" fill="#868695"/>
        </g>
        <rect id="Rectángulo_35047" data-name="Rectángulo 35047" width="2.131" height="13.165" transform="translate(5.674 153.737) rotate(180)" fill="#64546f"/>
        <g id="Grupo_127675" data-name="Grupo 127675" transform="translate(0 140.572)">
          <path id="Trazado_163811" data-name="Trazado 163811" d="M206.262,386.46c0,3.636,1.586,6.582,3.543,6.582s3.543-2.946,3.543-6.582-1.586-6.583-3.543-6.583S206.262,382.825,206.262,386.46Z" transform="translate(-206.262 -379.877)" fill="#1d272b"/>
        </g>
        <g id="Grupo_127676" data-name="Grupo 127676" transform="translate(2.183 140.572)">
          <path id="Trazado_163812" data-name="Trazado 163812" d="M208.429,386.46c0,3.636,1.586,6.582,3.544,6.582s3.542-2.946,3.542-6.582-1.586-6.583-3.542-6.583S208.429,382.825,208.429,386.46Z" transform="translate(-208.429 -379.877)" fill="#868695"/>
        </g>
        <rect id="Rectángulo_35048" data-name="Rectángulo 35048" width="2.13" height="13.165" transform="translate(16.393 153.737) rotate(180)" fill="#64546f"/>
        <g id="Grupo_127677" data-name="Grupo 127677" transform="translate(10.72 140.572)">
          <path id="Trazado_163813" data-name="Trazado 163813" d="M216.906,386.46c0,3.636,1.586,6.582,3.542,6.582s3.543-2.946,3.543-6.582-1.586-6.583-3.543-6.583S216.906,382.825,216.906,386.46Z" transform="translate(-216.906 -379.877)" fill="#1d272b"/>
        </g>
        <g id="Grupo_127678" data-name="Grupo 127678" transform="translate(12.903 140.572)">
          <path id="Trazado_163814" data-name="Trazado 163814" d="M219.073,386.46c0,3.636,1.586,6.582,3.542,6.582s3.544-2.946,3.544-6.582-1.587-6.583-3.544-6.583S219.073,382.825,219.073,386.46Z" transform="translate(-219.073 -379.877)" fill="#868695"/>
        </g>
        <rect id="Rectángulo_35049" data-name="Rectángulo 35049" width="2.131" height="13.165" transform="translate(73.305 153.737) rotate(180)" fill="#64546f"/>
        <g id="Grupo_127679" data-name="Grupo 127679" transform="translate(67.63 140.572)">
          <path id="Trazado_163815" data-name="Trazado 163815" d="M273.411,386.46c0,3.636,1.587,6.582,3.543,6.582s3.544-2.946,3.544-6.582-1.587-6.583-3.544-6.583S273.411,382.825,273.411,386.46Z" transform="translate(-273.411 -379.877)" fill="#1d272b"/>
        </g>
        <g id="Grupo_127680" data-name="Grupo 127680" transform="translate(69.814 140.572)">
          <path id="Trazado_163816" data-name="Trazado 163816" d="M275.579,386.46c0,3.636,1.586,6.582,3.543,6.582s3.543-2.946,3.543-6.582-1.587-6.583-3.543-6.583S275.579,382.825,275.579,386.46Z" transform="translate(-275.579 -379.877)" fill="#868695"/>
        </g>
        <rect id="Rectángulo_35050" data-name="Rectángulo 35050" width="2.131" height="13.165" transform="translate(84.024 153.737) rotate(180)" fill="#64546f"/>
        <g id="Grupo_127681" data-name="Grupo 127681" transform="translate(78.35 140.572)">
          <path id="Trazado_163817" data-name="Trazado 163817" d="M284.055,386.46c0,3.636,1.586,6.582,3.543,6.582s3.542-2.946,3.542-6.582-1.585-6.583-3.542-6.583S284.055,382.825,284.055,386.46Z" transform="translate(-284.055 -379.877)" fill="#1d272b"/>
        </g>
        <g id="Grupo_127682" data-name="Grupo 127682" transform="translate(80.533 140.572)">
          <path id="Trazado_163818" data-name="Trazado 163818" d="M286.222,386.46c0,3.636,1.586,6.582,3.543,6.582s3.543-2.946,3.543-6.582-1.586-6.583-3.543-6.583S286.222,382.825,286.222,386.46Z" transform="translate(-286.222 -379.877)" fill="#868695"/>
        </g>
        <rect id="Rectángulo_35051" data-name="Rectángulo 35051" width="67.546" height="18.216" transform="translate(72.18 133.845) rotate(180)" fill="#1d272b"/>
        <rect id="Rectángulo_35052" data-name="Rectángulo 35052" width="10.889" height="18.216" transform="translate(83.069 133.845) rotate(180)" fill="#a4a4b4"/>
        <path id="Trazado_163819" data-name="Trazado 163819" d="M236.725,366.388h14.827a3.571,3.571,0,0,0,3.571-3.571H233.156A3.57,3.57,0,0,0,236.725,366.388Z" transform="translate(-206.069 -239.427)" fill="#a4a4b4"/>
        <rect id="Rectángulo_35053" data-name="Rectángulo 35053" width="67.546" height="18.216" transform="translate(72.18 113.464) rotate(180)" fill="#1d272b"/>
        <rect id="Rectángulo_35054" data-name="Rectángulo 35054" width="10.889" height="18.216" transform="translate(83.069 113.464) rotate(180)" fill="#a4a4b4"/>
        <path id="Trazado_163820" data-name="Trazado 163820" d="M236.725,346.153h14.827a3.572,3.572,0,0,0,3.571-3.571H233.156A3.57,3.57,0,0,0,236.725,346.153Z" transform="translate(-206.069 -239.572)" fill="#a4a4b4"/>
        <rect id="Rectángulo_35055" data-name="Rectángulo 35055" width="67.546" height="18.216" transform="translate(72.18 93.083) rotate(180)" fill="#1d272b"/>
        <rect id="Rectángulo_35056" data-name="Rectángulo 35056" width="10.889" height="18.216" transform="translate(83.069 93.083) rotate(180)" fill="#a4a4b4"/>
        <path id="Trazado_163821" data-name="Trazado 163821" d="M236.725,325.917h14.827a3.571,3.571,0,0,0,3.571-3.57H233.156A3.569,3.569,0,0,0,236.725,325.917Z" transform="translate(-206.069 -239.717)" fill="#a4a4b4"/>
        <rect id="Rectángulo_35057" data-name="Rectángulo 35057" width="67.546" height="18.216" transform="translate(72.18 72.703) rotate(180)" fill="#1d272b"/>
        <rect id="Rectángulo_35058" data-name="Rectángulo 35058" width="10.889" height="18.216" transform="translate(83.069 72.703) rotate(180)" fill="#a4a4b4"/>
        <path id="Trazado_163822" data-name="Trazado 163822" d="M236.725,305.681h14.827a3.571,3.571,0,0,0,3.571-3.57H233.156A3.569,3.569,0,0,0,236.725,305.681Z" transform="translate(-206.069 -239.862)" fill="#a4a4b4"/>
        <rect id="Rectángulo_35059" data-name="Rectángulo 35059" width="67.546" height="18.216" transform="translate(72.18 52.322) rotate(180)" fill="#1d272b"/>
        <rect id="Rectángulo_35060" data-name="Rectángulo 35060" width="10.889" height="18.216" transform="translate(83.069 52.322) rotate(180)" fill="#a4a4b4"/>
        <path id="Trazado_163823" data-name="Trazado 163823" d="M236.725,285.446h14.827a3.572,3.572,0,0,0,3.571-3.571H233.156A3.57,3.57,0,0,0,236.725,285.446Z" transform="translate(-206.069 -240.007)" fill="#a4a4b4"/>
        <g id="Grupo_127683" data-name="Grupo 127683" transform="translate(3.918 33.389)">
          <path id="Trazado_163824" data-name="Trazado 163824" d="M279.132,382.4H277.7V274.89H211.586V382.4h-1.434V273.456h68.98Z" transform="translate(-210.152 -273.456)" fill="#868695"/>
        </g>
        <path id="Trazado_163825" data-name="Trazado 163825" d="M273.241,273.481H217.534a2.172,2.172,0,0,1-2.172-2.172h0a2.172,2.172,0,0,1,2.172-2.172h55.706a2.173,2.173,0,0,1,2.174,2.172h0A2.173,2.173,0,0,1,273.241,273.481Z" transform="translate(-206.197 -240.098)" fill="#a4a4b4"/>
        <g id="Grupo_127684" data-name="Grupo 127684" transform="translate(9.405 21.922)">
          <path id="Trazado_163826" data-name="Trazado 163826" d="M274.979,271.928H215.6v-.569a9.3,9.3,0,0,1,9.288-9.288h40.8a9.3,9.3,0,0,1,9.288,9.288Zm-58.223-1.137h57.066a8.159,8.159,0,0,0-8.131-7.583h-40.8A8.161,8.161,0,0,0,216.756,270.791Z" transform="translate(-215.6 -262.071)" fill="#a4a4b4"/>
        </g>
      </g>
      <g id="Grupo_133235" data-name="Grupo 133235" transform="translate(1214.113 11362.695)">
        <rect id="Rectángulo_33829" data-name="Rectángulo 33829" width="99.33" height="43.6" transform="translate(2.172 2.172)" fill="#1d272b"/>
        <g id="Grupo_91754" data-name="Grupo 91754" transform="translate(63.299 29.249)">
          <rect id="Rectángulo_33830" data-name="Rectángulo 33830" width="9.41" height="14.37" fill="#3d4a60"/>
          <rect id="Rectángulo_33831" data-name="Rectángulo 33831" width="7.931" height="5.003" transform="translate(0.739 4.756)" fill="#e6e6e6"/>
          <rect id="Rectángulo_33832" data-name="Rectángulo 33832" width="3.98" height="0.37" rx="0.128" transform="translate(2.715 1.604)" fill="#fff"/>
          <rect id="Rectángulo_33833" data-name="Rectángulo 33833" width="5.949" height="0.37" rx="0.128" transform="translate(1.731 2.477)" fill="#fff"/>
          <path id="Rectángulo_33834" data-name="Rectángulo 33834" d="M.128,0H3.852A.128.128,0,0,1,3.98.128V.242A.128.128,0,0,1,3.852.37H.127A.127.127,0,0,1,0,.242V.128A.128.128,0,0,1,.128,0Z" transform="translate(2.715 5.453)" fill="#3d4a60"/>
          <path id="Rectángulo_33835" data-name="Rectángulo 33835" d="M.127,0H5.821a.128.128,0,0,1,.128.128V.242A.128.128,0,0,1,5.821.37H.128A.128.128,0,0,1,0,.242V.127A.127.127,0,0,1,.127,0Z" transform="translate(1.731 6.325)" fill="#3d4a60"/>
        </g>
        <g id="Grupo_91755" data-name="Grupo 91755" transform="translate(74.928 29.793)">
          <rect id="Rectángulo_33836" data-name="Rectángulo 33836" width="5.501" height="13.827" fill="#e6e6e6"/>
          <rect id="Rectángulo_33837" data-name="Rectángulo 33837" width="5.501" height="6.141" fill="#ff404e"/>
          <rect id="Rectángulo_33838" data-name="Rectángulo 33838" width="2.473" height="0.313" rx="0.108" transform="translate(1.407 1.962)" fill="#fff"/>
          <rect id="Rectángulo_33839" data-name="Rectángulo 33839" width="3.934" height="0.313" rx="0.108" transform="translate(0.565 2.548)" fill="#fff"/>
          <rect id="Rectángulo_33840" data-name="Rectángulo 33840" width="2.473" height="4.43" transform="translate(1.407 6.913)" fill="#fbb03b"/>
          <rect id="Rectángulo_33841" data-name="Rectángulo 33841" width="17.746" height="8.513" transform="translate(4.883 5.324)" fill="#fff"/>
          <rect id="Rectángulo_33842" data-name="Rectángulo 33842" width="7.171" height="8.518" transform="translate(15.458 5.314)" fill="#50759b"/>
          <rect id="Rectángulo_33843" data-name="Rectángulo 33843" width="7.331" height="0.739" transform="translate(6.425 7.624)" fill="#008f85"/>
          <path id="Trazado_150739" data-name="Trazado 150739" d="M483.809,358.95a1.336,1.336,0,1,0-1.336,1.343A1.34,1.34,0,0,0,483.809,358.95Z" transform="translate(-463.311 -349.244)" fill="#fff"/>
          <rect id="Rectángulo_33844" data-name="Rectángulo 33844" width="6.709" height="0.229" rx="0.079" transform="translate(6.425 9.344)" opacity="0.34"/>
          <rect id="Rectángulo_33845" data-name="Rectángulo 33845" width="6.709" height="0.229" rx="0.079" transform="translate(6.425 9.984)" opacity="0.34"/>
        </g>
        <g id="Grupo_91756" data-name="Grupo 91756" transform="translate(6.563 10.395)">
          <rect id="Rectángulo_33846" data-name="Rectángulo 33846" width="24.696" height="12.749" fill="#fff"/>
          <rect id="Rectángulo_33847" data-name="Rectángulo 33847" width="24.696" height="3.732" fill="#008f85"/>
          <rect id="Rectángulo_33848" data-name="Rectángulo 33848" width="24.696" height="3.732" transform="translate(0 9.031)" fill="#008f85"/>
          <rect id="Rectángulo_33849" data-name="Rectángulo 33849" width="15.45" height="0.356" rx="0.123" transform="translate(6.718 5.352)" opacity="0.29"/>
          <rect id="Rectángulo_33850" data-name="Rectángulo 33850" width="15.45" height="0.356" rx="0.123" transform="translate(6.718 6.34)" opacity="0.29"/>
          <rect id="Rectángulo_33851" data-name="Rectángulo 33851" width="15.45" height="0.356" rx="0.123" transform="translate(6.718 7.229)" opacity="0.29"/>
        </g>
        <g id="Grupo_91761" data-name="Grupo 91761" transform="translate(71.575 14.774)">
          <g id="Grupo_91757" data-name="Grupo 91757" transform="translate(14.3)">
            <path id="Rectángulo_33852" data-name="Rectángulo 33852" d="M0,0H3.651a0,0,0,0,1,0,0V6.617a.486.486,0,0,1-.486.486H.486A.486.486,0,0,1,0,6.617V0A0,0,0,0,1,0,0Z" transform="translate(0.365 1.098)" fill="#fbb03b"/>
            <rect id="Rectángulo_33853" data-name="Rectángulo 33853" width="4.381" height="1.294" fill="#fff"/>
            <rect id="Rectángulo_33854" data-name="Rectángulo 33854" width="2.943" height="2.013" transform="translate(0.719 3.529)" fill="#fff"/>
          </g>
          <g id="Grupo_91758" data-name="Grupo 91758" transform="translate(9.514 0.136)">
            <path id="Rectángulo_33855" data-name="Rectángulo 33855" d="M0,0H3.651a0,0,0,0,1,0,0V6.675a.427.427,0,0,1-.427.427H.427A.427.427,0,0,1,0,6.675V0A0,0,0,0,1,0,0Z" transform="translate(0.365 0.963)" fill="#fbb03b"/>
            <rect id="Rectángulo_33856" data-name="Rectángulo 33856" width="4.381" height="1.294" fill="#fff"/>
            <rect id="Rectángulo_33857" data-name="Rectángulo 33857" width="2.943" height="2.013" transform="translate(0.719 3.529)" fill="#fff"/>
          </g>
          <g id="Grupo_91759" data-name="Grupo 91759" transform="translate(4.786 0.136)">
            <path id="Rectángulo_33858" data-name="Rectángulo 33858" d="M0,0H3.651a0,0,0,0,1,0,0V6.558a.545.545,0,0,1-.545.545H.545A.545.545,0,0,1,0,6.558V0A0,0,0,0,1,0,0Z" transform="translate(0.365 0.963)" fill="#fbb03b"/>
            <rect id="Rectángulo_33859" data-name="Rectángulo 33859" width="4.381" height="1.294" fill="#fff"/>
            <rect id="Rectángulo_33860" data-name="Rectángulo 33860" width="2.943" height="2.013" transform="translate(0.719 3.529)" fill="#fff"/>
          </g>
          <g id="Grupo_91760" data-name="Grupo 91760" transform="translate(0 0.136)">
            <path id="Rectángulo_33861" data-name="Rectángulo 33861" d="M0,0H3.651a0,0,0,0,1,0,0V6.554A.549.549,0,0,1,3.1,7.1H.549A.549.549,0,0,1,0,6.554V0A0,0,0,0,1,0,0Z" transform="translate(0.365 0.963)" fill="#fbb03b"/>
            <rect id="Rectángulo_33862" data-name="Rectángulo 33862" width="4.381" height="1.294" fill="#fff"/>
            <rect id="Rectángulo_33863" data-name="Rectángulo 33863" width="2.943" height="2.013" transform="translate(0.719 3.529)" fill="#fff"/>
          </g>
        </g>
        <g id="Grupo_91766" data-name="Grupo 91766" transform="translate(43.066 35.559)">
          <g id="Grupo_91762" data-name="Grupo 91762" transform="translate(14.3)">
            <path id="Rectángulo_33864" data-name="Rectángulo 33864" d="M0,0H3.651a0,0,0,0,1,0,0V6.617a.486.486,0,0,1-.486.486H.486A.486.486,0,0,1,0,6.617V0A0,0,0,0,1,0,0Z" transform="translate(0.365 1.098)" fill="#fbb03b"/>
            <rect id="Rectángulo_33865" data-name="Rectángulo 33865" width="4.381" height="1.294" fill="#fff"/>
            <rect id="Rectángulo_33866" data-name="Rectángulo 33866" width="2.943" height="2.014" transform="translate(0.719 3.529)" fill="#fff"/>
          </g>
          <g id="Grupo_91763" data-name="Grupo 91763" transform="translate(9.514 0.136)">
            <path id="Rectángulo_33867" data-name="Rectángulo 33867" d="M0,0H3.651a0,0,0,0,1,0,0V6.675a.427.427,0,0,1-.427.427H.427A.427.427,0,0,1,0,6.675V0A0,0,0,0,1,0,0Z" transform="translate(0.365 0.963)" fill="#fbb03b"/>
            <rect id="Rectángulo_33868" data-name="Rectángulo 33868" width="4.381" height="1.294" fill="#fff"/>
            <rect id="Rectángulo_33869" data-name="Rectángulo 33869" width="2.943" height="2.014" transform="translate(0.719 3.529)" fill="#fff"/>
          </g>
          <g id="Grupo_91764" data-name="Grupo 91764" transform="translate(4.785 0.136)">
            <path id="Rectángulo_33870" data-name="Rectángulo 33870" d="M0,0H3.651a0,0,0,0,1,0,0V6.558a.545.545,0,0,1-.545.545H.545A.545.545,0,0,1,0,6.558V0A0,0,0,0,1,0,0Z" transform="translate(0.365 0.963)" fill="#fbb03b"/>
            <rect id="Rectángulo_33871" data-name="Rectángulo 33871" width="4.381" height="1.294" fill="#fff"/>
            <rect id="Rectángulo_33872" data-name="Rectángulo 33872" width="2.943" height="2.014" transform="translate(0.719 3.529)" fill="#fff"/>
          </g>
          <g id="Grupo_91765" data-name="Grupo 91765" transform="translate(0 0.136)">
            <path id="Rectángulo_33873" data-name="Rectángulo 33873" d="M0,0H3.651a0,0,0,0,1,0,0V6.553A.549.549,0,0,1,3.1,7.1H.549A.549.549,0,0,1,0,6.553V0A0,0,0,0,1,0,0Z" transform="translate(0.365 0.963)" fill="#fbb03b"/>
            <rect id="Rectángulo_33874" data-name="Rectángulo 33874" width="4.381" height="1.294" fill="#fff"/>
            <rect id="Rectángulo_33875" data-name="Rectángulo 33875" width="2.943" height="2.014" transform="translate(0.719 3.529)" fill="#fff"/>
          </g>
        </g>
        <g id="Grupo_91767" data-name="Grupo 91767" transform="translate(51.86 10.165)">
          <rect id="Rectángulo_33876" data-name="Rectángulo 33876" width="12.837" height="13.49" transform="translate(0 12.837) rotate(-90)" fill="#fff"/>
          <path id="Trazado_150740" data-name="Trazado 150740" d="M453.24,344.211s5.98,2.13,6.518,2.533,1.352-.1.792-.69a6.052,6.052,0,0,0-1.755-1.074l5.036.133s.713.105.811-.386-.947-.525-.947-.525l-3.3-.271,3.623-.462s.748-.141.736-.609-.953-.332-.953-.332l-3.614.159,3.55-.767s.888-.192.822-.716-1.315-.207-1.315-.207l-3.432.5,1.794-.933s.308-.183.1-.437-.632-.075-.632-.075-4.259,1.4-5.156,1.9a5.2,5.2,0,0,1-2.677.162Z" transform="translate(-451.962 -337.019)" fill="#db8804"/>
          <rect id="Rectángulo_33877" data-name="Rectángulo 33877" width="2.413" height="13.49" transform="translate(0 2.413) rotate(-90)" fill="#50759b"/>
          <rect id="Rectángulo_33878" data-name="Rectángulo 33878" width="2.413" height="13.49" transform="translate(0 12.837) rotate(-90)" fill="#50759b"/>
        </g>
        <rect id="Rectángulo_33879" data-name="Rectángulo 33879" width="98.365" height="4.466" transform="translate(3.138 23.052)" fill="url(#linear-gradient-7)"/>
        <path id="Trazado_150741" data-name="Trazado 150741" d="M519.5,378.683H415.822V330.739H519.5Zm-99.329-4.346h94.985V335.083H420.168Z" transform="translate(-415.822 -330.739)" fill="url(#linear-gradient-7)"/>
        <rect id="Rectángulo_33881" data-name="Rectángulo 33881" width="3.741" height="42.725" transform="translate(49.605 2.292)" fill="url(#linear-gradient-7)"/>
        <rect id="Rectángulo_33882" data-name="Rectángulo 33882" width="0.128" height="47.87" transform="translate(51.294 0.044)" opacity="0.26"/>
        <path id="Rectángulo_33883" data-name="Rectángulo 33883" d="M0,0H1.534a1,1,0,0,1,1,1v9.587a1,1,0,0,1-1,1H0a0,0,0,0,1,0,0V0A0,0,0,0,1,0,0Z" transform="translate(52.018 18.465)" fill="#a4b6c1"/>
        <path id="Rectángulo_33884" data-name="Rectángulo 33884" d="M0,0H1.534a1,1,0,0,1,1,1v9.587a1,1,0,0,1-1,1H0a0,0,0,0,1,0,0V0A0,0,0,0,1,0,0Z" transform="translate(50.51 30.052) rotate(180)" fill="#a4b6c1"/>
      </g>
      <g id="Grupo_133236" data-name="Grupo 133236" transform="translate(1214.113 11417.941)">
        <rect id="Rectángulo_33829-2" data-name="Rectángulo 33829" width="99.33" height="43.6" transform="translate(2.172 2.172)" fill="#1d272b"/>
        <g id="Grupo_91754-2" data-name="Grupo 91754" transform="translate(63.299 29.249)">
          <rect id="Rectángulo_33830-2" data-name="Rectángulo 33830" width="9.41" height="14.37" fill="#3d4a60"/>
          <rect id="Rectángulo_33831-2" data-name="Rectángulo 33831" width="7.931" height="5.003" transform="translate(0.739 4.756)" fill="#e6e6e6"/>
          <rect id="Rectángulo_33832-2" data-name="Rectángulo 33832" width="3.98" height="0.37" rx="0.128" transform="translate(2.715 1.604)" fill="#fff"/>
          <rect id="Rectángulo_33833-2" data-name="Rectángulo 33833" width="5.949" height="0.37" rx="0.128" transform="translate(1.731 2.477)" fill="#fff"/>
          <path id="Rectángulo_33834-2" data-name="Rectángulo 33834" d="M.128,0H3.852A.128.128,0,0,1,3.98.128V.242A.128.128,0,0,1,3.852.37H.127A.127.127,0,0,1,0,.242V.128A.128.128,0,0,1,.128,0Z" transform="translate(2.715 5.453)" fill="#3d4a60"/>
          <path id="Rectángulo_33835-2" data-name="Rectángulo 33835" d="M.127,0H5.821a.128.128,0,0,1,.128.128V.242A.128.128,0,0,1,5.821.37H.128A.128.128,0,0,1,0,.242V.127A.127.127,0,0,1,.127,0Z" transform="translate(1.731 6.325)" fill="#3d4a60"/>
        </g>
        <g id="Grupo_91755-2" data-name="Grupo 91755" transform="translate(74.928 29.793)">
          <rect id="Rectángulo_33836-2" data-name="Rectángulo 33836" width="5.501" height="13.827" fill="#e6e6e6"/>
          <rect id="Rectángulo_33837-2" data-name="Rectángulo 33837" width="5.501" height="6.141" fill="#ff404e"/>
          <rect id="Rectángulo_33838-2" data-name="Rectángulo 33838" width="2.473" height="0.313" rx="0.108" transform="translate(1.407 1.962)" fill="#fff"/>
          <rect id="Rectángulo_33839-2" data-name="Rectángulo 33839" width="3.934" height="0.313" rx="0.108" transform="translate(0.565 2.548)" fill="#fff"/>
          <rect id="Rectángulo_33840-2" data-name="Rectángulo 33840" width="2.473" height="4.43" transform="translate(1.407 6.913)" fill="#fbb03b"/>
          <rect id="Rectángulo_33841-2" data-name="Rectángulo 33841" width="17.746" height="8.513" transform="translate(4.883 5.324)" fill="#fff"/>
          <rect id="Rectángulo_33842-2" data-name="Rectángulo 33842" width="7.171" height="8.518" transform="translate(15.458 5.314)" fill="#50759b"/>
          <rect id="Rectángulo_33843-2" data-name="Rectángulo 33843" width="7.331" height="0.739" transform="translate(6.425 7.624)" fill="#008f85"/>
          <path id="Trazado_150739-2" data-name="Trazado 150739" d="M483.809,358.95a1.336,1.336,0,1,0-1.336,1.343A1.34,1.34,0,0,0,483.809,358.95Z" transform="translate(-463.311 -349.244)" fill="#fff"/>
          <rect id="Rectángulo_33844-2" data-name="Rectángulo 33844" width="6.709" height="0.229" rx="0.079" transform="translate(6.425 9.344)" opacity="0.34"/>
          <rect id="Rectángulo_33845-2" data-name="Rectángulo 33845" width="6.709" height="0.229" rx="0.079" transform="translate(6.425 9.984)" opacity="0.34"/>
        </g>
        <g id="Grupo_91756-2" data-name="Grupo 91756" transform="translate(6.563 10.395)">
          <rect id="Rectángulo_33846-2" data-name="Rectángulo 33846" width="24.696" height="12.749" fill="#fff"/>
          <rect id="Rectángulo_33847-2" data-name="Rectángulo 33847" width="24.696" height="3.732" fill="#008f85"/>
          <rect id="Rectángulo_33848-2" data-name="Rectángulo 33848" width="24.696" height="3.732" transform="translate(0 9.031)" fill="#008f85"/>
          <rect id="Rectángulo_33849-2" data-name="Rectángulo 33849" width="15.45" height="0.356" rx="0.123" transform="translate(6.718 5.352)" opacity="0.29"/>
          <rect id="Rectángulo_33850-2" data-name="Rectángulo 33850" width="15.45" height="0.356" rx="0.123" transform="translate(6.718 6.34)" opacity="0.29"/>
          <rect id="Rectángulo_33851-2" data-name="Rectángulo 33851" width="15.45" height="0.356" rx="0.123" transform="translate(6.718 7.229)" opacity="0.29"/>
        </g>
        <g id="Grupo_91761-2" data-name="Grupo 91761" transform="translate(71.575 14.774)">
          <g id="Grupo_91757-2" data-name="Grupo 91757" transform="translate(14.3)">
            <path id="Rectángulo_33852-2" data-name="Rectángulo 33852" d="M0,0H3.651a0,0,0,0,1,0,0V6.617a.486.486,0,0,1-.486.486H.486A.486.486,0,0,1,0,6.617V0A0,0,0,0,1,0,0Z" transform="translate(0.365 1.098)" fill="#fbb03b"/>
            <rect id="Rectángulo_33853-2" data-name="Rectángulo 33853" width="4.381" height="1.294" fill="#fff"/>
            <rect id="Rectángulo_33854-2" data-name="Rectángulo 33854" width="2.943" height="2.013" transform="translate(0.719 3.529)" fill="#fff"/>
          </g>
          <g id="Grupo_91758-2" data-name="Grupo 91758" transform="translate(9.514 0.136)">
            <path id="Rectángulo_33855-2" data-name="Rectángulo 33855" d="M0,0H3.651a0,0,0,0,1,0,0V6.675a.427.427,0,0,1-.427.427H.427A.427.427,0,0,1,0,6.675V0A0,0,0,0,1,0,0Z" transform="translate(0.365 0.963)" fill="#fbb03b"/>
            <rect id="Rectángulo_33856-2" data-name="Rectángulo 33856" width="4.381" height="1.294" fill="#fff"/>
            <rect id="Rectángulo_33857-2" data-name="Rectángulo 33857" width="2.943" height="2.013" transform="translate(0.719 3.529)" fill="#fff"/>
          </g>
          <g id="Grupo_91759-2" data-name="Grupo 91759" transform="translate(4.786 0.136)">
            <path id="Rectángulo_33858-2" data-name="Rectángulo 33858" d="M0,0H3.651a0,0,0,0,1,0,0V6.558a.545.545,0,0,1-.545.545H.545A.545.545,0,0,1,0,6.558V0A0,0,0,0,1,0,0Z" transform="translate(0.365 0.963)" fill="#fbb03b"/>
            <rect id="Rectángulo_33859-2" data-name="Rectángulo 33859" width="4.381" height="1.294" fill="#fff"/>
            <rect id="Rectángulo_33860-2" data-name="Rectángulo 33860" width="2.943" height="2.013" transform="translate(0.719 3.529)" fill="#fff"/>
          </g>
          <g id="Grupo_91760-2" data-name="Grupo 91760" transform="translate(0 0.136)">
            <path id="Rectángulo_33861-2" data-name="Rectángulo 33861" d="M0,0H3.651a0,0,0,0,1,0,0V6.554A.549.549,0,0,1,3.1,7.1H.549A.549.549,0,0,1,0,6.554V0A0,0,0,0,1,0,0Z" transform="translate(0.365 0.963)" fill="#fbb03b"/>
            <rect id="Rectángulo_33862-2" data-name="Rectángulo 33862" width="4.381" height="1.294" fill="#fff"/>
            <rect id="Rectángulo_33863-2" data-name="Rectángulo 33863" width="2.943" height="2.013" transform="translate(0.719 3.529)" fill="#fff"/>
          </g>
        </g>
        <g id="Grupo_91766-2" data-name="Grupo 91766" transform="translate(43.066 35.559)">
          <g id="Grupo_91762-2" data-name="Grupo 91762" transform="translate(14.3)">
            <path id="Rectángulo_33864-2" data-name="Rectángulo 33864" d="M0,0H3.651a0,0,0,0,1,0,0V6.617a.486.486,0,0,1-.486.486H.486A.486.486,0,0,1,0,6.617V0A0,0,0,0,1,0,0Z" transform="translate(0.365 1.098)" fill="#fbb03b"/>
            <rect id="Rectángulo_33865-2" data-name="Rectángulo 33865" width="4.381" height="1.294" fill="#fff"/>
            <rect id="Rectángulo_33866-2" data-name="Rectángulo 33866" width="2.943" height="2.014" transform="translate(0.719 3.529)" fill="#fff"/>
          </g>
          <g id="Grupo_91763-2" data-name="Grupo 91763" transform="translate(9.514 0.136)">
            <path id="Rectángulo_33867-2" data-name="Rectángulo 33867" d="M0,0H3.651a0,0,0,0,1,0,0V6.675a.427.427,0,0,1-.427.427H.427A.427.427,0,0,1,0,6.675V0A0,0,0,0,1,0,0Z" transform="translate(0.365 0.963)" fill="#fbb03b"/>
            <rect id="Rectángulo_33868-2" data-name="Rectángulo 33868" width="4.381" height="1.294" fill="#fff"/>
            <rect id="Rectángulo_33869-2" data-name="Rectángulo 33869" width="2.943" height="2.014" transform="translate(0.719 3.529)" fill="#fff"/>
          </g>
          <g id="Grupo_91764-2" data-name="Grupo 91764" transform="translate(4.785 0.136)">
            <path id="Rectángulo_33870-2" data-name="Rectángulo 33870" d="M0,0H3.651a0,0,0,0,1,0,0V6.558a.545.545,0,0,1-.545.545H.545A.545.545,0,0,1,0,6.558V0A0,0,0,0,1,0,0Z" transform="translate(0.365 0.963)" fill="#fbb03b"/>
            <rect id="Rectángulo_33871-2" data-name="Rectángulo 33871" width="4.381" height="1.294" fill="#fff"/>
            <rect id="Rectángulo_33872-2" data-name="Rectángulo 33872" width="2.943" height="2.014" transform="translate(0.719 3.529)" fill="#fff"/>
          </g>
          <g id="Grupo_91765-2" data-name="Grupo 91765" transform="translate(0 0.136)">
            <path id="Rectángulo_33873-2" data-name="Rectángulo 33873" d="M0,0H3.651a0,0,0,0,1,0,0V6.553A.549.549,0,0,1,3.1,7.1H.549A.549.549,0,0,1,0,6.553V0A0,0,0,0,1,0,0Z" transform="translate(0.365 0.963)" fill="#fbb03b"/>
            <rect id="Rectángulo_33874-2" data-name="Rectángulo 33874" width="4.381" height="1.294" fill="#fff"/>
            <rect id="Rectángulo_33875-2" data-name="Rectángulo 33875" width="2.943" height="2.014" transform="translate(0.719 3.529)" fill="#fff"/>
          </g>
        </g>
        <g id="Grupo_91767-2" data-name="Grupo 91767" transform="translate(51.86 10.165)">
          <rect id="Rectángulo_33876-2" data-name="Rectángulo 33876" width="12.837" height="13.49" transform="translate(0 12.837) rotate(-90)" fill="#fff"/>
          <path id="Trazado_150740-2" data-name="Trazado 150740" d="M453.24,344.211s5.98,2.13,6.518,2.533,1.352-.1.792-.69a6.052,6.052,0,0,0-1.755-1.074l5.036.133s.713.105.811-.386-.947-.525-.947-.525l-3.3-.271,3.623-.462s.748-.141.736-.609-.953-.332-.953-.332l-3.614.159,3.55-.767s.888-.192.822-.716-1.315-.207-1.315-.207l-3.432.5,1.794-.933s.308-.183.1-.437-.632-.075-.632-.075-4.259,1.4-5.156,1.9a5.2,5.2,0,0,1-2.677.162Z" transform="translate(-451.962 -337.019)" fill="#db8804"/>
          <rect id="Rectángulo_33877-2" data-name="Rectángulo 33877" width="2.413" height="13.49" transform="translate(0 2.413) rotate(-90)" fill="#50759b"/>
          <rect id="Rectángulo_33878-2" data-name="Rectángulo 33878" width="2.413" height="13.49" transform="translate(0 12.837) rotate(-90)" fill="#50759b"/>
        </g>
        <rect id="Rectángulo_33879-2" data-name="Rectángulo 33879" width="98.365" height="4.466" transform="translate(3.138 23.052)" fill="url(#linear-gradient-7)"/>
        <path id="Trazado_150741-2" data-name="Trazado 150741" d="M519.5,378.683H415.822V330.739H519.5Zm-99.329-4.346h94.985V335.083H420.168Z" transform="translate(-415.822 -330.739)" fill="url(#linear-gradient-7)"/>
        <rect id="Rectángulo_33881-2" data-name="Rectángulo 33881" width="3.741" height="42.725" transform="translate(49.605 2.292)" fill="url(#linear-gradient-7)"/>
        <rect id="Rectángulo_33882-2" data-name="Rectángulo 33882" width="0.128" height="47.87" transform="translate(51.294 0.044)" opacity="0.26"/>
        <path id="Rectángulo_33883-2" data-name="Rectángulo 33883" d="M0,0H1.534a1,1,0,0,1,1,1v9.587a1,1,0,0,1-1,1H0a0,0,0,0,1,0,0V0A0,0,0,0,1,0,0Z" transform="translate(52.018 18.465)" fill="#a4b6c1"/>
        <path id="Rectángulo_33884-2" data-name="Rectángulo 33884" d="M0,0H1.534a1,1,0,0,1,1,1v9.587a1,1,0,0,1-1,1H0a0,0,0,0,1,0,0V0A0,0,0,0,1,0,0Z" transform="translate(50.51 30.052) rotate(180)" fill="#a4b6c1"/>
      </g>
    </g>
  </g>
</svg>
