<svg xmlns="http://www.w3.org/2000/svg" xmlns:xlink="http://www.w3.org/1999/xlink" width="114.636" height="114.636" viewBox="0 0 114.636 114.636">
  <defs>
    <radialGradient id="radial-gradient" cx="0.076" cy="0.019" r="1.465" gradientTransform="translate(0.001)" gradientUnits="objectBoundingBox">
      <stop offset="0" stop-color="#f6f6f7"/>
      <stop offset="0.477" stop-color="#f9f9fa"/>
      <stop offset="0.715" stop-color="#fff"/>
    </radialGradient>
  </defs>
  <g id="Grupo_134308" data-name="Grupo 134308" transform="translate(-1157.903 -12030.484)">
    <g id="Grupo_18420" data-name="Grupo 18420" transform="translate(1157.903 12030.484)">
      <g id="Grupo_18419" data-name="Grupo 18419">
        <path id="Trazado_40936" data-name="Trazado 40936" d="M309.259,2203.037a57.318,57.318,0,1,1-57.317-57.316A57.317,57.317,0,0,1,309.259,2203.037Z" transform="translate(-194.623 -2145.721)" fill="#fff"/>
      </g>
    </g>
    <path id="Trazado_40937" data-name="Trazado 40937" d="M308.648,2202.372a57.316,57.316,0,1,0-57.317,57.319A57.091,57.091,0,0,0,308.648,2202.372Z" transform="translate(963.891 9885.429)" fill="url(#radial-gradient)"/>
    <path id="Trazado_40938" data-name="Trazado 40938" d="M289.672,2196.986a43.75,43.75,0,1,0-43.75,43.75A43.587,43.587,0,0,0,289.672,2196.986Z" transform="translate(969.473 9891.006)" fill="none" stroke="#1d272b" stroke-miterlimit="10" stroke-width="4"/>
    <path id="Trazado_40939" data-name="Trazado 40939" d="M299.231,2164.488a57.325,57.325,0,0,1-98.686,57.081,57.143,57.143,0,0,0,98.686-57.081Z" transform="translate(967.513 9898.176)" fill="#eceef0"/>
    <path id="Trazado_170730" data-name="Trazado 170730" d="M2115.826-408.331a5.674,5.674,0,0,1-1.9,1.484,2.69,2.69,0,0,1-1.351.29c-.691-.029-1.385-.013-2.078-.006a2.32,2.32,0,0,0-2.449,2.48q0,16.433,0,32.867a11.89,11.89,0,0,0,.056,1.662,2.254,2.254,0,0,0,1.82,1.818,3.166,3.166,0,0,0,.553.053q5.9,0,11.8,0h.27a12.621,12.621,0,0,1-1.832-9.048,12.635,12.635,0,0,1,4.793-7.918c-.206-.01-.331-.022-.457-.022-.927,0-1.855,0-2.783,0a.927.927,0,0,1-.911-.582.952.952,0,0,1,.165-1.136,1.328,1.328,0,0,1,.815-.329c2.337-.025,4.675-.013,7.012-.018a2.371,2.371,0,0,0,.585-.067,12.769,12.769,0,0,1,6.313-.05c.417.1.821.258,1.286.407.009-.157.022-.285.022-.412q0-8.626,0-17.253a2.322,2.322,0,0,0-2.443-2.451c-.346,0-.692,0-1.039,0a4.291,4.291,0,0,1-3.405-1.737c.129-.012.228-.029.327-.029,1.435,0,2.869-.009,4.3,0a4.075,4.075,0,0,1,4,3.7c.018.209.022.42.022.63q0,9.072.008,18.143a.43.43,0,0,0,.152.323,12.3,12.3,0,0,1,5.836,7.4,12.4,12.4,0,0,1-1.105,9.791c-.054.1-.106.2-.158.294a.261.261,0,0,0-.008.059l.333.24-2.615,3.091-.3-.25c-.679.454-1.321.94-2.013,1.337a12.623,12.623,0,0,1-15.24-2.069.905.905,0,0,0-.712-.291q-6.549.012-13.1,0a4.033,4.033,0,0,1-4-3.117,6.09,6.09,0,0,1-.127-1.434q-.009-13.079,0-26.158,0-3.707,0-7.415a4.085,4.085,0,0,1,4.3-4.279h5.248Zm17.339,42.789a9.019,9.019,0,0,0,9.04-8.917,9.009,9.009,0,0,0-9-9.131,9.042,9.042,0,0,0-9.044,9A9.016,9.016,0,0,0,2133.165-365.541Z" transform="translate(-909.43 12472.658)" fill="#1d272b"/>
    <path id="Trazado_170731" data-name="Trazado 170731" d="M2589.2,146.269l1.988-2.35c.192-.226.4-.442.572-.681.137-.19.248-.17.426-.055,3.181,2.067,6.376,4.113,9.545,6.2a3.637,3.637,0,1,1-4.622,5.562c-2.61-2.8-5.176-5.649-7.76-8.478C2589.3,146.412,2589.261,146.35,2589.2,146.269Zm13.313,6.268a2.51,2.51,0,0,0-1.152-2.176q-4.28-3.03-8.563-6.053c-.091-.064-.18-.161-.279-.175a.435.435,0,0,0-.348.079c-.053.07-.01.244.039.35.036.079.147.125.228.182l8.442,5.967a1.793,1.793,0,0,1,.824,2.519c-.037.113.068.272.107.41.131-.06.335-.086.379-.185A9.076,9.076,0,0,0,2602.513,152.537Z" transform="translate(-1356.514 11962.151)" fill="#1d272b"/>
    <path id="Trazado_170732" data-name="Trazado 170732" d="M2212.218-451.356h3.3c.995,0,1.014.019,1.394.923a9.568,9.568,0,0,0,2.725,3.87,9.181,9.181,0,0,0,1.567.971,1.292,1.292,0,0,1,.778,1.574,5.037,5.037,0,0,1-3.49,3.529,3.532,3.532,0,0,1-.882.063c-1.616.006-3.232,0-4.849,0-1.864.007-3.729-.013-5.592.044a4.433,4.433,0,0,1-4.019-2.208,7.176,7.176,0,0,1-.622-1.177,1.316,1.316,0,0,1,.608-1.77,7.958,7.958,0,0,0,3.843-3.761,15.278,15.278,0,0,0,.683-1.479.858.858,0,0,1,.884-.587C2209.771-451.351,2210.995-451.356,2212.218-451.356Zm8.216,7.2c-.568-.374-1.139-.7-1.652-1.1a10.346,10.346,0,0,1-3.042-4.048.721.721,0,0,0-.782-.522q-2.687.05-5.376,0a.819.819,0,0,0-.9.567,9.857,9.857,0,0,1-4.494,4.952,1.631,1.631,0,0,0-.2.15c.232.355.433.709.679,1.03a2.866,2.866,0,0,0,2.45,1.2c3.461-.032,6.922-.012,10.383-.014a2.721,2.721,0,0,0,.553-.037A3.671,3.671,0,0,0,2220.435-444.157Z" transform="translate(-998.423 12512.491)" fill="#1d272b"/>
    <path id="Trazado_170733" data-name="Trazado 170733" d="M2315.745-217.678c-2.188,0-4.377,0-6.565,0a1.016,1.016,0,0,1-.932-1.483.928.928,0,0,1,.917-.57c1.063,0,2.126,0,3.189,0q4.952,0,9.9,0a.972.972,0,0,1,.973.542,1.051,1.051,0,0,1-.11,1.153.991.991,0,0,1-.885.365C2320.072-217.681,2317.908-217.678,2315.745-217.678Z" transform="translate(-1096.312 12298.057)" fill="#1d272b"/>
    <path id="Trazado_170734" data-name="Trazado 170734" d="M2160.458-237.793l4-2.75c.234-.161.463-.33.7-.482a.768.768,0,0,1,1.086.17.748.748,0,0,1-.186,1.08c-1.927,1.338-3.864,2.663-5.8,3.991-.018.012-.047.008-.106.018l-2.225-2.548c-.073-.084-.147-.167-.219-.251a.793.793,0,0,1-.021-1.184.8.8,0,0,1,1.173.153c.451.508.9,1.022,1.343,1.533C2160.276-237.981,2160.354-237.9,2160.458-237.793Z" transform="translate(-956.79 12317.905)" fill="#1d272b"/>
    <path id="Trazado_170735" data-name="Trazado 170735" d="M2160.168-30.947l-2.129-2.433c-.138-.158-.282-.312-.412-.476a.776.776,0,0,1,.049-1.1.777.777,0,0,1,1.125.1c.5.562.992,1.134,1.486,1.7a1.944,1.944,0,0,1,.121.181c.445-.3.851-.579,1.255-.857q1.679-1.156,3.357-2.312a1.472,1.472,0,0,1,.389-.207.761.761,0,0,1,.881.38.761.761,0,0,1-.271,1.009c-.838.59-1.687,1.164-2.531,1.746q-1.5,1.031-2.99,2.062C2160.4-31.086,2160.294-31.026,2160.168-30.947Z" transform="translate(-956.779 12128.311)" fill="#1d272b"/>
    <path id="Trazado_170736" data-name="Trazado 170736" d="M2160.729-135.328c1.025-.715,2.015-1.407,3.007-2.1.548-.381,1.1-.761,1.65-1.133a.773.773,0,0,1,1.141.152.772.772,0,0,1-.268,1.12c-1.241.852-2.49,1.691-3.731,2.542q-.914.627-1.811,1.282c-.185.135-.3.134-.458-.051-.762-.891-1.542-1.767-2.31-2.653a.828.828,0,0,1,.063-1.188.791.791,0,0,1,1.133.213C2159.65-136.536,2160.18-135.953,2160.729-135.328Z" transform="translate(-957.064 12223.07)" fill="#1d272b"/>
    <path id="Trazado_170737" data-name="Trazado 170737" d="M2372.021-43.456a6.957,6.957,0,0,1,6.787-6.6c.49,0,.8.25.815.666.015.436-.277.7-.8.719a5.556,5.556,0,0,0-5.435,5.4c-.021.534-.27.837-.686.835-.438,0-.686-.32-.681-.871C2372.022-43.357,2372.021-43.407,2372.021-43.456Z" transform="translate(-1155.453 12140.972)" fill="#1d272b"/>
    <path id="Trazado_170738" data-name="Trazado 170738" d="M2307.171-403.034a2.044,2.044,0,0,1,2.067-2.034,2.045,2.045,0,0,1,2.019,2.083,2.032,2.032,0,0,1-2.05,2.008A2.025,2.025,0,0,1,2307.171-403.034Z" transform="translate(-1095.415 12469.636)" fill="#1d272b"/>
  </g>
</svg>
