<svg xmlns="http://www.w3.org/2000/svg" xmlns:xlink="http://www.w3.org/1999/xlink" width="389.393" height="431.945" viewBox="0 0 389.393 431.945">
  <defs>
    <linearGradient id="linear-gradient" x1="0.5" x2="0.5" y2="1" gradientUnits="objectBoundingBox">
      <stop offset="0" stop-color="#f5f5f5"/>
      <stop offset="0.25" stop-color="#f5f5f5"/>
      <stop offset="1" stop-color="#eeeef2"/>
    </linearGradient>
    <linearGradient id="linear-gradient-2" x1="0.5" x2="0.5" y2="1" gradientUnits="objectBoundingBox">
      <stop offset="0" stop-color="#f5f5f5"/>
      <stop offset="0.25" stop-color="#f5f5f5"/>
      <stop offset="1" stop-color="#a7b3cf"/>
    </linearGradient>
  </defs>
  <g id="Grupo_134283" data-name="Grupo 134283" transform="translate(-195.476 -1425.308)">
    <g id="Grupo_128931" data-name="Grupo 128931" transform="translate(195.476 1419.558)">
      <path id="Trazado_151846" data-name="Trazado 151846" d="M429.775,517.652c15.208-27.391,19.534-62.94,11.482-94.331-5.091-19.846-14.861-38.284-16.111-58.98-2.5-41.378,29-74.83,35.529-115.582,2.872-17.91-.261-38.776-12.571-49.655-12.158-10.745-29.511-8.551-43.275-1.026s-25.411,19.571-38.627,28.379-29.488,14.251-43.444,7.242c-14.136-7.1-22.155-25-26.646-42.437s-6.7-36.018-14.362-51.82C269.116,113.4,242.18,99.2,217.078,102.874s-47.53,23.8-59.56,50.246-14.133,58.427-8.144,87.634c3.038,14.813,8.042,29,10.771,43.9s2.979,31.2-3.113,44.624c-12.739,28.061-46.347,31.974-63.946,56.039-14.525,19.861-14.981,50.171-6.738,74.6s23.735,44.242,39.181,63.1c72.045,2.878,145.381,3.069,217.426,5.948C370.954,530.074,401.807,519.61,429.775,517.652Z" transform="translate(-80.961 -91.343)" fill="#a4a4b4" opacity="0.354" style="mix-blend-mode: multiply;isolation: isolate"/>
      <path id="Trazado_151847" data-name="Trazado 151847" d="M359.209,164.3c-.083,11.093,8.34,20.748,6.874,31.688-.784,5.854-4.346,11.788-2.276,17.127,1.832,4.725,7.078,5.544,11.089,4.008,9.39-3.6,15.1-15.613,17.826-27.423,2.567-11.108,3.2-23.516-.907-33.872-3.313-8.343-10.957-15.709-18.719-15.027C365.987,141.423,359.272,155.942,359.209,164.3Z" transform="translate(-5.381 -27.63)" fill="#a4a4b4" opacity="0.31" style="mix-blend-mode: multiply;isolation: isolate"/>
      <path id="Trazado_151848" data-name="Trazado 151848" d="M115.715,141.218a57.153,57.153,0,0,0-1.338,59.885c3.443,5.8,8.092,11.2,14.37,14.422s14.377,3.942,20.625.671c9.476-4.961,11.572-16.661,10.818-26.65s-3.22-20.459.971-29.7c2.733-6.025,7.979-10.723,12.633-15.657s9-10.693,9.239-17.216c.623-16.908-18.937-15.645-30.726-12.133C137.257,119.322,123.874,128.724,115.715,141.218Z" transform="translate(-78.384 -94.66)" fill="#a4a4b4" opacity="0.31" style="mix-blend-mode: multiply;isolation: isolate"/>
      <g id="Grupo_107069" data-name="Grupo 107069" transform="translate(8.637 5.75)" style="mix-blend-mode: multiply;isolation: isolate">
        <path id="Trazado_151849" data-name="Trazado 151849" d="M424.293,524.851l-1.546-1.681c4.253-5.536,11.042-18.228,8.744-41.047-1.023-10.158-3.559-20.192-6.011-29.9-1.095-4.335-2.227-8.818-3.216-13.269-10.547-47.495-5.933-99.889,12.657-143.745,1.651-3.892,3.438-7.8,5.167-11.573,5.124-11.195,10.422-22.772,12.7-35.277,4-21.945-3.9-38.393-12.932-44.388-8.663-5.755-20.891-4.875-33.547,2.414a157.407,157.407,0,0,0-13.482,9.079c-5.751,4.168-11.7,8.477-18.083,11.528-25.121,12-56.529,1.8-73.055-23.726-7.943-12.268-12.428-27.094-16.764-41.434-1.68-5.556-3.418-11.3-5.329-16.8-5.944-17.093-16.822-38.549-34.893-43.681-15.878-4.512-31.961,5.4-42.654,14.516a123.968,123.968,0,0,0-40.608,66.483c-3.862,17.154-4.018,35.824-4.168,53.88-.224,26.889-.456,54.693-13.2,77.085-5.8,10.187-13.777,18.314-21.49,26.175-7.225,7.361-14.7,14.973-20.265,24.2C89.694,384.6,86.6,414.2,93.826,444.9c6.493,27.585,19.729,52.061,32.529,75.732L124.6,521.98c-12.883-23.824-26.206-48.46-32.784-76.407-7.4-31.435-4.19-61.809,8.8-83.333,5.716-9.471,13.285-17.181,20.6-24.639,7.61-7.753,15.478-15.771,21.119-25.679,12.4-21.771,12.613-47.971,12.844-75.711.152-18.212.308-37.042,4.241-54.5a126.514,126.514,0,0,1,41.411-67.864c11.047-9.413,27.709-19.642,44.357-14.912,18.93,5.376,30.211,27.521,36.34,45.152,1.931,5.552,3.677,11.326,5.365,16.909,4.282,14.157,8.709,28.8,16.452,40.756,15.976,24.678,46.336,34.538,70.62,22.935,6.223-2.973,12.095-7.228,17.774-11.342a158.657,158.657,0,0,1,13.657-9.195c13.278-7.645,26.208-8.5,35.478-2.348,9.682,6.43,18.18,23.91,13.958,47.093-2.342,12.856-7.713,24.592-12.909,35.943-1.721,3.759-3.5,7.645-5.135,11.5-18.363,43.319-22.92,95.07-12.5,141.984.979,4.411,2.107,8.873,3.2,13.189,2.478,9.805,5.04,19.944,6.086,30.316C435.967,505.632,428.786,519,424.293,524.851Z" transform="translate(-87.906 -97.739)" fill="#a4a4b4"/>
      </g>
    </g>
    <g id="Grupo_128935" data-name="Grupo 128935" transform="translate(219.635 1536.523)">
      <g id="Grupo_91555" data-name="Grupo 91555" transform="translate(0 0)">
        <path id="Trazado_150481" data-name="Trazado 150481" d="M593.251,563.542a19.812,19.812,0,0,1,19.813-19.812H781.55A17.455,17.455,0,0,1,798.982,560.3L811.419,804.57A12.872,12.872,0,0,1,798.8,818.094L605.691,821.6a12.218,12.218,0,0,1-12.44-12.216Z" transform="translate(-593.251 -506.733)" fill="#2a383e"/>
        <path id="Trazado_150482" data-name="Trazado 150482" d="M661.326,1864.242h-.006l-21.607-.28a13.326,13.326,0,0,1-13.1-13.274v-32.623a.461.461,0,1,1,.923,0v32.623a12.4,12.4,0,0,0,12.192,12.351l21.607.28a.461.461,0,0,1-.006.923Z" transform="translate(-620.663 -1553.524)" fill="#5c5e61"/>
        <path id="Trazado_150483" data-name="Trazado 150483" d="M627.07,1737.485a.461.461,0,0,1-.461-.461v-5.284a.461.461,0,1,1,.923,0v5.284A.461.461,0,0,1,627.07,1737.485Z" transform="translate(-620.663 -1482.587)" fill="#5c5e61"/>
        <g id="Grupo_91553" data-name="Grupo 91553" transform="translate(13.803 34.962)">
          <path id="Trazado_150484" data-name="Trazado 150484" d="M670.682,538.116a5.755,5.755,0,0,1,6.527-5.74c23.008,3.12,102.128,12.77,167.543,7.749a5.322,5.322,0,0,1,5.731,5.019l13.041,245.362a6.124,6.124,0,0,1-5.753,6.44c-27.512,1.628-140.817,7.922-181.232,3.689a4.852,4.852,0,0,1-4.341-4.8Z" transform="translate(-670.682 -532.322)" fill="#a4a4b4"/>
          <path id="Trazado_150485" data-name="Trazado 150485" d="M685.885,573.614a5.539,5.539,0,0,1,6.282-5.524c22.142,3,98.283,12.29,161.234,7.457a5.121,5.121,0,0,1,5.515,4.83L871.466,816.5a5.893,5.893,0,0,1-5.537,6.2c-26.476,1.567-135.515,7.624-174.407,3.55a4.669,4.669,0,0,1-4.178-4.621Z" transform="translate(-683.175 -561.672)" fill="url(#linear-gradient)"/>
          <g id="Grupo_91552" data-name="Grupo 91552" transform="translate(14.961 27.044)">
            <g id="Grupo_91531" data-name="Grupo 91531" transform="translate(13.74)" opacity="0.75">
              <path id="Trazado_150486" data-name="Trazado 150486" d="M831.791,689.514c.367,1.931,1.629,3.27,3.065,3.253l117.1-1.387c1.325-.016,2.385-1.534,2.356-3.375-.028-1.79-1.077-3.222-2.365-3.23l-117.1-.742C832.777,684.02,831.264,686.736,831.791,689.514Z" transform="translate(-831.686 -684.033)" fill="#2a383e"/>
            </g>
            <g id="Grupo_91536" data-name="Grupo 91536" transform="translate(0 19.535)">
              <g id="Grupo_91532" data-name="Grupo 91532" transform="translate(28.043)" opacity="0.6">
                <path id="Trazado_150487" data-name="Trazado 150487" d="M911.965,797.364c.151,1.319.672,2.234,1.266,2.223l48.344-.948c.547-.011.984-1.048.973-2.305-.012-1.222-.445-2.2-.976-2.207l-48.345-.507C912.372,793.611,911.747,795.467,911.965,797.364Z" transform="translate(-911.922 -793.62)" fill="#2a383e"/>
              </g>
              <g id="Grupo_91533" data-name="Grupo 91533" transform="translate(27.277 16.052)" opacity="0.6">
                <path id="Trazado_150488" data-name="Trazado 150488" d="M907.7,887.408a2.5,2.5,0,0,0,2.258,2.222l86.259-.948a2.071,2.071,0,0,0,1.735-2.305,2.042,2.042,0,0,0-1.742-2.206l-86.261-.507C908.427,883.655,907.312,885.511,907.7,887.408Z" transform="translate(-907.623 -883.664)" fill="#2a383e"/>
              </g>
              <g id="Grupo_91534" data-name="Grupo 91534" transform="translate(26.753 32.469)" opacity="0.6">
                <path id="Trazado_150489" data-name="Trazado 150489" d="M904.772,979.5a2.708,2.708,0,0,0,2.567,2.223l98.053-.948a2.276,2.276,0,0,0-.008-4.512l-98.056-.507A2.921,2.921,0,0,0,904.772,979.5Z" transform="translate(-904.684 -975.76)" fill="#2a383e"/>
              </g>
              <g id="Grupo_91535" data-name="Grupo 91535" transform="translate(0 7.277)">
                <path id="Trazado_150490" data-name="Trazado 150490" d="M771.02,873.8h-.033l-12.015-.115a3.23,3.23,0,0,1-3.3-2.747L754.62,860.86a2.19,2.19,0,0,1,.517-1.647,2.64,2.64,0,0,1,1.838-.907h0c1.012-.069,2.438-.19,3.947-.319,3.178-.271,7.133-.607,9.358-.635a3.359,3.359,0,0,1,3.365,2.353c.626,2.314.571,6.695.451,11.361A2.969,2.969,0,0,1,771.02,873.8Zm-13.981-14.577a1.71,1.71,0,0,0-1.2.58,1.276,1.276,0,0,0-.306.957l1.057,10.081a2.311,2.311,0,0,0,2.387,1.921l12.015.116h.024a2.047,2.047,0,0,0,2.155-1.839c.117-4.6.173-8.9-.42-11.1a2.479,2.479,0,0,0-2.462-1.671c-2.192.028-6.128.363-9.291.632-1.513.129-2.943.25-3.962.32Z" transform="translate(-754.608 -853.268)" fill="#fff"/>
                <path id="Trazado_150491" data-name="Trazado 150491" d="M768.355,867.989c2.524-.173,8.01-.73,10.612-.762a2.326,2.326,0,0,1,2.328,1.608c.5,1.856.436,5.557.349,8.973a2,2,0,0,1-2.113,1.829l-9.6-.092a2.218,2.218,0,0,1-2.271-1.865l-.844-8.056A1.559,1.559,0,0,1,768.355,867.989Z" transform="translate(-764.632 -861.383)" fill="#fff" opacity="0.75"/>
                <path id="Trazado_150492" data-name="Trazado 150492" d="M773.976,843.022h0a1.844,1.844,0,0,1,2.544.692l2.37,4.248a.592.592,0,0,0,1.057-.046l5.878-13.086a.656.656,0,0,1,1.255.283,25.837,25.837,0,0,1-7.518,17.98s-3.525-1.37-6.363-7.6A1.934,1.934,0,0,1,773.976,843.022Z" transform="translate(-769.742 -834.441)" fill="#008f85"/>
              </g>
            </g>
            <g id="Grupo_91541" data-name="Grupo 91541" transform="translate(0.575 76.055)">
              <g id="Grupo_91537" data-name="Grupo 91537" transform="translate(28.043)" opacity="0.6">
                <path id="Trazado_150493" data-name="Trazado 150493" d="M915.261,1114.422a3.317,3.317,0,0,0,3.273,2.223l125.021-.948a2.27,2.27,0,1,0-.01-4.512l-125.025-.507A3.08,3.08,0,0,0,915.261,1114.422Z" transform="translate(-915.148 -1110.678)" fill="#2a383e"/>
              </g>
              <g id="Grupo_91538" data-name="Grupo 91538" transform="translate(27.277 16.052)" opacity="0.6">
                <path id="Trazado_150494" data-name="Trazado 150494" d="M910.9,1204.466c.178,1.319.791,2.234,1.489,2.223l56.885-.948c.643-.011,1.158-1.048,1.144-2.305-.014-1.223-.523-2.2-1.149-2.207l-56.886-.507C911.38,1200.713,910.644,1202.569,910.9,1204.466Z" transform="translate(-910.849 -1200.722)" fill="#2a383e"/>
              </g>
              <g id="Grupo_91539" data-name="Grupo 91539" transform="translate(26.753 32.469)" opacity="0.6">
                <path id="Trazado_150495" data-name="Trazado 150495" d="M908,1296.563a2.708,2.708,0,0,0,2.567,2.222l98.054-.948a2.276,2.276,0,0,0-.008-4.512l-98.056-.507A2.921,2.921,0,0,0,908,1296.563Z" transform="translate(-907.91 -1292.818)" fill="#2a383e"/>
              </g>
              <g id="Grupo_91540" data-name="Grupo 91540" transform="translate(0 7.277)">
                <path id="Trazado_150496" data-name="Trazado 150496" d="M774.247,1190.862h-.033l-12.015-.115a3.229,3.229,0,0,1-3.3-2.747l-1.056-10.081a2.191,2.191,0,0,1,.517-1.648,2.639,2.639,0,0,1,1.838-.907h0c1.012-.069,2.438-.191,3.947-.319,3.178-.271,7.133-.607,9.358-.635a3.357,3.357,0,0,1,3.364,2.353c.626,2.314.571,6.695.452,11.361A2.969,2.969,0,0,1,774.247,1190.862Zm-13.981-14.578a1.711,1.711,0,0,0-1.2.581,1.274,1.274,0,0,0-.306.957l1.056,10.081a2.312,2.312,0,0,0,2.387,1.921l12.015.115h.024a2.047,2.047,0,0,0,2.154-1.839c.117-4.6.173-8.9-.421-11.1a2.478,2.478,0,0,0-2.462-1.672c-2.192.028-6.129.363-9.291.632-1.514.129-2.943.251-3.963.32Z" transform="translate(-757.835 -1170.326)" fill="#fff"/>
                <path id="Trazado_150497" data-name="Trazado 150497" d="M771.581,1185.047c2.524-.173,8.01-.729,10.612-.762a2.325,2.325,0,0,1,2.328,1.608c.5,1.857.436,5.557.349,8.973a2,2,0,0,1-2.113,1.829l-9.6-.093a2.217,2.217,0,0,1-2.271-1.865l-.844-8.056A1.559,1.559,0,0,1,771.581,1185.047Z" transform="translate(-767.858 -1178.44)" fill="#fff" opacity="0.75"/>
                <path id="Trazado_150498" data-name="Trazado 150498" d="M777.2,1160.08h0a1.844,1.844,0,0,1,2.544.692l2.37,4.248a.592.592,0,0,0,1.057-.046l5.878-13.086a.656.656,0,0,1,1.254.283,25.835,25.835,0,0,1-7.518,17.98s-3.525-1.37-6.363-7.6A1.934,1.934,0,0,1,777.2,1160.08Z" transform="translate(-772.968 -1151.5)" fill="#008f85"/>
              </g>
            </g>
            <g id="Grupo_91546" data-name="Grupo 91546" transform="translate(0.365 131.637)">
              <g id="Grupo_91542" data-name="Grupo 91542" transform="translate(28.043)" opacity="0.6">
                <path id="Trazado_150499" data-name="Trazado 150499" d="M914.079,1426.218a3.317,3.317,0,0,0,3.273,2.222l125.021-.948a2.27,2.27,0,1,0-.01-4.512l-125.025-.507A3.08,3.08,0,0,0,914.079,1426.218Z" transform="translate(-913.967 -1422.474)" fill="#2a383e"/>
              </g>
              <g id="Grupo_91543" data-name="Grupo 91543" transform="translate(27.277 16.052)" opacity="0.6">
                <path id="Trazado_150500" data-name="Trazado 150500" d="M909.745,1516.262a2.5,2.5,0,0,0,2.258,2.222l86.259-.948a2.071,2.071,0,0,0,1.735-2.305,2.042,2.042,0,0,0-1.742-2.207l-86.261-.507C910.472,1512.509,909.357,1514.365,909.745,1516.262Z" transform="translate(-909.668 -1512.518)" fill="#2a383e"/>
              </g>
              <g id="Grupo_91544" data-name="Grupo 91544" transform="translate(26.753 32.469)" opacity="0.6">
                <path id="Trazado_150501" data-name="Trazado 150501" d="M906.774,1608.358c.157,1.319.7,2.234,1.318,2.222l50.329-.948c.569-.01,1.025-1.048,1.012-2.305-.012-1.222-.463-2.2-1.016-2.206l-50.331-.507C907.2,1604.605,906.547,1606.461,906.774,1608.358Z" transform="translate(-906.728 -1604.614)" fill="#2a383e"/>
              </g>
              <g id="Grupo_91545" data-name="Grupo 91545" transform="translate(0 7.277)">
                <path id="Trazado_150502" data-name="Trazado 150502" d="M773.065,1502.658h-.033l-12.015-.115a3.23,3.23,0,0,1-3.3-2.747l-1.056-10.081a2.192,2.192,0,0,1,.517-1.648,2.64,2.64,0,0,1,1.839-.907h0c1.012-.069,2.438-.191,3.947-.319,3.178-.271,7.133-.607,9.358-.635a3.359,3.359,0,0,1,3.364,2.354c.626,2.314.571,6.695.452,11.361A2.97,2.97,0,0,1,773.065,1502.658Zm-13.982-14.577a1.709,1.709,0,0,0-1.195.58,1.274,1.274,0,0,0-.306.957l1.056,10.081a2.312,2.312,0,0,0,2.388,1.921l12.015.115h.024a2.047,2.047,0,0,0,2.154-1.839c.117-4.6.173-8.9-.42-11.1a2.479,2.479,0,0,0-2.462-1.671c-2.192.027-6.128.362-9.291.632-1.513.129-2.943.251-3.962.32Z" transform="translate(-756.653 -1482.122)" fill="#fff"/>
                <path id="Trazado_150503" data-name="Trazado 150503" d="M770.4,1496.843c2.524-.172,8.01-.729,10.612-.762a2.326,2.326,0,0,1,2.328,1.608c.5,1.857.436,5.558.348,8.974a2,2,0,0,1-2.113,1.828l-9.6-.092a2.218,2.218,0,0,1-2.271-1.865l-.844-8.056A1.56,1.56,0,0,1,770.4,1496.843Z" transform="translate(-766.677 -1490.237)" fill="#fff" opacity="0.75"/>
                <path id="Trazado_150504" data-name="Trazado 150504" d="M776.021,1471.876h0a1.844,1.844,0,0,1,2.544.692l2.37,4.248a.592.592,0,0,0,1.057-.046l5.878-13.086a.656.656,0,0,1,1.255.284,25.837,25.837,0,0,1-7.518,17.98s-3.525-1.37-6.363-7.6A1.934,1.934,0,0,1,776.021,1471.876Z" transform="translate(-771.787 -1463.296)" fill="#008f85"/>
              </g>
            </g>
            <g id="Grupo_91551" data-name="Grupo 91551" transform="translate(0.014 190.667)">
              <g id="Grupo_91547" data-name="Grupo 91547" transform="translate(28.043)" opacity="0.6">
                <path id="Trazado_150505" data-name="Trazado 150505" d="M912.114,1757.362a3.317,3.317,0,0,0,3.273,2.222l125.021-.948a2.27,2.27,0,1,0-.01-4.512l-125.024-.507A3.08,3.08,0,0,0,912.114,1757.362Z" transform="translate(-912.002 -1753.618)" fill="#2a383e"/>
              </g>
              <g id="Grupo_91548" data-name="Grupo 91548" transform="translate(27.277 16.052)" opacity="0.6">
                <path id="Trazado_150506" data-name="Trazado 150506" d="M907.781,1847.406a2.5,2.5,0,0,0,2.258,2.222l86.259-.948a2.07,2.07,0,0,0,1.735-2.305,2.042,2.042,0,0,0-1.742-2.207l-86.261-.507C908.507,1843.653,907.393,1845.508,907.781,1847.406Z" transform="translate(-907.703 -1843.662)" fill="#2a383e"/>
              </g>
              <g id="Grupo_91549" data-name="Grupo 91549" transform="translate(26.753 32.469)" opacity="0.6">
                <path id="Trazado_150507" data-name="Trazado 150507" d="M904.835,1939.5c.246,1.319,1.095,2.234,2.061,2.222l78.717-.948c.89-.01,1.6-1.047,1.583-2.3-.019-1.222-.724-2.2-1.59-2.206l-78.719-.507C905.5,1935.75,904.48,1937.6,904.835,1939.5Z" transform="translate(-904.764 -1935.759)" fill="#fff"/>
              </g>
              <g id="Grupo_91550" data-name="Grupo 91550" transform="translate(0 7.277)">
                <path id="Trazado_150508" data-name="Trazado 150508" d="M771.1,1833.8h-.033l-12.015-.115a3.23,3.23,0,0,1-3.3-2.747l-1.056-10.081a2.191,2.191,0,0,1,.517-1.648,2.639,2.639,0,0,1,1.839-.907h0c1.012-.069,2.438-.19,3.947-.319,3.178-.271,7.133-.607,9.358-.635a3.357,3.357,0,0,1,3.364,2.353c.626,2.314.571,6.695.452,11.361A2.969,2.969,0,0,1,771.1,1833.8Zm-13.981-14.577a1.711,1.711,0,0,0-1.2.58,1.275,1.275,0,0,0-.306.957l1.056,10.081a2.311,2.311,0,0,0,2.387,1.921l12.015.115h.024a2.047,2.047,0,0,0,2.155-1.838c.117-4.6.173-8.9-.42-11.1a2.479,2.479,0,0,0-2.462-1.672c-2.192.028-6.128.363-9.291.632-1.513.129-2.943.25-3.962.32Z" transform="translate(-754.689 -1813.266)" fill="#fff"/>
                <path id="Trazado_150509" data-name="Trazado 150509" d="M768.435,1827.987c2.524-.173,8.01-.73,10.612-.762a2.326,2.326,0,0,1,2.328,1.609c.5,1.856.436,5.557.349,8.973a2,2,0,0,1-2.113,1.828l-9.6-.092a2.218,2.218,0,0,1-2.271-1.865l-.844-8.056A1.559,1.559,0,0,1,768.435,1827.987Z" transform="translate(-764.712 -1821.38)" fill="#fff" opacity="0.75"/>
                <path id="Trazado_150510" data-name="Trazado 150510" d="M774.057,1803.02h0a1.844,1.844,0,0,1,2.544.692l2.37,4.248a.593.593,0,0,0,1.058-.047l5.878-13.086a.656.656,0,0,1,1.255.284,25.836,25.836,0,0,1-7.518,17.98s-3.525-1.37-6.363-7.6A1.934,1.934,0,0,1,774.057,1803.02Z" transform="translate(-769.822 -1794.44)" fill="#008f85"/>
              </g>
            </g>
          </g>
        </g>
        <path id="Trazado_150511" data-name="Trazado 150511" d="M1141.5,339.885c-6.086-4.234-11.378-4.15-15.1-3.051a7.43,7.43,0,0,0-5.277,7.812l1.607,17.535,19.117,1.7S1153.432,348.188,1141.5,339.885Zm-8.407,14.146a4.767,4.767,0,1,1,4.767-4.767A4.766,4.766,0,0,1,1133.09,354.031Z" transform="translate(-1026.991 -336.194)" fill="#333435"/>
        <g id="Grupo_91554" data-name="Grupo 91554" transform="translate(96.457 2.568)">
          <path id="Trazado_150512" data-name="Trazado 150512" d="M1135.527,366.64a.461.461,0,0,1-.459-.419l-.256-2.792a.461.461,0,1,1,.919-.084l.256,2.793a.462.462,0,0,1-.417.5Zm-.5-5.473a.461.461,0,0,1-.459-.419l-.194-2.12a7.092,7.092,0,0,1,5.028-7.442,14.29,14.29,0,0,1,6.987-.287.461.461,0,0,1-.186.9,13.389,13.389,0,0,0-6.54.268,6.168,6.168,0,0,0-4.371,6.473l.194,2.12a.461.461,0,0,1-.417.5Z" transform="translate(-1134.342 -350.598)" fill="#5c5e61"/>
        </g>
        <path id="Trazado_150513" data-name="Trazado 150513" d="M983.911,480.1v-8.816a5.38,5.38,0,0,1,5.564-5.377l60.783,2.083a5.232,5.232,0,0,1,5.044,4.916l.508,8.471Z" transform="translate(-914.271 -442.781)" fill="#333435"/>
        <path id="Trazado_150514" data-name="Trazado 150514" d="M1096.875,480.3h-2.614a.461.461,0,1,1,0-.923h2.614a.461.461,0,1,1,0,.923Z" transform="translate(-1004.57 -453.857)" fill="#5c5e61"/>
        <path id="Trazado_150515" data-name="Trazado 150515" d="M1000.24,488.407a.461.461,0,0,1-.461-.461v-3.566a5,5,0,0,1,5-5h9.61a.461.461,0,1,1,0,.923h-9.61a4.08,4.08,0,0,0-4.075,4.075v3.566A.461.461,0,0,1,1000.24,488.407Z" transform="translate(-927.31 -453.857)" fill="#5c5e61"/>
        <path id="Trazado_150516" data-name="Trazado 150516" d="M843.874,532.878a5.728,5.728,0,0,1,5.721-5.453l106.29,0a7.856,7.856,0,0,1,7.741,6.516l.09.52a6.747,6.747,0,0,1-6.648,7.9H848.021a4.386,4.386,0,0,1-4.382-4.6Z" transform="translate(-799 -493.333)" fill="#333435"/>
      </g>
    </g>
    <g id="Grupo_128936" data-name="Grupo 128936" transform="translate(277.851 1702.926)">
      <g id="Grupo_90783" data-name="Grupo 90783" transform="translate(14.8 12.933)">
        <g id="Grupo_90780" data-name="Grupo 90780" transform="translate(51.949 6.783)">
          <path id="Trazado_149804" data-name="Trazado 149804" d="M225.082,160.391a4.412,4.412,0,0,1-.958-.41c-3.728-2.088-7.079-4.085-7.113-4.1a.286.286,0,0,1,.293-.491c.033.02,3.379,2.012,7.1,4.1.872.489,1.541.564,1.988.225,1.09-.827.984-4.049.315-6.805-.85-3.508-6.058-5.168-8-5.072a17.781,17.781,0,0,0-4.325.865.286.286,0,0,1-.19-.54,18.028,18.028,0,0,1,4.487-.9c2.46-.121,7.717,1.93,8.584,5.509.532,2.2,1.02,6.223-.525,7.4A1.806,1.806,0,0,1,225.082,160.391Z" transform="translate(-214.002 -147.252)" fill="#efebe9"/>
        </g>
        <g id="Grupo_90781" data-name="Grupo 90781" transform="translate(0 8.142)">
          <path id="Trazado_149805" data-name="Trazado 149805" d="M110.236,161.242a17.293,17.293,0,0,1-1.867-.635c-2.881-1.176-4.737-2.941-5.516-5.247-.726-2.148-.67-3.6.172-4.439,1.682-1.674,6.059-.173,9.254.925.453.155.879.3,1.268.429,4.093,1.339,6.162.6,6.182.6a.286.286,0,1,1,.2.536c-.091.034-2.278.805-6.558-.589-.391-.127-.821-.275-1.276-.431-2.882-.989-7.235-2.484-8.665-1.061-.663.66-.675,1.955-.034,3.85.724,2.142,2.47,3.79,5.191,4.9,5.472,2.232,13.971,1.663,17.913-.339a.286.286,0,1,1,.259.51C123.116,162.1,115.861,162.816,110.236,161.242Z" transform="translate(-102.348 -150.173)" fill="#97e8ce"/>
        </g>
        <path id="Trazado_149806" data-name="Trazado 149806" d="M177.679,148.224l-3.495-7.851a.575.575,0,0,0-.351-.315c-1.711-.532-3.057-1.566-8.822-5.765-6.034-4.394-12.456,1.336-15.922,3.338-2.587,1.494-8.563,4.555-10.6,5.595a.579.579,0,0,0-.153.919l6.787,7.017a.582.582,0,0,0,.476.174c4.5-.431,4.945.944,11.242,1.8,6.424.872,10.5-.5,13.827-2.934a8.112,8.112,0,0,1,6.373-1.173A.579.579,0,0,0,177.679,148.224Z" transform="translate(-121.503 -132.674)" fill="#b2f2ef"/>
        <path id="Trazado_149807" data-name="Trazado 149807" d="M144.809,146.8a.793.793,0,0,1,.207-1.257c2.73-1.4,6.435-3.336,8.364-4.451.574-.331,1.205-.746,1.873-1.185,2.759-1.813,6.538-4.294,10.031-3.318a6.749,6.749,0,0,1,2.148,1.066l1.131.824c4.26,3.106,5.859,4.272,7.4,4.907a.789.789,0,0,1,.42.409l1.882,4.227a.8.8,0,0,1-.664,1.113,8.855,8.855,0,0,0-4.518,1.657c-3.44,2.524-7.32,3.331-12.58,2.616a34.483,34.483,0,0,1-5.03-1.045l-.663-.187a14.009,14.009,0,0,0-5.041-.642.793.793,0,0,1-.609-.241Z" transform="translate(-124.934 -134.651)" fill="#00a79e"/>
        <g id="Grupo_90782" data-name="Grupo 90782" transform="translate(20.157 3.106)">
          <path id="Trazado_149808" data-name="Trazado 149808" d="M153.957,144.7c.61-.353,1.279-.792,1.988-1.258,2.884-1.894,6.835-4.488,10.441-3.48a6.947,6.947,0,0,1,2.208,1.1l1.2.872c4.517,3.293,6.207,4.525,7.853,5.2a.189.189,0,0,0,.1.011l-.211-.476c-1.533-.688-3.265-1.95-7.515-5.049l-1.195-.871a7.31,7.31,0,0,0-2.33-1.155c-3.773-1.056-7.807,1.594-10.754,3.53-.7.462-1.368.9-1.969,1.246-1.863,1.077-5.3,2.874-8.1,4.319l.277.287C148.733,147.534,152.11,145.763,153.957,144.7Z" transform="translate(-145.671 -139.351)" fill="#008f85"/>
          <path id="Trazado_149809" data-name="Trazado 149809" d="M180.953,152.621c-1.6-.662-3.283-1.886-7.775-5.161l-1.2-.871a7.312,7.312,0,0,0-2.329-1.155c-3.773-1.056-7.808,1.594-10.761,3.534-.7.46-1.363.895-1.962,1.241-1.6.927-4.372,2.389-6.9,3.7l.276.286c2.5-1.3,5.223-2.737,6.812-3.655.609-.352,1.275-.789,1.988-1.258,2.885-1.895,6.835-4.489,10.441-3.481a6.932,6.932,0,0,1,2.207,1.1l1.2.873c4.516,3.292,6.206,4.523,7.851,5.2a.188.188,0,0,0,.249-.1A.191.191,0,0,0,180.953,152.621Z" transform="translate(-148.004 -142.475)" fill="#008f85"/>
          <path id="Trazado_149810" data-name="Trazado 149810" d="M175.145,152.433a7.314,7.314,0,0,0-2.33-1.156c-3.773-1.055-7.807,1.595-10.761,3.535-.7.46-1.363.894-1.962,1.24-1.354.782-3.536,1.945-5.7,3.077l.009.009a.8.8,0,0,0,.385.216c2.1-1.1,4.186-2.213,5.5-2.972.609-.351,1.275-.789,1.989-1.258,2.884-1.895,6.835-4.489,10.441-3.48a6.931,6.931,0,0,1,2.208,1.1l1.2.871c2.322,1.693,3.9,2.84,5.1,3.648q.256-.068.509-.12c-1.233-.809-2.867-2-5.387-3.838Z" transform="translate(-150.334 -145.6)" fill="#008f85"/>
          <path id="Trazado_149811" data-name="Trazado 149811" d="M181.418,158.276a7.306,7.306,0,0,0-2.329-1.156c-3.773-1.055-7.808,1.594-10.753,3.529-.7.462-1.367.9-1.969,1.246-.5.289-1.115.631-1.8,1,.179.044.358.091.539.14.544-.3,1.038-.574,1.452-.814.612-.354,1.28-.792,1.988-1.257,2.885-1.895,6.835-4.489,10.441-3.481a6.94,6.94,0,0,1,2.207,1.1l1.2.873c.878.639,1.647,1.2,2.332,1.7.127-.069.253-.134.381-.2-.723-.522-1.544-1.12-2.491-1.81Z" transform="translate(-155.775 -148.724)" fill="#008f85"/>
          <path id="Trazado_149812" data-name="Trazado 149812" d="M186.621,164.119a7.332,7.332,0,0,0-2.33-1.156c-3.773-1.055-7.807,1.594-10.753,3.53-.273.179-.537.352-.8.52.171.037.348.073.531.11l.476-.312c2.884-1.894,6.834-4.488,10.44-3.48a6.932,6.932,0,0,1,2.208,1.1l1.171.853c.111-.074.221-.153.331-.231l-.082-.06Z" transform="translate(-160.146 -151.849)" fill="#008f85"/>
        </g>
      </g>
      <g id="Grupo_90787" data-name="Grupo 90787" transform="translate(31.669 21.542)">
        <g id="Grupo_90784" data-name="Grupo 90784" transform="translate(51.949 6.783)">
          <path id="Trazado_149813" data-name="Trazado 149813" d="M261.339,178.893a4.41,4.41,0,0,1-.957-.41c-3.728-2.088-7.079-4.084-7.113-4.1a.286.286,0,0,1,.293-.492c.033.02,3.379,2.013,7.1,4.1.872.488,1.541.564,1.988.225,1.09-.827.984-4.049.316-6.805-.85-3.508-6.058-5.168-8-5.072a17.747,17.747,0,0,0-4.325.865.286.286,0,0,1-.19-.54,18.04,18.04,0,0,1,4.487-.9c2.46-.121,7.717,1.93,8.584,5.509.532,2.2,1.02,6.223-.526,7.4A1.8,1.8,0,0,1,261.339,178.893Z" transform="translate(-250.258 -165.754)" fill="#efebe9"/>
        </g>
        <g id="Grupo_90785" data-name="Grupo 90785" transform="translate(0 8.142)">
          <path id="Trazado_149814" data-name="Trazado 149814" d="M146.493,179.744a17.074,17.074,0,0,1-1.867-.635c-2.881-1.176-4.737-2.941-5.517-5.247-.726-2.148-.67-3.6.173-4.439,1.681-1.674,6.058-.173,9.254.925.452.155.879.3,1.268.428,4.093,1.34,6.162.6,6.183.6a.286.286,0,0,1,.2.537c-.091.033-2.278.8-6.559-.59-.391-.127-.821-.275-1.276-.431-2.882-.988-7.235-2.484-8.665-1.061-.663.66-.675,1.956-.034,3.85.723,2.142,2.47,3.79,5.191,4.9,5.472,2.232,13.97,1.663,17.913-.339a.286.286,0,1,1,.259.51C159.372,180.6,152.118,181.317,146.493,179.744Z" transform="translate(-138.604 -168.675)" fill="#9de2f5"/>
        </g>
        <path id="Trazado_149815" data-name="Trazado 149815" d="M213.936,166.726l-3.5-7.851a.571.571,0,0,0-.35-.315c-1.711-.532-3.057-1.566-8.822-5.765-6.034-4.394-12.457,1.336-15.921,3.338-2.587,1.494-8.563,4.555-10.6,5.595a.579.579,0,0,0-.154.919l6.788,7.018a.584.584,0,0,0,.476.174c4.5-.431,4.945.943,11.242,1.8,6.424.872,10.5-.5,13.827-2.934a8.111,8.111,0,0,1,6.373-1.173A.579.579,0,0,0,213.936,166.726Z" transform="translate(-157.759 -151.176)" fill="#b2f2ef"/>
        <path id="Trazado_149816" data-name="Trazado 149816" d="M181.066,165.3a.793.793,0,0,1,.207-1.257c2.73-1.4,6.435-3.336,8.365-4.45.574-.332,1.2-.746,1.873-1.185,2.759-1.812,6.538-4.294,10.031-3.318a6.745,6.745,0,0,1,2.147,1.066l1.131.824c4.26,3.105,5.859,4.271,7.4,4.906a.789.789,0,0,1,.42.409l1.882,4.227a.8.8,0,0,1-.664,1.113,8.855,8.855,0,0,0-4.518,1.657c-3.44,2.524-7.32,3.331-12.581,2.617a34.563,34.563,0,0,1-5.03-1.045l-.663-.186a14.011,14.011,0,0,0-5.041-.642.792.792,0,0,1-.609-.24Z" transform="translate(-161.191 -153.153)" fill="#00a79e"/>
        <g id="Grupo_90786" data-name="Grupo 90786" transform="translate(20.157 3.107)">
          <path id="Trazado_149817" data-name="Trazado 149817" d="M190.213,163.2c.61-.353,1.279-.792,1.989-1.258,2.884-1.895,6.834-4.489,10.441-3.481a6.937,6.937,0,0,1,2.207,1.1l1.2.871c4.517,3.293,6.208,4.525,7.853,5.2a.184.184,0,0,0,.1.011l-.212-.476c-1.533-.688-3.265-1.95-7.515-5.049l-1.195-.871a7.32,7.32,0,0,0-2.329-1.155c-3.773-1.055-7.808,1.594-10.754,3.53-.7.462-1.368.9-1.969,1.246-1.863,1.077-5.3,2.874-8.1,4.32l.277.286C184.989,166.036,188.367,164.266,190.213,163.2Z" transform="translate(-181.927 -157.853)" fill="#008f85"/>
          <path id="Trazado_149818" data-name="Trazado 149818" d="M217.209,171.123c-1.6-.662-3.283-1.886-7.775-5.161l-1.195-.87a7.307,7.307,0,0,0-2.33-1.156c-3.773-1.055-7.807,1.595-10.761,3.534-.7.46-1.362.895-1.961,1.241-1.6.927-4.372,2.389-6.9,3.7l.277.286c2.5-1.3,5.223-2.737,6.812-3.655.609-.351,1.274-.789,1.988-1.257,2.884-1.9,6.835-4.489,10.441-3.481a6.935,6.935,0,0,1,2.207,1.1l1.2.873c4.516,3.292,6.205,4.524,7.851,5.2a.187.187,0,0,0,.249-.1A.191.191,0,0,0,217.209,171.123Z" transform="translate(-184.26 -160.977)" fill="#008f85"/>
          <path id="Trazado_149819" data-name="Trazado 149819" d="M211.4,170.935a7.314,7.314,0,0,0-2.329-1.156c-3.773-1.055-7.808,1.594-10.762,3.535-.7.46-1.362.895-1.961,1.24-1.353.782-3.536,1.945-5.7,3.077l.009.009a.791.791,0,0,0,.384.215c2.1-1.1,4.186-2.213,5.5-2.972.609-.351,1.274-.789,1.989-1.258,2.884-1.895,6.834-4.489,10.441-3.48a6.94,6.94,0,0,1,2.207,1.1l1.2.871c2.322,1.693,3.9,2.84,5.1,3.649.17-.045.341-.085.509-.12-1.233-.809-2.867-2-5.387-3.838Z" transform="translate(-186.59 -164.102)" fill="#008f85"/>
          <path id="Trazado_149820" data-name="Trazado 149820" d="M217.675,176.778a7.316,7.316,0,0,0-2.33-1.155c-3.773-1.056-7.807,1.594-10.753,3.529-.7.462-1.367.9-1.969,1.246-.5.289-1.115.631-1.8,1,.179.044.358.091.539.14.544-.3,1.038-.574,1.452-.813.612-.354,1.28-.793,1.988-1.258,2.884-1.895,6.835-4.489,10.441-3.481a6.945,6.945,0,0,1,2.207,1.1l1.2.873c.877.64,1.647,1.2,2.331,1.7q.19-.1.381-.2c-.723-.522-1.543-1.12-2.491-1.81Z" transform="translate(-192.031 -167.227)" fill="#008f85"/>
          <path id="Trazado_149821" data-name="Trazado 149821" d="M222.878,182.621a7.313,7.313,0,0,0-2.329-1.155c-3.773-1.055-7.807,1.594-10.753,3.529-.273.179-.538.352-.8.52.171.037.347.074.531.11l.476-.312c2.885-1.894,6.835-4.488,10.441-3.48a6.931,6.931,0,0,1,2.207,1.1l1.171.853c.111-.074.221-.153.331-.231l-.082-.06Z" transform="translate(-196.403 -170.351)" fill="#008f85"/>
        </g>
      </g>
      <g id="Grupo_90795" data-name="Grupo 90795" transform="translate(0 0.001)">
        <g id="Grupo_90788" data-name="Grupo 90788" transform="translate(16.533 6.631)">
          <rect id="Rectángulo_33170" data-name="Rectángulo 33170" width="6.553" height="6.553" transform="translate(8.266 6.228) rotate(161.881)" fill="#cfd8dc"/>
          <rect id="Rectángulo_33171" data-name="Rectángulo 33171" width="4.456" height="6.553" transform="matrix(-0.95, 0.311, -0.311, -0.95, 7.269, 6.554)" fill="#37474f"/>
          <rect id="Rectángulo_33172" data-name="Rectángulo 33172" width="1.782" height="6.553" transform="translate(5.999 6.97) rotate(161.882)" fill="#fff"/>
        </g>
        <path id="Trazado_149822" data-name="Trazado 149822" d="M94.754,106.178l1.728,5.281a1.888,1.888,0,0,1-1.207,2.381l-8.669,2.836a1.887,1.887,0,0,1-2.38-1.206l-.456-1.4a1.887,1.887,0,0,0-2.381-1.206l-10.263,3.358-.587-1.794,21.836-9.462A1.888,1.888,0,0,1,94.754,106.178Z" transform="translate(-70.538 -104.877)" fill="#fff"/>
        <g id="Grupo_90790" data-name="Grupo 90790" transform="translate(15.678 11.156)">
          <rect id="Rectángulo_33173" data-name="Rectángulo 33173" width="12.057" height="4.613" rx="1.662" transform="translate(0 3.75) rotate(-18.119)" fill="#37474f"/>
          <g id="Grupo_90789" data-name="Grupo 90789" transform="translate(1.256 1.038)">
            <path id="Trazado_149823" data-name="Trazado 149823" d="M126.017,131.11a.5.5,0,0,1,.628.319l.717,2.192a.5.5,0,0,1-.947.31l-.717-2.192A.5.5,0,0,1,126.017,131.11Z" transform="translate(-116.954 -131.086)" fill="#2a383e"/>
            <path id="Trazado_149824" data-name="Trazado 149824" d="M122.269,132.336a.5.5,0,0,1,.628.319l.717,2.192a.5.5,0,1,1-.947.31l-.717-2.192A.5.5,0,0,1,122.269,132.336Z" transform="translate(-114.95 -131.741)" fill="#2a383e"/>
            <path id="Trazado_149825" data-name="Trazado 149825" d="M118.521,133.563a.5.5,0,0,1,.628.318l.717,2.192a.5.5,0,0,1-.947.31l-.717-2.192A.5.5,0,0,1,118.521,133.563Z" transform="translate(-112.946 -132.397)" fill="#2a383e"/>
            <path id="Trazado_149826" data-name="Trazado 149826" d="M114.773,134.789a.5.5,0,0,1,.628.319l.717,2.192a.5.5,0,1,1-.947.31l-.717-2.192A.5.5,0,0,1,114.773,134.789Z" transform="translate(-110.942 -133.053)" fill="#2a383e"/>
            <path id="Trazado_149827" data-name="Trazado 149827" d="M111.025,136.016a.5.5,0,0,1,.628.319l.717,2.192a.5.5,0,1,1-.947.309l-.717-2.192A.5.5,0,0,1,111.025,136.016Z" transform="translate(-108.938 -133.709)" fill="#2a383e"/>
            <path id="Trazado_149828" data-name="Trazado 149828" d="M107.277,137.242a.5.5,0,0,1,.628.318l.717,2.192a.5.5,0,0,1-.946.31l-.717-2.192A.5.5,0,0,1,107.277,137.242Z" transform="translate(-106.934 -134.365)" fill="#2a383e"/>
          </g>
        </g>
        <path id="Trazado_149829" data-name="Trazado 149829" d="M75.529,113.04c2.567-.762,5.15-1.707,7.827-1.634a2.371,2.371,0,0,1,1.336.338,6.522,6.522,0,0,1,.931,1.138,3.031,3.031,0,0,0,2.467.884,8.967,8.967,0,0,0,2.612-.7,5.242,5.242,0,0,0,2.8-1.848c1.223-2.009.255-4.358-1.409-6.127l.277-.12a1.888,1.888,0,0,1,2.381,1.207l1.728,5.281a1.888,1.888,0,0,1-1.207,2.381l-8.669,2.836a1.887,1.887,0,0,1-2.38-1.206l-.456-1.4a1.887,1.887,0,0,0-2.381-1.206l-10.263,3.358-.587-1.794,1.3-.564A23.41,23.41,0,0,0,75.529,113.04Z" transform="translate(-70.538 -104.877)" fill="#cfd8dc"/>
        <g id="Grupo_90792" data-name="Grupo 90792" transform="translate(11.676 15.981)">
          <g id="Grupo_90791" data-name="Grupo 90791">
            <path id="Trazado_149830" data-name="Trazado 149830" d="M95.882,157.959c-1.761-7.6,6.418-15.827,6.418-15.827l2.335-.764,4.213-1.379,2.335-.764s11.461,1.8,14.53,8.973,7.718,28.57,6.039,31.188c-.819,1.275-4.109,3.6-8.251,5.384q-.253.108-.509.213a22.871,22.871,0,0,1-3.171,1.038q-.267.066-.532.128c-4.392,1.014-8.423,1.078-9.838.535C106.546,185.565,97.645,165.558,95.882,157.959Z" transform="translate(-95.633 -139.225)" fill="#cfd8dc"/>
            <path id="Trazado_149831" data-name="Trazado 149831" d="M122.566,185.876c.5-.162.991-.344,1.472-.542q.247-.1.49-.205c4.04-1.735,7.013-3.922,7.63-4.851.342-.76.231-4.878-1.474-13.181a104.309,104.309,0,0,0-4.66-16.752c-2.469-5.768-11.4-7.763-13.182-8.107l-8.227,2.692c-1.231,1.327-7.259,8.218-5.842,14.332a104.427,104.427,0,0,0,6.144,16.266c3.534,7.705,5.879,11.092,6.6,11.5,1.044.385,4.736.392,9.023-.6q.253-.059.511-.123C121.562,186.185,122.07,186.038,122.566,185.876Z" transform="translate(-97.198 -140.837)" fill="#fff"/>
          </g>
          <path id="Trazado_149832" data-name="Trazado 149832" d="M125.109,180.314c-2.887-7.944-5.673-16.1-6.932-20.306a35.9,35.9,0,0,1-1.205-14.946l2.879-.942a35.871,35.871,0,0,1,7.862,12.768c1.468,4.131,4.045,12.359,6.412,20.476,1.1,3.757,1.939,6.774,2.567,9.119-.621.311-1.272.616-1.945.9q-.253.108-.509.213a22.883,22.883,0,0,1-3.171,1.038q-.267.066-.532.128c-.715.165-1.42.3-2.105.421C127.549,186.924,126.446,183.992,125.109,180.314Z" transform="translate(-106.88 -141.842)" fill="#bdbdbd"/>
        </g>
        <g id="Grupo_90794" data-name="Grupo 90794" transform="translate(14.43 30.463)">
          <path id="Trazado_149833" data-name="Trazado 149833" d="M106.547,192.815a76.039,76.039,0,0,0,27.048-8.85l-3.785-13.612a76.123,76.123,0,0,1-28.256,9.246Z" transform="translate(-101.553 -170.352)" fill="#ebfdff"/>
          <g id="Grupo_90793" data-name="Grupo 90793" transform="translate(11.913 7.793)">
            <path id="Trazado_149834" data-name="Trazado 149834" d="M127.158,191.557q1.281-.336,2.548-.717l-.864-2.59q1.77-.531,3.512-1.149l.834,2.6q1.247-.442,2.479-.928.556,1.785,1.105,3.542-1.219.479-2.452.916l.8,2.5q-1.694.6-3.415,1.117l-.83-2.489q-1.252.377-2.518.711Z" transform="translate(-127.158 -187.101)" fill="#0090b8"/>
          </g>
        </g>
      </g>
      <g id="Grupo_90798" data-name="Grupo 90798" transform="translate(3.067 31.904)">
        <path id="Trazado_149835" data-name="Trazado 149835" d="M90.7,207.832,99.472,308.72a6.062,6.062,0,0,0,6.039,5.537h56.436a6.062,6.062,0,0,0,6.04-5.537l8.774-100.888Z" transform="translate(-84.385 -191.834)" fill="#d93328"/>
        <path id="Trazado_149836" data-name="Trazado 149836" d="M162.443,224.689H110.21a8.114,8.114,0,0,0-8.083,8.817l7.267,78.286a3.982,3.982,0,0,0,3.967,3.637h52.107a3.981,3.981,0,0,0,3.981-3.982l-3.024-82.776A3.982,3.982,0,0,0,162.443,224.689Z" transform="translate(-90.48 -200.848)" fill="#b42218"/>
        <path id="Trazado_149837" data-name="Trazado 149837" d="M132.4,328.535H121.921a2.6,2.6,0,0,0-2.594,2.829l2.839,32.65a2.6,2.6,0,0,0,3.663,2.146q3.794-1.725,7.962-3.29a3.981,3.981,0,0,0,2.587-3.724V332.513A3.978,3.978,0,0,0,132.4,328.535Z" transform="translate(-99.689 -256.377)" fill="#d93328"/>
        <path id="Trazado_149838" data-name="Trazado 149838" d="M173.585,173.447H79.363a2.453,2.453,0,0,0-2.232,2.65l.115,10.763a2.442,2.442,0,0,0,2.232,2.585H173.47a2.443,2.443,0,0,0,2.233-2.585l.115-10.763A2.454,2.454,0,0,0,173.585,173.447Z" transform="translate(-77.131 -173.447)" fill="#b42218"/>
        <g id="Grupo_90796" data-name="Grupo 90796" transform="translate(4.219 4.187)">
          <path id="Trazado_149839" data-name="Trazado 149839" d="M119.5,182.447H87.585a1.386,1.386,0,0,0-1.386,1.4l.052,4.85a1.387,1.387,0,0,0,1.386,1.372h8.98a.726.726,0,0,0,.533-.22c2.343-2.5,10.716-4.654,22.424-5.982a.716.716,0,0,0,.636-.708h0A.714.714,0,0,0,119.5,182.447Z" transform="translate(-86.199 -182.447)" fill="#d93328"/>
        </g>
        <g id="Grupo_90797" data-name="Grupo 90797" transform="translate(24.016 30.512)">
          <path id="Trazado_149840" data-name="Trazado 149840" d="M184.56,266c-.542-.314-1.079-.588-1.568-.931a.707.707,0,0,1-.2-.6,3.037,3.037,0,0,0-2.079-3.515c-.151-.044-.359-.23-.368-.361-.04-.593-.018-1.191-.018-1.776a10.043,10.043,0,0,0,1.9-19.766c2.6-.248,7.249,3.019,9.138,6.464a13.254,13.254,0,0,1,.762,11.29,13.232,13.232,0,0,1,10.637,17.059c.645-5.987-1.482-10.3-7.356-11.963C191,260.651,187.381,262.336,184.56,266Z" transform="translate(-156.326 -239.034)" fill="#f8f8f8"/>
          <path id="Trazado_149841" data-name="Trazado 149841" d="M176.81,309.484a13.171,13.171,0,0,1-20.272-.5,13.137,13.137,0,0,1-12.253,4.719,12.314,12.314,0,0,1-7.489-3.925c4.4,3.138,8.909,3.556,13.167,0,3.855-3.215,4.367-7.431,2.551-12.068.52-.305,1.043-.637,1.594-.914a.63.63,0,0,1,.5.136,2.991,2.991,0,0,0,3.982,0,.664.664,0,0,1,.566-.068c.536.266,1.043.591,1.566.9-2.026,5.221-1.206,9.786,3.565,12.938C168.626,313.572,172.914,312.752,176.81,309.484Z" transform="translate(-133.052 -269.911)" fill="#f8f8f8"/>
          <path id="Trazado_149842" data-name="Trazado 149842" d="M147.674,265.916a10.146,10.146,0,0,0-12.2-3.815,9.886,9.886,0,0,0-5.173,4.8,10.329,10.329,0,0,0-.782,6.952c-2.441-5.7.886-15.631,10.373-17.2-3.261-9.363,3.584-16.837,9.99-17.635a10.4,10.4,0,0,0-5.651,3.832,9.767,9.767,0,0,0-1.935,6.591,10.136,10.136,0,0,0,9.385,9.362c0,.587.028,1.186-.018,1.778a.711.711,0,0,1-.392.441,3.034,3.034,0,0,0-1.9,3.447.716.716,0,0,1-.222.573C148.693,265.369,148.193,265.619,147.674,265.916Z" transform="translate(-128.748 -239.027)" fill="#f8f8f8"/>
          <path id="Trazado_149843" data-name="Trazado 149843" d="M160.09,302.185a12.462,12.462,0,0,1-7.6-12.374c.02-.389.127-.6.561-.482.728.191,1.472.332,2.179.578a.879.879,0,0,1,.464.656,9.312,9.312,0,0,0,4.786,8.255.72.72,0,0,1,.327.555C160.61,300.3,160.348,301.2,160.09,302.185Z" transform="translate(-141.433 -265.909)" fill="#f8f8f8"/>
          <path id="Trazado_149844" data-name="Trazado 149844" d="M196.51,289.375a12.282,12.282,0,0,1-7.484,12.955c-.247-.973-.51-1.922-.706-2.883-.027-.134.243-.387.428-.5a9.235,9.235,0,0,0,4.513-6.328,10.565,10.565,0,0,0,.182-1.857c.009-.363.094-.6.457-.694C194.752,289.845,195.6,289.617,196.51,289.375Z" transform="translate(-160.602 -265.95)" fill="#f8f8f8"/>
          <path id="Trazado_149845" data-name="Trazado 149845" d="M178.205,268.114c-.72.7-1.385,1.377-2.087,2.011a.637.637,0,0,1-.577.007,9.362,9.362,0,0,0-9.665-.009.69.69,0,0,1-.629-.03c-.689-.617-1.335-1.281-2-1.936C166.828,265.052,173.451,264.432,178.205,268.114Z" transform="translate(-147.194 -253.228)" fill="#f8f8f8"/>
        </g>
      </g>
    </g>
    <g id="Grupo_128934" data-name="Grupo 128934" transform="translate(363.395 1530.412)">
      <g id="Grupo_128932" data-name="Grupo 128932" transform="translate(0 0)">
        <path id="Rectángulo_35713" data-name="Rectángulo 35713" d="M4.333,0H28.562a4.333,4.333,0,0,1,4.333,4.333v59.19a0,0,0,0,1,0,0H0a0,0,0,0,1,0,0V4.333A4.333,4.333,0,0,1,4.333,0Z" transform="translate(20.251 255.871)" fill="#db8804"/>
        <path id="Trazado_165975" data-name="Trazado 165975" d="M243.243,319.724h0A17.225,17.225,0,0,1,226.019,302.5V277.291a13.641,13.641,0,0,0-13.642-13.642H201.914A11.411,11.411,0,0,0,190.5,275.06v52.271a7.286,7.286,0,0,0,7.286,7.286H243.7a7.466,7.466,0,0,0,7.339-8.719A7.774,7.774,0,0,0,243.243,319.724Z" transform="translate(-126.123 -7.777)" fill="#db8804"/>
        <path id="Trazado_165976" data-name="Trazado 165976" d="M176.014,282.284c-.862,11.376,2.718,21.056,10.361,29.526-14.167,33.815-15.233,75.569,1.793,106.02,5.991,10.715,21.7,10.351,26.7-.86a102.362,102.362,0,0,0,8.025-52.062,46.1,46.1,0,0,0,8.548,22.275,37.907,37.907,0,0,0-2.642,26.906c4.221,15.51,25.873,16.286,31.532,1.242,12.872-34.2,5.823-76.726-15.422-108.7a35.037,35.037,0,0,0,5.116-30.888,79.606,79.606,0,0,0-12.045-48.756,32.351,32.351,0,0,0-1.747-29.722,27.017,27.017,0,0,0-2.572-29.506c-7.5-9.518-22.773-7.04-27.321,4.2a35.1,35.1,0,0,0-2.549,14.232A42.584,42.584,0,0,0,186.7,215.135h0a18.854,18.854,0,0,0-19.334,16.374l-1.78,13.506C162.906,265.324,172.248,276.725,176.014,282.284Z" transform="translate(-164.57 -161.875)" fill="url(#linear-gradient-2)"/>
        <path id="Trazado_165977" data-name="Trazado 165977" d="M211.049,180.566a23.823,23.823,0,0,1-9.217,17.169,11.42,11.42,0,0,1-17.991-5.629A22.016,22.016,0,0,1,186.9,172.86l20.784,5.569Z" transform="translate(-137.702 -145.241)" fill="#868695"/>
        <path id="Trazado_165978" data-name="Trazado 165978" d="M176.537,222.682a.484.484,0,0,1-.206-.045.508.508,0,0,1-.259-.671,39.9,39.9,0,0,0-1.659-35.8.506.506,0,1,1,.88-.5A40.921,40.921,0,0,1,177,222.383.5.5,0,0,1,176.537,222.682Z" transform="translate(-150.586 -126.242)" fill="#241414"/>
        <path id="Trazado_165979" data-name="Trazado 165979" d="M200.911,194.739a39.153,39.153,0,0,1-23.738-8.01.507.507,0,0,1-.1-.712.516.516,0,0,1,.709-.1,38.146,38.146,0,0,0,26.333,7.671l.043,0a.507.507,0,0,1,.045,1.013Q202.553,194.74,200.911,194.739Z" transform="translate(-146.611 -125.618)" fill="#241414"/>
        <path id="Trazado_165980" data-name="Trazado 165980" d="M186.8,228.181a27.7,27.7,0,0,1-10.778-2.195.511.511,0,0,1-.269-.666.517.517,0,0,1,.666-.269,26.456,26.456,0,0,0,25.7-2.778,10.159,10.159,0,0,0,4.38-9.383,10.44,10.44,0,0,0-6.341-8.546,25.423,25.423,0,0,0-8.837-2.127c-.5-.03-1-.043-1.5-.043a25.444,25.444,0,0,0-18.921,8.4.5.5,0,0,1-.716.035.508.508,0,0,1-.035-.717,26.587,26.587,0,0,1,30.421-6.479,11.457,11.457,0,0,1,6.939,9.373,11.167,11.167,0,0,1-4.8,10.31A27.538,27.538,0,0,1,186.8,228.181Z" transform="translate(-157.136 -102.389)" fill="#241414"/>
        <path id="Trazado_165981" data-name="Trazado 165981" d="M176.166,222.638a.508.508,0,0,1-.028-1.016l46.913-2.527a.54.54,0,0,1,.536.48.51.51,0,0,1-.478.536l-46.916,2.527Z" transform="translate(-148.599 -75.237)" fill="#1d272b"/>
        <path id="Trazado_165982" data-name="Trazado 165982" d="M176.319,224.915a.508.508,0,0,1-.028-1.016l46.916-2.524a.542.542,0,0,1,.535.48.514.514,0,0,1-.48.536l-46.916,2.524Z" transform="translate(-148.364 -71.784)" fill="#1d272b"/>
        <path id="Trazado_165983" data-name="Trazado 165983" d="M190.189,262.525a.6.6,0,0,1-.131-.015.508.508,0,0,1-.36-.618,56.966,56.966,0,0,0-2.436-36.067.505.505,0,1,1,.933-.39,57.951,57.951,0,0,1,2.486,36.714A.507.507,0,0,1,190.189,262.525Z" transform="translate(-131.087 -66.11)" fill="#1d272b"/>
        <path id="Trazado_165984" data-name="Trazado 165984" d="M192.662,262.525a.6.6,0,0,1-.131-.015.508.508,0,0,1-.36-.618,57,57,0,0,0-2.436-36.067.507.507,0,1,1,.935-.39,58.037,58.037,0,0,1,2.484,36.714A.507.507,0,0,1,192.662,262.525Z" transform="translate(-127.343 -66.11)" fill="#1d272b"/>
        <path id="Trazado_165985" data-name="Trazado 165985" d="M239.422,185.925H199.391L184.9,245.156h40.031Z" transform="translate(-134.604 -125.46)" fill="#241414"/>
        <path id="Trazado_165986" data-name="Trazado 165986" d="M187.679,230.846a.5.5,0,0,1-.292-.093.51.51,0,0,1-.126-.706,31.082,31.082,0,0,0,5.544-19.3.511.511,0,0,1,.48-.533h.028a.508.508,0,0,1,.505.483,32.086,32.086,0,0,1-5.725,19.937A.506.506,0,0,1,187.679,230.846Z" transform="translate(-131.166 -88.689)" fill="#1d272b"/>
        <path id="Trazado_165987" data-name="Trazado 165987" d="M190.267,230.846a.489.489,0,0,1-.289-.093.509.509,0,0,1-.128-.706,31.082,31.082,0,0,0,5.544-19.3.515.515,0,0,1,.48-.533h.028a.512.512,0,0,1,.508.483,32.089,32.089,0,0,1-5.727,19.937A.506.506,0,0,1,190.267,230.846Z" transform="translate(-127.247 -88.689)" fill="#1d272b"/>
        <path id="Trazado_165988" data-name="Trazado 165988" d="M219.187,179.9l-.852,3.693A166.979,166.979,0,0,1,190.7,177.1c-3.653-1.177-7.263-2.476-10.876-3.937l.407-3.814c3.691,1.5,7.464,2.841,11.238,4.058A174.951,174.951,0,0,0,219.187,179.9Z" transform="translate(-142.287 -150.551)" fill="#1d272b"/>
        <path id="Trazado_165989" data-name="Trazado 165989" d="M195.478,186.56a.494.494,0,0,1-.121-.013.505.505,0,0,1-.372-.613,25.467,25.467,0,0,0-5.275-22.283.509.509,0,0,1,.06-.714.516.516,0,0,1,.717.06,26.479,26.479,0,0,1,5.481,23.175A.5.5,0,0,1,195.478,186.56Z" transform="translate(-127.501 -160.442)" fill="#1d272b"/>
        <path id="Trazado_165990" data-name="Trazado 165990" d="M193.673,186.1a.65.65,0,0,1-.118-.013.5.5,0,0,1-.372-.613,25.445,25.445,0,0,0-5.275-22.283.51.51,0,0,1,.06-.717.519.519,0,0,1,.717.063,26.461,26.461,0,0,1,5.481,23.173A.5.5,0,0,1,193.673,186.1Z" transform="translate(-130.231 -161.144)" fill="#1d272b"/>
        <path id="Trazado_165991" data-name="Trazado 165991" d="M212.652,177.458l-.852,3.693c-1.337,5.762-9.82,9.659-10.589.447-7.386,9.292-17.652,2.393-17.043-6.939a13.666,13.666,0,0,1,.769-3.693A174.951,174.951,0,0,0,212.652,177.458Z" transform="translate(-135.753 -148.108)" fill="#1d272b"/>
        <path id="Trazado_165992" data-name="Trazado 165992" d="M187.679,192.26a.5.5,0,0,1-.437-.251.506.506,0,0,1,.179-.694,16.2,16.2,0,0,0,7.977-13.75.507.507,0,0,1,.508-.5h0a.5.5,0,0,1,.5.513,17.218,17.218,0,0,1-8.475,14.614A.512.512,0,0,1,187.679,192.26Z" transform="translate(-131.167 -138.879)" fill="#1d272b"/>
        <path id="Trazado_165993" data-name="Trazado 165993" d="M196.767,199.072c-.9,3.661-15.276,6.688-15.472,16.206s20.958,5.051,20.958,5.051,4.183-1.149,1.317-4.063a2.182,2.182,0,0,0,2.353-2.157c0-1.8-2.838-1.39-2.838-1.39,3.439-.659,3.623-3.291,2.122-3.691s-9.428,1.745-10.874-.005,9.267-.764,9.594-3.618-8.385-1.327-8.385-1.327Z" transform="translate(-140.065 -105.554)" fill="#db8804"/>
        <path id="Trazado_165994" data-name="Trazado 165994" d="M185.056,203.983a.5.5,0,0,1-.395-.191.5.5,0,0,1,.083-.714,10.173,10.173,0,0,1,4.319-2,.523.523,0,0,1,.6.4.513.513,0,0,1-.4.6,9.209,9.209,0,0,0-3.892,1.8A.507.507,0,0,1,185.056,203.983Z" transform="translate(-135.135 -102.527)" fill="#1d272b"/>
        <path id="Trazado_165995" data-name="Trazado 165995" d="M189.251,206.137a30.837,30.837,0,0,1-3.9-.246.507.507,0,1,1,.128-1.006,30.053,30.053,0,0,0,10.393-.5.519.519,0,0,1,.606.385.51.51,0,0,1-.385.606A30.955,30.955,0,0,1,189.251,206.137Z" transform="translate(-134.601 -97.529)" fill="#1d272b"/>
        <path id="Trazado_165996" data-name="Trazado 165996" d="M188.968,207.68a32.549,32.549,0,0,1-3.527-.191.507.507,0,0,1-.448-.561.468.468,0,0,1,.558-.45,31.285,31.285,0,0,0,10.758-.684.514.514,0,0,1,.611.375.5.5,0,0,1-.372.613A32.441,32.441,0,0,1,188.968,207.68Z" transform="translate(-134.469 -95.393)" fill="#1d272b"/>
        <path id="Trazado_165997" data-name="Trazado 165997" d="M205.143,300.847H178.594a7.469,7.469,0,0,1-7.447-7.447h0a7.469,7.469,0,0,1,7.447-7.447h26.549a7.467,7.467,0,0,1,7.444,7.447h0A7.467,7.467,0,0,1,205.143,300.847Z" transform="translate(-155.428 25.994)" fill="#db8804"/>
        <path id="Trazado_165998" data-name="Trazado 165998" d="M178.353,307.3a.506.506,0,0,1-.505-.508V268.846a.507.507,0,0,1,1.013,0v37.945A.508.508,0,0,1,178.353,307.3Z" transform="translate(-145.282 -0.673)" fill="#1d272b"/>
        <path id="Trazado_165999" data-name="Trazado 165999" d="M181.083,307.3a.506.506,0,0,1-.505-.508V268.846a.507.507,0,0,1,1.013,0v37.945A.508.508,0,0,1,181.083,307.3Z" transform="translate(-141.149 -0.673)" fill="#1d272b"/>
        <path id="Trazado_166000" data-name="Trazado 166000" d="M178.353,297.884a.506.506,0,0,1-.505-.508V287.6a.507.507,0,1,1,1.013,0v9.777A.508.508,0,0,1,178.353,297.884Z" transform="translate(-145.282 27.717)" fill="#1d272b"/>
        <path id="Trazado_166001" data-name="Trazado 166001" d="M181.083,297.884a.506.506,0,0,1-.505-.508V287.6a.507.507,0,1,1,1.013,0v9.777A.508.508,0,0,1,181.083,297.884Z" transform="translate(-141.149 27.717)" fill="#1d272b"/>
        <path id="Trazado_166002" data-name="Trazado 166002" d="M226.8,321.143a22.974,22.974,0,0,1-22.974-22.976V272.958a7.831,7.831,0,0,0-2.315-5.579.518.518,0,0,1,0-.719.511.511,0,0,1,.722,0,8.859,8.859,0,0,1,2.607,6.3v25.209A21.961,21.961,0,0,0,226.8,320.127a.508.508,0,1,1,0,1.016Z" transform="translate(-109.678 -3.444)" fill="#1d272b"/>
        <path id="Trazado_166003" data-name="Trazado 166003" d="M185.786,269.811a16.753,16.753,0,0,1-10.157-3.691.507.507,0,0,1,.611-.81c6.134,4.649,13.083,4.626,19.067-.058a.517.517,0,0,1,.714.086.508.508,0,0,1-.088.714A16.4,16.4,0,0,1,185.786,269.811Z" transform="translate(-148.949 -5.507)" fill="#241414"/>
        <path id="Trazado_166004" data-name="Trazado 166004" d="M203.492,270.981a18.943,18.943,0,0,1-10.956-3.914.507.507,0,0,1,.586-.827c7.552,5.345,14.984,4.9,22.1-1.327a.507.507,0,0,1,.666.764C211.846,269.211,207.7,270.981,203.492,270.981Z" transform="translate(-123.367 -6.056)" fill="#241414"/>
        <path id="Trazado_166005" data-name="Trazado 166005" d="M192.16,254.806a.508.508,0,0,1-.463-.709l2.2-5.051a.506.506,0,1,1,.928.4l-1.664,3.821,2.673-1.247a.507.507,0,1,1,.427.92l-3.884,1.813A.491.491,0,0,1,192.16,254.806Z" transform="translate(-124.379 -30.35)" fill="#241414"/>
        <path id="Trazado_166006" data-name="Trazado 166006" d="M191.56,276.885a.517.517,0,0,1-.493-.375,38.261,38.261,0,0,1,1-23.351.509.509,0,0,1,.651-.3.5.5,0,0,1,.3.651,37.249,37.249,0,0,0-.963,22.735.509.509,0,0,1-.357.624A.628.628,0,0,1,191.56,276.885Z" transform="translate(-127.33 -24.163)" fill="#241414"/>
        <path id="Trazado_166007" data-name="Trazado 166007" d="M179.1,317.894a.508.508,0,0,1-.46-.294c-12.2-26.4-12.779-61.183-1.556-93.04a.509.509,0,0,1,.96.337c-11.14,31.615-10.574,66.111,1.516,92.278a.5.5,0,0,1-.244.671A.519.519,0,0,1,179.1,317.894Z" transform="translate(-158.583 -67.47)" fill="#241414"/>
        <path id="Trazado_166008" data-name="Trazado 166008" d="M213.78,312.134l-1.051-.246c6.705-28.171,1.4-61.42-14.18-88.942l.933-.53C215.2,250.169,220.543,283.71,213.78,312.134Z" transform="translate(-113.937 -70.208)" fill="#1d272b"/>
        <path id="Trazado_166009" data-name="Trazado 166009" d="M185.69,285.9l-.983-.437a99.119,99.119,0,0,0,8.442-36.879l1.076.038A100.188,100.188,0,0,1,185.69,285.9Z" transform="translate(-134.897 -30.587)" fill="#fff"/>
        <path id="Trazado_166010" data-name="Trazado 166010" d="M175.894,266.434c-.287-.42-.6-.87-.94-1.358-4.224-6.049-12.078-17.3-9.579-36.284l1.78-13.5a19.325,19.325,0,0,1,19.208-16.855h.189a43.182,43.182,0,0,1,13.659-25.893l.722.794a42.085,42.085,0,0,0-13.375,25.717l-.063.485-.488-.018c-.214-.007-.43-.01-.644-.01a18.249,18.249,0,0,0-18.139,15.919l-1.783,13.5c-2.444,18.564,5.257,29.6,9.4,35.527.344.49.664.948.948,1.37Z" transform="translate(-164.895 -145.723)" fill="#1d272b"/>
      </g>
      <g id="Grupo_128933" data-name="Grupo 128933" transform="translate(85.843 8.448)">
        <path id="Trazado_166011" data-name="Trazado 166011" d="M245.651,231.048a56.188,56.188,0,0,1-27.751-24.2,13.6,13.6,0,0,1,.395-14.491A75.673,75.673,0,0,1,245.651,168.3l17,52.741Z" transform="translate(-204.849 -160.593)" fill="#fff"/>
        <path id="Trazado_166012" data-name="Trazado 166012" d="M235.528,319.724h0A17.223,17.223,0,0,0,252.752,302.5V277.291a13.641,13.641,0,0,1,13.642-13.642H276.86a11.413,11.413,0,0,1,11.412,11.411v52.271a7.288,7.288,0,0,1-7.286,7.286h-45.91a7.467,7.467,0,0,1-7.341-8.719A7.774,7.774,0,0,1,235.528,319.724Z" transform="translate(-187.25 -16.226)" fill="#db8804"/>
        <path id="Trazado_166013" data-name="Trazado 166013" d="M277.261,205.74q2.078.965,4.05,2.089c18.589,10.564,23.819,34.725,12.573,52.909a59.356,59.356,0,0,0-8.593,37.081,42.286,42.286,0,0,1,5.7,48.952,79.187,79.187,0,0,1,7.975,54.149c-3.811,18.2-26.909,23.69-39.022,9.584a116.743,116.743,0,0,1-23.864-107.44,70.722,70.722,0,0,1,2.026-78.279,52.611,52.611,0,0,1-15.155-45.7c2.182-14.036,20.452-18.348,28.776-6.836a50.9,50.9,0,0,1,6.886,13.285A26.406,26.406,0,0,1,277.261,205.74Z" transform="translate(-195.278 -164.62)" fill="url(#linear-gradient-2)"/>
        <path id="Trazado_166014" data-name="Trazado 166014" d="M235.366,178.062a13.771,13.771,0,0,1,4.274,23.766l-11.072-2.2-6.243-12.47,2.421-7.537Z" transform="translate(-195.278 -145.814)" fill="#868695"/>
        <path id="Trazado_166015" data-name="Trazado 166015" d="M231.268,223.011A.507.507,0,0,1,231.21,222l34.383-3.982a.523.523,0,0,1,.563.445.506.506,0,0,1-.443.561l-34.385,3.982Z" transform="translate(-182.504 -85.321)" fill="#1d272b"/>
        <path id="Trazado_166016" data-name="Trazado 166016" d="M231.268,225.581a.507.507,0,0,1-.058-1.011l34.383-3.982a.515.515,0,0,1,.563.445.5.5,0,0,1-.443.561l-34.385,3.982Z" transform="translate(-182.504 -81.432)" fill="#1d272b"/>
        <path id="Trazado_166017" data-name="Trazado 166017" d="M247.289,303.064a.511.511,0,0,1-.42-.219,105.24,105.24,0,0,1-16.98-77.3.506.506,0,1,1,1,.168,104.227,104.227,0,0,0,16.822,76.555.507.507,0,0,1-.133.706A.5.5,0,0,1,247.289,303.064Z" transform="translate(-186.09 -74.559)" fill="#1d272b"/>
        <path id="Trazado_166018" data-name="Trazado 166018" d="M233.2,191.476a.515.515,0,0,1-.307-.1.505.505,0,0,1-.1-.709,23.743,23.743,0,0,1,23.424-9.013.508.508,0,1,1-.2,1,22.734,22.734,0,0,0-22.418,8.623A.5.5,0,0,1,233.2,191.476Z" transform="translate(-179.578 -141.031)" fill="#241414"/>
        <path id="Trazado_166019" data-name="Trazado 166019" d="M227.134,213.323a.643.643,0,0,1-.151-.023.5.5,0,0,1-.332-.634A67.9,67.9,0,0,1,240.394,187.9a.509.509,0,0,1,.769.666,66.933,66.933,0,0,0-13.546,24.4A.5.5,0,0,1,227.134,213.323Z" transform="translate(-188.764 -131.183)" fill="#1d272b"/>
        <path id="Trazado_166020" data-name="Trazado 166020" d="M234.22,232.838a.5.5,0,0,1-.44-.256,68.148,68.148,0,0,1-7.909-21.775.505.505,0,0,1,.407-.586.489.489,0,0,1,.591.41,67.089,67.089,0,0,0,7.791,21.448.5.5,0,0,1-.191.691A.488.488,0,0,1,234.22,232.838Z" transform="translate(-189.921 -97.139)" fill="#1d272b"/>
        <path id="Trazado_166021" data-name="Trazado 166021" d="M231.076,321.143a.508.508,0,1,1,0-1.016,21.97,21.97,0,0,0,21.961-21.961V272.958a8.848,8.848,0,0,1,2.607-6.3.511.511,0,0,1,.722,0,.517.517,0,0,1,0,.719,7.821,7.821,0,0,0-2.315,5.579v25.209a22.983,22.983,0,0,1-22.974,22.976Z" transform="translate(-182.797 -11.893)" fill="#1d272b"/>
        <path id="Trazado_166022" data-name="Trazado 166022" d="M230.276,166.638c9.694-4.691,19.65,3.2,16.643,11.633a3.489,3.489,0,0,1-5.478,1.554c-1.77-1.476-3.271-3.781-1.752-6.957A16.054,16.054,0,0,0,230.276,166.638Z" transform="translate(-183.239 -165.235)" fill="#fff"/>
        <path id="Trazado_166023" data-name="Trazado 166023" d="M224.821,186.387a.505.505,0,0,1-.483-.354A18.925,18.925,0,0,1,228.53,167.5a.508.508,0,0,1,.747.689,17.917,17.917,0,0,0-3.972,17.538.505.505,0,0,1-.483.659Z" transform="translate(-193.541 -162.049)" fill="#1d272b"/>
        <path id="Trazado_166024" data-name="Trazado 166024" d="M259.065,176.364,223.386,189.25l-1.359-5.7L257.2,171.7Z" transform="translate(-195.73 -155.446)" fill="#1d272b"/>
        <path id="Trazado_166025" data-name="Trazado 166025" d="M223.385,185.095c2.781,10.667,16.3,12.374,13.33-10.65l-14.687,4.95Z" transform="translate(-195.729 -151.29)" fill="#1d272b"/>
        <path id="Trazado_166026" data-name="Trazado 166026" d="M226.382,190.369a.5.5,0,0,1-.274-.08.508.508,0,0,1-.156-.7,16.431,16.431,0,0,0,1.84-13.664.505.505,0,1,1,.965-.3,17.43,17.43,0,0,1-1.948,14.5A.5.5,0,0,1,226.382,190.369Z" transform="translate(-189.905 -150.035)" fill="#fff"/>
        <path id="Trazado_166027" data-name="Trazado 166027" d="M240.454,205.519c-8.422,1.926-14.72-12.075-28.03-4.214a1.441,1.441,0,0,0,.862,2.675,9.225,9.225,0,0,0,2.124-.453c3.253-1.116,7.311,1.069,7.311,1.069a13.277,13.277,0,0,0-10.773,2.745.966.966,0,0,0,.641,1.735,25.813,25.813,0,0,1,5.976.327s-2.486,1.016-4.8,4.923A.966.966,0,0,0,215,215.7a24.882,24.882,0,0,1,5.408-1.775,18.268,18.268,0,0,0-2.665,2.569.966.966,0,0,0,1.164,1.5c3.731-1.868,6.821-2.73,10.486-1.345,4.759,1.8,10.1-1.167,10.1-1.167l1.262-10.054Z" transform="translate(-211.567 -114.28)" fill="#db8804"/>
        <path id="Trazado_166028" data-name="Trazado 166028" d="M215.159,204.793a.518.518,0,0,1-.412-.209.51.51,0,0,1,.116-.709,10.476,10.476,0,0,1,6.117-1.991.539.539,0,0,1,.563.508.508.508,0,0,1-.508.508h-.055a9.465,9.465,0,0,0-5.524,1.8A.5.5,0,0,1,215.159,204.793Z" transform="translate(-206.897 -109.745)" fill="#1d272b"/>
        <path id="Trazado_166029" data-name="Trazado 166029" d="M215.835,206.421a.508.508,0,0,1-.284-.928,9.971,9.971,0,0,1,6.079-1.788.5.5,0,0,1,.493.518.507.507,0,0,1-.505.5,2.258,2.258,0,0,1-.226,0,9.362,9.362,0,0,0-5.27,1.617A.519.519,0,0,1,215.835,206.421Z" transform="translate(-205.873 -107.001)" fill="#1d272b"/>
        <path id="Trazado_166030" data-name="Trazado 166030" d="M268.308,183.727a35.7,35.7,0,0,0-6.062,40.993,54.623,54.623,0,0,0-29.3-2.821c-14.537,2.6-14.956,23.517-.465,26.358a82.268,82.268,0,0,0,38.675-1.694,28.008,28.008,0,0,0,18.107-16.576A60.187,60.187,0,0,0,292.4,195.84Z" transform="translate(-196.037 -137.236)" fill="url(#linear-gradient-2)"/>
        <path id="Trazado_166031" data-name="Trazado 166031" d="M248.593,250.6a82.6,82.6,0,0,1-15.9-1.539,13.438,13.438,0,0,1-11.067-13.624,13.736,13.736,0,0,1,11.545-13.73,55.1,55.1,0,0,1,28.372,2.4,36.216,36.216,0,0,1,6.713-40.422.513.513,0,0,1,.719-.015.5.5,0,0,1,.01.714A35.222,35.222,0,0,0,263,224.794a.5.5,0,0,1-.075.568.518.518,0,0,1-.558.133,54.234,54.234,0,0,0-29.028-2.793,12.742,12.742,0,0,0-10.705,12.742c-.04,4.887,2.617,11.125,10.25,12.621a82.2,82.2,0,0,0,38.431-1.687A27.641,27.641,0,0,0,289.1,230.1a59.474,59.474,0,0,0,3.107-33.857.509.509,0,0,1,1-.2,60.542,60.542,0,0,1-3.163,34.433A28.657,28.657,0,0,1,271.6,247.354,83.045,83.045,0,0,1,248.593,250.6Z" transform="translate(-196.344 -137.54)" fill="#241414"/>
        <path id="Trazado_166032" data-name="Trazado 166032" d="M242.59,180.232h-.028a3.841,3.841,0,0,1-2.258-.893c-2.489-2.079-3.183-4.6-2.009-7.293a15.72,15.72,0,0,0-7.153-5.249.505.505,0,0,1-.3-.649.5.5,0,0,1,.651-.3,16.161,16.161,0,0,1,7.814,5.878.5.5,0,0,1,.028.488c-1.134,2.371-.586,4.505,1.619,6.348a2.829,2.829,0,0,0,1.664.659.507.507,0,0,1-.028,1.013Z" transform="translate(-182.43 -164.36)" fill="#241414"/>
        <path id="Trazado_166033" data-name="Trazado 166033" d="M222.791,180.9a.505.505,0,0,1-.5-.445,35.423,35.423,0,0,1,.028-7.535.5.5,0,0,1,.5-.463l.045,0a.5.5,0,0,1,.46.551,34.443,34.443,0,0,0-.028,7.319.508.508,0,0,1-.44.566Z" transform="translate(-195.629 -154.296)" fill="#241414"/>
        <path id="Trazado_166034" data-name="Trazado 166034" d="M227.134,199.637a.506.506,0,0,1-.246-.063.513.513,0,0,1-.2-.691c.116-.2,2.642-4.729,4.246-6.949l-3.422-3.723a.506.506,0,1,1,.744-.686l3.706,4.033a.516.516,0,0,1,.033.654c-1.526,1.991-4.392,7.115-4.42,7.168A.5.5,0,0,1,227.134,199.637Z" transform="translate(-188.764 -131.736)" fill="#241414"/>
        <path id="Trazado_166035" data-name="Trazado 166035" d="M240.278,205.145a.506.506,0,0,1-.49-.385l-.975-3.887a.513.513,0,0,1,.171-.518.5.5,0,0,1,.543-.06l6.024,2.914a.509.509,0,0,1,.234.676.5.5,0,0,1-.679.236l-5.043-2.441.709,2.833a.5.5,0,0,1-.37.613A.416.416,0,0,1,240.278,205.145Z" transform="translate(-170.338 -112.231)" fill="#241414"/>
        <path id="Trazado_166036" data-name="Trazado 166036" d="M250.2,269.217a23.992,23.992,0,0,1-9.732-2.152.506.506,0,0,1,.412-.925c7.188,3.16,14.353,2.675,21.287-1.463a.509.509,0,0,1,.525.872A24.19,24.19,0,0,1,250.2,269.217Z" transform="translate(-168.269 -14.777)" fill="#241414"/>
        <path id="Trazado_166037" data-name="Trazado 166037" d="M249.105,241.337a.508.508,0,0,1-.143-1l2.615-.759-5.053-2.627a.507.507,0,1,1,.468-.9l6.175,3.213a.509.509,0,0,1-.091.938l-3.829,1.111A.545.545,0,0,1,249.105,241.337Z" transform="translate(-159.052 -58.094)" fill="#241414"/>
        <path id="Trazado_166038" data-name="Trazado 166038" d="M255.469,263.634a.529.529,0,0,1-.194-.038.509.509,0,0,1-.274-.664,41.941,41.941,0,0,0-7.7-44.07.508.508,0,0,1,.754-.681,42.953,42.953,0,0,1,7.884,45.141A.5.5,0,0,1,255.469,263.634Z" transform="translate(-157.663 -85.324)" fill="#241414"/>
        <path id="Trazado_166039" data-name="Trazado 166039" d="M253.51,287.236l-1-.4a22.6,22.6,0,0,0,1.167-3.844,78.872,78.872,0,0,0-1.79-39.218l1.026-.314a79.937,79.937,0,0,1,1.815,39.751A23.706,23.706,0,0,1,253.51,287.236Z" transform="translate(-150.516 -46.797)" fill="#1d272b"/>
        <path id="Trazado_166040" data-name="Trazado 166040" d="M260.4,271.452l-1.069-.128a60.39,60.39,0,0,1,8.52-24.264,38.68,38.68,0,0,0,4.634-29.752,35.661,35.661,0,0,0-17.01-22.408c-1.3-.739-2.645-1.436-4.01-2.069l-.249-.116-.05-.266a25.949,25.949,0,0,0-11.957-17.038l.556-.92a27.024,27.024,0,0,1,12.4,17.481c1.31.616,2.6,1.287,3.844,1.991a36.744,36.744,0,0,1,17.523,23.08,39.755,39.755,0,0,1-4.762,30.584A59.279,59.279,0,0,0,260.4,271.452Z" transform="translate(-169.709 -151.222)" fill="#1d272b"/>
      </g>
    </g>
    <g id="Grupo_129290" data-name="Grupo 129290" transform="translate(328.728 1452.918)">
      <text id="PRODUCTOS" transform="translate(9.098 30.646)" fill="#008f85" font-size="29" font-family="Roboto-Bold, Roboto" font-weight="700"><tspan x="0" y="0">PRODUCTOS</tspan></text>
      <text id="QUÍMICOS_INORGANICOS" data-name="QUÍMICOS INORGANICOS" transform="translate(9.699 49.005)" fill="#1d272b" font-size="18" font-family="Roboto-Bold, Roboto" font-weight="700"><tspan x="0" y="0">QUÍMICOS INORGANICOS</tspan></text>
      <rect id="Rectángulo_34968" data-name="Rectángulo 34968" width="4.849" height="58.192" fill="#d93328"/>
    </g>
  </g>
</svg>
