<svg xmlns="http://www.w3.org/2000/svg" width="100.052" height="114.338" viewBox="0 0 100.052 114.338">
  <g id="Grupo_134284" data-name="Grupo 134284" transform="translate(-275 -3759.861)">
    <path id="Trazado_170527" data-name="Trazado 170527" d="M-603.559,217.5a2.567,2.567,0,0,1,1.138,2.465c-.055,3.162-.022,6.326-.026,9.49,0,1.539-.264,1.909-1.717,2.442-.079,1.191.253,1.593,1.417,1.713a16.1,16.1,0,0,1,14.591,16.1q.013,37.291.011,74.581a7.106,7.106,0,0,1-7.541,7.542q-17.473,0-34.946,0c-4.554,0-7.535-2.984-7.535-7.541q0-37.29,0-74.581a16.111,16.111,0,0,1,14.6-16.1c1.166-.119,1.494-.517,1.411-1.714-1.45-.529-1.714-.9-1.716-2.44,0-3.163.029-6.327-.026-9.49a2.559,2.559,0,0,1,1.138-2.465Zm-31.019,96.482v1.212q0,4.465,0,8.93c0,2.708,1.4,4.108,4.126,4.111q17.247.017,34.494.022c2.867,0,4.227-1.359,4.227-4.236q0-19.256,0-38.513,0-17.805-.009-35.611a12.543,12.543,0,0,0-12.249-12.762,3.224,3.224,0,0,1-1.676-.685c-1.431-1.1-2.525-2.422-2.181-4.425.008-.048-.08-.112-.111-.153h-10.5c-.016.328-.036.581-.039.835a4.734,4.734,0,0,1-4.268,4.491,12.245,12.245,0,0,0-10.916,7.925c-1.553,3.741-.664,7.69-.932,11.655h1.47q17.638,0,35.276.01c2.068,0,2.574.5,2.574,2.543q0,26.066,0,52.132c0,1.995-.516,2.518-2.485,2.518l-32.373,0Zm35.611-3.614V260.44h-35.548v49.926Zm-7.152-82.2v-7.027h-14.09v7.027Z" transform="translate(963.198 3542.363)" fill="#1d272b"/>
    <path id="Trazado_170528" data-name="Trazado 170528" d="M-813.895,465.247c0-5.32.023-10.641-.011-15.961a4.93,4.93,0,0,1,2.94-4.833c.7-.337.652-.791.652-1.338q0-10.212,0-20.425a5.287,5.287,0,0,1,5.6-5.577q8.761-.015,17.523,0a5.261,5.261,0,0,1,5.443,5.509q.012,10.213-.008,20.425a1.4,1.4,0,0,0,.878,1.541,4.611,4.611,0,0,1,2.7,4.4q.013,16.24,0,32.48a5.258,5.258,0,0,1-5.319,5.3q-12.556.022-25.113,0a5.259,5.259,0,0,1-5.279-5.339c-.015-5.395,0-10.789,0-16.184Zm3.6-12.432h1.208l19.528.011c1.911,0,2.486.554,2.487,2.418q.006,10.1,0,20.2c0,1.86-.581,2.415-2.49,2.417l-19.528.012h-1.205c0,.968,0,1.748,0,2.529,0,2.317.47,2.794,2.8,2.8q11.717.007,23.434,0c1.664,0,2.317-.625,2.317-2.258q.006-15.678,0-31.357c0-1.562-.57-2.1-2.18-2.1l-9.262.005c-5.059,0-10.117,0-15.176.013-1.327,0-1.912.6-1.933,1.893C-810.307,450.474-810.294,451.552-810.294,452.815Zm19.537,21.408V456.5h-19.5v17.721Zm5.413-37.367H-806.65v6.95h21.306Zm-19.612-3.694c0-2.852,0-5.6,0-8.343,0-1.757.585-2.35,2.318-2.352q6.473,0,12.945,0c2.121,0,2.6.479,2.6,2.622,0,2.668,0,5.336,0,8.025h1.785c0-3.452.009-6.832,0-10.211-.006-1.574-.656-2.212-2.256-2.214q-8.481-.012-16.963,0c-1.534,0-2.2.648-2.206,2.146-.014,3.2-.009,6.4,0,9.6a5.279,5.279,0,0,0,.1.731Zm3.661-.112h10.507v-6.872H-801.3Z" transform="translate(1099.611 3387.418)" fill="#1d272b"/>
    <path id="Trazado_170529" data-name="Trazado 170529" d="M-808.155,249.487h-3.574q0-.928,0-1.852c0-2.791.01-5.582,0-8.372,0-1.581-.65-2.222-2.242-2.222q-20.987-.006-41.974,0c-1.587,0-2.228.644-2.229,2.233q-.008,10.27,0,20.54c0,1.586.646,2.231,2.231,2.233,6.586.006,13.173.039,19.759-.026a3.814,3.814,0,0,1,3.409,1.437c.336.441.718.848,1.29,1.517.058-.662.071-.965.113-1.264a1.663,1.663,0,0,1,1.666-1.638c5.351-.036,10.7-.017,16.123-.017v3.5h-14.227c0,1.22-.02,2.321.006,3.42a1.77,1.77,0,0,1-1.117,1.87,1.826,1.826,0,0,1-2.118-.544c-1.254-1.271-2.557-2.5-3.773-3.8a2.6,2.6,0,0,0-2.123-.9c-6.363.041-12.726.024-19.089.021a5.31,5.31,0,0,1-5.72-5.691q-.012-10.549-.008-21.1a5.294,5.294,0,0,1,5.374-5.363q21.322,0,42.643.006a5.289,5.289,0,0,1,5.575,5.611q.009,4.688,0,9.377Z" transform="translate(1136.749 3529.969)" fill="#1d272b"/>
    <path id="Trazado_170530" data-name="Trazado 170530" d="M-773.936,274.322c0-2.268-.005-4.536,0-6.8,0-1.489.615-2.119,2.069-2.124q4.183-.014,8.366,0c1.408,0,2.063.632,2.067,2.017q.016,6.916,0,13.831a1.759,1.759,0,0,1-1.962,2.009q-4.294.022-8.589,0c-1.319-.007-1.946-.663-1.953-2.013-.011-2.305,0-4.61,0-6.916Zm3.657-5.309v10.615h5.214V269.013Z" transform="translate(1068.59 3505.189)" fill="#00978e"/>
    <path id="Trazado_170531" data-name="Trazado 170531" d="M-828.653,268.992h-5.509l-.121,1.684h-3.487a39.108,39.108,0,0,1,.035-3.937,1.537,1.537,0,0,1,1.657-1.357c3.01-.016,6.02-.026,9.029,0a1.669,1.669,0,0,1,1.745,1.762,34.153,34.153,0,0,1-.02,3.565,3.382,3.382,0,0,1-.612,1.493,30.164,30.164,0,0,0-4.332,8.719c-.19.714-.3,1.449-.465,2.25h-3.673a23.093,23.093,0,0,1,1.006-4.3c1.211-2.731,2.682-5.346,4.024-8.019C-829.109,270.321-828.94,269.74-828.653,268.992Z" transform="translate(1118.162 3505.206)" fill="#00978e"/>
    <path id="Trazado_170532" data-name="Trazado 170532" d="M-698.984,265.637h3.159a4.355,4.355,0,0,1-.9,3.745c-3.07,3.96-6.053,7.987-9.039,12.011a13.68,13.68,0,0,0-1,1.979h-3.181a4.256,4.256,0,0,1,.746-3.492c3.092-3.988,6.095-8.046,9.1-12.1A15.979,15.979,0,0,0-698.984,265.637Z" transform="translate(1018.972 3504.995)" fill="#00978e"/>
    <path id="Trazado_170533" data-name="Trazado 170533" d="M-698.223,281.723v3.436h-3.433v-3.436Z" transform="translate(1012.477 3492.509)" fill="#00978e"/>
    <path id="Trazado_170534" data-name="Trazado 170534" d="M-666.333,317.071h-3.44v-3.456h3.44Z" transform="translate(987.728 3467.752)" fill="#00978e"/>
    <path id="Trazado_170535" data-name="Trazado 170535" d="M-738.3,465.066h-3.544v3.558h3.544Z" transform="translate(1043.672 3350.188)" fill="#1d272b"/>
    <path id="Trazado_170536" data-name="Trazado 170536" d="M-574.206,457.124c0,1.155.007,2.188,0,3.222-.013,1.463-.653,2.127-2.089,2.134q-3.293.017-6.585-.006a1.821,1.821,0,0,1-2.044-2.067c-.013-1.039,0-2.078,0-3.284-1.106,0-2.167.006-3.229,0-1.464-.011-2.12-.647-2.127-2.09q-.017-3.293,0-6.585a1.819,1.819,0,0,1,2.064-2.045c1-.016,2.008-.017,3.012-.026a2.491,2.491,0,0,0,.279-.065c0-1.014-.008-2.076,0-3.137.013-1.465.649-2.121,2.092-2.129q3.292-.018,6.585,0a1.81,1.81,0,0,1,2.042,2.063c.012,1.04,0,2.079,0,3.293,1.1,0,2.159-.008,3.22,0,1.462.013,2.122.653,2.132,2.093q.021,3.293,0,6.585a1.82,1.82,0,0,1-2.069,2.042C-571.959,457.134-573,457.124-574.206,457.124Zm-10.168-7.057c-2.3-.013-2.3-.013-2.247,2.3a.793.793,0,0,1,0,.112c-.083.711.2,1.021.945.984.891-.043,1.787-.03,2.678.012a1.723,1.723,0,0,1,1.717,1.7c.028.407.009.818.009,1.228,0,2.686,0,2.7,2.7,2.39a1.025,1.025,0,0,0,.671-.714c.084-.923.013-1.858.041-2.787a1.731,1.731,0,0,1,1.824-1.82c.929-.028,1.862.026,2.789-.031.251-.015.678-.28.7-.461a13.149,13.149,0,0,0,0-2.449c-.017-.178-.452-.434-.706-.45-.889-.056-1.785-.008-2.677-.028a1.778,1.778,0,0,1-1.93-1.948c-.011-.334,0-.67-.012-1-.077-2.753.591-2.33-2.54-2.413-.722-.019-.891.292-.863.933.038.891.041,1.786.01,2.678a1.724,1.724,0,0,1-1.764,1.763C-583.481,450.084-583.928,450.065-584.375,450.067Z" transform="translate(926.033 3368.844)" fill="#b42218"/>
    <path id="Trazado_170537" data-name="Trazado 170537" d="M-573.011,588.527H-597.9v-3.468h24.887Z" transform="translate(931.935 3257.044)" fill="#1d272b"/>
    <path id="Trazado_170538" data-name="Trazado 170538" d="M-566.084,556.536V553.1h17.728v3.44Z" transform="translate(907.239 3281.855)" fill="#1d272b"/>
    <path id="Trazado_170539" data-name="Trazado 170539" d="M-597.982,553.071h3.432v3.452h-3.432Z" transform="translate(932 3281.875)" fill="#1d272b"/>
    <path id="Trazado_170540" data-name="Trazado 170540" d="M-738.3,465.066v3.558h-3.544v-3.558Z" transform="translate(1043.672 3350.188)" fill="#1d272b"/>
  </g>
</svg>
