<svg xmlns="http://www.w3.org/2000/svg" xmlns:xlink="http://www.w3.org/1999/xlink" width="222.94" height="222.945" viewBox="0 0 222.94 222.945">
  <defs>
    <radialGradient id="radial-gradient" cx="0.076" cy="0.019" r="1.465" gradientTransform="translate(0)" gradientUnits="objectBoundingBox">
      <stop offset="0" stop-color="#f6f6f7"/>
      <stop offset="0.477" stop-color="#f9f9fa"/>
      <stop offset="0.715" stop-color="#fff"/>
    </radialGradient>
  </defs>
  <g id="Grupo_134226" data-name="Grupo 134226" transform="translate(-390.969 -6999.742)">
    <g id="Grupo_18420" data-name="Grupo 18420" transform="translate(390.969 6999.742)">
      <g id="Grupo_18419" data-name="Grupo 18419">
        <path id="Trazado_40936" data-name="Trazado 40936" d="M417.562,2257.189a111.47,111.47,0,1,1-111.468-111.468A111.468,111.468,0,0,1,417.562,2257.189Z" transform="translate(-194.623 -2145.721)" fill="#fff"/>
      </g>
    </g>
    <path id="Trazado_40937" data-name="Trazado 40937" d="M415.569,2255.017A111.467,111.467,0,1,0,304.1,2366.492,111.031,111.031,0,0,0,415.569,2255.017Z" transform="translate(198.34 4856.195)" fill="url(#radial-gradient)"/>
    <path id="Trazado_40938" data-name="Trazado 40938" d="M389.579,2246.181a94.349,94.349,0,1,0-94.349,94.35A94.011,94.011,0,0,0,389.579,2246.181Z" transform="translate(207.429 4865.274)" fill="none" stroke="#008f85" stroke-miterlimit="10" stroke-width="5"/>
    <path id="Trazado_40939" data-name="Trazado 40939" d="M392.465,2164.488A111.483,111.483,0,0,1,200.545,2275.5a111.8,111.8,0,0,0,11.094,14.849,111.485,111.485,0,0,0,180.826-125.859Z" transform="translate(210.172 4897.838)" fill="#eceef0"/>
    <g id="Grupo_134159" data-name="Grupo 134159" transform="translate(446.825 7055.313)">
      <path id="Trazado_173867" data-name="Trazado 173867" d="M-3096.726,304.7c2.308.962,4.645,1.857,7,2.713a1.575,1.575,0,0,0,1.263-.108,104.072,104.072,0,0,0,14.285-12.175,1.613,1.613,0,0,0,.422-1.768q-2.331-8.805-4.593-17.629a3.488,3.488,0,0,1,4.008-4.444,3.557,3.557,0,0,1,2.908,2.956c1.014,3.957,2.057,7.907,3.091,11.859.091.348.2.691.36,1.266a14.991,14.991,0,0,0,.959-1.509c1.469-3.125,2.947-6.247,4.35-9.4a3.631,3.631,0,0,1,3.289-2.517,3.452,3.452,0,0,1,3.431,2.3,2.646,2.646,0,0,0,.227.359v1.77c-.151.325-.3.65-.452.973-1.548,3.287-2.887,6.694-4.687,9.837-4.435,7.745-10.678,13.923-17.59,19.463-1.057.847-2.126,1.678-3.266,2.577.458.253.808.449,1.16.642a95.343,95.343,0,0,1,16.387,10.97c3.157,2.7,6.26,5.462,8.449,9.07v1.991c-.751,1.325-1.659,2.423-3.358,2.478a3.453,3.453,0,0,1-2.856-1.186c-10.488-11.991-24.007-19.137-38.795-24.225a4.684,4.684,0,0,1-3.337-3.43c-2.272-8.114-4.617-16.216-5.969-24.543-.689-4.243-1.013-8.551-1.376-12.84a3.434,3.434,0,0,1,3.308-3.807,3.5,3.5,0,0,1,3.806,3.323c.309,2.966.5,5.943.8,8.911.254,2.568.285,2.543,2.891,2.5a11.208,11.208,0,0,0,7.7-3.107,3.489,3.489,0,0,1,4.091-.615,3.122,3.122,0,0,1,1.847,3.349,4.868,4.868,0,0,1-1.315,2.551,17.191,17.191,0,0,1-11.642,4.886c-.549.019-1.1,0-1.824,0,.64,2.623,1.217,5.115,1.861,7.589" transform="translate(3168.995 -266.328)" fill="#1d272b"/>
      <path id="Trazado_173868" data-name="Trazado 173868" d="M-3013.524,564.044c-1.525,2.5-2.44,2.9-5.361,2.3-.72-.148-1.44-.3-2.155-.473a49.925,49.925,0,0,1-20.621-10.841l-1.048-.882c0,.57-.009.942,0,1.314.066,2.43.163,4.86.2,7.291a3.587,3.587,0,0,1-3.547,3.949,3.64,3.64,0,0,1-3.573-3.831,154.4,154.4,0,0,0-2.438-27.47c-1.453-7.576-3.273-15.083-4.979-22.609-.6-2.627.4-4.669,2.782-5.043a4.552,4.552,0,0,1,2.426.433,87.861,87.861,0,0,1,14.118,8.4,106.367,106.367,0,0,1,17.3,14.733,36.712,36.712,0,0,1,6.9,10.169v2.212a5.2,5.2,0,0,0-.349.516,3.392,3.392,0,0,1-3.3,2,3.336,3.336,0,0,1-3.167-2.2,24.274,24.274,0,0,0-4.878-7.316c-5.8-6.309-12.579-11.446-19.641-16.234-1.029-.7-2.089-1.35-3.3-2.13.067.451.085.7.141.935a204.825,204.825,0,0,1,4.246,23.222,1.917,1.917,0,0,0,.407,1c.873.987,1.8,1.927,2.762,2.944.275-.438.5-.772.7-1.118,1.361-2.318,2.7-4.65,4.084-6.953a3.525,3.525,0,0,1,3.677-1.708,3.277,3.277,0,0,1,2.78,2.776,5.243,5.243,0,0,1-.581,2.816c-1.637,3-3.424,5.917-5.258,9.04a2.246,2.246,0,0,1,.431.2,40.489,40.489,0,0,0,17.314,7.906c1.859.333,3.248,1.078,3.934,2.9Z" transform="translate(3126.789 -454.228)" fill="#1d272b"/>
      <path id="Trazado_173869" data-name="Trazado 173869" d="M-3327.9,471.193a35.433,35.433,0,0,0-17.076-4.763c-1.963,0-3.314-.844-3.85-2.369a3.521,3.521,0,0,1,3.417-4.709,40.434,40.434,0,0,1,17.426,3.876c.368.167.733.338,1.29.594-2.28-10.14-5.491-19.848-8.551-29.927-2.9,2.589-5.693,4.927-8.3,7.458a174.269,174.269,0,0,0-21.063,23.967,3.6,3.6,0,0,1-5.049,1.059,3.733,3.733,0,0,1-.862-5.2A156.6,156.6,0,0,1-3354.27,441.8a118.231,118.231,0,0,1,16.675-14.969c.66-.469,1.34-.913,2.029-1.338,2.686-1.656,5.1-.752,6.019,2.246q2.725,8.91,5.444,17.821a221.583,221.583,0,0,1,6.106,24.6,3.834,3.834,0,0,1-1.808,4.059q-6.034,4.387-12.061,8.783c-8.288,6.016-16.567,12.045-24.893,18.008a5.569,5.569,0,0,1-2.823.979,3.289,3.289,0,0,1-3.152-2.5,3.58,3.58,0,0,1,1.367-3.922c3.235-2.378,6.492-4.727,9.74-7.088q11.4-8.283,22.8-16.566C-3328.562,471.727-3328.31,471.516-3327.9,471.193Z" transform="translate(3371.212 -389.593)" fill="#1d272b"/>
      <path id="Trazado_173870" data-name="Trazado 173870" d="M-3347.615,293.615c2.1-1.3,4.338-2.648,6.532-4.061a1.193,1.193,0,0,0,.295-.991,95.374,95.374,0,0,1-1.327-17.941,8.11,8.11,0,0,1,.161-1.533,3.487,3.487,0,0,1,3.533-2.747,3.374,3.374,0,0,1,3.427,2.85,5.065,5.065,0,0,1,.1,1.2,83.179,83.179,0,0,0,1.72,19.645,3.72,3.72,0,0,1-2.078,4.51,99.455,99.455,0,0,0-29.354,24.314,3.6,3.6,0,0,1-5.265.74,3.621,3.621,0,0,1-.3-5.231A95.8,95.8,0,0,1-3354.649,299a1.416,1.416,0,0,0,.5-2.008,31.288,31.288,0,0,0-5.272-8.887,11.144,11.144,0,0,0-8.048-4.054,3.511,3.511,0,0,1-3.529-2.647,3.276,3.276,0,0,1,1.416-3.756,4.775,4.775,0,0,1,2.386-.619c3.156.045,5.234.754,9.215,2.918a10.209,10.209,0,0,0,2.767-6.41c.085-1.25.156-2.5.234-3.752a3.523,3.523,0,0,1,3.706-3.435,3.463,3.463,0,0,1,3.353,3.66,27.333,27.333,0,0,1-4.4,13.945,1.346,1.346,0,0,0,.022,1.73C-3350.682,288.268-3349.188,290.926-3347.615,293.615Z" transform="translate(3371.15 -266.339)" fill="#1d272b"/>
      <path id="Trazado_173871" data-name="Trazado 173871" d="M-3211.392,700.037q-3.573,2.582-7.146,5.165c-1.164.842-2.315,1.7-3.493,2.526a3.613,3.613,0,0,1-5.2-.63,3.66,3.66,0,0,1,.95-5.24q7.986-5.834,16-11.637a3.637,3.637,0,0,1,3.949-.446,3.514,3.514,0,0,1,2.052,3.277c.115,3.752.306,7.5.388,11.256a3.553,3.553,0,0,1-3.548,3.832,3.577,3.577,0,0,1-3.582-3.8c-.023-1.392,0-2.784,0-4.176Z" transform="translate(3259.695 -595.648)" fill="#1d272b"/>
      <path id="Trazado_173872" data-name="Trazado 173872" d="M-3096.014,564.756a3.68,3.68,0,0,1,2.928-3.78,3.42,3.42,0,0,1,4.044,2.441c1.387,5.638,2.682,11.3,3.97,16.96a8.832,8.832,0,0,1,.287,2.93,3.371,3.371,0,0,1-3.325,2.966,3.475,3.475,0,0,1-3.647-2.743c-.99-4.41-1.9-8.838-2.884-13.25-.335-1.5-.8-2.98-1.186-4.473A10.564,10.564,0,0,1-3096.014,564.756Z" transform="translate(3156.989 -495.646)" fill="#008f85"/>
    </g>
  </g>
</svg>
