<?xml version="1.0" encoding="utf-8"?>
<!-- Generator: Adobe Illustrator 26.0.1, SVG Export Plug-In . SVG Version: 6.00 Build 0)  -->
<svg version="1.1" id="Layer_1" xmlns="http://www.w3.org/2000/svg" xmlns:xlink="http://www.w3.org/1999/xlink" x="0px" y="0px"
	 viewBox="0 0 336 144" style="enable-background:new 0 0 336 144;" xml:space="preserve">
<style type="text/css">
	.st0{enable-background:new    ;}
	.st1{fill:#FFFFFF;}
	.st2{fill:#B42218;}
</style>
<g id="Grupo_134230" transform="translate(-724.716 -9070)">
	<g id="Grupo_133811" transform="translate(746.511 8961.42)">
		<g class="st0">
			<path class="st1" d="M62.7,154.7h-5.9l-1.1,3.4h-3.6l6.1-16.4h3.1l6.1,16.4h-3.6L62.7,154.7z M57.7,152h4.1l-2.1-6.1L57.7,152z"
				/>
			<path class="st1" d="M75,152.1h-2.7v6h-3.4v-16.4H75c1.9,0,3.4,0.4,4.5,1.3c1,0.9,1.6,2.1,1.6,3.7c0,1.1-0.2,2-0.7,2.8
				c-0.5,0.7-1.2,1.3-2.2,1.8l3.5,6.7v0.2H78L75,152.1z M72.3,149.4H75c0.8,0,1.5-0.2,2-0.6s0.7-1,0.7-1.8c0-0.8-0.2-1.4-0.7-1.8
				c-0.4-0.4-1.1-0.7-2-0.7h-2.7V149.4z"/>
			<path class="st1" d="M95.3,144.5h-5v13.6H87v-13.6H82v-2.7h13.3V144.5z"/>
			<path class="st1" d="M107.1,151h-6.5v4.4h7.6v2.7h-11v-16.4h10.9v2.7h-7.6v3.9h6.5V151z"/>
			<path class="st1" d="M116.3,152.1h-2.7v6h-3.4v-16.4h6.1c1.9,0,3.4,0.4,4.5,1.3c1,0.9,1.6,2.1,1.6,3.7c0,1.1-0.2,2-0.7,2.8
				c-0.5,0.7-1.2,1.3-2.2,1.8l3.5,6.7v0.2h-3.6L116.3,152.1z M113.6,149.4h2.7c0.8,0,1.5-0.2,2-0.6s0.7-1,0.7-1.8
				c0-0.8-0.2-1.4-0.7-1.8c-0.4-0.4-1.1-0.7-2-0.7h-2.7V149.4z"/>
			<path class="st1" d="M128.5,158.1h-3.4v-16.4h3.4V158.1z"/>
			<path class="st1" d="M141,154.7h-5.9l-1.1,3.4h-3.6l6.1-16.4h3.1l6.1,16.4h-3.6L141,154.7z M136,152h4.1l-2.1-6.1L136,152z"/>
			<path class="st1" d="M158.6,149.1l3.4-7.4h3.7l-5.4,10.4v5.9h-3.4v-5.9l-5.4-10.4h3.7L158.6,149.1z"/>
		</g>
		<g class="st0">
			<path class="st1" d="M58.6,223.9h-5.1l-1,2.9h-3.1l5.3-14.2h2.7l5.3,14.2h-3.1L58.6,223.9z M54.3,221.6h3.6l-1.8-5.3L54.3,221.6z
				"/>
			<path class="st1" d="M69.2,217.6l2.7-4.9h3.4l-4.1,7.1l4.2,7.2h-3.4l-2.7-5l-2.7,5H63l4.2-7.2l-4.1-7.1h3.4L69.2,217.6z"/>
			<path class="st1" d="M79.9,226.9H77v-14.2h2.9V226.9z"/>
			<path class="st1" d="M85.5,224.5h6.2v2.4h-9.2v-14.2h2.9V224.5z"/>
			<path class="st1" d="M101.6,223.9h-5.1l-1,2.9h-3.1l5.3-14.2h2.7l5.3,14.2h-3.1L101.6,223.9z M97.3,221.6h3.6l-1.8-5.3
				L97.3,221.6z"/>
			<path class="st1" d="M112.3,221.7H110v5.2h-2.9v-14.2h5.3c1.7,0,3,0.4,3.9,1.1s1.4,1.8,1.4,3.2c0,1-0.2,1.8-0.6,2.4
				s-1.1,1.2-1.9,1.5l3.1,5.8v0.1H115L112.3,221.7z M110,219.3h2.4c0.7,0,1.3-0.2,1.7-0.6s0.6-0.9,0.6-1.5c0-0.7-0.2-1.2-0.6-1.6
				s-1-0.6-1.8-0.6H110V219.3z"/>
			<path class="st1" d="M129.7,219.1l3-6.4h3.2l-4.7,9.1v5.2h-3v-5.2l-4.7-9.1h3.2L129.7,219.1z"/>
			<path class="st1" d="M142.2,226.9v-14.2h5c1.7,0,3,0.3,3.9,1c0.9,0.7,1.3,1.6,1.3,2.9c0,0.7-0.2,1.3-0.5,1.8
				c-0.4,0.5-0.9,0.9-1.5,1.2c0.7,0.2,1.3,0.5,1.7,1.1s0.6,1.2,0.6,2c0,1.4-0.4,2.4-1.3,3.1c-0.9,0.7-2.1,1.1-3.7,1.1H142.2z
				 M145.1,218.6h2.2c1.5,0,2.2-0.6,2.2-1.8c0-0.6-0.2-1.1-0.6-1.4c-0.4-0.3-1-0.4-1.8-0.4h-2.1V218.6z M145.1,220.7v3.8h2.5
				c0.7,0,1.2-0.2,1.6-0.5c0.4-0.3,0.6-0.8,0.6-1.4c0-1.3-0.7-2-2-2H145.1z"/>
			<path class="st1" d="M160.2,221.7h-2.3v5.2h-2.9v-14.2h5.3c1.7,0,3,0.4,3.9,1.1c0.9,0.7,1.4,1.8,1.4,3.2c0,1-0.2,1.8-0.6,2.4
				s-1.1,1.2-1.9,1.5l3.1,5.8v0.1h-3.1L160.2,221.7z M157.9,219.3h2.4c0.7,0,1.3-0.2,1.7-0.6c0.4-0.4,0.6-0.9,0.6-1.5
				c0-0.7-0.2-1.2-0.6-1.6s-1-0.6-1.8-0.6h-2.4V219.3z"/>
			<path class="st1" d="M175.7,223.9h-5.1l-1,2.9h-3.1l5.3-14.2h2.7l5.3,14.2h-3.1L175.7,223.9z M171.4,221.6h3.6l-1.8-5.3
				L171.4,221.6z"/>
			<path class="st1" d="M192.6,220.1c0,1.3-0.2,2.5-0.6,3.5s-1,1.8-1.8,2.4l2.4,1.9l-1.9,1.7l-3-2.4c-0.3,0.1-0.7,0.1-1.1,0.1
				c-1.2,0-2.2-0.3-3.2-0.8c-0.9-0.6-1.6-1.4-2.1-2.4s-0.8-2.3-0.8-3.6v-0.7c0-1.4,0.3-2.6,0.8-3.7c0.5-1.1,1.2-1.9,2.1-2.5
				c0.9-0.6,2-0.9,3.2-0.9c1.2,0,2.2,0.3,3.2,0.9c0.9,0.6,1.6,1.4,2.1,2.5c0.5,1.1,0.8,2.3,0.8,3.7V220.1z M189.6,219.4
				c0-1.5-0.3-2.6-0.8-3.4c-0.5-0.8-1.3-1.2-2.3-1.2c-1,0-1.7,0.4-2.3,1.1c-0.5,0.8-0.8,1.9-0.8,3.4v0.7c0,1.5,0.3,2.6,0.8,3.4
				c0.5,0.8,1.3,1.2,2.3,1.2c1,0,1.7-0.4,2.3-1.2s0.8-1.9,0.8-3.4V219.4z"/>
			<path class="st1" d="M205.5,212.6v9.4c0,1.6-0.5,2.8-1.5,3.7c-1,0.9-2.3,1.4-4,1.4c-1.7,0-3-0.4-4-1.3s-1.5-2.1-1.5-3.6v-9.5h2.9
				v9.4c0,0.9,0.2,1.6,0.7,2c0.4,0.4,1.1,0.6,1.9,0.6c1.6,0,2.5-0.9,2.5-2.6v-9.5H205.5z"/>
			<path class="st1" d="M211,226.9h-2.9v-14.2h2.9V226.9z"/>
			<path class="st1" d="M222,223.9h-5.1l-1,2.9h-3.1l5.3-14.2h2.7l5.3,14.2h-3.1L222,223.9z M217.6,221.6h3.6l-1.8-5.3L217.6,221.6z
				"/>
			<path class="st1" d="M230.3,224.5h6.2v2.4h-9.2v-14.2h2.9V224.5z"/>
		</g>
		<g class="st0">
			<path class="st2" d="M67.8,194.7l8.7-28.9h8.8l-13.4,38.4h-8.3l-13.3-38.4h8.8L67.8,194.7z"/>
			<path class="st2" d="M112,187.5H96.8v10.3h17.8v6.4H88.9v-38.4h25.7v6.4H96.8v9.1H112V187.5z"/>
			<path class="st2" d="M150.5,204.2h-7.9l-15.4-25.3v25.3h-7.9v-38.4h7.9l15.4,25.3v-25.3h7.9V204.2z"/>
			<path class="st2" d="M179.6,196.3h-13.9l-2.6,7.9h-8.4l14.3-38.4h7.3l14.4,38.4h-8.4L179.6,196.3z M167.8,189.9h9.6l-4.8-14.4
				L167.8,189.9z"/>
		</g>
	</g>
	<g id="Grupo_133812" transform="translate(979.372 8810.667)">
		<rect id="Rectángulo_36458" x="-184.9" y="388.3" class="st1" width="266.2" height="2.5"/>
	</g>
	<g class="st0">
		<path class="st1" d="M783.1,9184H730v-10.5l25.1-26.7c3.4-3.8,6-7,7.6-9.8c1.6-2.8,2.5-5.5,2.5-8c0-3.4-0.9-6.1-2.6-8.1
			c-1.7-2-4.2-3-7.5-3c-3.5,0-6.2,1.2-8.2,3.6c-2,2.4-3,5.5-3,9.4h-15.4c0-4.7,1.1-9,3.4-12.9c2.3-3.9,5.4-7,9.6-9.2
			c4.1-2.2,8.8-3.3,14-3.3c8,0,14.2,1.9,18.6,5.7c4.4,3.8,6.6,9.2,6.6,16.2c0,3.8-1,7.7-3,11.7c-2,4-5.4,8.6-10.2,13.9l-17.6,18.6
			h33.3V9184z"/>
	</g>
</g>
</svg>
