<?xml version="1.0" encoding="utf-8"?>
<!-- Generator: Adobe Illustrator 26.0.1, SVG Export Plug-In . SVG Version: 6.00 Build 0)  -->
<svg version="1.1" id="Layer_1" xmlns="http://www.w3.org/2000/svg" xmlns:xlink="http://www.w3.org/1999/xlink" x="0px" y="0px"
	 viewBox="0 0 234.1 144" style="enable-background:new 0 0 234.1 144;" xml:space="preserve">
<style type="text/css">
	.st0{enable-background:new    ;}
	.st1{fill:#FFFFFF;}
	.st2{fill:#B42218;}
</style>
<g id="Grupo_134231" transform="translate(-156.861 -9746.53)">
	<g id="Grupo_133814" transform="translate(177.656 9624.95)">
		<g class="st0">
			<path class="st1" d="M61.3,162.2h-5.1l-1,2.9H52l5.3-14.2h2.7l5.3,14.2h-3.1L61.3,162.2z M56.9,159.8h3.6l-1.8-5.3L56.9,159.8z"
				/>
			<path class="st1" d="M72,159.9h-2.3v5.2h-2.9v-14.2H72c1.7,0,3,0.4,3.9,1.1s1.4,1.8,1.4,3.2c0,1-0.2,1.8-0.6,2.4
				s-1.1,1.2-1.9,1.5l3.1,5.8v0.1h-3.1L72,159.9z M69.6,157.5H72c0.7,0,1.3-0.2,1.7-0.6s0.6-0.9,0.6-1.5c0-0.7-0.2-1.2-0.6-1.6
				s-1-0.6-1.8-0.6h-2.4V157.5z"/>
			<path class="st1" d="M89.7,153.2h-4.4v11.8h-2.9v-11.8h-4.3v-2.4h11.6V153.2z"/>
			<path class="st1" d="M99.9,158.9h-5.6v3.8h6.6v2.4h-9.5v-14.2h9.5v2.4h-6.6v3.4h5.6V158.9z"/>
			<path class="st1" d="M107.9,159.9h-2.3v5.2h-2.9v-14.2h5.3c1.7,0,3,0.4,3.9,1.1c0.9,0.7,1.4,1.8,1.4,3.2c0,1-0.2,1.8-0.6,2.4
				s-1.1,1.2-1.9,1.5l3.1,5.8v0.1h-3.1L107.9,159.9z M105.5,157.5h2.4c0.7,0,1.3-0.2,1.7-0.6c0.4-0.4,0.6-0.9,0.6-1.5
				c0-0.7-0.2-1.2-0.6-1.6s-1-0.6-1.8-0.6h-2.4V157.5z"/>
			<path class="st1" d="M118.5,165.1h-2.9v-14.2h2.9V165.1z"/>
			<path class="st1" d="M129.4,162.2h-5.1l-1,2.9h-3.1l5.3-14.2h2.7l5.3,14.2h-3.1L129.4,162.2z M125.1,159.8h3.6l-1.8-5.3
				L125.1,159.8z"/>
			<path class="st1" d="M144.7,157.3l3-6.4h3.2l-4.7,9.1v5.2h-3v-5.2l-4.7-9.1h3.2L144.7,157.3z"/>
		</g>
		<g class="st0">
			<path class="st1" d="M67,226.4H56.9v10.5h-5.3v-25.6h16.7v4.3H56.9v6.6H67V226.4z"/>
			<path class="st1" d="M86.8,225.7H76.6v6.9h11.9v4.2H71.4v-25.6h17.1v4.3H76.6v6.1h10.1V225.7z"/>
			<path class="st1" d="M98.5,211.3l6.6,18.6l6.5-18.6h6.9v25.6h-5.3v-7l0.5-12.1l-6.9,19.1h-3.6l-6.9-19.1l0.5,12.1v7h-5.3v-25.6
				H98.5z"/>
			<path class="st1" d="M144.2,224.7c0,2.5-0.4,4.7-1.3,6.6s-2.2,3.4-3.8,4.4s-3.6,1.5-5.7,1.5c-2.1,0-4-0.5-5.7-1.5s-3-2.5-3.9-4.4
				s-1.4-4.1-1.4-6.5v-1.3c0-2.5,0.5-4.7,1.4-6.7s2.2-3.4,3.8-4.4s3.6-1.5,5.7-1.5s4,0.5,5.7,1.5s2.9,2.5,3.8,4.4s1.4,4.1,1.4,6.6
				V224.7z M138.8,223.5c0-2.7-0.5-4.7-1.4-6.1s-2.3-2.1-4.1-2.1c-1.8,0-3.1,0.7-4.1,2.1s-1.4,3.4-1.5,6.1v1.2
				c0,2.6,0.5,4.6,1.4,6.1s2.3,2.2,4.1,2.2c1.8,0,3.1-0.7,4.1-2.1s1.4-3.4,1.4-6.1V223.5z"/>
			<path class="st1" d="M157.5,227.5h-4.2v9.4H148v-25.6h9.5c3,0,5.4,0.7,7,2s2.5,3.3,2.5,5.7c0,1.7-0.4,3.2-1.1,4.4
				s-1.9,2.1-3.4,2.8l5.5,10.5v0.2h-5.7L157.5,227.5z M153.3,223.2h4.3c1.3,0,2.3-0.3,3.1-1s1.1-1.6,1.1-2.8c0-1.2-0.3-2.2-1-2.8
				s-1.7-1-3.2-1h-4.2V223.2z"/>
			<path class="st1" d="M185.4,231.6h-9.2l-1.8,5.3h-5.6l9.5-25.6h4.9l9.6,25.6h-5.6L185.4,231.6z M177.6,227.3h6.4l-3.2-9.6
				L177.6,227.3z"/>
			<path class="st1" d="M200.5,232.6h11.2v4.2h-16.5v-25.6h5.3V232.6z"/>
		</g>
		<g class="st0">
			<path class="st2" d="M65.5,195.9l7.6-25.1h7.7l-11.6,33.4h-7.2l-11.6-33.4H58L65.5,195.9z"/>
			<path class="st2" d="M104,189.7H90.8v9h15.5v5.5H83.9v-33.4h22.4v5.6H90.8v8H104V189.7z"/>
			<path class="st2" d="M137.5,204.2h-6.9l-13.4-22v22h-6.9v-33.4h6.9l13.4,22v-22h6.9V204.2z"/>
			<path class="st2" d="M162.8,197.3h-12.1l-2.3,6.9h-7.3l12.4-33.4h6.4l12.5,33.4h-7.3L162.8,197.3z M152.6,191.7h8.4l-4.2-12.5
				L152.6,191.7z"/>
		</g>
	</g>
	<g class="st0">
		<path class="st1" d="M177.8,9815h8.2c3.9,0,6.8-1,8.7-2.9c1.9-2,2.8-4.5,2.8-7.8c0-3.1-0.9-5.6-2.8-7.3c-1.9-1.7-4.4-2.6-7.7-2.6
			c-2.9,0-5.4,0.8-7.4,2.4c-2,1.6-3,3.7-3,6.3h-15.4c0-4,1.1-7.7,3.3-10.9c2.2-3.2,5.2-5.7,9.2-7.5c3.9-1.8,8.2-2.7,13-2.7
			c8.2,0,14.6,2,19.3,5.9c4.6,3.9,7,9.3,7,16.2c0,3.5-1.1,6.8-3.2,9.8c-2.2,3-5,5.3-8.5,6.9c4.4,1.6,7.6,3.9,9.8,7
			c2.1,3.1,3.2,6.8,3.2,11.1c0,6.9-2.5,12.4-7.5,16.6c-5,4.2-11.7,6.2-19.9,6.2c-7.7,0-14.1-2-19-6.1c-4.9-4.1-7.4-9.5-7.4-16.2
			h15.4c0,2.9,1.1,5.3,3.3,7.1c2.2,1.8,4.9,2.8,8.1,2.8c3.7,0,6.5-1,8.6-2.9c2.1-1.9,3.1-4.5,3.1-7.7c0-7.7-4.3-11.6-12.8-11.6h-8.1
			V9815z"/>
	</g>
</g>
</svg>
