<?xml version="1.0" encoding="utf-8"?>
<!-- Generator: Adobe Illustrator 26.0.1, SVG Export Plug-In . SVG Version: 6.00 Build 0)  -->
<svg version="1.1" id="Layer_1" xmlns="http://www.w3.org/2000/svg" xmlns:xlink="http://www.w3.org/1999/xlink" x="0px" y="0px"
	 viewBox="0 0 526.8 666.5" style="enable-background:new 0 0 526.8 666.5;" xml:space="preserve">
<style type="text/css">
	.st0{opacity:0.354;fill:#A4A4B4;enable-background:new    ;}
	.st1{opacity:0.31;fill:#A4A4B4;enable-background:new    ;}
	.st2{fill:#A4A4B4;}
	.st3{enable-background:new    ;}
	.st4{fill:#008F85;}
	.st5{fill:#1D272B;}
	.st6{fill:#D93328;}
	.st7{fill:#E0E0E0;}
	.st8{fill:#EBEBEB;}
	.st9{fill:#F5F5F5;}
	.st10{fill:#FFFFFF;}
	.st11{fill:#FAFAFA;}
	.st12{fill:#263238;}
	.st13{fill:#00978E;}
	.st14{fill:#B42218;}
	.st15{fill:#12263F;}
	.st16{fill:#FFBE9D;}
	.st17{fill:#EB996E;}
	.st18{fill:url(#Trazado_173771_00000124132448618990782290000004618650735449830036_);}
	.st19{fill:url(#Trazado_173772_00000004522932414181289500000001590011357383529116_);}
	.st20{opacity:0.3;}
	.st21{fill:url(#Trazado_173792_00000072257716907382514250000004303198354698451101_);}
	.st22{opacity:0.2;}
	.st23{fill:url(#Trazado_173797_00000163056449710774020830000007686954108635283102_);}
</style>
<g id="Grupo_134232" transform="translate(-159.396 -10579.117)">
	<g id="Grupo_134145" transform="translate(-968.139 -475.708)">
		<g id="Grupo_134143" transform="translate(205 8754)">
			<path id="Trazado_165336" class="st0" d="M1345.3,2949.7c16.9-42.5,21.8-97.8,12.8-146.5c-5.7-30.8-16.5-59.5-17.9-91.6
				c-2.8-64.3,32.3-116.2,39.6-179.5c3.2-27.8-0.3-60.2-14-77.1c-13.5-16.7-32.9-13.3-48.2-1.6c-15.3,11.7-28.3,30.4-43,44.1
				c-14.7,13.7-32.8,22.1-48.4,11.2c-15.7-11-24.7-38.8-29.7-65.9c-5-27.1-7.5-55.9-16-80.5c-14.1-40.5-44.1-62.5-72-56.8
				s-52.9,37-66.3,78c-13.4,41.1-15.7,90.8-9.1,136.1c3.4,23,9,45,12,68.2c3,23.1,3.3,48.5-3.5,69.3c-14.2,43.6-51.6,49.7-71.2,87
				c-16.2,30.9-16.7,77.9-7.5,115.9c9.2,37.9,26.4,68.7,43.6,98c80.2,4.5,161.9,4.8,242.1,9.2
				C1279.8,2969,1314.2,2952.7,1345.3,2949.7z"/>
			<path id="Trazado_165337" class="st1" d="M1321.3,2474.4c-0.2,21.2,19.9,39.6,16.4,60.5c-1.9,11.2-10.4,22.5-5.4,32.7
				c4.4,9,16.9,10.6,26.5,7.7c22.5-6.9,36.1-29.8,42.6-52.4c6.1-21.2,7.7-44.9-2.2-64.7c-7.9-15.9-26.2-30-44.8-28.7
				C1337.6,2430.7,1321.5,2458.4,1321.3,2474.4z"/>
			<path id="Trazado_165338" class="st1" d="M1011.7,2350.1c-14,23.4-14.6,54.2-1.6,78.1c4.1,7.6,9.7,14.6,17.2,18.8
				c7.5,4.2,17.2,5.1,24.7,0.9c11.3-6.5,13.8-21.7,12.9-34.7c-0.9-13-3.9-26.7,1.2-38.7c3.3-7.9,9.5-14,15.1-20.4
				c5.6-6.4,10.8-13.9,11.1-22.4c0.7-22-22.7-20.4-36.8-15.8C1037.2,2321.6,1021.7,2333.8,1011.7,2350.1z"/>
			<g id="Grupo_128378" transform="translate(962.509 2300.825)">
				<path id="Trazado_151849" class="st2" d="M380,663.1l-1.7-2.6c4.8-8.6,12.5-28.3,9.9-63.7c-1.2-15.8-4-31.3-6.8-46.4
					c-1.2-6.7-2.5-13.7-3.6-20.6C365.8,456,371,374.7,392,306.6c1.9-6,3.9-12.1,5.8-18c5.8-17.4,11.8-35.4,14.3-54.8
					c4.5-34.1-4.4-59.6-14.6-68.9c-9.8-8.9-23.6-7.6-37.9,3.7c-5.3,4.4-10.4,9.1-15.2,14.1c-6.5,6.5-13.2,13.2-20.4,17.9
					c-28.4,18.6-63.9,2.8-82.5-36.8c-9-19-14-42.1-18.9-64.3c-1.9-8.6-3.9-17.5-6-26.1c-6.7-26.5-19-59.8-39.4-67.8
					c-17.9-7-36.1,8.4-48.2,22.5c-23.1,27.1-39.4,63.7-45.9,103.2C78.7,158,78.5,187,78.4,215c-0.3,41.7-0.5,84.9-14.9,119.7
					c-6.6,15.8-15.6,28.4-24.3,40.6c-8.2,11.4-16.6,23.2-22.9,37.6C2,445.4-1.5,491.3,6.7,539C14,581.8,29,619.8,43.4,656.6l-2,2.1
					c-14.6-37-29.6-75.2-37-118.6c-8.4-48.8-4.7-96,9.9-129.4c6.5-14.7,15-26.7,23.3-38.3c8.6-12,17.5-24.5,23.9-39.9
					c14-33.8,14.2-74.5,14.5-117.5c0.2-28.3,0.3-57.5,4.8-84.6C87.4,90,104,52.6,127.6,25C140,10.4,158.9-5.5,177.7,1.9
					c21.4,8.3,34.1,42.7,41,70.1c2.2,8.6,4.2,17.6,6.1,26.3c4.8,22,9.8,44.7,18.6,63.3c18,38.3,52.3,53.6,79.8,35.6
					c7-4.6,13.7-11.2,20.1-17.6c4.9-5,10-9.8,15.4-14.3c15-11.9,29.6-13.2,40.1-3.6c10.9,10,20.5,37.1,15.8,73.1
					c-2.6,20-8.7,38.2-14.6,55.8c-1.9,5.8-4,11.9-5.8,17.9c-20.7,67.3-25.9,147.6-14.1,220.4c1.1,6.8,2.4,13.8,3.6,20.5
					c2.8,15.2,5.7,31,6.9,47.1C393.2,633.3,385.1,654,380,663.1z"/>
			</g>
		</g>
		<g id="Grupo_134144" transform="translate(1331.398 11062.915)">
			<g class="st3">
				<path class="st4" d="M28.5,27.8c-0.2,2.2-1,4-2.5,5.2c-1.5,1.3-3.4,1.9-5.8,1.9c-2.6,0-4.7-0.9-6.2-2.7
					c-1.5-1.8-2.3-4.2-2.3-7.3v-1.3c0-2,0.3-3.7,1-5.2c0.7-1.5,1.7-2.7,3-3.5c1.3-0.8,2.8-1.2,4.5-1.2c2.4,0,4.3,0.6,5.7,1.9
					c1.5,1.3,2.3,3.1,2.5,5.4h-4.2c-0.1-1.3-0.5-2.3-1.1-2.9c-0.6-0.6-1.6-0.9-2.9-0.9c-1.4,0-2.5,0.5-3.2,1.5
					c-0.7,1-1.1,2.6-1.1,4.7V25c0,2.2,0.3,3.9,1,4.9c0.7,1,1.7,1.5,3.2,1.5c1.3,0,2.3-0.3,2.9-0.9c0.6-0.6,1-1.5,1.1-2.8H28.5z"/>
				<path class="st4" d="M35.5,31.2h9v3.4H31.3V14h4.2V31.2z"/>
				<path class="st4" d="M58.9,30.4h-7.4L50,34.6h-4.5L53.2,14h3.9l7.7,20.6h-4.5L58.9,30.4z M52.6,27h5.2l-2.6-7.7L52.6,27z"/>
				<path class="st4" d="M77.5,29.2c0-0.8-0.3-1.4-0.8-1.8S75,26.5,73.6,26s-2.6-0.9-3.5-1.4c-2.3-1.3-3.5-3-3.5-5.1
					c0-1.1,0.3-2.1,0.9-3c0.6-0.9,1.5-1.6,2.7-2c1.2-0.5,2.5-0.7,4-0.7c1.5,0,2.8,0.3,3.9,0.8c1.2,0.5,2,1.3,2.7,2.3
					c0.6,1,1,2.1,1,3.3h-4.2c0-0.9-0.3-1.7-0.9-2.2c-0.6-0.5-1.4-0.8-2.5-0.8c-1,0-1.8,0.2-2.4,0.7c-0.6,0.4-0.9,1-0.9,1.7
					c0,0.7,0.3,1.2,1,1.7s1.7,0.9,3,1.3c2.4,0.7,4.2,1.6,5.3,2.7c1.1,1.1,1.7,2.4,1.7,4c0,1.8-0.7,3.2-2,4.2c-1.3,1-3.2,1.5-5.5,1.5
					c-1.6,0-3-0.3-4.3-0.9c-1.3-0.6-2.3-1.4-3-2.4s-1-2.2-1-3.5h4.3c0,2.3,1.4,3.4,4.1,3.4c1,0,1.8-0.2,2.4-0.6
					C77.2,30.5,77.5,30,77.5,29.2z"/>
				<path class="st4" d="M89.1,34.6h-4.2V14h4.2V34.6z"/>
				<path class="st4" d="M105.5,26.2h-8.2v8.4h-4.2V14h13.4v3.4h-9.2v5.3h8.2V26.2z"/>
				<path class="st4" d="M113.5,34.6h-4.2V14h4.2V34.6z"/>
				<path class="st4" d="M133.6,27.8c-0.2,2.2-1,4-2.5,5.2c-1.5,1.3-3.4,1.9-5.8,1.9c-2.6,0-4.7-0.9-6.2-2.7
					c-1.5-1.8-2.3-4.2-2.3-7.3v-1.3c0-2,0.3-3.7,1-5.2c0.7-1.5,1.7-2.7,3-3.5c1.3-0.8,2.8-1.2,4.5-1.2c2.4,0,4.3,0.6,5.7,1.9
					c1.5,1.3,2.3,3.1,2.5,5.4h-4.2c-0.1-1.3-0.5-2.3-1.1-2.9s-1.6-0.9-2.9-0.9c-1.4,0-2.5,0.5-3.2,1.5c-0.7,1-1.1,2.6-1.1,4.7V25
					c0,2.2,0.3,3.9,1,4.9c0.7,1,1.7,1.5,3.2,1.5c1.3,0,2.3-0.3,2.9-0.9c0.6-0.6,1-1.5,1.1-2.8H133.6z"/>
				<path class="st4" d="M148,30.4h-7.4l-1.4,4.2h-4.5l7.7-20.6h3.9l7.7,20.6h-4.5L148,30.4z M141.7,27h5.2l-2.6-7.7L141.7,27z"/>
				<path class="st4" d="M171.8,27.8c-0.2,2.2-1,4-2.5,5.2c-1.5,1.3-3.4,1.9-5.8,1.9c-2.6,0-4.7-0.9-6.2-2.7
					c-1.5-1.8-2.3-4.2-2.3-7.3v-1.3c0-2,0.3-3.7,1-5.2c0.7-1.5,1.7-2.7,3-3.5c1.3-0.8,2.8-1.2,4.5-1.2c2.4,0,4.3,0.6,5.8,1.9
					c1.5,1.3,2.3,3.1,2.5,5.4h-4.2c-0.1-1.3-0.5-2.3-1.1-2.9c-0.6-0.6-1.6-0.9-2.9-0.9c-1.4,0-2.5,0.5-3.2,1.5
					c-0.7,1-1.1,2.6-1.1,4.7V25c0,2.2,0.3,3.9,1,4.9s1.7,1.5,3.2,1.5c1.3,0,2.3-0.3,2.9-0.9c0.6-0.6,1-1.5,1.1-2.8H171.8z"/>
				<path class="st4" d="M179.1,34.6h-4.2V14h4.2V34.6z"/>
				<path class="st4" d="M199.9,24.8c0,2-0.4,3.8-1.1,5.3c-0.7,1.5-1.7,2.7-3.1,3.5c-1.3,0.8-2.9,1.2-4.6,1.2
					c-1.7,0-3.2-0.4-4.6-1.2c-1.3-0.8-2.4-2-3.1-3.5s-1.1-3.3-1.1-5.3v-1c0-2,0.4-3.8,1.1-5.4c0.7-1.5,1.8-2.7,3.1-3.6
					s2.9-1.2,4.6-1.2c1.7,0,3.2,0.4,4.6,1.2c1.3,0.8,2.4,2,3.1,3.6c0.7,1.5,1.1,3.3,1.1,5.3V24.8z M195.6,23.9
					c0-2.2-0.4-3.8-1.2-4.9c-0.8-1.1-1.9-1.7-3.3-1.7c-1.4,0-2.5,0.6-3.3,1.7s-1.2,2.7-1.2,4.9v1c0,2.1,0.4,3.7,1.2,4.9
					c0.8,1.2,1.9,1.7,3.3,1.7c1.4,0,2.5-0.6,3.3-1.7c0.8-1.1,1.2-2.8,1.2-4.9V23.9z M192,8.5h4.5l-3.9,4.4h-3.3L192,8.5z"/>
				<path class="st4" d="M219.8,34.6h-4.2l-8.3-13.6v13.6H203V14h4.2l8.3,13.6V14h4.2V34.6z"/>
			</g>
			<g class="st3">
				<path class="st5" d="M12.4,55.8V41.6h4.4c1.2,0,2.4,0.3,3.4,0.8s1.8,1.4,2.3,2.4s0.8,2.2,0.8,3.5v0.7c0,1.3-0.3,2.5-0.8,3.5
					s-1.3,1.8-2.3,2.4s-2.1,0.9-3.3,0.9H12.4z M15.4,44v9.5h1.4c1.1,0,2-0.4,2.6-1.1s0.9-1.8,0.9-3.2v-0.8c0-1.4-0.3-2.5-0.9-3.3
					S18,44,16.8,44H15.4z"/>
				<path class="st5" d="M34,49.7h-5.6v3.8H35v2.4h-9.5V41.6h9.5V44h-6.6v3.4H34V49.7z"/>
				<path class="st5" d="M44.6,53.5h6.2v2.4h-9.2V41.6h2.9V53.5z"/>
				<path class="st5" d="M63.5,49c0,1.4-0.2,2.6-0.7,3.7c-0.5,1.1-1.2,1.9-2.1,2.4c-0.9,0.6-2,0.9-3.2,0.9c-1.2,0-2.2-0.3-3.2-0.8
					s-1.6-1.4-2.1-2.4s-0.8-2.3-0.8-3.6v-0.7c0-1.4,0.3-2.6,0.8-3.7s1.2-1.9,2.1-2.5s2-0.9,3.2-0.9s2.2,0.3,3.2,0.9
					c0.9,0.6,1.6,1.4,2.1,2.5c0.5,1.1,0.8,2.3,0.8,3.7V49z M60.6,48.4c0-1.5-0.3-2.6-0.8-3.4s-1.3-1.2-2.3-1.2c-1,0-1.7,0.4-2.3,1.1
					s-0.8,1.9-0.8,3.4V49c0,1.5,0.3,2.6,0.8,3.4s1.3,1.2,2.3,1.2c1,0,1.7-0.4,2.3-1.2c0.5-0.8,0.8-1.9,0.8-3.4V48.4z"/>
				<path class="st5" d="M73,52.1c0-0.6-0.2-1-0.6-1.3s-1.1-0.6-2.1-0.9s-1.8-0.7-2.4-1c-1.6-0.9-2.4-2-2.4-3.5
					c0-0.8,0.2-1.5,0.6-2.1c0.4-0.6,1.1-1.1,1.9-1.4s1.7-0.5,2.7-0.5c1,0,1.9,0.2,2.7,0.6c0.8,0.4,1.4,0.9,1.9,1.6S76,45,76,45.8
					h-2.9c0-0.7-0.2-1.2-0.6-1.5s-1-0.5-1.7-0.5c-0.7,0-1.3,0.2-1.7,0.5c-0.4,0.3-0.6,0.7-0.6,1.2c0,0.5,0.2,0.8,0.7,1.2
					c0.5,0.3,1.2,0.6,2.1,0.9c1.7,0.5,2.9,1.1,3.6,1.9S76,51,76,52.1c0,1.2-0.5,2.2-1.4,2.9c-0.9,0.7-2.2,1-3.8,1
					c-1.1,0-2.1-0.2-3-0.6s-1.6-0.9-2.1-1.6c-0.5-0.7-0.7-1.5-0.7-2.4H68c0,1.6,0.9,2.4,2.8,2.4c0.7,0,1.2-0.1,1.6-0.4
					S73,52.6,73,52.1z"/>
				<path class="st5" d="M94.6,49c0,1.3-0.2,2.5-0.6,3.5s-1,1.8-1.8,2.4l2.4,1.9l-1.9,1.7l-3-2.4C89.3,56,88.9,56,88.6,56
					c-1.2,0-2.2-0.3-3.2-0.8c-0.9-0.6-1.6-1.4-2.1-2.4s-0.8-2.3-0.8-3.6v-0.7c0-1.4,0.3-2.6,0.8-3.7c0.5-1.1,1.2-1.9,2.1-2.5
					c0.9-0.6,2-0.9,3.2-0.9c1.2,0,2.2,0.3,3.2,0.9c0.9,0.6,1.6,1.4,2.1,2.5c0.5,1.1,0.8,2.3,0.8,3.7V49z M91.6,48.4
					c0-1.5-0.3-2.6-0.8-3.4c-0.5-0.8-1.3-1.2-2.3-1.2c-1,0-1.7,0.4-2.3,1.1c-0.5,0.8-0.8,1.9-0.8,3.4V49c0,1.5,0.3,2.6,0.8,3.4
					c0.5,0.8,1.3,1.2,2.3,1.2c1,0,1.7-0.4,2.3-1.2s0.8-1.9,0.8-3.4V48.4z"/>
				<path class="st5" d="M107.5,41.6V51c0,1.6-0.5,2.8-1.5,3.7c-1,0.9-2.3,1.4-4,1.4c-1.7,0-3-0.4-4-1.3s-1.5-2.1-1.5-3.6v-9.5h2.9
					V51c0,0.9,0.2,1.6,0.7,2c0.4,0.4,1.1,0.6,1.9,0.6c1.6,0,2.5-0.9,2.5-2.6v-9.5H107.5z"/>
				<path class="st5" d="M113,55.8h-2.9V41.6h2.9V55.8z M112.1,37.8h3.1l-2.7,3h-2.3L112.1,37.8z"/>
				<path class="st5" d="M119.6,41.6l3.7,10.3l3.6-10.3h3.8v14.2h-2.9v-3.9l0.3-6.7l-3.8,10.6h-2l-3.8-10.6l0.3,6.7v3.9h-2.9V41.6
					H119.6z"/>
				<path class="st5" d="M136.4,55.8h-2.9V41.6h2.9V55.8z"/>
				<path class="st5" d="M150.3,51.1c-0.1,1.5-0.7,2.7-1.7,3.6c-1,0.9-2.4,1.3-4,1.3c-1.8,0-3.3-0.6-4.3-1.8s-1.6-2.9-1.6-5.1v-0.9
					c0-1.4,0.2-2.6,0.7-3.6c0.5-1,1.2-1.8,2.1-2.4c0.9-0.6,1.9-0.8,3.1-0.8c1.6,0,3,0.4,4,1.3c1,0.9,1.6,2.1,1.7,3.7h-2.9
					c-0.1-0.9-0.3-1.6-0.8-2s-1.1-0.6-2-0.6c-1,0-1.7,0.3-2.2,1c-0.5,0.7-0.7,1.8-0.7,3.3v1.1c0,1.5,0.2,2.7,0.7,3.4
					c0.5,0.7,1.2,1.1,2.2,1.1c0.9,0,1.6-0.2,2-0.6c0.4-0.4,0.7-1.1,0.8-1.9H150.3z"/>
				<path class="st5" d="M163.9,49c0,1.4-0.2,2.6-0.7,3.7c-0.5,1.1-1.2,1.9-2.1,2.4c-0.9,0.6-2,0.9-3.2,0.9c-1.2,0-2.2-0.3-3.2-0.8
					c-0.9-0.6-1.6-1.4-2.1-2.4s-0.8-2.3-0.8-3.6v-0.7c0-1.4,0.3-2.6,0.8-3.7c0.5-1.1,1.2-1.9,2.1-2.5c0.9-0.6,2-0.9,3.2-0.9
					c1.2,0,2.2,0.3,3.2,0.9c0.9,0.6,1.6,1.4,2.1,2.5c0.5,1.1,0.8,2.3,0.8,3.7V49z M160.9,48.4c0-1.5-0.3-2.6-0.8-3.4
					c-0.5-0.8-1.3-1.2-2.3-1.2c-1,0-1.7,0.4-2.3,1.1c-0.5,0.8-0.8,1.9-0.8,3.4V49c0,1.5,0.3,2.6,0.8,3.4c0.5,0.8,1.3,1.2,2.3,1.2
					c1,0,1.7-0.4,2.3-1.2s0.8-1.9,0.8-3.4V48.4z"/>
				<path class="st5" d="M173.4,52.1c0-0.6-0.2-1-0.6-1.3s-1.1-0.6-2.1-0.9s-1.8-0.7-2.4-1c-1.6-0.9-2.4-2-2.4-3.5
					c0-0.8,0.2-1.5,0.6-2.1c0.4-0.6,1.1-1.1,1.9-1.4s1.7-0.5,2.7-0.5c1,0,1.9,0.2,2.7,0.6c0.8,0.4,1.4,0.9,1.9,1.6s0.7,1.4,0.7,2.3
					h-2.9c0-0.7-0.2-1.2-0.6-1.5s-1-0.5-1.7-0.5c-0.7,0-1.3,0.2-1.7,0.5c-0.4,0.3-0.6,0.7-0.6,1.2c0,0.5,0.2,0.8,0.7,1.2
					c0.5,0.3,1.2,0.6,2.1,0.9c1.7,0.5,2.9,1.1,3.6,1.9s1.1,1.7,1.1,2.8c0,1.2-0.5,2.2-1.4,2.9c-0.9,0.7-2.2,1-3.8,1
					c-1.1,0-2.1-0.2-3-0.6s-1.6-0.9-2.1-1.6c-0.5-0.7-0.7-1.5-0.7-2.4h2.9c0,1.6,0.9,2.4,2.8,2.4c0.7,0,1.2-0.1,1.6-0.4
					S173.4,52.6,173.4,52.1z"/>
			</g>
			<rect id="Rectángulo_34968" x="0" y="0" class="st6" width="5.6" height="67"/>
		</g>
	</g>
	<g id="Grupo_134142" transform="translate(122.574 10474.514)">
		<g id="Background_Complete" transform="translate(28.822 439.22)">
			<g id="Grupo_133901" transform="translate(8 -10.824)">
				<g id="Grupo_133862" transform="translate(88.493 259.493)">
					<path id="Trazado_173696" class="st7" d="M12.2,44L0,0.6L2.2,0L13,42.6L12.2,44z"/>
				</g>
				<g id="Grupo_133866" transform="translate(16.568 45.007)">
					<g id="Grupo_133863" transform="translate(0.845 0.843)">
						<path id="Trazado_173697" class="st8" d="M65.9,175.1l-1.5-5.3l7.9-7.4L27.3,0L0,7.6l45.3,163.3l10,1.3l1.5,5.5L65.9,175.1z"
							/>
					</g>
					<g id="Grupo_133865">
						<g id="Grupo_133864">
							<path id="Trazado_173698" class="st7" d="M66.8,176c-0.2,0.1-0.4,0.1-0.5,0.2c-0.4,0.1-1,0.3-1.7,0.5c-1.6,0.5-3.9,1.1-6.8,2
								l-0.2,0.1l-0.1-0.2c-0.5-1.6-1-3.4-1.6-5.5l0.2,0.2c-2.9-0.4-6.2-0.8-10-1.2l-0.2,0l-0.1-0.2C37,140.7,19.9,79.6,0.2,8.6
								L0,7.9l0.7-0.2l8.9-2.5l18.3-5.1L28.6,0l0.2,0.7c20.4,73.6,37.4,135.2,44.7,162.6l0,0.2l-0.1,0.1c-3.4,3.1-6,5.5-8,7.3l0-0.2
								c0.5,1.8,0.8,3.1,1,4.1C66.6,175.1,66.7,175.5,66.8,176c0,0-0.2-0.5-0.4-1.3c-0.3-0.9-0.7-2.2-1.2-3.9l0-0.1l0.1-0.1
								c1.9-1.8,4.6-4.3,7.9-7.5l-0.1,0.3C65.2,136.2,47.9,74.6,27.5,1l0.8,0.5L10,6.6L1,9.1l0.5-0.8c19.7,71,36.5,132.2,45,163.4
								l-0.3-0.2l10,1.3l0.2,0l0,0.2c0.6,2.1,1,3.9,1.5,5.5l-0.3-0.1l6.8-1.8c0.7-0.2,1.3-0.3,1.8-0.4C66.4,176,66.6,176,66.8,176z"
								/>
						</g>
					</g>
				</g>
				<g id="Grupo_133867" transform="translate(6.989 3.868)">
					
						<rect id="Rectángulo_36521" x="12.8" y="1.6" transform="matrix(0.9635 -0.2679 0.2679 0.9635 -12.7964 8.7591)" class="st8" width="25.8" height="99.3"/>
				</g>
				<g id="Grupo_133868">
					<path id="Rectángulo_36522" class="st7" d="M38.1,1.6L39.4,6c0.1,0.4-0.1,0.9-0.6,1L3.3,16.9c-0.4,0.1-0.9-0.1-1-0.6L1,11.9
						c-0.1-0.4,0.1-0.9,0.6-1L37.1,1C37.6,0.9,38,1.2,38.1,1.6z"/>
					<path id="Trazado_173699" class="st7" d="M4,17.9c-1.6,0-2.9-1-3.3-2.5l-0.5-1.8c-0.5-1.8,0.6-3.7,2.4-4.2l33-9.2
						c1.8-0.5,3.7,0.6,4.2,2.4c0,0,0,0,0,0l0.5,1.8c0.5,1.8-0.6,3.7-2.4,4.2l-33,9.2C4.6,17.9,4.3,17.9,4,17.9z M3.2,14.7
						c0.1,0.4,0.6,0.7,1,0.6l33-9.2c0.4-0.1,0.7-0.6,0.6-1l-0.5-1.8C37.2,3,37,2.9,36.8,2.7c-0.2-0.1-0.4-0.1-0.6-0.1l-33,9.2
						c-0.4,0.1-0.7,0.6-0.6,1L3.2,14.7z"/>
				</g>
				<g id="Grupo_133869" transform="translate(15.648 7.841)">
					
						<rect id="Rectángulo_36523" x="15.3" y="0.7" transform="matrix(0.9635 -0.2679 0.2679 0.9635 -13.3311 6.9457)" class="st7" width="6.9" height="103.3"/>
					<path id="Trazado_173700" class="st7" d="M28.3,104.6L0,2.6L9.2,0l28.3,102.1L28.3,104.6z M3.3,4.4l26.9,97l4.1-1.1L7.4,3.3
						L3.3,4.4z"/>
				</g>
				<g id="Grupo_133870" transform="translate(34.141 101.799)">
					<path id="Trazado_173701" class="st9" d="M29.6,113.3L0,6.7L24.3,0l29.5,106.2l-7.7,6.6l1.8,6.4l-6.4,1.6l-1.4-5.6L29.6,113.3z
						"/>
				</g>
				<g id="Grupo_133871" transform="translate(30.868 94.091)">
					<path id="Trazado_173702" class="st7" d="M26.5,1.6l1.9,6.7L22,14.5l-9.5,2.7l-8.8-1.5l-2-7.2L26.5,1.6z"/>
					<path id="Trazado_173703" class="st7" d="M12.5,18.5l-10-1.7L0,7.6L27.4,0l2.4,8.7l-7.1,7L12.5,18.5z M4.7,14.5l7.7,1.3
						l8.9-2.5l5.5-5.4l-1.3-4.7L3.3,9.4L4.7,14.5z"/>
				</g>
				<g id="Grupo_133872" transform="translate(84.67 253.119)">
					<path id="Rectángulo_36524" class="st8" d="M5.7,0l1.6,5.7c0.1,0.4-0.1,0.8-0.5,1L2.5,7.8c-0.4,0.1-0.8-0.1-1-0.5L0,1.6l0,0
						L5.7,0L5.7,0z"/>
				</g>
				<g id="Grupo_133873" transform="translate(5.508 39.745)">
					<path id="Rectángulo_36525" class="st8" d="M48.7,1.6l1,3.6c0.1,0.3-0.1,0.7-0.5,0.8L2.9,18.8c-0.3,0.1-0.7-0.1-0.8-0.5
						l-1-3.6C1,14.4,1.2,14.1,1.6,14L47.9,1.1C48.2,1,48.6,1.2,48.7,1.6z"/>
					<path id="Trazado_173704" class="st7" d="M3.5,19.9c-1.4,0-2.6-0.9-2.9-2.2l-0.4-1.5c-0.4-1.6,0.5-3.3,2.1-3.8L46.5,0.1
						c1.6-0.5,3.3,0.5,3.8,2.1c0,0,0,0,0,0l0.4,1.5c0.4,1.6-0.5,3.3-2.1,3.8L4.3,19.8C4,19.8,3.7,19.9,3.5,19.9z M47.3,2.6
						c0,0-0.1,0-0.1,0L2.9,14.9c-0.2,0.1-0.3,0.3-0.3,0.5l0.4,1.5c0,0.1,0.1,0.2,0.2,0.2c0.1,0.1,0.2,0.1,0.3,0L47.8,4.9
						c0.2-0.1,0.3-0.3,0.3-0.5l-0.4-1.5C47.6,2.8,47.5,2.6,47.3,2.6z"/>
				</g>
				<g id="Grupo_133875" transform="translate(32.588 103.912)">
					<g id="Grupo_133874">
						<path id="Trazado_173705" class="st10" d="M0,5c-0.1-0.4,3.8-1.8,8.6-3.1s8.9-2.1,9-1.8S13.8,1.8,9,3.2S0.1,5.3,0,5z"/>
					</g>
				</g>
				<g id="Grupo_133877" transform="translate(28.546 90.794)">
					<g id="Grupo_133876">
						<path id="Trazado_173706" class="st10" d="M0,3.5c-0.1-0.4,2.6-1.4,6-2.4s6.2-1.4,6.3-1s-2.6,1.4-6,2.4S0.1,3.9,0,3.5z"/>
					</g>
				</g>
				<g id="Grupo_133879" transform="translate(25.187 77.267)">
					<g id="Grupo_133878">
						<path id="Trazado_173707" class="st10" d="M0,5c-0.1-0.4,3.8-1.8,8.6-3.1s8.9-2.1,9-1.8S13.8,1.8,9,3.2S0.1,5.3,0,5z"/>
					</g>
				</g>
				<g id="Grupo_133881" transform="translate(21.147 64.149)">
					<g id="Grupo_133880">
						<path id="Trazado_173708" class="st10" d="M0,3.5c-0.1-0.4,2.6-1.4,6-2.4s6.2-1.4,6.3-1s-2.6,1.4-6,2.4S0.1,3.9,0,3.5z"/>
					</g>
				</g>
				<g id="Grupo_133883" transform="translate(40.427 132.143)">
					<g id="Grupo_133882">
						<path id="Trazado_173709" class="st7" d="M0,5c-0.1-0.4,3.8-1.8,8.6-3.1s8.9-2.1,9-1.8S13.8,1.8,9,3.2S0.1,5.3,0,5z"/>
					</g>
				</g>
				<g id="Grupo_133885" transform="translate(36.385 119.026)">
					<g id="Grupo_133884">
						<path id="Trazado_173710" class="st7" d="M0,3.5c-0.1-0.4,2.6-1.4,6-2.4s6.2-1.4,6.3-1s-2.6,1.4-6,2.4S0.1,3.9,0,3.5z"/>
					</g>
				</g>
				<g id="Grupo_133887" transform="translate(48.631 161.684)">
					<g id="Grupo_133886">
						<path id="Trazado_173711" class="st7" d="M0,5c-0.1-0.4,3.8-1.8,8.6-3.1s8.9-2.1,9-1.8S13.8,1.8,9,3.2S0.1,5.3,0,5z"/>
					</g>
				</g>
				<g id="Grupo_133889" transform="translate(44.589 148.568)">
					<g id="Grupo_133888">
						<path id="Trazado_173712" class="st7" d="M0,3.5c-0.1-0.4,2.6-1.4,6-2.4s6.2-1.4,6.3-1s-2.6,1.4-6,2.4S0.1,3.9,0,3.5z"/>
					</g>
				</g>
				<g id="Grupo_133891" transform="translate(56.706 190.765)">
					<g id="Grupo_133890">
						<path id="Trazado_173713" class="st7" d="M0,5c-0.1-0.4,3.8-1.8,8.6-3.1s8.9-2.1,9-1.8S13.8,1.8,9,3.2S0.1,5.3,0,5z"/>
					</g>
				</g>
				<g id="Grupo_133893" transform="translate(52.666 177.648)">
					<g id="Grupo_133892">
						<path id="Trazado_173714" class="st7" d="M0,3.5c-0.1-0.4,2.6-1.4,6-2.4s6.2-1.4,6.3-1s-2.6,1.4-6,2.4S0.1,3.9,0,3.5z"/>
					</g>
				</g>
				<g id="Grupo_133900" transform="translate(70.804 219.359)">
					<g id="Grupo_133894">
						<path id="Rectángulo_36526" class="st8" d="M15.6,0.4l0.7,2.4c0.1,0.2-0.1,0.5-0.3,0.5L1.3,7.4C1.1,7.5,0.8,7.4,0.8,7.1
							L0.1,4.7C0.1,4.5,0.2,4.2,0.4,4.2l14.6-4.1C15.3,0.1,15.5,0.2,15.6,0.4z"/>
					</g>
					<g id="Grupo_133895" transform="translate(2.092 2.024)">
						<path id="Trazado_173715" class="st8" d="M12.4,0l6.8,30.9c0.3,1.1-0.4,2.2-1.5,2.6l-5.1,1.4c-1.1,0.3-2.3-0.3-2.6-1.4L0,4.1
							L12.4,0z"/>
					</g>
					<g id="Grupo_133897" transform="translate(2.335 3.482)">
						<g id="Grupo_133896">
							<path id="Trazado_173716" class="st7" d="M0,3.6c-0.1-0.4,2.6-1.4,6-2.4s6.3-1.4,6.4-1.1s-2.6,1.4-6,2.4S0.1,3.9,0,3.6z"/>
						</g>
					</g>
					<g id="Grupo_133899" transform="translate(2.063 0.323)">
						<g id="Grupo_133898">
							<path id="Trazado_173717" class="st7" d="M0,3.4C-0.1,3,2.5,2,5.7,1.1s6-1.3,6.1-1S9.3,1.5,6.1,2.4S0.1,3.8,0,3.4z"/>
						</g>
					</g>
				</g>
			</g>
			<g id="Grupo_133925" transform="translate(452.397 17)">
				<g id="Grupo_133905" transform="translate(8.325 8.877)">
					<g id="Grupo_133902" transform="translate(0.003 0.314)">
						<path id="Trazado_173718" class="st11" d="M0,3.6l18.9,108.7c1.2,6.1,7,10.1,13.1,9.1l0,0c6.3-1,10.5-6.9,9.5-13.2
							c0-0.1,0-0.2-0.1-0.3L24,0L0,3.6z"/>
					</g>
					<g id="Grupo_133904">
						<g id="Grupo_133903">
							<path id="Trazado_173719" class="st7" d="M0,3.9c0.1,0,0.3-0.1,0.4-0.1l1.2-0.2c1.1-0.2,2.7-0.4,4.6-0.8
								C10.4,2.2,16.4,1.3,23.9,0l0.3,0l0,0.3c2.1,12.4,4.8,29.1,8.1,48.6c1.6,9.8,3.3,20.2,5.1,31.2c0.9,5.5,1.8,11.1,2.8,16.9
								c0.5,2.9,0.9,5.8,1.4,8.7c0.3,1.5,0.5,3,0.6,4.5c0,1.6-0.2,3.1-0.8,4.6c-0.9,2.4-2.5,4.4-4.6,5.7c-2.1,1.3-4.5,2-7,1.9
								c-5-0.2-9.3-3.5-10.9-8.2c-0.3-1.1-0.6-2.2-0.7-3.4c-0.2-1.1-0.4-2.2-0.6-3.3c-0.4-2.2-0.8-4.4-1.1-6.6
								c-0.7-4.3-1.5-8.6-2.2-12.7c-2.8-16.5-5.4-31.4-7.5-43.9c-2.1-12.4-3.8-22.5-5-29.5c-0.6-3.4-1-6.1-1.3-8
								C0.3,5.8,0.2,5.1,0.1,4.6C0,4.4,0,4.2,0,3.9c0.1,0.2,0.1,0.5,0.2,0.7l0.4,2.1c0.3,1.9,0.8,4.6,1.5,8.1
								c1.3,7,3.1,17.1,5.3,29.6c2.2,12.5,4.8,27.3,7.8,43.7c0.7,4.1,1.5,8.3,2.2,12.6c0.4,2.2,0.8,4.3,1.1,6.5
								c0.2,1.1,0.4,2.2,0.6,3.3c0.2,1.1,0.4,2.2,0.7,3.3c1.5,4.3,5.4,7.3,10,7.5c2.3,0.1,4.5-0.5,6.5-1.8c1.9-1.3,3.4-3.1,4.3-5.3
								c0.5-1.3,0.8-2.8,0.7-4.2c-0.1-1.5-0.3-2.9-0.6-4.3c-0.5-2.9-0.9-5.8-1.4-8.7c-0.9-5.7-1.8-11.4-2.7-16.9
								c-1.8-11-3.5-21.5-5-31.2c-3.1-19.5-5.8-36.2-7.8-48.6L24,0.6L6.4,3.1L1.7,3.8C1.2,3.8,0.8,3.9,0.4,3.9
								C0.3,3.9,0.1,3.9,0,3.9z"/>
						</g>
					</g>
				</g>
				<g id="Grupo_133906" transform="translate(20.492 65.286)">
					<path id="Trazado_173720" class="st8" d="M0,2.9l8.6,51.8c1,5.1,5.9,8.5,11.1,7.7l0,0c5.3-0.9,8.9-5.8,8.1-11.2
						c0-0.1,0-0.2-0.1-0.3L19,0L0,2.9z"/>
				</g>
				<g id="Grupo_133922">
					<g id="Grupo_133907">
						<path id="Rectángulo_36527" class="st8" d="M2.2,5.8l33.7-5.5c1.2-0.2,2.3,0.6,2.5,1.8l3.1,19c0.2,1.2-0.6,2.3-1.8,2.5
							L6,29.2c-1.2,0.2-2.3-0.6-2.5-1.8l-3.1-19C0.2,7.2,1,6,2.2,5.8z"/>
					</g>
					<g id="Grupo_133909" transform="translate(2.655 5.747)">
						<g id="Grupo_133908">
							<path id="Trazado_173721" class="st7" d="M3.8,23.1c-0.3,0-1.3-5.1-2.4-11.5S-0.2,0,0.1,0s1.3,5.1,2.4,11.5S4.1,23,3.8,23.1z
								"/>
						</g>
					</g>
					<g id="Grupo_133911" transform="translate(8.005 4.876)">
						<g id="Grupo_133910">
							<path id="Trazado_173722" class="st7" d="M3.8,23.1c-0.3,0-1.3-5.1-2.4-11.5S-0.2,0,0.1,0s1.3,5.1,2.4,11.5S4.1,23,3.8,23.1z
								"/>
						</g>
					</g>
					<g id="Grupo_133913" transform="translate(13.355 4.004)">
						<g id="Grupo_133912">
							<path id="Trazado_173723" class="st7" d="M3.8,23.1c-0.3,0-1.3-5.1-2.4-11.5S-0.2,0,0.1,0s1.3,5.1,2.4,11.5S4.1,23,3.8,23.1z
								"/>
						</g>
					</g>
					<g id="Grupo_133915" transform="translate(18.704 3.135)">
						<g id="Grupo_133914">
							<path id="Trazado_173724" class="st7" d="M3.8,23.1c-0.3,0-1.3-5.1-2.4-11.5S-0.2,0,0.1,0s1.3,5.1,2.4,11.5S4.1,23,3.8,23.1z
								"/>
						</g>
					</g>
					<g id="Grupo_133917" transform="translate(24.054 2.263)">
						<g id="Grupo_133916">
							<path id="Trazado_173725" class="st7" d="M3.8,23.1c-0.3,0-1.3-5.1-2.4-11.5S-0.2,0,0.1,0s1.3,5.1,2.4,11.5S4.1,23,3.8,23.1z
								"/>
						</g>
					</g>
					<g id="Grupo_133919" transform="translate(29.404 1.394)">
						<g id="Grupo_133918">
							<path id="Trazado_173726" class="st7" d="M3.8,23.1c-0.3,0-1.3-5.1-2.4-11.5S-0.2,0,0.1,0s1.3,5.1,2.4,11.5S4.1,23,3.8,23.1z
								"/>
						</g>
					</g>
					<g id="Grupo_133921" transform="translate(34.752 0.523)">
						<g id="Grupo_133920">
							<path id="Trazado_173727" class="st7" d="M3.8,23.1c-0.3,0-1.3-5.1-2.4-11.5S-0.2,0,0.1,0s1.3,5.1,2.4,11.5S4.1,23,3.8,23.1z
								"/>
						</g>
					</g>
				</g>
				<g id="Grupo_133923" transform="translate(19.649 39.809)">
					
						<rect id="Rectángulo_36528" x="4.5" y="0.7" transform="matrix(0.987 -0.1606 0.1606 0.987 -4.5469 2.1297)" class="st9" width="12.8" height="57.1"/>
				</g>
				<g id="Grupo_133924" transform="translate(25.132 49.489)">
					<path id="Trazado_173728" class="st7" d="M9.1,41.1c-1.6,0.2-3-1-3.2-2.6C5.8,37.8,6,37,6.5,36.4l0.8,0.7
						C7,37.5,6.8,38,6.9,38.5C7,39.4,7.9,40.1,8.8,40c0.9-0.1,1.6-0.9,1.5-1.9c0-0.1,0-0.1,0-0.2c-0.1-0.5-0.4-1-0.8-1.2l0.6-0.9
						c1.3,0.9,1.7,2.7,0.8,4C10.4,40.5,9.8,41,9.1,41.1L9.1,41.1z"/>
					<path id="Trazado_173729" class="st7" d="M8.2,35.8c-1.6,0.3-3.1-0.6-3.5-2.2c-0.3-1.6,0.6-3.1,2.2-3.5s3.1,0.6,3.5,2.2
						c0,0.1,0,0.1,0,0.2c0.3,1.5-0.6,2.9-2.1,3.3C8.3,35.7,8.2,35.8,8.2,35.8z M7.5,31.3c-0.9,0.2-1.5,1-1.3,1.9
						c0.2,0.9,1,1.5,1.9,1.3c0.9-0.2,1.5-1,1.3-1.9c-0.1-0.9-0.9-1.5-1.8-1.4C7.5,31.2,7.5,31.3,7.5,31.3L7.5,31.3z"/>
					<path id="Trazado_173730" class="st7" d="M9.2,25.4l-1.3,1.2l0,0.1l0.2,1.1l1.5-0.2l0.2,1.2l-5.2,0.9l-0.4-2.3
						c-0.2-1.4,0.4-2.4,1.5-2.6c0.7-0.1,1.5,0.2,1.8,0.8L9,24.1L9.2,25.4z M5.1,27.2l0.2,1l1.8-0.3l-0.2-1c-0.1-0.7-0.5-1.1-1.1-1
						S5,26.5,5.1,27.2L5.1,27.2z"/>
					<path id="Trazado_173731" class="st7" d="M2.8,19l5.6,1.4l0.2,1.2l-4.9,3.1l-0.2-1.3L7,21.3l-4-1L2.8,19z"/>
					<path id="Trazado_173732" class="st7" d="M2.7,18.6l-0.2-1.2l5.2-0.9l0.2,1.2L2.7,18.6z"/>
					<path id="Trazado_173733" class="st7" d="M2.3,16.2l-0.4-2.4c-0.4-1.4,0.5-2.9,1.9-3.3c1.4-0.4,2.9,0.5,3.3,1.9
						c0,0.2,0.1,0.3,0.1,0.5l0.4,2.4L2.3,16.2z M6.2,13.2c-0.1-0.9-0.9-1.6-1.8-1.5c-0.9,0.1-1.6,0.9-1.5,1.8c0,0.1,0,0.1,0,0.2
						l0.2,1.1l3.2-0.5L6.2,13.2z"/>
					<path id="Trazado_173734" class="st7" d="M4,9.8L3.7,7.7l0.9-0.2l0.3,2.1L4,9.8z"/>
					<path id="Trazado_173735" class="st7" d="M0.6,5.6l5.2-0.9L6,5.9L1.8,6.6l0.2,1L1,7.8L0.6,5.6z"/>
					<path id="Trazado_173736" class="st7" d="M2.3,0.1c1.4-0.4,2.8,0.4,3.2,1.8c0,0.1,0.1,0.3,0.1,0.4c0.1,0.5,0.1,1-0.1,1.5
						l-1-0.3c0.1-0.3,0.2-0.7,0.1-1C4.4,1.7,3.7,1.1,3,1.2c-0.1,0-0.1,0-0.2,0C3.1,1.5,3.4,2,3.4,2.4c0.2,0.9-0.3,1.8-1.2,2
						c0,0-0.1,0-0.1,0C1.1,4.7,0.2,4,0.1,3c0,0,0-0.1,0-0.1C-0.2,1.4,0.6,0.3,2.3,0.1z M1.6,1.6C1.1,1.6,0.8,2.1,0.9,2.5
						c0,0,0,0.1,0,0.1C1,3,1.3,3.4,1.8,3.4c0,0,0.1,0,0.1,0c0.4-0.1,0.7-0.5,0.7-0.9c0,0,0-0.1,0-0.1C2.5,1.9,2.1,1.5,1.6,1.6
						C1.6,1.6,1.6,1.6,1.6,1.6L1.6,1.6z"/>
				</g>
			</g>
		</g>
		<g id="List" transform="translate(82.498 259.375)">
			<g id="Grupo_133953">
				<g id="Grupo_133927" transform="translate(0 1.388)">
					<g id="Grupo_133926">
						<path id="Trazado_173737" class="st12" d="M35.9,35.7c-0.1-0.9-0.1-1.8-0.1-2.6c0-1.8-0.1-4.2-0.2-7.2
							c-0.1-6.3-0.2-14.9-0.3-25.2l0.6,0.6c-10.2,0-22.2,0.1-35,0.1C0.7,1.5,2.2,0.1,1.5,0.7v2.4v2.4c0,1.6,0,3.1,0,4.7
							c0,3.1,0,6.1,0,9.1c0,5.9,0,11.4-0.1,16.5l-0.6-0.6c10.3,0.1,18.9,0.2,25.2,0.3l7.2,0.2C34.1,35.6,35,35.6,35.9,35.7
							c-0.8,0.1-1.6,0.2-2.4,0.1L26.4,36L0.8,36.3l-0.6,0v-0.6c0-5.1,0-10.7-0.1-16.5c0-2.9,0-6,0-9.1c0-1.5,0-3.1,0-4.7V3.1V0.7
							C-0.4,1.3,1-0.1,0.9,0l35,0.1h0.6l0,0.6c-0.1,10.4-0.2,19.2-0.3,25.6c-0.1,2.9-0.1,5.2-0.2,7C36,34.1,36,34.9,35.9,35.7z"/>
					</g>
				</g>
				<g id="Grupo_133929" transform="translate(52.052 19.181)">
					<g id="Grupo_133928">
						<path id="Trazado_173738" class="st12" d="M71.4,0.7c0,0.4-16,0.7-35.7,0.7S0,1.1,0,0.7S16,0,35.7,0S71.4,0.3,71.4,0.7z"/>
					</g>
				</g>
				<g id="Grupo_133934" transform="translate(6.874)">
					<g id="Grupo_133933">
						<g id="Grupo_133932">
							<g id="Grupo_133931">
								<g id="Grupo_133930">
									<path id="Trazado_173739" class="st13" d="M0,17.3l4.9-6l11.5,8.3L31.9,0l5.6,5L16.7,30.3L0,17.3z"/>
								</g>
							</g>
						</g>
					</g>
				</g>
				<g id="Grupo_133936" transform="translate(0 49.22)">
					<g id="Grupo_133935">
						<path id="Trazado_173740" class="st12" d="M35.9,35.7c-0.1-0.9-0.1-1.8-0.1-2.6c0-1.8-0.1-4.2-0.2-7.2
							c-0.1-6.3-0.2-14.9-0.3-25.2l0.6,0.6l-35,0.1C0.7,1.5,2.2,0.1,1.5,0.7v2.4v2.4c0,1.6,0,3.1,0,4.7c0,3.1,0,6.1,0,9.1
							c0,5.9,0,11.4-0.1,16.5l-0.6-0.6l25.2,0.3c3,0.1,5.3,0.1,7.2,0.2C34.1,35.6,35,35.6,35.9,35.7c-0.8,0.1-1.6,0.2-2.4,0.1
							c-1.8,0-4.2,0.1-7.1,0.2c-6.4,0.1-15.1,0.2-25.6,0.3l-0.6,0v-0.6c0-5.1,0-10.7-0.1-16.5c0-2.9,0-6,0-9.1c0-1.5,0-3.1,0-4.7
							V3.1V0.7C-0.4,1.3,1-0.1,0.9,0c12.8,0,24.8,0.1,35,0.1h0.6l0,0.6c-0.1,10.4-0.2,19.2-0.3,25.6c-0.1,2.9-0.1,5.2-0.2,7.1
							C36,34.1,36,34.9,35.9,35.7z"/>
					</g>
				</g>
				<g id="Grupo_133938" transform="translate(52.052 67.015)">
					<g id="Grupo_133937">
						<path id="Trazado_173741" class="st12" d="M71.4,0.7c0,0.4-16,0.7-35.7,0.7S0,1.1,0,0.7S16,0,35.7,0S71.4,0.3,71.4,0.7z"/>
					</g>
				</g>
				<g id="Grupo_133943" transform="translate(6.874 47.833)">
					<g id="Grupo_133942">
						<g id="Grupo_133941">
							<g id="Grupo_133940">
								<g id="Grupo_133939">
									<path id="Trazado_173742" class="st13" d="M0,17.3l4.9-6l11.5,8.3L31.9,0l5.6,5L16.7,30.3L0,17.3z"/>
								</g>
							</g>
						</g>
					</g>
				</g>
				<g id="Grupo_133945" transform="translate(0 96.87)">
					<g id="Grupo_133944">
						<path id="Trazado_173743" class="st12" d="M35.9,35.7c-0.1-0.9-0.1-1.8-0.1-2.6c0-1.8-0.1-4.2-0.2-7.2
							c-0.1-6.3-0.2-14.9-0.3-25.2l0.6,0.6l-35,0.1C0.7,1.5,2.2,0.1,1.5,0.7v2.4v2.4c0,1.6,0,3.1,0,4.7c0,3.1,0,6.1,0,9.1
							c0,5.9,0,11.4-0.1,16.5l-0.6-0.6c10.3,0.1,18.9,0.2,25.2,0.3c3,0.1,5.3,0.1,7.2,0.2C34.1,35.6,35,35.6,35.9,35.7
							c-0.8,0.1-1.6,0.2-2.4,0.1L26.4,36L0.8,36.3l-0.6,0v-0.6c0-5.1,0-10.7-0.1-16.5c0-2.9,0-6,0-9.1c0-1.5,0-3.1,0-4.7V3.1V0.7
							C-0.4,1.3,1-0.1,0.9,0l35,0.1h0.6l0,0.6c-0.1,10.4-0.2,19.2-0.3,25.6c-0.1,2.9-0.1,5.2-0.2,7.1C36,34.1,36,34.9,35.9,35.7z"/>
					</g>
				</g>
				<g id="Grupo_133947" transform="translate(52.052 114.662)">
					<g id="Grupo_133946">
						<path id="Trazado_173744" class="st12" d="M71.4,0.7c0,0.4-16,0.7-35.7,0.7S0,1.1,0,0.7S16,0,35.7,0S71.4,0.3,71.4,0.7z"/>
					</g>
				</g>
				<g id="Grupo_133952" transform="translate(6.874 95.482)">
					<g id="Grupo_133951">
						<g id="Grupo_133950">
							<g id="Grupo_133949">
								<g id="Grupo_133948">
									<path id="Trazado_173745" class="st13" d="M0,17.3l4.9-6l11.5,8.3L31.9,0l5.6,5L16.7,30.3L0,17.3z"/>
								</g>
							</g>
						</g>
					</g>
				</g>
			</g>
		</g>
		<g id="Speech_Bubble_3" transform="translate(422.364 166.398)">
			<g id="Grupo_133968">
				<g id="Grupo_133961">
					<g id="Grupo_133960">
						<g id="Grupo_133959">
							<g id="Grupo_133958">
								<g id="Grupo_133957">
									<g id="Grupo_133954" transform="translate(0.457 0.661)">
										<path id="Trazado_173746" class="st10" d="M7.1,127.3l3.1-20.8C-10,73.3,0.6,30.1,33.7,10s76.3-9.6,96.4,23.5
											s9.6,76.3-23.5,96.4c-25,15.2-56.7,13.3-79.7-4.7l0,0L7.1,127.3z"/>
									</g>
									<g id="Grupo_133956">
										<g id="Grupo_133955">
											<path id="Trazado_173747" class="st12" d="M7.6,127.9c0,0,0.5-0.1,1.3-0.2l3.8-0.5c3.4-0.4,8.3-0.9,14.6-1.6l-0.2,0.4
												l0,0c-0.1-0.1-0.1-0.3,0-0.4c0,0,0,0,0,0c0.1-0.1,0.2-0.1,0.3,0c9,7,19.6,11.7,30.9,13.6c3.5,0.6,7.1,0.9,10.7,1
												c1.9,0.1,3.8-0.1,5.7-0.2c2-0.1,3.9-0.3,5.8-0.6c8.4-1.2,16.5-4,23.9-8.2c27.3-15.3,41-47.1,33.3-77.5
												c-1.4-5.4-3.3-10.7-5.9-15.6c-5.4-10-13.2-18.6-22.6-25c-4.6-3.1-9.6-5.6-14.8-7.5c-10-3.7-20.8-5.1-31.5-3.9
												C24.8,5.9-2.8,40.4,1.4,78.7c1.1,10,4.3,19.7,9.5,28.3c0,0.1,0,0.1,0,0.2C9.9,113.8,9,119,8.5,122.5
												c-0.3,1.7-0.5,3-0.7,4C7.7,127.4,7.6,127.9,7.6,127.9c0,0,0-0.4,0.1-1.3c0.1-1,0.3-2.3,0.5-4c0.5-3.6,1.2-8.8,2.1-15.6
												l0,0.2C4.3,97.4,0.8,86.2,0.1,74.6C-1.9,37.1,25.6,4.6,62.9,0.4c10.9-1.2,21.8,0.2,32.1,4c5.3,1.9,10.4,4.5,15.1,7.6
												c14.5,9.7,24.9,24.5,29,41.5c7.7,30.9-6.2,63.2-34,78.8c-7.5,4.2-15.8,7-24.3,8.2c-2,0.4-3.9,0.6-5.9,0.6
												c-2,0-3.9,0.2-5.8,0.2c-3.6-0.1-7.3-0.4-10.9-1.1c-11.4-2.1-22-6.9-31.1-14.1l0.4-0.4l0,0c0.1,0.1,0.1,0.3-0.1,0.4
												c0,0-0.1,0.1-0.1,0.1c-6.4,0.6-11.4,1-14.8,1.3l-3.8,0.3C8,127.9,7.6,127.9,7.6,127.9z"/>
										</g>
									</g>
								</g>
							</g>
						</g>
					</g>
				</g>
				<g id="Grupo_133967" transform="translate(30.768 33.499)">
					<g id="Grupo_133962">
						<path id="Rectángulo_36529" class="st5" d="M53,58.9l-10.8,7.2c-0.8,0.5-1.8,0.3-2.3-0.5c0,0,0,0,0,0L13.3,25.8l0,0l13.6-9.1
							l0,0l26.6,39.8C53.9,57.3,53.7,58.3,53,58.9z"/>
						<path id="Trazado_173748" class="st5" d="M56.7,77.4c-0.4,0-0.9-0.2-1.1-0.6L44.7,60.5c-0.4-0.6-0.2-1.4,0.4-1.8
							c0.6-0.4,1.4-0.2,1.8,0.4l0,0l10.9,16.3c0.4,0.6,0.2,1.4-0.4,1.8c0,0,0,0,0,0C57.2,77.4,57,77.4,56.7,77.4z"/>
						<path id="Trazado_173749" class="st5" d="M6.4,31.8c-0.7,0-1.3-0.6-1.3-1.3c0-0.4,0.2-0.9,0.6-1.1L33,11.1
							c0.6-0.4,1.4-0.2,1.8,0.4s0.2,1.4-0.4,1.8l0,0L7.2,31.5C6.9,31.7,6.7,31.8,6.4,31.8z"/>
						<path id="Trazado_173750" class="st5" d="M16.7,29.1L3.5,9.4l11.8-7.9l13.2,19.7L16.7,29.1z M7.1,10.1l10.3,15.3l7.4-5
							L14.6,5.1L7.1,10.1z"/>
						<path id="Trazado_173751" class="st5" d="M1.3,13.7c-0.7,0-1.3-0.6-1.3-1.3c0-0.4,0.2-0.8,0.6-1.1L17.2,0.2
							C17.8-0.2,18.6,0,19,0.6s0.2,1.4-0.4,1.8l0,0L2.1,13.5C1.8,13.6,1.6,13.7,1.3,13.7z"/>
						<path id="Trazado_173752" class="st10" d="M43.9,53.5c-0.4,0-0.7-0.3-0.7-0.7c0-0.2,0.1-0.4,0.3-0.6l4.5-3
							c0.3-0.2,0.7-0.1,0.9,0.2c0.2,0.3,0.1,0.7-0.2,0.9l0,0l-4.5,3C44.2,53.5,44.1,53.5,43.9,53.5z"/>
						<path id="Trazado_173753" class="st10" d="M38.5,45.3c-0.4,0-0.7-0.3-0.7-0.7c0-0.2,0.1-0.4,0.3-0.5l4.5-3
							c0.3-0.2,0.7-0.1,0.9,0.2c0.2,0.3,0.1,0.7-0.2,0.9l-4.5,3C38.7,45.3,38.6,45.3,38.5,45.3z"/>
						<path id="Trazado_173754" class="st10" d="M39.1,51c-0.4,0-0.7-0.3-0.7-0.7c0-0.2,0.1-0.4,0.3-0.6l6.7-4.5
							c0.3-0.2,0.7-0.1,0.9,0.2c0.2,0.3,0.1,0.7-0.2,0.9l0,0l-6.7,4.5C39.4,51,39.3,51,39.1,51z"/>
						<path id="Trazado_173755" class="st10" d="M32.4,36.3c-0.4,0-0.7-0.3-0.7-0.7c0-0.2,0.1-0.4,0.3-0.5l4.5-3
							c0.3-0.2,0.7-0.1,0.9,0.2c0.2,0.3,0.1,0.7-0.2,0.9l0,0l-4.5,3C32.7,36.3,32.6,36.3,32.4,36.3z"/>
						<path id="Trazado_173756" class="st10" d="M33.1,42c-0.4,0-0.7-0.3-0.7-0.7c0-0.2,0.1-0.4,0.3-0.6l6.7-4.5
							c0.3-0.2,0.7-0.1,0.9,0.2c0.2,0.3,0.1,0.7-0.2,0.9l-6.7,4.5C33.4,41.9,33.2,42,33.1,42z"/>
						<path id="Trazado_173757" class="st10" d="M26.7,27.7c-0.4,0-0.7-0.3-0.7-0.7c0-0.2,0.1-0.4,0.3-0.6l4.5-3
							c0.3-0.2,0.7-0.1,0.9,0.2c0.2,0.3,0.1,0.7-0.2,0.9l0,0l-4.5,3C27,27.7,26.9,27.7,26.7,27.7z"/>
						<path id="Trazado_173758" class="st10" d="M27.4,33.4c-0.4,0-0.7-0.3-0.7-0.7c0-0.2,0.1-0.4,0.3-0.5l6.7-4.5
							c0.3-0.2,0.7-0.1,0.9,0.2c0.2,0.3,0.1,0.7-0.2,0.9l0,0l-6.7,4.5C27.6,33.4,27.5,33.4,27.4,33.4z"/>
					</g>
					<path id="Trazado_173759" class="st14" d="M80.6,47.6c0,9.7-7.8,17.5-17.5,17.5s-17.5-7.8-17.5-17.5c0-9.7,7.8-17.5,17.5-17.5
						c0,0,0,0,0,0C72.8,30.1,80.6,37.9,80.6,47.6z"/>
					<g id="Grupo_133966" transform="translate(53.1 39.496)">
						<g id="Grupo_133965">
							<g id="Grupo_133964">
								<g id="Grupo_133963">
									<path id="Trazado_173760" class="st10" d="M0,9.3L2.6,6l6.1,4.4L17,0l3,2.7L8.9,16.2L0,9.3z"/>
								</g>
							</g>
						</g>
					</g>
				</g>
			</g>
		</g>
		<g id="Speech_Bubble_3-2" transform="translate(450.364 345.406)">
			<g id="Grupo_133968-2">
				<g id="Grupo_133961-2">
					<g id="Grupo_133960-2">
						<g id="Grupo_133959-2">
							<g id="Grupo_133958-2">
								<g id="Grupo_133957-2">
									<g id="Grupo_133954-2" transform="translate(0.366 0.53)">
										<path id="Trazado_173746-2" class="st10" d="M5.7,102l2.4-16.7C-8,58.8,0.4,24.2,27,8c26.6-16.1,61.2-7.7,77.3,18.8
											c16.1,26.6,7.7,61.2-18.8,77.3c-20,12.2-45.5,10.7-63.9-3.8l0,0L5.7,102z"/>
									</g>
									<g id="Grupo_133956-2">
										<g id="Grupo_133955-2">
											<path id="Trazado_173747-2" class="st12" d="M6.1,102.6c0,0,0.4-0.1,1.1-0.1l3.1-0.4l11.7-1.3l-0.2,0.4l0,0
												c-0.1-0.1-0.1-0.2,0-0.3c0,0,0,0,0,0c0.1-0.1,0.2-0.1,0.3,0c7.2,5.6,15.7,9.4,24.8,10.9c2.8,0.5,5.7,0.8,8.6,0.8
												c1.5,0,3-0.1,4.6-0.2c1.6,0,3.1-0.2,4.7-0.5c6.7-1,13.2-3.2,19.1-6.5c21.9-12.3,32.9-37.8,26.7-62.1
												c-1.1-4.3-2.7-8.5-4.8-12.5c-4.4-8-10.6-14.9-18.1-20.1c-3.7-2.5-7.7-4.5-11.8-6c-8-3-16.7-4.1-25.2-3.2
												C19.9,4.8-2.3,32.4,1.1,63.1c0.9,8,3.5,15.8,7.6,22.7c0,0,0,0.1,0,0.2c-0.8,5.3-1.5,9.5-1.9,12.3
												c-0.2,1.4-0.4,2.4-0.5,3.2C6.1,102.2,6.1,102.6,6.1,102.6c0,0,0-0.3,0.1-1c0.1-0.8,0.2-1.8,0.4-3.2
												c0.4-2.9,1-7.1,1.7-12.5l0,0.2c-4.9-7.9-7.7-16.9-8.2-26.1C-1.6,29.8,20.5,3.7,50.5,0.4c8.7-1,17.5,0.1,25.7,3.2
												c4.3,1.6,8.3,3.6,12.1,6.1c11.6,7.8,19.9,19.6,23.3,33.2c6.2,24.8-5,50.7-27.3,63.2c-6,3.4-12.6,5.6-19.5,6.6
												c-1.6,0.3-3.2,0.4-4.8,0.5c-1.6,0-3.1,0.2-4.6,0.1c-2.9-0.1-5.8-0.4-8.7-0.9c-9.1-1.7-17.7-5.5-24.9-11.3l0.3-0.3l0,0
												c0.1,0.1,0.1,0.2,0,0.3c0,0-0.1,0-0.1,0c-5.1,0.5-9.1,0.8-11.9,1.1l-3,0.3C6.4,102.6,6.1,102.6,6.1,102.6z"/>
										</g>
									</g>
								</g>
							</g>
						</g>
					</g>
				</g>
				<g id="PgjHFK.tif" transform="translate(27.155 13.963)">
					<g id="Grupo_128175" transform="translate(0 0)">
						<path id="Trazado_165193" class="st5" d="M11.1,80.4c0-0.3,0-0.5,0-0.8c0-8.6,0-17.2,0-25.8c0-0.2,0-0.5,0-0.9l-1,1.2L0,47.3
							c0.3-0.4,0.5-0.8,0.7-1.2c1.4-2.2,2.7-4.5,4.1-6.7c2.1-3.8,6.2-6.1,10.5-6c2.1,0,4.2,0,6.3,0c1.2,0,1.6-0.5,1.6-1.6
							c0,0,0-0.1,0-0.1c0.3-2.2-0.3-4.3-1.6-6.1c-1.1-1.8-2.2-3.6-3.2-5.5c-0.4-0.7-0.6-1.5-0.6-2.3c-0.1-2.5,0-5,0.2-7.4
							c0.7-5.1,4.6-9.3,9.7-10.2c5.9-1.1,11.7,2.3,13.6,8c0.3,1.1,0.5,2.2,0.7,3.4c0,0.2,0,0.5,0,0.7c0,1.8,0.3,3.7-0.1,5.4
							c-0.6,1.7-1.3,3.3-2.3,4.9c-0.5,1.1-1,2.1-1.6,3.1c-1.2,1.9-1.7,4.1-1.4,6.4c0.1,1,0.5,1.5,1.5,1.5c2.7,0,5.3-0.1,8,0.2
							c3.6,0.3,6.9,2.3,8.7,5.4c1.5,2.5,3,5,4.6,7.5c0.1,0.2,0.3,0.4,0.4,0.7l-10.2,6.8L48.9,53c-0.1,0.1-0.1,0.3-0.1,0.4
							c0,8.9,0,17.8,0,26.7c0,0.1,0,0.2,0.1,0.3H46c0-0.3,0-0.6,0-0.9c0-11,0-21.9,0-32.9v-1h2.8c-0.5,2,0.5,3.3,1.7,4.7l5.8-3.9
							c-1.3-2.1-2.5-4.1-3.7-6c-0.2-0.4-0.4-0.7-0.7-1c-1.9-2.2-4.6-3.3-7.4-3.2c-2.3,0-4.6,0-6.9-0.1c-1.9-0.1-3.3-1.6-3.5-3.5
							c-0.1-1,0-2.1,0-3.1h-2.6V39c0.9,0.1,1.8,0.2,2.6,0.4c5.6,1.2,9.6,6.2,9.4,11.9c0,5.7,0.1,11.3,0,17c0.2,5-2.8,9.6-7.5,11.3
							c-0.9,0.3-1.9,0.6-2.9,0.8h-6.1c-0.1-0.1-0.2-0.1-0.3-0.1c-4.8-0.7-8.6-4.3-9.7-9.1c0-0.2-0.1-0.4-0.3-0.6
							c-0.8-0.5-1.6-1-2.5-1.6c0.5,3.5,2.2,6.7,4.8,9l-1.9,2l-2.9-3.4v3.8L11.1,80.4z M40.6,62.3c-0.4,0.2-0.7,0.3-1.1,0.4
							c-2.2,1.1-4.6,1.7-7,1.7c-0.7,0-1.1,0.4-1.2,1.2c-0.4,2.8-1.9,4.1-4.7,4.1c-0.9-0.1-1.8,0.2-2.5,0.9c-0.5,0.5-1.3,0.6-1.8,0.1
							c0,0,0,0-0.1-0.1c-0.5-0.5-0.5-1.4,0-1.9c0,0,0,0,0,0c0.8-1,1.9-1.6,3.1-1.6c0.7,0,1.3,0,1.9-0.1c0.5-0.1,0.9-0.5,1.1-0.9
							c0.1-0.5,0.1-1.1,0-1.7c-0.9,0.1-1.8,0.1-2.7,0c-1.2-0.2-2.2-0.2-2.9,1c0,0-0.1,0.1-0.1,0.1c-0.5,0.4-1.3,0.4-1.7-0.1
							c-0.5-0.4-0.6-1.2-0.2-1.7c0.1-0.2,0.2-0.3,0.3-0.5c-0.5-0.2-1-0.4-1.5-0.6c-0.1,0-0.2-0.1-0.4-0.1c0.4,3.7-0.8,7.6,1.5,11.1
							c0.6-0.3,1.2-0.6,1.9-0.9c0.6-0.4,1.5-0.2,1.9,0.5c0,0,0,0,0,0.1c0.3,0.7,0.1,1.5-0.6,1.8c0,0-0.1,0-0.1,0
							c-0.4,0.2-0.8,0.4-1.2,0.6c2.5,2.2,9.5,3,11.9,1.5c-0.2-0.3-0.4-0.6-0.6-0.9c-0.4-0.8-1.2-1.2-2-1.1c-1,0.1-1.9,0-2.9,0
							c-1.1,0-1.8-0.5-1.8-1.3c0-0.9,0.6-1.4,1.7-1.4c1.1,0,2.1,0,3.2,0c1.6-0.1,3.1,0.7,3.9,2.1c0.3,0.5,0.6,0.9,0.9,1.3
							c2.4-1.5,4.1-5.4,3.5-7.8l-2.6,1.3c0.3,0.2,0.7,0.5,1,0.8c0.6,0.5,0.6,1.3,0.1,1.9c0,0-0.1,0.1-0.1,0.1
							c-0.5,0.5-1.3,0.5-1.9,0c0,0-0.1-0.1-0.1-0.1c-0.6-0.5-1.1-1.1-1.6-1.6c-0.3-0.4-0.8-0.6-1.3-0.6c-0.7,0.1-1.4-0.5-1.4-1.2
							c0,0,0-0.1,0-0.1c0-0.7,0.5-1.3,1.2-1.3c0.1,0,0.1,0,0.2,0c2.3,0.1,4.2-1,6.2-2c0.2-0.1,0.3-0.3,0.4-0.6
							C40.7,63.8,40.6,63.1,40.6,62.3L40.6,62.3z M31.4,2.9v18.6h2.6v2.7h-2.6v2.6c0.9,0,1.7,0,2.5,0c0.4,0.1,0.8-0.2,0.9-0.6
							c1.4-2.9,2.9-5.8,4.3-8.7c0.1-0.3,0.2-0.5,0.2-0.8c0-1.9,0-3.9-0.1-5.8C38.7,6.8,35.5,3.5,31.4,2.9L31.4,2.9z M19.1,57.6
							c0.9,0,1.6,0,2.3,0c0.8,0,1.6-0.4,2.1-1.1c1.6-1.9,3.2-3.8,4.7-5.7c0.2-0.3,0.3-0.6,0.3-1c0-2.3,0-4.5,0-6.8
							c0-0.4,0-0.8,0-1.2c-4.2-0.2-8,2.7-8.9,6.8C19.3,51.6,19.1,54.6,19.1,57.6L19.1,57.6z M28.5,21.4V2.8c-0.1,0-0.3,0-0.4,0
							c-4.2,0.8-7.3,4.4-7.4,8.7c-0.1,1.9,0,3.9,0,5.9c1,0,1.9,0,2.7,0c1.3,0,2.4,1,2.6,2.3c0.1,0.5,0.1,1.1,0.1,1.6L28.5,21.4z
							 M31.4,45.5c0.1,0,0.1,0.1,0.1,0.1c0.1,0,0.2,0,0.3,0c1.9-0.1,3.7,1,4.4,2.8c0.4,0.8,0.8,1.6,1.2,2.4c0.3,0.6,0.4,1.2,0.5,1.8
							c0.3,1.6-0.4,3.3-1.7,4.3c1.4,1.2,2.9,0.8,4.4,0.8c0-2.2,0-4.4,0-6.6c0.1-2.5-1-4.9-2.8-6.7c-1.7-1.7-4.1-2.6-6.5-2.6
							L31.4,45.5z M21.3,39.4c-0.2,0.1-0.3,0.1-0.4,0.2c-0.1,0.1-0.2,0.1-0.3,0.2c-3.4,2.2-5.7,5.7-6.5,9.6
							c-0.6,2.7,0.9,4.5,2.4,6.3c0.1-1.4,0.1-2.8,0.1-4.2c-0.1-2.8,0.8-5.6,2.6-7.8c1-1,2-2,3-3L21.3,39.4z M28.4,54.9
							c-0.4,0.5-1.2,1.4-1.9,2.3c-1.2,1.6-2.5,2.9-4.8,3.1c1.3,0.8,2.5,1.2,3.9,0.5c0.3-0.1,0.6-0.2,1-0.3c1.7-0.6,3.3-1.6,4.4-3
							L28.4,54.9z M31.3,48.3v4.1c-0.1,1.1,0.7,2.1,1.8,2.4c0.8,0.3,1.7-0.1,2-0.9c0,0,0-0.1,0-0.1c0.1-0.6,0.1-1.3-0.1-1.9
							c-0.3-0.8-0.7-1.6-1.1-2.3C33.4,48.6,32.4,48.1,31.3,48.3L31.3,48.3z M12.2,45.7l-6.5,2.2l3.8,2.5
							C10.6,48.9,12,47.7,12.2,45.7L12.2,45.7z M33.8,58.3l-2.9,3.3c2.2,0,4.8,0.2,7.1-1.3C36.4,60.2,34.9,59.5,33.8,58.3L33.8,58.3
							z M12.5,36.6c-1.4,0.3-1.4,0.3-1.6,1.6c-0.1,0.5-0.2,1-0.2,1.5c0,1.2,0,2.3,0,3.6c0.5-0.2,1-0.5,1.5-0.7
							c0.2-0.2,0.3-0.4,0.4-0.7C12.6,40.2,12.5,38.5,12.5,36.6L12.5,36.6z M26,29.6c0.4,2.4,1.3,4.7,2.6,6.7v-6.7H26z M22.6,36.3
							c0.6,1,1.2,2,1.8,2.9c0.1,0.2,0.4,0.4,0.5,0.4c0.6-0.1,1.3-0.3,1.9-0.4l-2.1-4L22.6,36.3z M4.5,45.1l0.1,0.2
							c0.6-0.2,1.3-0.3,1.9-0.5C8.1,44.4,8,44.4,8,42.8c0-1,0-2.1,0-3.1l-0.2,0L4.5,45.1z M15.2,40.6c1.5-1.1,2.7-2.6,3.4-4.3h-3.4
							L15.2,40.6z M28.5,26.7v-2.5H26v2.5H28.5z M16.6,62c-0.1-0.8,0.1-1.8-0.3-2.3c-0.7-0.9-1.5-1.7-2.3-2.4
							C13.8,59.2,14.8,61.1,16.6,62L16.6,62z M16.5,67.5c0-0.8,0-1.3,0-1.9c0-0.2-0.1-0.4-0.3-0.5c-0.7-0.5-1.5-1-2.4-1.6
							C14.2,65.1,15.2,66.5,16.5,67.5L16.5,67.5z M23.2,20.2h-1.6l1.5,2.6l0.1-0.1V20.2z"/>
						<path id="Trazado_165195" class="st5" d="M34.6,14.8c-1.1,0-2-0.9-2-2c0-1.1,0.9-2,2-2c1.1,0.1,2,1,2.1,2.1
							C36.6,13.9,35.7,14.7,34.6,14.8z M34.6,13.7c0.3-0.4,0.6-0.7,0.6-0.9c0-0.2-0.4-0.4-0.6-0.6c-0.2,0.2-0.6,0.4-0.6,0.6
							C34,13,34.3,13.2,34.6,13.7L34.6,13.7z"/>
						<path id="Trazado_165196" class="st5" d="M27.3,12.7c0,1.1-0.9,2-2,2c-1.1,0-2-0.9-2.1-2c0.1-1.1,0.9-1.9,2-2
							C26.4,10.8,27.2,11.6,27.3,12.7z M25.3,13.7c0.3-0.5,0.6-0.7,0.6-0.9s-0.4-0.4-0.6-0.6c-0.2,0.2-0.6,0.4-0.6,0.7
							C24.6,13,25,13.2,25.3,13.7L25.3,13.7z"/>
					</g>
				</g>
			</g>
		</g>
		<g id="Character_3" transform="translate(132.367 211.978)">
			<g id="Grupo_134141" transform="translate(-10 8.9)">
				<g id="Grupo_133969" transform="translate(97.184 159.789)">
					<path id="Trazado_173761" class="st15" d="M17.5,0c-1,8.5-4.4,21.5-7.8,27S5.1,38.5,4.3,45C3,56.4,11.8,68,7.6,78.7
						c-2.4,6-8.8,11.2-7.4,17.5c0.8,3.4,3.9,6,7.2,7.1s7,1.1,10.5,1.1l35.6-0.4c6.4-0.1,13.6-0.5,17.7-5.5c2.7-3.4,3.3-8,3.6-12.3
						c2.2-25.4,3.5-50.9,3.9-76.5L17.5,0z"/>
				</g>
				<g id="Grupo_134135">
					<g id="Grupo_134134">
						<g id="Grupo_134131">
							<g id="Grupo_133988" transform="translate(0 190.839)">
								<g id="Grupo_133970">
									<path id="Trazado_173762" class="st16" d="M11.9,55.9c-3,0-5.9,1-8.4,2.9c-2.4,1.7-3.2,5.8-3.3,7.6c-0.7,7,0,13.1,4,18.9
										l14.7,26.6l-0.9,9.3l39.6,2l-0.2-22.7c0,0,2.1-7.5,3.1-10.5s1.1-11.7,1.1-11.7s-3.6-21-2.3-30.7C60.5,38.1,56,11.6,54,4
										s-9-3.2-9.7,3.1s2.3,20.4,0,32.3c0,0-1,3.9-3.1,1.2c-1.2-1.5-8.1-4-13.1,1.4c-1,1.1-1.8,2.5-2.2,4
										c-0.4,1.4-1.2,3.3-2.2,3.1c-2.1-0.7-4.3-0.7-6.3,0.1C14.2,50.2,11.9,55.9,11.9,55.9z"/>
								</g>
								<g id="Grupo_133987" transform="translate(7.391 46.239)">
									<g id="Grupo_133974" transform="translate(17.273)">
										<g id="Grupo_133971" transform="translate(0.402)">
											<path id="Trazado_173763" class="st16" d="M1.1,4.7c-0.4,9-0.7,18-1.1,27c-0.1,2.7-0.2,5.5,1,8s4.2,4.4,6.9,3.6
												c1.7-0.6,3.1-2,3.6-3.7c0.5-1.7,0.7-3.4,0.7-5.2c0.4-11.5,1.4-23,2.9-34.4"/>
										</g>
										<g id="Grupo_133973">
											<g id="Grupo_133972">
												<path id="Trazado_173764" class="st17" d="M15.6,0c0,0.3,0,0.6,0,0.9c-0.1,0.7-0.2,1.5-0.3,2.6
													c-0.2,2.4-0.5,5.6-0.9,9.5c-0.3,4-0.7,8.8-1,14.1c-0.1,2.6-0.3,5.4-0.3,8.3c0,1.5-0.2,3-0.7,4.5
													c-0.5,1.5-1.6,2.8-3.1,3.6c-1.5,0.7-3.3,0.7-4.7-0.1c-1.4-0.7-2.6-1.8-3.3-3.2c-1.4-2.7-1.2-5.7-1.2-8.4
													c0.2-5.3,0.5-10,0.7-14.1c0.2-3.9,0.4-7.1,0.5-9.5c0.1-1,0.1-1.9,0.2-2.6c0-0.3,0-0.6,0.1-0.9c0.1,0.3,0.1,0.6,0,0.9
													c0,0.7,0,1.5,0,2.6c-0.1,2.4-0.1,5.6-0.2,9.5c-0.1,4-0.3,8.8-0.5,14.1c-0.1,2.6-0.2,5.5,1.1,7.9
													c0.7,1.2,1.7,2.2,2.9,2.8c1.2,0.7,2.7,0.7,4,0.1c1.2-0.7,2.2-1.8,2.7-3.1c0.4-1.4,0.7-2.8,0.7-4.2
													c0.1-2.9,0.2-5.7,0.4-8.3c0.3-5.3,0.7-10.1,1.2-14.1s0.9-7.2,1.2-9.4c0.2-1.1,0.3-2,0.4-2.6C15.4,0.6,15.5,0.3,15.6,0z"
													/>
											</g>
										</g>
									</g>
									<g id="Grupo_133978" transform="translate(27.774 21.382)">
										<g id="Grupo_133975" transform="translate(0.422 0.401)">
											<path id="Trazado_173765" class="st16" d="M20.4,7.1c-3-1.1-8-4.4-10.9-5.8c-2.2-1.1-4.9-1.9-7-0.6C0.6,1.8-0.1,4,0,6.1
												c0.2,2.7,1.1,5.2,2.8,7.4c0.6,0.8,1.2,1.6,2,2.3c0.8,0.7,1.7,1.2,2.6,1.6c0.3,0.1,0.6,0.3,0.7,0.6
												c0.3,0.7,0.5,1.5,0.5,2.2c0.5,2,1.5,3.8,2.9,5.3c0.3,0.3,0.6,0.7,1,1"/>
										</g>
										<g id="Grupo_133977">
											<g id="Grupo_133976">
												<path id="Trazado_173766" class="st17" d="M12.9,26.9c0,0-0.2-0.1-0.4-0.3c-0.4-0.3-0.8-0.6-1.1-1
													c-1.2-1.4-2.1-3-2.6-4.8c-0.2-0.6-0.2-1.2-0.4-1.7c-0.1-0.2-0.2-0.5-0.4-0.6c-0.3-0.2-0.6-0.3-0.8-0.4
													c-1.4-0.6-2.6-1.6-3.5-2.7C1.4,12.6,0.1,9.3,0,5.9C0,4.1,0.8,2.3,2.2,1C3.6,0,5.4-0.3,7,0.2c1.4,0.4,2.8,1,4.1,1.7
													c1.2,0.7,2.3,1.3,3.2,1.9c2,1.2,3.6,2.1,4.7,2.7c0.6,0.3,1.2,0.6,1.8,0.9c-0.7-0.1-1.3-0.3-1.9-0.6
													c-1.2-0.5-2.8-1.4-4.9-2.5c-1-0.6-2.1-1.2-3.3-1.8C9.6,1.9,8.2,1.3,6.9,1c-1.4-0.4-3-0.2-4.2,0.7
													C1.5,2.8,0.8,4.3,0.9,5.9c0.1,3.2,1.3,6.3,3.4,8.8c0.8,1.1,1.9,2,3.2,2.6c0.3,0.1,0.6,0.3,0.9,0.5
													c0.3,0.2,0.5,0.6,0.6,1c0.2,0.7,0.2,1.3,0.3,1.8c0.4,1.7,1.2,3.4,2.3,4.8C12.1,25.8,12.5,26.3,12.9,26.9z"/>
											</g>
										</g>
									</g>
									<g id="Grupo_133980" transform="translate(33.032 4.812)">
										<g id="Grupo_133979">
											<path id="Trazado_173767" class="st17" d="M14.5,0c0.2,0.1-2.1,3.7-6.2,6.8C4.2,9.8,0,10.9,0,10.7
												c-0.1-0.2,3.8-1.6,7.8-4.6C11.8,3.1,14.3-0.2,14.5,0z"/>
										</g>
									</g>
									<g id="Grupo_133982" transform="translate(3.915 11.667)">
										<g id="Grupo_133981">
											<path id="Trazado_173768" class="st17" d="M18.3,31.6c0,0,0.1,0.2,0.3,0.5c0.2,0.5,0.4,1,0.5,1.5c0.2,0.8,0.2,1.7,0,2.5
												c-0.4,1.1-1.4,1.9-2.6,2.1c-2.6,0.5-5.6-0.8-7.9-3.1c-2.4-2.3-3.9-5.7-5.1-9.1c-1.2-3.2-2.2-6.6-2.9-10
												c-0.5-2.8-0.7-5.7-0.5-8.5c0.1-1.9,0.5-3.8,1.1-5.6C1.4,1.2,1.7,0.6,2.1,0C1.4,2.5,0.9,5,0.7,7.6
												c-0.1,2.8,0.1,5.6,0.7,8.3c0.7,3.4,1.7,6.7,2.9,9.9c1.2,3.4,2.7,6.6,4.9,8.8c2.1,2.2,5,3.4,7.2,3c1-0.1,1.9-0.8,2.3-1.7
												c0.2-0.7,0.3-1.5,0.1-2.3C18.5,32.3,18.2,31.6,18.3,31.6z"/>
										</g>
									</g>
									<g id="Grupo_133984" transform="translate(16.343 10.79)">
										<g id="Grupo_133983">
											<path id="Trazado_173769" class="st17" d="M0.4,0C0.7,0,0.6,3.1,1,6.9c0.3,3.8,1,6.8,0.7,6.9c-0.2,0.1-1.2-3-1.6-6.8
												C-0.2,3.1,0.2,0,0.4,0z"/>
										</g>
									</g>
									<g id="Grupo_133986" transform="translate(0 40.755)">
										<g id="Grupo_133985">
											<path id="Trazado_173770" class="st17" d="M11.3,4.2c0,0.1-0.6,0.5-1.8,0.9C8,5.4,6.3,5.3,4.8,4.6
												C3.2,4.1,1.9,3.1,0.9,1.8C0.1,0.8-0.1,0,0,0c0.1-0.1,0.5,0.6,1.3,1.4c1.1,1.1,2.3,1.9,3.7,2.5C6.5,4.4,8,4.6,9.4,4.4
												C10.6,4.3,11.3,4,11.3,4.2z"/>
										</g>
									</g>
								</g>
							</g>
							<g id="Grupo_133989" transform="translate(20.431 231.061)">
								
									<linearGradient id="Trazado_173771_00000168109772898369678080000012036559552462100382_" gradientUnits="userSpaceOnUse" x1="-147.1375" y1="382.3953" x2="-147.1375" y2="381.3953" gradientTransform="matrix(124.063 0 0 -230.2996 18316.3457 88065.4844)">
									<stop  offset="0" style="stop-color:#FFFFFF"/>
									<stop  offset="1" style="stop-color:#F8F8F8"/>
								</linearGradient>
								<path id="Trazado_173771" style="fill:url(#Trazado_173771_00000168109772898369678080000012036559552462100382_);" d="
									M124.1,0c0,0-31.6,10.9-39.5,29.1c-1.4,3.1-32.7,83.3-32.7,83.3L0,187.7c0,0,13.5,44.5,58.9,42.6c0,0,14.9-0.1,32.2-27
									c15.4-23.8,24.8-67.1,24.8-67.1L124.1,0z"/>
							</g>
							<g id="Grupo_133990" transform="translate(2.717 299.956)">
								
									<linearGradient id="Trazado_173772_00000036217900246166126050000002230049240948114825_" gradientUnits="userSpaceOnUse" x1="-129.2878" y1="313.2541" x2="-129.2878" y2="312.2541" gradientTransform="matrix(88.572 0 0 -120.278 11495.5664 37677.5742)">
									<stop  offset="0" style="stop-color:#FFFFFF"/>
									<stop  offset="1" style="stop-color:#F8F8F8"/>
								</linearGradient>
								<path id="Trazado_173772" style="fill:url(#Trazado_173772_00000036217900246166126050000002230049240948114825_);" d="
									M17.7,118.8L0,10.8L63.8,0l24.8,120.3L17.7,118.8z"/>
							</g>
							<g id="Grupo_133992" transform="translate(66.726 299.834)">
								<g id="Grupo_133991">
									<path id="Trazado_173773" class="st12" d="M18,96.1c-0.1-0.3-0.2-0.6-0.3-1c-0.2-0.7-0.4-1.6-0.7-2.8
										c-0.6-2.4-1.3-5.9-2.2-10.2c-1.8-8.7-4-20.7-6.2-34s-4.3-25.4-6-34.1c-0.8-4.3-1.5-7.8-2-10.3C0.4,2.6,0.3,1.7,0.1,1
										C0.1,0.7,0,0.3,0,0c0.1,0.3,0.2,0.6,0.3,1C0.5,1.7,0.7,2.6,1,3.7C1.6,6.1,2.3,9.6,3.2,14c1.8,8.7,4,20.7,6.2,34
										s4.3,25.4,6,34.1c0.8,4.3,1.5,7.8,2,10.3c0.2,1.1,0.4,2.1,0.5,2.8C17.9,95.5,18,95.8,18,96.1z"/>
								</g>
							</g>
							<g id="Grupo_133994" transform="translate(74.822 346.626)" class="st20">
								<g id="Grupo_133993">
									<path id="Trazado_173774" d="M0,0c10.3,15.4,16.5,33.3,17.9,51.8c0.3,1.6,0.1,3.2-0.6,4.6c-0.8,1.4-2.7,2.3-4,1.4
										C12.5,57,12,56,11.9,54.8C8.1,36.8,4.3,18.8,0.4,0.7"/>
								</g>
							</g>
							<g id="Grupo_134126" transform="translate(74.921)">
								<g id="Grupo_134065" transform="translate(39.342)">
									<g id="Grupo_133996" transform="translate(0 60.259)">
										<g id="Grupo_133995">
											<path id="Trazado_173775" class="st15" d="M17.1,0c0,0-15.4,57.5-16.7,98.2L0,111.7c0,0,33.9,28.2,62.4,29.9L86.2,83
												L17.1,0z"/>
										</g>
									</g>
									<g id="Grupo_134064" transform="translate(10.407)">
										<g id="Grupo_134061">
											<g id="Grupo_134060">
												<g id="Grupo_134056">
													<g id="Grupo_134055">
														<g id="Grupo_134054">
															<g id="Grupo_134000">
																<g id="Grupo_133999">
																	<g id="Grupo_133998">
																		<g id="Grupo_133997">
																			<path id="Trazado_173776" class="st12" d="M157.4,95.5c-6.5-28-9-60.7-32.3-79C107.8,3,88.1-0.8,66.2,0.1
																				c-10.8,0.5-23,5.4-32.5,10.8C20.8,18.2,15.3,33.1,9.1,46.5c-12.5,27-10.9,63.5-2.4,73.7l112.8,59.6
																				c22.5-11.7,36.6-16.4,40.2-46.4C161.1,120.7,160.4,107.9,157.4,95.5z"/>
																		</g>
																	</g>
																</g>
															</g>
															<g id="Grupo_134053" transform="translate(6.63 17.627)">
																<g id="Grupo_134003">
																	<g id="Grupo_134002">
																		<g id="Grupo_134001">
																			<path id="Trazado_173777" class="st16" d="M116.1,21.2l-71-20.9C22.2-3.1,5.8,24.6,3.5,47.6
																				c-2.6,25.5-4.8,56.8-2.5,76c4.6,38.7,33.8,44.7,33.8,44.7c0-0.1,0.1,0.6-0.2,12l-0.7,18.5
																				c-0.4,7.5,1.8,14.9,6.2,20.9c10.5,13.6,29.5,15.4,52,7.1c13-4.8,22.1-14.5,23.1-27.8l12.3-163.7
																				C128,28.4,123,22.2,116.1,21.2z"/>
																		</g>
																	</g>
																</g>
																<g id="Grupo_134008" transform="translate(15.938 76.172)">
																	<g id="Grupo_134007">
																		<g id="Grupo_134006">
																			<g id="Grupo_134005">
																				<g id="Grupo_134004">
																					<path id="Trazado_173778" class="st12" d="M0,4.3c-0.1,2.7,1.9,5,4.6,5.2c2.6,0.3,4.9-1.5,5.2-4.1
																						c0,0,0-0.1,0-0.1C10,2.5,7.9,0.2,5.3,0C2.7-0.3,0.3,1.6,0,4.1C0,4.2,0,4.2,0,4.3z"/>
																				</g>
																			</g>
																		</g>
																	</g>
																</g>
																<g id="Grupo_134013" transform="translate(9.354 65.952)">
																	<g id="Grupo_134012">
																		<g id="Grupo_134011">
																			<g id="Grupo_134010">
																				<g id="Grupo_134009">
																					<path id="Trazado_173779" class="st12" d="M0.1,4.8c0.6,0.7,4.4-2,9.7-1.7c5.3,0.1,9.1,3,9.7,2.4
																						c0.3-0.3-0.3-1.5-1.9-2.8C15.3,1,12.6,0.1,9.8,0C7.1-0.1,4.4,0.7,2.1,2.2C0.4,3.4-0.2,4.5,0.1,4.8z"/>
																				</g>
																			</g>
																		</g>
																	</g>
																</g>
																<g id="Grupo_134018" transform="translate(66.361 76.172)">
																	<g id="Grupo_134017">
																		<g id="Grupo_134016">
																			<g id="Grupo_134015">
																				<g id="Grupo_134014">
																					<path id="Trazado_173780" class="st12" d="M0,4.3c-0.1,2.7,1.9,5,4.6,5.2c2.6,0.3,4.9-1.5,5.2-4.1
																						c0,0,0-0.1,0-0.1C10,2.5,7.9,0.2,5.3,0C2.7-0.3,0.3,1.6,0,4.1C0,4.2,0,4.2,0,4.3z"/>
																				</g>
																			</g>
																		</g>
																	</g>
																</g>
																<g id="Grupo_134023" transform="translate(61.502 66.577)">
																	<g id="Grupo_134022">
																		<g id="Grupo_134021">
																			<g id="Grupo_134020">
																				<g id="Grupo_134019">
																					<path id="Trazado_173781" class="st12" d="M0.1,4.8c0.6,0.7,4.4-1.9,9.7-1.7c5.3,0.1,9.1,3,9.7,2.4
																						c0.3-0.3-0.3-1.5-1.9-2.8C15.3,1,12.6,0.1,9.8,0C7.1-0.1,4.4,0.7,2.1,2.2C0.4,3.4-0.2,4.5,0.1,4.8z"/>
																				</g>
																			</g>
																		</g>
																	</g>
																</g>
																<g id="Grupo_134028" transform="translate(27.564 61.682)">
																	<g id="Grupo_134027">
																		<g id="Grupo_134026">
																			<g id="Grupo_134025">
																				<g id="Grupo_134024">
																					<path id="Trazado_173782" class="st12" d="M13.4,44.1c0-0.3-3.2-1-8.5-1.9C3.5,42,2.2,41.7,2,40.7
																						c-0.3-1,0.3-2.4,1.1-4c1.4-3.2,2.9-6.6,4.4-10.1C13.6,12.2,18.1,0.2,17.5,0s-6,11.3-12.2,25.7
																						c-1.5,3.6-2.9,7-4.2,10.2c-0.6,1.5-1.5,3.2-0.9,5.3c0.4,1,1.2,1.7,2.1,2.1c0.7,0.2,1.5,0.4,2.3,0.4
																						C10,44.2,13.3,44.4,13.4,44.1z"/>
																				</g>
																			</g>
																		</g>
																	</g>
																</g>
																<g id="Grupo_134033" transform="translate(34.695 156.647)">
																	<g id="Grupo_134032">
																		<g id="Grupo_134031">
																			<g id="Grupo_134030">
																				<g id="Grupo_134029">
																					<path id="Trazado_173783" class="st17" d="M0.1,11.7c-2-0.2,30.6,0,52-11.7c0,0-13.8,26.4-52.1,21.3L0.1,11.7z
																						"/>
																				</g>
																			</g>
																		</g>
																	</g>
																</g>
																<g id="Grupo_134037" transform="translate(39.418 113.115)">
																	<g id="Grupo_134036">
																		<g id="Grupo_134035">
																			<g id="Grupo_134034">
																				<path id="Trazado_173784" class="st17" d="M18.1,4.5c-1.5-2.5-4.1-4-6.9-4.1C7.7,0.1,5.8-1.6,0.8,5
																					c-0.9,1-1,4.1-0.6,5s0.1,0.4,0.7,1c2.3,2.2,4.7,4.4,7.7,5.2c3.3,1,6.8-0.2,8.9-2.9C19.3,10.7,19.5,7.3,18.1,4.5
																					z"/>
																			</g>
																		</g>
																	</g>
																</g>
																<g id="Grupo_134042" transform="translate(38.232 112.492)">
																	<g id="Grupo_134041">
																		<g id="Grupo_134040">
																			<g id="Grupo_134039">
																				<g id="Grupo_134038">
																					<path id="Trazado_173785" class="st12" d="M17.5,0c-0.9-0.1-1.1,5.7-6.2,9.5c-5.1,3.9-11.2,3-11.3,3.8
																						c-0.1,0.4,1.3,1.2,3.9,1.4c3.4,0.2,6.7-0.8,9.4-2.8c2.6-1.9,4.3-4.8,4.9-8C18.5,1.4,17.9,0,17.5,0z"/>
																				</g>
																			</g>
																		</g>
																	</g>
																</g>
																<g id="Grupo_134047" transform="translate(59.551 48.911)">
																	<g id="Grupo_134046">
																		<g id="Grupo_134045">
																			<g id="Grupo_134044">
																				<g id="Grupo_134043">
																					<path id="Trazado_173786" class="st12" d="M0,3.1c0.4,1.5,5.7,1.3,11.8,2.7C18,7,22.8,9.3,23.8,8.1
																						c0.4-0.6-0.3-2-2.2-3.6c-5.1-4-11.8-5.4-18.1-3.8C1.1,1.4-0.1,2.4,0,3.1z"/>
																				</g>
																			</g>
																		</g>
																	</g>
																</g>
																<g id="Grupo_134052" transform="translate(9.634 49.408)">
																	<g id="Grupo_134051">
																		<g id="Grupo_134050">
																			<g id="Grupo_134049">
																				<g id="Grupo_134048">
																					<path id="Trazado_173787" class="st12" d="M0.2,7.1c1.2,1,5.1-0.8,9.9-1.5C15,4.6,19.2,5,20,3.7
																						C20.3,3,19.5,1.9,17.5,1C14.9,0,12-0.3,9.2,0.2C6.4,0.7,3.8,1.9,1.6,3.8C0.1,5.3-0.3,6.6,0.2,7.1z"/>
																				</g>
																			</g>
																		</g>
																	</g>
																</g>
															</g>
														</g>
													</g>
												</g>
												<g id="Grupo_134059" transform="translate(52.536 13.759)">
													<g id="Grupo_134058">
														<g id="Grupo_134057">
															<path id="Trazado_173788" class="st12" d="M0.2,0C0.1,0.3,0.1,0.6,0,0.8l0.1,0.1C0.1,0.6,0.2,0.3,0.2,0z"/>
														</g>
													</g>
												</g>
											</g>
										</g>
										<g id="Grupo_134063" transform="translate(2.853 4.364)">
											<g id="Grupo_134062">
												<path id="Trazado_173789" class="st15" d="M48.2,19.2c0.3,10.6,2.7,21,6.8,30.7c1.7,4,3.8,8,7,10.9s7.7,4.8,12,3.9
													c-6.5-8.6-10.2-19.1-10.5-29.9c4.5,10.9,9.2,22.1,16.9,31c6.4,7.5,15.4,13.2,25,14.4c2.3,17.1,8.5,34.8,4,51.4
													c-2.8,10.4-9.7,19.5-11,30.2c-1.2,10.1,2.9,20.2,1.8,30.3l71.4-19.9l0,0C170.8,99.6,160.2,66,144.1,37l-0.4-0.7
													c-6.9-12.5-23.7-26.6-37.3-31c-18.5-6-38.2-6.9-57.1-2.7L49,4.2c0,0.2,0,0.4-0.1,0.5L48,4.3c-7.2-3.8-12-8-23.3,1.9
													c-6.1,5.4-11.6,13.4-15.6,21.7c-3.5,7.4-7.3,15.3-8.6,23.4c-1.7,10.5,0.9,46,2.1,57.3c1.6-9.9,3-39.4,6.8-47.1
													c3.5-7,5.6-15.6,9.4-22.4C18.9,39,31.8,17.3,48.2,19.2z"/>
											</g>
										</g>
									</g>
								</g>
								<g id="Grupo_134097" transform="translate(17.852 193.546)">
									<g id="Grupo_134068" transform="translate(166.412 48.372)">
										<g id="Grupo_134067">
											<g id="Grupo_134066">
												<path id="Trazado_173790" class="st12" d="M0.1,52.5c-0.1-1-0.1-2,0.1-3c0.3-2.7,0.8-5.4,1.5-8.1
													C6.3,23.5,19.4,9,36.8,2.6c2.6-1,5.2-1.7,7.9-2.2c1-0.3,2-0.4,3-0.4c0.1,0.2-4.2,0.9-10.5,3.5
													C20.3,10.2,7.6,24.3,2.5,41.6C0.5,48.2,0.3,52.5,0.1,52.5z"/>
											</g>
										</g>
									</g>
									<g id="Grupo_134070" transform="translate(45.448 8.654)">
										<g id="Grupo_134069">
											<path id="Trazado_173791" class="st5" d="M103.4,0c0,0-42.9,32.5-63.8,28.8C22.8,25.8,25.7,0.4,25.7,0.4L17.6,18L0,88.2
												l7.4,33.1l39.9-24.6L103.4,0z"/>
										</g>
									</g>
									<g id="Grupo_134071" transform="translate(1.526)">
										
											<linearGradient id="Trazado_173792_00000054972080788383583100000009874520510432642977_" gradientUnits="userSpaceOnUse" x1="-221.1582" y1="420.002" x2="-221.1582" y2="419.002" gradientTransform="matrix(226.0839 0 0 -349.3699 50113.3633 146736.0625)">
											<stop  offset="0" style="stop-color:#FFFFFF"/>
											<stop  offset="1" style="stop-color:#F8F8F8"/>
										</linearGradient>
										<path id="Trazado_173792" style="fill:url(#Trazado_173792_00000054972080788383583100000009874520510432642977_);" d="
											M226.1,349.4c-6.6-49.7-33.5-109.9-33.5-109.9l17.4-44.6l5-152.3l-48.5-26.9L155.5,0l-55.3,58.5c0,0-49.2,47.7-49.2,47.6
											c1.2-1.2,10-58.7,10-58.7l8.8-39.4L61,22.3c0,0-55.8,80.3-60.3,126.7s12.8,94.2,12.8,94.2s-7.6,74.7-8.6,106.1
											L226.1,349.4z"/>
									</g>
									<g id="Grupo_134073" transform="translate(15.812 34.055)">
										<g id="Grupo_134072">
											<path id="Trazado_173793" class="st7" d="M38.7,0c0,0-20.7,8.8-27.4,19.4S0,75.8,0,75.8l32.8-55.3L38.7,0z"/>
										</g>
									</g>
									<g id="Grupo_134076" transform="translate(46.142 15.668)">
										<g id="Grupo_134075">
											<g id="Grupo_134074">
												<path id="Trazado_173794" class="st12" d="M8.3,18.4c0,0.6,0,1.1-0.1,1.7c-0.1,1.2-0.2,2.8-0.4,4.9
													c-0.4,4.4-0.9,10.5-1.5,18.3l0,0.2l-0.2,0.1c-1.8,1-3.6,2.1-5.6,3.2l0.2-0.4C1.8,59.1,3,75.4,4.4,93.8l-0.8-0.5
													c13.6-4.9,28.5-10.3,44.2-16c4.8-1.7,9.5-3.4,14.1-5.1l-0.4,0.7c-0.7-4.8-1.4-9.6-2.1-14.2l-0.1-1l1,0.3L77,64l-0.7,0.2
													c13.2-18.8,24.5-34.9,32.6-46.3c4-5.6,7.2-10.1,9.4-13.2c1.1-1.5,1.9-2.6,2.5-3.5c0.3-0.4,0.6-0.8,0.9-1.2
													c-0.2,0.4-0.5,0.9-0.8,1.3c-0.6,0.9-1.4,2.1-2.4,3.6c-2.2,3.2-5.3,7.7-9.1,13.4c-8,11.5-19.1,27.7-32.2,46.6L77,65.3
													l-0.4-0.1c-5.4-1.9-11-3.9-16.8-5.9l0.8-0.7c0.7,4.6,1.4,9.4,2.1,14.2l0.1,0.5l-0.5,0.2c-4.6,1.7-9.3,3.4-14.1,5.1
													L4,94.4l-0.8,0.3l-0.1-0.8C1.9,75.4,0.9,59.1,0,46.3l0-0.3l0.2-0.1c2-1.1,3.8-2.1,5.6-3.1l-0.2,0.3
													c0.8-7.7,1.4-13.9,1.9-18.2c0.2-2,0.4-3.6,0.6-4.8C8.1,19.5,8.2,18.9,8.3,18.4z"/>
											</g>
										</g>
									</g>
									<g id="Grupo_134079" transform="translate(0 45.12)">
										<g id="Grupo_134078">
											<g id="Grupo_134077">
												<path id="Trazado_173795" class="st12" d="M14.8,263c-0.1-0.4-0.1-0.8-0.1-1.2c0-0.9-0.1-2-0.1-3.4
													c0-3.1-0.1-7.4-0.2-12.9c-0.1-11.3-0.3-27.2-0.4-46.3l0,0.2c-2.9-10.2-5.5-21.5-8.1-33.7c-1.3-6.1-2.4-12.3-3.6-18.8
													c-1.3-6.6-2-13.2-2.3-19.9c-0.5-17.9,2.5-35.7,9-52.5l0,0c4.1-11.8,9.2-22.1,13.8-31.2C27.6,34.3,32,26.4,35.7,20
													s6.8-11.4,9-14.8c1.1-1.6,1.9-2.9,2.5-3.9c0.3-0.5,0.6-0.9,0.9-1.3c-0.2,0.5-0.5,1-0.8,1.4l-2.3,4
													c-2.1,3.5-5,8.5-8.7,15s-8,14.3-12.6,23.4c-4.5,9.1-9.6,19.4-13.6,31.1v0l0,0c-6.3,16.6-9.3,34.2-8.8,51.9
													c0.2,6.6,1,13.2,2.3,19.8c1.1,6.4,2.3,12.7,3.5,18.7c2.5,12.1,5,23.5,7.9,33.6l0,0.1v0.1c0,19.2,0,35.1,0,46.3
													c0,5.5-0.1,9.9-0.1,12.9c0,1.4,0,2.5-0.1,3.4C14.9,262.2,14.9,262.6,14.8,263z"/>
											</g>
										</g>
									</g>
									<g id="Grupo_134082" transform="translate(165.828 120.488)" class="st22">
										<g id="Grupo_134081">
											<g id="Grupo_134080">
												<path id="Trazado_173796" d="M43.7,86.3C16.6,67,0.4,33.3,0,0L43.7,86.3z"/>
											</g>
										</g>
									</g>
									<g id="Grupo_134094" transform="translate(143.78 33.877)">
										<g id="Grupo_134084">
											<g id="Grupo_134083">
												
													<linearGradient id="Trazado_173797_00000011020654674671783380000010406852022891567769_" gradientUnits="userSpaceOnUse" x1="-363.3226" y1="386.106" x2="-363.3226" y2="385.106" gradientTransform="matrix(152.4946 0 0 -315.485 55480.9727 121810.6562)">
													<stop  offset="0" style="stop-color:#FFFFFF"/>
													<stop  offset="1" style="stop-color:#F8F8F8"/>
												</linearGradient>
												<path id="Trazado_173797" style="fill:url(#Trazado_173797_00000011020654674671783380000010406852022891567769_);" d="
													M53.6,0c0,0,23.1,4.5,32.2,24.3s62.4,160.3,65.4,170.5c4.3,14.5-2.7,35.4-10.9,46.6c-11.6,15.9-56.4,74.1-56.4,74.1H0
													l76.2-119.7L22.3,84.5C22.3,84.5,26.3,8.1,53.6,0z"/>
											</g>
										</g>
										<g id="Grupo_134087" transform="translate(78.472 195.214)">
											<g id="Grupo_134086">
												<g id="Grupo_134085">
													<path id="Trazado_173798" class="st12" d="M32.3,15.4c-0.3,0.3-6.4-5.1-15.4-9.3C8,1.8-0.1,0.5,0,0.1
														c0-0.2,2.1,0,5.3,0.7c8.4,1.9,16.3,5.7,23.1,11C31,13.8,32.4,15.3,32.3,15.4z"/>
												</g>
											</g>
										</g>
										<g id="Grupo_134090" transform="translate(78.581 186.602)">
											<g id="Grupo_134089">
												<g id="Grupo_134088">
													<path id="Trazado_173799" class="st12" d="M29.1,0.4c0,0.4-6.9,0.2-14.9,2.3C6.1,4.9,0.2,8.5,0,8.1
														c-0.2-0.2,5.5-4.5,13.8-6.6C22.1-0.7,29.2,0.1,29.1,0.4z"/>
												</g>
											</g>
										</g>
										<g id="Grupo_134093" transform="translate(22.632 14.495)">
											<g id="Grupo_134092">
												<g id="Grupo_134091">
													<path id="Trazado_173800" class="st12" d="M0.1,52.5c-0.1-1-0.1-2,0.1-3c0.3-2.7,0.8-5.4,1.5-8.1
														C6.3,23.5,19.4,9,36.8,2.6c2.6-1,5.2-1.7,7.9-2.2c1-0.3,2-0.4,3-0.4c0.1,0.2-4.2,0.9-10.5,3.5
														C20.3,10.2,7.6,24.3,2.5,41.6C0.5,48.2,0.3,52.5,0.1,52.5z"/>
												</g>
											</g>
										</g>
									</g>
									<g id="Grupo_134096" transform="translate(49.902 74.273)" class="st22">
										<g id="Grupo_134095">
											<path id="Trazado_173801" d="M73,5.9L59.3,5.5l2.9,14L0,35.2l58.3-21L56.2,0L73,5.9z"/>
										</g>
									</g>
								</g>
							</g>
							<g id="Grupo_134128" transform="translate(128.759 297.317)">
								<g id="Grupo_134127">
									<path id="Trazado_173812" class="st12" d="M4.7,245c-0.1-0.8-0.2-1.7-0.2-2.5c-0.1-1.8-0.2-4.2-0.4-7.2
										c-0.3-6.4-0.6-15.4-1.1-26.5c-0.8-22.4-2-53.2-2.9-87.4C-0.2,104.4,0,88.1,1.1,73.3c0.8-13.1,2.7-26.1,5.5-39
										c2-8.6,4.5-17.1,7.6-25.4C15.3,6,16.3,3.8,17,2.3C17.2,1.5,17.6,0.7,18,0c-0.2,0.8-0.5,1.6-0.8,2.4
										c-0.6,1.7-1.5,3.9-2.5,6.7C11.9,17.5,9.5,26,7.6,34.6C5,47.4,3.3,60.4,2.5,73.4c-1,14.7-1.1,31-0.8,48
										c0.9,34,1.8,64.9,2.4,87.4c0.2,11.1,0.4,20.1,0.6,26.5c0,3,0.1,5.4,0.1,7.2C4.9,243.3,4.8,244.2,4.7,245z"/>
								</g>
							</g>
							<g id="Grupo_134130" transform="translate(236.549 322.543)">
								<g id="Grupo_134129">
									<path id="Trazado_173813" class="st12" d="M0,220.4c0.4-0.8,0.8-1.5,1.3-2.3c1-1.6,2.2-3.7,3.9-6.3l14.4-23.1
										c12.4-19.5,29.4-46.3,48.1-75.9l8-12.5l0,0.8C61.6,72.6,49.3,47.5,40.3,29.3C36,20.3,32.4,13,29.9,7.9
										c-1.1-2.4-2-4.4-2.7-5.8c-0.3-0.7-0.6-1.4-0.9-2.1c0.4,0.6,0.8,1.3,1.1,1.9c0.7,1.4,1.7,3.3,3,5.7
										c2.6,5.1,6.3,12.3,10.8,21.2C50.3,47,62.8,72,76.9,100.3l0.2,0.4l-0.2,0.4c-2.5,4-5.2,8.2-7.9,12.5
										c-18.9,29.5-36,56.2-48.5,75.7c-6.2,9.6-11.3,17.3-14.8,22.8c-1.7,2.6-3.1,4.6-4.1,6.2C1.1,219,0.6,219.7,0,220.4z"/>
								</g>
							</g>
						</g>
						<g id="Grupo_134133" transform="translate(169.07 492.062)">
							<g id="Grupo_134132">
								<path id="Trazado_173814" class="st12" d="M97,0c-0.3,0.4-0.7,0.7-1.2,0.9c-1,0.6-2.1,1.4-3.6,2.3c-1.6,0.9-3.6,1.9-5.9,3.2
									c-2.4,1-5.1,2.4-8.3,3.3c-16.4,5.7-34,6.9-51,3.6c-8-1.5-15.7-4.4-22.7-8.6l1.1-0.6C4,18,2.8,29.9,1.8,38.7
									c-0.5,4.1-0.9,7.4-1.2,10c-0.1,1.2-0.3,2.4-0.6,3.6C0,51,0,49.8,0.1,48.6c0.2-2.6,0.5-5.9,0.8-10C1.7,29.8,2.8,17.9,4.1,4
									l0.1-1.2l1,0.6c6.9,4.1,14.4,6.9,22.2,8.4c16.8,3.3,34.1,2.2,50.3-3.1C90.2,4.7,96.8-0.4,97,0z"/>
							</g>
						</g>
					</g>
				</g>
				<g id="Grupo_134137" transform="translate(1.969 299.823)">
					<g id="Grupo_134136">
						<path id="Trazado_173815" class="st12" d="M64.8,0c-0.4,0.1-0.8,0.2-1.1,0.3L60.2,1c-3.1,0.6-7.5,1.4-12.9,2.4L0.9,11.6
							l0.5-0.7c3.7,22.5,8.1,49.5,12.8,78.4c1.7,10.7,3.4,21.1,5,31l0-0.2c6.3,14.7,16.4,26.8,27.9,33.8c5.4,3.3,11.4,5.6,17.7,6.5
							c1.5,0.2,2.9,0.4,4.3,0.5c1.4,0.1,2.8,0.1,4.2,0l4-0.1c1.2-0.2,2.5-0.5,3.6-0.9c7.4-2.6,14-7.3,18.9-13.4c3.5-4.3,4.8-7,5-6.9
							c-1.2,2.6-2.8,5-4.6,7.3c-4.9,6.4-11.4,11.3-19,14c-1.3,0.4-2.5,0.8-3.8,1c-1.3,0-2.7,0.1-4.1,0.1c-1.4,0.1-2.9,0.1-4.3,0
							l-4.4-0.5c-6.4-0.9-12.6-3.2-18.2-6.6c-11.8-7.1-22.1-19.4-28.6-34.4l0-0.1l0-0.1c-1.6-9.9-3.3-20.3-5-31
							c-4.6-29-9-56-12.6-78.5L0,10.4l0.6-0.1c19.2-3.2,35.2-5.8,46.5-7.7c5.5-0.9,9.9-1.5,13-2c1.4-0.2,2.5-0.4,3.4-0.5
							C64,0,64.4,0,64.8,0z"/>
					</g>
				</g>
				<g id="Grupo_134139" transform="translate(260.736 209.211)">
					<g id="Grupo_134138">
						<path id="Trazado_173816" class="st12" d="M59.7,333.7c0.1-0.2,0.2-0.4,0.4-0.6c0.3-0.5,0.7-1,1.3-1.8c1.2-1.6,2.8-3.9,5-6.8
							c4.4-6,10.8-14.6,18.8-25.3c8.1-10.8,17.7-23.7,28.6-38.2c1.4-1.8,2.7-3.7,4.2-5.5c1.4-1.9,2.6-3.9,3.9-5.9
							c2.4-4.2,4.1-8.8,5.2-13.5c2.1-10.2,1-20.7-3.2-30.2l0-0.1l0,0c-5.5-14.7-11.3-30.4-17.3-46.5c-9.7-25.9-19.2-50.5-28.1-72.8
							C73.9,75.3,69.5,64.8,65.2,55c-2.2-4.8-4.3-9.6-6.6-13.9c-2.1-4.5-4.6-8.4-8.4-10.9c-6.6-4.8-13.4-9.2-20.5-13.3
							c-6.2-3.7-11.6-6.7-16-9.2L3.5,2c-1.1-0.6-2-1.1-2.6-1.5C0.6,0.4,0.3,0.2,0,0c0.3,0.1,0.7,0.2,1,0.4l2.7,1.4
							C6.1,3,9.6,4.8,14,7.2s9.9,5.4,16.2,9c7.1,4,14,8.4,20.7,13.2c3.8,2.5,6.7,6.8,8.8,11.3c2.4,4.4,4.4,9.1,6.7,13.9
							c4.3,9.8,8.8,20.3,13.2,31.4c9,22.2,18.5,46.8,28.2,72.8c6.1,16.1,11.9,31.8,17.2,46.6l0-0.1c4.4,9.8,5.5,20.7,3.2,31.2
							c-1.1,4.9-2.9,9.5-5.4,13.9c-1.3,2.1-2.6,4.1-4,6c-1.4,1.9-2.8,3.7-4.2,5.5c-11,14.5-20.8,27.3-28.9,38
							c-8.1,10.6-14.6,19.1-19.1,25c-2.2,2.8-3.9,5.1-5.2,6.7c-0.6,0.7-1,1.3-1.4,1.7C60,333.4,59.8,333.5,59.7,333.7z"/>
					</g>
				</g>
				<g id="Grupo_134140" transform="translate(220.563 150.858)">
					<path id="Trazado_173817" class="st15" d="M75.8,0L6.4,42.5c2.6,11.8-5,21-2.7,28c1.3,4,3.8,7.7,4,11.9
						c0.3,5.8-3.8,10.7-7.6,15c11.3,5.2,24.4,0.2,36.7-2.3C53,92,71.3,93.3,84.8,83.5C81.1,55.7,78.1,27.9,75.8,0z"/>
				</g>
			</g>
		</g>
	</g>
</g>
</svg>
