<svg xmlns="http://www.w3.org/2000/svg" xmlns:xlink="http://www.w3.org/1999/xlink" width="526.784" height="666.519" viewBox="0 0 526.784 666.519">
  <defs>
    <linearGradient id="linear-gradient" x1="0.5" x2="0.5" y2="1" gradientUnits="objectBoundingBox">
      <stop offset="0" stop-color="#fff"/>
      <stop offset="1" stop-color="#f8f8f8"/>
    </linearGradient>
  </defs>
  <g id="Grupo_134232" data-name="Grupo 134232" transform="translate(-159.396 -10579.117)">
    <g id="Grupo_134145" data-name="Grupo 134145" transform="translate(-968.139 -475.708)">
      <g id="Grupo_134143" data-name="Grupo 134143" transform="translate(205 8754)">
        <path id="Trazado_165336" data-name="Trazado 165336" d="M469.409,747.446c16.936-42.545,21.754-97.761,12.786-146.52-5.67-30.826-16.55-59.464-17.941-91.61-2.783-64.27,32.29-116.229,39.565-179.528,3.2-27.818-.291-60.228-14-77.126-13.54-16.69-32.864-13.283-48.193-1.594s-28.3,30.4-43.016,44.079-32.838,22.135-48.38,11.249c-15.742-11.028-24.672-38.825-29.674-65.916s-7.457-55.946-15.993-80.49c-14.069-40.451-44.067-62.507-72.021-56.8s-52.93,36.971-66.328,78.044-15.738,90.752-9.07,136.118c3.383,23.008,8.956,45.042,11.994,68.184s3.317,48.469-3.467,69.312c-14.187,43.586-51.613,49.664-71.212,87.042-16.176,30.85-16.683,77.928-7.5,115.867s26.432,68.72,43.633,98.006c80.231,4.471,161.9,4.768,242.131,9.239C403.9,766.74,438.263,750.486,469.409,747.446Z" transform="translate(875.937 2202.211)" fill="#a4a4b4" opacity="0.354" style="mix-blend-mode: multiply;isolation: isolate"/>
        <path id="Trazado_165337" data-name="Trazado 165337" d="M359.21,185.725c-.2,21.19,19.945,39.631,16.44,60.53-1.874,11.182-10.4,22.517-5.443,32.716,4.381,9.024,16.928,10.589,26.522,7.655,22.456-6.87,36.105-29.824,42.634-52.383,6.14-21.219,7.664-44.919-2.169-64.7-7.924-15.937-26.2-30.006-44.769-28.7C375.42,142.031,359.359,169.764,359.21,185.725Z" transform="translate(962.13 2288.672)" fill="#a4a4b4" opacity="0.31" style="mix-blend-mode: multiply;isolation: isolate"/>
        <path id="Trazado_165338" data-name="Trazado 165338" d="M117.514,149.893c-14,23.365-14.636,54.16-1.6,78.078,4.119,7.558,9.682,14.6,17.194,18.8s17.2,5.14,24.678.876c11.338-6.468,13.846-21.723,12.944-34.746s-3.853-26.675,1.162-38.726c3.27-7.856,9.547-13.98,15.116-20.413s10.766-13.942,11.054-22.446c.746-22.045-22.659-20.4-36.763-15.819A80.161,80.161,0,0,0,117.514,149.893Z" transform="translate(894.177 2200.223)" fill="#a4a4b4" opacity="0.31" style="mix-blend-mode: multiply;isolation: isolate"/>
        <g id="Grupo_128378" data-name="Grupo 128378" transform="translate(962.509 2300.825)" style="mix-blend-mode: multiply;isolation: isolate">
          <path id="Trazado_151849" data-name="Trazado 151849" d="M467.884,760.835l-1.746-2.609c4.8-8.6,12.473-28.3,9.877-63.726-1.155-15.769-4.02-31.348-6.79-46.412-1.236-6.73-2.516-13.69-3.633-20.6-11.914-73.737-6.7-155.078,14.3-223.165,1.865-6.042,3.883-12.105,5.836-17.967,5.788-17.38,11.772-35.354,14.346-54.768,4.514-34.069-4.409-59.605-14.608-68.913-9.785-8.934-23.6-7.569-37.894,3.748a186.779,186.779,0,0,0-15.229,14.1c-6.5,6.471-13.213,13.16-20.426,17.9-28.376,18.636-63.854,2.8-82.522-36.835-8.972-19.046-14.038-42.064-18.937-64.326-1.9-8.626-3.861-17.547-6.02-26.083-6.714-26.537-19-59.847-39.415-67.815-17.936-7-36.1,8.39-48.181,22.536-23.109,27.067-39.4,63.724-45.871,103.215-4.363,26.631-4.538,55.617-4.709,83.649-.253,41.745-.515,84.911-14.916,119.675-6.551,15.815-15.563,28.433-24.275,40.637-8.161,11.428-16.6,23.246-22.891,37.571-14.254,32.457-17.749,78.409-9.586,126.073,7.335,42.826,22.286,80.825,36.744,117.574l-1.987,2.093c-14.553-36.988-29.6-75.235-37.032-118.623-8.358-48.8-4.733-95.96,9.942-129.375,6.457-14.7,15.006-26.674,23.272-38.252,8.6-12.037,17.484-24.485,23.856-39.867,14-33.8,14.248-74.476,14.508-117.542.172-28.274.348-57.508,4.791-84.616,6.612-40.354,23.225-77.77,46.777-105.36,12.478-14.614,31.3-30.5,50.105-23.152,21.383,8.347,34.126,42.727,41.05,70.1,2.181,8.619,4.153,17.583,6.06,26.252,4.837,21.979,9.838,44.708,18.584,63.274,18.046,38.312,52.341,53.621,79.771,35.607,7.029-4.616,13.662-11.222,20.077-17.609a188.266,188.266,0,0,1,15.426-14.275c15-11.87,29.6-13.2,40.075-3.645,10.936,9.983,20.536,37.12,15.767,73.113-2.646,19.959-8.713,38.179-14.582,55.8-1.944,5.836-3.954,11.869-5.8,17.858-20.743,67.253-25.89,147.6-14.122,220.431,1.105,6.848,2.38,13.776,3.611,20.476,2.8,15.223,5.694,30.963,6.875,47.067C481.071,731,472.96,751.755,467.884,760.835Z" transform="translate(-87.906 -97.739)" fill="#a4a4b4"/>
        </g>
      </g>
      <g id="Grupo_134144" data-name="Grupo 134144" transform="translate(1331.398 11062.915)">
        <text id="CLASIFICACIÓN" transform="translate(10.471 34.649)" fill="#008f85" font-size="29" font-family="Roboto-Bold, Roboto" font-weight="700"><tspan x="0" y="0">CLASIFICACIÓN</tspan></text>
        <text id="DE_LOS_QUÍMICOS" data-name="DE LOS QUÍMICOS" transform="translate(11.163 55.836)" fill="#1d272b" font-size="20" font-family="Roboto-Bold, Roboto" font-weight="700"><tspan x="0" y="0">DE LOS QUÍMICOS</tspan></text>
        <rect id="Rectángulo_34968" data-name="Rectángulo 34968" width="5.581" height="66.975" fill="#d93328"/>
      </g>
    </g>
    <g id="Grupo_134142" data-name="Grupo 134142" transform="translate(122.574 10474.514)">
      <g id="Background_Complete" data-name="Background Complete" transform="translate(28.822 439.22)">
        <g id="Grupo_133901" data-name="Grupo 133901" transform="translate(8 -10.824)">
          <g id="Grupo_133862" data-name="Grupo 133862" transform="translate(88.493 259.493)">
            <path id="Trazado_173696" data-name="Trazado 173696" d="M74.52,479.02l-12.2-43.36,2.161-.6,10.825,42.616Z" transform="translate(-62.325 -435.06)" fill="#e0e0e0"/>
          </g>
          <g id="Grupo_133866" data-name="Grupo 133866" transform="translate(16.568 45.007)">
            <g id="Grupo_133863" data-name="Grupo 133863" transform="translate(0.845 0.843)">
              <path id="Trazado_173697" data-name="Trazado 173697" d="M101.348,529.287l-1.472-5.3,7.93-7.369L62.7,354.175l-27.282,7.576L80.756,525.024l9.971,1.28,1.53,5.508Z" transform="translate(-35.414 -354.175)" fill="#ebebeb"/>
            </g>
            <g id="Grupo_133865" data-name="Grupo 133865">
              <g id="Grupo_133864" data-name="Grupo 133864">
                <path id="Trazado_173698" data-name="Trazado 173698" d="M101.872,529.811a2.878,2.878,0,0,1-.534.188c-.431.135-.985.3-1.685.52-1.6.473-3.87,1.144-6.817,2.015l-.2.055-.058-.2c-.46-1.6-.99-3.447-1.58-5.494l.214.185c-2.9-.351-6.244-.755-9.979-1.21l-.211-.026-.061-.211C72.118,494.546,55,433.458,35.276,362.459l-.182-.66.66-.185,8.938-2.483,18.344-5.09.66-.185.182.66c20.4,73.55,37.359,135.236,44.71,162.553l.042.158-.119.108q-5.048,4.6-8.006,7.285l.042-.153c.452,1.772.792,3.106,1.035,4.065a10.624,10.624,0,0,1,.288,1.278s-.164-.454-.436-1.329c-.277-.927-.668-2.219-1.183-3.933l-.026-.087.069-.066q2.908-2.758,7.853-7.451l-.074.267c-7.789-27.2-25.066-88.791-45.513-162.328l.843.475-18.341,5.1-8.941,2.48.478-.845c19.707,71,36.545,132.169,45,163.369l-.272-.235,9.96,1.347.172.024.045.164c.552,2.058,1.049,3.915,1.479,5.521l-.254-.143,6.767-1.756c.732-.182,1.307-.325,1.756-.438A4.957,4.957,0,0,1,101.872,529.811Z" transform="translate(-35.094 -353.856)" fill="#e0e0e0"/>
              </g>
            </g>
          </g>
          <g id="Grupo_133867" data-name="Grupo 133867" transform="translate(6.989 3.868)">
            <rect id="Rectángulo_36521" data-name="Rectángulo 36521" width="99.228" height="25.771" transform="matrix(0.268, 0.964, -0.964, 0.268, 24.831, 0)" fill="#ebebeb"/>
          </g>
          <g id="Grupo_133868" data-name="Grupo 133868">
            <rect id="Rectángulo_36522" data-name="Rectángulo 36522" width="6.164" height="38.5" rx="0.806" transform="translate(37.925 0.829) rotate(74.479)" fill="#e0e0e0"/>
            <path id="Trazado_173699" data-name="Trazado 173699" d="M32.785,354.716a3.46,3.46,0,0,1-3.328-2.528l-.51-1.833a3.459,3.459,0,0,1,2.4-4.25l32.993-9.16a3.449,3.449,0,0,1,4.25,2.4l.507,1.833a3.456,3.456,0,0,1-2.4,4.25L33.7,354.589A3.459,3.459,0,0,1,32.785,354.716ZM32,351.483a.818.818,0,0,0,1,.563l32.993-9.16a.815.815,0,0,0,.563-1l-.51-1.836a.821.821,0,0,0-.38-.489.835.835,0,0,0-.615-.077l-32.993,9.163a.813.813,0,0,0-.563,1Z" transform="translate(-28.822 -336.816)" fill="#e0e0e0"/>
          </g>
          <g id="Grupo_133869" data-name="Grupo 133869" transform="translate(15.648 7.841)">
            <rect id="Rectángulo_36523" data-name="Rectángulo 36523" width="103.282" height="6.906" transform="matrix(0.268, 0.964, -0.964, 0.268, 8.281, 1.627)" fill="#e0e0e0"/>
            <path id="Trazado_173700" data-name="Trazado 173700" d="M63.09,444.4,34.746,342.342l9.2-2.557L72.29,441.846ZM38,344.18l26.928,96.971,4.107-1.141L42.107,343.036Z" transform="translate(-34.746 -339.785)" fill="#e0e0e0"/>
          </g>
          <g id="Grupo_133870" data-name="Grupo 133870" transform="translate(34.141 101.799)">
            <path id="Trazado_173701" data-name="Trazado 173701" d="M71.344,488.672,41.747,382.1l24.27-6.74L95.552,481.513l-7.706,6.571,1.772,6.443L83.2,496.14,81.811,490.5Z" transform="translate(-41.747 -375.357)" fill="#f5f5f5"/>
          </g>
          <g id="Grupo_133871" data-name="Grupo 133871" transform="translate(30.868 94.091)">
            <path id="Trazado_173702" data-name="Trazado 173702" d="M65.955,373.054l1.854,6.674-6.3,6.23-9.545,2.651-8.843-1.486-1.992-7.174Z" transform="translate(-39.497 -371.429)" fill="#e0e0e0"/>
            <path id="Trazado_173703" data-name="Trazado 173703" d="M53.044,390.971,43.081,389.3l-2.573-9.255,27.377-7.6,2.417,8.7-7.1,7.015Zm-7.869-4,7.726,1.3,8.933-2.48,5.507-5.444-1.294-4.657-22.285,6.191Z" transform="translate(-40.508 -372.439)" fill="#e0e0e0"/>
          </g>
          <g id="Grupo_133872" data-name="Grupo 133872" transform="translate(84.67 253.119)">
            <path id="Rectángulo_36524" data-name="Rectángulo 36524" d="M0,0H5.885a.772.772,0,0,1,.772.772V5.126a.772.772,0,0,1-.772.772H0a0,0,0,0,1,0,0V0A0,0,0,0,1,0,0Z" transform="translate(5.683 0) rotate(74.478)" fill="#ebebeb"/>
          </g>
          <g id="Grupo_133873" data-name="Grupo 133873" transform="translate(5.508 39.745)">
            <rect id="Rectángulo_36525" data-name="Rectángulo 36525" width="5.007" height="49.377" rx="0.655" transform="translate(48.497 0.923) rotate(74.481)" fill="#ebebeb"/>
            <path id="Trazado_173704" data-name="Trazado 173704" d="M34.365,371.743a3.039,3.039,0,0,1-2.932-2.235l-.415-1.49a3.053,3.053,0,0,1,2.124-3.756l44.242-12.285A3.047,3.047,0,0,1,81.14,354.1l.415,1.492a3.05,3.05,0,0,1-2.126,3.753L35.186,371.63A3,3,0,0,1,34.365,371.743ZM78.2,354.509a.319.319,0,0,0-.111.013L33.847,366.807a.41.41,0,0,0-.283.5l.412,1.492a.4.4,0,0,0,.193.246.429.429,0,0,0,.309.037L78.723,356.8a.464.464,0,0,0,.285-.5l-.415-1.49A.406.406,0,0,0,78.2,354.509Z" transform="translate(-30.907 -351.863)" fill="#e0e0e0"/>
          </g>
          <g id="Grupo_133875" data-name="Grupo 133875" transform="translate(32.588 103.912)">
            <g id="Grupo_133874" data-name="Grupo 133874">
              <path id="Trazado_173705" data-name="Trazado 173705" d="M41.161,381.13c-.1-.365,3.753-1.757,8.611-3.1s8.88-2.147,8.981-1.78S55,378,50.139,379.35,41.262,381.5,41.161,381.13Z" transform="translate(-41.159 -376.157)" fill="#fff"/>
            </g>
          </g>
          <g id="Grupo_133877" data-name="Grupo 133877" transform="translate(28.546 90.794)">
            <g id="Grupo_133876" data-name="Grupo 133876">
              <path id="Trazado_173706" data-name="Trazado 173706" d="M39.632,374.733c-.1-.365,2.573-1.426,5.972-2.372s6.239-1.413,6.339-1.046-2.57,1.426-5.972,2.372S39.735,375.1,39.632,374.733Z" transform="translate(-39.629 -371.191)" fill="#fff"/>
            </g>
          </g>
          <g id="Grupo_133879" data-name="Grupo 133879" transform="translate(25.187 77.267)">
            <g id="Grupo_133878" data-name="Grupo 133878">
              <path id="Trazado_173707" data-name="Trazado 173707" d="M38.359,371.042c-.1-.365,3.756-1.757,8.611-3.106s8.88-2.145,8.981-1.778-3.753,1.754-8.611,3.1S38.462,371.409,38.359,371.042Z" transform="translate(-38.357 -366.069)" fill="#fff"/>
            </g>
          </g>
          <g id="Grupo_133881" data-name="Grupo 133881" transform="translate(21.147 64.149)">
            <g id="Grupo_133880" data-name="Grupo 133880">
              <path id="Trazado_173708" data-name="Trazado 173708" d="M36.831,364.645c-.1-.365,2.57-1.426,5.972-2.372s6.239-1.413,6.339-1.046-2.573,1.426-5.972,2.372S36.931,365.013,36.831,364.645Z" transform="translate(-36.828 -361.103)" fill="#fff"/>
            </g>
          </g>
          <g id="Grupo_133883" data-name="Grupo 133883" transform="translate(40.427 132.143)">
            <g id="Grupo_133882" data-name="Grupo 133882">
              <path id="Trazado_173709" data-name="Trazado 173709" d="M44.129,391.821c-.1-.367,3.753-1.756,8.611-3.106s8.88-2.147,8.981-1.78-3.753,1.757-8.611,3.106S44.23,392.185,44.129,391.821Z" transform="translate(-44.127 -386.845)" fill="#e0e0e0"/>
            </g>
          </g>
          <g id="Grupo_133885" data-name="Grupo 133885" transform="translate(36.385 119.026)">
            <g id="Grupo_133884" data-name="Grupo 133884">
              <path id="Trazado_173710" data-name="Trazado 173710" d="M42.6,385.423c-.1-.367,2.573-1.429,5.972-2.372s6.239-1.413,6.342-1.049-2.573,1.429-5.972,2.372S42.7,385.788,42.6,385.423Z" transform="translate(-42.597 -381.879)" fill="#e0e0e0"/>
            </g>
          </g>
          <g id="Grupo_133887" data-name="Grupo 133887" transform="translate(48.631 161.684)">
            <g id="Grupo_133886" data-name="Grupo 133886">
              <path id="Trazado_173711" data-name="Trazado 173711" d="M47.235,403c-.1-.367,3.753-1.756,8.611-3.106s8.88-2.145,8.981-1.78-3.753,1.756-8.613,3.106S47.336,403.369,47.235,403Z" transform="translate(-47.233 -398.029)" fill="#e0e0e0"/>
            </g>
          </g>
          <g id="Grupo_133889" data-name="Grupo 133889" transform="translate(44.589 148.568)">
            <g id="Grupo_133888" data-name="Grupo 133888">
              <path id="Trazado_173712" data-name="Trazado 173712" d="M45.706,396.607c-.1-.367,2.573-1.429,5.972-2.372s6.239-1.413,6.342-1.046-2.573,1.426-5.975,2.372S45.809,396.971,45.706,396.607Z" transform="translate(-45.703 -393.064)" fill="#e0e0e0"/>
            </g>
          </g>
          <g id="Grupo_133891" data-name="Grupo 133891" transform="translate(56.706 190.765)">
            <g id="Grupo_133890" data-name="Grupo 133890">
              <path id="Trazado_173713" data-name="Trazado 173713" d="M50.292,414.014c-.1-.367,3.756-1.756,8.613-3.106s8.878-2.145,8.981-1.78-3.756,1.756-8.613,3.106S50.4,414.379,50.292,414.014Z" transform="translate(-50.29 -409.039)" fill="#e0e0e0"/>
            </g>
          </g>
          <g id="Grupo_133893" data-name="Grupo 133893" transform="translate(52.666 177.648)">
            <g id="Grupo_133892" data-name="Grupo 133892">
              <path id="Trazado_173714" data-name="Trazado 173714" d="M48.764,407.617c-.1-.367,2.573-1.429,5.972-2.372s6.239-1.413,6.339-1.049-2.573,1.429-5.972,2.375S48.864,407.982,48.764,407.617Z" transform="translate(-48.761 -404.073)" fill="#e0e0e0"/>
            </g>
          </g>
          <g id="Grupo_133900" data-name="Grupo 133900" transform="translate(70.804 219.359)">
            <g id="Grupo_133894" data-name="Grupo 133894">
              <rect id="Rectángulo_36526" data-name="Rectángulo 36526" width="3.37" height="16.069" rx="0.441" transform="translate(15.483 0) rotate(74.48)" fill="#ebebeb"/>
            </g>
            <g id="Grupo_133895" data-name="Grupo 133895" transform="translate(2.092 2.024)">
              <path id="Trazado_173715" data-name="Trazado 173715" d="M68.824,420.631l6.844,30.861a2.159,2.159,0,0,1-1.532,2.552l-5.143,1.429a2.162,2.162,0,0,1-2.628-1.389L56.42,424.775Z" transform="translate(-56.42 -420.631)" fill="#ebebeb"/>
            </g>
            <g id="Grupo_133897" data-name="Grupo 133897" transform="translate(2.335 3.482)">
              <g id="Grupo_133896" data-name="Grupo 133896">
                <path id="Trazado_173716" data-name="Trazado 173716" d="M56.515,424.751c-.1-.365,2.594-1.434,6.02-2.385s6.286-1.426,6.387-1.059-2.591,1.434-6.02,2.385S56.615,425.118,56.515,424.751Z" transform="translate(-56.512 -421.183)" fill="#e0e0e0"/>
              </g>
            </g>
            <g id="Grupo_133899" data-name="Grupo 133899" transform="translate(2.063 0.323)">
              <g id="Grupo_133898" data-name="Grupo 133898">
                <path id="Trazado_173717" data-name="Trazado 173717" d="M56.412,423.388c-.1-.365,2.456-1.395,5.711-2.3s5.977-1.339,6.078-.975-2.454,1.395-5.711,2.3S56.515,423.756,56.412,423.388Z" transform="translate(-56.409 -419.987)" fill="#e0e0e0"/>
              </g>
            </g>
          </g>
        </g>
        <g id="Grupo_133925" data-name="Grupo 133925" transform="translate(452.397 17)">
          <g id="Grupo_133905" data-name="Grupo 133905" transform="translate(8.325 8.877)">
            <g id="Grupo_133902" data-name="Grupo 133902" transform="translate(0.003 0.314)">
              <path id="Trazado_173718" data-name="Trazado 173718" d="M188.107,338.942l18.938,108.7a11.5,11.5,0,0,0,13.112,9.1h0a11.5,11.5,0,0,0,9.472-13.526L212.072,335.308Z" transform="translate(-188.107 -335.308)" fill="#fafafa"/>
            </g>
            <g id="Grupo_133904" data-name="Grupo 133904">
              <g id="Grupo_133903" data-name="Grupo 133903">
                <path id="Trazado_173719" data-name="Trazado 173719" d="M188.109,339.138a2.059,2.059,0,0,1,.38-.084l1.178-.206q1.66-.277,4.649-.771c4.168-.671,10.164-1.632,17.715-2.845l.267-.042.045.269c2.063,12.446,4.828,29.108,8.061,48.587,1.6,9.757,3.317,20.219,5.122,31.21q1.347,8.245,2.755,16.865.7,4.307,1.418,8.69a40.7,40.7,0,0,1,.607,4.485,11.892,11.892,0,0,1-.795,4.583,12.046,12.046,0,0,1-4.638,5.748,12.181,12.181,0,0,1-7.031,1.936,12.051,12.051,0,0,1-10.872-8.193,23.022,23.022,0,0,1-.729-3.391c-.2-1.117-.386-2.227-.578-3.333q-.574-3.312-1.136-6.566-1.121-6.5-2.195-12.713c-2.826-16.532-5.37-31.424-7.512-43.949-2.1-12.433-3.8-22.512-4.984-29.541-.565-3.428-1.009-6.109-1.321-7.99-.135-.869-.243-1.553-.322-2.063a4.917,4.917,0,0,1-.085-.684,7.034,7.034,0,0,1,.164.742l.407,2.116c.346,1.9.845,4.612,1.479,8.077,1.265,7.034,3.077,17.121,5.312,29.564,2.211,12.459,4.842,27.272,7.76,43.717q1.082,6.169,2.221,12.628.563,3.229,1.144,6.521.289,1.648.578,3.31a22.754,22.754,0,0,0,.7,3.254,11.1,11.1,0,0,0,10.008,7.528,11.215,11.215,0,0,0,6.463-1.783,11.1,11.1,0,0,0,4.26-5.283,10.945,10.945,0,0,0,.729-4.21,40.161,40.161,0,0,0-.592-4.34q-.713-4.386-1.41-8.693-1.4-8.609-2.734-16.87c-1.775-11-3.463-21.466-5.04-31.228-3.109-19.5-5.769-36.184-7.758-48.643l.312.227-17.6,2.515-4.731.652c-.512.066-.914.119-1.236.159A2.835,2.835,0,0,1,188.109,339.138Z" transform="translate(-188.106 -335.189)" fill="#e0e0e0"/>
              </g>
            </g>
          </g>
          <g id="Grupo_133906" data-name="Grupo 133906" transform="translate(20.492 65.286)">
            <path id="Trazado_173720" data-name="Trazado 173720" d="M192.712,359.424l8.563,51.849a9.728,9.728,0,0,0,11.091,7.7h0a9.732,9.732,0,0,0,8.011-11.442l-8.685-50.983Z" transform="translate(-192.712 -356.545)" fill="#ebebeb"/>
          </g>
          <g id="Grupo_133922" data-name="Grupo 133922">
            <g id="Grupo_133907" data-name="Grupo 133907">
              <rect id="Rectángulo_36527" data-name="Rectángulo 36527" width="38.524" height="23.665" rx="2.185" transform="matrix(0.987, -0.161, 0.161, 0.987, 0, 6.188)" fill="#ebebeb"/>
            </g>
            <g id="Grupo_133909" data-name="Grupo 133909" transform="translate(2.655 5.747)">
              <g id="Grupo_133908" data-name="Grupo 133908">
                <path id="Trazado_173721" data-name="Trazado 173721" d="M189.776,357.068c-.267.045-1.321-5.085-2.359-11.453s-1.661-11.569-1.4-11.611,1.321,5.085,2.359,11.455S190.04,357.026,189.776,357.068Z" transform="translate(-185.959 -334.004)" fill="#e0e0e0"/>
              </g>
            </g>
            <g id="Grupo_133911" data-name="Grupo 133911" transform="translate(8.005 4.876)">
              <g id="Grupo_133910" data-name="Grupo 133910">
                <path id="Trazado_173722" data-name="Trazado 173722" d="M191.8,356.741c-.267.042-1.321-5.087-2.356-11.455s-1.664-11.569-1.4-11.611,1.318,5.084,2.356,11.455S192.064,356.7,191.8,356.741Z" transform="translate(-187.985 -333.674)" fill="#e0e0e0"/>
              </g>
            </g>
            <g id="Grupo_133913" data-name="Grupo 133913" transform="translate(13.355 4.004)">
              <g id="Grupo_133912" data-name="Grupo 133912">
                <path id="Trazado_173723" data-name="Trazado 173723" d="M193.824,356.411c-.264.045-1.321-5.085-2.356-11.453s-1.661-11.569-1.4-11.614,1.321,5.085,2.356,11.455S194.091,356.369,193.824,356.411Z" transform="translate(-190.01 -333.344)" fill="#e0e0e0"/>
              </g>
            </g>
            <g id="Grupo_133915" data-name="Grupo 133915" transform="translate(18.704 3.135)">
              <g id="Grupo_133914" data-name="Grupo 133914">
                <path id="Trazado_173724" data-name="Trazado 173724" d="M195.852,356.082c-.267.042-1.321-5.087-2.359-11.455s-1.661-11.569-1.4-11.611,1.321,5.085,2.359,11.455S196.116,356.037,195.852,356.082Z" transform="translate(-192.035 -333.015)" fill="#e0e0e0"/>
              </g>
            </g>
            <g id="Grupo_133917" data-name="Grupo 133917" transform="translate(24.054 2.263)">
              <g id="Grupo_133916" data-name="Grupo 133916">
                <path id="Trazado_173725" data-name="Trazado 173725" d="M197.876,355.752c-.264.042-1.321-5.087-2.356-11.455s-1.664-11.566-1.4-11.611,1.318,5.085,2.356,11.456S198.14,355.71,197.876,355.752Z" transform="translate(-194.061 -332.685)" fill="#e0e0e0"/>
              </g>
            </g>
            <g id="Grupo_133919" data-name="Grupo 133919" transform="translate(29.404 1.394)">
              <g id="Grupo_133918" data-name="Grupo 133918">
                <path id="Trazado_173726" data-name="Trazado 173726" d="M199.9,355.42c-.264.045-1.321-5.085-2.356-11.453s-1.661-11.569-1.4-11.611,1.321,5.085,2.356,11.456S200.167,355.378,199.9,355.42Z" transform="translate(-196.086 -332.356)" fill="#e0e0e0"/>
              </g>
            </g>
            <g id="Grupo_133921" data-name="Grupo 133921" transform="translate(34.752 0.523)">
              <g id="Grupo_133920" data-name="Grupo 133920">
                <path id="Trazado_173727" data-name="Trazado 173727" d="M201.927,355.093c-.267.042-1.321-5.087-2.359-11.456s-1.661-11.569-1.4-11.611,1.321,5.085,2.359,11.455S202.192,355.048,201.927,355.093Z" transform="translate(-198.111 -332.026)" fill="#e0e0e0"/>
              </g>
            </g>
          </g>
          <g id="Grupo_133923" data-name="Grupo 133923" transform="translate(19.649 39.809)">
            <rect id="Rectángulo_36528" data-name="Rectángulo 36528" width="12.796" height="57.059" transform="translate(0 2.055) rotate(-9.244)" fill="#f5f5f5"/>
          </g>
          <g id="Grupo_133924" data-name="Grupo 133924" transform="translate(25.132 49.489)">
            <path id="Trazado_173728" data-name="Trazado 173728" d="M199.9,369.419a2.92,2.92,0,0,1-2.594-4.707l.843.663a1.7,1.7,0,0,0-.4,1.413,1.7,1.7,0,1,0,3.352-.544,1.693,1.693,0,0,0-.835-1.215l.592-.9a2.917,2.917,0,0,1-.959,5.285Z" transform="translate(-190.84 -328.292)" fill="#e0e0e0"/>
            <path id="Trazado_173729" data-name="Trazado 173729" d="M199.567,367.689a2.907,2.907,0,1,1,2.242-3.3A2.742,2.742,0,0,1,199.567,367.689Zm-.732-4.5a1.661,1.661,0,1,0,1.941,1.366A1.622,1.622,0,0,0,198.835,363.186Z" transform="translate(-191.383 -331.924)" fill="#e0e0e0"/>
            <path id="Trazado_173730" data-name="Trazado 173730" d="M201.119,360.978l-1.294,1.247.011.063.172,1.054,1.458-.238.2,1.212-5.238.851-.367-2.266c-.23-1.4.354-2.393,1.529-2.583a1.724,1.724,0,0,1,1.828.808l1.492-1.447Zm-4.062,1.83.159.988,1.828-.3-.161-.988c-.122-.74-.526-1.057-1.094-.964S196.936,362.068,197.057,362.808Z" transform="translate(-191.94 -335.606)" fill="#e0e0e0"/>
            <path id="Trazado_173731" data-name="Trazado 173731" d="M195.519,357.772l5.6,1.413.2,1.2-4.871,3.111-.211-1.307,3.481-2.2-4-1.006Z" transform="translate(-192.745 -338.735)" fill="#e0e0e0"/>
            <path id="Trazado_173732" data-name="Trazado 173732" d="M195.616,358.894l-.2-1.212,5.238-.851.2,1.21Z" transform="translate(-192.911 -340.279)" fill="#e0e0e0"/>
            <path id="Trazado_173733" data-name="Trazado 173733" d="M195.616,360.246l-.388-2.377a2.666,2.666,0,1,1,5.238-.853l.388,2.38Zm3.864-3.008a1.647,1.647,0,1,0-3.246.528l.18,1.107,3.246-.528Z" transform="translate(-193.31 -344.082)" fill="#e0e0e0"/>
            <path id="Trazado_173734" data-name="Trazado 173734" d="M196.2,355.672l-.346-2.116.935-.153.346,2.116Z" transform="translate(-192.199 -345.905)" fill="#e0e0e0"/>
            <path id="Trazado_173735" data-name="Trazado 173735" d="M194.688,353.2l5.238-.853.2,1.212-4.263.695.169,1.046-.972.158Z" transform="translate(-194.109 -347.645)" fill="#e0e0e0"/>
            <path id="Trazado_173736" data-name="Trazado 173736" d="M196.725,350.619a2.581,2.581,0,0,1,3.257,2.211,2.846,2.846,0,0,1-.124,1.511l-.964-.306a1.712,1.712,0,0,0,.1-1.02,1.419,1.419,0,0,0-1.767-1.228,1.812,1.812,0,0,1,.684,1.226,1.682,1.682,0,0,1-1.336,2.068,1.822,1.822,0,0,1-2.065-1.7C194.274,351.931,195.034,350.893,196.725,350.619Zm-.692,1.5a.808.808,0,0,0-.629,1.038.789.789,0,0,0,.919.747.8.8,0,0,0,.642-1.017A.823.823,0,0,0,196.033,352.122Z" transform="translate(-194.469 -350.564)" fill="#e0e0e0"/>
          </g>
        </g>
      </g>
      <g id="List" transform="translate(82.498 259.375)">
        <g id="Grupo_133953" data-name="Grupo 133953">
          <g id="Grupo_133927" data-name="Grupo 133927" transform="translate(0 1.388)">
            <g id="Grupo_133926" data-name="Grupo 133926">
              <path id="Trazado_173737" data-name="Trazado 173737" d="M83.127,309.462a22.294,22.294,0,0,1-.137-2.641q-.059-2.757-.156-7.184c-.074-6.286-.18-14.921-.3-25.209l.6.594c-10.233.029-22.232.061-35.032.1-.156.148,1.3-1.3.684-.681v2.385l0,2.377c0,1.574,0,3.138,0,4.683q-.012,4.636-.018,9.057c-.026,5.869-.048,11.418-.069,16.524l-.6-.594c10.288.124,18.925.23,25.212.3l7.184.156a23.584,23.584,0,0,1,2.641.135,15.373,15.373,0,0,1-2.4.137l-7.052.156-25.589.3-.592.005,0-.6c-.021-5.106-.042-10.655-.069-16.524q-.008-4.418-.018-9.057c0-1.545,0-3.109,0-4.683l0-2.377v-2.385c-.615.61.837-.845.692-.695l35.032.092.6,0-.008.592c-.124,10.441-.227,19.208-.3,25.589q-.1,4.342-.156,7.05A15.638,15.638,0,0,1,83.127,309.462Z" transform="translate(-47.25 -273.73)" fill="#263238"/>
            </g>
          </g>
          <g id="Grupo_133929" data-name="Grupo 133929" transform="translate(52.052 19.181)">
            <g id="Grupo_133928" data-name="Grupo 133928">
              <path id="Trazado_173738" data-name="Trazado 173738" d="M138.339,281.155c0,.378-15.98.687-35.69.687s-35.692-.309-35.692-.687,15.977-.689,35.692-.689S138.339,280.775,138.339,281.155Z" transform="translate(-66.957 -280.466)" fill="#263238"/>
            </g>
          </g>
          <g id="Grupo_133934" data-name="Grupo 133934" transform="translate(6.874)">
            <g id="Grupo_133933" data-name="Grupo 133933">
              <g id="Grupo_133932" data-name="Grupo 133932">
                <g id="Grupo_133931" data-name="Grupo 133931">
                  <g id="Grupo_133930" data-name="Grupo 133930">
                    <path id="Trazado_173739" data-name="Trazado 173739" d="M49.853,290.531l4.928-6.013,11.481,8.332,15.5-19.645,5.623,4.967L66.527,303.478Z" transform="translate(-49.853 -273.204)" fill="#00978e"/>
                  </g>
                </g>
              </g>
            </g>
          </g>
          <g id="Grupo_133936" data-name="Grupo 133936" transform="translate(0 49.22)">
            <g id="Grupo_133935" data-name="Grupo 133935">
              <path id="Trazado_173740" data-name="Trazado 173740" d="M83.127,327.574a22.352,22.352,0,0,1-.137-2.641q-.059-2.762-.156-7.184c-.074-6.289-.18-14.924-.3-25.209l.6.594-35.032.092c-.156.148,1.3-1.3.684-.682v2.388l0,2.375q0,2.365,0,4.683c-.008,3.09-.013,6.115-.018,9.057-.026,5.872-.048,11.419-.069,16.527l-.6-.594,25.212.3q4.426.1,7.184.156a22.814,22.814,0,0,1,2.641.135,15.373,15.373,0,0,1-2.4.137q-2.71.059-7.052.156c-6.379.074-15.145.177-25.589.3l-.592.008,0-.6c-.021-5.108-.042-10.655-.069-16.527-.005-2.942-.011-5.967-.018-9.057q0-2.318,0-4.683l0-2.375v-2.388c-.615.613.837-.845.692-.695,12.8.034,24.8.066,35.032.1h.6l-.008.594c-.124,10.441-.227,19.205-.3,25.587q-.1,4.346-.156,7.052A15.638,15.638,0,0,1,83.127,327.574Z" transform="translate(-47.25 -291.839)" fill="#263238"/>
            </g>
          </g>
          <g id="Grupo_133938" data-name="Grupo 133938" transform="translate(52.052 67.015)">
            <g id="Grupo_133937" data-name="Grupo 133937">
              <path id="Trazado_173741" data-name="Trazado 173741" d="M138.339,299.263c0,.38-15.98.687-35.69.687s-35.692-.306-35.692-.687,15.977-.687,35.692-.687S138.339,298.882,138.339,299.263Z" transform="translate(-66.957 -298.576)" fill="#263238"/>
            </g>
          </g>
          <g id="Grupo_133943" data-name="Grupo 133943" transform="translate(6.874 47.833)">
            <g id="Grupo_133942" data-name="Grupo 133942">
              <g id="Grupo_133941" data-name="Grupo 133941">
                <g id="Grupo_133940" data-name="Grupo 133940">
                  <g id="Grupo_133939" data-name="Grupo 133939">
                    <path id="Trazado_173742" data-name="Trazado 173742" d="M49.853,308.641l4.928-6.013,11.481,8.332,15.5-19.646,5.623,4.967L66.527,321.588Z" transform="translate(-49.853 -291.314)" fill="#00978e"/>
                  </g>
                </g>
              </g>
            </g>
          </g>
          <g id="Grupo_133945" data-name="Grupo 133945" transform="translate(0 96.87)">
            <g id="Grupo_133944" data-name="Grupo 133944">
              <path id="Trazado_173743" data-name="Trazado 173743" d="M83.127,345.614a22.353,22.353,0,0,1-.137-2.641q-.059-2.762-.156-7.187c-.074-6.286-.18-14.921-.3-25.206l.6.594-35.032.092c-.156.148,1.3-1.3.684-.681v2.385l0,2.377q0,2.365,0,4.683c-.008,3.09-.013,6.115-.018,9.057-.026,5.872-.048,11.418-.069,16.527l-.6-.594c10.288.121,18.925.227,25.212.3q4.426.1,7.184.156a22.336,22.336,0,0,1,2.641.137,15.686,15.686,0,0,1-2.4.135l-7.052.156-25.589.3-.592.008,0-.6c-.021-5.108-.042-10.655-.069-16.527-.005-2.943-.011-5.967-.018-9.057q0-2.318,0-4.683l0-2.377v-2.385c-.615.61.837-.845.692-.695l35.032.092.6,0-.008.594c-.124,10.441-.227,19.205-.3,25.586q-.1,4.342-.156,7.052A15.64,15.64,0,0,1,83.127,345.614Z" transform="translate(-47.25 -309.879)" fill="#263238"/>
            </g>
          </g>
          <g id="Grupo_133947" data-name="Grupo 133947" transform="translate(52.052 114.662)">
            <g id="Grupo_133946" data-name="Grupo 133946">
              <path id="Trazado_173744" data-name="Trazado 173744" d="M138.339,317.3c0,.38-15.98.687-35.69.687s-35.692-.306-35.692-.687,15.977-.689,35.692-.689S138.339,316.924,138.339,317.3Z" transform="translate(-66.957 -316.615)" fill="#263238"/>
            </g>
          </g>
          <g id="Grupo_133952" data-name="Grupo 133952" transform="translate(6.874 95.482)">
            <g id="Grupo_133951" data-name="Grupo 133951">
              <g id="Grupo_133950" data-name="Grupo 133950">
                <g id="Grupo_133949" data-name="Grupo 133949">
                  <g id="Grupo_133948" data-name="Grupo 133948">
                    <path id="Trazado_173745" data-name="Trazado 173745" d="M49.853,326.68l4.928-6.013L66.262,329l15.5-19.645,5.623,4.967L66.527,339.627Z" transform="translate(-49.853 -309.353)" fill="#00978e"/>
                  </g>
                </g>
              </g>
            </g>
          </g>
        </g>
      </g>
      <g id="Speech_Bubble_3" data-name="Speech Bubble 3" transform="translate(422.364 166.398)">
        <g id="Grupo_133968" data-name="Grupo 133968">
          <g id="Grupo_133961" data-name="Grupo 133961">
            <g id="Grupo_133960" data-name="Grupo 133960">
              <g id="Grupo_133959" data-name="Grupo 133959">
                <g id="Grupo_133958" data-name="Grupo 133958">
                  <g id="Grupo_133957" data-name="Grupo 133957">
                    <g id="Grupo_133954" data-name="Grupo 133954" transform="translate(0.457 0.661)">
                      <path id="Trazado_173746" data-name="Trazado 173746" d="M183.21,393.906l3.056-20.824a70.181,70.181,0,1,1,16.7,18.8l.024.032Z" transform="translate(-176.096 -266.649)" fill="#fff"/>
                    </g>
                    <g id="Grupo_133956" data-name="Grupo 133956">
                      <g id="Grupo_133955" data-name="Grupo 133955">
                        <path id="Trazado_173747" data-name="Trazado 173747" d="M183.494,394.317s.47-.079,1.337-.182l3.825-.452c3.386-.38,8.278-.93,14.6-1.638l-.2.444-.024-.032a.276.276,0,0,1,.053-.391.285.285,0,0,1,.343.005,70.441,70.441,0,0,0,30.885,13.637,71.19,71.19,0,0,0,10.716.993c1.862.058,3.759-.14,5.687-.2a38.687,38.687,0,0,0,5.845-.623,68.99,68.99,0,0,0,23.864-8.156,69.282,69.282,0,0,0,33.27-77.478,70.592,70.592,0,0,0-5.927-15.61,71.976,71.976,0,0,0-22.552-25.042,70.083,70.083,0,0,0-14.757-7.5A68.741,68.741,0,0,0,239,268.149a69.73,69.73,0,0,0-52.2,105.194.3.3,0,0,1,.04.193c-1.054,6.664-1.867,11.815-2.43,15.37-.28,1.719-.5,3.048-.652,4.012-.153.909-.256,1.4-.256,1.4s.029-.42.14-1.3c.124-.951.3-2.264.515-3.959.489-3.611,1.2-8.841,2.118-15.608l.037.19a69.8,69.8,0,0,1-10.259-32.615,70.707,70.707,0,0,1,62.811-74.187,69.91,69.91,0,0,1,32.074,3.978,71.288,71.288,0,0,1,15.056,7.641,69.816,69.816,0,0,1,29.028,41.458,70.678,70.678,0,0,1-34.026,78.809,69.792,69.792,0,0,1-24.279,8.172,39.1,39.1,0,0,1-5.935.6c-1.955.05-3.875.238-5.763.166a71.326,71.326,0,0,1-10.851-1.08,70.254,70.254,0,0,1-31.078-14.073l.4-.388.024.032a.277.277,0,0,1-.05.388.288.288,0,0,1-.145.058c-6.41.573-11.376,1.017-14.813,1.326l-3.764.314C183.892,394.307,183.475,394.333,183.494,394.317Z" transform="translate(-175.923 -266.398)" fill="#263238"/>
                      </g>
                    </g>
                  </g>
                </g>
              </g>
            </g>
          </g>
          <g id="Grupo_133967" data-name="Grupo 133967" transform="translate(30.768 33.499)">
            <g id="Grupo_133962" data-name="Grupo 133962">
              <path id="Rectángulo_36529" data-name="Rectángulo 36529" d="M1.671,0H14.625A1.671,1.671,0,0,1,16.3,1.671V49.48a0,0,0,0,1,0,0H0a0,0,0,0,1,0,0V1.671A1.671,1.671,0,0,1,1.671,0Z" transform="translate(54.345 57.926) rotate(146.251)" fill="#1d272b"/>
              <path id="Trazado_173748" data-name="Trazado 173748" d="M216.64,320.191a1.316,1.316,0,0,1-1.1-.589L204.63,303.271a1.32,1.32,0,1,1,2.2-1.463l10.909,16.329a1.32,1.32,0,0,1-.365,1.833A1.333,1.333,0,0,1,216.64,320.191Z" transform="translate(-159.937 -242.747)" fill="#1d272b"/>
              <path id="Trazado_173749" data-name="Trazado 173749" d="M190.829,304.077a1.321,1.321,0,0,1-.734-2.419l27.3-18.238a1.321,1.321,0,0,1,1.466,2.2l-27.3,18.238A1.312,1.312,0,0,1,190.829,304.077Z" transform="translate(-184.395 -272.326)" fill="#1d272b"/>
              <path id="Trazado_173750" data-name="Trazado 173750" d="M202.073,307.272l-13.188-19.739,11.817-7.895,13.188,19.739Zm-9.525-19.01L202.8,303.608l7.425-4.96L199.973,283.3Z" transform="translate(-185.415 -278.167)" fill="#1d272b"/>
              <path id="Trazado_173751" data-name="Trazado 173751" d="M188.894,292.792a1.322,1.322,0,0,1-.734-2.419l16.566-11.07a1.321,1.321,0,0,1,1.466,2.2l-16.566,11.07A1.312,1.312,0,0,1,188.894,292.792Z" transform="translate(-187.571 -279.081)" fill="#1d272b"/>
              <path id="Trazado_173752" data-name="Trazado 173752" d="M204.618,302.02a.66.66,0,0,1-.367-1.21l4.493-3a.66.66,0,1,1,.734,1.1l-4.493,3A.65.65,0,0,1,204.618,302.02Z" transform="translate(-160.678 -248.52)" fill="#fff"/>
              <path id="Trazado_173753" data-name="Trazado 173753" d="M202.549,298.924a.661.661,0,0,1-.367-1.21l4.49-3a.661.661,0,0,1,.734,1.1l-4.49,3A.67.67,0,0,1,202.549,298.924Z" transform="translate(-164.073 -253.604)" fill="#fff"/>
              <path id="Trazado_173754" data-name="Trazado 173754" d="M202.794,301.981a.66.66,0,0,1-.367-1.21l6.667-4.456a.661.661,0,0,1,.734,1.1l-6.664,4.456A.679.679,0,0,1,202.794,301.981Z" transform="translate(-163.669 -250.976)" fill="#fff"/>
              <path id="Trazado_173755" data-name="Trazado 173755" d="M200.266,295.509a.663.663,0,0,1-.367-1.212l4.49-3a.661.661,0,1,1,.734,1.1l-4.49,3A.671.671,0,0,1,200.266,295.509Z" transform="translate(-167.819 -259.209)" fill="#fff"/>
              <path id="Trazado_173756" data-name="Trazado 173756" d="M200.514,298.565a.66.66,0,0,1-.367-1.21l6.664-4.456a.662.662,0,0,1,.737,1.1l-6.669,4.456A.662.662,0,0,1,200.514,298.565Z" transform="translate(-167.414 -256.581)" fill="#fff"/>
              <path id="Trazado_173757" data-name="Trazado 173757" d="M198.1,292.27a.66.66,0,0,1-.367-1.21l4.493-3a.661.661,0,0,1,.734,1.1l-4.493,3A.65.65,0,0,1,198.1,292.27Z" transform="translate(-171.371 -264.525)" fill="#fff"/>
              <path id="Trazado_173758" data-name="Trazado 173758" d="M198.35,295.327a.661.661,0,0,1-.367-1.21l6.667-4.456a.661.661,0,0,1,.734,1.1l-6.667,4.456A.671.671,0,0,1,198.35,295.327Z" transform="translate(-170.965 -261.896)" fill="#fff"/>
            </g>
            <path id="Trazado_173759" data-name="Trazado 173759" d="M239.812,307.958a17.482,17.482,0,1,1-17.48-17.483A17.483,17.483,0,0,1,239.812,307.958Z" transform="translate(-159.213 -260.379)" fill="#b42218"/>
            <g id="Grupo_133966" data-name="Grupo 133966" transform="translate(53.1 39.496)">
              <g id="Grupo_133965" data-name="Grupo 133965">
                <g id="Grupo_133964" data-name="Grupo 133964">
                  <g id="Grupo_133963" data-name="Grupo 133963">
                    <path id="Trazado_173760" data-name="Trazado 173760" d="M207.675,303.285l2.631-3.21,6.13,4.448,8.274-10.489,3,2.652L216.577,310.2Z" transform="translate(-207.675 -294.034)" fill="#fff"/>
                  </g>
                </g>
              </g>
            </g>
          </g>
        </g>
      </g>
      <g id="Speech_Bubble_3-2" data-name="Speech Bubble 3" transform="translate(450.364 345.406)">
        <g id="Grupo_133968-2" data-name="Grupo 133968">
          <g id="Grupo_133961-2" data-name="Grupo 133961">
            <g id="Grupo_133960-2" data-name="Grupo 133960">
              <g id="Grupo_133959-2" data-name="Grupo 133959">
                <g id="Grupo_133958-2" data-name="Grupo 133958">
                  <g id="Grupo_133957-2" data-name="Grupo 133957">
                    <g id="Grupo_133954-2" data-name="Grupo 133954" transform="translate(0.366 0.53)">
                      <path id="Trazado_173746-2" data-name="Trazado 173746" d="M181.8,368.679l2.45-16.7a56.268,56.268,0,1,1,13.392,15.072l.019.025Z" transform="translate(-176.096 -266.649)" fill="#fff"/>
                    </g>
                    <g id="Grupo_133956-2" data-name="Grupo 133956">
                      <g id="Grupo_133955-2" data-name="Grupo 133955">
                        <path id="Trazado_173747-2" data-name="Trazado 173747" d="M181.993,368.958s.377-.064,1.072-.146l3.066-.362,11.7-1.313-.157.356-.019-.025a.221.221,0,0,1,.042-.313.229.229,0,0,1,.275,0,56.476,56.476,0,0,0,24.762,10.934,57.073,57.073,0,0,0,8.591.8c1.493.047,3.014-.112,4.559-.159a31.017,31.017,0,0,0,4.686-.5,55.314,55.314,0,0,0,19.134-6.539,55.547,55.547,0,0,0,26.675-62.119,56.6,56.6,0,0,0-4.752-12.516,57.707,57.707,0,0,0-18.081-20.078,56.19,56.19,0,0,0-11.832-6.014,55.113,55.113,0,0,0-25.226-3.162,55.907,55.907,0,0,0-41.854,84.34.237.237,0,0,1,.032.155c-.845,5.343-1.5,9.473-1.948,12.323-.224,1.379-.4,2.444-.523,3.217-.123.728-.205,1.122-.205,1.122s.023-.337.112-1.042c.1-.762.237-1.815.413-3.174.392-2.895.961-7.088,1.7-12.514l.03.152a55.964,55.964,0,0,1-8.225-26.149,56.69,56.69,0,0,1,50.359-59.48,56.051,56.051,0,0,1,25.715,3.189,57.154,57.154,0,0,1,12.071,6.126,55.975,55.975,0,0,1,23.274,33.24,56.667,56.667,0,0,1-27.28,63.186,55.957,55.957,0,0,1-19.466,6.552,31.348,31.348,0,0,1-4.758.481c-1.567.04-3.107.191-4.621.133a57.189,57.189,0,0,1-8.7-.866A56.327,56.327,0,0,1,197.7,367.51l.318-.311.019.025a.222.222,0,0,1-.04.311.23.23,0,0,1-.116.047c-5.14.46-9.121.815-11.876,1.063l-3.018.252C182.312,368.95,181.978,368.971,181.993,368.958Z" transform="translate(-175.923 -266.398)" fill="#263238"/>
                      </g>
                    </g>
                  </g>
                </g>
              </g>
            </g>
          </g>
          <g id="PgjHFK.tif" transform="translate(27.155 13.963)">
            <g id="Grupo_128175" data-name="Grupo 128175" transform="translate(0 0)">
              <path id="Trazado_165193" data-name="Trazado 165193" d="M2535.963-357.154c.017-.26.049-.52.049-.78q0-12.917,0-25.834c0-.248-.023-.5-.045-.911l-.966,1.191-10.157-6.777c.26-.431.485-.807.712-1.181,1.36-2.232,2.741-4.451,4.078-6.7a11.767,11.767,0,0,1,10.529-5.958c2.092-.047,4.185,0,6.278-.01,1.157,0,1.614-.462,1.632-1.6a.7.7,0,0,1,0-.078,8.7,8.7,0,0,0-1.562-6.121,58.268,58.268,0,0,1-3.152-5.509,5.31,5.31,0,0,1-.611-2.3,64.708,64.708,0,0,1,.153-7.446,11.934,11.934,0,0,1,9.653-10.236,12.046,12.046,0,0,1,13.641,7.972,22.192,22.192,0,0,1,.66,3.371,4.04,4.04,0,0,1,.02.706c0,1.806.3,3.683-.1,5.4a24.118,24.118,0,0,1-2.285,4.871,27.988,27.988,0,0,1-1.594,3.14,9.731,9.731,0,0,0-1.379,6.359c.073.993.508,1.458,1.528,1.475,2.666.044,5.347-.078,8,.161a11.047,11.047,0,0,1,8.7,5.448c1.547,2.484,3.047,5,4.567,7.5.133.219.254.446.424.746l-10.195,6.8-.833-1.156a2.013,2.013,0,0,0-.121.449q-.007,13.35,0,26.7a1.766,1.766,0,0,0,.053.306h-2.826c.009-.313.025-.627.025-.941q0-16.449,0-32.9v-.979h2.814c-.508,1.964.511,3.347,1.667,4.747l5.774-3.856c-1.262-2.076-2.467-4.064-3.681-6.047a7.377,7.377,0,0,0-.717-1.024,9.358,9.358,0,0,0-7.437-3.229c-2.3.007-4.6.026-6.9-.087a3.727,3.727,0,0,1-3.471-3.45c-.088-1.025-.016-2.064-.016-3.091h-2.645v9.44c.9.119,1.764.173,2.6.354a11.818,11.818,0,0,1,9.38,11.917c.042,5.652.056,11.305-.005,16.957A11.634,11.634,0,0,1,2560.69-358a23.438,23.438,0,0,1-2.9.849h-6.123a1.087,1.087,0,0,0-.267-.14,11.74,11.74,0,0,1-9.677-9.075,1.072,1.072,0,0,0-.3-.6c-.794-.53-1.619-1.014-2.517-1.566a14.981,14.981,0,0,0,4.756,9.027l-1.929,1.985-2.938-3.43v3.8Zm29.531-18.1c-.408.159-.747.278-1.075.421a15.716,15.716,0,0,1-7.023,1.66c-.72-.033-1.1.448-1.2,1.186-.361,2.8-1.867,4.145-4.654,4.112a2.9,2.9,0,0,0-2.462.887,1.306,1.306,0,0,1-1.9.061,1.368,1.368,0,0,1,.017-1.969,4.327,4.327,0,0,1,3.09-1.649,8.5,8.5,0,0,0,1.947-.121,1.851,1.851,0,0,0,1.1-.914,4.75,4.75,0,0,0,.044-1.66,17.991,17.991,0,0,1-2.732-.027c-1.187-.189-2.213-.158-2.932.964a.438.438,0,0,1-.125.093,1.257,1.257,0,0,1-1.717-.072,1.227,1.227,0,0,1-.218-1.7c.1-.165.207-.332.332-.533-.547-.217-1.029-.41-1.514-.6-.093-.036-.192-.054-.413-.113.353,3.747-.77,7.6,1.482,11.1.647-.315,1.245-.627,1.859-.9a1.357,1.357,0,0,1,1.886.553,1.33,1.33,0,0,1-.666,1.845c-.369.218-.753.408-1.157.625,2.488,2.173,9.492,3.016,11.938,1.458-.2-.3-.425-.593-.6-.911a1.9,1.9,0,0,0-1.994-1.073c-.963.065-1.935.017-2.9.014-1.142,0-1.756-.466-1.773-1.325-.016-.884.567-1.358,1.712-1.368,1.073-.009,2.146.017,3.218-.006a4.243,4.243,0,0,1,3.875,2.088c.292.451.609.887.913,1.326,2.374-1.542,4.083-5.367,3.517-7.841l-2.615,1.278a8.822,8.822,0,0,1,.963.789,1.332,1.332,0,0,1,.063,1.964,1.323,1.323,0,0,1-1.964-.062c-.561-.51-1.094-1.052-1.613-1.606a1.614,1.614,0,0,0-1.273-.61,1.343,1.343,0,0,1-1.449-1.333,1.285,1.285,0,0,1,1.425-1.341c2.337.136,4.232-.989,6.177-2a.827.827,0,0,0,.389-.57C2565.524-373.795,2565.494-374.475,2565.494-375.251Zm-9.272-59.485v18.592h2.562v2.737h-2.552v2.609c.866,0,1.674-.027,2.48.011a.84.84,0,0,0,.9-.56c1.43-2.9,2.886-5.8,4.322-8.7a1.911,1.911,0,0,0,.23-.813c-.01-1.936.035-3.879-.1-5.808A9.218,9.218,0,0,0,2556.222-434.735Zm-12.257,54.779c.946,0,1.623.029,2.3-.007a2.831,2.831,0,0,0,2.1-1.07c1.567-1.891,3.153-3.767,4.7-5.674a1.7,1.7,0,0,0,.326-.983c.036-2.273.031-4.548.04-6.822,0-.409,0-.819,0-1.217a8.751,8.751,0,0,0-8.944,6.8A79.651,79.651,0,0,0,2543.965-379.956Zm9.411-36.26v-18.539a4.022,4.022,0,0,0-.433.044,9.241,9.241,0,0,0-7.443,8.655c-.119,1.94-.02,3.893-.02,5.9.992,0,1.851-.019,2.709,0a2.583,2.583,0,0,1,2.551,2.3c.073.533.088,1.074.131,1.631Zm2.854,24.088c.061.047.079.074.1.077a2.5,2.5,0,0,0,.312.024,4.545,4.545,0,0,1,4.428,2.775c.39.8.845,1.564,1.2,2.377a6.8,6.8,0,0,1,.522,1.784,4.525,4.525,0,0,1-1.743,4.29c1.351,1.21,2.9.779,4.445.849,0-2.249,0-4.413,0-6.577a8.938,8.938,0,0,0-2.791-6.67,9.113,9.113,0,0,0-6.472-2.594Zm-10.1-6.061c-.181.084-.3.134-.413.193a3.459,3.459,0,0,0-.342.192,14.844,14.844,0,0,0-6.465,9.609c-.6,2.716.876,4.452,2.381,6.283.092-1.425.1-2.83.091-4.236a11.7,11.7,0,0,1,2.568-7.795,40.147,40.147,0,0,1,3.029-2.972Zm7.13,15.5c-.4.485-1.176,1.365-1.9,2.285-1.217,1.555-2.54,2.935-4.773,3.122,1.307.763,2.5,1.234,3.851.5a6.385,6.385,0,0,1,.96-.328,9.867,9.867,0,0,0,4.446-2.994Zm2.912-6.6v4.1a2.341,2.341,0,0,0,1.784,2.413,1.508,1.508,0,0,0,1.995-.981,3.845,3.845,0,0,0-.15-1.943,23.7,23.7,0,0,0-1.139-2.31A2.145,2.145,0,0,0,2556.178-389.288Zm-19.113-2.564-6.475,2.158,3.794,2.54C2535.42-388.661,2536.84-389.889,2537.064-391.852Zm21.607,12.567-2.877,3.3c2.233.043,4.761.214,7.087-1.263A6.367,6.367,0,0,1,2558.672-379.285Zm-21.291-21.668c-1.422.309-1.427.308-1.644,1.608a10.629,10.629,0,0,0-.2,1.472c-.029,1.154-.009,2.31-.009,3.614a12.555,12.555,0,0,0,1.455-.729.951.951,0,0,0,.378-.659C2537.395-397.394,2537.381-399.143,2537.381-400.953Zm13.445-7.084a20.239,20.239,0,0,0,2.555,6.749v-6.749Zm-3.4,6.738c.618.979,1.219,1.952,1.848,2.906.115.174.365.4.519.382.648-.1,1.284-.282,1.9-.429l-2.092-3.989Zm-18.081,8.836.121.167c.649-.171,1.3-.336,1.948-.515,1.5-.415,1.477-.417,1.422-1.935-.037-1.031-.007-2.065-.007-3.1l-.173-.049Zm10.754-4.511a10.854,10.854,0,0,0,3.426-4.346H2540.1Zm13.263-13.867v-2.517h-2.5v2.517Zm-11.916,35.221c-.074-.841.1-1.753-.262-2.317a15.372,15.372,0,0,0-2.324-2.371A4.725,4.725,0,0,0,2541.448-375.621Zm-.061,5.5c0-.773.022-1.317-.012-1.857a.751.751,0,0,0-.262-.512c-.743-.518-1.511-1-2.43-1.6A6.834,6.834,0,0,0,2541.387-370.117Zm6.649-47.3h-1.59l1.475,2.557.115-.075Z" transform="translate(-2524.845 437.595)" fill="#1d272b"/>
              <path id="Trazado_165195" data-name="Trazado 165195" d="M2734.16-365.525a2.07,2.07,0,0,1-1.991-2.02,2.1,2.1,0,0,1,1.991-2.03,2.155,2.155,0,0,1,2.052,2.069A2.132,2.132,0,0,1,2734.16-365.525Zm.009-1.087c.315-.445.64-.7.616-.923-.026-.235-.381-.434-.593-.649-.21.21-.559.4-.592.637C2733.569-367.331,2733.875-367.065,2734.168-366.612Z" transform="translate(-2699.533 380.282)" fill="#1d272b"/>
              <path id="Trazado_165196" data-name="Trazado 165196" d="M2676.518-367.567a2.076,2.076,0,0,1-1.969,2.043,2.127,2.127,0,0,1-2.073-2.036,2.162,2.162,0,0,1,2.027-2.013A2.108,2.108,0,0,1,2676.518-367.567Zm-1.987.955c.285-.455.588-.725.556-.946s-.388-.419-.6-.625c-.208.218-.558.422-.582.659C2673.88-367.306,2674.209-367.052,2674.531-366.611Z" transform="translate(-2649.238 380.281)" fill="#1d272b"/>
            </g>
          </g>
        </g>
      </g>
      <g id="Character_3" data-name="Character 3" transform="translate(132.367 211.978)">
        <g id="Grupo_134141" data-name="Grupo 134141" transform="translate(-10 8.9)">
          <g id="Grupo_133969" data-name="Grupo 133969" transform="translate(97.184 159.789)">
            <path id="Trazado_173761" data-name="Trazado 173761" d="M117.851,327.228c-1.039,8.534-4.389,21.469-7.822,27.038s-4.569,11.481-5.311,17.981c-1.3,11.364,7.456,23.028,3.247,33.661-2.394,6.05-8.813,11.2-7.383,17.546.775,3.442,3.854,6,7.194,7.134s6.951,1.108,10.48,1.066l35.632-.427c6.38-.078,13.628-.55,17.669-5.488,2.745-3.355,3.259-7.954,3.632-12.274q3.316-38.168,3.929-76.505Z" transform="translate(-100.377 -327.228)" fill="#12263f"/>
          </g>
          <g id="Grupo_134135" data-name="Grupo 134135">
            <g id="Grupo_134134" data-name="Grupo 134134">
              <g id="Grupo_134131" data-name="Grupo 134131">
                <g id="Grupo_133988" data-name="Grupo 133988" transform="translate(0 190.839)">
                  <g id="Grupo_133970" data-name="Grupo 133970">
                    <path id="Trazado_173762" data-name="Trazado 173762" d="M79.962,393.434a14.192,14.192,0,0,0-8.354,2.86c-2.352,1.715-3.151,5.843-3.334,7.6-.73,7.032,0,13.1,4,18.93l14.686,26.641-.886,9.324,39.555,2.049-.213-22.658s2.112-7.546,3.064-10.486,1.108-11.676,1.108-11.676-3.557-21.039-2.3-30.681-3.3-36.16-5.266-43.754-8.951-3.205-9.72,3.118,2.268,20.411-.042,32.31c0,0-1.045,3.935-3.145,1.217-1.184-1.535-8.131-4-13.067,1.376a10.158,10.158,0,0,0-2.163,3.98c-.433,1.424-1.2,3.286-2.235,3.082a9.82,9.82,0,0,0-6.332.072C82.185,387.784,79.962,393.434,79.962,393.434Z" transform="translate(-68.023 -337.565)" fill="#ffbe9d"/>
                  </g>
                  <g id="Grupo_133987" data-name="Grupo 133987" transform="translate(7.391 46.239)">
                    <g id="Grupo_133974" data-name="Grupo 133974" transform="translate(17.273)">
                      <g id="Grupo_133971" data-name="Grupo 133971" transform="translate(0.402)">
                        <path id="Trazado_173763" data-name="Trazado 173763" d="M77.5,357.626q-.536,13.513-1.072,27.023c-.108,2.712-.192,5.548,1.024,8.011s4.169,4.389,6.876,3.584a5.834,5.834,0,0,0,3.608-3.716,16.848,16.848,0,0,0,.712-5.206,341.807,341.807,0,0,1,2.926-34.364" transform="translate(-76.368 -352.958)" fill="#ffbe9d"/>
                      </g>
                      <g id="Grupo_133973" data-name="Grupo 133973">
                        <g id="Grupo_133972" data-name="Grupo 133972">
                          <path id="Trazado_173764" data-name="Trazado 173764" d="M91.839,352.958a3.5,3.5,0,0,1-.033.9c-.069.685-.15,1.535-.252,2.574-.231,2.355-.541,5.557-.922,9.459-.348,4-.715,8.756-.988,14.052q-.207,3.974-.345,8.315a14.494,14.494,0,0,1-.718,4.461,6.49,6.49,0,0,1-3.07,3.614,5.33,5.33,0,0,1-4.749-.1,7.571,7.571,0,0,1-3.31-3.19c-1.424-2.748-1.25-5.746-1.153-8.363.243-5.272.466-10.039.652-14.088.21-3.917.384-7.131.511-9.5.075-1.042.135-1.892.183-2.58a3.478,3.478,0,0,1,.123-.9,3.583,3.583,0,0,1,.048.9c-.006.685-.012,1.541-.021,2.586-.06,2.364-.141,5.581-.24,9.5-.135,4.049-.294,8.819-.469,14.1-.087,2.613-.192,5.476,1.105,7.936a6.752,6.752,0,0,0,2.941,2.818,4.489,4.489,0,0,0,4,.1,5.664,5.664,0,0,0,2.652-3.145,13.81,13.81,0,0,0,.679-4.2c.108-2.881.234-5.674.4-8.324.315-5.3.745-10.072,1.172-14.067s.862-7.218,1.193-9.441c.162-1.111.306-1.97.412-2.553A3.575,3.575,0,0,1,91.839,352.958Z" transform="translate(-76.234 -352.958)" fill="#eb996e"/>
                        </g>
                      </g>
                    </g>
                    <g id="Grupo_133978" data-name="Grupo 133978" transform="translate(27.774 21.382)">
                      <g id="Grupo_133975" data-name="Grupo 133975" transform="translate(0.422 0.401)">
                        <path id="Trazado_173765" data-name="Trazado 173765" d="M100.265,367.336c-2.98-1.051-8-4.359-10.946-5.846-2.2-1.108-4.944-1.907-7.041-.613-1.775,1.1-2.472,3.379-2.4,5.461a13.7,13.7,0,0,0,2.755,7.377,14.146,14.146,0,0,0,1.986,2.31,10.217,10.217,0,0,0,2.6,1.616,1.626,1.626,0,0,1,.745.568,8.16,8.16,0,0,1,.535,2.247,12.412,12.412,0,0,0,2.875,5.257,11.267,11.267,0,0,0,1,.964" transform="translate(-79.87 -360.21)" fill="#ffbe9d"/>
                      </g>
                      <g id="Grupo_133977" data-name="Grupo 133977">
                        <g id="Grupo_133976" data-name="Grupo 133976">
                          <path id="Trazado_173766" data-name="Trazado 173766" d="M92.655,386.945c-.021.024-.168-.078-.433-.294a9.422,9.422,0,0,1-1.1-1.018,12.086,12.086,0,0,1-2.637-4.842c-.162-.607-.177-1.214-.351-1.748a1.11,1.11,0,0,0-.4-.613,8.415,8.415,0,0,0-.841-.421,9.406,9.406,0,0,1-3.493-2.734,14.351,14.351,0,0,1-3.665-9.288,6.467,6.467,0,0,1,2.151-4.872,5.647,5.647,0,0,1,4.893-.826,15.251,15.251,0,0,1,4.058,1.724c1.187.67,2.265,1.328,3.25,1.919,1.968,1.19,3.569,2.13,4.7,2.734a17.958,17.958,0,0,1,1.763.937,6.094,6.094,0,0,1-1.907-.64c-1.187-.517-2.848-1.382-4.857-2.508-1.021-.565-2.118-1.174-3.286-1.82a14.984,14.984,0,0,0-3.893-1.577,4.87,4.87,0,0,0-4.2.712,5.675,5.675,0,0,0-1.817,4.247,13.806,13.806,0,0,0,3.418,8.759,8.733,8.733,0,0,0,3.2,2.6,7.607,7.607,0,0,1,.928.5,1.771,1.771,0,0,1,.628.967c.192.67.183,1.289.306,1.8a12.836,12.836,0,0,0,2.31,4.779A15.791,15.791,0,0,1,92.655,386.945Z" transform="translate(-79.73 -360.076)" fill="#eb996e"/>
                        </g>
                      </g>
                    </g>
                    <g id="Grupo_133980" data-name="Grupo 133980" transform="translate(33.032 4.812)">
                      <g id="Grupo_133979" data-name="Grupo 133979">
                        <path id="Trazado_173767" data-name="Trazado 173767" d="M96,354.566c.183.1-2.052,3.713-6.218,6.756-4.148,3.076-8.264,4.136-8.3,3.929-.1-.246,3.779-1.634,7.792-4.617C93.314,357.69,95.79,354.4,96,354.566Z" transform="translate(-81.48 -354.56)" fill="#eb996e"/>
                      </g>
                    </g>
                    <g id="Grupo_133982" data-name="Grupo 133982" transform="translate(3.915 11.667)">
                      <g id="Grupo_133981" data-name="Grupo 133981">
                        <path id="Trazado_173768" data-name="Trazado 173768" d="M90.041,388.461c.027-.012.12.153.27.478a8.633,8.633,0,0,1,.508,1.484,4.666,4.666,0,0,1,.006,2.535,3.361,3.361,0,0,1-2.6,2.13c-2.559.493-5.578-.793-7.885-3.085-2.367-2.316-3.881-5.653-5.116-9.1a60.789,60.789,0,0,1-2.851-10.012,32.364,32.364,0,0,1-.484-8.5,23,23,0,0,1,1.144-5.626,7,7,0,0,1,.859-1.917,34.974,34.974,0,0,0-1.4,7.585,33.923,33.923,0,0,0,.655,8.318,64.9,64.9,0,0,0,2.878,9.862c1.226,3.427,2.673,6.635,4.869,8.84,2.136,2.193,4.962,3.418,7.212,3.049a2.873,2.873,0,0,0,2.274-1.7,4.514,4.514,0,0,0,.114-2.307C90.263,389.185,89.965,388.488,90.041,388.461Z" transform="translate(-71.787 -356.842)" fill="#eb996e"/>
                      </g>
                    </g>
                    <g id="Grupo_133984" data-name="Grupo 133984" transform="translate(16.343 10.79)">
                      <g id="Grupo_133983" data-name="Grupo 133983">
                        <path id="Trazado_173769" data-name="Trazado 173769" d="M76.343,356.55c.246.015.216,3.124.58,6.921.348,3.8.961,6.846.718,6.906-.213.06-1.211-2.95-1.568-6.828C75.7,359.674,76.121,356.529,76.343,356.55Z" transform="translate(-75.925 -356.55)" fill="#eb996e"/>
                      </g>
                    </g>
                    <g id="Grupo_133986" data-name="Grupo 133986" transform="translate(0 40.755)">
                      <g id="Grupo_133985" data-name="Grupo 133985">
                        <path id="Trazado_173770" data-name="Trazado 173770" d="M81.833,370.693c.039.081-.586.544-1.793.871a8.019,8.019,0,0,1-4.8-.391,9.177,9.177,0,0,1-3.866-2.854c-.76-.991-.961-1.754-.868-1.79.12-.06.5.571,1.322,1.391a11.008,11.008,0,0,0,3.725,2.457,9.116,9.116,0,0,0,4.38.592C81.073,370.813,81.776,370.561,81.833,370.693Z" transform="translate(-70.484 -366.526)" fill="#eb996e"/>
                      </g>
                    </g>
                  </g>
                </g>
                <g id="Grupo_133989" data-name="Grupo 133989" transform="translate(20.431 231.061)">
                  <path id="Trazado_173771" data-name="Trazado 173771" d="M198.887,350.955s-31.634,10.937-39.483,29.132c-1.355,3.139-32.736,83.33-32.736,83.33l-51.844,75.2s13.463,44.5,58.855,42.577c0,0,14.881-.072,32.228-26.981,15.371-23.842,24.755-67.148,24.755-67.148Z" transform="translate(-74.825 -350.955)" fill="url(#linear-gradient)"/>
                </g>
                <g id="Grupo_133990" data-name="Grupo 133990" transform="translate(2.717 299.956)">
                  <path id="Trazado_173772" data-name="Trazado 173772" d="M86.641,492.654,68.928,384.724,132.7,373.89l24.8,120.278Z" transform="translate(-68.928 -373.89)" fill="url(#linear-gradient)"/>
                </g>
                <g id="Grupo_133992" data-name="Grupo 133992" transform="translate(66.726 299.834)">
                  <g id="Grupo_133991" data-name="Grupo 133991">
                    <path id="Trazado_173773" data-name="Trazado 173773" d="M108.23,469.992a4.655,4.655,0,0,1-.291-.952c-.177-.724-.4-1.64-.676-2.773-.577-2.406-1.337-5.908-2.226-10.246-1.79-8.672-3.959-20.712-6.218-34.025s-4.335-25.365-5.972-34.058c-.811-4.266-1.475-7.753-1.959-10.294-.21-1.144-.385-2.073-.52-2.8a4.332,4.332,0,0,1-.123-.991,4.5,4.5,0,0,1,.291.955c.177.721.4,1.64.676,2.77.577,2.406,1.337,5.909,2.229,10.246,1.787,8.672,3.959,20.712,6.218,34.031s4.335,25.359,5.969,34.052c.811,4.266,1.475,7.753,1.959,10.294.213,1.145.384,2.073.52,2.8A4.345,4.345,0,0,1,108.23,469.992Z" transform="translate(-90.237 -373.85)" fill="#263238"/>
                  </g>
                </g>
                <g id="Grupo_133994" data-name="Grupo 133994" transform="translate(74.822 346.626)" opacity="0.3">
                  <g id="Grupo_133993" data-name="Grupo 133993">
                    <path id="Trazado_173774" data-name="Trazado 173774" d="M92.932,389.427a108.2,108.2,0,0,1,17.927,51.76,8.265,8.265,0,0,1-.577,4.632c-.76,1.382-2.658,2.259-3.977,1.394a4.4,4.4,0,0,1-1.487-2.947Q99.1,417.2,93.374,390.136" transform="translate(-92.932 -389.427)"/>
                  </g>
                </g>
                <g id="Grupo_134126" data-name="Grupo 134126" transform="translate(74.921)">
                  <g id="Grupo_134065" data-name="Grupo 134065" transform="translate(39.342)">
                    <g id="Grupo_133996" data-name="Grupo 133996" transform="translate(0 60.259)">
                      <g id="Grupo_133995" data-name="Grupo 133995">
                        <path id="Trazado_173775" data-name="Trazado 173775" d="M123.205,294.094s-15.377,57.491-16.7,98.169l-.442,13.553s33.929,28.173,62.39,29.909L192.3,377.073Z" transform="translate(-106.062 -294.094)" fill="#12263f"/>
                      </g>
                    </g>
                    <g id="Grupo_134064" data-name="Grupo 134064" transform="translate(10.407)">
                      <g id="Grupo_134061" data-name="Grupo 134061">
                        <g id="Grupo_134060" data-name="Grupo 134060">
                          <g id="Grupo_134056" data-name="Grupo 134056">
                            <g id="Grupo_134055" data-name="Grupo 134055">
                              <g id="Grupo_134054" data-name="Grupo 134054">
                                <g id="Grupo_134000" data-name="Grupo 134000">
                                  <g id="Grupo_133999" data-name="Grupo 133999">
                                    <g id="Grupo_133998" data-name="Grupo 133998">
                                      <g id="Grupo_133997" data-name="Grupo 133997">
                                        <path id="Trazado_173776" data-name="Trazado 173776" d="M266.969,369.558c-6.485-28.044-8.979-60.678-32.295-78.962-17.3-13.565-37.02-17.35-58.987-16.431-10.82.454-23.034,5.446-32.457,10.778-12.92,7.311-18.39,22.144-24.623,35.617-12.487,26.993-10.907,63.541-2.448,73.7l112.792,59.563c22.523-11.724,36.635-16.392,40.234-46.416A110.006,110.006,0,0,0,266.969,369.558Z" transform="translate(-109.527 -274.034)" fill="#263238"/>
                                      </g>
                                    </g>
                                  </g>
                                </g>
                                <g id="Grupo_134053" data-name="Grupo 134053" transform="translate(6.63 17.627)">
                                  <g id="Grupo_134003" data-name="Grupo 134003">
                                    <g id="Grupo_134002" data-name="Grupo 134002">
                                      <g id="Grupo_134001" data-name="Grupo 134001">
                                        <path id="Trazado_173777" data-name="Trazado 173777" d="M227.81,301.119l-70.984-20.943c-22.865-3.334-39.245,24.34-41.607,47.326-2.619,25.539-4.812,56.824-2.529,76.043,4.587,38.654,33.835,44.7,33.835,44.7.012-.129.069.577-.162,12l-.748,18.5a32.051,32.051,0,0,0,6.248,20.94c10.468,13.565,29.549,15.377,52.048,7.053,13.043-4.827,22.108-14.53,23.106-27.753L239.359,315.3A13.52,13.52,0,0,0,227.81,301.119Z" transform="translate(-111.734 -279.902)" fill="#ffbe9d"/>
                                      </g>
                                    </g>
                                  </g>
                                  <g id="Grupo_134008" data-name="Grupo 134008" transform="translate(15.938 76.172)">
                                    <g id="Grupo_134007" data-name="Grupo 134007">
                                      <g id="Grupo_134006" data-name="Grupo 134006">
                                        <g id="Grupo_134005" data-name="Grupo 134005">
                                          <g id="Grupo_134004" data-name="Grupo 134004">
                                            <path id="Trazado_173778" data-name="Trazado 173778" d="M117.053,309.526a4.929,4.929,0,0,0,4.554,5.158,4.716,4.716,0,0,0,5.254-4.241,4.931,4.931,0,0,0-4.548-5.161A4.721,4.721,0,0,0,117.053,309.526Z" transform="translate(-117.04 -305.26)" fill="#263238"/>
                                          </g>
                                        </g>
                                      </g>
                                    </g>
                                  </g>
                                  <g id="Grupo_134013" data-name="Grupo 134013" transform="translate(9.354 65.952)">
                                    <g id="Grupo_134012" data-name="Grupo 134012">
                                      <g id="Grupo_134011" data-name="Grupo 134011">
                                        <g id="Grupo_134010" data-name="Grupo 134010">
                                          <g id="Grupo_134009" data-name="Grupo 134009">
                                            <path id="Trazado_173779" data-name="Trazado 173779" d="M114.917,306.668c.586.667,4.428-1.95,9.727-1.727,5.3.147,9.081,3.028,9.684,2.4.291-.276-.285-1.46-1.928-2.76a13.557,13.557,0,0,0-7.72-2.716,12.98,12.98,0,0,0-7.774,2.178C115.227,305.229,114.629,306.368,114.917,306.668Z" transform="translate(-114.848 -301.857)" fill="#263238"/>
                                          </g>
                                        </g>
                                      </g>
                                    </g>
                                  </g>
                                  <g id="Grupo_134018" data-name="Grupo 134018" transform="translate(66.361 76.172)">
                                    <g id="Grupo_134017" data-name="Grupo 134017">
                                      <g id="Grupo_134016" data-name="Grupo 134016">
                                        <g id="Grupo_134015" data-name="Grupo 134015">
                                          <g id="Grupo_134014" data-name="Grupo 134014">
                                            <path id="Trazado_173780" data-name="Trazado 173780" d="M133.839,309.526a4.929,4.929,0,0,0,4.554,5.158,4.717,4.717,0,0,0,5.254-4.241,4.931,4.931,0,0,0-4.551-5.161A4.718,4.718,0,0,0,133.839,309.526Z" transform="translate(-133.826 -305.26)" fill="#263238"/>
                                          </g>
                                        </g>
                                      </g>
                                    </g>
                                  </g>
                                  <g id="Grupo_134023" data-name="Grupo 134023" transform="translate(61.502 66.577)">
                                    <g id="Grupo_134022" data-name="Grupo 134022">
                                      <g id="Grupo_134021" data-name="Grupo 134021">
                                        <g id="Grupo_134020" data-name="Grupo 134020">
                                          <g id="Grupo_134019" data-name="Grupo 134019">
                                            <path id="Trazado_173781" data-name="Trazado 173781" d="M132.277,306.876c.586.667,4.431-1.946,9.73-1.724,5.3.144,9.081,3.025,9.681,2.4.291-.276-.279-1.46-1.931-2.761a13.508,13.508,0,0,0-7.717-2.719,12.987,12.987,0,0,0-7.774,2.178C132.593,305.437,131.989,306.576,132.277,306.876Z" transform="translate(-132.208 -302.065)" fill="#263238"/>
                                          </g>
                                        </g>
                                      </g>
                                    </g>
                                  </g>
                                  <g id="Grupo_134028" data-name="Grupo 134028" transform="translate(27.564 61.682)">
                                    <g id="Grupo_134027" data-name="Grupo 134027">
                                      <g id="Grupo_134026" data-name="Grupo 134026">
                                        <g id="Grupo_134025" data-name="Grupo 134025">
                                          <g id="Grupo_134024" data-name="Grupo 134024">
                                            <path id="Trazado_173782" data-name="Trazado 173782" d="M134.268,344.512c.036-.3-3.235-1-8.549-1.892-1.349-.192-2.619-.514-2.812-1.445-.279-.991.342-2.427,1.063-3.977q2.1-4.839,4.407-10.15c6.137-14.458,10.637-26.365,10.054-26.608s-6.035,11.279-12.172,25.737q-2.217,5.348-4.241,10.219c-.574,1.517-1.523,3.229-.91,5.284a3.4,3.4,0,0,0,2.148,2.067,9.071,9.071,0,0,0,2.286.408C130.9,344.656,134.235,344.813,134.268,344.512Z" transform="translate(-120.91 -300.436)" fill="#263238"/>
                                          </g>
                                        </g>
                                      </g>
                                    </g>
                                  </g>
                                  <g id="Grupo_134033" data-name="Grupo 134033" transform="translate(34.695 156.647)">
                                    <g id="Grupo_134032" data-name="Grupo 134032">
                                      <g id="Grupo_134031" data-name="Grupo 134031">
                                        <g id="Grupo_134030" data-name="Grupo 134030">
                                          <g id="Grupo_134029" data-name="Grupo 134029">
                                            <path id="Trazado_173783" data-name="Trazado 173783" d="M123.38,343.747c-1.971-.2,30.594.039,51.982-11.7,0,0-13.776,26.377-52.078,21.27Z" transform="translate(-123.284 -332.05)" fill="#eb996e"/>
                                          </g>
                                        </g>
                                      </g>
                                    </g>
                                  </g>
                                  <g id="Grupo_134037" data-name="Grupo 134037" transform="translate(39.418 113.115)">
                                    <g id="Grupo_134036" data-name="Grupo 134036">
                                      <g id="Grupo_134035" data-name="Grupo 134035">
                                        <g id="Grupo_134034" data-name="Grupo 134034">
                                          <path id="Trazado_173784" data-name="Trazado 173784" d="M142.912,322.067a8.518,8.518,0,0,0-6.93-4.133c-3.415-.246-5.293-1.931-10.288,4.6-.943,1.045-.982,4.1-.643,4.953s.066.433.7,1.036c2.289,2.187,4.713,4.377,7.729,5.224a8.322,8.322,0,0,0,8.906-2.884A8.5,8.5,0,0,0,142.912,322.067Z" transform="translate(-124.856 -317.558)" fill="#eb996e"/>
                                        </g>
                                      </g>
                                    </g>
                                  </g>
                                  <g id="Grupo_134042" data-name="Grupo 134042" transform="translate(38.232 112.492)">
                                    <g id="Grupo_134041" data-name="Grupo 134041">
                                      <g id="Grupo_134040" data-name="Grupo 134040">
                                        <g id="Grupo_134039" data-name="Grupo 134039">
                                          <g id="Grupo_134038" data-name="Grupo 134038">
                                            <path id="Trazado_173785" data-name="Trazado 173785" d="M141.988,317.352c-.859-.09-1.129,5.662-6.239,9.522-5.1,3.878-11.2,2.953-11.283,3.755-.1.357,1.316,1.181,3.9,1.367a14.33,14.33,0,0,0,9.405-2.809,12.464,12.464,0,0,0,4.86-8C142.958,318.79,142.381,317.337,141.988,317.352Z" transform="translate(-124.461 -317.351)" fill="#263238"/>
                                          </g>
                                        </g>
                                      </g>
                                    </g>
                                  </g>
                                  <g id="Grupo_134047" data-name="Grupo 134047" transform="translate(59.551 48.911)">
                                    <g id="Grupo_134046" data-name="Grupo 134046">
                                      <g id="Grupo_134045" data-name="Grupo 134045">
                                        <g id="Grupo_134044" data-name="Grupo 134044">
                                          <g id="Grupo_134043" data-name="Grupo 134043">
                                            <path id="Trazado_173786" data-name="Trazado 173786" d="M131.572,299.256c.381,1.487,5.719,1.319,11.841,2.667,6.152,1.226,10.97,3.527,11.916,2.319.427-.58-.312-2.016-2.2-3.6a21.106,21.106,0,0,0-18.1-3.8C132.668,297.538,131.416,298.553,131.572,299.256Z" transform="translate(-131.559 -296.184)" fill="#263238"/>
                                          </g>
                                        </g>
                                      </g>
                                    </g>
                                  </g>
                                  <g id="Grupo_134052" data-name="Grupo 134052" transform="translate(9.634 49.408)">
                                    <g id="Grupo_134051" data-name="Grupo 134051">
                                      <g id="Grupo_134050" data-name="Grupo 134050">
                                        <g id="Grupo_134049" data-name="Grupo 134049">
                                          <g id="Grupo_134048" data-name="Grupo 134048">
                                            <path id="Trazado_173787" data-name="Trazado 173787" d="M115.172,303.44c1.2,1.042,5.065-.778,9.916-1.541,4.824-.913,9.087-.5,9.856-1.88.327-.667-.5-1.766-2.454-2.634a15.111,15.111,0,0,0-8.357-.787,14.935,14.935,0,0,0-7.576,3.541C115.019,301.613,114.631,302.923,115.172,303.44Z" transform="translate(-114.941 -296.35)" fill="#263238"/>
                                          </g>
                                        </g>
                                      </g>
                                    </g>
                                  </g>
                                </g>
                              </g>
                            </g>
                          </g>
                          <g id="Grupo_134059" data-name="Grupo 134059" transform="translate(52.536 13.759)">
                            <g id="Grupo_134058" data-name="Grupo 134058">
                              <g id="Grupo_134057" data-name="Grupo 134057">
                                <path id="Trazado_173788" data-name="Trazado 173788" d="M127.2,278.614c-.066.279-.117.559-.18.835l.132.057C127.163,279.209,127.181,278.911,127.2,278.614Z" transform="translate(-127.016 -278.614)" fill="#263238"/>
                              </g>
                            </g>
                          </g>
                        </g>
                      </g>
                      <g id="Grupo_134063" data-name="Grupo 134063" transform="translate(2.853 4.364)">
                        <g id="Grupo_134062" data-name="Grupo 134062">
                          <path id="Trazado_173789" data-name="Trazado 173789" d="M158.658,294.734a85.314,85.314,0,0,0,6.807,30.735c1.724,4,3.821,7.957,7.026,10.91s7.708,4.782,11.973,3.89a51.984,51.984,0,0,1-10.453-29.858c4.539,10.931,9.2,22.063,16.9,31.045,6.4,7.465,15.371,13.238,24.983,14.422,2.283,17.146,8.513,34.788,3.971,51.378-2.833,10.36-9.745,19.5-10.991,30.171-1.174,10.063,2.878,20.18,1.793,30.252l71.375-19.922h0c-.784-72.663-11.379-106.283-27.449-135.273l-.4-.715c-6.936-12.541-23.7-26.554-37.326-31a108.438,108.438,0,0,0-57.106-2.67l-.324,1.538c-.024.177-.033.358-.057.535l-.856-.36c-7.227-3.779-11.958-8.047-23.28,1.868-6.137,5.374-11.625,13.442-15.578,21.682-3.527,7.356-7.347,15.344-8.642,23.4-1.691,10.538.937,46.037,2.07,57.3,1.583-9.9,2.968-39.435,6.84-47.125,3.515-6.981,5.578-15.638,9.417-22.448C129.355,314.487,142.232,292.781,158.658,294.734Z" transform="translate(-110.476 -275.486)" fill="#12263f"/>
                        </g>
                      </g>
                    </g>
                  </g>
                  <g id="Grupo_134097" data-name="Grupo 134097" transform="translate(17.852 193.546)">
                    <g id="Grupo_134068" data-name="Grupo 134068" transform="translate(166.412 48.372)">
                      <g id="Grupo_134067" data-name="Grupo 134067">
                        <g id="Grupo_134066" data-name="Grupo 134066">
                          <path id="Trazado_173790" data-name="Trazado 173790" d="M154.363,407.028a11.692,11.692,0,0,1,.078-3.007,50.258,50.258,0,0,1,1.466-8.074A56.635,56.635,0,0,1,191.085,357.2a49.871,49.871,0,0,1,7.894-2.238,11.715,11.715,0,0,1,2.986-.367c.054.246-4.2.886-10.547,3.457A58.92,58.92,0,0,0,156.79,396.2C154.841,402.762,154.613,407.058,154.363,407.028Z" transform="translate(-154.307 -354.569)" fill="#263238"/>
                        </g>
                      </g>
                    </g>
                    <g id="Grupo_134070" data-name="Grupo 134070" transform="translate(45.448 8.654)">
                      <g id="Grupo_134069" data-name="Grupo 134069">
                        <path id="Trazado_173791" data-name="Trazado 173791" d="M217.437,341.347S174.506,373.8,153.6,370.133c-16.75-2.938-13.869-28.4-13.869-28.4l-8.14,17.588-17.552,70.266,7.429,33.07,39.885-24.62Z" transform="translate(-114.038 -341.347)" fill="#1d272b"/>
                      </g>
                    </g>
                    <g id="Grupo_134071" data-name="Grupo 134071" transform="translate(1.526)">
                      <path id="Trazado_173792" data-name="Trazado 173792" d="M325.5,687.833c-6.633-49.726-33.466-109.863-33.466-109.863l17.38-44.631,4.956-152.314-48.521-26.891-10.946-15.668L199.646,397s-49.224,47.671-49.164,47.614c1.238-1.193,9.982-58.686,9.982-58.686l8.792-39.384L160.439,360.8s-55.764,80.317-60.272,126.682,12.754,94.228,12.754,94.228-7.624,74.655-8.648,106.126Z" transform="translate(-99.416 -338.466)" fill="url(#linear-gradient)"/>
                    </g>
                    <g id="Grupo_134073" data-name="Grupo 134073" transform="translate(15.812 34.055)">
                      <g id="Grupo_134072" data-name="Grupo 134072">
                        <path id="Trazado_173793" data-name="Trazado 173793" d="M142.847,349.8s-20.679,8.8-27.422,19.357-11.252,56.464-11.252,56.464L137.016,370.3Z" transform="translate(-104.172 -349.803)" fill="#e0e0e0"/>
                      </g>
                    </g>
                    <g id="Grupo_134076" data-name="Grupo 134076" transform="translate(46.142 15.668)">
                      <g id="Grupo_134075" data-name="Grupo 134075">
                        <g id="Grupo_134074" data-name="Grupo 134074">
                          <path id="Trazado_173794" data-name="Trazado 173794" d="M122.614,362.069a10,10,0,0,1-.051,1.682c-.087,1.2-.2,2.818-.351,4.863-.363,4.35-.877,10.52-1.523,18.257l-.015.2-.177.1c-1.751,1-3.62,2.073-5.575,3.2l.216-.4c.94,12.79,2.136,29.071,3.49,47.515l-.8-.526c13.6-4.917,28.525-10.312,44.163-15.969q7.164-2.577,14.112-5.083l-.421.7q-1.05-7.254-2.058-14.226l-.147-1.033.982.348,16.816,5.972-.691.222c13.244-18.825,24.542-34.884,32.6-46.332,3.989-5.6,7.173-10.06,9.426-13.217,1.066-1.463,1.913-2.619,2.547-3.487a8.4,8.4,0,0,1,.937-1.169,8.549,8.549,0,0,1-.766,1.274c-.595.892-1.388,2.082-2.388,3.59-2.184,3.2-5.269,7.729-9.141,13.4-7.963,11.523-19.135,27.684-32.231,46.629l-.258.372-.433-.15q-8.119-2.857-16.837-5.918l.835-.685q1.018,6.962,2.082,14.22l.078.52-.5.18q-6.939,2.5-14.109,5.089l-44.193,15.881-.754.27-.051-.793c-1.22-18.453-2.3-34.743-3.142-47.539l-.018-.27.234-.132c1.968-1.1,3.848-2.142,5.611-3.124l-.192.3c.793-7.723,1.43-13.881,1.877-18.225.231-2.04.415-3.647.553-4.842A9.833,9.833,0,0,1,122.614,362.069Z" transform="translate(-114.269 -343.682)" fill="#263238"/>
                        </g>
                      </g>
                    </g>
                    <g id="Grupo_134079" data-name="Grupo 134079" transform="translate(0 45.12)">
                      <g id="Grupo_134078" data-name="Grupo 134078">
                        <g id="Grupo_134077" data-name="Grupo 134077">
                          <path id="Trazado_173795" data-name="Trazado 173795" d="M113.705,616.472a5.813,5.813,0,0,1-.09-1.166c-.024-.853-.057-1.98-.1-3.4-.048-3.082-.12-7.435-.207-12.938-.108-11.252-.261-27.185-.445-46.343l.021.153c-2.929-10.207-5.539-21.541-8.05-33.67-1.253-6.065-2.439-12.334-3.584-18.765a128.715,128.715,0,0,1-2.289-19.931,133.942,133.942,0,0,1,9.012-52.453l-.018.048c4.055-11.766,9.195-22.051,13.827-31.159,4.683-9.093,9.111-16.918,12.854-23.346s6.834-11.445,9-14.845c1.057-1.631,1.889-2.92,2.508-3.872a9.942,9.942,0,0,1,.922-1.3,9.078,9.078,0,0,1-.757,1.4l-2.343,3.968c-2.061,3.464-5.04,8.537-8.7,15s-7.987,14.331-12.589,23.439c-4.548,9.12-9.618,19.423-13.583,31.084l0,.006-.018.042a134.048,134.048,0,0,0-8.81,51.937,128.067,128.067,0,0,0,2.253,19.75c1.135,6.419,2.307,12.682,3.542,18.738,2.469,12.106,5.034,23.454,7.879,33.607l.024.081v.072c-.006,19.159-.012,35.094-.018,46.347-.039,5.506-.069,9.859-.09,12.938-.027,1.424-.048,2.55-.066,3.4A6.347,6.347,0,0,1,113.705,616.472Z" transform="translate(-98.908 -353.487)" fill="#263238"/>
                        </g>
                      </g>
                    </g>
                    <g id="Grupo_134082" data-name="Grupo 134082" transform="translate(165.828 120.488)" opacity="0.2">
                      <g id="Grupo_134081" data-name="Grupo 134081">
                        <g id="Grupo_134080" data-name="Grupo 134080">
                          <path id="Trazado_173796" data-name="Trazado 173796" d="M197.825,464.914c-27.068-19.339-43.271-53.075-43.712-86.337Z" transform="translate(-154.113 -378.577)"/>
                        </g>
                      </g>
                    </g>
                    <g id="Grupo_134094" data-name="Grupo 134094" transform="translate(143.78 33.877)">
                      <g id="Grupo_134084" data-name="Grupo 134084">
                        <g id="Grupo_134083" data-name="Grupo 134083">
                          <path id="Trazado_173797" data-name="Trazado 173797" d="M200.371,349.744s23.109,4.5,32.216,24.3,62.381,160.28,65.382,170.451c4.283,14.518-2.719,35.376-10.931,46.614-11.6,15.872-56.43,74.12-56.43,74.12H146.773L223.02,545.521l-53.9-111.275S173.1,357.861,200.371,349.744Z" transform="translate(-146.773 -349.744)" fill="url(#linear-gradient)"/>
                        </g>
                      </g>
                      <g id="Grupo_134087" data-name="Grupo 134087" transform="translate(78.472 195.214)">
                        <g id="Grupo_134086" data-name="Grupo 134086">
                          <g id="Grupo_134085" data-name="Grupo 134085">
                            <path id="Trazado_173798" data-name="Trazado 173798" d="M205.174,430.149c-.258.321-6.386-5.062-15.371-9.291-8.951-4.3-16.993-5.662-16.906-6.068.024-.156,2.067-.021,5.293.682a58.238,58.238,0,0,1,23.118,11C203.888,428.533,205.282,430.032,205.174,430.149Z" transform="translate(-172.897 -414.732)" fill="#263238"/>
                          </g>
                        </g>
                      </g>
                      <g id="Grupo_134090" data-name="Grupo 134090" transform="translate(78.581 186.602)">
                        <g id="Grupo_134089" data-name="Grupo 134089">
                          <g id="Grupo_134088" data-name="Grupo 134088">
                            <path id="Trazado_173799" data-name="Trazado 173799" d="M202.019,412.28c0,.409-6.876.153-14.944,2.331-8.089,2.106-13.932,5.737-14.136,5.383-.207-.231,5.479-4.461,13.806-6.636C195.05,411.121,202.085,411.977,202.019,412.28Z" transform="translate(-172.933 -411.865)" fill="#263238"/>
                          </g>
                        </g>
                      </g>
                      <g id="Grupo_134093" data-name="Grupo 134093" transform="translate(22.632 14.495)">
                        <g id="Grupo_134092" data-name="Grupo 134092">
                          <g id="Grupo_134091" data-name="Grupo 134091">
                            <path id="Trazado_173800" data-name="Trazado 173800" d="M154.363,407.028a11.692,11.692,0,0,1,.078-3.007,50.258,50.258,0,0,1,1.466-8.074A56.635,56.635,0,0,1,191.085,357.2a49.871,49.871,0,0,1,7.894-2.238,11.715,11.715,0,0,1,2.986-.367c.054.246-4.2.886-10.547,3.457A58.92,58.92,0,0,0,156.79,396.2C154.841,402.762,154.613,407.058,154.363,407.028Z" transform="translate(-154.307 -354.569)" fill="#263238"/>
                          </g>
                        </g>
                      </g>
                    </g>
                    <g id="Grupo_134096" data-name="Grupo 134096" transform="translate(49.902 74.273)" opacity="0.2">
                      <g id="Grupo_134095" data-name="Grupo 134095">
                        <path id="Trazado_173801" data-name="Trazado 173801" d="M188.565,369.137l-13.793-.449,2.879,13.953-62.131,15.786,58.29-21.011-2.07-14.223Z" transform="translate(-115.521 -363.192)"/>
                      </g>
                    </g>
                  </g>
                </g>
                <g id="Grupo_134128" data-name="Grupo 134128" transform="translate(128.759 297.317)">
                  <g id="Grupo_134127" data-name="Grupo 134127">
                    <path id="Trazado_173812" data-name="Trazado 173812" d="M115.634,618.034a14.918,14.918,0,0,1-.237-2.505q-.14-2.676-.372-7.194c-.261-6.407-.631-15.413-1.081-26.473-.8-22.364-2-53.231-2.878-87.373-.369-17.077-.2-33.382.886-48.167a260.692,260.692,0,0,1,5.488-38.969,196.728,196.728,0,0,1,7.609-25.419c1.144-2.917,2.145-5.137,2.791-6.65a14.993,14.993,0,0,1,1.084-2.271,15.487,15.487,0,0,1-.793,2.391q-.933,2.51-2.511,6.741a222.436,222.436,0,0,0-7.1,25.446,272.092,272.092,0,0,0-5.131,38.831c-1.006,14.731-1.129,30.982-.76,48.038.943,34.049,1.8,64.871,2.418,87.367.243,11.069.442,20.078.583,26.488q.049,4.528.081,7.206A15.268,15.268,0,0,1,115.634,618.034Z" transform="translate(-110.888 -373.012)" fill="#263238"/>
                  </g>
                </g>
                <g id="Grupo_134130" data-name="Grupo 134130" transform="translate(236.549 322.543)">
                  <g id="Grupo_134129" data-name="Grupo 134129">
                    <path id="Trazado_173813" data-name="Trazado 173813" d="M146.775,601.779a16.026,16.026,0,0,1,1.256-2.262q1.433-2.348,3.857-6.329l14.428-23.115c12.379-19.546,29.351-46.341,48.1-75.944l7.954-12.478-.039.76c-13.941-28.353-26.308-53.5-35.268-71.726-4.338-8.979-7.846-16.239-10.342-21.4-1.138-2.43-2.046-4.362-2.725-5.81a12.534,12.534,0,0,1-.859-2.064,12.823,12.823,0,0,1,1.12,1.934q1.113,2.122,2.974,5.686c2.6,5.113,6.251,12.3,10.769,21.192,9.072,18.161,21.6,43.234,35.722,71.5l.2.394-.237.37c-2.538,3.992-5.224,8.209-7.945,12.487-18.9,29.5-36,56.214-48.485,75.7-6.206,9.552-11.258,17.326-14.845,22.847q-2.582,3.88-4.1,6.17A16.2,16.2,0,0,1,146.775,601.779Z" transform="translate(-146.772 -381.41)" fill="#263238"/>
                  </g>
                </g>
              </g>
              <g id="Grupo_134133" data-name="Grupo 134133" transform="translate(169.07 492.062)">
                <g id="Grupo_134132" data-name="Grupo 134132">
                  <path id="Trazado_173814" data-name="Trazado 173814" d="M221.333,437.866a5.24,5.24,0,0,1-1.178.9c-.967.628-2.142,1.391-3.563,2.31-1.586.94-3.617,1.931-5.939,3.154-2.427.976-5.1,2.355-8.264,3.325a98.041,98.041,0,0,1-50.966,3.575,68.647,68.647,0,0,1-22.718-8.636l1.123-.553c-1.481,13.893-2.758,25.851-3.692,34.62-.49,4.079-.889,7.407-1.193,9.952a20.155,20.155,0,0,1-.595,3.551,20.147,20.147,0,0,1,.108-3.6c.2-2.553.457-5.9.772-9.991.793-8.783,1.874-20.763,3.13-34.676l.108-1.181,1.018.628a68.655,68.655,0,0,0,22.247,8.354,100.525,100.525,0,0,0,50.3-3.091C214.538,442.54,221.123,437.464,221.333,437.866Z" transform="translate(-124.308 -437.843)" fill="#263238"/>
                </g>
              </g>
            </g>
          </g>
          <g id="Grupo_134137" data-name="Grupo 134137" transform="translate(1.969 299.823)">
            <g id="Grupo_134136" data-name="Grupo 134136">
              <path id="Trazado_173815" data-name="Trazado 173815" d="M133.445,373.858a5.121,5.121,0,0,1-1.15.3l-3.391.679c-3.109.574-7.453,1.379-12.929,2.394l-46.437,8.225.535-.748c3.677,22.49,8.086,49.458,12.827,78.449,1.718,10.667,3.394,21.06,4.992,30.979l-.039-.153c6.3,14.659,16.4,26.785,27.876,33.793a47.3,47.3,0,0,0,17.7,6.534q2.2.27,4.326.535a34.158,34.158,0,0,0,4.181.03l4.016-.072a24.241,24.241,0,0,0,3.65-.925,42.076,42.076,0,0,0,18.888-13.394c3.454-4.3,4.812-7.038,4.968-6.939a38.826,38.826,0,0,1-4.554,7.273,41.727,41.727,0,0,1-18.99,13.995,24.772,24.772,0,0,1-3.845,1.018q-2.005.063-4.1.129a35.7,35.7,0,0,1-4.283.012l-4.434-.5a48.189,48.189,0,0,1-18.2-6.551c-11.838-7.143-22.111-19.363-28.618-34.382l-.024-.06-.015-.093c-1.613-9.916-3.3-20.306-5.031-30.973-4.647-29.005-8.97-55.989-12.574-78.488l-.1-.643.637-.105c19.228-3.175,35.211-5.813,46.533-7.681,5.5-.865,9.865-1.55,12.989-2.043,1.412-.2,2.544-.36,3.424-.487A5.469,5.469,0,0,1,133.445,373.858Z" transform="translate(-68.679 -373.846)" fill="#263238"/>
            </g>
          </g>
          <g id="Grupo_134139" data-name="Grupo 134139" transform="translate(260.736 209.211)">
            <g id="Grupo_134138" data-name="Grupo 134138">
              <path id="Trazado_173816" data-name="Trazado 173816" d="M214.475,677.383a3.166,3.166,0,0,1,.393-.631c.324-.463.739-1.045,1.259-1.778q1.784-2.442,4.98-6.81c4.446-5.981,10.82-14.557,18.786-25.269,8.062-10.766,17.729-23.673,28.63-38.224q2.046-2.73,4.154-5.536c1.388-1.88,2.619-3.857,3.869-5.869a50.589,50.589,0,0,0,5.2-13.514,49.385,49.385,0,0,0-3.169-30.228l-.033-.075-.006-.009c-5.455-14.7-11.273-30.378-17.272-46.533-9.732-25.911-19.192-50.522-28.122-72.771C228.7,419,224.289,408.5,220.05,398.727c-2.247-4.821-4.262-9.564-6.587-13.9-2.136-4.491-4.65-8.375-8.423-10.949A234.106,234.106,0,0,0,184.566,360.6c-6.194-3.662-11.595-6.714-16.014-9.2l-10.2-5.68c-1.105-.622-1.98-1.114-2.649-1.49a5.012,5.012,0,0,1-.877-.553,4.906,4.906,0,0,1,.952.412l2.721,1.352c2.379,1.211,5.879,3.022,10.345,5.425s9.916,5.38,16.164,8.978A227.067,227.067,0,0,1,205.716,373c3.842,2.538,6.711,6.837,8.813,11.261,2.382,4.377,4.425,9.108,6.7,13.941,4.3,9.772,8.762,20.267,13.244,31.393,9.012,22.238,18.516,46.842,28.248,72.76,6.068,16.14,11.871,31.832,17.236,46.566l-.039-.081a50.658,50.658,0,0,1,3.217,31.219,51.842,51.842,0,0,1-5.4,13.89c-1.283,2.051-2.58,4.106-3.977,5.981q-2.122,2.794-4.184,5.515c-11.006,14.479-20.769,27.32-28.912,38.035-8.116,10.6-14.614,19.081-19.144,25q-3.321,4.262-5.182,6.656c-.562.7-1.012,1.259-1.367,1.7A3.005,3.005,0,0,1,214.475,677.383Z" transform="translate(-154.824 -343.681)" fill="#263238"/>
            </g>
          </g>
          <g id="Grupo_134140" data-name="Grupo 134140" transform="translate(220.563 150.858)">
            <path id="Trazado_173817" data-name="Trazado 173817" d="M217.27,324.255l-69.416,42.457c2.565,11.832-4.968,21.024-2.73,28.047,1.277,4.013,3.779,7.726,3.968,11.931.261,5.764-3.809,10.709-7.642,15.019,11.334,5.242,24.412.159,36.665-2.262,16.377-3.235,34.628-1.913,48.146-11.712Q220.62,366.129,217.27,324.255Z" transform="translate(-141.45 -324.255)" fill="#12263f"/>
          </g>
        </g>
      </g>
    </g>
  </g>
</svg>
