<svg xmlns="http://www.w3.org/2000/svg" xmlns:xlink="http://www.w3.org/1999/xlink" width="236.672" height="207.312" viewBox="0 0 236.672 207.312">
  <defs>
    <linearGradient id="linear-gradient" x1="0.5" x2="0.5" y2="1" gradientUnits="objectBoundingBox">
      <stop offset="0" stop-color="#fff"/>
      <stop offset="1" stop-color="#f8f8f8"/>
    </linearGradient>
    <filter id="Rectángulo_29523" x="0" y="0" width="236.672" height="207.312" filterUnits="userSpaceOnUse">
      <feOffset dy="3" input="SourceAlpha"/>
      <feGaussianBlur stdDeviation="3" result="blur"/>
      <feFlood flood-opacity="0.161"/>
      <feComposite operator="in" in2="blur"/>
      <feComposite in="SourceGraphic"/>
    </filter>
    <radialGradient id="radial-gradient" cx="0.076" cy="0.019" r="1.465" gradientTransform="translate(0.001)" gradientUnits="objectBoundingBox">
      <stop offset="0" stop-color="#f6f6f7"/>
      <stop offset="0.477" stop-color="#f9f9fa"/>
      <stop offset="0.715" stop-color="#fff"/>
    </radialGradient>
  </defs>
  <g id="Grupo_134234" data-name="Grupo 134234" transform="translate(-1106.158 -10754.215)">
    <g id="Grupo_61744" data-name="Grupo 61744" transform="translate(1108.082 10753.013)">
      <g id="Grupo_57070" data-name="Grupo 57070" transform="translate(0 0)">
        <g transform="matrix(1, 0, 0, 1, -1.92, 1.2)" filter="url(#Rectángulo_29523)">
          <rect id="Rectángulo_29523-2" data-name="Rectángulo 29523" width="218.672" height="189.312" rx="10" transform="translate(9 6)" fill="url(#linear-gradient)"/>
        </g>
        <path id="Trazado_123976" data-name="Trazado 123976" d="M185.015,982.253H403.687v8.985H306.651l-12.736,8.61-13.7-8.8-95.2.187Z" transform="translate(-177.939 -975.05)" fill="#b42218"/>
        <path id="Trazado_123977" data-name="Trazado 123977" d="M271.948,988.712l-7.319,6.865a1.845,1.845,0,0,1-2.586.019l-7.739-7.079" transform="translate(-147.512 -976.938)" fill="none" stroke="#12263f" stroke-linecap="round" stroke-miterlimit="10" stroke-width="0.806"/>
        <text id="La_arteria_femoral_derecha_y_la_vena_femoral_derecha._" data-name="La arteria femoral
derecha y la vena
femoral derecha.
" transform="translate(117.837 129.227)" fill="#12263f" font-size="17" font-family="Roboto-Bold, Roboto" font-weight="700"><tspan x="-68.228" y="0">La arteria femoral</tspan><tspan x="-66.46" y="20">derecha y la vena</tspan><tspan x="-65.003" y="40">femoral derecha.</tspan><tspan x="0" y="60"></tspan></text>
      </g>
      <line id="Línea_1692" data-name="Línea 1692" x2="37.16" transform="translate(97.663 186.419)" fill="none" stroke="#12263f" stroke-linecap="round" stroke-miterlimit="10" stroke-width="1"/>
      <g id="Grupo_134146" data-name="Grupo 134146" transform="translate(-157.103 -726.89)">
        <g id="Grupo_42274" data-name="Grupo 42274" transform="translate(233.65 755.984)">
          <g id="Grupo_18423" data-name="Grupo 18423" transform="translate(0 0)">
            <g id="Grupo_18421" data-name="Grupo 18421">
              <g id="Grupo_18420" data-name="Grupo 18420">
                <g id="Grupo_18419" data-name="Grupo 18419">
                  <path id="Trazado_40936" data-name="Trazado 40936" d="M270.279,2183.548a37.828,37.828,0,1,1-37.828-37.827A37.828,37.828,0,0,1,270.279,2183.548Z" transform="translate(-194.623 -2145.721)" fill="#fff"/>
                </g>
              </g>
            </g>
            <path id="Trazado_40937" data-name="Trazado 40937" d="M270.167,2183.426a37.827,37.827,0,1,0-37.828,37.829A37.678,37.678,0,0,0,270.167,2183.426Z" transform="translate(-194.511 -2145.598)" fill="url(#radial-gradient)"/>
            <path id="Trazado_40938" data-name="Trazado 40938" d="M260.3,2182.524a28.874,28.874,0,1,0-28.874,28.874A28.768,28.768,0,0,0,260.3,2182.524Z" transform="translate(-193.482 -2144.571)" fill="none" stroke="#1d272b" stroke-miterlimit="10" stroke-width="2"/>
            <g id="Grupo_18422" data-name="Grupo 18422" transform="translate(6.702 21.238)">
              <path id="Trazado_40939" data-name="Trazado 40939" d="M265.675,2164.488a37.833,37.833,0,0,1-65.13,37.671,37.713,37.713,0,0,0,65.13-37.671Z" transform="translate(-200.545 -2164.488)" fill="#eceef0"/>
            </g>
          </g>
        </g>
        <g id="lVQ2eC" transform="translate(565.868 810.294)">
          <g id="Grupo_133545" data-name="Grupo 133545" transform="translate(-311.028 -31.991)">
            <path id="Trazado_172383" data-name="Trazado 172383" d="M-301.409-11.078c-.252.189-.425.342-.619.46-.865.525-1.716,1.077-2.611,1.543a4.923,4.923,0,0,0-1.312.98,10.54,10.54,0,0,0-2.395,3.957,1.357,1.357,0,0,1-1.279.969A1.3,1.3,0,0,1-310.9-4a2.4,2.4,0,0,1-.1-.911,5.648,5.648,0,0,1,1.18-2.887c.463-.651.983-1.261,1.5-1.915a2.305,2.305,0,0,0-.244-.026c-.461,0-.923,0-1.384,0a1,1,0,0,1-1.071-1.016,3.975,3.975,0,0,1,0-.511.979.979,0,0,1,1.043-.974c.963,0,1.928-.043,2.889.009a4.859,4.859,0,0,0,3.5-1.272,12.908,12.908,0,0,0,2.117-2.313.5.5,0,0,0,.074-.281c0-.722-.015-1.444-.013-2.166,0-.174-.08-.222-.229-.243-.526-.072-1.05-.19-1.578-.221A5.141,5.141,0,0,1-306-19.907a17.682,17.682,0,0,1-3.485-3.6,1.475,1.475,0,0,0-.183-.237,1.108,1.108,0,0,0-.244-.125c-.04.084-.127.178-.111.25a2.851,2.851,0,0,0,.253.874,10.35,10.35,0,0,0,2.11,2.294c.457.406.937.786,1.417,1.165a.522.522,0,0,1,.23.6.518.518,0,0,1-.539.349,10.085,10.085,0,0,0-3.133.675c-.264.1-.392.236-.35.527a3.922,3.922,0,0,1,0,.52c.148-.031.273-.046.39-.083,1.065-.339,2.111-.762,3.2-1a11.747,11.747,0,0,1,2.423-.113c.591,0,1.181.06,1.772.1a3.549,3.549,0,0,1,.354.058l-.158.945c-.464-.035-.909-.091-1.355-.1a10.854,10.854,0,0,0-3.961.314c-.779.281-1.568.533-2.346.814a.919.919,0,0,1-1.26-.688,6.157,6.157,0,0,1-.008-1.347.852.852,0,0,1,.635-.734c.75-.25,1.507-.477,2.262-.713.082-.026.165-.045.273-.075-.5-.464-.992-.875-1.425-1.342a19.923,19.923,0,0,1-1.375-1.666,2.176,2.176,0,0,1-.4-1.6,1.141,1.141,0,0,1,.827-1,1.129,1.129,0,0,1,1.255.425,18.733,18.733,0,0,0,3.245,3.5c.117.095.241.181.357.276a4.687,4.687,0,0,0,2.719,1c.386.028.769.105,1.2.166v-.355c0-3.461.01-6.922-.009-10.383a1.388,1.388,0,0,1,.858-1.387,3.838,3.838,0,0,1,3.292-.021,1.365,1.365,0,0,1,.9,1.418c-.04.76-.048,1.522-.046,2.284,0,1.472.029,2.944.037,4.415,0,.181.052.265.235.31a66.536,66.536,0,0,0,8.577,1.709c1.222.136,2.462.117,3.695.13a5.421,5.421,0,0,0,1.076-.214c-.084-.12-.134-.2-.193-.275a8.674,8.674,0,0,0-3.178-2.469.888.888,0,0,0-.344-.086c-.511-.009-1.023,0-1.535-.006-.18,0-.25.058-.246.244.01.409,0,.818,0,1.25h-.972c0-.7-.015-1.394.008-2.082a.413.413,0,0,1,.461-.386c.853-.007,1.71-.051,2.556.02a3.12,3.12,0,0,1,1.125.471,9.31,9.31,0,0,1,3.123,2.729c.169.233.317.287.569.17.2-.091.409-.151.661-.241a2.4,2.4,0,0,0-.208-.283c-.828-.815-1.653-1.632-2.492-2.435-.292-.279-.347-.6-.086-.823a.532.532,0,0,1,.589-.057,10.307,10.307,0,0,0,3.255.441v-1.028c-.133-.006-.26-.017-.387-.017l-8.457.006c-.6,0-.725-.12-.725-.718q0-.873,0-1.746v-.325a5.051,5.051,0,0,1-3.054.006v6.292h-1.005c0-.118,0-.226,0-.333.009-1.033.027-2.065.026-3.1,0-1.3-.008-2.6-.03-3.9a1.288,1.288,0,0,1,.711-1.262,3.719,3.719,0,0,1,3.656.014,1.244,1.244,0,0,1,.683,1.213c-.021.852,0,1.705-.01,2.558,0,.251.076.322.324.322q4.048-.012,8.1,0c.836,0,1.216.391,1.193,1.218-.007.26.009.521,0,.781a1,1,0,0,1-1.019,1.006c-.538.008-1.077,0-1.623,0l.163.188c.411.479.817.962,1.237,1.433a.639.639,0,0,0,.332.2,1.031,1.031,0,0,1,.91,1.061q.006.406,0,.813a.952.952,0,0,1-.634.965c-.827.3-1.665.565-2.526.854.045.045.113.119.189.184a13.228,13.228,0,0,1,2.554,2.742,2.491,2.491,0,0,1,.419,1.569,1.182,1.182,0,0,1-.8,1.064,1.2,1.2,0,0,1-1.311-.429c-.642-.788-1.286-1.575-1.968-2.329a10.939,10.939,0,0,0-2.266-1.861,4.615,4.615,0,0,0-1.918-.545c-3.116-.452-6.227-.933-9.292-1.669a.849.849,0,0,0-.139,0c0,.483,0,.967.005,1.451,0,.038.069.1.115.108.957.209,1.915.412,2.891.62l.055-.3h.949a9.457,9.457,0,0,1-.011,1.114c-.035.291-.326.4-.668.319q-1.479-.344-2.959-.682c-.106-.024-.215-.037-.381-.064,0,.294-.015.57.012.841.006.062.154.135.247.158,1.041.258,2.085.5,3.127.759.594.145.654.23.654.846q0,5.026,0,10.052c0,1.2.006,2.4,0,3.6a.431.431,0,0,0,.27.451,2.978,2.978,0,0,0,2.5.013.464.464,0,0,0,.295-.5c-.016-.561-.02-1.124.005-1.685a.781.781,0,0,1,.2-.5,9.117,9.117,0,0,1,5.073-2.555,20.764,20.764,0,0,1,2.254-.059q.888-.012,1.776,0c.195,0,.292-.039.289-.263s-.073-.277-.281-.274c-.712.01-1.425,0-2.137,0-.35,0-.545-.126-.6-.38-.061-.27.067-.465.4-.612a4.63,4.63,0,0,0,2.209-1.74,7.543,7.543,0,0,0,.379-.807c-.377,0-.684-.008-.991.007-.056,0-.131.087-.159.151A3.178,3.178,0,0,1-282-8.783a7.256,7.256,0,0,1-2.384,1.114,12.3,12.3,0,0,0-3.958,1.779c-.041.028-.083.056-.126.083a.484.484,0,0,1-.792-.426c-.008-1,0-2.006,0-3.01q0-2.8,0-5.595c0-.4.008-.8.037-1.2a.3.3,0,0,1,.194-.214,6.651,6.651,0,0,1,.742-.046v9.137c.125-.053.2-.079.275-.119a14.831,14.831,0,0,1,3.544-1.395,5.439,5.439,0,0,0,2.24-1.189,2.453,2.453,0,0,0,.517-.721,1.03,1.03,0,0,1,.961-.647c.341,0,.682-.008,1.023,0a.959.959,0,0,1,.954,1.27,4.146,4.146,0,0,1-1.14,1.915c-.093.091-.189.179-.282.269-.005,0,0,.018-.007.08.164,0,.327,0,.49,0a1,1,0,0,1,1.045,1.041c0,.02,0,.04,0,.06.084,1.025-.395,1.45-1.4,1.413-1.132-.042-2.268-.043-3.4.006a7.386,7.386,0,0,0-3.973,1.569c-.84.6-.836.6-.836,1.627,0,.2-.015.4,0,.6a1.307,1.307,0,0,1-.851,1.387,3.827,3.827,0,0,1-3.372-.02,1.339,1.339,0,0,1-.823-1.379c.021-.359,0-.719.005-1.079.008-.4.043-.8.042-1.2q-.017-5.476-.039-10.951c0-.217-.055-.316-.28-.366-.841-.187-1.678-.4-2.516-.6-.067-.016-.136-.022-.253-.041v.457q0,4.77,0,9.54c0,.651-.039,1.3-.038,1.953,0,.8.02,1.6.043,2.4A1.241,1.241,0,0,1-296.9-.194a3.793,3.793,0,0,1-3.959.017,1.286,1.286,0,0,1-.553-1.105c.009-3.14,0-6.28,0-9.42Zm21.739-10.494c-.119.037-.194.057-.268.083-.557.2-1.107.42-1.673.586a9.612,9.612,0,0,1-2.1.511,23.6,23.6,0,0,1-5.129-.249c-2.7-.44-5.373-1.038-8.024-1.722-.4-.1-.506-.239-.508-.659,0-.632-.005-1.264,0-1.9.011-1.01.036-2.02.04-3.03,0-.414-.037-.829-.058-1.262a4.974,4.974,0,0,1-3.017,0c-.007.109-.015.187-.015.265,0,4.132-.015,8.265.014,12.4a2.492,2.492,0,0,1-.529,1.652,13.4,13.4,0,0,1-2.12,2.235,5.666,5.666,0,0,1-3.924,1.411c-.9-.044-1.805-.009-2.708-.007-.106,0-.213.011-.325.017v.507h.853c.712,0,1.424,0,2.137,0a.489.489,0,0,1,.494.323.478.478,0,0,1-.158.567c-.082.074-.165.146-.245.223a12.4,12.4,0,0,0-2.706,3.467,3.372,3.372,0,0,0-.392,1.59.352.352,0,0,0,.31.383.362.362,0,0,0,.423-.258c.025-.066.048-.132.072-.2a11.444,11.444,0,0,1,3.23-4.783,2.284,2.284,0,0,1,.523-.344,15.673,15.673,0,0,0,3.31-2.005,1.759,1.759,0,0,0,.779-1.132.429.429,0,0,1,.492-.354.452.452,0,0,1,.454.4,2.82,2.82,0,0,1,.016.45q0,5.507,0,11.014c0,.205.022.377.231.474a2.886,2.886,0,0,0,2.607-.017.419.419,0,0,0,.2-.294q.045-1.319.049-2.638c0-.56-.037-1.119-.037-1.679q0-7.4,0-14.806c0-.16-.007-.321,0-.481a.494.494,0,0,1,.657-.495c.234.053.465.124.7.181a85.8,85.8,0,0,0,8.9,1.6,6.847,6.847,0,0,1,3.486,1.319,19.947,19.947,0,0,1,3.457,3.617.874.874,0,0,0,.125.167,1.715,1.715,0,0,0,.243.137c.041-.083.127-.174.114-.247a2.887,2.887,0,0,0-.223-.853,7.343,7.343,0,0,0-1.544-1.821c-.64-.589-1.335-1.12-2.008-1.673a.509.509,0,0,1-.228-.6.531.531,0,0,1,.542-.344,9.343,9.343,0,0,0,3.238-.735c.09-.038.215-.124.224-.2A7.5,7.5,0,0,0-279.67-21.572ZM-298.9-31.063c-.445.132-.881.232-1.292.393-.28.11-.278.279-.01.413a2.827,2.827,0,0,0,2.622,0c.284-.139.281-.311-.019-.427C-298.016-30.839-298.453-30.934-298.9-31.063Zm8.111,0c-.454.132-.892.227-1.305.39-.294.115-.29.289,0,.429a2.84,2.84,0,0,0,2.605-.01c.269-.133.273-.306,0-.416C-289.909-30.834-290.347-30.932-290.793-31.063Z" transform="translate(311.028 31.991)" fill="#1d272b"/>
            <path id="Trazado_172384" data-name="Trazado 172384" d="M50.53,195.448H51.5c0,.275.006.549-.005.822,0,.051-.077.143-.116.142-.256-.009-.512-.033-.767-.068-.035,0-.081-.092-.082-.143C50.525,195.956,50.53,195.71,50.53,195.448Z" transform="translate(-28.765 -181.757)" fill="#1d272b"/>
          </g>
        </g>
      </g>
    </g>
  </g>
</svg>
