<svg xmlns="http://www.w3.org/2000/svg" width="204.214" height="269.487" viewBox="0 0 204.214 269.487">
  <g id="Grupo_134235" data-name="Grupo 134235" transform="translate(-1177.992 -12172.614)">
    <path id="Trazado_173825" data-name="Trazado 173825" d="M-1005.943-268.72l-1.658,5.025h3.15q17.953,0,35.906,0a3.946,3.946,0,0,1,1.961.172c.647.422,1.448,1.244,1.429,1.872-.018.606-.893,1.437-1.574,1.707a7.566,7.566,0,0,1-2.648.118c-12.415,0-24.83.034-37.243-.038-1.685-.01-2.562.426-2.982,2.121-.55,2.217-1.353,4.37-2.158,6.9h3.11q20.072,0,40.143,0c.667,0,1.489-.174,1.964.144.642.43,1.416,1.273,1.393,1.911-.023.612-.9,1.356-1.574,1.728a4.494,4.494,0,0,1-1.976.1c-14.05,0-28.1.037-42.15-.041a2.545,2.545,0,0,0-2.934,2.167c-1.469,4.906-3.112,9.76-4.688,14.634-.137.423-.292.841-.426,1.266-.389,1.232-1.014,2.326-2.506,1.864-1.514-.468-1.649-1.63-1.173-3.063,1.591-4.792,3.106-9.61,4.643-14.42.221-.69.4-1.394.652-2.282-.865-.05-1.511-.119-2.156-.119q-11.263-.01-22.525,0c-4.652.012-7.562,2.278-9.229,6.572a37.237,37.237,0,0,1-4.069,8.127c-5.577,7.848-15.858,7.836-21.428-.012a37.461,37.461,0,0,1-3.995-7.918c-1.858-4.692-4.569-6.768-9.577-6.769q-33.007-.012-66.013-.006a4.789,4.789,0,0,1-1.981-.062c-.8-.41-1.865-1.051-2.047-1.786-.329-1.327.733-1.957,2.022-2.021.668-.033,1.338-.018,2.007-.018q32.784,0,65.568-.007c7.218,0,11.276,2.947,13.82,9.664a29.657,29.657,0,0,0,3.708,7.051c3.793,5.151,10.588,5.211,14.394.044a37.1,37.1,0,0,0,4.272-8.258c2.03-5.072,6.223-8.315,11.709-8.382,8.1-.1,16.2-.173,24.3-.041,2.145.035,3.035-.681,3.5-2.633.494-2.069,1.241-4.077,1.9-6.2-10.7,0-21.167-.409-31.585.145-6.874.365-11.382,4.807-13.886,11.284a29.145,29.145,0,0,1-3.755,6.983,4.44,4.44,0,0,1-7.425,0,23.494,23.494,0,0,1-3.371-6.209c-3.033-8.253-8.734-12.4-17.545-12.409q-32.894-.023-65.788-.008a5.588,5.588,0,0,1-2.2-.1c-.693-.323-1.689-1.142-1.635-1.646.079-.735.9-1.477,1.564-2.022.32-.263,1-.1,1.524-.1q33.452-.008,66.9,0c10.122.013,17.381,5.26,20.774,14.8a23.681,23.681,0,0,0,1.947,4.232c1.133,1.891,2.063,1.875,3.23-.054a22.989,22.989,0,0,0,1.978-4.22c3.334-9.449,10.764-14.765,20.795-14.772,9.054-.007,18.108-.06,27.16.065,2.052.029,3.192-.464,3.554-2.567a31.587,31.587,0,0,1,1.1-3.706c-.552-.257-1-.491-1.47-.681-2.785-1.132-3.427-2.555-2.468-5.431.75-2.248,1.541-4.487,2.165-6.771a2.108,2.108,0,0,0-.48-1.853c-1.887-1.3-1.664-2.858-1.064-4.714q9.257-28.614,18.44-57.253,3.889-12.084,7.793-24.164c.2-.629.36-1.271.612-2.166-1.218-.43-2.369-.857-3.533-1.24-1.254-.413-2.248-1.1-1.833-2.563.467-1.65,1.808-1.547,3.1-1.136,3.89,1.24,7.765,2.523,11.976,3.9l7.577-22.758c-1.622-.541-3.076-1.024-4.529-1.51-1.717-.574-2.754-1.685-2.083-3.527.613-1.685,2.007-1.982,3.666-1.439,4.516,1.479,9.05,2.9,13.564,4.383,1.6.526,2.6,1.56,1.993,3.368-.6,1.772-1.986,2.063-3.614,1.571-1.695-.512-3.373-1.08-5.27-1.692l-7.562,22.764,8.459,2.791a21.473,21.473,0,0,1,4.18,1.472c.675.4.888,1.578,1.309,2.405-.781.393-1.578,1.134-2.339,1.1A17.808,17.808,0,0,1-965-366.12c-1.345,4.16-2.667,8.232-3.979,12.306q-11.566,35.935-23.094,71.882a3.211,3.211,0,0,1-3.114,2.595,2.64,2.64,0,0,0-1.789,1.422c-.83,2.061-1.41,4.221-2.1,6.337-1.088,3.32-2.26,3.972-5.618,3.153C-1005.042-268.509-1005.387-268.588-1005.943-268.72Zm22.64-53.323a17.145,17.145,0,0,1-3.716-1.345c-.708-.461-1.018-1.535-1.5-2.335.895-.437,1.8-1.242,2.683-1.221a14.583,14.583,0,0,1,3.764,1.154l3.854-12.009-3.369-1.148c-1.215-.414-2.312-1.031-1.817-2.535.514-1.56,1.795-1.539,3.134-1.125,1.037.321,2.084.612,3.3.969l3.812-11.926a19.477,19.477,0,0,1-3.969-1.429,2.772,2.772,0,0,1-1.052-2.28c.077-.521,1.265-1.208,1.971-1.224.989-.021,1.975.593,2.992.773.468.083,1.36-.094,1.456-.366,1.074-3.041,2.029-6.123,3.05-9.3l-13.554-4.367a6.827,6.827,0,0,0-.454.844q-13.144,40.821-26.22,81.664a2.985,2.985,0,0,0,.729,2.389c.99,1.091,1.478,2,.908,3.55-1.063,2.9-1.855,5.893-2.81,9.011l7.051,2.261c.989-3,1.975-5.712,2.76-8.482.492-1.737,1.355-2.675,3.236-2.751a2.168,2.168,0,0,0,1.617-1.072c.768-1.979,1.326-4.04,2-6.192-1.325-.443-2.442-.819-3.56-1.191-1.278-.426-2.314-1.282-1.582-2.589a3.408,3.408,0,0,1,2.683-1.075,15.6,15.6,0,0,1,3.7,1.062c1.307-4.063,2.546-7.914,3.835-11.92a16.275,16.275,0,0,1-3.7-1.405c-.73-.507-1.035-1.624-1.529-2.47a8.08,8.08,0,0,1,2.75-1,16.492,16.492,0,0,1,3.737.989Z" transform="translate(2338.354 12576.09)" fill="#1d272b"/>
    <path id="Trazado_173826" data-name="Trazado 173826" d="M-1062.612,195.6h-93.658a4.831,4.831,0,0,1-1.981-.06c-.807-.406-1.882-1.043-2.057-1.771-.316-1.316.753-1.948,2.033-2.032.518-.034,1.04-.017,1.561-.017l187.984-.009c.3,0,.595,0,.892.006,1.445.015,2.843.264,2.768,2.093-.07,1.692-1.4,1.8-2.769,1.8q-15.61-.028-31.219-.012Z" transform="translate(2338.355 12246.42)" fill="#1d272b"/>
    <path id="Trazado_173827" data-name="Trazado 173827" d="M-1062.808,166.807h-93.644c-.595,0-1.19.006-1.784-.01-1.3-.036-2.366-.649-2.06-1.978.166-.724,1.233-1.416,2.048-1.762a6.628,6.628,0,0,1,2.427-.079l187.064-.014c.223,0,.446-.01.669,0,1.421.075,3.081-.019,3.016,2.043-.06,1.915-1.623,1.793-2.978,1.794q-26.31,0-52.619.005Z" transform="translate(2338.347 12262.38)" fill="#1d272b"/>
    <path id="Trazado_173828" data-name="Trazado 173828" d="M-804.534,76.7a8.519,8.519,0,0,1-5.131,7.825,8.42,8.42,0,0,1-9.4-1.131c-2.814-2.3-4.288-5.52-2.906-8.927A140.5,140.5,0,0,1-815.1,60.806c.725-1.346,2.424-1.549,3.133-.234,2.591,4.806,4.909,9.76,7.3,14.676A4.679,4.679,0,0,1-804.534,76.7ZM-813,65.817l-.876-.058c-1.421,3.057-2.96,6.066-4.224,9.186a4.532,4.532,0,0,0,1.794,5.654,4.932,4.932,0,0,0,5.81-.051,4.617,4.617,0,0,0,1.693-5.714C-810.07,71.773-811.588,68.817-813,65.817Z" transform="translate(2151.216 12319.551)" fill="#d93328"/>
    <path id="Trazado_173829" data-name="Trazado 173829" d="M-858.016,32.731c-5.8-.052-10.331-5.468-8.4-10.884,1.7-4.766,4.393-9.195,6.831-13.673a1.882,1.882,0,0,1,3.44.15c2.333,4.287,4.9,8.519,6.6,13.06C-847.388,27.118-851.892,32.785-858.016,32.731Zm.532-19.637-.889,0c-1.469,3.273-3.073,6.495-4.36,9.839-.827,2.15.306,3.941,2.083,5.148a4.7,4.7,0,0,0,5.63-.127c1.689-1.192,2.708-2.984,1.924-5.014C-854.39,19.59-856,16.367-857.483,13.093Z" transform="translate(2175.791 12348.662)" fill="#d93328"/>
    <path id="Trazado_173830" data-name="Trazado 173830" d="M-902.033,85.423c-5.873.017-10.485-5.517-8.5-11.018,1.718-4.759,4.44-9.172,6.893-13.642a1.757,1.757,0,0,1,3.24.088c2.382,4.347,5,8.636,6.753,13.24C-891.535,79.628-896.093,85.407-902.033,85.423Zm.4-19.671-.849-.048c-1.483,3.265-3.107,6.476-4.4,9.815-.826,2.134.263,3.973,2.048,5.173a4.648,4.648,0,0,0,5.623-.075c1.768-1.282,2.751-3.131,1.938-5.227C-898.549,72.109-900.165,68.958-901.635,65.752Z" transform="translate(2200.236 12319.525)" fill="#d93328"/>
    <path id="Trazado_173831" data-name="Trazado 173831" d="M-960.229,33.231c-1.573,1.847-3.034,3.5-4.416,5.208-.885,1.1-1.919,1.524-3.051.619-1.2-.959-.763-2.1.072-3.109,1.836-2.227,3.646-4.478,5.536-6.659,1.378-1.59,2.541-1.564,3.831.049,1.8,2.256,3.549,4.557,5.305,6.85.819,1.069,1.11,2.38-.191,3.028a3.1,3.1,0,0,1-2.771-.676A62.434,62.434,0,0,1-960.229,33.231Z" transform="translate(2232.048 12337.037)" fill="#1d272b"/>
    <path id="Trazado_173832" data-name="Trazado 173832" d="M-954.322,88.782a11.869,11.869,0,0,1,.077-3.313c.222-.733,1.155-1.724,1.782-1.732a2.506,2.506,0,0,1,1.873,1.622,38.993,38.993,0,0,1-.034,7.1c-.056.606-1.212,1.629-1.72,1.549a2.819,2.819,0,0,1-1.881-1.687,13.083,13.083,0,0,1-.083-3.534Z" transform="translate(2224.277 12306.228)" fill="#1d272b"/>
    <path id="Trazado_173833" data-name="Trazado 173833" d="M-954.323,118.786a11.615,11.615,0,0,1,.08-3.307c.224-.726,1.178-1.686,1.817-1.694a2.5,2.5,0,0,1,1.838,1.639,34.474,34.474,0,0,1,0,6.864c-.069.68-1.177,1.254-1.809,1.876-.642-.683-1.59-1.267-1.849-2.072A11.249,11.249,0,0,1-954.323,118.786Z" transform="translate(2224.282 12289.584)" fill="#1d272b"/>
    <path id="Trazado_173834" data-name="Trazado 173834" d="M-950.5,62.494c-.125,1.511.6,3.826-1.9,3.894-2.584.071-1.875-2.272-1.977-3.854a5.4,5.4,0,0,1,.08-2.4,9.459,9.459,0,0,1,1.8-2.1,11.6,11.6,0,0,1,1.941,2.2C-950.253,60.809-950.5,61.674-950.5,62.494Z" transform="translate(2224.315 12320.467)" fill="#1d272b"/>
  </g>
</svg>
