<svg xmlns="http://www.w3.org/2000/svg" width="107.132" height="106.632" viewBox="0 0 107.132 106.632">
  <g id="Grupo_134236" data-name="Grupo 134236" transform="translate(-813.118 -12523.129)">
    <path id="Trazado_173818" data-name="Trazado 173818" d="M-163.068-27.826l7.706-.523V-38.643l-4.487-1.208c2.425-2.275,7.687-2.455,11.514-.187l-4.725,1.358V-28.4l7.922.586c-.536,2.347-1.343,4.27-1.356,6.2-.108,15.9-.039,31.794-.109,47.692-.011,2.314.837,4.975-2.034,6.589-.508.285-.383,1.763-.48,2.7-.273,2.611,1.193,6.147-3.517,6.375-.27.013-.853,1.37-.653,1.653a3.227,3.227,0,0,0,1.989,1.4c2.445.169,4.909.065,7.365.065l.033,1.569-9.273.582V59.4h10.3l-5.53,4.176c-.954-.777-2.415-2.379-2.753-2.169a20.3,20.3,0,0,0-3.57,3.571l-1.259-3.6c-3.578.506-7.8-2.091-10.608,2.732-2.118-4.882-6.269-2.431-9.539-2.725-3.48-.313-7.469-1.166-9.753,3.235V61.334c-10,.29-18.681-4.015-27.835-6.673-6.987-2.029-14.474-2.488-21.782-3.212-4.515-.448-9.11-.083-14.5-.083,1-1.081,1.24-1.574,1.487-1.578,13.53-.182,27.148-1.411,40.016,4.584,8.846,4.121,18.253,5.53,28.015,5.22,8.187-.261,16.388-.053,24.9-.053V46.852c-3.211,0-6.31,0-9.41,0-6.714.01-13.468.478-20.133-.092-6.49-.554-13.324-1.107-19.234-3.541a82.463,82.463,0,0,0-36.9-6.3c-2.319.137-4.657-.015-6.982-.105-.33-.013-.644-.436-1.247-.873.712-.375,1.227-.879,1.751-.889,14.4-.294,28.611-.3,42.363,5.716,6.313,2.76,13.744,3.481,20.751,4,8.721.646,17.53.168,26.3.053,1.009-.013,2.007-.812,3.011-1.246-.714-.763-1.408-1.547-2.148-2.284-.462-.46-1.326-.777-1.438-1.284-.983-4.446-2.524-8.908-2.606-13.389-.3-16.3-.059-32.615-.137-48.923C-161.654-23.914-162.449-25.516-163.068-27.826Zm3.262,1.93a79.63,79.63,0,0,1-.054,8.368c-.451,4.133.443,6.86,5.3,6.591.068,0,.16.425.3.826-1.427,1.639-7.193-1.428-5.049,4.431l5.678.74c-1.7,2.626-7.971-.775-5.663,5.171l5.289.782-.06,1.158-5.329.616c-1.908,5.654,3.931,2.7,5.644,5.175l-5.674.85c-2,5.851,4.252,2.419,5.263,4.924-1.7,1.642-7.232-1.153-5.2,4.487l5.308.781-.058,1.166-5.307.569c-1.949,5.862,4.191,2.443,5.469,5.356l-6.011.7c.308,1.227.49,2.21.8,3.148.559,1.675,1.635,3.3,1.719,4.987.261,5.19.823,5.652,6.255,3.977.23-2.556-.48-6.024.911-7.471,2.139-2.225,1.835-4.371,1.844-6.689.058-15.34.037-30.681.041-46.021,0-1.463,0-2.926,0-4.62Z" transform="translate(1063.125 12564.78)" fill="#1d272b"/>
    <path id="Trazado_173819" data-name="Trazado 173819" d="M-243.148,24.157a65.545,65.545,0,0,1,7.32,1.165c2.641.714,4.008-.028,4.962-2.581,1.02-2.733,2.481-5.3,3.75-7.942l1.451.585-4.348,10.158,19.678,12.04,2.88-2.354.786.514-2.17,4.167c5.795,4.42,11.986,8.029,19.359,9.143,4.92.744,8.855-1.442,10.325-5.474.9-2.479.666-4.146-2.386-4.78a47.574,47.574,0,0,1-7.021-2.271c-3.419-1.291-5.909-3.268-5.888-7.469,0-1.037-1.162-2.33-2.122-3.084-6.674-5.247-13.581-10.206-20.119-15.614a24.712,24.712,0,0,0-15.45-5.7c-2.94-.114-5.869-.526-8.862-.808a6.462,6.462,0,0,1,.271-1.184c8.778-.171,17.234-.051,24.875,5.846,11.466,8.848,23.52,16.932,35.338,25.321,3.329,2.363,4.2,5.626,3.434,9.407-.819,4.06-4.444,7.6-8.656,7.525-3.885-.073-8.109-.467-11.542-2.082-5.516-2.595-11.185-5.589-15.568-9.712-7.9-7.429-17.144-11.016-27.481-12.7-1.019-.167-2.018-.454-3.026-.685Zm62.012,12.961.5-1.009-12.326-7.227C-190.61,35.666-185.133,35.186-181.136,37.119Z" transform="translate(1061.946 12556.926)" fill="#1d272b"/>
    <path id="Trazado_173820" data-name="Trazado 173820" d="M-212.574,66.429l-9.93-1.638.234-1.565,9.995,1.456Z" transform="translate(1058.247 12546.178)" fill="#b42218"/>
    <path id="Trazado_173821" data-name="Trazado 173821" d="M-191.528,72.143l9.671,2.371L-182.216,76l-9.973-2.263Z" transform="translate(1052.87 12544.596)" fill="#b42218"/>
    <path id="Trazado_173822" data-name="Trazado 173822" d="M-191.157,66.548l9.065,2.01-.284,1.459L-191.5,68.3Z" transform="translate(1052.747 12545.588)" fill="#b42218"/>
    <path id="Trazado_173823" data-name="Trazado 173823" d="M-149.953,76.585h-9.93l0-.914h9.956Z" transform="translate(1047.14 12543.97)" fill="#b42218"/>
    <path id="Trazado_173824" data-name="Trazado 173824" d="M-202.919,63.808l-8.629-3.024.5-1.506,8.7,2.861Z" transform="translate(1056.303 12546.878)" fill="#b42218"/>
  </g>
</svg>
