<svg xmlns="http://www.w3.org/2000/svg" xmlns:xlink="http://www.w3.org/1999/xlink" width="105.911" height="105.91" viewBox="0 0 105.911 105.91">
  <defs>
    <radialGradient id="radial-gradient" cx="0.076" cy="0.019" r="1.465" gradientTransform="translate(0.001)" gradientUnits="objectBoundingBox">
      <stop offset="0" stop-color="#f6f6f7"/>
      <stop offset="0.477" stop-color="#f9f9fa"/>
      <stop offset="0.715" stop-color="#fff"/>
    </radialGradient>
  </defs>
  <g id="Grupo_134244" data-name="Grupo 134244" transform="translate(-602.178 -16016)">
    <path id="Trazado_40936" data-name="Trazado 40936" d="M300.533,2198.675a52.955,52.955,0,1,1-52.954-52.954A52.954,52.954,0,0,1,300.533,2198.675Z" transform="translate(407.555 13870.279)" fill="#fff"/>
    <path id="Trazado_40937" data-name="Trazado 40937" d="M300.034,2198.131a52.954,52.954,0,1,0-52.954,52.956A52.746,52.746,0,0,0,300.034,2198.131Z" transform="translate(408.054 13870.822)" fill="url(#radial-gradient)"/>
    <path id="Trazado_40938" data-name="Trazado 40938" d="M283.1,2193.749a40.42,40.42,0,1,0-40.42,40.42A40.269,40.269,0,0,0,283.1,2193.749Z" transform="translate(412.617 13875.381)" fill="none" stroke="#1d272b" stroke-miterlimit="10" stroke-width="4"/>
    <path id="Trazado_40939" data-name="Trazado 40939" d="M291.719,2164.488a52.962,52.962,0,0,1-91.174,52.736,52.793,52.793,0,0,0,91.174-52.736Z" transform="translate(411.015 13881.242)" fill="#eceef0"/>
    <path id="Trazado_173838" data-name="Trazado 173838" d="M-1196.5-163.488c0,1.892.008,3.617,0,5.342-.011,1.783-1.075,2.969-2.635,2.96a2.668,2.668,0,0,1-2.6-2.9c-.024-1.754-.005-3.509-.005-5.281a11.219,11.219,0,0,1-1.53.424,2.392,2.392,0,0,1-2.542-1.291,2.451,2.451,0,0,1,.269-2.859c1.549-1.655,3.148-3.268,4.811-4.808a2.5,2.5,0,0,1,3.5.2c1.464,1.408,2.9,2.85,4.313,4.305a2.682,2.682,0,0,1,.36,3.431,2.662,2.662,0,0,1-3.364.773C-1196.08-163.261-1196.22-163.344-1196.5-163.488Z" transform="translate(1854.831 16221.256)" fill="#1d272b"/>
    <path id="Trazado_173839" data-name="Trazado 173839" d="M-1266.428-98.609c1.939,0,3.764-.019,5.589.007a2.6,2.6,0,0,1,2.481,1.632,2.139,2.139,0,0,1-.452,2.619,4.236,4.236,0,0,1-2.23.944c-1.747.137-3.511.043-5.371.043.154.353.289.61.382.881a2.651,2.651,0,0,1-.945,3.071,2.613,2.613,0,0,1-3.2-.219c-1.572-1.49-3.115-3.016-4.6-4.593a2.575,2.575,0,0,1,.182-3.734q2.05-2.115,4.165-4.167a2.715,2.715,0,0,1,3.514-.385,2.664,2.664,0,0,1,.674,3.462C-1266.278-98.957-1266.315-98.866-1266.428-98.609Z" transform="translate(1910.036 16165.893)" fill="#1d272b"/>
    <path id="Trazado_173840" data-name="Trazado 173840" d="M-1201.675-41.755c0-1.88-.01-3.67,0-5.46a2.661,2.661,0,0,1,1.639-2.581,2.146,2.146,0,0,1,2.619.449,3.939,3.939,0,0,1,.939,2.127c.133,1.783.043,3.582.043,5.424a10.952,10.952,0,0,1,1.459-.436,2.463,2.463,0,0,1,2.593,1.2,2.586,2.586,0,0,1-.234,2.945c-1.56,1.645-3.156,3.259-4.811,4.808a2.413,2.413,0,0,1-3.262-.014c-1.632-1.523-3.209-3.11-4.744-4.731a2.6,2.6,0,0,1-.156-3.2,2.606,2.606,0,0,1,2.99-.913C-1202.314-42.043-1202.049-41.911-1201.675-41.755Z" transform="translate(1854.761 16123.743)" fill="#1d272b"/>
    <path id="Trazado_173841" data-name="Trazado 173841" d="M-1144.589-93.4c-1.845,0-3.569.009-5.294,0a2.688,2.688,0,0,1-2.978-2.626c0-1.538,1.209-2.6,2.993-2.618,1.659-.015,3.318-.008,4.976-.014a1.166,1.166,0,0,0,.242-.065c-.124-.31-.268-.607-.364-.919a2.6,2.6,0,0,1,1-2.96,2.617,2.617,0,0,1,3.12.181c1.619,1.538,3.207,3.113,4.734,4.743a2.457,2.457,0,0,1-.021,3.347c-1.506,1.6-3.07,3.154-4.661,4.673a2.613,2.613,0,0,1-3.2.207,2.614,2.614,0,0,1-.928-3.069C-1144.883-92.769-1144.76-93.007-1144.589-93.4Z" transform="translate(1812.406 16165.927)" fill="#1d272b"/>
  </g>
</svg>
