<svg xmlns="http://www.w3.org/2000/svg" xmlns:xlink="http://www.w3.org/1999/xlink" width="105.911" height="105.91" viewBox="0 0 105.911 105.91">
  <defs>
    <radialGradient id="radial-gradient" cx="0.076" cy="0.019" r="1.465" gradientTransform="translate(0.001)" gradientUnits="objectBoundingBox">
      <stop offset="0" stop-color="#f6f6f7"/>
      <stop offset="0.477" stop-color="#f9f9fa"/>
      <stop offset="0.715" stop-color="#fff"/>
    </radialGradient>
  </defs>
  <g id="Grupo_134245" data-name="Grupo 134245" transform="translate(-890.178 -16016)">
    <path id="Trazado_40936" data-name="Trazado 40936" d="M300.533,2198.675a52.955,52.955,0,1,1-52.954-52.954A52.954,52.954,0,0,1,300.533,2198.675Z" transform="translate(695.555 13870.279)" fill="#fff"/>
    <path id="Trazado_40937" data-name="Trazado 40937" d="M300.034,2198.131a52.954,52.954,0,1,0-52.954,52.956A52.746,52.746,0,0,0,300.034,2198.131Z" transform="translate(696.054 13870.822)" fill="url(#radial-gradient)"/>
    <path id="Trazado_40938" data-name="Trazado 40938" d="M283.1,2193.749a40.42,40.42,0,1,0-40.42,40.42A40.269,40.269,0,0,0,283.1,2193.749Z" transform="translate(700.617 13875.381)" fill="none" stroke="#1d272b" stroke-miterlimit="10" stroke-width="4"/>
    <path id="Trazado_40939" data-name="Trazado 40939" d="M291.719,2164.488a52.962,52.962,0,0,1-91.174,52.736,52.793,52.793,0,0,0,91.174-52.736Z" transform="translate(699.015 13881.242)" fill="#eceef0"/>
    <path id="Trazado_173842" data-name="Trazado 173842" d="M-1982.522-352.224h2.124a2.386,2.386,0,0,0,.259.043,20.693,20.693,0,0,1,5.181.948,21.533,21.533,0,0,1,11.441,8.5,21.159,21.159,0,0,1,3.641,9.851c.048.438.09.877.135,1.316v2.124c-.015.094-.032.188-.045.282-.137,1.035-.2,2.085-.421,3.1a21.337,21.337,0,0,1-7.353,12.23,21.23,21.23,0,0,1-11.523,4.906c-.438.049-.877.09-1.316.135h-2.124a2.368,2.368,0,0,0-.259-.043,21.01,21.01,0,0,1-5.159-.941,21.373,21.373,0,0,1-9.085-5.6,21.4,21.4,0,0,1-6.02-12.761c-.05-.438-.09-.876-.134-1.314v-2.124c.015-.086.035-.171.043-.258.038-.424.06-.851.113-1.273a21.249,21.249,0,0,1,5.425-11.926,21.352,21.352,0,0,1,13.785-7.068C-1983.384-352.142-1982.953-352.18-1982.522-352.224Zm19.477,21.7a18.4,18.4,0,0,0-18.468-18.395,18.432,18.432,0,0,0-18.369,18.452,18.444,18.444,0,0,0,18.5,18.376A18.417,18.417,0,0,0-1963.045-330.523Z" transform="translate(2926.321 16399.506)" fill="#1d272b"/>
    <path id="Trazado_173843" data-name="Trazado 173843" d="M-1877.874-223.694l1.3.727-1.2,2.162-1.338-.738a14.006,14.006,0,0,0-1.329,5.8,14.191,14.191,0,0,0,1.345,6.229l1.281-.742,1.253,2.132-2.64,1.673a15.793,15.793,0,0,1,2.042-20.58,15.794,15.794,0,0,1,22.007.117,15.81,15.81,0,0,1,1.878,20.5l-2.638-1.559,1.2-2.165,1.313.717a14,14,0,0,0,1.366-5.1,14.047,14.047,0,0,0-1.313-7.042l-1.321.768-1.254-2.134,1.356-.794a14.33,14.33,0,0,0-10.357-6v1.557h-2.485v-1.556a13.657,13.657,0,0,0-3.5.749c.044.078.074.139.111.2q2.8,4.235,5.61,8.467a.563.563,0,0,0,.294.214,4.926,4.926,0,0,1,3.581,5.549,4.885,4.885,0,0,1-5.143,4.1,4.679,4.679,0,0,1-4.119-2.763,4.737,4.737,0,0,1,.363-4.907.734.734,0,0,0,.119-.517q-.31-2.95-.611-5.9c-.148-1.439-.294-2.878-.446-4.362A14.345,14.345,0,0,0-1877.874-223.694Zm14.2,8.374a2.475,2.475,0,0,0-2.449-2.494,2.479,2.479,0,0,0-2.5,2.443,2.48,2.48,0,0,0,2.462,2.508A2.476,2.476,0,0,0-1863.673-215.32Z" transform="translate(2811.073 16284.55)" fill="#1d272b"/>
  </g>
</svg>
