<svg xmlns="http://www.w3.org/2000/svg" xmlns:xlink="http://www.w3.org/1999/xlink" width="126.927" height="126.928" viewBox="0 0 126.927 126.928">
  <defs>
    <radialGradient id="radial-gradient" cx="0.076" cy="0.019" r="1.465" gradientTransform="translate(0.001)" gradientUnits="objectBoundingBox">
      <stop offset="0" stop-color="#f6f6f7"/>
      <stop offset="0.477" stop-color="#f9f9fa"/>
      <stop offset="0.715" stop-color="#fff"/>
    </radialGradient>
  </defs>
  <g id="Grupo_88463" data-name="Grupo 88463" transform="translate(-217 -741.333)">
    <g id="Grupo_42274" data-name="Grupo 42274" transform="translate(217 741.333)">
      <g id="Grupo_18423" data-name="Grupo 18423" transform="translate(0 0)">
        <g id="Grupo_18421" data-name="Grupo 18421">
          <g id="Grupo_18420" data-name="Grupo 18420">
            <g id="Grupo_18419" data-name="Grupo 18419">
              <path id="Trazado_40936" data-name="Trazado 40936" d="M321.55,2209.183a63.464,63.464,0,1,1-63.463-63.462A63.463,63.463,0,0,1,321.55,2209.183Z" transform="translate(-194.623 -2145.721)" fill="#fff"/>
            </g>
          </g>
        </g>
        <path id="Trazado_40937" data-name="Trazado 40937" d="M320.783,2208.346a63.462,63.462,0,1,0-63.463,63.465A63.213,63.213,0,0,0,320.783,2208.346Z" transform="translate(-193.856 -2144.885)" fill="url(#radial-gradient)"/>
        <path id="Trazado_40938" data-name="Trazado 40938" d="M298.935,2201.548a48.442,48.442,0,1,0-48.441,48.441A48.262,48.262,0,0,0,298.935,2201.548Z" transform="translate(-186.837 -2137.874)" fill="none" stroke="#1d272b" stroke-miterlimit="10" stroke-width="4"/>
        <g id="Grupo_18422" data-name="Grupo 18422" transform="translate(11.243 35.63)">
          <path id="Trazado_40939" data-name="Trazado 40939" d="M309.812,2164.488a63.471,63.471,0,0,1-109.267,63.2,63.27,63.27,0,0,0,109.267-63.2Z" transform="translate(-200.545 -2164.488)" fill="#eceef0"/>
        </g>
      </g>
    </g>
    <g id="lVQ2eC" transform="translate(563.426 808.641)">
      <g id="Grupo_133545" data-name="Grupo 133545" transform="translate(-311.028 -31.991)">
        <path id="Trazado_172383" data-name="Trazado 172383" d="M-294.241,4.507c-.44.329-.742.6-1.081.8-1.509.916-2.994,1.879-4.557,2.693a8.591,8.591,0,0,0-2.289,1.71,18.4,18.4,0,0,0-4.179,6.905,2.369,2.369,0,0,1-2.232,1.691,2.268,2.268,0,0,1-2.224-1.454,4.194,4.194,0,0,1-.172-1.589,9.857,9.857,0,0,1,2.06-5.038c.808-1.136,1.716-2.2,2.615-3.342a4.023,4.023,0,0,0-.425-.046c-.805,0-1.611,0-2.416,0a1.746,1.746,0,0,1-1.869-1.773A6.947,6.947,0,0,1-311,4.172a1.709,1.709,0,0,1,1.821-1.7c1.681-.009,3.366-.075,5.042.015a8.48,8.48,0,0,0,6.1-2.22,22.523,22.523,0,0,0,3.7-4.036.88.88,0,0,0,.129-.491c0-1.26-.026-2.52-.022-3.78,0-.3-.139-.388-.4-.424-.919-.126-1.832-.332-2.754-.386a8.972,8.972,0,0,1-4.857-2.052,30.857,30.857,0,0,1-6.082-6.276,2.573,2.573,0,0,0-.32-.414,1.933,1.933,0,0,0-.426-.218c-.07.147-.222.311-.194.437a4.976,4.976,0,0,0,.442,1.526,18.064,18.064,0,0,0,3.682,4c.8.708,1.636,1.371,2.473,2.033a.911.911,0,0,1,.4,1.046.9.9,0,0,1-.941.609,17.6,17.6,0,0,0-5.468,1.179c-.462.177-.684.412-.611.92a6.838,6.838,0,0,1,.007.908c.259-.054.476-.08.681-.145,1.858-.592,3.684-1.329,5.581-1.74a20.5,20.5,0,0,1,4.229-.2c1.031,0,2.062.1,3.092.171a6.191,6.191,0,0,1,.618.1l-.277,1.649c-.81-.061-1.586-.158-2.365-.171-2.32-.037-4.656-.266-6.913.548-1.359.49-2.736.93-4.095,1.421a1.6,1.6,0,0,1-2.2-1.2,10.746,10.746,0,0,1-.014-2.351,1.487,1.487,0,0,1,1.107-1.281c1.309-.436,2.63-.833,3.947-1.245.142-.045.288-.079.477-.131-.868-.809-1.731-1.527-2.487-2.343a34.765,34.765,0,0,1-2.4-2.908A3.8,3.8,0,0,1-311-17.762a1.991,1.991,0,0,1,1.443-1.752,1.97,1.97,0,0,1,2.19.741,32.693,32.693,0,0,0,5.664,6.1c.2.165.42.315.624.481a8.179,8.179,0,0,0,4.746,1.745c.674.049,1.343.183,2.089.29v-.62c0-6.04.018-12.081-.016-18.121a2.422,2.422,0,0,1,1.5-2.42,6.7,6.7,0,0,1,5.745-.037,2.382,2.382,0,0,1,1.575,2.475c-.07,1.326-.084,2.657-.08,3.986.008,2.569.051,5.137.065,7.706,0,.315.09.463.409.542a116.12,116.12,0,0,0,14.969,2.983c2.132.237,4.3.2,6.448.227a9.462,9.462,0,0,0,1.878-.374c-.147-.21-.234-.351-.338-.48a15.138,15.138,0,0,0-5.546-4.31,1.55,1.55,0,0,0-.6-.151c-.893-.016-1.786,0-2.679-.011-.314,0-.437.1-.429.425.018.714.005,1.428.005,2.181h-1.7c0-1.23-.026-2.433.014-3.634a.721.721,0,0,1,.8-.674c1.488-.011,2.984-.09,4.461.035a5.444,5.444,0,0,1,1.963.822,16.248,16.248,0,0,1,5.45,4.763c.295.406.554.5.992.3.344-.16.715-.263,1.154-.42a4.189,4.189,0,0,0-.363-.493c-1.444-1.422-2.884-2.849-4.349-4.25-.509-.487-.606-1.041-.151-1.436a.929.929,0,0,1,1.027-.1,17.988,17.988,0,0,0,5.681.77V-22.27c-.232-.011-.454-.03-.676-.029q-7.38,0-14.76.01c-1.054,0-1.265-.21-1.266-1.253q0-1.523,0-3.046v-.568a8.816,8.816,0,0,1-5.33.01v10.981h-1.754c0-.206,0-.394,0-.582.016-1.8.047-3.6.045-5.406,0-2.27-.013-4.54-.052-6.809a2.248,2.248,0,0,1,1.24-2.2,6.491,6.491,0,0,1,6.38.024,2.171,2.171,0,0,1,1.193,2.117c-.036,1.487.006,2.976-.018,4.464-.007.438.132.562.566.561q7.065-.021,14.13-.009c1.458,0,2.122.683,2.083,2.126-.012.454.016.909,0,1.363a1.741,1.741,0,0,1-1.778,1.756c-.939.014-1.879,0-2.832,0,.071.081.178.2.285.328.717.836,1.425,1.679,2.158,2.5a1.116,1.116,0,0,0,.58.345,1.8,1.8,0,0,1,1.589,1.852q.01.709,0,1.418a1.661,1.661,0,0,1-1.106,1.685c-1.443.521-2.906.986-4.409,1.491.079.078.2.207.329.322a23.084,23.084,0,0,1,4.457,4.786,4.348,4.348,0,0,1,.732,2.738A2.062,2.062,0,0,1-255.955.563a2.086,2.086,0,0,1-2.288-.749c-1.121-1.375-2.245-2.749-3.435-4.064A19.093,19.093,0,0,0-265.633-7.5a8.055,8.055,0,0,0-3.348-.951c-5.438-.789-10.867-1.629-16.217-2.914a1.481,1.481,0,0,0-.243,0c0,.843,0,1.688.009,2.533,0,.066.121.171.2.189,1.67.364,3.342.719,5.046,1.082l.1-.523h1.655a16.505,16.505,0,0,1-.018,1.944c-.06.507-.568.7-1.166.557q-2.581-.6-5.164-1.191c-.186-.043-.376-.064-.665-.112,0,.514-.027.994.02,1.468.011.107.268.235.431.275,1.817.45,3.639.879,5.458,1.324,1.036.254,1.142.4,1.142,1.477q0,8.772,0,17.544c0,2.1.01,4.192-.005,6.289a.752.752,0,0,0,.471.787,5.2,5.2,0,0,0,4.372.023.81.81,0,0,0,.514-.873c-.028-.98-.035-1.962.009-2.94a1.364,1.364,0,0,1,.354-.872,15.912,15.912,0,0,1,8.853-4.459,36.238,36.238,0,0,1,3.933-.1q1.549-.02,3.1,0c.34,0,.509-.068.5-.46,0-.369-.127-.484-.49-.478-1.243.017-2.486.009-3.729.006-.611,0-.951-.219-1.051-.662-.106-.471.117-.812.7-1.068A8.08,8.08,0,0,0-257,7.356a13.164,13.164,0,0,0,.662-1.409c-.657,0-1.194-.014-1.729.012-.1,0-.229.152-.277.263a5.547,5.547,0,0,1-2.029,2.29,12.664,12.664,0,0,1-4.161,1.945,21.472,21.472,0,0,0-6.907,3.1c-.072.049-.145.1-.219.144a.845.845,0,0,1-1.383-.744c-.015-1.751-.005-3.5-.006-5.253q0-4.882,0-9.764c0-.7.013-1.4.064-2.1a.531.531,0,0,1,.338-.374,11.607,11.607,0,0,1,1.295-.08V11.341c.218-.093.356-.137.48-.207A25.882,25.882,0,0,1-264.686,8.7a9.493,9.493,0,0,0,3.909-2.075,4.281,4.281,0,0,0,.9-1.258,1.8,1.8,0,0,1,1.677-1.13c.6,0,1.191-.014,1.786,0a1.673,1.673,0,0,1,1.664,2.216,7.236,7.236,0,0,1-1.99,3.342c-.163.158-.329.313-.493.47-.009.008,0,.032-.012.139.287,0,.571,0,.856,0a1.746,1.746,0,0,1,1.824,1.817c0,.035,0,.07,0,.105.146,1.789-.689,2.53-2.451,2.465-1.976-.073-3.959-.075-5.934.01a12.891,12.891,0,0,0-6.934,2.738c-1.465,1.044-1.458,1.054-1.458,2.84,0,.35-.026.7.006,1.05a2.282,2.282,0,0,1-1.485,2.42,6.678,6.678,0,0,1-5.886-.035,2.336,2.336,0,0,1-1.436-2.408c.036-.626,0-1.256.009-1.883.015-.7.076-1.4.074-2.093q-.03-9.556-.069-19.112c0-.378-.1-.551-.489-.638-1.469-.326-2.928-.694-4.391-1.044-.117-.028-.237-.039-.442-.072v.8q0,8.324,0,16.649c0,1.136-.068,2.272-.066,3.408,0,1.4.035,2.791.076,4.186a2.166,2.166,0,0,1-.93,1.894,6.62,6.62,0,0,1-6.909.029,2.245,2.245,0,0,1-.966-1.929c.016-5.48.008-10.96.008-16.441Zm37.94-18.315c-.208.064-.339.1-.467.145-.973.343-1.932.732-2.921,1.022a16.776,16.776,0,0,1-3.659.892,41.184,41.184,0,0,1-8.951-.435c-4.719-.769-9.377-1.812-14-3.006-.693-.179-.883-.418-.886-1.151-.005-1.1-.009-2.206,0-3.309.018-1.763.063-3.526.07-5.289,0-.723-.065-1.446-.1-2.2a8.68,8.68,0,0,1-5.265,0c-.011.19-.027.326-.027.462,0,7.212-.027,14.424.025,21.635a4.349,4.349,0,0,1-.923,2.884,23.38,23.38,0,0,1-3.7,3.9A9.889,9.889,0,0,1-303.956,4.2c-1.572-.077-3.15-.015-4.726-.013-.186,0-.371.019-.568.03v.885h1.488c1.243,0,2.486,0,3.729,0a.853.853,0,0,1,.862.564.834.834,0,0,1-.275.989c-.143.129-.288.255-.427.388A21.641,21.641,0,0,0-308.6,13.1a5.884,5.884,0,0,0-.684,2.775.615.615,0,0,0,.541.669.632.632,0,0,0,.737-.45c.043-.115.085-.23.126-.345A19.972,19.972,0,0,1-302.239,7.4a3.985,3.985,0,0,1,.912-.6,27.353,27.353,0,0,0,5.776-3.5,3.07,3.07,0,0,0,1.359-1.975.749.749,0,0,1,.859-.618.789.789,0,0,1,.792.706,4.915,4.915,0,0,1,.027.786q0,9.611,0,19.222c0,.358.038.659.4.827a5.036,5.036,0,0,0,4.549-.03.731.731,0,0,0,.357-.513q.079-2.3.086-4.6c0-.977-.065-1.953-.065-2.93q-.008-12.92,0-25.839c0-.28-.012-.561,0-.84a.863.863,0,0,1,1.146-.863c.409.093.811.216,1.219.315a149.739,149.739,0,0,0,15.541,2.793,11.949,11.949,0,0,1,6.084,2.3,34.812,34.812,0,0,1,6.033,6.312,1.524,1.524,0,0,0,.219.292,2.993,2.993,0,0,0,.424.239c.071-.144.222-.3.2-.43a5.035,5.035,0,0,0-.389-1.488A12.815,12.815,0,0,0-259.4-6.217c-1.117-1.029-2.33-1.954-3.505-2.919a.889.889,0,0,1-.4-1.045.927.927,0,0,1,.945-.6,16.3,16.3,0,0,0,5.652-1.284c.157-.067.376-.217.39-.347A13.069,13.069,0,0,0-256.3-13.808Zm-33.568-16.564c-.777.23-1.537.4-2.255.686-.488.192-.485.488-.017.72a4.934,4.934,0,0,0,4.575.008c.495-.243.491-.542-.034-.745C-288.318-29.981-289.081-30.146-289.869-30.372Zm14.155,0c-.792.23-1.557.4-2.278.68-.514.2-.506.5,0,.749a4.956,4.956,0,0,0,4.547-.017c.469-.232.477-.535-.008-.727C-274.17-29.972-274.935-30.142-275.714-30.372Z" transform="translate(311.028 31.991)" fill="#1d272b"/>
        <path id="Trazado_172384" data-name="Trazado 172384" d="M50.531,195.448h1.7c0,.481.011.958-.01,1.435,0,.089-.135.25-.2.248-.447-.016-.894-.058-1.338-.118-.06-.008-.141-.161-.144-.25C50.523,196.334,50.531,195.906,50.531,195.448Z" transform="translate(-12.546 -171.555)" fill="#1d272b"/>
      </g>
    </g>
  </g>
</svg>
