<svg xmlns="http://www.w3.org/2000/svg" xmlns:xlink="http://www.w3.org/1999/xlink" width="222.94" height="222.945" viewBox="0 0 222.94 222.945">
  <defs>
    <radialGradient id="radial-gradient" cx="0.076" cy="0.019" r="1.465" gradientTransform="translate(0)" gradientUnits="objectBoundingBox">
      <stop offset="0" stop-color="#f6f6f7"/>
      <stop offset="0.477" stop-color="#f9f9fa"/>
      <stop offset="0.715" stop-color="#fff"/>
    </radialGradient>
  </defs>
  <g id="Grupo_134248" data-name="Grupo 134248" transform="translate(-390.969 -18470.742)">
    <g id="Grupo_18420" data-name="Grupo 18420" transform="translate(390.969 18470.742)">
      <g id="Grupo_18419" data-name="Grupo 18419">
        <path id="Trazado_40936" data-name="Trazado 40936" d="M417.562,2257.189a111.47,111.47,0,1,1-111.468-111.468A111.468,111.468,0,0,1,417.562,2257.189Z" transform="translate(-194.623 -2145.721)" fill="#fff"/>
      </g>
    </g>
    <path id="Trazado_40937" data-name="Trazado 40937" d="M415.569,2255.017A111.467,111.467,0,1,0,304.1,2366.492,111.031,111.031,0,0,0,415.569,2255.017Z" transform="translate(198.34 16327.195)" fill="url(#radial-gradient)"/>
    <path id="Trazado_40938" data-name="Trazado 40938" d="M389.579,2246.181a94.349,94.349,0,1,0-94.349,94.35A94.011,94.011,0,0,0,389.579,2246.181Z" transform="translate(207.429 16336.273)" fill="none" stroke="#008f85" stroke-miterlimit="10" stroke-width="5"/>
    <path id="Trazado_40939" data-name="Trazado 40939" d="M392.465,2164.488A111.483,111.483,0,0,1,200.545,2275.5a111.8,111.8,0,0,0,11.094,14.849,111.485,111.485,0,0,0,180.826-125.859Z" transform="translate(210.172 16368.838)" fill="#eceef0"/>
    <path id="Trazado_173856" data-name="Trazado 173856" d="M-2640.683,199.111c2.1,6.119,6.552,7.516,12.264,6.184-1.384,3.781-2.8,7.325-3.973,10.949a49.538,49.538,0,0,0-2.3,11.575c1.092-1.012,1.9-1.761,2.7-2.5,5.173-4.75,10.219-9.649,15.551-14.215a41.735,41.735,0,0,1,29.417-10.334,41.559,41.559,0,0,1,25.327,9.473c4.592,3.707,8.983,7.662,13.545,11.407,1.993,1.636,4.181,3.034,6.294,4.521.41.288.884.487,1.63.89a66.864,66.864,0,0,0-6.508-21.794c5.947,1.3,10.461.038,12.537-6.139l.333.144c.574,1.207,1.2,2.392,1.711,3.627.9,2.191,1.676,4.433,2.612,6.607a3.457,3.457,0,0,0,1.409,1.631c2.945,1.523,5.952,2.926,8.934,4.377.379.184.743.4,1.214.656l-4.285,8.856-3.679-1.7c0,2.235,0,4.415,0,6.595,0,2.441.161,4.893-.014,7.321a41.129,41.129,0,0,1-2.847,13.317c-.793,1.856-.422,2.875,1.018,4.118,2.57,2.219,4.945,4.665,7.583,7.19l-7.482,6.572-7.016-6.66c-.318.346-.582.6-.813.89a45.528,45.528,0,0,1-13.653,11.306,3.494,3.494,0,0,1-2.064.324,13.472,13.472,0,0,1-3.219-.908c-3.419-1.449-4.726-4.139-3.86-7.741a7.016,7.016,0,0,1,3.423-4.838,28.849,28.849,0,0,0,13.652-17.629,2.1,2.1,0,0,0,0-1.254c-.315.363-.634.723-.944,1.09-5.144,6.116-10.839,11.584-18.081,15.2-10.571,5.273-21.756,6.661-33.345,4.965a68.529,68.529,0,0,1-38.913-19.6c-.246-.242-.487-.488-.739-.724a2.41,2.41,0,0,0-.464-.2c.134.543.213.962.341,1.364a29.094,29.094,0,0,0,13.6,16.917,6.045,6.045,0,0,1,2.918,3.688c1.457,4.565-.316,7.9-4.911,9.3a5.676,5.676,0,0,1-5.1-.584,49.028,49.028,0,0,1-12.578-10.819c-.184-.229-.4-.431-.695-.742l-7.243,6.872-7.281-6.758c2.643-2.532,5.054-4.989,7.635-7.254a3.035,3.035,0,0,0,1.012-4c-3.23-8.483-3.575-17.307-2.6-26.237.037-.334.06-.67.11-1.236l-4.072,1.868-4.3-8.89c1.466-.725,2.839-1.414,4.22-2.086,1.975-.962,3.943-1.938,5.939-2.855a2.63,2.63,0,0,0,1.473-1.631c1.3-3.452,2.7-6.866,4.06-10.294Zm66.409,40.953c-1.8-6.129-6.354-8.182-11.858-8.968.134-.952.246-1.75.38-2.7.847.135,1.6.221,2.347.378,5.692,1.2,9.9,4.24,11.622,9.974a3.133,3.133,0,0,0,2.8,2.562c3.672.7,7.306,1.587,11.065,2.424.334-3.7-1.552-5.932-4.5-7.547l1.252-2.371a9.978,9.978,0,0,1,6.058,9.4c.024.888.259,1.294,1.144,1.5a40.946,40.946,0,0,1,3.953,1.2,1.523,1.523,0,0,0,1.916-.481c2.154-2.518,4.408-4.95,6.543-7.483a7.229,7.229,0,0,0,1.57-2.75,12.892,12.892,0,0,0,.18-3.851,2.18,2.18,0,0,0-.9-1.466c-1.916-1.231-4.007-2.207-5.844-3.538-2.577-1.868-4.991-3.963-7.464-5.973-4.212-3.422-8.128-7.3-12.676-10.2-14.2-9.029-28.8-9.162-43.14-.362-4.4,2.7-8.166,6.451-12.106,9.854-3.258,2.814-6.345,5.825-9.507,8.751-.474.439-.945.883-1.4,1.339-.41.408-.8.837-1.2,1.257a9.436,9.436,0,0,1,8.891.348,5.477,5.477,0,0,0,5.9-.133c1.913-1.222,3.779-2.528,5.761-3.627a1.607,1.607,0,0,0,.91-2.127c-.814-3.7.349-6.759,3.268-9.3l1.811,2.052a6.61,6.61,0,0,0-2.226,7.238c.511-.243.893-.413,1.264-.6,2.681-1.382,5.336-2.819,8.051-4.129a2.163,2.163,0,0,0,1.4-2.261,13.374,13.374,0,0,1,9.963-12.542l.833,2.089a62.277,62.277,0,0,0-5.49,4.059,8.573,8.573,0,0,0-2.516,6.411l7.269-3.689,1.242,2.375-2.282,1.376a2.511,2.511,0,0,0,.479.279c.5.113,1.01.225,1.521.3a18.628,18.628,0,0,0,10.094-1.527c.373-.154,1.1-.16,1.28.068a10.251,10.251,0,0,1,1.017,2.093l-6.667,2.214c2.066,1.117,4.1.783,6.174.518.187.938.349,1.757.509,2.56-2.993.894-6.461.9-8.193-.792-2.026-1.973-4.4-2.379-6.891-2.859-.713-.137-1.378-.541-2.091-.646a3.628,3.628,0,0,0-1.91.144c-1.611.719-3.16,1.578-4.725,2.4-1.052.55-2.091,1.126-3.278,1.767a8.312,8.312,0,0,0,5.163,2.193c1.98.2,1.983.19,1.994,2.166a5.757,5.757,0,0,1-.064.589,11.514,11.514,0,0,1-8.981-2.823,1.373,1.373,0,0,0-1.905-.229c-3.825,2.222-7.739,4.3-11.5,6.614a7.6,7.6,0,0,1-8.189.186,6.549,6.549,0,0,0-6.5-.163c-2.288,1.083-3.276,2.39-1.122,4.5,3.436,3.37,7.025,6.586,10.605,9.8.312.28,1.066.209,1.569.1a2.775,2.775,0,0,0,1.328-.764,1.945,1.945,0,0,0,.5-1.234,26.856,26.856,0,0,1-.2-3.451,8.122,8.122,0,0,1,4.079-6.141l1.284,2.3c-2.385,1.912-3.276,4.5-2.237,6.53l7.75-4.492,1.36,2.4-3.322,2.013c.882.542,1.525,1.233,2.239,1.315a43.635,43.635,0,0,0,4.9.056l1.118,2.037a8.3,8.3,0,0,1-.72.44,8.465,8.465,0,0,1-9.124-1.641c-.323-.3-.985-.676-1.237-.542-1.959,1.04-3.855,2.2-5.884,3.385.406.311.627.514.878.668,12.871,7.9,26.727,11.6,41.848,9.6a45.643,45.643,0,0,0,24.961-11.246,11.965,11.965,0,0,0,.858-1c-3.72-.882-7.184-1.726-10.666-2.489-.3-.066-.8.336-1.072.639-.751.824-1.347,1.806-2.161,2.555a12.331,12.331,0,0,1-6.813,3.258c-.789-2.408-.787-2.4,1.318-3.169a9.4,9.4,0,0,0,5.093-3.935c-.19-.134-.284-.248-.4-.274-3.4-.769-6.8-1.551-10.219-2.264a2.238,2.238,0,0,0-1.275.372c-2.062,1.057-4.115,2.13-6.15,3.238a2.679,2.679,0,0,0-1.09.958,10.392,10.392,0,0,1-10.162,5.431V250c2.343-.424,4.808-.555,6.619-2.607l-8.141-.551.642-2.85c5.333.966,10.309.634,15.23-2.406l-3.485-.868.571-2.671Zm46.916,24.818,3.1-2.946c-.288-.308-.506-.565-.749-.8-2.394-2.3-4.776-4.608-7.2-6.873a1.358,1.358,0,0,1-.37-1.783,41.71,41.71,0,0,0,2.3-6.57,70.844,70.844,0,0,0,1.613-10.676,83.176,83.176,0,0,0-.371-10.662c-.146-2.043-.615-4.063-.978-6.336l6.428,3.066,1.893-3.9c-2.739-1.328-5.338-2.67-8.008-3.847a3.925,3.925,0,0,1-2.466-2.833c-.5-1.887-1.31-3.693-1.978-5.51a30.44,30.44,0,0,1-3.733,2.336,28.722,28.722,0,0,1-4.1,1.165,3.378,3.378,0,0,0,.114.611,68.806,68.806,0,0,1,4.67,21.607c.558,12.915-3.6,23.483-14.339,31.107-.261.185-.494.41-.847.705,2.888,1.619,4.145,4.061,4.058,7.48a42.517,42.517,0,0,0,13.146-12.77Zm-95.121-2.372a3.6,3.6,0,0,1-.475-.233,32,32,0,0,1-14.39-23.576,40.887,40.887,0,0,1-.062-11.666c.77-4.616,1.919-9.172,3.006-13.73a50.387,50.387,0,0,1,1.665-4.8,11.365,11.365,0,0,1-7.928-3.5c-.826,2.32-1.605,4.37-2.272,6.456a2.61,2.61,0,0,1-1.522,1.742c-2.882,1.341-5.724,2.765-8.72,4.226l1.917,3.867,6.412-3.035c-.1.649-.153,1.067-.225,1.482a54.413,54.413,0,0,0-1.013,6.1c-.188,3.366-.206,6.752-.095,10.123a43.857,43.857,0,0,0,3.308,15.194c.974,2.389.969,2.39-.877,4.152l-6.875,6.561,3.181,2.954,7.781-7.367a42.087,42.087,0,0,0,13.009,12.68C-2626,265.934-2626,265.934-2622.479,262.51Zm-.881,8.816c3.411-.406,5.6-2.7,3.448-6.454C-2623.026,265.592-2624.418,268.139-2623.36,271.326Zm71.682.142c1.388-2.544-.2-6.079-2.831-6.54a.874.874,0,0,0-.716.3,3.805,3.805,0,0,0,1.326,5.338C-2553.223,270.916-2552.482,271.145-2551.678,271.468Z" transform="translate(3091.75 18347.889)" fill="#1d272b"/>
  </g>
</svg>
