<svg xmlns="http://www.w3.org/2000/svg" xmlns:xlink="http://www.w3.org/1999/xlink" width="126.927" height="126.927" viewBox="0 0 126.927 126.927">
  <defs>
    <radialGradient id="radial-gradient" cx="0.076" cy="0.019" r="1.465" gradientTransform="translate(0.001)" gradientUnits="objectBoundingBox">
      <stop offset="0" stop-color="#f6f6f7"/>
      <stop offset="0.477" stop-color="#f9f9fa"/>
      <stop offset="0.715" stop-color="#fff"/>
    </radialGradient>
  </defs>
  <g id="Grupo_134220" data-name="Grupo 134220" transform="translate(-237.422 -3502.109)">
    <g id="Grupo_18419" data-name="Grupo 18419" transform="translate(237.422 3502.109)">
      <path id="Trazado_40936" data-name="Trazado 40936" d="M321.55,2209.183a63.464,63.464,0,1,1-63.463-63.462A63.463,63.463,0,0,1,321.55,2209.183Z" transform="translate(-194.623 -2145.721)" fill="#fff"/>
    </g>
    <path id="Trazado_40937" data-name="Trazado 40937" d="M320.783,2208.346a63.462,63.462,0,1,0-63.463,63.465A63.213,63.213,0,0,0,320.783,2208.346Z" transform="translate(43.566 1357.225)" fill="url(#radial-gradient)"/>
    <path id="Trazado_40938" data-name="Trazado 40938" d="M298.935,2201.548a48.442,48.442,0,1,0-48.441,48.441A48.262,48.262,0,0,0,298.935,2201.548Z" transform="translate(50.584 1364.235)" fill="none" stroke="#d93328" stroke-miterlimit="10" stroke-width="4"/>
    <path id="Trazado_40939" data-name="Trazado 40939" d="M309.812,2164.488a63.471,63.471,0,0,1-109.267,63.2,63.27,63.27,0,0,0,109.267-63.2Z" transform="translate(48.12 1373.251)" fill="#eceef0"/>
    <path id="Trazado_172382" data-name="Trazado 172382" d="M-116.807,150.753c.578,2.1,1.157,4.2,1.729,6.283,2.284-.4,4.652-.872,7.038-1.221,1.38-.2,2.744.035,2.8,1.8.051,1.613-1.21,1.805-2.515,2-2.165.323-4.3.828-6.587,1.283.73,2.145,1.816,3.306,3.706,3.652,1.291.237,2.18.951,1.837,2.37s-1.486,1.618-2.735,1.367a7.674,7.674,0,0,1-6-5.019,38.836,38.836,0,0,1-1.8-7.695c-.5-3.457-2.856-4.973-6.139-3.947a69.677,69.677,0,0,1-7.06,1.458c0,3.659-.206,7.509.06,11.326.243,3.489.969,6.947,1.535,10.41.439,2.679-.536,4.475-2.787,4.949-2.163.455-3.9-.9-4.478-3.55a90.323,90.323,0,0,1-1.657-26.951c.93-11,2.436-21.955,1.8-33.041a3.67,3.67,0,0,1,3.5-4.1,3.691,3.691,0,0,1,3.842,3.794c.125,3.86.034,7.728.034,11.592l.525.426a32.8,32.8,0,0,0,3.75-2.879c1.934-1.961,3.921-2.368,5.631-.875s1.731,3.608,0,5.727a15.7,15.7,0,0,1-8.652,5.285,2.187,2.187,0,0,0-1.933,2.325c-.272,3.706-.666,7.4-1.011,11.085,3.925.811,7.06-.494,8.847-3.714,1.041-1.876,1.9-3.851,2.882-5.763,1.225-2.393,2.639-4.575,5.347-5.627.54-.21.907-1.163,1.129-1.847,1.129-3.477,2.937-6.222,6.881-6.86,1.328-.215,2.579-.1,2.869,1.453.294,1.574-.786,2.076-2.17,2.278-2.006.292-3.066,1.618-3.6,3.592,1.578,0,3.047.02,4.514-.006,1.307-.023,2.582.091,2.664,1.75.08,1.619-1.084,1.945-2.44,2.037-1.857.126-3.7.412-5.559.526-3.97.243-5.845,2.741-6.924,6.145l.438.593c.96-.707,1.926-1.405,2.876-2.124a28.214,28.214,0,0,1,4.228-3.1,2.829,2.829,0,0,1,2.547,1.01c.634,1.025-.039,1.995-1.267,2.467a13.911,13.911,0,0,0-1.978,1.144l.047.589a27.7,27.7,0,0,1,4.451.608c.844.248,1.5,1.137,2.241,1.738-.7.658-1.416,1.888-2.105,1.874-2.625-.052-5.242-.5-8.052-.829a5.945,5.945,0,0,0,4.105,3.945c1.317.377,2.351.968,1.9,2.523-.458,1.58-1.877,1.65-2.985,1.1a60.648,60.648,0,0,1-5.354-3.325c-.612-1.26-1.226-2.519-1.9-3.9l-1.91.8ZM-130.934,129.5l-.79-.65c0-4.066.05-8.132-.019-12.2-.041-2.4-1.092-3.548-2.866-3.435-1.691.108-2.362,1.284-2.469,3.6-.448,9.659-.761,19.332-1.537,28.966-.817,10.143-.824,20.192,1.421,30.162.5,2.227,1.6,3.135,3.3,2.809,1.65-.316,2.325-1.7,1.951-3.9a76.824,76.824,0,0,1-1.4-8.91c-.237-4.676-.063-9.373-.063-14.167,1.366-.071,2.659-.041,3.92-.229a18.647,18.647,0,0,0,3.952-.947,5.184,5.184,0,0,1,7.09,4.13,53.372,53.372,0,0,0,1.578,7.539,6.689,6.689,0,0,0,5.241,4.882c.538.1,1.178-.332,1.772-.52-.416-.385-.776-1-1.259-1.118-2.533-.642-3.722-2.4-4.523-5.243,2.7-.6,5.254-1.128,7.784-1.758a6.112,6.112,0,0,0,1.575-.971,7.562,7.562,0,0,0-1.767-.725,5.254,5.254,0,0,0-1.912.2c-1.991.475-3.971,1-6.3,1.6-.132-4.509-.825-8.685-6.016-10.55A7.122,7.122,0,0,1-119,146.109c.511-.081,1.4,1.032,1.817,1.774,1.3,2.324,2.882,4.318,5.51,5.139a5.825,5.825,0,0,0,2.118-.178c-.464-.468-.846-1.148-1.407-1.367-2.688-1.05-4.2-3.028-5.163-6.078,1.483.119,2.664.173,3.834.317,1.772.219,3.531.574,5.308.71.489.037,1.021-.5,1.533-.774a5.657,5.657,0,0,0-1.575-.91c-1.846-.363-3.719-.59-5.581-.869l-.275-.771c1.044-.859,2.113-1.691,3.121-2.591a8.347,8.347,0,0,0,.994-1.3c-.569-.1-1.291-.457-1.679-.235-1.094.626-2.522,1.283-2.973,2.3-1.288,2.915-3.725,2.448-6.065,2.744.939-5.016,3.483-7.713,8.117-8.548,1.828-.329,3.71-.348,5.545-.646a6.319,6.319,0,0,0,1.787-.952,5.162,5.162,0,0,0-1.775-.724c-1.886.014-3.772.2-5.9.342.781-3.1,1.822-5.469,5.088-6.013.435-.073.792-.612,1.185-.935a4.478,4.478,0,0,0-1.5-.72,4.215,4.215,0,0,0-1.857.449c-2.681,1.19-3.767,3.549-4.542,6.181a3.053,3.053,0,0,1-1.307,1.9,8.427,8.427,0,0,0-4.587,4.308c-1.068,2.027-2,4.128-3.074,6.152-2.244,4.222-6.121,5.9-11.193,4.772.4-4.23.881-8.485,1.181-12.753.1-1.451.534-2.127,2.018-2.453a14.985,14.985,0,0,0,8.864-5.3c1.22-1.545,1.184-3.254-.142-4.167-1.493-1.028-2.674-.492-3.977.684A57.625,57.625,0,0,1-130.934,129.5Z" transform="translate(426.642 3419.58)"/>
  </g>
</svg>
