<?xml version="1.0" encoding="utf-8"?>
<!-- Generator: Adobe Illustrator 26.0.1, SVG Export Plug-In . SVG Version: 6.00 Build 0)  -->
<svg version="1.1" id="Layer_1" xmlns="http://www.w3.org/2000/svg" xmlns:xlink="http://www.w3.org/1999/xlink" x="0px" y="0px"
	 viewBox="0 0 223.2 102" style="enable-background:new 0 0 223.2 102;" xml:space="preserve">
<style type="text/css">
	.st0{enable-background:new    ;}
	.st1{fill:#FFFFFF;}
	.st2{fill:#B42218;}
</style>
<g id="Grupo_134224" transform="translate(-225.65 -5582.608)">
	<g id="Grupo_133803" transform="translate(177.656 5444.523)">
		<g class="st0">
			<path class="st1" d="M122.3,156.4h-7v4.8h8.3v2.9h-11.9v-17.8h11.9v3h-8.2v4.2h7V156.4z"/>
			<path class="st1" d="M129.3,161.1h7.8v2.9h-11.4v-17.8h3.7V161.1z"/>
			<path class="st1" d="M159.3,158.2c-0.1,1.9-0.8,3.4-2.1,4.5c-1.3,1.1-3,1.6-5,1.6c-2.3,0-4.1-0.8-5.4-2.3c-1.3-1.5-2-3.6-2-6.3
				v-1.1c0-1.7,0.3-3.2,0.9-4.5c0.6-1.3,1.5-2.3,2.6-3c1.1-0.7,2.4-1,3.9-1c2.1,0,3.7,0.5,5,1.6c1.3,1.1,2,2.6,2.2,4.6h-3.7
				c-0.1-1.1-0.4-2-1-2.5c-0.5-0.5-1.4-0.8-2.5-0.8c-1.2,0-2.1,0.4-2.7,1.3c-0.6,0.9-0.9,2.2-0.9,4.1v1.3c0,1.9,0.3,3.3,0.9,4.2
				c0.6,0.9,1.5,1.3,2.8,1.3c1.1,0,2-0.3,2.5-0.8c0.6-0.5,0.9-1.3,1-2.4H159.3z"/>
			<path class="st1" d="M171.8,160.4h-6.4l-1.2,3.7h-3.9l6.6-17.8h3.4l6.7,17.8H173L171.8,160.4z M166.4,157.5h4.4l-2.2-6.7
				L166.4,157.5z"/>
			<path class="st1" d="M182.9,154.3l3.7-8h4l-5.8,11.3v6.4H181v-6.4l-5.8-11.3h4L182.9,154.3z"/>
			<path class="st1" d="M200.4,160.4H194l-1.2,3.7h-3.9l6.6-17.8h3.4l6.7,17.8h-3.9L200.4,160.4z M195,157.5h4.4l-2.2-6.7L195,157.5
				z"/>
			<path class="st1" d="M207.2,164.1v-17.8h5.5c1.6,0,3,0.4,4.2,1.1c1.2,0.7,2.2,1.7,2.9,3c0.7,1.3,1,2.8,1,4.4v0.8
				c0,1.7-0.3,3.1-1,4.4c-0.7,1.3-1.6,2.3-2.9,3s-2.6,1.1-4.2,1.1H207.2z M210.8,149.3v11.9h1.8c1.4,0,2.5-0.5,3.3-1.4
				s1.1-2.3,1.2-4v-0.9c0-1.8-0.4-3.2-1.1-4.1c-0.7-0.9-1.8-1.4-3.3-1.4H210.8z"/>
			<path class="st1" d="M238,155.6c0,1.8-0.3,3.3-0.9,4.6c-0.6,1.3-1.5,2.3-2.7,3.1s-2.5,1.1-4,1.1c-1.5,0-2.8-0.4-3.9-1.1
				c-1.2-0.7-2.1-1.7-2.7-3c-0.6-1.3-1-2.8-1-4.5v-0.9c0-1.7,0.3-3.3,0.9-4.6c0.6-1.3,1.5-2.4,2.7-3.1s2.5-1.1,3.9-1.1
				c1.5,0,2.8,0.4,3.9,1.1c1.2,0.7,2,1.7,2.7,3.1c0.6,1.3,0.9,2.9,0.9,4.6V155.6z M234.3,154.8c0-1.9-0.3-3.3-1-4.2
				c-0.7-1-1.6-1.5-2.9-1.5c-1.2,0-2.2,0.5-2.8,1.4s-1,2.4-1,4.2v0.9c0,1.8,0.3,3.2,1,4.2c0.7,1,1.6,1.5,2.9,1.5
				c1.2,0,2.2-0.5,2.8-1.4c0.7-1,1-2.4,1-4.2V154.8z"/>
		</g>
		<g class="st0">
			<path class="st1" d="M61.8,222.1c-0.1,1.5-0.7,2.7-1.7,3.6s-2.4,1.3-4,1.3c-1.8,0-3.3-0.6-4.3-1.8s-1.6-2.9-1.6-5.1v-0.9
				c0-1.4,0.2-2.6,0.7-3.6s1.2-1.8,2.1-2.4s1.9-0.8,3.1-0.8c1.6,0,3,0.4,4,1.3s1.6,2.1,1.7,3.7h-2.9c-0.1-0.9-0.3-1.6-0.8-2
				s-1.1-0.6-2-0.6c-1,0-1.7,0.3-2.2,1s-0.7,1.8-0.7,3.3v1.1c0,1.5,0.2,2.7,0.7,3.4s1.2,1.1,2.2,1.1c0.9,0,1.6-0.2,2-0.6
				s0.7-1.1,0.8-1.9H61.8z"/>
			<path class="st1" d="M75.4,220.1c0,1.4-0.2,2.6-0.7,3.7s-1.2,1.9-2.1,2.4s-2,0.9-3.2,0.9c-1.2,0-2.2-0.3-3.2-0.8
				s-1.6-1.4-2.1-2.4s-0.8-2.3-0.8-3.6v-0.7c0-1.4,0.3-2.6,0.8-3.7s1.2-1.9,2.1-2.5s2-0.9,3.2-0.9s2.2,0.3,3.2,0.9s1.6,1.4,2.1,2.5
				s0.8,2.3,0.8,3.7V220.1z M72.4,219.4c0-1.5-0.3-2.6-0.8-3.4s-1.3-1.2-2.3-1.2c-1,0-1.7,0.4-2.3,1.1s-0.8,1.9-0.8,3.4v0.7
				c0,1.5,0.3,2.6,0.8,3.4s1.3,1.2,2.3,1.2c1,0,1.7-0.4,2.3-1.2s0.8-1.9,0.8-3.4V219.4z"/>
			<path class="st1" d="M89.1,226.9h-2.9l-5.7-9.4v9.4h-2.9v-14.2h2.9l5.7,9.4v-9.4h2.9V226.9z"/>
			<path class="st1" d="M102,215h-4.4v11.8h-2.9V215h-4.3v-2.4H102V215z"/>
			<path class="st1" d="M106.8,226.9h-2.9v-14.2h2.9V226.9z"/>
			<path class="st1" d="M118.1,220.7h-5.6v3.8h6.6v2.4h-9.5v-14.2h9.5v2.4h-6.6v3.4h5.6V220.7z"/>
			<path class="st1" d="M132.4,226.9h-2.9l-5.7-9.4v9.4h-2.9v-14.2h2.9l5.7,9.4v-9.4h2.9V226.9z"/>
			<path class="st1" d="M143.5,220.7h-5.6v3.8h6.6v2.4h-9.5v-14.2h9.5v2.4h-6.6v3.4h5.6V220.7z"/>
			<path class="st1" d="M159.2,223.9H154l-1,2.9h-3.1l5.3-14.2h2.7l5.3,14.2h-3.1L159.2,223.9z M154.8,221.6h3.6l-1.8-5.3
				L154.8,221.6z"/>
			<path class="st1" d="M169.9,221.7h-2.3v5.2h-2.9v-14.2h5.3c1.7,0,3,0.4,3.9,1.1c0.9,0.7,1.4,1.8,1.4,3.2c0,1-0.2,1.8-0.6,2.4
				s-1.1,1.2-1.9,1.5l3.1,5.8v0.1h-3.1L169.9,221.7z M167.5,219.3h2.4c0.7,0,1.3-0.2,1.7-0.6c0.4-0.4,0.6-0.9,0.6-1.5
				c0-0.7-0.2-1.2-0.6-1.6s-1-0.6-1.8-0.6h-2.4V219.3z"/>
			<path class="st1" d="M187.6,215h-4.4v11.8h-2.9V215H176v-2.4h11.6V215z"/>
			<path class="st1" d="M197.8,220.7h-5.6v3.8h6.6v2.4h-9.5v-14.2h9.5v2.4h-6.6v3.4h5.6V220.7z"/>
			<path class="st1" d="M205.8,221.7h-2.3v5.2h-2.9v-14.2h5.3c1.7,0,3,0.4,3.9,1.1c0.9,0.7,1.4,1.8,1.4,3.2c0,1-0.2,1.8-0.6,2.4
				s-1.1,1.2-1.9,1.5l3.1,5.8v0.1h-3.1L205.8,221.7z M203.4,219.3h2.4c0.7,0,1.3-0.2,1.7-0.6c0.4-0.4,0.6-0.9,0.6-1.5
				c0-0.7-0.2-1.2-0.6-1.6s-1-0.6-1.8-0.6h-2.4V219.3z"/>
			<path class="st1" d="M216.4,226.9h-2.9v-14.2h2.9V226.9z"/>
			<path class="st1" d="M227.3,223.9h-5.1l-1,2.9h-3.1l5.3-14.2h2.7l5.3,14.2h-3.1L227.3,223.9z M223,221.6h3.6l-1.8-5.3L223,221.6z
				"/>
			<path class="st1" d="M240.1,223.1c0-0.6-0.2-1-0.6-1.3s-1.1-0.6-2.1-0.9s-1.8-0.7-2.4-1c-1.6-0.9-2.4-2-2.4-3.5
				c0-0.8,0.2-1.5,0.6-2.1c0.4-0.6,1.1-1.1,1.9-1.4s1.7-0.5,2.7-0.5c1,0,1.9,0.2,2.7,0.6c0.8,0.4,1.4,0.9,1.9,1.6s0.7,1.4,0.7,2.3
				h-2.9c0-0.7-0.2-1.2-0.6-1.5s-1-0.5-1.7-0.5c-0.7,0-1.3,0.2-1.7,0.5c-0.4,0.3-0.6,0.7-0.6,1.2c0,0.5,0.2,0.8,0.7,1.2
				c0.5,0.3,1.2,0.6,2.1,0.9c1.7,0.5,2.9,1.1,3.6,1.9s1.1,1.7,1.1,2.8c0,1.2-0.5,2.2-1.4,2.9c-0.9,0.7-2.2,1-3.8,1
				c-1.1,0-2.1-0.2-3-0.6s-1.6-0.9-2.1-1.6c-0.5-0.7-0.7-1.5-0.7-2.4h2.9c0,1.6,0.9,2.4,2.8,2.4c0.7,0,1.2-0.1,1.6-0.4
				S240.1,223.6,240.1,223.1z"/>
		</g>
		<g class="st0">
			<path class="st2" d="M72,197.3H60l-2.3,6.9h-7.3l12.4-33.4h6.4l12.5,33.4h-7.3L72,197.3z M61.8,191.7h8.4L66,179.2L61.8,191.7z"
				/>
			<path class="st2" d="M111.8,188.3c0,3.3-0.6,6.2-1.7,8.7c-1.2,2.5-2.8,4.4-5,5.7c-2.2,1.3-4.6,2-7.4,2c-2.8,0-5.2-0.7-7.4-2
				c-2.2-1.3-3.9-3.2-5-5.7s-1.8-5.3-1.8-8.5v-1.7c0-3.3,0.6-6.2,1.8-8.7c1.2-2.5,2.9-4.4,5-5.8c2.2-1.3,4.6-2,7.4-2
				c2.8,0,5.3,0.7,7.4,2c2.2,1.3,3.8,3.3,5,5.8c1.2,2.5,1.8,5.4,1.8,8.7V188.3z M104.8,186.7c0-3.5-0.6-6.2-1.9-8
				c-1.3-1.8-3-2.7-5.4-2.7c-2.3,0-4.1,0.9-5.3,2.7c-1.3,1.8-1.9,4.4-1.9,7.9v1.6c0,3.4,0.6,6.1,1.9,7.9c1.3,1.9,3.1,2.8,5.4,2.8
				c2.3,0,4.1-0.9,5.3-2.7c1.2-1.8,1.9-4.5,1.9-7.9V186.7z M98.9,161.8h7.2l-6.4,7.1h-5.4L98.9,161.8z"/>
			<path class="st2" d="M129.1,192h-5.5v12.2h-6.9v-33.4h12.4c3.9,0,7,0.9,9.1,2.6c2.1,1.8,3.2,4.2,3.2,7.5c0,2.3-0.5,4.2-1.5,5.7
				c-1,1.5-2.5,2.7-4.5,3.6l7.2,13.7v0.3h-7.4L129.1,192z M123.6,186.4h5.6c1.7,0,3.1-0.4,4-1.3c0.9-0.9,1.4-2.1,1.4-3.6
				c0-1.6-0.4-2.8-1.3-3.7c-0.9-0.9-2.3-1.4-4.1-1.4h-5.5V186.4z"/>
			<path class="st2" d="M170.8,176.4h-10.2v27.8h-6.9v-27.8h-10.1v-5.6h27.2V176.4z"/>
			<path class="st2" d="M182,204.2h-6.9v-33.4h6.9V204.2z"/>
			<path class="st2" d="M214.6,193.1c-0.3,3.6-1.6,6.4-4,8.5c-2.4,2.1-5.6,3.1-9.5,3.1c-4.3,0-7.7-1.4-10.1-4.3
				c-2.5-2.9-3.7-6.8-3.7-11.9v-2c0-3.2,0.6-6,1.7-8.5c1.1-2.4,2.8-4.3,4.9-5.6c2.1-1.3,4.5-2,7.3-2c3.9,0,7,1,9.3,3.1
				c2.4,2.1,3.7,5,4.1,8.7h-6.9c-0.2-2.2-0.8-3.7-1.8-4.7c-1-1-2.6-1.5-4.7-1.5c-2.3,0-4,0.8-5.2,2.5c-1.1,1.6-1.7,4.2-1.8,7.7v2.5
				c0,3.6,0.5,6.2,1.6,7.9c1.1,1.7,2.8,2.5,5.2,2.5c2.1,0,3.7-0.5,4.8-1.5c1-1,1.6-2.5,1.8-4.5H214.6z"/>
			<path class="st2" d="M246.6,188.3c0,3.3-0.6,6.2-1.7,8.7c-1.2,2.5-2.8,4.4-5,5.7c-2.2,1.3-4.6,2-7.4,2c-2.8,0-5.2-0.7-7.4-2
				c-2.2-1.3-3.9-3.2-5-5.7s-1.8-5.3-1.8-8.5v-1.7c0-3.3,0.6-6.2,1.8-8.7c1.2-2.5,2.9-4.4,5-5.8c2.2-1.3,4.6-2,7.4-2
				c2.8,0,5.3,0.7,7.4,2c2.2,1.3,3.8,3.3,5,5.8c1.2,2.5,1.8,5.4,1.8,8.7V188.3z M239.6,186.7c0-3.5-0.6-6.2-1.9-8
				c-1.3-1.8-3-2.7-5.4-2.7c-2.3,0-4.1,0.9-5.3,2.7c-1.3,1.8-1.9,4.4-1.9,7.9v1.6c0,3.4,0.6,6.1,1.9,7.9c1.3,1.9,3.1,2.8,5.4,2.8
				c2.3,0,4.1-0.9,5.3-2.7c1.2-1.8,1.9-4.5,1.9-7.9V186.7z"/>
		</g>
	</g>
	<g id="Grupo_133804" transform="translate(410.516 5293.771)">
		<rect id="Rectángulo_36458" x="-184.9" y="388.3" class="st1" width="223.2" height="2.5"/>
	</g>
</g>
</svg>
