<svg xmlns="http://www.w3.org/2000/svg" width="95.773" height="128.626" viewBox="0 0 95.773 128.626">
  <g id="Grupo_134249" data-name="Grupo 134249" transform="translate(-704.227 -3896.968)">
    <g id="Grupo_134248" data-name="Grupo 134248">
      <path id="Trazado_165193" data-name="Trazado 165193" d="M2542.623-308.969c.027-.416.078-.831.078-1.247q.006-20.655,0-41.31c0-.4-.038-.792-.071-1.456l-1.544,1.9-16.241-10.837c.416-.689.775-1.29,1.139-1.888,2.175-3.568,4.383-7.118,6.521-10.708,3.808-6.391,9.54-9.363,16.836-9.527,3.344-.075,6.692-.006,10.038-.016,1.85-.006,2.581-.739,2.609-2.565a1.191,1.191,0,0,1,0-.125,13.913,13.913,0,0,0-2.5-9.788,93.122,93.122,0,0,1-5.04-8.809,8.5,8.5,0,0,1-.978-3.671,103.792,103.792,0,0,1,.244-11.907,19.084,19.084,0,0,1,15.436-16.368,19.261,19.261,0,0,1,21.812,12.748,35.436,35.436,0,0,1,1.056,5.391,6.427,6.427,0,0,1,.033,1.128c0,2.888.481,5.89-.153,8.632s-2.383,5.206-3.653,7.788a44.828,44.828,0,0,1-2.549,5.021c-2.074,3.138-2.471,6.554-2.2,10.168.117,1.588.812,2.332,2.443,2.359,4.263.071,8.55-.125,12.785.257a17.663,17.663,0,0,1,13.912,8.711c2.475,3.973,4.873,7.993,7.3,11.994.213.351.407.713.678,1.192l-16.3,10.877-1.333-1.848a3.22,3.22,0,0,0-.194.718q-.011,21.346,0,42.693a2.862,2.862,0,0,0,.084.49h-4.519c.014-.5.04-1,.04-1.5q0-26.3,0-52.606v-1.565h4.5c-.812,3.14.817,5.352,2.665,7.59l9.232-6.166c-2.019-3.32-3.944-6.5-5.885-9.669a11.848,11.848,0,0,0-1.147-1.638,14.965,14.965,0,0,0-11.892-5.164c-3.678.011-7.362.042-11.033-.14a5.959,5.959,0,0,1-5.551-5.516c-.142-1.639-.025-3.3-.025-4.943h-4.23v15.1c1.443.191,2.82.276,4.153.565,8.984,1.948,14.926,9.45,15,19.056.068,9.038.09,18.077-.008,27.114-.092,8.583-4.109,14.7-12.014,18.131a37.439,37.439,0,0,1-4.643,1.358h-9.791a1.743,1.743,0,0,0-.427-.224c-8.122-1.674-13.337-6.443-15.474-14.511a1.718,1.718,0,0,0-.481-.955c-1.27-.848-2.589-1.621-4.025-2.5a23.954,23.954,0,0,0,7.605,14.434l-3.085,3.174-4.7-5.485v6.071Zm47.219-28.936c-.652.254-1.194.445-1.719.673-3.585,1.556-7.221,2.839-11.231,2.655-1.151-.053-1.761.717-1.913,1.9-.577,4.475-2.987,6.629-7.442,6.575a4.643,4.643,0,0,0-3.937,1.418,2.088,2.088,0,0,1-3.036.1,2.187,2.187,0,0,1,.026-3.149,6.919,6.919,0,0,1,4.942-2.637,13.588,13.588,0,0,0,3.113-.194,2.957,2.957,0,0,0,1.756-1.461,7.587,7.587,0,0,0,.071-2.654,28.759,28.759,0,0,1-4.368-.043c-1.9-.3-3.539-.252-4.688,1.541a.7.7,0,0,1-.2.149,2.01,2.01,0,0,1-2.746-.114,1.963,1.963,0,0,1-.348-2.715c.167-.264.33-.531.53-.852-.874-.346-1.646-.656-2.42-.957-.148-.058-.307-.086-.66-.181.564,5.992-1.231,12.155,2.37,17.756,1.034-.5,1.99-1,2.972-1.439a2.17,2.17,0,0,1,3.017.883,2.127,2.127,0,0,1-1.065,2.95c-.59.348-1.205.653-1.851,1,3.979,3.475,15.178,4.823,19.09,2.331-.32-.484-.68-.947-.954-1.457a3.042,3.042,0,0,0-3.188-1.716c-1.541.1-3.094.027-4.642.022-1.827-.007-2.808-.745-2.835-2.118-.027-1.413.906-2.172,2.737-2.188,1.715-.015,3.431.027,5.145-.01a6.785,6.785,0,0,1,6.2,3.338c.468.722.974,1.418,1.458,2.12,3.8-2.466,6.529-8.582,5.624-12.538l-4.182,2.043a14.1,14.1,0,0,1,1.54,1.261,2.129,2.129,0,0,1,.1,3.141,2.115,2.115,0,0,1-3.14-.1c-.9-.816-1.75-1.683-2.579-2.568a2.582,2.582,0,0,0-2.035-.975,2.149,2.149,0,0,1-2.318-2.132,2.055,2.055,0,0,1,2.279-2.144c3.737.217,6.768-1.582,9.877-3.191a1.324,1.324,0,0,0,.622-.911C2589.891-335.578,2589.843-336.665,2589.843-337.905Zm-14.825-95.117v29.729h4.1v4.377h-4.08v4.172c1.385,0,2.677-.044,3.965.017a1.342,1.342,0,0,0,1.438-.9c2.288-4.644,4.615-9.269,6.91-13.91a3.052,3.052,0,0,0,.367-1.3c-.016-3.1.056-6.2-.158-9.287C2587.115-426.456,2581.3-432.394,2575.017-433.022Zm-19.6,87.593c1.512,0,2.6.046,3.673-.012a4.527,4.527,0,0,0,3.357-1.712c2.506-3.024,5.042-6.023,7.517-9.072a2.719,2.719,0,0,0,.521-1.572c.058-3.635.051-7.272.064-10.908,0-.655,0-1.309,0-1.946-6.211-.607-13.233,4.456-14.3,10.871C2555.475-355.133,2555.666-350.324,2555.419-345.429Zm15.048-57.98v-29.644a6.411,6.411,0,0,0-.692.07,14.777,14.777,0,0,0-11.9,13.84c-.191,3.1-.032,6.226-.032,9.438,1.586,0,2.96-.03,4.333.007a4.129,4.129,0,0,1,4.079,3.681c.117.852.141,1.717.209,2.609Zm4.563,38.516c.1.076.127.119.163.123a4,4,0,0,0,.5.039,7.267,7.267,0,0,1,7.081,4.437c.625,1.274,1.352,2.5,1.915,3.8a10.871,10.871,0,0,1,.835,2.852,7.235,7.235,0,0,1-2.787,6.86c2.16,1.934,4.632,1.246,7.108,1.357,0-3.6,0-7.057,0-10.517a14.292,14.292,0,0,0-4.463-10.665,14.569,14.569,0,0,0-10.349-4.148Zm-16.142-9.691c-.289.134-.477.215-.66.308a5.641,5.641,0,0,0-.546.307,23.736,23.736,0,0,0-10.338,15.365c-.951,4.342,1.4,7.119,3.808,10.046.147-2.278.155-4.526.145-6.773a18.707,18.707,0,0,1,4.107-12.464,64.206,64.206,0,0,1,4.844-4.753Zm11.4,24.789c-.646.776-1.88,2.182-3.031,3.653-1.947,2.487-4.062,4.693-7.633,4.991,2.089,1.22,4,1.973,6.158.793a10.184,10.184,0,0,1,1.535-.524,15.776,15.776,0,0,0,7.109-4.788Zm4.657-10.556v6.549a3.743,3.743,0,0,0,2.854,3.858,2.412,2.412,0,0,0,3.19-1.568,6.142,6.142,0,0,0-.24-3.107,37.825,37.825,0,0,0-1.82-3.693C2578.176-359.935,2576.934-360.58,2574.946-360.352Zm-30.562-4.1L2534.031-361l6.067,4.062C2541.754-359.349,2544.025-361.313,2544.384-364.451Zm34.55,20.095-4.6,5.274c3.571.069,7.613.342,11.331-2.019A10.181,10.181,0,0,1,2578.935-344.357ZM2544.889-379c-2.274.493-2.281.492-2.629,2.571a16.967,16.967,0,0,0-.315,2.353c-.047,1.846-.015,3.694-.015,5.778a20,20,0,0,0,2.327-1.165,1.52,1.52,0,0,0,.605-1.054C2544.912-373.314,2544.889-376.11,2544.889-379Zm21.5-11.328a32.354,32.354,0,0,0,4.086,10.791v-10.791Zm-5.432,10.774c.989,1.565,1.948,3.121,2.955,4.646.184.279.584.648.83.611,1.037-.157,2.053-.451,3.039-.686l-3.346-6.378Zm-28.912,14.129.193.267c1.038-.274,2.08-.537,3.114-.824,2.4-.664,2.361-.668,2.274-3.094-.06-1.649-.011-3.3-.011-4.954l-.276-.079Zm17.2-7.214c2.38-2.063,4.394-4.06,5.479-6.949h-5.479Zm21.208-22.174v-4.025h-4v4.025ZM2551.394-338.5c-.118-1.345.163-2.8-.419-3.7a24.58,24.58,0,0,0-3.717-3.79C2546.728-343.362,2548.546-339.93,2551.394-338.5Zm-.1,8.8c0-1.236.035-2.105-.02-2.969a1.2,1.2,0,0,0-.42-.819c-1.188-.829-2.416-1.6-3.885-2.558C2547.52-333.289,2549.118-331.544,2551.3-329.7Zm10.631-75.64h-2.542l2.358,4.089.184-.12Z" transform="translate(-1820.618 4334.563)" fill="#1d272b"/>
      <path id="Trazado_165194" data-name="Trazado 165194" d="M2678.939-366.365a3.37,3.37,0,0,0-3.222-3.208,3.458,3.458,0,0,0-3.241,3.22,3.4,3.4,0,0,0,3.315,3.256A3.32,3.32,0,0,0,2678.939-366.365Z" transform="translate(-1931.09 4283.663)" fill="#1d272b"/>
      <path id="Trazado_165195" data-name="Trazado 165195" d="M2735.352-363.1a3.31,3.31,0,0,1-3.183-3.23,3.364,3.364,0,0,1,3.183-3.245,3.444,3.444,0,0,1,3.28,3.308A3.409,3.409,0,0,1,2735.352-363.1Zm.013-1.738c.5-.712,1.024-1.125.985-1.477-.042-.376-.609-.694-.948-1.038-.337.336-.893.641-.946,1.018C2734.408-365.986,2734.9-365.562,2735.365-364.837Z" transform="translate(-1975.758 4283.664)" fill="#1d272b"/>
      <path id="Trazado_165196" data-name="Trazado 165196" d="M2678.939-366.365a3.32,3.32,0,0,1-3.147,3.267,3.4,3.4,0,0,1-3.315-3.256,3.458,3.458,0,0,1,3.241-3.22A3.37,3.37,0,0,1,2678.939-366.365Zm-3.177,1.528c.456-.727.941-1.159.89-1.513-.055-.372-.622-.67-.965-1-.333.349-.893.675-.931,1.054C2674.721-365.947,2675.247-365.542,2675.762-364.837Z" transform="translate(-1931.09 4283.663)" fill="#1d272b"/>
    </g>
  </g>
</svg>
