<svg xmlns="http://www.w3.org/2000/svg" width="85.94" height="101.146" viewBox="0 0 85.94 101.146">
  <g id="Grupo_134250" data-name="Grupo 134250" transform="translate(-279.768 -4119.539)">
    <path id="Trazado_165224" data-name="Trazado 165224" d="M3812.345-888.341c-.894.071-1.742.1-2.577.213a15.452,15.452,0,0,0-5.117,1.785c-1.634.863-3.3,1.677-5,2.388-1.621.676-3.293,1.242-4.973,1.759a31.73,31.73,0,0,1-3.808.9,25.016,25.016,0,0,1-6.806.412,10.572,10.572,0,0,1-5.755-2.009,7.512,7.512,0,0,1-3-5,8.15,8.15,0,0,1,.82-4.689c.383-.789.874-1.528,1.333-2.278a.443.443,0,0,0,.056-.45,8.662,8.662,0,0,1,.342-6.822l1.933.854c-.056.154-.1.3-.158.434a6.3,6.3,0,0,0-.206,4.584,5.989,5.989,0,0,0,3.648,3.472,14.413,14.413,0,0,0,3.9.848,34.863,34.863,0,0,0,13.207-1.361,60.965,60.965,0,0,0,11.867-4.795.513.513,0,0,0,.314-.535c-.013-1.434-.006-2.869-.006-4.3v-.388c-1.009.221-1.969.469-2.943.638-2.952.512-5.9,1.03-8.865,1.476a52.136,52.136,0,0,1-8.375.57,21.54,21.54,0,0,1-7.2-1.036,9.412,9.412,0,0,1-4.586-3.33,4.31,4.31,0,0,1-.854-2.826,5.584,5.584,0,0,1,1.082-2.965,11.335,11.335,0,0,1,2.51-2.511c.043-.032.091-.058.174-.11l1.148,1.754c-.295.244-.577.469-.849.7a6.439,6.439,0,0,0-1.594,1.956,2.6,2.6,0,0,0,.493,3.243,8.145,8.145,0,0,0,4.09,2.368,26.649,26.649,0,0,0,7.326.608,65.887,65.887,0,0,0,9.174-.924c2.519-.426,5.023-.935,7.534-1.409.063-.012.125-.035.263-.075-.273-.2-.494-.367-.721-.524a6.219,6.219,0,0,1-1.913-1.847,5.053,5.053,0,0,1-.4-4.892,9.188,9.188,0,0,1,1.227-2.175,4.963,4.963,0,0,1,3.844-1.852c3.465-.032,6.93-.018,10.395,0a3.672,3.672,0,0,1,1.839.437l-.773,1.939a6.543,6.543,0,0,0-2.857-.262q-4.12-.013-8.24-.02a3.454,3.454,0,0,0-1.889.506,3,3,0,0,0-.888.863,4.327,4.327,0,0,0-.952,2.917,3.1,3.1,0,0,0,1.259,2.227c1.1.81,2.207,1.616,3.327,2.4a.718.718,0,0,1,.338.678q-.012,10.03-.012,20.061a.661.661,0,0,0,.257.563c1.124.959,2.238,1.93,3.385,2.923.411-.352.818-.7,1.224-1.051.717-.62,1.428-1.248,2.153-1.86a.691.691,0,0,0,.272-.589q-.011-10.047-.013-20.094a.667.667,0,0,1,.324-.619c1.181-.832,2.381-1.641,3.509-2.541a3.1,3.1,0,0,0,.929-3.474c-.031-.093-.072-.183-.114-.288l1.907-.937a5.36,5.36,0,0,1,.1,4.343,7.283,7.283,0,0,1-3.1,3.182c.89.189,1.668.383,2.457.518,2.769.473,5.532.985,8.313,1.372a49.844,49.844,0,0,0,9.438.486,16.538,16.538,0,0,0,5.371-1,7.734,7.734,0,0,0,2.821-1.921,2.683,2.683,0,0,0,.352-3.585,8.019,8.019,0,0,0-1.978-2.113l-.3-.228,1.134-1.746a9.928,9.928,0,0,1,2.6,2.467,5.614,5.614,0,0,1,1.142,2.6,4.8,4.8,0,0,1-1.522,4.189,10.845,10.845,0,0,1-5.779,3,31.81,31.81,0,0,1-7.278.473,73.206,73.206,0,0,1-8.227-.775c-3.25-.469-6.473-1.09-9.674-1.821-.084-.019-.171-.029-.28-.046-.006.113-.016.209-.016.306,0,1.479,0,2.957,0,4.436a.417.417,0,0,0,.256.436,58.569,58.569,0,0,0,14.325,5.436,33.967,33.967,0,0,0,9.322.879,18.183,18.183,0,0,0,5.069-.858,6.356,6.356,0,0,0,3.529-2.694,5.864,5.864,0,0,0,.368-5.071c-.088-.27-.2-.534-.306-.835l1.921-.857a9.537,9.537,0,0,1,.8,2.632,7.971,7.971,0,0,1-.442,4.226.544.544,0,0,0,.086.432,11.382,11.382,0,0,1,2.013,4.384,7.291,7.291,0,0,1-2.514,7.251,9.3,9.3,0,0,1-4.632,2.117,19.1,19.1,0,0,1-6.062.115c-1.507-.2-3-.507-4.491-.825a37.63,37.63,0,0,1-7.644-2.587c-1.353-.612-2.686-1.279-3.985-2a14.619,14.619,0,0,0-7.365-1.9c-.065,0-.129.01-.228.018-.006.125-.016.241-.016.358,0,1.379-.008,2.759.006,4.138a.663.663,0,0,1-.276.587,9.441,9.441,0,0,0-.821.719.574.574,0,0,0-.169.385c.109,1.717.234,3.432.359,5.148.1,1.353.2,2.706.3,4.058q.192,2.59.382,5.18.173,2.359.343,4.719c.116,1.605.229,3.211.346,4.815q.316,4.315.637,8.629c.166,2.277.321,4.554.487,6.831.165,2.255.337,4.509.5,6.763.027.362.045.726.07,1.114h-15.865c.048-.7.093-1.376.143-2.055q.187-2.557.377-5.114.253-3.431.506-6.863c.119-1.617.229-3.234.351-4.851.147-1.956.307-3.912.451-5.868.1-1.373.18-2.747.279-4.12.167-2.321.341-4.641.512-6.961q.2-2.722.4-5.445c.141-1.958.277-3.916.426-5.873a.6.6,0,0,0-.233-.567c-.354-.294-.813-.558-.989-.944a3.485,3.485,0,0,1-.045-1.34C3812.344-885.961,3812.345-887.1,3812.345-888.341Zm-33.482-4.794a7.7,7.7,0,0,0-1.333,2.971,7.327,7.327,0,0,0-.089,2.1,5.506,5.506,0,0,0,3.072,4.067,10.3,10.3,0,0,0,4.733,1.054,29.659,29.659,0,0,0,9.5-1.469,51.59,51.59,0,0,0,4.883-1.807,35.724,35.724,0,0,0,3.694-1.825,17.013,17.013,0,0,1,8.7-2.362c.1,0,.209-.013.305-.02v-5.41c-.119.052-.21.086-.3.13a65.35,65.35,0,0,1-7.891,3.384,48.036,48.036,0,0,1-9.574,2.358,32.024,32.024,0,0,1-7.854.135,17.7,17.7,0,0,1-4.129-.868A9.124,9.124,0,0,1,3778.863-893.135Zm45.014,2.727a7.676,7.676,0,0,1,.783,0c1.05.112,2.108.184,3.145.372a17.733,17.733,0,0,1,5.4,2.173,42.525,42.525,0,0,0,6.263,2.8,37.306,37.306,0,0,0,8.242,1.963,17.872,17.872,0,0,0,5.956-.17,6.657,6.657,0,0,0,4.438-2.962,4.661,4.661,0,0,0,.732-2.2,7.5,7.5,0,0,0-1.3-4.463c-.048-.08-.109-.153-.177-.247a8.948,8.948,0,0,1-3.447,2.332,19.258,19.258,0,0,1-5.988,1.106,37.5,37.5,0,0,1-11.453-1.286,61.142,61.142,0,0,1-12.223-4.69c-.111-.056-.226-.106-.368-.172Zm-5.742,45.815v2.131h-5.279c-.134,1.856-.267,3.684-.4,5.517h11.3c-.444-6.091-.886-12.157-1.331-18.247h-8.647c-.255,3.529-.509,7.043-.767,10.6Zm4.146-12.741c-.267-3.587-.531-7.142-.8-10.7h-6.757c-.269,3.573-.537,7.119-.807,10.7Zm-.949-12.869c-.253-3.461-.5-6.877-.758-10.37-.8.692-1.529,1.314-2.245,1.949-.167.148-.274.159-.441,0-.355-.331-.729-.64-1.1-.957s-.73-.628-1.153-.992c-.255,3.5-.5,6.921-.755,10.367Z" transform="translate(-3495.365 5055.511)" fill="#1d272b"/>
    <path id="Trazado_165225" data-name="Trazado 165225" d="M3830.11-222.238l2.079.415c-.159.619-.3,1.216-.464,1.8a38.059,38.059,0,0,1-5.155,11.28,21.5,21.5,0,0,1-6.784,6.531,16.593,16.593,0,0,1-7.483,2.277,16.118,16.118,0,0,1-6.425-.736,9.668,9.668,0,0,1-5.667-5.013,12.15,12.15,0,0,1-1.164-3.97,19.023,19.023,0,0,1-.151-2c-.011-.965.034-1.93.057-2.963l2.128.362c-.031.652-.086,1.276-.085,1.9,0,.691.027,1.384.089,2.072a10.5,10.5,0,0,0,.793,3.159,7.693,7.693,0,0,0,4.516,4.386,13.316,13.316,0,0,0,5.139.73,14.853,14.853,0,0,0,8.923-3.219,22.119,22.119,0,0,0,5.261-6.1,37.261,37.261,0,0,0,4.3-10.578C3830.038-222,3830.069-222.1,3830.11-222.238Z" transform="translate(-3517.458 4407.213)" fill="#1d272b"/>
    <path id="Trazado_165226" data-name="Trazado 165226" d="M3800.9-360.815l2.066-.342c.129.514.225,1.011.379,1.489a8.948,8.948,0,0,0,6.843,6.49,10,10,0,0,0,5.714-.536,24.735,24.735,0,0,0,8.57-5.552,51.416,51.416,0,0,0,7.792-9.867c.395-.623.776-1.254,1.184-1.914l1.819,1.086c-.277.457-.539.9-.81,1.336a57.971,57.971,0,0,1-7.339,9.726,28.465,28.465,0,0,1-9.724,6.891,13.489,13.489,0,0,1-5.857,1.131,10.743,10.743,0,0,1-8.28-4.321A12.286,12.286,0,0,1,3800.9-360.815Z" transform="translate(-3519.328 4546.17)" fill="#1d272b"/>
    <path id="Trazado_165227" data-name="Trazado 165227" d="M4525.742-369.944l1.8-1.077c.5.8.966,1.566,1.452,2.326a51.581,51.581,0,0,0,7.1,9.036,25.844,25.844,0,0,0,8.043,5.594,11.659,11.659,0,0,0,5.227,1.093,8.686,8.686,0,0,0,6.959-3.872,9.939,9.939,0,0,0,1.612-3.949c.018-.1.046-.192.083-.339l2.078.34a12.663,12.663,0,0,1-1.947,5.055,10.656,10.656,0,0,1-2.981,3.016,10.989,10.989,0,0,1-7.453,1.818,18.6,18.6,0,0,1-7.888-3.039,35.2,35.2,0,0,1-8.646-8.015,70.648,70.648,0,0,1-5.346-7.8C4525.8-369.807,4525.778-369.867,4525.742-369.944Z" transform="translate(-4196.184 4546.145)" fill="#1d272b"/>
    <path id="Trazado_165228" data-name="Trazado 165228" d="M3775.919-445.547c-.007.158-.007.277-.019.4a5.944,5.944,0,0,0,4.119,6.639,13.83,13.83,0,0,0,6.281.76,25.339,25.339,0,0,0,13.669-5.9,39.969,39.969,0,0,0,3.3-2.943c1.192-1.187,2.292-2.466,3.433-3.7.036-.039.078-.073.136-.127l1.6,1.322a2.126,2.126,0,0,1-.128.195,43.947,43.947,0,0,1-10.094,9.126,26.385,26.385,0,0,1-10.15,3.955,16.6,16.6,0,0,1-9.1-.827,8.072,8.072,0,0,1-4.673-4.509,8.933,8.933,0,0,1-.481-4.456c.009-.069.116-.188.166-.182C3774.618-445.727,3775.259-445.636,3775.919-445.547Z" transform="translate(-3493.956 4620.29)" fill="#1d272b"/>
    <path id="Trazado_165229" data-name="Trazado 165229" d="M4547.379-449.229l1.622-1.338c.347.4.67.8,1.02,1.182.911.984,1.791,2,2.759,2.929a33.012,33.012,0,0,0,10,6.865,20.492,20.492,0,0,0,9.243,1.734,10.573,10.573,0,0,0,5.379-1.621,5.715,5.715,0,0,0,2.547-5.6c-.044-.587-.068-.59.51-.679.436-.067.873-.132,1.311-.173.079-.007.234.094.242.159a8.259,8.259,0,0,1-1.531,6.315,9.163,9.163,0,0,1-4.626,3.043,16.913,16.913,0,0,1-7.228.564,27.555,27.555,0,0,1-13.449-5.759,46.585,46.585,0,0,1-7.652-7.426C4547.481-449.081,4547.446-449.137,4547.379-449.229Z" transform="translate(-4216.387 4620.424)" fill="#1d272b"/>
    <path id="Trazado_165230" data-name="Trazado 165230" d="M4543.973-221.819l2.06-.412c.15.567.285,1.119.442,1.664a35.379,35.379,0,0,0,5.217,11.136,18.283,18.283,0,0,0,6.916,6.015,15.1,15.1,0,0,0,7.625,1.378c.711-.047,1.419-.152,2.175-.236.146.641.3,1.31.467,2.046-.636.094-1.239.211-1.847.267a18.457,18.457,0,0,1-6.654-.536,17.646,17.646,0,0,1-7.646-4.488,29.423,29.423,0,0,1-6.241-9.309,40.1,40.1,0,0,1-2.426-7.119C4544.03-221.539,4544.006-221.665,4543.973-221.819Z" transform="translate(-4213.207 4407.207)" fill="#1d272b"/>
    <path id="Trazado_165231" data-name="Trazado 165231" d="M3969.409-989.376c.075.7.148,1.375.226,2.092-.6.074-1.18.138-1.754.215a44.354,44.354,0,0,0-9.572,2.06,11.675,11.675,0,0,0-2.026,1.027c-.569.349-.544.575,0,.977a10.242,10.242,0,0,0,3.184,1.42,48.063,48.063,0,0,0,7.47,1.528c.949.131,1.9.227,2.854.351.08.01.216.116.212.169-.049.644-.118,1.287-.187,1.968-.757-.084-1.468-.152-2.175-.245a62.424,62.424,0,0,1-7.279-1.314,17.813,17.813,0,0,1-4.431-1.6,6.743,6.743,0,0,1-1.5-1.12,2.271,2.271,0,0,1-.031-3.3,6.478,6.478,0,0,1,2.331-1.533,25.941,25.941,0,0,1,5.893-1.694c2.2-.389,4.42-.676,6.631-1.006A1.453,1.453,0,0,1,3969.409-989.376Z" transform="translate(-3662.021 5123.561)" fill="#1d272b"/>
    <path id="Trazado_165232" data-name="Trazado 165232" d="M4645.507-977.7c-.071-.712-.14-1.387-.211-2.091.528-.062,1.019-.116,1.508-.177a47.79,47.79,0,0,0,9.888-2.018,13.3,13.3,0,0,0,2.309-1.12c.628-.368.6-.606,0-1.032a10.96,10.96,0,0,0-3.351-1.453,48.327,48.327,0,0,0-7.313-1.469c-.861-.115-1.724-.226-2.644-.347.071-.687.143-1.371.218-2.1.635.072,1.248.115,1.851.215,2.043.337,4.091.651,6.12,1.056a20.55,20.55,0,0,1,5.354,1.749,5.242,5.242,0,0,1,1.826,1.393,2.273,2.273,0,0,1,0,2.953,5.91,5.91,0,0,1-2.333,1.637,24.487,24.487,0,0,1-5.786,1.7c-2.309.41-4.636.717-6.955,1.066C4645.849-977.711,4645.706-977.714,4645.507-977.7Z" transform="translate(-4307.821 5123.679)" fill="#1d272b"/>
    <path id="Trazado_165233" data-name="Trazado 165233" d="M4343.895-1051.269q-2.184,0-4.367,0a1.092,1.092,0,0,1-1.225-1.221q0-2.333,0-4.665a1.133,1.133,0,0,1,1.289-1.274q4.3,0,8.6,0a1.139,1.139,0,0,1,1.292,1.3q0,2.316,0,4.632a1.093,1.093,0,0,1-1.221,1.224Q4346.078-1051.267,4343.895-1051.269Zm-3.448-2.145h6.88v-2.874h-6.88Z" transform="translate(-4021.152 5188.042)" fill="#1d272b"/>
    <path id="Trazado_165234" data-name="Trazado 165234" d="M4343.9-1203.4h-4.367a1.1,1.1,0,0,1-1.226-1.224q0-2.332,0-4.665a1.121,1.121,0,0,1,1.286-1.268q4.3,0,8.6,0c.883,0,1.288.405,1.29,1.3q.006,2.316,0,4.632a1.094,1.094,0,0,1-1.221,1.228Q4346.081-1203.4,4343.9-1203.4Zm3.444-5.015h-6.88v2.873h6.88Z" transform="translate(-4021.154 5330.095)" fill="#1d272b"/>
    <path id="Trazado_165235" data-name="Trazado 165235" d="M4964.075-96.286a7.959,7.959,0,0,0,2.442-3.213,12.407,12.407,0,0,0,.928-5.527c-.026-.538-.047-1.076-.073-1.668l2.047-.355c.038.433.089.834.106,1.236a16.929,16.929,0,0,1-.7,6.239,10.258,10.258,0,0,1-3.044,4.641c-.1.086-.2.168-.308.25a1.185,1.185,0,0,1-.122.068Z" transform="translate(-4605.494 4299.651)" fill="#1d272b"/>
  </g>
</svg>
