<svg xmlns="http://www.w3.org/2000/svg" xmlns:xlink="http://www.w3.org/1999/xlink" width="79.155" height="79.153" viewBox="0 0 79.155 79.153">
  <defs>
    <radialGradient id="radial-gradient" cx="0.077" cy="0.019" r="1.465" gradientTransform="matrix(1, 0, 0, -1, 0, 9.666)" gradientUnits="objectBoundingBox">
      <stop offset="0" stop-color="#f4f4f5"/>
      <stop offset="0.477" stop-color="#f7f8fa"/>
      <stop offset="0.715" stop-color="#fff"/>
    </radialGradient>
  </defs>
  <g id="Grupo_134252" data-name="Grupo 134252" transform="translate(-269.851 -4682.053)">
    <g id="Group_18420" data-name="Group 18420" transform="translate(269.851 4682.053)">
      <g id="Group_18419" data-name="Group 18419">
        <path id="Path_40936" data-name="Path 40936" d="M201.954,554.407a39.577,39.577,0,1,1-39.578-39.575h0A39.576,39.576,0,0,1,201.954,554.407Z" transform="translate(-122.8 -514.832)" fill="#fff"/>
      </g>
    </g>
    <path id="Path_40937" data-name="Path 40937" d="M201.953,554.407a39.42,39.42,0,1,0,0,.312Z" transform="translate(147.051 4167.221)" fill="url(#radial-gradient)"/>
    <path id="Path_40938" data-name="Path 40938" d="M190.028,551.858a30.209,30.209,0,1,0-30.209,30.209h0a30.1,30.1,0,0,0,30.209-29.984Z" transform="translate(149.729 4169.902)" fill="none" stroke="#1d272b" stroke-miterlimit="10" stroke-width="2"/>
    <path id="Path_40939" data-name="Path 40939" d="M195.973,530.78a39.581,39.581,0,0,1-68.14,39.411,39.456,39.456,0,0,0,68.14-39.411Z" transform="translate(149.03 4173.493)" fill="#e7e9eb"/>
    <path id="Trazado_170425" data-name="Trazado 170425" d="M3699.606-182.014c-.314.322-.622.631-.921.948a.658.658,0,0,0-.037.944,11.315,11.315,0,0,1,.725.924,11.3,11.3,0,0,1,.531,1.03c.341-.072.7-.178,1.059-.22a4.936,4.936,0,0,1,4.914,2.213c.372.529.593.593,1.14.268.346-.206.688-.419,1.025-.625-.1-.565-.1-.579.385-.876.353-.217.706-.434,1.064-.642s.537-.157.74.175q.995,1.635,1.98,3.276a.442.442,0,0,1-.166.714c-.415.262-.829.528-1.262.755a.591.591,0,0,1-.507.031c-.212-.164-.343-.088-.514.022-.285.182-.594.33-.86.536a1.025,1.025,0,0,0-.336.488.684.684,0,0,0,.117.449c.016.029.233-.032.347-.079a9.1,9.1,0,0,1,2.589-.664,2.675,2.675,0,0,1,.327-.013.406.406,0,0,1,.453.412.407.407,0,0,1-.429.439,7.859,7.859,0,0,0-2.564.616c-.107.045-.212.1-.242.111.085.875.165,1.692.248,2.535a4.247,4.247,0,0,1,.514-.161c.618-.122,1.237-.248,1.861-.334.383-.053.606.126.618.41s-.175.437-.56.452a6.2,6.2,0,0,0-2.633.7.689.689,0,0,0-.3.271,5.093,5.093,0,0,1-2.009,2.226.365.365,0,0,0-.066.068l.034.088c.433-.167.882-.3,1.3-.506a9.008,9.008,0,0,1,3.1-1.064c.228-.022.457-.037.686-.039a.4.4,0,0,1,.445.419.4.4,0,0,1-.4.429,6.5,6.5,0,0,0-1.164.153,16.606,16.606,0,0,0-2.126.822,6.591,6.591,0,0,1-3.319.712.747.747,0,0,0-.4.079c-.828.485-1.647.985-2.469,1.481a1.119,1.119,0,0,0-.111.089c1.764,1.041,3.569,1.555,5.53.641a10.72,10.72,0,0,1,2.955-1.116,10.046,10.046,0,0,1,1.074-.1.4.4,0,0,1,.437.426.387.387,0,0,1-.408.419,8.392,8.392,0,0,0-3.563,1.092,5.741,5.741,0,0,1-4.82.177c-.669-.262-1.313-.587-1.979-.858a.574.574,0,0,0-.441.039c-.724.417-1.436.856-2.179,1.305.063.035.089.062.113.06a8.057,8.057,0,0,1,4.205,1.03,5,5,0,0,0,3.356.547,7.458,7.458,0,0,0,1.686-.6,8.391,8.391,0,0,1,3.295-.99c.087,0,.174-.016.261-.012.289.012.485.184.476.43a.429.429,0,0,1-.441.434c-.336.037-.673.061-1.007.11a7.842,7.842,0,0,0-2.345.887,5.982,5.982,0,0,1-5.54.026,9.1,9.1,0,0,0-2.34-.9,6.468,6.468,0,0,0-3.986.522,9.045,9.045,0,0,1-2.375.9,5.956,5.956,0,0,1-3.667-.492,8.833,8.833,0,0,0-2.855-1,6.619,6.619,0,0,0-3.74.7,7.806,7.806,0,0,1-2.651.889,6.086,6.086,0,0,1-3.6-.741,7.025,7.025,0,0,0-3.114-.9.429.429,0,0,1-.454-.452c.01-.244.2-.4.5-.4a6.852,6.852,0,0,1,3.077.791,6.23,6.23,0,0,0,2.849.869,5.3,5.3,0,0,0,2.341-.524,9.828,9.828,0,0,1,3.1-1.073c-.2-.343-.382-.646-.563-.948-.4-.657-.393-.65-1.11-.329a10.649,10.649,0,0,1-2.716,1.018,6.171,6.171,0,0,1-3.98-.728,6.67,6.67,0,0,0-2.99-.862c-.343-.011-.532-.2-.514-.461s.234-.422.569-.4a7.384,7.384,0,0,1,3.1.84,6.434,6.434,0,0,0,2.237.792,4.5,4.5,0,0,0,2.13-.209c.813-.3,1.6-.676,2.389-1.015l-1.082-2.174c-.2.084-.448.195-.7.289a5.8,5.8,0,0,1-4.847-.268,7.618,7.618,0,0,0-3.319-1,.43.43,0,0,1-.478-.462c.019-.255.217-.414.538-.4a7.775,7.775,0,0,1,2.96.746,11.843,11.843,0,0,0,2.027.805,4.969,4.969,0,0,0,3.6-.579.294.294,0,0,0,.15-.182c.054-.517.092-1.035.136-1.579-.077.028-.165.053-.247.092a5.9,5.9,0,0,1-5.479-.1,7.347,7.347,0,0,0-3.231-.952.431.431,0,0,1-.456-.453.44.44,0,0,1,.5-.411c.281.007.561.038.886.061a5.372,5.372,0,0,1,.444-2.913c-.453-.052-.862-.088-1.266-.152a.838.838,0,0,1-.457-.191.427.427,0,0,1-.052-.411.615.615,0,0,1,.44-.253c.52.035,1.035.134,1.554.2a.44.44,0,0,0,.316-.049c1.139-1.144,2.259-2.306,3.4-3.448q3.874-3.88,7.762-7.747a5.021,5.021,0,0,1,7.172-.156.639.639,0,0,0,.982.009c.324-.307.64-.622.951-.924-.224-.456-.211-.539.131-.886.314-.318.628-.637.949-.949a.431.431,0,0,1,.709,0q1.394,1.38,2.773,2.775a.432.432,0,0,1-.01.667c-.367.374-.733.748-1.108,1.114C3700.153-181.8,3700-181.806,3699.606-182.014Zm-1.619,5.959-9.658,5.836,6.962,11.516,9.665-5.828Zm.762-.417,6.949,11.492c.272-.163.505-.3.736-.441a4.152,4.152,0,0,0,1.49-5.7,1.539,1.539,0,0,1,.564-2.2c.369-.229.742-.45,1.146-.7l-1.091-1.8-1.163.7a1.484,1.484,0,0,1-2.159-.482A4.258,4.258,0,0,0,3698.749-176.472Zm-10.844-6.021a1.526,1.526,0,0,0,.109.139q3.443,3.452,6.886,6.9c.128.129.221.116.363.03q1.8-1.1,3.613-2.18c.194-.116.236-.243.121-.424a13.352,13.352,0,0,0-.936-1.442,1.571,1.571,0,0,1,.077-2.278c.3-.294.617-.578,1.022-.956-.507-.461-.962-.852-1.389-1.272-.187-.184-.3-.146-.45.021-.218.242-.442.48-.674.709a1.522,1.522,0,0,1-2.312.029,4.1,4.1,0,0,0-3.463-1.1A4.714,4.714,0,0,0,3687.905-182.493Zm-.318,12.725c-.431.259-.817.483-1.2.718a4.158,4.158,0,0,0-1.41,5.592c.663,1.14,1.356,2.261,2.051,3.382a.51.51,0,0,0,.354.209,7.7,7.7,0,0,1,3.13.849,9.6,9.6,0,0,0,1.318.567,4.571,4.571,0,0,0,2.638.068Zm-2.606-2.843c-.6,0-1.15.006-1.7,0a.3.3,0,0,0-.346.244.662.662,0,0,1-.866.433.693.693,0,0,1-.4-.891.583.583,0,0,0-.007-.484.682.682,0,0,1,.394-.861.679.679,0,0,1,.868.382c.039.086.072.175.108.265h2.15a4.062,4.062,0,0,0,0-.414,1.342,1.342,0,0,1,.313-1.071,4.735,4.735,0,0,1,1.324-1.237,1.236,1.236,0,0,0,.778-1.5c-.025-.21-.026-.345-.282-.42a.647.647,0,0,1-.366-.889.654.654,0,0,1,.867-.357.486.486,0,0,0,.449,0,.656.656,0,0,1,.862.374.659.659,0,0,1-.4.876c-.07.026-.142.045-.223.069v1.271a3.238,3.238,0,0,1,3.2,3.324,1.248,1.248,0,0,0,.449-.057c.706-.407,1.4-.835,2.09-1.253l-7.023-6.989-7.888,7.921,5.256,5.245,1.244-1.156c-.24-.226-.475-.437-.7-.66C3684.232-171.345,3684.214-171.567,3684.981-172.611Zm-6.28-.608a14.92,14.92,0,0,0-1.283,1.22,3.926,3.926,0,0,0-.854,3.305.438.438,0,0,0,.2.288c.639.3,1.288.584,1.933.873a5.33,5.33,0,0,0,5.208-.5Zm10.13,1.656c-.511-.26-.676-.547-.555-.928a.745.745,0,0,1,.755-.509c.4.046.573.31.611,1.005a3.6,3.6,0,0,0,.941-.712,2.147,2.147,0,0,0-.3-2.384,2.34,2.34,0,0,0-2.322-.776,3.673,3.673,0,0,0-1.6,1.137.972.972,0,0,0-.069,1.422c.1.112.2.216.337.36-.4.389-.782.764-1.172,1.127-.187.174-.184.311,0,.484.264.243.514.5.759.765.185.2.333.184.516-.011.363-.387.742-.759,1.112-1.134C3688.412-171.258,3688.412-171.258,3688.831-171.563Zm20.829-5.58-.656.405,1.632,2.692.656-.4Zm-9.67-5.8.541-.456-2.181-2.266-.551.527Z" transform="translate(-3384.291 4891.401)" fill="#1d272b"/>
    <path id="Trazado_170426" data-name="Trazado 170426" d="M3686.918,279.348a6.727,6.727,0,0,0-2.313.584,16.965,16.965,0,0,1-2.5.953,5.423,5.423,0,0,1-3.93-.553,7.538,7.538,0,0,0-3.323-.989.425.425,0,1,1,.034-.848,7.018,7.018,0,0,1,3.082.771,7.249,7.249,0,0,0,2.192.825,5.256,5.256,0,0,0,2.846-.375,20.621,20.621,0,0,1,2.645-1.023,6.673,6.673,0,0,1,4.594.462c.4.182.779.4,1.181.563a4.918,4.918,0,0,0,4.123-.064,11.641,11.641,0,0,1,2.71-1.025,7.2,7.2,0,0,1,4.344.5,17.4,17.4,0,0,0,2.21.883,4.612,4.612,0,0,0,3.371-.369,9.363,9.363,0,0,1,3.094-1.1c.26-.029.521-.053.783-.058a.418.418,0,0,1,.476.423.413.413,0,0,1-.441.43,7.026,7.026,0,0,0-3.175.917,6.007,6.007,0,0,1-5.744.1,8.534,8.534,0,0,0-2.7-.942,6.335,6.335,0,0,0-3.741.646,7.692,7.692,0,0,1-2.388.862,6.229,6.229,0,0,1-3.95-.728A7.166,7.166,0,0,0,3686.918,279.348Z" transform="translate(-3384.434 4456.652)" fill="#1d272b"/>
    <path id="Trazado_170427" data-name="Trazado 170427" d="M3861.956-3.126a.673.673,0,0,0-.621-.674.742.742,0,0,0-.764.685.667.667,0,0,0,.654.707A.727.727,0,0,0,3861.956-3.126Z" transform="translate(-3558.378 4720.445)" fill="#1d272b"/>
    <path id="Trazado_170428" data-name="Trazado 170428" d="M3926.562,14.545l-.3,1.24a3.186,3.186,0,0,1,2.321,3.953l1.309.326c.056-.084.1-.148.14-.209a.68.68,0,0,1,.95-.191.7.7,0,0,1,.174.96.737.737,0,0,0-.1.4.692.692,0,0,1-.6.768.637.637,0,0,1-.748-.6c-.01-.208-.083-.3-.274-.319a.72.72,0,0,1-.191-.043,1.236,1.236,0,0,0-1.649.369,3.6,3.6,0,0,1-1.421.9,3.543,3.543,0,0,1-1.177.088,1.185,1.185,0,0,1-.3-.077c-.17.688-.34,1.351-.49,2.019a.323.323,0,0,0,.131.246.684.684,0,1,1-.769,1.123.583.583,0,0,0-.348-.071.689.689,0,0,1-.783-.574.674.674,0,0,1,.61-.778c.091-.013.234-.063.251-.125.17-.616.319-1.238.5-1.951-.178.1-.275.159-.372.213a1.08,1.08,0,0,1-1.51-.37c-.229-.358-.445-.724-.663-1.089a1.059,1.059,0,0,1,.366-1.551c.069-.045.134-.1.255-.188-.646-.158-1.234-.308-1.825-.438-.057-.013-.159.081-.208.149a.679.679,0,0,1-.966.222.7.7,0,0,1-.143-1.011.514.514,0,0,0,.073-.315.689.689,0,0,1,.579-.808.672.672,0,0,1,.77.62c.015.1.086.241.159.26.64.173,1.287.322,1.954.484.02-.089.041-.158.05-.228a1.811,1.811,0,0,1,.872-1.353,4.814,4.814,0,0,1,1.987-.876c.082-.009.184-.131.217-.222.077-.214.11-.444.176-.662.087-.288.149-.525-.192-.737a.618.618,0,0,1-.066-.881.686.686,0,0,1,.911-.157.815.815,0,0,0,.405.124.681.681,0,0,1,.792.6.656.656,0,0,1-.677.747C3926.694,14.538,3926.651,14.54,3926.562,14.545Zm-2.117,6.032.215.322a.945.945,0,0,0,1.408.308c.233-.14.47-.276.7-.424a2.265,2.265,0,0,0,.731-3.1,2.306,2.306,0,0,0-3.09-.809c-.257.143-.5.3-.753.459a.946.946,0,0,0-.362,1.3c.067.134.149.261.24.417l-1.245.752c-.438.265-.438.265-.181.689q.22.363.441.726c.221.361.23.363.606.136Z" transform="translate(-3612.586 4704.783)" fill="#1d272b"/>
    <path id="Trazado_170429" data-name="Trazado 170429" d="M3861.956-3.126a.727.727,0,0,1-.731.718.667.667,0,0,1-.654-.707.742.742,0,0,1,.764-.685A.673.673,0,0,1,3861.956-3.126Z" transform="translate(-3558.378 4720.445)" fill="#1d272b"/>
    <path id="Trazado_170430" data-name="Trazado 170430" d="M4016.226,115.283a.655.655,0,0,1-.687-.669.72.72,0,0,1,.711-.707.675.675,0,0,1,.694.675A.72.72,0,0,1,4016.226,115.283Z" transform="translate(-3703.197 4610.445)" fill="#1d272b"/>
    <path id="Trazado_170431" data-name="Trazado 170431" d="M3996.459,81.485a.665.665,0,0,1,.682.647.728.728,0,0,1-.728.726.669.669,0,0,1-.681-.685A.711.711,0,0,1,3996.459,81.485Z" transform="translate(-3684.688 4640.745)" fill="#1d272b"/>
  </g>
</svg>
