<svg xmlns="http://www.w3.org/2000/svg" xmlns:xlink="http://www.w3.org/1999/xlink" width="456.794" height="560.081" viewBox="0 0 456.794 560.081">
  <defs>
    <clipPath id="clip-path">
      <rect id="Rectángulo_35656" data-name="Rectángulo 35656" width="410.936" height="515.059" transform="translate(0 -46)" fill="#fff" stroke="#707070" stroke-width="1"/>
    </clipPath>
    <linearGradient id="linear-gradient" x1="0.5" x2="0.5" y2="1" gradientUnits="objectBoundingBox">
      <stop offset="0" stop-color="#f5f5f5"/>
      <stop offset="0.25" stop-color="#f5f5f5"/>
      <stop offset="1" stop-color="#a7b3cf"/>
    </linearGradient>
    <linearGradient id="linear-gradient-7" x1="0.5" x2="0.5" y2="1" gradientUnits="objectBoundingBox">
      <stop offset="0" stop-color="#f5f5f5"/>
      <stop offset="0.25" stop-color="#f5f5f5"/>
      <stop offset="1" stop-color="#eeeef2"/>
    </linearGradient>
    <clipPath id="clip-path-2">
      <rect id="Rectángulo_35608" data-name="Rectángulo 35608" width="12.37" height="5.482" fill="none"/>
    </clipPath>
  </defs>
  <g id="Grupo_134253" data-name="Grupo 134253" transform="translate(-905.521 -3599.451)">
    <g id="Grupo_129307" data-name="Grupo 129307" transform="translate(-153.354 -145.485)">
      <g id="Grupo_128802" data-name="Grupo 128802" transform="translate(1058.875 3744.937)">
        <path id="Trazado_151846" data-name="Trazado 151846" d="M477.463,597.045c17.287-32.626,22.2-74.97,13.052-112.362-5.787-23.64-16.893-45.6-18.313-70.253-2.84-49.287,32.959-89.133,40.386-137.675,3.264-21.333-.3-46.187-14.289-59.146-13.82-12.8-33.546-10.186-49.192-1.222S420.221,239.7,405.2,250.19s-33.519,16.975-49.383,8.626c-16.069-8.457-25.184-29.773-30.289-50.549s-7.612-42.9-16.325-61.726c-14.361-31.021-44.98-47.935-73.514-43.558s-54.028,28.352-67.7,59.85-16.065,69.6-9.258,104.385c3.453,17.644,9.141,34.542,12.243,52.288s3.386,37.169-3.539,53.154c-14.481,33.425-52.683,38.086-72.689,66.75-16.511,23.658-17.029,59.761-7.659,88.855s26.98,52.7,44.538,75.158c81.895,3.429,165.257,3.656,247.152,7.085C410.6,611.842,445.672,599.377,477.463,597.045Z" transform="translate(-80.961 -94.851)" fill="#a4a4b4" opacity="0.354" style="mix-blend-mode: multiply;isolation: isolate"/>
        <path id="Trazado_151847" data-name="Trazado 151847" d="M359.21,188.462c-.21,22.479,21.159,42.043,17.44,64.214-1.988,11.862-11.027,23.887-5.774,34.707,4.647,9.574,17.958,11.234,28.135,8.121,23.823-7.288,38.3-31.639,45.228-55.571,6.514-22.51,8.13-47.653-2.3-68.638-8.406-16.907-27.8-31.832-47.493-30.452C376.407,142.109,359.368,171.53,359.21,188.462Z" transform="translate(7.349 -38.168)" fill="#a4a4b4" opacity="0.31" style="mix-blend-mode: multiply;isolation: isolate"/>
        <path id="Trazado_151848" data-name="Trazado 151848" d="M122.415,166.547c-20.268,33.815-21.182,78.383-2.317,113,5.961,10.938,14.013,21.131,24.884,27.214s24.9,7.439,35.716,1.267c16.41-9.361,20.039-31.439,18.733-50.286s-5.576-38.606,1.682-56.047c4.732-11.369,13.817-20.233,21.876-29.544s15.582-20.178,16-32.486c1.079-31.9-32.793-29.521-53.206-22.895C159.719,125.231,136.545,142.973,122.415,166.547Z" transform="translate(-64.765 -88.296)" fill="#a4a4b4" opacity="0.31" style="mix-blend-mode: multiply;isolation: isolate"/>
        <g id="Grupo_107069" data-name="Grupo 107069" transform="translate(11.339 0)" style="mix-blend-mode: multiply;isolation: isolate">
          <path id="Trazado_151849" data-name="Trazado 151849" d="M468.243,606.581l-1.748-2c4.809-6.6,12.485-21.716,9.886-48.9-1.156-12.1-4.024-24.056-6.8-35.616-1.238-5.165-2.519-10.505-3.637-15.808-11.925-56.583-6.708-119,14.311-171.251,1.867-4.637,3.887-9.289,5.842-13.788,5.793-13.337,11.783-27.129,14.359-42.028,4.518-26.144-4.413-45.739-14.622-52.882-9.794-6.856-23.62-5.808-37.93,2.876A177.688,177.688,0,0,0,432.666,238c-6.5,4.965-13.225,10.1-20.445,13.733-28.4,14.3-63.914,2.147-82.6-28.266-8.981-14.615-14.051-32.279-18.955-49.362-1.9-6.619-3.865-13.465-6.025-20.015-6.72-20.364-19.02-45.925-39.452-52.039-17.953-5.375-36.137,6.438-48.227,17.294a149.189,149.189,0,0,0-45.914,79.2c-4.367,20.436-4.543,42.679-4.713,64.19-.253,32.034-.515,65.159-14.93,91.836-6.558,12.136-15.577,21.818-24.3,31.183-8.169,8.77-16.616,17.838-22.912,28.831-14.268,24.907-17.765,60.168-9.6,96.745,7.342,32.863,22.307,62.023,36.779,90.223l-1.989,1.606c-14.567-28.383-29.63-57.734-37.067-91.028-8.366-37.45-4.738-73.637,9.952-99.279,6.463-11.284,15.02-20.469,23.294-29.354,8.6-9.237,17.5-18.789,23.879-30.593,14.015-25.936,14.261-57.151,14.522-90.2.172-21.7.349-44.13,4.8-64.932a152.259,152.259,0,0,1,46.821-80.85c12.49-11.214,31.329-23.4,50.153-17.766,21.4,6.405,34.158,32.788,41.088,53.792,2.183,6.614,4.157,13.493,6.066,20.145,4.842,16.866,9.847,34.308,18.6,48.555,18.063,29.4,52.39,41.147,79.847,27.324,7.036-3.542,13.675-8.611,20.1-13.513a179.094,179.094,0,0,1,15.441-10.954c15.012-9.108,29.633-10.132,40.113-2.8,10.947,7.66,20.555,28.485,15.782,56.1-2.648,15.316-8.721,29.3-14.6,42.821-1.945,4.479-3.958,9.108-5.806,13.7-20.762,51.608-25.915,113.263-14.135,169.153,1.107,5.255,2.382,10.571,3.615,15.713,2.8,11.682,5.7,23.76,6.882,36.118C481.442,583.685,473.323,599.613,468.243,606.581Z" transform="translate(-87.906 -97.739)" fill="#a4a4b4"/>
        </g>
      </g>
      <g id="Enmascarar_grupo_188" data-name="Enmascarar grupo 188" transform="translate(1090.544 3835.959)" clip-path="url(#clip-path)">
        <g id="Grupo_128824" data-name="Grupo 128824" transform="translate(7.691 -102.637)">
          <g id="Grupo_128812" data-name="Grupo 128812" transform="translate(0 92.615)">
            <rect id="Rectángulo_35578" data-name="Rectángulo 35578" width="361.624" height="422.963" transform="translate(7.785 4.334)" fill="#e8f3fc"/>
            <rect id="Rectángulo_35579" data-name="Rectángulo 35579" width="361.624" height="11.556" transform="translate(7.785 384.538)" fill="#050505" opacity="0.16"/>
            <g id="Grupo_128803" data-name="Grupo 128803" transform="translate(248.397 26.002)">
              <rect id="Rectángulo_35580" data-name="Rectángulo 35580" width="106.227" height="65.004" transform="translate(0.754 0.866)" fill="#a7c1ce"/>
              <path id="Trazado_165763" data-name="Trazado 165763" d="M330.335,389.9H224.107a.816.816,0,0,1-.753-.867v-65a.815.815,0,0,1,.753-.867H330.335a.815.815,0,0,1,.753.867v65A.816.816,0,0,1,330.335,389.9Zm-105.474-1.734h104.72V324.9H224.861Z" transform="translate(-223.354 -323.167)" fill="#7d888c"/>
            </g>
            <g id="Grupo_128804" data-name="Grupo 128804" transform="translate(248.397 153.28)">
              <rect id="Rectángulo_35581" data-name="Rectángulo 35581" width="106.227" height="65.004" transform="translate(0.754 0.867)" fill="#a7c1ce"/>
              <path id="Trazado_165764" data-name="Trazado 165764" d="M330.335,433.571H224.107a.816.816,0,0,1-.753-.867v-65a.816.816,0,0,1,.753-.867H330.335a.816.816,0,0,1,.753.867v65A.816.816,0,0,1,330.335,433.571Zm-105.474-1.734h104.72V368.566H224.861Z" transform="translate(-223.354 -366.833)" fill="#7d888c"/>
            </g>
            <g id="Grupo_128805" data-name="Grupo 128805" transform="translate(248.397 269.984)">
              <rect id="Rectángulo_35582" data-name="Rectángulo 35582" width="106.227" height="65.004" transform="translate(0.754 0.867)" fill="#a7c1ce"/>
              <path id="Trazado_165765" data-name="Trazado 165765" d="M330.335,478.238H224.107a.816.816,0,0,1-.753-.867v-65a.816.816,0,0,1,.753-.867H330.335a.816.816,0,0,1,.753.867v65A.816.816,0,0,1,330.335,478.238ZM224.861,476.5h104.72V413.233H224.861Z" transform="translate(-223.354 -411.5)" fill="#7d888c"/>
            </g>
            <g id="Grupo_128806" data-name="Grupo 128806" transform="translate(134.856 26.002)">
              <rect id="Rectángulo_35583" data-name="Rectángulo 35583" width="106.227" height="65.004" transform="translate(0.754 0.866)" fill="#a7c1ce"/>
              <path id="Trazado_165766" data-name="Trazado 165766" d="M254.981,389.9H148.753a.816.816,0,0,1-.753-.867v-65a.815.815,0,0,1,.753-.867H254.981a.815.815,0,0,1,.753.867v65A.816.816,0,0,1,254.981,389.9Zm-105.474-1.734h104.72V324.9H149.507Z" transform="translate(-148 -323.167)" fill="#7d888c"/>
            </g>
            <g id="Grupo_128807" data-name="Grupo 128807" transform="translate(134.856 153.28)">
              <rect id="Rectángulo_35584" data-name="Rectángulo 35584" width="106.227" height="65.004" transform="translate(0.754 0.867)" fill="#a7c1ce"/>
              <path id="Trazado_165767" data-name="Trazado 165767" d="M254.981,433.571H148.753A.816.816,0,0,1,148,432.7v-65a.816.816,0,0,1,.753-.867H254.981a.816.816,0,0,1,.753.867v65A.816.816,0,0,1,254.981,433.571Zm-105.474-1.734h104.72V368.566H149.507Z" transform="translate(-148 -366.833)" fill="#7d888c"/>
            </g>
            <g id="Grupo_133079" data-name="Grupo 133079" transform="translate(134.856 269.983)">
              <rect id="Rectángulo_35584-2" data-name="Rectángulo 35584" width="106.227" height="65.004" transform="translate(0.754 0.867)" fill="#a7c1ce"/>
              <path id="Trazado_165767-2" data-name="Trazado 165767" d="M254.981,433.571H148.753A.816.816,0,0,1,148,432.7v-65a.816.816,0,0,1,.753-.867H254.981a.816.816,0,0,1,.753.867v65A.816.816,0,0,1,254.981,433.571Zm-105.474-1.734h104.72V368.566H149.507Z" transform="translate(-148 -366.833)" fill="#7d888c"/>
            </g>
            <g id="Grupo_128808" data-name="Grupo 128808" transform="translate(19.338 26.002)">
              <rect id="Rectángulo_35586" data-name="Rectángulo 35586" width="106.227" height="65.004" transform="translate(0.752 0.866)" fill="#a7c1ce"/>
              <path id="Trazado_165768" data-name="Trazado 165768" d="M178.315,389.9H72.087a.815.815,0,0,1-.753-.867v-65a.814.814,0,0,1,.753-.867H178.315a.815.815,0,0,1,.753.867v65A.816.816,0,0,1,178.315,389.9ZM72.841,388.171h104.72V324.9H72.841Z" transform="translate(-71.334 -323.167)" fill="#7d888c"/>
            </g>
            <g id="Grupo_128809" data-name="Grupo 128809" transform="translate(19.338 153.28)">
              <rect id="Rectángulo_35587" data-name="Rectángulo 35587" width="106.227" height="65.004" transform="translate(0.752 0.867)" fill="#a7c1ce"/>
              <path id="Trazado_165769" data-name="Trazado 165769" d="M178.315,433.571H72.087a.815.815,0,0,1-.753-.867v-65a.815.815,0,0,1,.753-.867H178.315a.816.816,0,0,1,.753.867v65A.816.816,0,0,1,178.315,433.571ZM72.841,431.837h104.72V368.566H72.841Z" transform="translate(-71.334 -366.833)" fill="#7d888c"/>
            </g>
            <g id="Grupo_128810" data-name="Grupo 128810" transform="translate(19.338 269.984)">
              <rect id="Rectángulo_35588" data-name="Rectángulo 35588" width="106.227" height="65.004" transform="translate(0.752 0.867)" fill="#a7c1ce"/>
              <path id="Trazado_165770" data-name="Trazado 165770" d="M178.315,478.238H72.087a.815.815,0,0,1-.753-.867v-65a.815.815,0,0,1,.753-.867H178.315a.816.816,0,0,1,.753.867v65A.816.816,0,0,1,178.315,478.238ZM72.841,476.5h104.72V413.233H72.841Z" transform="translate(-71.334 -411.5)" fill="#7d888c"/>
            </g>
            <path id="Trazado_165771" data-name="Trazado 165771" d="M284.152,329.667H247.613a2.046,2.046,0,0,0-1.883,2.167h0A2.047,2.047,0,0,0,247.613,334h36.539a2.046,2.046,0,0,0,1.883-2.167h0A2.045,2.045,0,0,0,284.152,329.667Z" transform="translate(36.382 -292.397)" fill="#e8f3fc"/>
            <path id="Trazado_165772" data-name="Trazado 165772" d="M284.152,373.167H247.613a2.046,2.046,0,0,0-1.883,2.167h0a2.047,2.047,0,0,0,1.883,2.167h36.539a2.046,2.046,0,0,0,1.883-2.167h0A2.045,2.045,0,0,0,284.152,373.167Z" transform="translate(36.382 -215.163)" fill="#e8f3fc"/>
            <path id="Trazado_165773" data-name="Trazado 165773" d="M284.152,416.417H247.613a2.046,2.046,0,0,0-1.883,2.167h0a2.047,2.047,0,0,0,1.883,2.167h36.539a2.046,2.046,0,0,0,1.883-2.167h0A2.045,2.045,0,0,0,284.152,416.417Z" transform="translate(36.382 -153.28)" fill="#e8f3fc"/>
            <path id="Trazado_165774" data-name="Trazado 165774" d="M130.152,329.667H93.612a2.046,2.046,0,0,0-1.883,2.167h0A2.047,2.047,0,0,0,93.612,334h36.539a2.046,2.046,0,0,0,1.883-2.167h0A2.045,2.045,0,0,0,130.152,329.667Z" transform="translate(-41.661 -292.397)" fill="#e8f3fc"/>
            <path id="Trazado_165775" data-name="Trazado 165775" d="M130.152,373.167H93.612a2.046,2.046,0,0,0-1.883,2.167h0a2.047,2.047,0,0,0,1.883,2.167h36.539a2.046,2.046,0,0,0,1.883-2.167h0A2.045,2.045,0,0,0,130.152,373.167Z" transform="translate(-41.661 -215.163)" fill="#e8f3fc"/>
            <path id="Trazado_165776" data-name="Trazado 165776" d="M208.152,329.667H171.613a2.046,2.046,0,0,0-1.883,2.167h0A2.047,2.047,0,0,0,171.613,334h36.539a2.046,2.046,0,0,0,1.883-2.167h0A2.045,2.045,0,0,0,208.152,329.667Z" transform="translate(-2.133 -292.397)" fill="#e8f3fc"/>
            <path id="Trazado_165777" data-name="Trazado 165777" d="M208.152,373.167H171.613a2.046,2.046,0,0,0-1.883,2.167h0a2.047,2.047,0,0,0,1.883,2.167h36.539a2.046,2.046,0,0,0,1.883-2.167h0A2.045,2.045,0,0,0,208.152,373.167Z" transform="translate(-2.133 -215.163)" fill="#e8f3fc"/>
            <path id="Trazado_165778" data-name="Trazado 165778" d="M130.152,416.417H93.612a2.046,2.046,0,0,0-1.883,2.167h0a2.047,2.047,0,0,0,1.883,2.167h36.539a2.046,2.046,0,0,0,1.883-2.167h0A2.045,2.045,0,0,0,130.152,416.417Z" transform="translate(-41.661 -153.28)" fill="#e8f3fc"/>
            <g id="Grupo_133078" data-name="Grupo 133078" transform="translate(-117.026 -117.353)">
              <rect id="Rectángulo_35585" data-name="Rectángulo 35585" width="106.227" height="65.004" transform="translate(135.609 270.633)" fill="#475054"/>
              <rect id="Rectángulo_35589" data-name="Rectángulo 35589" width="109.617" height="9.101" transform="translate(134.103 332.929)" fill="#a7c1ce"/>
              <path id="Trazado_165779" data-name="Trazado 165779" d="M150,454.133H251.455s-7.031-8.667-20.591-13.868-13.561-9.822-27.625-9.245S168.081,440.265,150,454.133Z" transform="translate(-12.131 -126.752)" fill="#fff"/>
              <path id="Trazado_165780" data-name="Trazado 165780" d="M166.625,449.516s9.512-1.193,16.574-5.85,5.839-6.826,15.351-6.393,18.835,12.243,18.835,12.243Z" transform="translate(-3.706 -121.075)" fill="#6d6d6d"/>
              <path id="Trazado_165781" data-name="Trazado 165781" d="M198.2,433.229a.661.661,0,0,0-.793.042,2.016,2.016,0,0,0-.538.732c-.08.161-.145.331-.214.5a4.858,4.858,0,0,0-.3-.447,9.107,9.107,0,0,0,.8-1.652,1.876,1.876,0,0,0,.059-1.465,1.022,1.022,0,0,0-.582-.47.9.9,0,0,0-1.061.343,1.851,1.851,0,0,0-.184.536l-.357,1.538c-.1-.062-.2-.12-.309-.175a13.276,13.276,0,0,0,.384-1.839,2.153,2.153,0,0,0-.027-.946.933.933,0,0,0-.817-.669.92.92,0,0,0-.844.626,2.327,2.327,0,0,0-.107.605c-.048.541-.095,1.082-.143,1.622-.167-.043-.336-.078-.5-.109.006-.033.023-.059.026-.092a12.962,12.962,0,0,0,.1-1.694,2.49,2.49,0,0,0-.051-.572,1.087,1.087,0,0,0-.452-.676.7.7,0,0,0-.732-.014,1.124,1.124,0,0,0-.448.77,3.85,3.85,0,0,0,0,.95q.05.6.1,1.2a5.469,5.469,0,0,0-.61.052,8.6,8.6,0,0,1-.166-1.524,5.89,5.89,0,0,0-.107-1.489,1.807,1.807,0,0,0-1.216-1.276,1.559,1.559,0,0,0-1.573.558,2.9,2.9,0,0,0-.438,2.3,8.243,8.243,0,0,0,.874,2.219c.09.179.182.357.274.536a5.3,5.3,0,0,0-.681,3.7c.161,1.293.571,2.529.788,3.812a12.911,12.911,0,0,1-.384,5.9c-.592,1.915-1.645,3.7-1.7,5.734a5.182,5.182,0,0,0,1.948,4.318,3.32,3.32,0,0,0,4.154-.225,7.711,7.711,0,0,0,1.763-3.306,80.522,80.522,0,0,0,3.054-12.531,14.367,14.367,0,0,0,.214-3.886,3.043,3.043,0,0,1,.286-.69c.16-.272.36-.513.512-.792a2.657,2.657,0,0,0,.309-1.1A1.116,1.116,0,0,0,198.2,433.229Z" transform="translate(6.244 -129.638)" fill="#e6b89c"/>
              <path id="Trazado_165782" data-name="Trazado 165782" d="M176.86,433.229a.661.661,0,0,1,.793.042,2.017,2.017,0,0,1,.538.732c.08.161.145.331.214.5a4.867,4.867,0,0,1,.3-.447,9.112,9.112,0,0,1-.8-1.652,1.876,1.876,0,0,1-.059-1.465,1.022,1.022,0,0,1,.582-.47.9.9,0,0,1,1.061.343,1.853,1.853,0,0,1,.184.536l.357,1.538c.1-.062.2-.12.309-.175a13.276,13.276,0,0,1-.384-1.839,2.152,2.152,0,0,1,.027-.946.933.933,0,0,1,.817-.669.92.92,0,0,1,.844.626,2.39,2.39,0,0,1,.107.605c.048.541.095,1.082.143,1.622.167-.043.336-.078.5-.109-.006-.033-.023-.059-.026-.092a12.967,12.967,0,0,1-.1-1.694,2.49,2.49,0,0,1,.051-.572,1.087,1.087,0,0,1,.452-.676.7.7,0,0,1,.732-.014,1.123,1.123,0,0,1,.446.77,3.711,3.711,0,0,1,0,.95l-.095,1.2a5.469,5.469,0,0,1,.61.052,8.606,8.606,0,0,0,.166-1.524,5.89,5.89,0,0,1,.107-1.489,1.8,1.8,0,0,1,1.216-1.276,1.555,1.555,0,0,1,1.572.558,2.893,2.893,0,0,1,.44,2.3,8.24,8.24,0,0,1-.874,2.219l-.274.536a5.3,5.3,0,0,1,.681,3.7c-.161,1.293-.573,2.529-.788,3.812a12.911,12.911,0,0,0,.384,5.9c.591,1.915,1.645,3.7,1.7,5.734a5.182,5.182,0,0,1-1.948,4.318,3.32,3.32,0,0,1-4.154-.225,7.7,7.7,0,0,1-1.763-3.306,80.518,80.518,0,0,1-3.054-12.531,14.366,14.366,0,0,1-.214-3.886,3.041,3.041,0,0,0-.286-.69c-.16-.272-.36-.513-.512-.792a2.66,2.66,0,0,1-.31-1.1A1.121,1.121,0,0,1,176.86,433.229Z" transform="translate(1.327 -129.638)" fill="#e6b89c"/>
              <path id="Trazado_165783" data-name="Trazado 165783" d="M189.624,435.377a.132.132,0,0,1-.105-.056A17.7,17.7,0,0,1,187.4,431.7a.169.169,0,0,1,.075-.211.133.133,0,0,1,.184.085,16.479,16.479,0,0,0,1.9,3.307,17.155,17.155,0,0,0,.487-4.8.156.156,0,0,1,.125-.177c.075-.024.146.056.154.144a17.286,17.286,0,0,1-.567,5.221.15.15,0,0,1-.105.113Z" transform="translate(6.819 -128.674)" fill="#050505"/>
              <path id="Trazado_165784" data-name="Trazado 165784" d="M190.6,434.777l-1.4-2.156-1.2,2.156v5.2h2.6Z" transform="translate(7.128 -129.215)" fill="#d93328"/>
              <path id="Trazado_165785" data-name="Trazado 165785" d="M188.39,433.9h0a.115.115,0,0,0-.106.121v4.339a.114.114,0,0,0,.106.121h0a.115.115,0,0,0,.105-.121v-4.339A.116.116,0,0,0,188.39,433.9Z" transform="translate(7.27 -128.198)" opacity="0.24" fill="url(#linear-gradient)"/>
              <path id="Trazado_165786" data-name="Trazado 165786" d="M188.746,433.9h0a.116.116,0,0,0-.105.121v4.339a.115.115,0,0,0,.105.121h0a.114.114,0,0,0,.105-.121v-4.339A.115.115,0,0,0,188.746,433.9Z" transform="translate(7.451 -128.198)" opacity="0.24" fill="url(#linear-gradient)"/>
              <path id="Trazado_165787" data-name="Trazado 165787" d="M189.089,433.9h0a.116.116,0,0,0-.105.121v4.339a.115.115,0,0,0,.105.121h0a.114.114,0,0,0,.105-.121v-4.339A.115.115,0,0,0,189.089,433.9Z" transform="translate(7.625 -128.198)" opacity="0.24" fill="url(#linear-gradient)"/>
            </g>
            <g id="Grupo_133080" data-name="Grupo 133080" transform="translate(113.352 -244.631)">
              <rect id="Rectángulo_35585-2" data-name="Rectángulo 35585" width="106.227" height="65.004" transform="translate(135.609 270.633)" fill="#475054"/>
              <rect id="Rectángulo_35589-2" data-name="Rectángulo 35589" width="109.617" height="9.101" transform="translate(134.103 332.929)" fill="#a7c1ce"/>
              <path id="Trazado_165779-2" data-name="Trazado 165779" d="M150,454.133H251.455s-7.031-8.667-20.591-13.868-13.561-9.822-27.625-9.245S168.081,440.265,150,454.133Z" transform="translate(-12.131 -126.752)" fill="#fff"/>
              <path id="Trazado_165780-2" data-name="Trazado 165780" d="M166.625,449.516s9.512-1.193,16.574-5.85,5.839-6.826,15.351-6.393,18.835,12.243,18.835,12.243Z" transform="translate(-3.706 -121.075)" fill="#6d6d6d"/>
              <path id="Trazado_165781-2" data-name="Trazado 165781" d="M198.2,433.229a.661.661,0,0,0-.793.042,2.016,2.016,0,0,0-.538.732c-.08.161-.145.331-.214.5a4.858,4.858,0,0,0-.3-.447,9.107,9.107,0,0,0,.8-1.652,1.876,1.876,0,0,0,.059-1.465,1.022,1.022,0,0,0-.582-.47.9.9,0,0,0-1.061.343,1.851,1.851,0,0,0-.184.536l-.357,1.538c-.1-.062-.2-.12-.309-.175a13.276,13.276,0,0,0,.384-1.839,2.153,2.153,0,0,0-.027-.946.933.933,0,0,0-.817-.669.92.92,0,0,0-.844.626,2.327,2.327,0,0,0-.107.605c-.048.541-.095,1.082-.143,1.622-.167-.043-.336-.078-.5-.109.006-.033.023-.059.026-.092a12.962,12.962,0,0,0,.1-1.694,2.49,2.49,0,0,0-.051-.572,1.087,1.087,0,0,0-.452-.676.7.7,0,0,0-.732-.014,1.124,1.124,0,0,0-.448.77,3.85,3.85,0,0,0,0,.95q.05.6.1,1.2a5.469,5.469,0,0,0-.61.052,8.6,8.6,0,0,1-.166-1.524,5.89,5.89,0,0,0-.107-1.489,1.807,1.807,0,0,0-1.216-1.276,1.559,1.559,0,0,0-1.573.558,2.9,2.9,0,0,0-.438,2.3,8.243,8.243,0,0,0,.874,2.219c.09.179.182.357.274.536a5.3,5.3,0,0,0-.681,3.7c.161,1.293.571,2.529.788,3.812a12.911,12.911,0,0,1-.384,5.9c-.592,1.915-1.645,3.7-1.7,5.734a5.182,5.182,0,0,0,1.948,4.318,3.32,3.32,0,0,0,4.154-.225,7.711,7.711,0,0,0,1.763-3.306,80.522,80.522,0,0,0,3.054-12.531,14.367,14.367,0,0,0,.214-3.886,3.043,3.043,0,0,1,.286-.69c.16-.272.36-.513.512-.792a2.657,2.657,0,0,0,.309-1.1A1.116,1.116,0,0,0,198.2,433.229Z" transform="translate(6.244 -129.638)" fill="#e6b89c"/>
              <path id="Trazado_165782-2" data-name="Trazado 165782" d="M176.86,433.229a.661.661,0,0,1,.793.042,2.017,2.017,0,0,1,.538.732c.08.161.145.331.214.5a4.867,4.867,0,0,1,.3-.447,9.112,9.112,0,0,1-.8-1.652,1.876,1.876,0,0,1-.059-1.465,1.022,1.022,0,0,1,.582-.47.9.9,0,0,1,1.061.343,1.853,1.853,0,0,1,.184.536l.357,1.538c.1-.062.2-.12.309-.175a13.276,13.276,0,0,1-.384-1.839,2.152,2.152,0,0,1,.027-.946.933.933,0,0,1,.817-.669.92.92,0,0,1,.844.626,2.39,2.39,0,0,1,.107.605c.048.541.095,1.082.143,1.622.167-.043.336-.078.5-.109-.006-.033-.023-.059-.026-.092a12.967,12.967,0,0,1-.1-1.694,2.49,2.49,0,0,1,.051-.572,1.087,1.087,0,0,1,.452-.676.7.7,0,0,1,.732-.014,1.123,1.123,0,0,1,.446.77,3.711,3.711,0,0,1,0,.95l-.095,1.2a5.469,5.469,0,0,1,.61.052,8.606,8.606,0,0,0,.166-1.524,5.89,5.89,0,0,1,.107-1.489,1.8,1.8,0,0,1,1.216-1.276,1.555,1.555,0,0,1,1.572.558,2.893,2.893,0,0,1,.44,2.3,8.24,8.24,0,0,1-.874,2.219l-.274.536a5.3,5.3,0,0,1,.681,3.7c-.161,1.293-.573,2.529-.788,3.812a12.911,12.911,0,0,0,.384,5.9c.591,1.915,1.645,3.7,1.7,5.734a5.182,5.182,0,0,1-1.948,4.318,3.32,3.32,0,0,1-4.154-.225,7.7,7.7,0,0,1-1.763-3.306,80.518,80.518,0,0,1-3.054-12.531,14.366,14.366,0,0,1-.214-3.886,3.041,3.041,0,0,0-.286-.69c-.16-.272-.36-.513-.512-.792a2.66,2.66,0,0,1-.31-1.1A1.121,1.121,0,0,1,176.86,433.229Z" transform="translate(1.327 -129.638)" fill="#e6b89c"/>
              <path id="Trazado_165783-2" data-name="Trazado 165783" d="M189.624,435.377a.132.132,0,0,1-.105-.056A17.7,17.7,0,0,1,187.4,431.7a.169.169,0,0,1,.075-.211.133.133,0,0,1,.184.085,16.479,16.479,0,0,0,1.9,3.307,17.155,17.155,0,0,0,.487-4.8.156.156,0,0,1,.125-.177c.075-.024.146.056.154.144a17.286,17.286,0,0,1-.567,5.221.15.15,0,0,1-.105.113Z" transform="translate(6.819 -128.674)" fill="#050505"/>
              <path id="Trazado_165784-2" data-name="Trazado 165784" d="M190.6,434.777l-1.4-2.156-1.2,2.156v5.2h2.6Z" transform="translate(7.128 -129.215)" fill="#d93328"/>
              <path id="Trazado_165785-2" data-name="Trazado 165785" d="M188.39,433.9h0a.115.115,0,0,0-.106.121v4.339a.114.114,0,0,0,.106.121h0a.115.115,0,0,0,.105-.121v-4.339A.116.116,0,0,0,188.39,433.9Z" transform="translate(7.27 -128.198)" opacity="0.24" fill="url(#linear-gradient)"/>
              <path id="Trazado_165786-2" data-name="Trazado 165786" d="M188.746,433.9h0a.116.116,0,0,0-.105.121v4.339a.115.115,0,0,0,.105.121h0a.114.114,0,0,0,.105-.121v-4.339A.115.115,0,0,0,188.746,433.9Z" transform="translate(7.451 -128.198)" opacity="0.24" fill="url(#linear-gradient)"/>
              <path id="Trazado_165787-2" data-name="Trazado 165787" d="M189.089,433.9h0a.116.116,0,0,0-.105.121v4.339a.115.115,0,0,0,.105.121h0a.114.114,0,0,0,.105-.121v-4.339A.115.115,0,0,0,189.089,433.9Z" transform="translate(7.625 -128.198)" opacity="0.24" fill="url(#linear-gradient)"/>
            </g>
            <g id="Grupo_128811" data-name="Grupo 128811" transform="translate(359.04 148.829)">
              <path id="Trazado_165788" data-name="Trazado 165788" d="M296.785,424.643c0,2.945,2.375,5.251,5.042,4.524a4.331,4.331,0,0,0,2.926-3.309,4.821,4.821,0,0,0-2.525-5.575V365.351h-2.783v54.933A4.659,4.659,0,0,0,296.785,424.643Z" transform="translate(-296.785 -365.351)" fill="#bacff4"/>
              <path id="Trazado_165789" data-name="Trazado 165789" d="M297.915,400.672a2.362,2.362,0,1,0,2.34-2.692A2.533,2.533,0,0,0,297.915,400.672Z" transform="translate(-296.212 -341.419)" fill="#d93328"/>
              <rect id="Rectángulo_35590" data-name="Rectángulo 35590" width="1.048" height="55.899" rx="0.216" transform="translate(4.566 57.123) rotate(180)" fill="#d93328"/>
              <ellipse id="Elipse_4451" data-name="Elipse 4451" cx="1.606" cy="1.848" rx="1.606" ry="1.848" transform="translate(3.972 58.529)" fill="#fff" opacity="0.47"/>
            </g>
            <rect id="Rectángulo_35591" data-name="Rectángulo 35591" width="377.822" height="6.934" transform="translate(0 381.938)" fill="#fff"/>
            <rect id="Rectángulo_35592" data-name="Rectángulo 35592" width="361.624" height="11.556" transform="translate(7.785 2.6)" fill="#050505" opacity="0.16"/>
            <rect id="Rectángulo_35593" data-name="Rectángulo 35593" width="377.822" height="6.934" fill="#fff"/>
            <path id="Trazado_165790" data-name="Trazado 165790" d="M290.818,465.167h0a1.432,1.432,0,0,0-1.318,1.517v26.146a1.433,1.433,0,0,0,1.318,1.517h0a1.433,1.433,0,0,0,1.319-1.517V466.684A1.432,1.432,0,0,0,290.818,465.167Z" transform="translate(58.563 -71.672)" fill="#050505" opacity="0.53"/>
            <path id="Trazado_165791" data-name="Trazado 165791" d="M287.9,465.167h0a1.432,1.432,0,0,0-1.318,1.517v26.146a1.433,1.433,0,0,0,1.318,1.517h0a1.432,1.432,0,0,0,1.318-1.517V466.684A1.431,1.431,0,0,0,287.9,465.167Z" transform="translate(57.085 -71.672)" fill="#050505" opacity="0.53"/>
            <path id="Trazado_165792" data-name="Trazado 165792" d="M285.068,465.167h0a1.432,1.432,0,0,0-1.318,1.517v26.146a1.433,1.433,0,0,0,1.318,1.517h0a1.433,1.433,0,0,0,1.318-1.517V466.684A1.432,1.432,0,0,0,285.068,465.167Z" transform="translate(55.649 -71.672)" fill="#050505" opacity="0.53"/>
            <path id="Trazado_165793" data-name="Trazado 165793" d="M230.818,465.167h0a1.432,1.432,0,0,0-1.318,1.517v26.146a1.433,1.433,0,0,0,1.318,1.517h0a1.433,1.433,0,0,0,1.318-1.517V466.684A1.432,1.432,0,0,0,230.818,465.167Z" transform="translate(28.157 -71.672)" fill="#050505" opacity="0.53"/>
            <path id="Trazado_165794" data-name="Trazado 165794" d="M227.9,465.167h0a1.432,1.432,0,0,0-1.318,1.517v26.146a1.433,1.433,0,0,0,1.318,1.517h0a1.432,1.432,0,0,0,1.318-1.517V466.684A1.431,1.431,0,0,0,227.9,465.167Z" transform="translate(26.679 -71.672)" fill="#050505" opacity="0.53"/>
            <path id="Trazado_165795" data-name="Trazado 165795" d="M225.068,465.167h0a1.432,1.432,0,0,0-1.318,1.517v26.146a1.433,1.433,0,0,0,1.318,1.517h0a1.433,1.433,0,0,0,1.318-1.517V466.684A1.432,1.432,0,0,0,225.068,465.167Z" transform="translate(25.243 -71.672)" fill="#050505" opacity="0.53"/>
            <path id="Trazado_165796" data-name="Trazado 165796" d="M142.151,465.167h0a1.432,1.432,0,0,0-1.318,1.517v26.146a1.433,1.433,0,0,0,1.318,1.517h0a1.432,1.432,0,0,0,1.318-1.517V466.684A1.431,1.431,0,0,0,142.151,465.167Z" transform="translate(-16.776 -71.672)" fill="#050505" opacity="0.53"/>
            <path id="Trazado_165797" data-name="Trazado 165797" d="M139.235,465.167h0a1.432,1.432,0,0,0-1.318,1.517v26.146a1.433,1.433,0,0,0,1.318,1.517h0a1.433,1.433,0,0,0,1.318-1.517V466.684A1.432,1.432,0,0,0,139.235,465.167Z" transform="translate(-18.254 -71.672)" fill="#050505" opacity="0.53"/>
            <path id="Trazado_165798" data-name="Trazado 165798" d="M136.4,465.167h0a1.432,1.432,0,0,0-1.318,1.517v26.146a1.433,1.433,0,0,0,1.318,1.517h0a1.432,1.432,0,0,0,1.318-1.517V466.684A1.431,1.431,0,0,0,136.4,465.167Z" transform="translate(-19.69 -71.672)" fill="#050505" opacity="0.53"/>
            <rect id="Rectángulo_35594" data-name="Rectángulo 35594" width="2.637" height="29.18" rx="0.875" transform="translate(29.633 393.495)" fill="#050505" opacity="0.53"/>
            <path id="Trazado_165799" data-name="Trazado 165799" d="M76.568,465.167h0a1.432,1.432,0,0,0-1.318,1.517v26.146a1.433,1.433,0,0,0,1.318,1.517h0a1.433,1.433,0,0,0,1.318-1.517V466.684A1.432,1.432,0,0,0,76.568,465.167Z" transform="translate(-50.012 -71.672)" fill="#050505" opacity="0.53"/>
            <path id="Trazado_165800" data-name="Trazado 165800" d="M73.735,465.167h0a1.431,1.431,0,0,0-1.318,1.517v26.146a1.432,1.432,0,0,0,1.318,1.517h0a1.433,1.433,0,0,0,1.318-1.517V466.684A1.432,1.432,0,0,0,73.735,465.167Z" transform="translate(-51.447 -71.672)" fill="#050505" opacity="0.53"/>
          </g>
          <g id="Grupo_128823" data-name="Grupo 128823" transform="translate(42.88 0)">
            <path id="Trazado_170392" data-name="Trazado 170392" d="M0,0,17.831-.053l-.176,67.89L-.176,67.89Z" transform="matrix(1, -0.02, 0.02, 1, 110.082, 166.948)" fill="#868695"/>
            <path id="Trazado_170390" data-name="Trazado 170390" d="M0,0,18.9-1.314,5.7,194l-18.9,1.314Z" transform="translate(0 12.978) rotate(-39.248)" fill="#868695"/>
            <g id="Grupo_128822" data-name="Grupo 128822" transform="translate(67.621 221.609)">
              <g id="Grupo_128821" data-name="Grupo 128821">
                <path id="Trazado_165810" data-name="Trazado 165810" d="M410.579,369.231c27.167-.451,49.439-7.022,52.11-15.024l-.062-27.508c-.294-8.27-23.837-14.573-52.758-14.093s-52.3,7.561-52.383,15.839l.628,27.5C360.985,363.852,383.413,369.683,410.579,369.231Z" transform="translate(-357.486 -312.58)" fill="#d7e9f4"/>
                <path id="Trazado_165811" data-name="Trazado 165811" d="M462.547,345.18l-.027-12.238c-1.623-5.644-24.408-12.3-52.127-11.839s-50.79,5.75-52.7,13.58l.28,12.234c2.87,7.908,25.3,13.74,52.464,13.287S459.877,353.182,462.547,345.18Z" transform="translate(-357.381 -306.346)" fill="#515151" opacity="0.15"/>
                <path id="Trazado_165812" data-name="Trazado 165812" d="M462.573,347.494l-.027-12.238c-2.1-7.762-24.869-13.533-52.588-13.074S359.629,329.166,357.72,337l.28,12.235c2.869,7.908,25.3,13.739,52.464,13.287S459.9,355.5,462.573,347.494Z" transform="translate(-357.367 -305.557)" fill="#fff"/>
              </g>
              <path id="Trazado_165813" data-name="Trazado 165813" d="M399.139,336.575c-12.428.671-22.609-1.411-22.742-4.649s9.836-6.409,22.264-7.081,22.609,1.411,22.742,4.651S411.567,335.9,399.139,336.575Z" transform="translate(-347.903 -303.677)" fill="#f7b242"/>
              <path id="Trazado_165814" data-name="Trazado 165814" d="M394.789,342.771c-6.215.335-11.334-1.338-11.432-3.737s4.862-4.616,11.078-4.953,11.334,1.338,11.432,3.737S401,342.435,394.789,342.771Z" transform="translate(-344.376 -296.842)" fill="#f7b242"/>
              <path id="Trazado_165815" data-name="Trazado 165815" d="M419.358,344.154c-10.125.548-18.441-1.635-18.574-4.874s7.969-6.308,18.095-6.854,18.443,1.635,18.574,4.875S429.484,343.608,419.358,344.154Z" transform="translate(-335.544 -298.086)" fill="#f7b242"/>
              <path id="Trazado_165816" data-name="Trazado 165816" d="M376.006,345.375c-9.478-.244-17.109-3.074-17.046-6.315s7.8-5.67,17.277-5.424,17.109,3.073,17.046,6.315S385.484,345.621,376.006,345.375Z" transform="translate(-356.739 -297.149)" fill="#f7b242"/>
              <path id="Trazado_165817" data-name="Trazado 165817" d="M395.8,346.72c-8.748.471-15.9-.548-15.967-2.28s6.963-3.517,15.711-3.99,15.9.548,15.967,2.279S404.542,346.246,395.8,346.72Z" transform="translate(-346.164 -292.224)" fill="#f7b242"/>
            </g>
            <path id="Trazado_170391" data-name="Trazado 170391" d="M11.394-.511C17.687-.793,22.56,3.578,22.278,9.253s-5.612,10.5-11.905,10.785S-.793,15.949-.511,10.275,5.1-.229,11.394-.511Z" transform="translate(106.049 172.623) rotate(-68.813)" fill="#d7e9f4"/>
            <path id="Trazado_165818" data-name="Trazado 165818" d="M400.039,278.3a7.04,7.04,0,0,0-10.9-.794,9.841,9.841,0,0,0-.69,12.538,7.04,7.04,0,0,0,10.9.794A9.841,9.841,0,0,0,400.039,278.3Z" transform="translate(-275.15 -118.322)" fill="#fff"/>
          </g>
        </g>
        <path id="Rectángulo_36353" data-name="Rectángulo 36353" d="M.853,0H390.179a.853.853,0,0,1,.853.853v0a.853.853,0,0,1-.853.853H.853A.853.853,0,0,1,0,.854v0A.853.853,0,0,1,.853,0Z" transform="translate(0.772 466.351)" fill="#1d272b"/>
        <path id="Rectángulo_36354" data-name="Rectángulo 36354" d="M.853,0H390.179a.853.853,0,0,1,.853.853v0a.853.853,0,0,1-.853.853H.853A.853.853,0,0,1,0,.854v0A.853.853,0,0,1,.853,0Z" transform="translate(0.772 417.351)" fill="#e8e8e8"/>
      </g>
      <g id="Grupo_128825" data-name="Grupo 128825" transform="translate(1328.466 3969.751)">
        <path id="Trazado_150797" data-name="Trazado 150797" d="M246.222,449.14c-11.039,0-26.117-9.836-30.99-13.232l6.019-8.64c9.075,6.313,21.807,12.405,25.951,11.273,3.386-3,8.886-43.482,14.151-50.227l4.928,6.721c-1.3,22.3-5,49.67-15.333,53.361A14.052,14.052,0,0,1,246.222,449.14Z" transform="translate(-187.307 -308.354)" fill="#dfebf4"/>
        <path id="Trazado_150798" data-name="Trazado 150798" d="M229.936,414.5s-9.014-10.955-9.683-12.34-2.843-1.661-2.335.069a16.046,16.046,0,0,0,2.43,4.123l-10.075-6.982s-1.335-1.129-2.054-.455,1.366,2.135,1.366,2.135l6.4,4.873-7.835-4.107s-1.667-.774-2.135.013,1.582,1.827,1.582,1.827l7.5,4.589-8.009-3.507s-2-.877-2.422.074,2.448,2.106,2.448,2.106l7.485,3.794-4.621-.874s-.819-.116-.658.587,1.2.972,1.2.972,13.216,6.548,15.557,6.94,2.5.195,2.5.195l1.306-3.736Z" transform="translate(-204.625 -291.402)" fill="#bc8364"/>
        <rect id="Rectángulo_34018" data-name="Rectángulo 34018" width="10.364" height="15.99" transform="matrix(-1, -0.017, 0.017, -1, 99.442, 80.158)" fill="#bc8364"/>
        <g id="Grupo_91805" data-name="Grupo 91805" transform="translate(87.031 302.721)">
          <path id="Trazado_150799" data-name="Trazado 150799" d="M262.048,472.925a12.58,12.58,0,0,0,0,6.719c1.085,3.02,4.32,2.341,5.829,6.656v.479a4.107,4.107,0,0,1-3.839,4.112c-2.075.126-3.831.121-5.929,1.59-4.315,3.02-.771,12.99-6.624,12.8-3.475-.116-13.8,0-13.8,0s5.608-3.528,7.98-4.607,10.723-27.747,10.723-27.747Z" transform="translate(-237.682 -472.925)" fill="#bc8364"/>
          <path id="Trazado_150800" data-name="Trazado 150800" d="M263.341,475.875a9.816,9.816,0,0,1,4.536,5.608v.479a4.106,4.106,0,0,1-3.839,4.112c-2.075.126-3.125,1.324-5.223,2.793-4.312,3.02-1.477,11.787-7.33,11.594-3.475-.116-13.8,0-13.8,0s5.389-4.894,7.98-4.607C256.309,497.029,259.684,481.346,263.341,475.875Z" transform="translate(-237.682 -468.109)" fill="#d93328"/>
          <path id="Trazado_150801" data-name="Trazado 150801" d="M247.064,480.268a78.105,78.105,0,0,1,.032,14.951h1.351s.906-12.113,2.317-14.783S247.064,480.268,247.064,480.268Z" transform="translate(-222.364 -462.674)" fill="#d93328"/>
        </g>
        <g id="Grupo_91806" data-name="Grupo 91806" transform="translate(58.318 298.59)">
          <path id="Trazado_150802" data-name="Trazado 150802" d="M252.437,471.356s-2.377,7.83-1.293,10.85,4.318,2.34,5.826,6.656v.479a4.106,4.106,0,0,1-3.839,4.112c-2.072.126-3.831.121-5.929,1.59-4.312,3.02-.771,12.99-6.624,12.8-3.475-.116-13.8,0-13.8,0s5.608-3.528,7.98-4.607S246,475.713,246,475.713Z" transform="translate(-226.776 -471.356)" fill="#bc8364"/>
          <path id="Trazado_150803" data-name="Trazado 150803" d="M252.435,475.875a9.817,9.817,0,0,1,4.536,5.608v.479a4.106,4.106,0,0,1-3.839,4.112c-2.072.126-3.125,1.324-5.223,2.793-4.312,3.02-1.477,11.787-7.33,11.594-3.475-.116-13.8,0-13.8,0s5.392-4.894,7.982-4.607C245.4,497.029,248.778,481.346,252.435,475.875Z" transform="translate(-226.776 -463.978)" fill="#d93328"/>
          <path id="Trazado_150804" data-name="Trazado 150804" d="M236.158,480.268a78.1,78.1,0,0,1,.032,14.951h1.351s.906-12.113,2.317-14.783S236.158,480.268,236.158,480.268Z" transform="translate(-211.458 -458.543)" fill="#d93328"/>
        </g>
        <path id="Trazado_150805" data-name="Trazado 150805" d="M242.866,411.932c8.617,2.372,17.5,2.538,26.414,2.949,6.145,5.866,16.681,12.829,18.353,20.409,2.312,10.481-3.312,21.012-3.312,21.012l-5.937,49.351s15.918,3.323-1.424,71.579l-8.354,9.3s3.6-60.537-.785-77.637c-11-42.9-6.016-57.968-8.957-60.321-5.344-4.273-5.971.658-5.971.658l-4.82,55.332s15.767,15.141.513,75.031l-6.779,5.676s-.061-60.171-4.373-77.289c-1.993-7.922-12.669-53.818-8-70.276C231.758,429.522,240.18,416.092,242.866,411.932Z" transform="translate(-166.026 -269.79)" fill="#bc8364"/>
        <path id="Trazado_150806" data-name="Trazado 150806" d="M229.128,442.424l3.862,24.758h45.872l2.049-36.5Z" transform="translate(-164.618 -239.171)" fill="#1d272b"/>
        <path id="Trazado_150807" data-name="Trazado 150807" d="M264.9,446.3c.2,1.311,16.162,19.393,17.416,20.888-25.914,6.945-48.772,3.6-51.075,1.1,2.522-6.937,12-20.309,12-20.309l-7.461-23.968c-9-3.033-6.089-11.984-6.089-11.984,7.564-5.221,9.049-23.194,9.049-23.194l22.434-.645s17.668,1.951,20,3.638-1.5,18.908-1.5,18.908S263.838,439.289,264.9,446.3Z" transform="translate(-164.442 -308.555)" fill="#e6b89c"/>
        <path id="Trazado_150808" data-name="Trazado 150808" d="M282.637,525.787c-.237.045-13.872,2.7-24.54,1.917-.208-.629-4.623-13.661-4.623-13.661l-2.154,13.4c-5.726-.3-14.23.061-19.6-1.89-3.146-16.708-5-39.083-2.125-49.2a54.821,54.821,0,0,1,3.636-8.833c1.651-4.115,5.347-10.084,8.156-14.362.656-1.048,1.685-2.569,1.706-2.562a7.9,7.9,0,0,0,1.316-2.759L237.238,424.5c-9-3.033-5.81-12.592-5.81-12.592,7.564-5.221,9.049-23.2,9.049-23.2l22.434-.642s17.668,1.951,20,3.635-1.14,19.556-1.14,19.556-16.189,27.9-15.131,34.918c.174,1.135,12.174,14.854,16.2,19.474,2.435,2.654,4.323,5.421,4.955,8.277,2.312,10.481-1.609,22.847-1.609,22.847Z" transform="translate(-166.185 -308.749)" fill="#fff"/>
        <path id="Trazado_150809" data-name="Trazado 150809" d="M237.229,399.772s8.4,6.5,18.069.892C255.3,400.664,245.03,412.965,237.229,399.772Z" transform="translate(-151.391 -289.644)" fill="#020202" opacity="0.23"/>
        <path id="Trazado_150810" data-name="Trazado 150810" d="M256.581,388.553l5.99.787L250.8,404.368l3.889,1.577-15.765,15.238-3.678-18.077,2.838-.629-2.838-14.293S253.637,388.079,256.581,388.553Z" transform="translate(-154.63 -308.58)" fill="#dfebf4"/>
        <path id="Trazado_150811" data-name="Trazado 150811" d="M254.3,388.845l-17.658,32.63,1.893-33.262S248.15,387.426,254.3,388.845Z" transform="translate(-152.349 -308.872)" fill="#d93328"/>
        <path id="Trazado_150812" data-name="Trazado 150812" d="M245.49,387.958c-.787-.021-9,2.093-9,2.093s2.986,2.8,8.3-.611c0,0,2.733,4.534,11.866,1.353C256.656,390.794,246.28,387.977,245.49,387.958Z" transform="translate(-152.591 -308.934)" fill="#4b4b4c" opacity="0.49"/>
        <path id="Trazado_150813" data-name="Trazado 150813" d="M252.31,386.48s-5.945,2.693-6.732,2.675-3.509-2.52-3.509-2.52l-5.639,5.745s3.109,1.806,8.42-1.608c0,0,1.83,3.638,11.766,2.43C256.614,393.2,254.556,391.356,252.31,386.48Z" transform="translate(-152.697 -311.347)" fill="#d93328"/>
        <path id="Trazado_150814" data-name="Trazado 150814" d="M235.8,403.041a1.364,1.364,0,1,1,1.387,1.337A1.364,1.364,0,0,1,235.8,403.041Z" transform="translate(-153.732 -286.573)" fill="#666"/>
        <path id="Trazado_150815" data-name="Trazado 150815" d="M235.855,406.355a1.364,1.364,0,1,1,1.388,1.337A1.362,1.362,0,0,1,235.855,406.355Z" transform="translate(-153.635 -281.162)" fill="#666"/>
        <path id="Trazado_150816" data-name="Trazado 150816" d="M235.915,409.668a1.363,1.363,0,1,1,1.388,1.34A1.362,1.362,0,0,1,235.915,409.668Z" transform="translate(-153.537 -275.753)" fill="#666"/>
        <path id="Trazado_150817" data-name="Trazado 150817" d="M235.889,412.772a1.363,1.363,0,1,1,1.4,1.327A1.364,1.364,0,0,1,235.889,412.772Z" transform="translate(-153.579 -270.706)" fill="#666"/>
        <path id="Trazado_150818" data-name="Trazado 150818" d="M235.977,416.084a1.364,1.364,0,1,1,1.4,1.327A1.362,1.362,0,0,1,235.977,416.084Z" transform="translate(-153.435 -265.296)" fill="#666"/>
        <path id="Trazado_150819" data-name="Trazado 150819" d="M236.065,419.4a1.364,1.364,0,1,1,1.4,1.327A1.362,1.362,0,0,1,236.065,419.4Z" transform="translate(-153.292 -259.886)" fill="#666"/>
        <path id="Trazado_150820" data-name="Trazado 150820" d="M236.341,423.132a1.363,1.363,0,1,1,1.4,1.327A1.362,1.362,0,0,1,236.341,423.132Z" transform="translate(-152.841 -253.788)" fill="#666"/>
        <path id="Trazado_150821" data-name="Trazado 150821" d="M236.548,426.686a1.364,1.364,0,1,1,1.4,1.327A1.366,1.366,0,0,1,236.548,426.686Z" transform="translate(-152.503 -247.988)" fill="#666"/>
        <path id="Trazado_150822" data-name="Trazado 150822" d="M236.637,429.877a1.363,1.363,0,1,1,1.4,1.327A1.362,1.362,0,0,1,236.637,429.877Z" transform="translate(-152.358 -242.773)" fill="#666"/>
        <path id="Trazado_150823" data-name="Trazado 150823" d="M236.939,432.714a1.364,1.364,0,1,1,1.4,1.324A1.366,1.366,0,0,1,236.939,432.714Z" transform="translate(-151.865 -238.146)" fill="#666"/>
        <path id="Trazado_150824" data-name="Trazado 150824" d="M237.147,436.144a1.364,1.364,0,1,1,1.4,1.327A1.362,1.362,0,0,1,237.147,436.144Z" transform="translate(-151.525 -232.541)" fill="#666"/>
        <path id="Rectángulo_34019" data-name="Rectángulo 34019" d="M3.129,0H14.1a3.13,3.13,0,0,1,3.13,3.13V22.489a0,0,0,0,1,0,0H0a0,0,0,0,1,0,0V3.129A3.129,3.129,0,0,1,3.129,0Z" transform="translate(109.391 185.894) rotate(-179.191)" fill="#dfebf4"/>
        <path id="Rectángulo_34020" data-name="Rectángulo 34020" d="M1.87,0h9.008a1.871,1.871,0,0,1,1.871,1.871V18.9a0,0,0,0,1,0,0H0a0,0,0,0,1,0,0V1.87A1.87,1.87,0,0,1,1.87,0Z" transform="matrix(-1, -0.014, 0.014, -1, 77.564, 183.008)" fill="#dfebf4"/>
        <path id="Trazado_150825" data-name="Trazado 150825" d="M271.555,411.816a2.639,2.639,0,0,0,1.8-3.214c1.582.153,2.754-1.385,3.586-2.741q.47-.77.942-1.54a4.265,4.265,0,0,0,.906-2.885,4.247,4.247,0,0,1-.261-1.345c.134-.958,1.506-1.488,1.406-2.451-.04-.4-.34-.727-.408-1.122-.2-1.187,1.669-1.893,1.611-3.1-.032-.624-.59-1.111-.685-1.73-.192-1.269,1.6-2.383,1.069-3.551-.163-.361-.521-.6-.711-.95-.521-.951.408-2.088.295-3.167-.142-1.39-1.94-2.241-1.906-3.639.013-.55.326-1.119.116-1.63a1.742,1.742,0,0,0-.619-.666q-1.236-.924-2.47-1.851a3.789,3.789,0,0,0,3.233-1.19,7.17,7.17,0,0,1,.916-1,19.813,19.813,0,0,1,1.885-.824c1.3-.771,1.461-2.554,1.472-4.065a4.9,4.9,0,0,0-.674-3.109,2.092,2.092,0,0,1-.84-2.275,2.459,2.459,0,0,0-3.207-2.161,2.982,2.982,0,0,0-1.725-2.9,8.77,8.77,0,0,0-3.5-.742,3.578,3.578,0,0,0-1.656.145,1.223,1.223,0,0,0-.79,1.322,2.624,2.624,0,0,1-1.685-.029,2.348,2.348,0,0,0-1.674.039c-.5.282-.658,1.132-.147,1.393a1.358,1.358,0,0,0-1.961,1.84,3.564,3.564,0,0,0-2.425.166c-.708.427-.932,1.648-.2,2.033-.8.087-.9,1.235-.635,2s.6,1.722.016,2.275a7.944,7.944,0,0,0-3.22-.785,2.709,2.709,0,0,0-2.57,1.772,3.817,3.817,0,0,0-4.568-.166c-1.564-1.285-3.886-.461-5.71.408l-2,.956a4.789,4.789,0,0,0-1.888,1.311,9.955,9.955,0,0,0-3.367.171,3.387,3.387,0,0,0-2.412,2.172,2.312,2.312,0,0,1-.316.887,1.373,1.373,0,0,1-.756.405c-.8.2-1.638.205-2.422.456a2.166,2.166,0,0,0-1.627,1.661c-.053.545.195,1.143-.084,1.611-.19.313-.566.466-.793.756-.748.948.569,2.369.134,3.5-.242.627-1,1.077-.916,1.74.055.406.419.693.59,1.064.458,1-.571,2.056-.627,3.154-.05.987.687,1.811,1.153,2.685a5.25,5.25,0,0,1,.5,3.481,2.114,2.114,0,0,0-.066,1.119c.205.577.908.766,1.374,1.161.964.811.79,2.306,1.1,3.525.437,1.709,1.888,2.938,3.257,4.049,4.3,3.486,8.675,7.014,13.732,9.273s10.976,3.135,16.155,1.164l-.613-.856a3.237,3.237,0,0,0,3.107-2.54,2.171,2.171,0,0,1,.253-.871C270.354,411.953,271.012,411.953,271.555,411.816Z" transform="translate(-163.075 -357.942)" fill="#35302c"/>
        <path id="Trazado_150826" data-name="Trazado 150826" d="M271.335,399.908c.687.208-8.578,15.4-19.9,16.642-10.491,1.153-17.771-20.894-17.779-20.928-.161-.761-2.08-14.514-2.749-21.257-.69-6.94,32.083-18.3,40.455.258,1.314,2.912.384,19.224.384,19.224s4.307-3.209,4.794,2.835C276.724,398.931,271.335,399.908,271.335,399.908Z" transform="translate(-161.728 -347.208)" fill="#bc8364"/>
        <path id="Trazado_150827" data-name="Trazado 150827" d="M241.691,373.858a1.381,1.381,0,0,0,1.5-.885,1.326,1.326,0,0,1-.4,1.119.924.924,0,0,0,1.093-.271,1.036,1.036,0,0,1-.569.885,2.993,2.993,0,0,1-1.058.3.413.413,0,0,1-.271-.016.441.441,0,0,1-.176-.3l-.176-.682" transform="translate(-144.2 -333.4)" fill="#1a1a1a"/>
        <path id="Trazado_150828" data-name="Trazado 150828" d="M240.016,376.165a2.789,2.789,0,1,1,3.12,2.414A2.787,2.787,0,0,1,240.016,376.165Z" transform="translate(-146.878 -333.315)" fill="#333"/>
        <path id="Trazado_150829" data-name="Trazado 150829" d="M234.8,374.929a1.356,1.356,0,0,1-1.409-1.072,1.481,1.481,0,0,0,.287,1.232.874.874,0,0,1-1.064-.379,1.111,1.111,0,0,0,.477,1,2.871,2.871,0,0,0,1.027.405.415.415,0,0,0,.271.005.5.5,0,0,0,.205-.305l.247-.719" transform="translate(-158.932 -331.957)" fill="#1a1a1a"/>
        <path id="Trazado_150830" data-name="Trazado 150830" d="M233.245,376.631a2.5,2.5,0,1,1,2.73,2.238A2.494,2.494,0,0,1,233.245,376.631Z" transform="translate(-157.917 -331.901)" fill="#333"/>
        <path id="Trazado_150831" data-name="Trazado 150831" d="M240.562,374.292a.822.822,0,1,1,.919.714A.825.825,0,0,1,240.562,374.292Z" transform="translate(-145.96 -332.758)" fill="#fff" opacity="0.43"/>
        <path id="Trazado_150832" data-name="Trazado 150832" d="M233.488,375.195a.679.679,0,1,1,.742.608A.679.679,0,0,1,233.488,375.195Z" transform="translate(-157.504 -330.991)" fill="#fff" opacity="0.43"/>
        <path id="Trazado_150833" data-name="Trazado 150833" d="M240.981,373.865s-4.255-.766-6.461.324a16.3,16.3,0,0,0-2.785,2.019l2.035-3.1s1.84-1.214,6.261-1.261A1.429,1.429,0,0,1,240.981,373.865Z" transform="translate(-160.361 -335.232)" fill="#35302c"/>
        <path id="Trazado_150834" data-name="Trazado 150834" d="M239.3,373.407s4.023-1.59,6.4-.956a16.468,16.468,0,0,1,3.128,1.435l-2.6-2.635s-2.043-.829-6.387-.008A1.432,1.432,0,0,0,239.3,373.407Z" transform="translate(-148.502 -336.817)" fill="#35302c"/>
        <path id="Trazado_150835" data-name="Trazado 150835" d="M237.712,375.56l.616,5.731c.047.461-.582-.076-1.045-.047-.613.039-.877,1.122-.824,1.661.09.882.8,1.251,4.318.566a.874.874,0,0,0,.685-.847C241.382,380.428,240.961,373.967,237.712,375.56Z" transform="translate(-152.659 -329.584)" fill="#1a1a1a" opacity="0.49"/>
        <path id="Trazado_150836" data-name="Trazado 150836" d="M237.991,375.443l.463,5.326s-2.212-.118-1.853,1.959c.15.871.969,1.2,4.539.5a1.193,1.193,0,0,0,.94-.84c.124-.5.832-.571-.558-2.322C239.884,378,241.14,374.35,237.991,375.443Z" transform="translate(-152.48 -329.693)" fill="#ba6565"/>
        <path id="Trazado_150837" data-name="Trazado 150837" d="M236.911,378.843a1.589,1.589,0,0,0,1.919-.258.514.514,0,0,0,.166-.276c.058-.316-.266-.532-.521-.6a1.6,1.6,0,0,0-1.214.045,1.111,1.111,0,0,0-.461,1.261" transform="translate(-152.176 -325.823)" fill="#fff" opacity="0.43"/>
        <path id="Trazado_150838" data-name="Trazado 150838" d="M239.966,378.194a1.93,1.93,0,0,0,.692,1.922,4.245,4.245,0,0,0,1.967.829,15.508,15.508,0,0,0,8.428-1.013,5.392,5.392,0,0,0,1.964-1.119,2.126,2.126,0,0,0,.627-2.072,2.167,2.167,0,0,0-1.688-1.338,6.38,6.38,0,0,0-2.246.084l-7.011,1.106C241.593,376.767,240.274,377.119,239.966,378.194Z" transform="translate(-147.017 -329.548)" fill="#ba6565" opacity="0.52"/>
        <path id="Trazado_150839" data-name="Trazado 150839" d="M239.767,377.195a3.5,3.5,0,0,0-1.335-.155,34.51,34.51,0,0,1-3.8-.192,2.092,2.092,0,0,0-1.693.295,1.027,1.027,0,0,0-.153,1.253,1.754,1.754,0,0,0,.656.55,6.565,6.565,0,0,0,3.225.877,5.237,5.237,0,0,0,3.154-1.042,1.1,1.1,0,0,0,.54-.953A.9.9,0,0,0,239.767,377.195Z" transform="translate(-158.883 -327.144)" fill="#ba6565" opacity="0.52"/>
        <g id="Grupo_91807" data-name="Grupo 91807" transform="translate(83.319 55.847)">
          <path id="Trazado_150840" data-name="Trazado 150840" d="M249.094,380.32s-4.576-1.761-6.348-.953c-1.651.75-1.727,1.609-1.727,1.609a2.484,2.484,0,0,0-1.945-.792c-1.006.2-2.8,2.017-2.8,2.017s1.759,6.413,6.424,5.647C248.58,386.88,249.094,380.32,249.094,380.32Z" transform="translate(-236.272 -379.155)" fill="#934c4c"/>
          <path id="Trazado_150841" data-name="Trazado 150841" d="M238.3,382.542a2.421,2.421,0,0,0,2.343-.521c.082-.076.166-.187.124-.292-.055-.142-.258-.124-.4-.076a3.739,3.739,0,0,1-2.48.237.568.568,0,0,0,.4.7" transform="translate(-233.671 -375.132)" fill="#fff" opacity="0.43"/>
          <path id="Trazado_150842" data-name="Trazado 150842" d="M249.138,379.54s-7.043,2.712-12.866,2.03C236.272,381.57,240.99,388.649,249.138,379.54Z" transform="translate(-236.272 -378.525)" fill="#fff"/>
        </g>
        <path id="Trazado_150843" data-name="Trazado 150843" d="M268.462,385.428c-.068-.532.266-1.079.105-1.593a2.384,2.384,0,0,0-.566-.779,3.249,3.249,0,0,1-.729-2.685c.021.937.045,1.877.066,2.817a1.414,1.414,0,0,0,.171.782c.14.2.374.319.511.518.4.585-.224,1.314-.334,2.012a3.517,3.517,0,0,0,.677,2.056,1.792,1.792,0,0,1,.011,2.056c.411-.319.261-.99-.058-1.4a4.532,4.532,0,0,1-.924-1.243c-.242-.777.337-1.653.039-2.412-.305-.792-1.437-1.1-1.574-1.94-.095-.59.371-1.193.176-1.759-.161-.474-.7-.682-1.106-.971a2.444,2.444,0,0,1-.84-2.772,2.15,2.15,0,0,1-2.109-1.832,2.215,2.215,0,0,0-.139-.793,2.5,2.5,0,0,0-.548-.558,3.436,3.436,0,0,1-.629-2.738q-.841.063-1.682.129a6.036,6.036,0,0,0,1.082,3.217c-.084-.516-.79-.569-1.256-.811-.908-.471-.9-1.753-.761-2.77a1.842,1.842,0,0,1-1.869-.674c-.029.79-1.05,1.1-1.84,1.048s-1.719-.179-2.238.416a2.154,2.154,0,0,1-.419.479c-.479.3-1.077-.24-1.643-.184-.469.045-.792.484-1,.906a6.378,6.378,0,0,0-.634,2.177,1.069,1.069,0,0,1-.147.545c-.282.382-1.116.569-.842.958.463-.174.461-.84.271-1.3s-.487-.94-.329-1.409a2.653,2.653,0,0,1,.548-.729,2.05,2.05,0,0,0,.316-2c-.463,1.09-2.488.3-3.125,1.3-.153.237-.19.542-.382.748-.54.577-1.822-.024-2.148.7-.074.161-.066.35-.155.505-.179.319-.648.311-.99.179a2.355,2.355,0,0,0-1.04-.311c-.611.066-.9.763-1.227,1.28s-1.2.884-1.48.34a1.563,1.563,0,0,1-1.229,1.543c-.606.113-1.414-.058-1.682.495-.253.519.3,1.193,0,1.685-.218.366-.782.4-1,.769-.163.282-.055.634-.058.958a3.656,3.656,0,0,1-.611,1.54,10.3,10.3,0,0,0-.714,5.052l-1.427-10.642a6.644,6.644,0,0,1,2.225-7.3,25.634,25.634,0,0,1,4.486-3.841,20.291,20.291,0,0,1,4.921-2.069c8.854-2.651,18.827-2.456,26.928,1.99a13.765,13.765,0,0,1,3.454,2.527,15.481,15.481,0,0,1,2.838,4.9,14,14,0,0,1,1.187,4.539c.124,2.725-1.119,5.294-2.167,7.811a61.89,61.89,0,0,0-3.075,9.459c.424-.763-.866-1.419-.99-2.285-.071-.519.3-.987.413-1.5.3-1.306-1.058-2.475-1.04-3.812a4.962,4.962,0,0,0,.032-.927C270,386.847,268.594,386.426,268.462,385.428Z" transform="translate(-161.973 -349.036)" fill="#35302c"/>
        <path id="Trazado_150844" data-name="Trazado 150844" d="M232.645,382.641a62.612,62.612,0,0,0,13.33.192c6.039-.75,23.279-7.293,23.279-7.293l-.6.99-8.019,3.207s1.348,7.127,1.84,7.353l6.008-5.181s.24.524-.516,1.89-13.021,19.037-24.6,13.883C243.368,397.682,235.075,391.018,232.645,382.641Z" transform="translate(-158.875 -329.209)" fill="#eeebf5"/>
        <g id="Grupo_91813" data-name="Grupo 91813" transform="translate(2.718 88.118)">
          <path id="Trazado_150845" data-name="Trazado 150845" d="M240.817,391.423,205.888,400.6a.315.315,0,0,0-.221.382l12.2,46.436a.315.315,0,0,0,.382.221l34.926-9.178a.309.309,0,0,0,.221-.379l-12.2-46.436A.309.309,0,0,0,240.817,391.423Z" transform="translate(-205.657 -391.412)" fill="#333"/>
          <rect id="Rectángulo_34021" data-name="Rectángulo 34021" width="31.24" height="44.741" transform="translate(3.019 10.208) rotate(-14.721)" fill="#fff"/>
          <g id="Grupo_91808" data-name="Grupo 91808" transform="translate(6.845 7.447)">
            <path id="Trazado_150846" data-name="Trazado 150846" d="M233.46,394.245l-25.109,6.595a.131.131,0,0,0-.089.158l.013.055a.132.132,0,0,0,.158.092l25.108-6.6a.128.128,0,0,0,.09-.155l-.013-.058A.13.13,0,0,0,233.46,394.245Z" transform="translate(-208.257 -394.241)" fill="#333" opacity="0.37"/>
            <path id="Trazado_150847" data-name="Trazado 150847" d="M233.573,394.67l-25.108,6.6a.129.129,0,0,0-.092.155l.016.055a.128.128,0,0,0,.155.092l25.108-6.6a.126.126,0,0,0,.092-.155l-.016-.055A.126.126,0,0,0,233.573,394.67Z" transform="translate(-208.076 -393.547)" fill="#333" opacity="0.37"/>
            <path id="Trazado_150848" data-name="Trazado 150848" d="M233.691,395.124l-25.108,6.6a.128.128,0,0,0-.09.155l.013.058a.131.131,0,0,0,.158.089l25.108-6.595a.129.129,0,0,0,.09-.158l-.013-.055A.13.13,0,0,0,233.691,395.124Z" transform="translate(-207.88 -392.805)" fill="#333" opacity="0.37"/>
            <path id="Trazado_150849" data-name="Trazado 150849" d="M233.8,395.55l-25.108,6.595a.129.129,0,0,0-.089.158l.013.055a.128.128,0,0,0,.158.089l25.106-6.595a.13.13,0,0,0,.092-.158l-.013-.055A.128.128,0,0,0,233.8,395.55Z" transform="translate(-207.698 -392.11)" fill="#333" opacity="0.37"/>
          </g>
          <g id="Grupo_91809" data-name="Grupo 91809" transform="translate(13.085 31.194)">
            <path id="Trazado_150850" data-name="Trazado 150850" d="M235.83,403.265l-25.108,6.595a.128.128,0,0,0-.09.158l.013.055a.132.132,0,0,0,.158.092l25.106-6.6a.129.129,0,0,0,.092-.155l-.013-.058A.128.128,0,0,0,235.83,403.265Z" transform="translate(-210.627 -403.26)" fill="#333" opacity="0.37"/>
            <path id="Trazado_150851" data-name="Trazado 150851" d="M235.943,403.69l-25.108,6.6a.126.126,0,0,0-.092.156l.016.055a.127.127,0,0,0,.155.092l25.108-6.6a.126.126,0,0,0,.092-.155l-.016-.055A.127.127,0,0,0,235.943,403.69Z" transform="translate(-210.446 -402.566)" fill="#333" opacity="0.37"/>
            <path id="Trazado_150852" data-name="Trazado 150852" d="M236.061,404.144l-25.109,6.6a.125.125,0,0,0-.089.155l.013.055a.13.13,0,0,0,.158.092l25.106-6.6a.13.13,0,0,0,.092-.158l-.013-.055A.13.13,0,0,0,236.061,404.144Z" transform="translate(-210.25 -401.825)" fill="#333" opacity="0.37"/>
            <path id="Trazado_150853" data-name="Trazado 150853" d="M236.174,404.568l-25.108,6.6a.132.132,0,0,0-.092.158l.016.055a.126.126,0,0,0,.155.09l25.109-6.6a.13.13,0,0,0,.092-.158l-.016-.055A.128.128,0,0,0,236.174,404.568Z" transform="translate(-210.068 -401.131)" fill="#333" opacity="0.37"/>
          </g>
          <g id="Grupo_91810" data-name="Grupo 91810" transform="translate(8.23 12.723)">
            <path id="Trazado_150854" data-name="Trazado 150854" d="M233.988,396.249l-25.108,6.6a.13.13,0,0,0-.092.158l.016.055a.127.127,0,0,0,.155.092l25.108-6.6a.127.127,0,0,0,.092-.155l-.016-.058A.128.128,0,0,0,233.988,396.249Z" transform="translate(-208.783 -396.244)" fill="#333" opacity="0.37"/>
            <path id="Trazado_150855" data-name="Trazado 150855" d="M234.1,396.674l-25.108,6.6a.127.127,0,0,0-.092.155l.016.055a.126.126,0,0,0,.155.092l25.108-6.595a.132.132,0,0,0,.092-.158l-.016-.055A.128.128,0,0,0,234.1,396.674Z" transform="translate(-208.6 -395.55)" fill="#333" opacity="0.37"/>
            <path id="Trazado_150856" data-name="Trazado 150856" d="M234.219,397.128l-25.108,6.6a.129.129,0,0,0-.092.155l.016.058a.126.126,0,0,0,.155.09l25.108-6.595a.13.13,0,0,0,.092-.158l-.016-.055A.126.126,0,0,0,234.219,397.128Z" transform="translate(-208.406 -394.809)" fill="#333" opacity="0.37"/>
            <path id="Trazado_150857" data-name="Trazado 150857" d="M234.331,397.554l-25.108,6.595a.13.13,0,0,0-.092.158l.016.055a.128.128,0,0,0,.155.092l25.109-6.6a.132.132,0,0,0,.092-.158l-.016-.055A.126.126,0,0,0,234.331,397.554Z" transform="translate(-208.223 -394.114)" fill="#333" opacity="0.37"/>
          </g>
          <g id="Grupo_91811" data-name="Grupo 91811" transform="translate(9.412 17.22)">
            <path id="Trazado_150858" data-name="Trazado 150858" d="M234.437,397.956l-25.108,6.6a.128.128,0,0,0-.092.155l.016.058a.127.127,0,0,0,.155.09l25.109-6.595a.132.132,0,0,0,.092-.158l-.016-.055A.13.13,0,0,0,234.437,397.956Z" transform="translate(-209.232 -397.953)" fill="#333" opacity="0.37"/>
            <path id="Trazado_150859" data-name="Trazado 150859" d="M234.547,398.383l-25.106,6.595a.13.13,0,0,0-.092.158l.013.055a.132.132,0,0,0,.158.092l25.108-6.6a.128.128,0,0,0,.09-.158l-.013-.055A.128.128,0,0,0,234.547,398.383Z" transform="translate(-209.05 -397.258)" fill="#333" opacity="0.37"/>
            <path id="Trazado_150860" data-name="Trazado 150860" d="M234.668,398.837l-25.109,6.595a.13.13,0,0,0-.092.158l.016.055a.127.127,0,0,0,.155.092l25.109-6.6a.127.127,0,0,0,.092-.155l-.016-.058A.127.127,0,0,0,234.668,398.837Z" transform="translate(-208.855 -396.517)" fill="#333" opacity="0.37"/>
            <path id="Trazado_150861" data-name="Trazado 150861" d="M234.78,399.262l-25.108,6.6a.126.126,0,0,0-.092.155l.016.055a.126.126,0,0,0,.155.092l25.109-6.6a.128.128,0,0,0,.092-.155l-.016-.055A.129.129,0,0,0,234.78,399.262Z" transform="translate(-208.672 -395.823)" fill="#333" opacity="0.37"/>
          </g>
          <g id="Grupo_91812" data-name="Grupo 91812" transform="translate(10.6 21.737)">
            <path id="Trazado_150862" data-name="Trazado 150862" d="M234.886,399.673l-25.106,6.6a.126.126,0,0,0-.092.156l.013.055a.13.13,0,0,0,.158.092l25.108-6.6a.124.124,0,0,0,.09-.155l-.013-.055A.13.13,0,0,0,234.886,399.673Z" transform="translate(-209.683 -399.668)" fill="#333" opacity="0.37"/>
            <path id="Trazado_150863" data-name="Trazado 150863" d="M235,400.1l-25.109,6.6a.127.127,0,0,0-.089.155l.013.058a.129.129,0,0,0,.158.09l25.108-6.6a.131.131,0,0,0,.089-.158l-.013-.055A.13.13,0,0,0,235,400.1Z" transform="translate(-209.501 -398.975)" fill="#333" opacity="0.37"/>
            <path id="Trazado_150864" data-name="Trazado 150864" d="M235.119,400.553l-25.109,6.6a.13.13,0,0,0-.092.158l.016.055a.128.128,0,0,0,.155.092l25.109-6.6a.132.132,0,0,0,.092-.158l-.016-.055A.127.127,0,0,0,235.119,400.553Z" transform="translate(-209.306 -398.232)" fill="#333" opacity="0.37"/>
            <path id="Trazado_150865" data-name="Trazado 150865" d="M235.229,400.978l-25.108,6.6a.131.131,0,0,0-.09.158l.013.055a.13.13,0,0,0,.158.092l25.108-6.6a.128.128,0,0,0,.089-.155l-.013-.055A.13.13,0,0,0,235.229,400.978Z" transform="translate(-209.123 -397.538)" fill="#333" opacity="0.37"/>
          </g>
          <rect id="Rectángulo_34022" data-name="Rectángulo 34022" width="7.653" height="3.689" transform="matrix(0.967, -0.254, 0.254, 0.967, 13.329, 3.036)" fill="#b3b3b3"/>
          <rect id="Rectángulo_34023" data-name="Rectángulo 34023" width="12.598" height="2.622" transform="matrix(0.967, -0.254, 0.254, 0.967, 11.604, 6.199)" fill="#b3b3b3"/>
        </g>
        <path id="Trazado_150866" data-name="Trazado 150866" d="M253.026,423.856s-6.619,12.869-7.735,14.064-.126,3.3,1.464,2.1a14.728,14.728,0,0,0,3.064-3.965L248.174,448.2s-.442,1.7.724,2.064,1.522-2.154,1.522-2.154l1.522-7.9.169,8.886s.145,1.848,1.285,1.94,1.056-2.22,1.056-2.22l.561-8.783.929,8.791s.232,2.2,1.519,2.175.848-3.128.848-3.128l-.3-8.43,1.79,4.581s.363.8,1.035.35.348-1.509.348-1.509-.7-14.825-1.664-17.126-1.274-2.364-1.274-2.364l-4.863.4Z" transform="translate(-139.007 -251.108)" fill="#bc8364"/>
        <path id="Trazado_150867" data-name="Trazado 150867" d="M257.648,485.624l-10.357-1.893c.047-.268,4.863-26.749,5.181-40.641.311-13.7-4.284-32.554-5.6-38.493l5.484-15.138c2.085.55,10.981,38.957,10.642,53.874C262.666,458.06,257.854,484.505,257.648,485.624Z" transform="translate(-135.642 -306.484)" fill="#dfebf4"/>
      </g>
      <g id="Grupo_129323" data-name="Grupo 129323" transform="translate(1070.063 4147.083)">
        <g id="Grupo_127674" data-name="Grupo 127674" transform="translate(13.958 43.173)">
          <path id="Trazado_163810" data-name="Trazado 163810" d="M286.572,377.341H285.2V274.824H222.163V377.341H220.8V273.456h65.777Z" transform="translate(-220.795 -273.456)" fill="#868695"/>
        </g>
        <rect id="Rectángulo_35047" data-name="Rectángulo 35047" width="2.032" height="12.554" transform="translate(5.411 157.934) rotate(180)" fill="#64546f"/>
        <g id="Grupo_127675" data-name="Grupo 127675" transform="translate(0 145.38)">
          <path id="Trazado_163811" data-name="Trazado 163811" d="M206.262,386.154c0,3.467,1.513,6.276,3.379,6.276s3.379-2.809,3.379-6.276-1.513-6.277-3.379-6.277S206.262,382.688,206.262,386.154Z" transform="translate(-206.262 -379.877)" fill="#1d272b"/>
        </g>
        <g id="Grupo_127676" data-name="Grupo 127676" transform="translate(2.081 145.38)">
          <path id="Trazado_163812" data-name="Trazado 163812" d="M208.429,386.154c0,3.467,1.513,6.276,3.38,6.276s3.378-2.809,3.378-6.276-1.513-6.277-3.378-6.277S208.429,382.688,208.429,386.154Z" transform="translate(-208.429 -379.877)" fill="#868695"/>
        </g>
        <rect id="Rectángulo_35048" data-name="Rectángulo 35048" width="2.031" height="12.554" transform="translate(15.632 157.934) rotate(180)" fill="#64546f"/>
        <g id="Grupo_127677" data-name="Grupo 127677" transform="translate(10.223 145.38)">
          <path id="Trazado_163813" data-name="Trazado 163813" d="M216.906,386.154c0,3.467,1.513,6.276,3.378,6.276s3.379-2.809,3.379-6.276-1.513-6.277-3.379-6.277S216.906,382.688,216.906,386.154Z" transform="translate(-216.906 -379.877)" fill="#1d272b"/>
        </g>
        <g id="Grupo_127678" data-name="Grupo 127678" transform="translate(12.304 145.38)">
          <path id="Trazado_163814" data-name="Trazado 163814" d="M219.073,386.154c0,3.467,1.513,6.276,3.378,6.276s3.38-2.809,3.38-6.276-1.514-6.277-3.38-6.277S219.073,382.688,219.073,386.154Z" transform="translate(-219.073 -379.877)" fill="#868695"/>
        </g>
        <rect id="Rectángulo_35049" data-name="Rectángulo 35049" width="2.032" height="12.554" transform="translate(69.901 157.934) rotate(180)" fill="#64546f"/>
        <g id="Grupo_127679" data-name="Grupo 127679" transform="translate(64.49 145.38)">
          <path id="Trazado_163815" data-name="Trazado 163815" d="M273.411,386.154c0,3.467,1.514,6.276,3.379,6.276s3.38-2.809,3.38-6.276-1.514-6.277-3.38-6.277S273.411,382.688,273.411,386.154Z" transform="translate(-273.411 -379.877)" fill="#1d272b"/>
        </g>
        <g id="Grupo_127680" data-name="Grupo 127680" transform="translate(66.572 145.38)">
          <path id="Trazado_163816" data-name="Trazado 163816" d="M275.579,386.154c0,3.467,1.513,6.276,3.379,6.276s3.379-2.809,3.379-6.276-1.514-6.277-3.379-6.277S275.579,382.688,275.579,386.154Z" transform="translate(-275.579 -379.877)" fill="#868695"/>
        </g>
        <rect id="Rectángulo_35050" data-name="Rectángulo 35050" width="2.032" height="12.554" transform="translate(80.123 157.934) rotate(180)" fill="#64546f"/>
        <g id="Grupo_127681" data-name="Grupo 127681" transform="translate(74.712 145.38)">
          <path id="Trazado_163817" data-name="Trazado 163817" d="M284.055,386.154c0,3.467,1.513,6.276,3.379,6.276s3.378-2.809,3.378-6.276-1.512-6.277-3.378-6.277S284.055,382.688,284.055,386.154Z" transform="translate(-284.055 -379.877)" fill="#1d272b"/>
        </g>
        <g id="Grupo_127682" data-name="Grupo 127682" transform="translate(76.794 145.38)">
          <path id="Trazado_163818" data-name="Trazado 163818" d="M286.222,386.154c0,3.467,1.513,6.276,3.379,6.276s3.379-2.809,3.379-6.276-1.513-6.277-3.379-6.277S286.222,382.688,286.222,386.154Z" transform="translate(-286.222 -379.877)" fill="#868695"/>
        </g>
        <rect id="Rectángulo_35051" data-name="Rectángulo 35051" width="64.41" height="17.371" transform="translate(68.829 138.965) rotate(180)" fill="#1d272b"/>
        <rect id="Rectángulo_35052" data-name="Rectángulo 35052" width="10.383" height="17.371" transform="translate(79.212 138.965) rotate(180)" fill="#a4a4b4"/>
        <path id="Trazado_163819" data-name="Trazado 163819" d="M236.56,366.223H250.7a3.405,3.405,0,0,0,3.406-3.406H233.156A3.4,3.4,0,0,0,236.56,366.223Z" transform="translate(-207.327 -233.821)" fill="#a4a4b4"/>
        <rect id="Rectángulo_35053" data-name="Rectángulo 35053" width="64.41" height="17.371" transform="translate(68.829 119.531) rotate(180)" fill="#1d272b"/>
        <rect id="Rectángulo_35054" data-name="Rectángulo 35054" width="10.383" height="17.371" transform="translate(79.212 119.531) rotate(180)" fill="#a4a4b4"/>
        <path id="Trazado_163820" data-name="Trazado 163820" d="M236.56,345.988H250.7a3.406,3.406,0,0,0,3.406-3.406H233.156A3.4,3.4,0,0,0,236.56,345.988Z" transform="translate(-207.327 -233.02)" fill="#a4a4b4"/>
        <rect id="Rectángulo_35055" data-name="Rectángulo 35055" width="64.41" height="17.371" transform="translate(68.829 100.096) rotate(180)" fill="#1d272b"/>
        <rect id="Rectángulo_35056" data-name="Rectángulo 35056" width="10.383" height="17.371" transform="translate(79.212 100.096) rotate(180)" fill="#a4a4b4"/>
        <path id="Trazado_163821" data-name="Trazado 163821" d="M236.56,325.752H250.7a3.405,3.405,0,0,0,3.406-3.4H233.156A3.4,3.4,0,0,0,236.56,325.752Z" transform="translate(-207.327 -232.219)" fill="#a4a4b4"/>
        <rect id="Rectángulo_35057" data-name="Rectángulo 35057" width="64.41" height="17.371" transform="translate(68.829 80.662) rotate(180)" fill="#1d272b"/>
        <rect id="Rectángulo_35058" data-name="Rectángulo 35058" width="10.383" height="17.371" transform="translate(79.212 80.662) rotate(180)" fill="#a4a4b4"/>
        <path id="Trazado_163822" data-name="Trazado 163822" d="M236.56,305.516H250.7a3.405,3.405,0,0,0,3.406-3.4H233.156A3.4,3.4,0,0,0,236.56,305.516Z" transform="translate(-207.327 -231.417)" fill="#a4a4b4"/>
        <rect id="Rectángulo_35059" data-name="Rectángulo 35059" width="64.41" height="17.371" transform="translate(68.829 61.228) rotate(180)" fill="#1d272b"/>
        <rect id="Rectángulo_35060" data-name="Rectángulo 35060" width="10.383" height="17.371" transform="translate(79.212 61.228) rotate(180)" fill="#a4a4b4"/>
        <path id="Trazado_163823" data-name="Trazado 163823" d="M236.56,285.281H250.7a3.406,3.406,0,0,0,3.406-3.406H233.156A3.4,3.4,0,0,0,236.56,285.281Z" transform="translate(-207.327 -230.616)" fill="#a4a4b4"/>
        <g id="Grupo_127683" data-name="Grupo 127683" transform="translate(3.736 43.173)">
          <path id="Trazado_163824" data-name="Trazado 163824" d="M275.929,377.341h-1.367V274.824H211.519V377.341h-1.367V273.456h65.777Z" transform="translate(-210.152 -273.456)" fill="#868695"/>
        </g>
        <g id="Grupo_129266" data-name="Grupo 129266" transform="translate(12.069 18.132)">
          <g id="Grupo_128981" data-name="Grupo 128981" transform="translate(9.463 0)">
            <path id="Trazado_166214" data-name="Trazado 166214" d="M248.8,227.989h-3.75a2.439,2.439,0,0,0-2.439,2.439v15.038a1.186,1.186,0,0,0,1.185,1.186h6.258a1.186,1.186,0,0,0,1.185-1.186V230.428A2.439,2.439,0,0,0,248.8,227.989Z" transform="translate(-242.61 -222.577)" fill="#d1ebea"/>
            <path id="Trazado_166215" data-name="Trazado 166215" d="M252.707,211.987h-3.331a.545.545,0,0,0-.546.546V217.4h4.422v-4.866A.545.545,0,0,0,252.707,211.987Z" transform="translate(-246.726 -211.987)" fill="#39666e"/>
            <path id="Trazado_166216" data-name="Trazado 166216" d="M245.237,227.989a2.466,2.466,0,0,0-2.627,2.265v15.3a1.2,1.2,0,0,0,1.276,1.1h1.037a1.056,1.056,0,0,1-.516-.88v-15.3a2.467,2.467,0,0,1,2.627-2.266h2.7a2.965,2.965,0,0,0-1.127-.221Z" transform="translate(-242.61 -222.577)" fill="#79aab1"/>
            <path id="Trazado_166217" data-name="Trazado 166217" d="M259.834,230.914h-.182a1.186,1.186,0,0,0-1.183,1.183v15.432a.4.4,0,0,0,.394.394h1.759a.4.4,0,0,0,.394-.394V232.1A1.186,1.186,0,0,0,259.834,230.914Z" transform="translate(-253.106 -224.513)" fill="#fff" style="mix-blend-mode: soft-light;isolation: isolate"/>
            <path id="Trazado_166218" data-name="Trazado 166218" d="M249.834,212.3a.544.544,0,0,1,.1-.309h-.555a.545.545,0,0,0-.546.546V217.4h4.422v-.236h-3.418Z" transform="translate(-246.726 -211.987)" fill="#1f2a35"/>
          </g>
          <g id="Grupo_128982" data-name="Grupo 128982" transform="translate(11.708 14.384)">
            <path id="Trazado_166219" data-name="Trazado 166219" d="M251.95,254.857a.875.875,0,0,0-1.228-.151l-1.475,1.152,7.215,9.239,1.474-1.152a.875.875,0,0,0,.151-1.229Z" transform="translate(-249.247 -254.52)" fill="#39666e"/>
            <path id="Trazado_166220" data-name="Trazado 166220" d="M257.679,264.292a.867.867,0,0,1-.274.374l-.553.432a1.17,1.17,0,0,1-1.642-.2l-5.625-7.2-.339.264,7.215,9.239,1.474-1.151a.875.875,0,0,0,.151-1.229Z" transform="translate(-249.247 -256.619)" fill="#1f2a35"/>
          </g>
          <g id="Grupo_128983" data-name="Grupo 128983" transform="translate(0 12.779)">
            <rect id="Rectángulo_35765" data-name="Rectángulo 35765" width="12.816" height="7.16" rx="1.588" transform="translate(0 5.022)" fill="#abc6c9"/>
            <rect id="Rectángulo_35766" data-name="Rectángulo 35766" width="10.76" height="1.53" rx="0.695" transform="translate(1.028 3.034)" fill="#c1d4d7"/>
            <path id="Trazado_166221" data-name="Trazado 166221" d="M217.82,263.258l-.354.461h10.9l-.354-.461Z" transform="translate(-216.506 -258.698)" fill="#79aab1"/>
            <path id="Trazado_166222" data-name="Trazado 166222" d="M227.953,259.646l-10.94.4a.195.195,0,1,0,.014.39l10.94-.4a.195.195,0,1,0-.014-.39Z" transform="translate(-216.082 -256.307)" fill="#eaf2f2"/>
            <path id="Trazado_166223" data-name="Trazado 166223" d="M225.8,249.773a1.07,1.07,0,0,1-.266,1.149c-.532.651-2.126.527-3.676.663a5.773,5.773,0,0,0-2.835,1.223h9.656a3.8,3.8,0,0,0-.753-2.128A2.839,2.839,0,0,0,225.8,249.773Z" transform="translate(-217.533 -249.773)" fill="#fff"/>
            <path id="Trazado_166224" data-name="Trazado 166224" d="M218.595,270.488v-5.866h-3.43a.537.537,0,0,0-.537.537v6.086a.537.537,0,0,0,.537.537h11.742l-7.618-.548A.748.748,0,0,1,218.595,270.488Z" transform="translate(-214.628 -259.6)" fill="#8ab5bb"/>
            <path id="Trazado_166225" data-name="Trazado 166225" d="M238.039,265.95h-1.484a.31.31,0,1,0,0,.62h1.484a.31.31,0,1,0,0-.62Z" transform="translate(-228.934 -260.479)" fill="#fff" style="mix-blend-mode: soft-light;isolation: isolate"/>
            <path id="Trazado_166226" data-name="Trazado 166226" d="M228.613,266.343h-.31a.244.244,0,1,0,0,.487h.31a.244.244,0,0,0,0-.487Z" transform="translate(-223.517 -260.739)" fill="#fff" style="mix-blend-mode: soft-light;isolation: isolate"/>
            <path id="Trazado_166227" data-name="Trazado 166227" d="M230.849,250.429a1.318,1.318,0,0,1-.243,1.374,2.855,2.855,0,0,1-2.237.608c-.864.011-2.155-.277-2.044.344.089.5,3.118.443,4.093-.3a1.419,1.419,0,0,0,.665-1.517A1.521,1.521,0,0,0,230.849,250.429Z" transform="translate(-222.364 -250.207)" fill="#eaf2f2"/>
            <path id="Trazado_166228" data-name="Trazado 166228" d="M241.55,251.281a1.3,1.3,0,0,1,.243.708c-.022.343-.31,1.384.277,1.417s.7-.708.532-1.218S241.55,251.281,241.55,251.281Z" transform="translate(-232.445 -250.771)" fill="#eaf2f2"/>
            <rect id="Rectángulo_35767" data-name="Rectángulo 35767" width="12.816" height="4.048" transform="translate(0 6.694)" fill="#1f2a35"/>
            <rect id="Rectángulo_35768" data-name="Rectángulo 35768" width="2.547" height="6.186" rx="1.273" transform="translate(9.703 5.515)" fill="#fff" style="mix-blend-mode: soft-light;isolation: isolate"/>
          </g>
        </g>
        <g id="Grupo_129267" data-name="Grupo 129267" transform="translate(58.433 21.773)">
          <rect id="Rectángulo_35769" data-name="Rectángulo 35769" width="4.793" height="2.128" rx="0.603" transform="translate(2.519 4.598)" fill="#fffffa"/>
          <rect id="Rectángulo_35770" data-name="Rectángulo 35770" width="2.484" height="1.119" transform="translate(3.704 3.479)" fill="#fffffa"/>
          <rect id="Rectángulo_35771" data-name="Rectángulo 35771" width="0.896" height="1.857" transform="translate(4.532 1.622)" fill="#fffffa"/>
          <path id="Trazado_166229" data-name="Trazado 166229" d="M351.177,213.467h-5.82a.117.117,0,0,0-.11.17l.25.453a.21.21,0,0,0,.184.105h5.25a.231.231,0,0,0,.215-.139l.166-.4A.138.138,0,0,0,351.177,213.467Z" transform="translate(-344.449 -213.467)" fill="#fffffa"/>
          <path id="Trazado_166230" data-name="Trazado 166230" d="M349.055,216l2.367.588h1.325l.732-.278a.217.217,0,0,0,.144-.2v-.25h-4.57Z" transform="translate(-347.105 -215.125)" fill="#dadbde"/>
          <rect id="Rectángulo_35772" data-name="Rectángulo 35772" width="5.865" height="0.737" rx="0.368" transform="translate(1.989 6.937)" fill="#fffffa"/>
          <rect id="Rectángulo_35773" data-name="Rectángulo 35773" width="4.345" height="0.211" transform="translate(2.739 6.726)" fill="#dadbde"/>
          <path id="Trazado_166231" data-name="Trazado 166231" d="M350.919,228.711v1.76a.184.184,0,0,0,.184.184h1.5v-2.128h-1.5A.184.184,0,0,0,350.919,228.711Z" transform="translate(-348.4 -223.929)" fill="#e2e3e5"/>
          <rect id="Rectángulo_35774" data-name="Rectángulo 35774" width="1.004" height="1.119" transform="translate(3.704 3.479)" fill="#e2e3e5"/>
          <path id="Trazado_166232" data-name="Trazado 166232" d="M357.511,220.637h.368v-1.431l.538-.1-.906-.329Z" transform="translate(-352.979 -217.158)" fill="#dadbde"/>
          <rect id="Rectángulo_35775" data-name="Rectángulo 35775" width="1.325" height="0.494" transform="translate(4.318 1.458)" fill="#fffffa"/>
          <path id="Trazado_166233" data-name="Trazado 166233" d="M356.809,218.735h.52v-.352l.825-.141h-1.344Z" transform="translate(-352.491 -216.783)" fill="#e2e3e5"/>
          <rect id="Rectángulo_35776" data-name="Rectángulo 35776" width="10.027" height="14.087" rx="2" transform="translate(0 7.313)" fill="#1d272b"/>
          <path id="Trazado_166234" data-name="Trazado 166234" d="M344.344,249.487V237.822a1.139,1.139,0,0,1,.079-.4h-.468a1.251,1.251,0,0,0-1.287,1.211v11.665a1.251,1.251,0,0,0,1.287,1.211h7.453a1.28,1.28,0,0,0,1.208-.807h-6.985A1.251,1.251,0,0,1,344.344,249.487Z" transform="translate(-342.668 -230.105)" fill="#526366"/>
          <rect id="Rectángulo_35777" data-name="Rectángulo 35777" width="2.182" height="11.593" rx="1.091" transform="translate(7.146 8.609)" fill="#fffffa" style="mix-blend-mode: soft-light;isolation: isolate"/>
          <path id="Trazado_166235" data-name="Trazado 166235" d="M356.526,238.7h-6.764a.281.281,0,0,0,0,.562h6.764a.281.281,0,1,0,0-.562Z" transform="translate(-347.401 -230.996)" fill="#fffffa" style="mix-blend-mode: soft-light;isolation: isolate"/>
        </g>
        <g id="Grupo_129268" data-name="Grupo 129268" transform="translate(29.583 0)">
          <rect id="Rectángulo_35797" data-name="Rectángulo 35797" width="1.287" height="1.93" transform="translate(15.216 29.664)" fill="#abc6c9"/>
          <path id="Trazado_166256" data-name="Trazado 166256" d="M396.613,203.978c0,.087.007.173.007.26a14.042,14.042,0,1,1-28.084,0c0-.087,0-.173.006-.26h-.858c0,.087-.006.173-.006.26a14.9,14.9,0,1,0,29.8,0c0-.087-.005-.173-.007-.26Z" transform="translate(-366.719 -189.393)" fill="#c1d4d7"/>
          <path id="Trazado_166257" data-name="Trazado 166257" d="M397.132,205.189a14.522,14.522,0,0,1-29.027,0c0-.087,0-.173.007-.26h-.424a14.9,14.9,0,0,0,29.79,0h-.352C397.127,205.016,397.132,205.1,397.132,205.189Z" transform="translate(-366.724 -189.879)" fill="#79aab1"/>
          <rect id="Rectángulo_35798" data-name="Rectángulo 35798" width="0.536" height="0.84" transform="translate(13.741 31.902)" fill="#79aab1"/>
          <g id="Grupo_128994" data-name="Grupo 128994" transform="translate(0 14.053)">
            <path id="Trazado_166258" data-name="Trazado 166258" d="M369.932,202.89h-3.288a.929.929,0,0,0,0,1.858h3.288a.929.929,0,0,0,0-1.858Z" transform="translate(-365.715 -202.89)" fill="#abc6c9"/>
            <path id="Trazado_166259" data-name="Trazado 166259" d="M424.047,202.89h-3.288a.929.929,0,0,0,0,1.858h3.288a.929.929,0,0,0,0-1.858Z" transform="translate(-393.385 -202.89)" fill="#abc6c9"/>
          </g>
          <circle id="Elipse_4456" data-name="Elipse 4456" cx="12.774" cy="12.774" r="12.774" transform="translate(3.085 2.072)" fill="#cddddf"/>
          <rect id="Rectángulo_35799" data-name="Rectángulo 35799" width="3.431" height="11.283" transform="translate(14.144 31.487)" fill="#cddddf"/>
          <path id="Trazado_166260" data-name="Trazado 166260" d="M397.3,260.613H385.947a.578.578,0,0,0-.578.578v.707h12.508v-.707A.578.578,0,0,0,397.3,260.613Z" transform="translate(-375.764 -218.351)" fill="#c1d4d7"/>
          <path id="Trazado_166261" data-name="Trazado 166261" d="M397.383,257.986H389.6a.577.577,0,0,0-.578.578v.706h8.934v-.706A.578.578,0,0,0,397.383,257.986Z" transform="translate(-377.634 -217.008)" fill="#c1d4d7"/>
          <rect id="Rectángulo_35800" data-name="Rectángulo 35800" width="1.193" height="1.304" rx="0.597" transform="translate(12.579 31.67)" fill="#c1d4d7"/>
          <circle id="Elipse_4457" data-name="Elipse 4457" cx="11.401" cy="11.401" r="11.401" transform="translate(1 21.116) rotate(-67.834)" fill="url(#linear-gradient-7)"/>
          <path id="Trazado_166262" data-name="Trazado 166262" d="M395.975,238.564h-1.318V248h3.431l-2.113-.571Z" transform="translate(-380.513 -207.077)" fill="#abc6c9"/>
          <rect id="Rectángulo_35801" data-name="Rectángulo 35801" width="8.934" height="0.449" transform="translate(11.392 41.813)" fill="#79aab1"/>
          <rect id="Rectángulo_35802" data-name="Rectángulo 35802" width="12.508" height="0.482" transform="translate(9.605 43.064)" fill="#79aab1"/>
          <rect id="Rectángulo_35803" data-name="Rectángulo 35803" width="2.192" height="0.731" rx="0.365" transform="translate(28.899 14.381)" fill="#d8e4e6"/>
          <path id="Trazado_166263" data-name="Trazado 166263" d="M368.712,203.532h-1.34a.341.341,0,1,0,0,.683h1.34a.341.341,0,1,0,0-.683Z" transform="translate(-366.387 -189.165)" fill="#d8e4e6"/>
          <path id="Trazado_166264" data-name="Trazado 166264" d="M372.957,192.861a12.742,12.742,0,0,1,4.5-9.727,12.771,12.771,0,1,0,15.621,20.174,12.771,12.771,0,0,1-20.12-10.447Z" transform="translate(-368.943 -178.735)" fill="#abc6c9"/>
          <rect id="Rectángulo_35804" data-name="Rectángulo 35804" width="0.603" height="1.785" transform="translate(15.216 29.664)" fill="#79aab1"/>
          <path id="Trazado_166265" data-name="Trazado 166265" d="M387.732,182.526l12.828,18.55a11.421,11.421,0,0,0,2.354-3.052l-11.492-16.616A11.313,11.313,0,0,0,387.732,182.526Z" transform="translate(-376.973 -177.852)" fill="#eef1f1"/>
          <path id="Trazado_166266" data-name="Trazado 166266" d="M380.672,188.084l12.607,18.168a11.276,11.276,0,0,0,1.327-.6l-12.924-18.584A11.475,11.475,0,0,0,380.672,188.084Z" transform="translate(-373.363 -180.749)" fill="#eef1f1"/>
          <path id="Trazado_166267" data-name="Trazado 166267" d="M386.239,181.211a11.4,11.4,0,1,0,11.4,11.4A11.4,11.4,0,0,0,386.239,181.211Zm0,22.515A11.128,11.128,0,1,1,397.367,192.6,11.128,11.128,0,0,1,386.239,203.726Z" transform="translate(-370.38 -177.752)" fill="#797f85"/>
        </g>
      </g>
    </g>
    <g id="Grupo_133081" data-name="Grupo 133081" transform="translate(944.881 3532.837)">
      <g id="Grupo_128820" data-name="Grupo 128820" transform="translate(-7.907 464.102)">
        <path id="Trazado_165801" data-name="Trazado 165801" d="M365.854,490.987c-6.037,0-9.1-4.143-9.1-12.313V427.991h1.428v50.683c0,7.28,2.438,10.67,7.669,10.67,6.047,0,6.956-1.53,6.956-11.695,0-1.262-.025-2.665-.053-4.16-.153-8.646-.348-19.406,3.5-23.923a5.575,5.575,0,0,1,4.4-2.082h9.988v1.641h-9.988a4.226,4.226,0,0,0-3.385,1.59c-3.425,4.023-3.23,14.841-3.089,22.739.028,1.506.053,2.924.053,4.2C374.238,487.982,373.137,490.987,365.854,490.987Z" transform="translate(-289.811 -392.764)" fill="#51799e"/>
        <rect id="Rectángulo_35595" data-name="Rectángulo 35595" width="49.467" height="11.491" rx="2.332" transform="translate(1.725 0.001)" fill="#008f85"/>
        <rect id="Rectángulo_35596" data-name="Rectángulo 35596" width="249.718" height="11.491" rx="2.332" transform="translate(51.904 0.001)" fill="#008f85"/>
        <rect id="Rectángulo_35597" data-name="Rectángulo 35597" width="44.799" height="61.286" transform="translate(94.474 72.231)" fill="#acc1d1"/>
        <rect id="Rectángulo_35598" data-name="Rectángulo 35598" width="44.799" height="28.044" transform="translate(94.474 38.305)" fill="#707b82"/>
        <path id="Trazado_165802" data-name="Trazado 165802" d="M460.515,419.22H355.28l30.322,23.8H430.55Z" transform="translate(-291.128 -403.077)" fill="#c7d0d8"/>
        <path id="Trazado_165803" data-name="Trazado 165803" d="M484.155,485.543l-138.054.821,47.683-13.954h44.948Z" transform="translate(-299.309 -340.535)" fill="#c7d0d8"/>
        <path id="Trazado_165804" data-name="Trazado 165804" d="M368.81,429.89h78.21l13.433-10.67H355.217Z" transform="translate(-291.183 -403.077)" opacity="0.25"/>
        <rect id="Rectángulo_35599" data-name="Rectángulo 35599" width="304.181" height="10.944" transform="translate(0 8.482)" fill="url(#linear-gradient)"/>
        <rect id="Rectángulo_35600" data-name="Rectángulo 35600" width="139.6" height="12.312" transform="translate(46.435 145.281)" fill="#f2f3f4"/>
        <rect id="Rectángulo_35601" data-name="Rectángulo 35601" width="54.461" height="7.661" rx="1.554" transform="translate(89.956 65.527)" fill="#f2f3f4"/>
        <g id="Grupo_128816" data-name="Grupo 128816" transform="translate(99.126 78.513)">
          <rect id="Rectángulo_35602" data-name="Rectángulo 35602" width="20.753" height="34.339" rx="0.667" transform="translate(0 20.753) rotate(-90)" fill="#fff"/>
          <g id="Grupo_128815" data-name="Grupo 128815" transform="translate(3.112 7.043)">
            <rect id="Rectángulo_35603" data-name="Rectángulo 35603" width="13.404" height="6.496" rx="0.263" fill="#7aa2cc"/>
            <rect id="Rectángulo_35604" data-name="Rectángulo 35604" width="12.37" height="5.482" transform="translate(0.446 0.488)" fill="#d93328"/>
            <g id="Grupo_128814" data-name="Grupo 128814" transform="translate(0.424 0.513)">
              <g id="Grupo_128813" data-name="Grupo 128813" clip-path="url(#clip-path-2)">
                <path id="Trazado_170387" data-name="Trazado 170387" d="M0,0,2.081.142l.831,11.9L.831,11.9Z" transform="translate(11.185 -1.43) rotate(49.414)" fill="#fff" opacity="0.26"/>
                <path id="Trazado_170388" data-name="Trazado 170388" d="M0,0,1.4.1l.831,11.9-1.4-.1Z" transform="translate(7.722 -1.431) rotate(49.415)" fill="#fff" opacity="0.26"/>
                <path id="Trazado_170389" data-name="Trazado 170389" d="M0,0,1.226.084l.73,10.441L.73,10.441Z" transform="translate(12.381 1.484) rotate(49.412)" fill="#fff" opacity="0.26"/>
              </g>
            </g>
          </g>
          <rect id="Rectángulo_35609" data-name="Rectángulo 35609" width="13.306" height="16.079" rx="0.531" transform="translate(18.226 2.401)" fill="#7aa2cc"/>
          <rect id="Rectángulo_35610" data-name="Rectángulo 35610" width="2.907" height="1.544" rx="0.156" transform="translate(19.511 3.881)" fill="#b5d6ff"/>
          <rect id="Rectángulo_35611" data-name="Rectángulo 35611" width="2.907" height="1.544" rx="0.156" transform="translate(23.145 3.881)" fill="#b5d6ff"/>
          <rect id="Rectángulo_35612" data-name="Rectángulo 35612" width="2.907" height="1.544" rx="0.156" transform="translate(26.751 3.881)" fill="#b5d6ff"/>
          <rect id="Rectángulo_35613" data-name="Rectángulo 35613" width="2.907" height="1.544" rx="0.156" transform="translate(19.511 6.164)" fill="#b5d6ff"/>
          <rect id="Rectángulo_35614" data-name="Rectángulo 35614" width="2.907" height="1.544" rx="0.156" transform="translate(23.145 6.164)" fill="#b5d6ff"/>
          <rect id="Rectángulo_35615" data-name="Rectángulo 35615" width="2.907" height="1.544" rx="0.156" transform="translate(26.751 6.164)" fill="#b5d6ff"/>
          <rect id="Rectángulo_35616" data-name="Rectángulo 35616" width="2.907" height="1.544" rx="0.156" transform="translate(19.511 8.544)" fill="#b5d6ff"/>
          <rect id="Rectángulo_35617" data-name="Rectángulo 35617" width="2.907" height="1.544" rx="0.156" transform="translate(23.145 8.544)" fill="#b5d6ff"/>
          <rect id="Rectángulo_35618" data-name="Rectángulo 35618" width="2.907" height="1.544" rx="0.156" transform="translate(26.751 8.544)" fill="#b5d6ff"/>
          <rect id="Rectángulo_35619" data-name="Rectángulo 35619" width="2.907" height="1.544" rx="0.156" transform="translate(19.511 10.891)" fill="#b5d6ff"/>
          <rect id="Rectángulo_35620" data-name="Rectángulo 35620" width="2.907" height="1.544" rx="0.156" transform="translate(23.145 10.891)" fill="#b5d6ff"/>
          <rect id="Rectángulo_35621" data-name="Rectángulo 35621" width="2.907" height="1.544" rx="0.156" transform="translate(26.751 10.891)" fill="#b5d6ff"/>
          <rect id="Rectángulo_35622" data-name="Rectángulo 35622" width="6.821" height="3.023" transform="translate(21.189 14.236)" fill="#f2f2f2"/>
          <rect id="Rectángulo_35623" data-name="Rectángulo 35623" width="5.088" height="0.257" rx="0.05" transform="translate(21.943 14.847)" opacity="0.41"/>
          <rect id="Rectángulo_35624" data-name="Rectángulo 35624" width="5.088" height="0.257" rx="0.05" transform="translate(21.943 15.329)" opacity="0.41"/>
          <rect id="Rectángulo_35625" data-name="Rectángulo 35625" width="4.221" height="0.257" rx="0.05" transform="translate(21.943 15.811)" opacity="0.41"/>
          <rect id="Rectángulo_35626" data-name="Rectángulo 35626" width="2.013" height="0.257" rx="0.05" transform="translate(21.943 16.423)" opacity="0.41"/>
        </g>
        <g id="Grupo_128817" data-name="Grupo 128817" transform="translate(98.071 107.966)">
          <rect id="Rectángulo_35627" data-name="Rectángulo 35627" width="17.324" height="12.828" fill="#d7e9f4"/>
          <rect id="Rectángulo_35628" data-name="Rectángulo 35628" width="12.313" height="2.749" rx="0.558" transform="translate(2.323 0.878)" fill="#175a8b"/>
          <rect id="Rectángulo_35629" data-name="Rectángulo 35629" width="9.782" height="0.63" rx="0.128" transform="translate(3.559 1.89)" fill="#fff"/>
          <rect id="Rectángulo_35630" data-name="Rectángulo 35630" width="14.81" height="0.43" rx="0.087" transform="translate(1.145 5.125)" opacity="0.17"/>
          <rect id="Rectángulo_35631" data-name="Rectángulo 35631" width="14.81" height="0.43" rx="0.087" transform="translate(1.145 6.156)" opacity="0.17"/>
          <rect id="Rectángulo_35632" data-name="Rectángulo 35632" width="14.81" height="0.43" rx="0.087" transform="translate(1.145 7.273)" opacity="0.17"/>
          <rect id="Rectángulo_35633" data-name="Rectángulo 35633" width="14.81" height="0.43" rx="0.087" transform="translate(1.145 8.304)" opacity="0.17"/>
          <rect id="Rectángulo_35634" data-name="Rectángulo 35634" width="9.848" height="0.43" rx="0.087" transform="translate(3.916 9.449)" opacity="0.17"/>
        </g>
        <g id="Grupo_128819" data-name="Grupo 128819" transform="translate(60.731 20.171)">
          <g id="Grupo_128818" data-name="Grupo 128818">
            <rect id="Rectángulo_35635" data-name="Rectángulo 35635" width="13.306" height="16.08" rx="0.531" transform="translate(0.535 0.615)" fill="#7aa2cc"/>
            <path id="Trazado_165805" data-name="Trazado 165805" d="M366.553,438.381h-11.79a1.4,1.4,0,0,1-1.292-1.488V422.559a1.4,1.4,0,0,1,1.292-1.488h11.79a1.4,1.4,0,0,1,1.294,1.488v14.334A1.4,1.4,0,0,1,366.553,438.381ZM354.763,422.3a.242.242,0,0,0-.221.257v14.334a.242.242,0,0,0,.221.257h11.79a.242.242,0,0,0,.223-.257V422.559a.242.242,0,0,0-.223-.257Z" transform="translate(-353.471 -421.071)" fill="#f2f2f2"/>
          </g>
          <rect id="Rectángulo_35636" data-name="Rectángulo 35636" width="2.907" height="1.544" rx="0.156" transform="translate(1.821 2.094)" fill="#b5d6ff"/>
          <rect id="Rectángulo_35637" data-name="Rectángulo 35637" width="2.907" height="1.544" rx="0.156" transform="translate(5.455 2.094)" fill="#b5d6ff"/>
          <rect id="Rectángulo_35638" data-name="Rectángulo 35638" width="2.907" height="1.544" rx="0.156" transform="translate(9.061 2.094)" fill="#b5d6ff"/>
          <rect id="Rectángulo_35639" data-name="Rectángulo 35639" width="2.907" height="1.544" rx="0.156" transform="translate(1.821 4.377)" fill="#b5d6ff"/>
          <rect id="Rectángulo_35640" data-name="Rectángulo 35640" width="2.907" height="1.544" rx="0.156" transform="translate(5.455 4.377)" fill="#b5d6ff"/>
          <rect id="Rectángulo_35641" data-name="Rectángulo 35641" width="2.907" height="1.544" rx="0.156" transform="translate(9.061 4.377)" fill="#b5d6ff"/>
          <rect id="Rectángulo_35642" data-name="Rectángulo 35642" width="2.907" height="1.544" rx="0.156" transform="translate(1.821 6.757)" fill="#b5d6ff"/>
          <rect id="Rectángulo_35643" data-name="Rectángulo 35643" width="2.907" height="1.544" rx="0.156" transform="translate(5.455 6.757)" fill="#b5d6ff"/>
          <rect id="Rectángulo_35644" data-name="Rectángulo 35644" width="2.907" height="1.544" rx="0.156" transform="translate(9.061 6.757)" fill="#b5d6ff"/>
          <rect id="Rectángulo_35645" data-name="Rectángulo 35645" width="2.907" height="1.544" rx="0.156" transform="translate(1.821 9.105)" fill="#b5d6ff"/>
          <rect id="Rectángulo_35646" data-name="Rectángulo 35646" width="2.907" height="1.544" rx="0.156" transform="translate(5.455 9.105)" fill="#b5d6ff"/>
          <rect id="Rectángulo_35647" data-name="Rectángulo 35647" width="2.907" height="1.544" rx="0.156" transform="translate(9.061 9.105)" fill="#b5d6ff"/>
          <rect id="Rectángulo_35648" data-name="Rectángulo 35648" width="6.821" height="3.023" transform="translate(3.498 12.449)" fill="#f2f2f2"/>
          <rect id="Rectángulo_35649" data-name="Rectángulo 35649" width="5.088" height="0.257" rx="0.05" transform="translate(4.253 13.06)" opacity="0.41"/>
          <rect id="Rectángulo_35650" data-name="Rectángulo 35650" width="5.088" height="0.257" rx="0.05" transform="translate(4.253 13.543)" opacity="0.41"/>
          <rect id="Rectángulo_35651" data-name="Rectángulo 35651" width="4.221" height="0.257" rx="0.05" transform="translate(4.253 14.025)" opacity="0.41"/>
          <rect id="Rectángulo_35652" data-name="Rectángulo 35652" width="2.012" height="0.257" rx="0.05" transform="translate(4.253 14.636)" opacity="0.41"/>
        </g>
      </g>
      <path id="Trazado_165806" data-name="Trazado 165806" d="M324.6,431.612s46.141-1.743,61.271-1.2,65.722,3.264,79.906,1.632c11.073-1.275,141.845-1.088,141.845-1.088s4.255-34.813.946-35.9-8.511,6.527-12.766,15.774c0,0-45.39-13.055-76.123-12.511s-60.52,2.72-76.6,1.088S340.874,385.485,324.6,431.612Z" transform="translate(-326.375 32.492)" fill="#1d272b"/>
      <path id="Trazado_165807" data-name="Trazado 165807" d="M367.791,403.574c-10.464-.087-19.348,10.181-29.812,10.313a72.82,72.82,0,0,1,36.32-15.925c7.8-1.016,15.677-.679,23.522-.339,5.848.252,11.728.509,17.462,1.86a162.034,162.034,0,0,1-24.734,5.061q3,1.034,6,2.073-18.545,6.1-37.088,12.211A99.324,99.324,0,0,1,382.777,406.6a21.584,21.584,0,0,0-16.146-.714A4.243,4.243,0,0,1,367.791,403.574Z" transform="translate(-314.454 35.233)" fill="#fff" opacity="0.28"/>
      <path id="Trazado_165808" data-name="Trazado 165808" d="M394.218,413.477a203.515,203.515,0,0,0,31.009-7.99c-12.3-.009-24.8-.052-36.585-4.114q24.6-1.318,49.213-2.635c-.694.707.618,1.679,1.547,1.673q21.716-.134,43.431-.272a340.666,340.666,0,0,0-51.3,8.929C419.233,412.189,406.615,416.02,394.218,413.477Z" transform="translate(-269.3 36.942)" fill="#fff" opacity="0.28"/>
      <path id="Trazado_165809" data-name="Trazado 165809" d="M497.5,400.224c-.427-.82-1.554-.385-2.143.292-2.219,2.546-2.57,7.182-5.471,8.549a6.562,6.562,0,0,1-4.149.061c-12.8-2.678-25.806-6.9-38.622-4.3a122.032,122.032,0,0,1,29.734,6.793,62.357,62.357,0,0,0-15.565,4.16l27.923.959a2.74,2.74,0,0,0,1.623-.281,3.586,3.586,0,0,0,1.148-1.815Q494.736,407.436,497.5,400.224Z" transform="translate(-217.187 38.165)" fill="#fff" opacity="0.28"/>
    </g>
    <g id="Grupo_133082" data-name="Grupo 133082" transform="translate(1089.065 3607.09)">
      <text id="DESCOMPOSICIÓN" transform="translate(9.098 30.646)" fill="#008f85" font-size="29" font-family="Roboto-Bold, Roboto" font-weight="700"><tspan x="0" y="0">DESCOMPOSICIÓN</tspan></text>
      <text id="DEL_CUERPO_HUMANO" data-name="DEL CUERPO HUMANO" transform="translate(9.699 49.005)" fill="#1d272b" font-size="18" font-family="Roboto-Bold, Roboto" font-weight="700"><tspan x="0" y="0">DEL CUERPO HUMANO</tspan></text>
      <rect id="Rectángulo_34968" data-name="Rectángulo 34968" width="4.849" height="58.192" fill="#d93328"/>
    </g>
  </g>
</svg>
