<svg xmlns="http://www.w3.org/2000/svg" width="101.318" height="88.714" viewBox="0 0 101.318 88.714">
  <g id="Grupo_134254" data-name="Grupo 134254" transform="translate(-370.897 -5219.885)">
    <path id="Trazado_170432" data-name="Trazado 170432" d="M5537.584-69.094a3.9,3.9,0,0,1,3.117-3.72q8.63-2.172,17.27-4.305c.992-.247,1.978-.519,2.975-.738a3.744,3.744,0,0,1,4.793,3.066c.534,2.477.972,4.976,1.517,7.451,1.1,5.007,2.257,10,3.37,15.007.566,2.548-.461,4.252-2.964,4.947-1.492.414-2.995.792-4.5,1.17a1.386,1.386,0,0,1-1.811-.894,1.372,1.372,0,0,1,1.109-1.69c1.426-.407,2.865-.77,4.3-1.151,1.283-.341,1.477-.661,1.19-1.989q-1.078-4.977-2.159-9.953-1.315-6.029-2.642-12.055c-.278-1.261-.636-1.508-1.861-1.206q-9.843,2.428-19.679,4.884c-1.251.312-1.474.889-.841,2.017,1.6,2.847,3.258,5.66,4.777,8.547a62.534,62.534,0,0,1,5.4,12.594,1.142,1.142,0,0,0,1.642.9c.727-.213,1.462-.4,2.2-.565a1.269,1.269,0,0,1,1.7.922,1.279,1.279,0,0,1-1,1.669,25.159,25.159,0,0,1-2.976.725,3.523,3.523,0,0,1-4-2.365c-1.946-6.793-5.451-12.845-8.857-18.948-.449-.806-.976-1.572-1.386-2.4A17.006,17.006,0,0,1,5537.584-69.094Z" transform="translate(-5139.516 5301.377)" fill="#1d272b"/>
    <path id="Trazado_170433" data-name="Trazado 170433" d="M5416.795,192.676c-8.341-.051-14.133-5.535-14.73-12.945-.5-6.211-.994-12.424-1.574-18.628a7.3,7.3,0,0,1,6.852-7.845,2.739,2.739,0,0,1,.786.053,1.25,1.25,0,0,1,.982,1.406,1.052,1.052,0,0,1-1.169,1.063,4.287,4.287,0,0,0-4.455,3.073,7.545,7.545,0,0,0-.3,2.876c.412,5.119.9,10.231,1.37,15.345.2,2.193.234,4.412,1.206,6.473a11.061,11.061,0,0,0,18.389,2.631,13.025,13.025,0,0,0,1.582-2.142c1.2-2.065.838-3.566-.964-5.141a51.709,51.709,0,0,1-4.575-4.346,24.467,24.467,0,0,1-4.647-7.873c-.8-2.155-1.573-4.322-2.292-6.506a1.845,1.845,0,0,1,.089-1.394,1.672,1.672,0,0,1,1.238-.744c.362.026.839.562,1,.975,1.053,2.755,1.8,5.652,3.094,8.285a24.48,24.48,0,0,0,7.425,9.236c3.417,2.5,4,5.891,1.639,9.429C5424.9,190.215,5420.983,192.615,5416.795,192.676Z" transform="translate(-5029.542 5115.923)" fill="#1d272b"/>
    <path id="Trazado_170434" data-name="Trazado 170434" d="M5509.965,111.8c1.371.16,2.751.269,4.11.5a1.3,1.3,0,0,1,1.213,1.6c-.155.775-.829,1.134-1.747,1.032a36.71,36.71,0,0,0-18.23,2.37c-2.573,1.053-4.627,2.755-4.956,5.781a11.174,11.174,0,0,0,2.3,8.158,14.7,14.7,0,0,0,10.548,5.693,20.264,20.264,0,0,0,16.484-5.417,9.531,9.531,0,0,0,.44-13.537c-.111-.122-.233-.234-.339-.361a1.353,1.353,0,0,1,.011-1.946,1.268,1.268,0,0,1,1.931.079,11.853,11.853,0,0,1,3.411,6.352c.85,4.574-.331,8.634-3.875,11.63-6.579,5.562-14.094,7.565-22.507,4.947a15.752,15.752,0,0,1-8.82-6.643,14.428,14.428,0,0,1-2.258-6.932,9.323,9.323,0,0,1,2.312-7.384,14.19,14.19,0,0,1,5.939-3.617A49.791,49.791,0,0,1,5509.965,111.8Z" transform="translate(-5099.467 5149.17)" fill="#1d272b"/>
    <path id="Trazado_170435" data-name="Trazado 170435" d="M5434.351-6.806c.077,3.772-1.271,5.728-3.855,6.146a8.243,8.243,0,0,1-2.354-.092,66.781,66.781,0,0,1-17.508-4.339,21.468,21.468,0,0,1-7.187-4.626c-4.477-4.592-4.1-10.824,1.113-14.531a39.813,39.813,0,0,1,6.6-3.292,1.251,1.251,0,0,1,1.77.787,1.347,1.347,0,0,1-.885,1.741c-1.8.815-3.639,1.557-5.346,2.534a6.6,6.6,0,0,0-3.43,4.283,6.962,6.962,0,0,0,2.108,6.58,19.59,19.59,0,0,0,7.2,4.4A69.285,69.285,0,0,0,5429.391-3.3a1.85,1.85,0,0,0,2.259-1.792c-.04-5.238-.788-10.329-3.588-14.9a12.288,12.288,0,0,0-8.414-5.884c-1.073-.211-1.594-.812-1.448-1.638.151-.856.9-1.237,2.018-1.006,5.849,1.211,9.54,4.911,11.776,10.262A33.548,33.548,0,0,1,5434.351-6.806Z" transform="translate(-5029.452 5261.766)" fill="#1d272b"/>
    <path id="Trazado_170436" data-name="Trazado 170436" d="M5676.579,109.071l9.358-.618,3.231-.214a1.756,1.756,0,0,0,1.758-1.679,20.7,20.7,0,0,0,.172-2.166,1.187,1.187,0,0,1,1.246-1.254,1.149,1.149,0,0,1,1.334,1.16,15.342,15.342,0,0,1-.649,4.063,4.057,4.057,0,0,1-3.709,2.549c-4.889.409-9.789.687-14.687.967a4.48,4.48,0,0,1-4.761-3.373,41.5,41.5,0,0,0-5.073-11.541,4.4,4.4,0,0,1,.646-5.846,5.39,5.39,0,0,1,2.7-1.267c5.6-.628,11.22-1.111,16.83-1.661a5.123,5.123,0,0,1,3.714,1.02c1.269.945,2.582,1.831,3.859,2.765a4.818,4.818,0,0,1,1.915,5.245,1.283,1.283,0,0,1-1.444,1.073,1.245,1.245,0,0,1-1.207-1.218,4.644,4.644,0,0,1,.044-.985,1.949,1.949,0,0,0-.846-1.887c-1.365-.981-2.71-2-4.124-2.9a2.841,2.841,0,0,0-1.669-.4q-8.372.753-16.735,1.609c-1.594.161-2.137,1.6-1.365,3.111q2.251,4.389,4.332,8.865a19.826,19.826,0,0,1,.907,2.923,2.033,2.033,0,0,0,2.442,1.756c.593-.026,1.185-.076,1.776-.115Z" transform="translate(-5240.895 5168.129)" fill="#1d272b"/>
    <path id="Trazado_170437" data-name="Trazado 170437" d="M5584.57,258.363a18.854,18.854,0,0,1-8.8-1.956c-4.808-2.6-5.874-7.365-2.574-11.719a19.117,19.117,0,0,1,9.915-6.548,75.926,75.926,0,0,1,7.819-1.611,2.644,2.644,0,0,1,.494-.024c.991-.006,1.6.5,1.616,1.336.01.784-.552,1.31-1.494,1.362a26.916,26.916,0,0,0-9.028,2.016,16.622,16.622,0,0,0-7.164,5.108c-2.3,3.046-1.608,6.024,1.8,7.761a15.848,15.848,0,0,0,7.776,1.559c5.364-.154,10.385-1.5,14.668-4.861a12.888,12.888,0,0,0,2.962-3.389,4.063,4.063,0,0,0-1.172-5.77,16.4,16.4,0,0,0-2.573-1.442c-.831-.426-1.184-1.1-.887-1.825a1.36,1.36,0,0,1,1.907-.665,15.62,15.62,0,0,1,2.306,1.125c4.064,2.531,4.992,6.887,2.276,10.828-2.236,3.245-5.461,5.192-9.041,6.627A29.945,29.945,0,0,1,5584.57,258.363Z" transform="translate(-5166.545 5049.156)" fill="#1d272b"/>
    <path id="Trazado_170438" data-name="Trazado 170438" d="M5780.02-34.932c.222-5.434,2.457-10.266,5.838-14.644a25.191,25.191,0,0,1,6.708-6.076c1.06-.657,1.841-.639,2.331.114s.217,1.458-.878,2.164A25.119,25.119,0,0,0,5783.3-38.7a12.514,12.514,0,0,0-.277,6.452,4.406,4.406,0,0,0,5.392,3.556,11.95,11.95,0,0,0,5.491-2.582,24.389,24.389,0,0,0,9.418-15.83,14.793,14.793,0,0,0-.26-4.4,4.088,4.088,0,0,0-2.1-2.863c-.887-.53-1.1-1.268-.657-1.974a1.42,1.42,0,0,1,2.091-.308c2.6,1.571,3.567,4.059,3.734,6.92a21.161,21.161,0,0,1-2.965,11.533c-2.623,4.78-6.078,8.775-11.109,11.168a9.883,9.883,0,0,1-5.46,1.092c-3.663-.439-6.083-3.13-6.479-7.125C5780.069-33.614,5780.061-34.176,5780.02-34.932Z" transform="translate(-5333.953 5284.516)" fill="#1d272b"/>
    <path id="Trazado_170439" data-name="Trazado 170439" d="M5738.369,210.185a3.336,3.336,0,0,1,2.99,1.22q3.831,4.909,7.637,9.839c1.689,2.2.825,4.641-1.843,5.344-3.06.806-6.116,1.632-9.173,2.451-2.358.632-3.858-.263-4.417-2.626a14.437,14.437,0,0,0-5.783-9.026,2.927,2.927,0,0,1-1.277-3.024,2.709,2.709,0,0,1,2.05-2.435C5731.974,211.237,5735.424,210.7,5738.369,210.185Zm-1.7,16.364c.356-.067.455-.079.55-.1,3.113-.842,6.224-1.691,9.339-2.523.783-.209.63-.6.265-1.072-2.464-3.172-4.914-6.355-7.415-9.5a1.453,1.453,0,0,0-1.162-.386c-2.694.412-5.38.887-8.064,1.365a4.748,4.748,0,0,0-.952.391,4.374,4.374,0,0,0,.681.858,14.7,14.7,0,0,1,4.642,5.678c.656,1.463,1.092,3.024,1.652,4.532A4.088,4.088,0,0,0,5736.67,226.55Z" transform="translate(-5290.994 5070.264)" fill="#1d272b"/>
    <path id="Trazado_170440" data-name="Trazado 170440" d="M5711.911-45.941l-10,1.213c.984,5.99,1.966,11.969,2.97,18.081,1.961-.545,3.831-1.04,5.676-1.611.216-.067.408-.544.43-.845.152-2.1.255-4.212.379-6.319.064-1.1.573-1.713,1.386-1.69.869.024,1.371.721,1.312,1.844-.118,2.239-.235,4.478-.365,6.716a2.877,2.877,0,0,1-2.344,2.912c-1.84.516-3.678,1.043-5.525,1.535a2.786,2.786,0,0,1-3.692-2.384c-.45-2.862-.823-5.736-1.273-8.6-.378-2.4-.823-4.8-1.231-7.193-.121-.708-.238-1.417-.319-2.13a2.707,2.707,0,0,1,2.31-2.977c3.3-.449,6.6-.872,9.912-1.214a2.72,2.72,0,0,1,3.082,3.018c-.023.659-.052,1.319-.113,1.975a1.305,1.305,0,0,1-1.425,1.308,1.268,1.268,0,0,1-1.263-1.37C5711.807-44.357,5711.871-45.045,5711.911-45.941Z" transform="translate(-5269.213 5277.829)" fill="#1d272b"/>
    <path id="Trazado_170441" data-name="Trazado 170441" d="M5400.521,85.592c0-.99-.012-1.98,0-2.97A3.4,3.4,0,0,1,5405.9,79.8a50.079,50.079,0,0,0,10.636,5.845,3.241,3.241,0,0,1,1.778,4.208c-.244.683-.522,1.353-.786,2.029a3.3,3.3,0,0,1-3.815,2.269q-5.3-.967-10.574-2.095a3.242,3.242,0,0,1-2.612-3.3C5400.5,87.7,5400.522,86.648,5400.521,85.592Zm2.7.084h0a26.29,26.29,0,0,0,.037,2.865,1.294,1.294,0,0,0,.755.922c3.285.706,6.583,1.352,9.886,1.966a1.14,1.14,0,0,0,.988-.358,6.193,6.193,0,0,0,.754-2.589c-.017-.354-1.148-.658-1.773-.984-.059-.03-.125-.046-.182-.078-3-1.72-5.986-3.449-8.992-5.152-.315-.179-.8-.38-1.053-.256s-.384.64-.405.994C5403.184,83.894,5403.221,84.786,5403.221,85.676Z" transform="translate(-5029.584 5175.357)" fill="#1d272b"/>
    <path id="Trazado_170442" data-name="Trazado 170442" d="M5547.65,164.687a6.741,6.741,0,0,1-6.8,6.77,6.863,6.863,0,0,1-6.747-6.711c.023-3.287,2.854-6.921,6.759-6.852A6.786,6.786,0,0,1,5547.65,164.687Zm-6.812,4.08a4.082,4.082,0,1,0,.075-8.163,4.175,4.175,0,0,0-4.228,3.963A4.275,4.275,0,0,0,5540.839,168.768Z" transform="translate(-5136.727 5112.203)" fill="#1d272b"/>
    <path id="Trazado_170443" data-name="Trazado 170443" d="M5450.912,266.591a6.192,6.192,0,1,1-6.138-6.215A6.227,6.227,0,0,1,5450.912,266.591Zm-6.223-3.5a3.481,3.481,0,1,0,3.511,3.418A3.507,3.507,0,0,0,5444.689,263.087Z" transform="translate(-5060.072 5030.01)" fill="#1d272b"/>
    <path id="Trazado_170444" data-name="Trazado 170444" d="M5827.963-13.116a5.938,5.938,0,0,1-5.944,5.981,5.94,5.94,0,0,1-5.948-5.981,5.9,5.9,0,0,1,5.9-5.917A5.9,5.9,0,0,1,5827.963-13.116Zm-2.7.013a3.261,3.261,0,0,0-3.274-3.256,3.257,3.257,0,0,0-3.2,3.224A3.217,3.217,0,0,0,5822-9.841,3.242,3.242,0,0,0,5825.26-13.1Z" transform="translate(-5362.866 5254.101)" fill="#1d272b"/>
    <path id="Trazado_170445" data-name="Trazado 170445" d="M5492.207,24.016a5.943,5.943,0,1,1-5.934-5.97A5.914,5.914,0,0,1,5492.207,24.016Zm-5.972,3.211a3.247,3.247,0,1,0-3.2-3.3A3.244,3.244,0,0,0,5486.234,27.227Z" transform="translate(-5093.59 5224.362)" fill="#1d272b"/>
    <path id="Trazado_170446" data-name="Trazado 170446" d="M5591.69-36.538c.059-3.037,3.016-6.056,6.109-5.862,3.891.244,5.788,2.878,5.75,5.921-.046,3.676-2.28,5.964-5.975,5.91C5593.854-30.622,5592.055-32.824,5591.69-36.538Zm6.259-3.152c-2.118,0-3.512,1.237-3.562,3.11-.064,2.372,1.54,3.281,3.278,3.377a3.109,3.109,0,0,0,3.23-3.224C5600.814-38.324,5599.813-39.692,5597.949-39.69Z" transform="translate(-5182.91 5272.848)" fill="#1d272b"/>
    <path id="Trazado_170447" data-name="Trazado 170447" d="M5725.236,121.246a5.874,5.874,0,1,1,11.747.048c.016,3.589-3.108,5.7-5.93,5.84A5.813,5.813,0,0,1,5725.236,121.246Zm5.886-3.147a3.1,3.1,0,0,0-3.173,3.092,3.169,3.169,0,0,0,3.145,3.246,3.233,3.233,0,0,0,3.2-3.216A3.2,3.2,0,0,0,5731.122,118.1Z" transform="translate(-5290.016 5146.292)" fill="#1d272b"/>
    <path id="Trazado_170448" data-name="Trazado 170448" d="M5663.642,266.255a5.146,5.146,0,1,1-5.143-5.145A5.126,5.126,0,0,1,5663.642,266.255Zm-2.71.106a2.437,2.437,0,1,0-4.869-.217,2.437,2.437,0,1,0,4.869.217Z" transform="translate(-5232.361 5029.421)" fill="#1d272b"/>
    <path id="Trazado_170449" data-name="Trazado 170449" d="M5722.517-21.556c-1.961.009-3.892-1.648-3.9-3.342,0-2.465,1.664-4.42,3.8-4.455a3.937,3.937,0,0,1,3.945,3.854A3.924,3.924,0,0,1,5722.517-21.556Zm1.12-3.932a1.122,1.122,0,0,0-1.232-1.134,1.072,1.072,0,0,0-1.107,1.149,1.082,1.082,0,0,0,1.167,1.188A1.122,1.122,0,0,0,5723.637-25.488Z" transform="translate(-5284.711 5262.377)" fill="#1d272b"/>
    <path id="Trazado_170450" data-name="Trazado 170450" d="M5486.569-95.711c1.418,0,2.836-.009,4.254,0,1,.009,1.631.532,1.644,1.32s-.616,1.367-1.6,1.373q-4.254.023-8.509,0c-1.021-.006-1.629-.529-1.636-1.327-.007-.847.61-1.357,1.692-1.365C5483.8-95.72,5485.184-95.712,5486.569-95.711Z" transform="translate(-5093.911 5315.6)" fill="#1d272b"/>
    <path id="Trazado_170451" data-name="Trazado 170451" d="M5739.891,323.958c-1.383,0-2.767.01-4.15,0-1.079-.01-1.708-.513-1.729-1.343-.021-.851.587-1.359,1.679-1.362q4.15-.011,8.3,0c1.131,0,1.717.463,1.729,1.314s-.63,1.378-1.779,1.389C5742.592,323.968,5741.241,323.958,5739.891,323.958Z" transform="translate(-5297.054 4981.192)" fill="#1d272b"/>
    <path id="Trazado_170452" data-name="Trazado 170452" d="M5819.66,195.129c-1.385,0-2.769,0-4.153,0-1.1,0-1.779-.49-1.8-1.283-.015-.641.893-1.385,1.776-1.419.691-.026,1.385-.007,2.077-.007,2.124,0,4.248-.019,6.372.009a1.28,1.28,0,0,1,1.358,1.825c-.206.7-.748.862-1.379.865-1.417.007-2.834,0-4.252,0Z" transform="translate(-5360.972 5084.517)" fill="#1d272b"/>
    <path id="Trazado_170453" data-name="Trazado 170453" d="M5415.319-60.944c1.417,0,2.833-.013,4.25.006.973.013,1.559.507,1.577,1.27.021.814-.573,1.378-1.578,1.386q-4.3.034-8.6,0c-.984-.007-1.6-.591-1.567-1.388s.592-1.261,1.568-1.274C5412.419-60.959,5413.869-60.945,5415.319-60.944Z" transform="translate(-5036.711 5287.718)" fill="#1d272b"/>
    <path id="Trazado_170454" data-name="Trazado 170454" d="M5764.718-78.085c1.417,0,2.834-.014,4.25.006,1.022.014,1.619.542,1.6,1.351s-.622,1.316-1.643,1.321q-4.2.018-8.4,0c-1.1,0-1.709-.516-1.693-1.364s.593-1.3,1.737-1.313C5761.95-78.093,5763.333-78.085,5764.718-78.085Z" transform="translate(-5316.957 5301.464)" fill="#1d272b"/>
    <path id="Trazado_170455" data-name="Trazado 170455" d="M5841.559,139.555c-1.383,0-2.766.01-4.149,0-1.09-.01-1.72-.522-1.708-1.352.013-.786.641-1.32,1.648-1.325q4.247-.021,8.5,0c1.011.007,1.612.549,1.606,1.356-.006.788-.624,1.3-1.645,1.315C5844.391,139.567,5842.975,139.554,5841.559,139.555Z" transform="translate(-5378.61 5129.068)" fill="#1d272b"/>
    <path id="Trazado_170456" data-name="Trazado 170456" d="M5805.188,146.531a1.373,1.373,0,0,1-1.306,1.351,1.393,1.393,0,0,1-1.384-1.278,1.347,1.347,0,0,1,1.361-1.377A1.312,1.312,0,0,1,5805.188,146.531Z" transform="translate(-5351.98 5122.361)" fill="#1d272b"/>
    <path id="Trazado_170457" data-name="Trazado 170457" d="M5862.411-60.57a1.326,1.326,0,0,1,1.351,1.289,1.324,1.324,0,0,1-1.236,1.4,1.344,1.344,0,0,1-1.4-1.339A1.324,1.324,0,0,1,5862.411-60.57Z" transform="translate(-5398.998 5287.414)" fill="#1d272b"/>
    <path id="Trazado_170458" data-name="Trazado 170458" d="M5687.567,238.228a1.351,1.351,0,0,1,1.384,1.264,1.388,1.388,0,0,1-1.266,1.394,1.324,1.324,0,0,1-1.415-1.326A1.3,1.3,0,0,1,5687.567,238.228Z" transform="translate(-5258.765 5047.773)" fill="#1d272b"/>
    <path id="Trazado_170459" data-name="Trazado 170459" d="M5641.089,75.446a1.341,1.341,0,1,1-2.682-.042,1.32,1.32,0,0,1,1.357-1.274A1.335,1.335,0,0,1,5641.089,75.446Z" transform="translate(-5220.377 5179.383)" fill="#1d272b"/>
    <path id="Trazado_170460" data-name="Trazado 170460" d="M5450.694,162.86c-.592.034-1.023-.384-1.09-1.154a1.341,1.341,0,0,1,1.368-1.373,1.311,1.311,0,0,1,1.311,1.319C5452.286,162.4,5451.773,162.846,5450.694,162.86Z" transform="translate(-5068.951 5110.247)" fill="#1d272b"/>
    <path id="Trazado_170461" data-name="Trazado 170461" d="M5762.944-7.527a1.318,1.318,0,0,1-1.227-1.4,1.365,1.365,0,0,1,1.4-1.246,1.34,1.34,0,0,1,1.26,1.471A1.311,1.311,0,0,1,5762.944-7.527Z" transform="translate(-5319.272 5247)" fill="#1d272b"/>
    <path id="Trazado_170462" data-name="Trazado 170462" d="M5472.606-26.148a1.332,1.332,0,0,1-1.337,1.3,1.321,1.321,0,0,1-1.3-1.331,1.329,1.329,0,0,1,1.379-1.357A1.364,1.364,0,0,1,5472.606-26.148Z" transform="translate(-5085.283 5260.921)" fill="#1d272b"/>
    <path id="Trazado_170463" data-name="Trazado 170463" d="M5633.674,121.7a1.3,1.3,0,0,1-1.341-1.279,1.266,1.266,0,0,1,1.246-1.359,1.32,1.32,0,1,1,.095,2.637Z" transform="translate(-5215.506 5143.343)" fill="#1d272b"/>
    <path id="Trazado_170464" data-name="Trazado 170464" d="M5773.456,243.329a3.445,3.445,0,1,0,0-6.89,3.445,3.445,0,1,0,0,6.89Z" transform="translate(-5325.924 5049.208)" fill="#1d272b"/>
    <path id="Trazado_170465" data-name="Trazado 170465" d="M5773.456,243.329a3.445,3.445,0,1,1,0-6.89,3.445,3.445,0,1,1,0,6.89Zm0-2.343c.361-.559.7-.85.688-1.13-.008-.24-.447-.681-.632-.65a1.056,1.056,0,0,0-.731.663C5772.733,240.113,5773.1,240.429,5773.454,240.986Z" transform="translate(-5325.924 5049.208)" fill="#1d272b"/>
  </g>
</svg>
