<svg xmlns="http://www.w3.org/2000/svg" xmlns:xlink="http://www.w3.org/1999/xlink" width="79.155" height="79.153" viewBox="0 0 79.155 79.153">
  <defs>
    <radialGradient id="radial-gradient" cx="0.077" cy="0.019" r="1.465" gradientTransform="matrix(1, 0, 0, -1, 0, 9.666)" gradientUnits="objectBoundingBox">
      <stop offset="0" stop-color="#f4f4f5"/>
      <stop offset="0.477" stop-color="#f7f8fa"/>
      <stop offset="0.715" stop-color="#fff"/>
    </radialGradient>
  </defs>
  <g id="Grupo_134259" data-name="Grupo 134259" transform="translate(-571.5 -5981.424)">
    <g id="Group_18423" data-name="Group 18423" transform="translate(571.5 5981.424)">
      <g id="Group_18421" data-name="Group 18421">
        <g id="Group_18420" data-name="Group 18420">
          <g id="Group_18419" data-name="Group 18419">
            <path id="Path_40936" data-name="Path 40936" d="M201.954,554.407a39.577,39.577,0,1,1-39.578-39.575h0A39.576,39.576,0,0,1,201.954,554.407Z" transform="translate(-122.8 -514.832)" fill="#fff"/>
          </g>
        </g>
      </g>
      <path id="Path_40937" data-name="Path 40937" d="M201.953,554.407a39.42,39.42,0,1,0,0,.312Z" transform="translate(-122.799 -514.832)" fill="url(#radial-gradient)"/>
      <path id="Path_40938" data-name="Path 40938" d="M190.028,551.858a30.209,30.209,0,1,0-30.209,30.209h0a30.1,30.1,0,0,0,30.209-29.984Z" transform="translate(-120.122 -512.151)" fill="none" stroke="#1d272b" stroke-miterlimit="10" stroke-width="2"/>
      <g id="Group_18422" data-name="Group 18422" transform="translate(7.012 22.22)">
        <path id="Path_40939" data-name="Path 40939" d="M195.973,530.78a39.581,39.581,0,0,1-68.14,39.411,39.456,39.456,0,0,0,68.14-39.411Z" transform="translate(-127.833 -530.78)" fill="#e7e9eb"/>
      </g>
    </g>
    <g id="Grupo_133095" data-name="Grupo 133095" transform="translate(597.822 5999.008)">
      <path id="Trazado_170481" data-name="Trazado 170481" d="M7389.872-1049.634c-1.03,1.541-1.471,2.745-2.333,3.334a4.023,4.023,0,0,1-3.144.626c-1.352-.5-1.683-1.941-.866-3.253a85.254,85.254,0,0,1,4.817-7.227c.649-.838,1.992-1.137,2.57-1.444-.439-2.338-1.3-4.753-1.185-7.121.07-1.423,1.416-3.065,2.627-4.091a6.7,6.7,0,0,1,9.025.582c2.79,2.722,2.776,6.292-.279,10.777,2.756-.346,3.77,1.493,4.833,3.338,1.084,1.883,2.3,3.689,3.394,5.567.8,1.367.692,2.716-.743,3.562s-2.634.305-3.484-1.052c-.6-.952-1.158-1.926-1.765-2.941a10.414,10.414,0,0,0,2.04,10.622c4.828,4.952,3.028,6.608-.167,11.5a2.715,2.715,0,0,1-2.632.519c-.618-.37-.676-1.692-.948-2.606-.033-.114.15-.279.193-.431.33-1.161,1.293-2.861.853-3.388-1.456-1.746-2.751-3.809-5.78-3.668a7.547,7.547,0,0,0-5.859,2.56c-1.005,1.122-1.467,1.967-.561,3.3a3.537,3.537,0,0,1,.83,1.962c-.076.841-.44,2.025-1.055,2.345a2.591,2.591,0,0,1-2.476-.494,22.836,22.836,0,0,1-2.995-5.2c-.864-2.17.32-4.019,1.919-5.33C7390.608-1040.491,7390.123-1044.715,7389.872-1049.634Zm11.74-3.166.841-.185c.463.7.949,1.393,1.384,2.113.833,1.377,1.584,2.807,2.487,4.135a1.826,1.826,0,0,0,1.388.578c.237-.007.744-.871.637-1.045-1.8-2.919-3.643-5.813-5.579-8.642-.216-.315-1.056-.271-1.607-.276-3.14-.026-6.283-.072-9.42.019a3.384,3.384,0,0,0-2.355.835,81.094,81.094,0,0,0-4.542,6.828c-.228.372.129,1.1.215,1.664.547-.177,1.319-.187,1.6-.563,1.013-1.346,1.837-2.833,2.784-4.233a13.73,13.73,0,0,1,1.271-1.428l.625.245v8.565h10.271Zm.536-10.364a5.676,5.676,0,0,0-5.612-5.707,5.7,5.7,0,0,0-5.761,5.557,5.7,5.7,0,0,0,5.728,5.845A5.71,5.71,0,0,0,7402.147-1063.163Zm-5.538,25.408c2.123.786,3.629-.384,4.8-2.012a2.987,2.987,0,0,0,.312-2.167c-.077-.346-.959-.712-1.488-.729-2.475-.076-4.955-.084-7.429.007-.571.021-1.478.426-1.6.842a2.8,2.8,0,0,0,.348,2.114A4.267,4.267,0,0,0,7396.61-1037.755Zm-7.142,10.439.671-.237c-.629-1.684-2.046-3.568-1.684-5,.43-1.694,2.4-3,3.746-4.53l-1.986-1.886C7384.882-1034.283,7384.7-1030.929,7389.468-1027.316Zm10.871-9.526c1.022.858,1.719,1.525,2.5,2.077,1.912,1.355,2.159,2.885.827,4.836a8.855,8.855,0,0,0-.771,2.47c5.3-3.8,4.984-7.828-.26-11.384Z" transform="translate(-7383.088 1070.293)" fill="#1d272b"/>
    </g>
  </g>
</svg>
