<svg xmlns="http://www.w3.org/2000/svg" xmlns:xlink="http://www.w3.org/1999/xlink" width="79.155" height="79.153" viewBox="0 0 79.155 79.153">
  <defs>
    <radialGradient id="radial-gradient" cx="0.077" cy="0.019" r="1.465" gradientTransform="matrix(1, 0, 0, -1, 0, 9.666)" gradientUnits="objectBoundingBox">
      <stop offset="0" stop-color="#f4f4f5"/>
      <stop offset="0.477" stop-color="#f7f8fa"/>
      <stop offset="0.715" stop-color="#fff"/>
    </radialGradient>
  </defs>
  <g id="Grupo_134260" data-name="Grupo 134260" transform="translate(-571.5 -6101.344)">
    <g id="Group_18423" data-name="Group 18423" transform="translate(571.5 6101.344)">
      <g id="Group_18421" data-name="Group 18421">
        <g id="Group_18420" data-name="Group 18420">
          <g id="Group_18419" data-name="Group 18419">
            <path id="Path_40936" data-name="Path 40936" d="M201.954,554.407a39.577,39.577,0,1,1-39.578-39.575h0A39.576,39.576,0,0,1,201.954,554.407Z" transform="translate(-122.8 -514.832)" fill="#fff"/>
          </g>
        </g>
      </g>
      <path id="Path_40937" data-name="Path 40937" d="M201.953,554.407a39.42,39.42,0,1,0,0,.312Z" transform="translate(-122.799 -514.832)" fill="url(#radial-gradient)"/>
      <path id="Path_40938" data-name="Path 40938" d="M190.028,551.858a30.209,30.209,0,1,0-30.209,30.209h0a30.1,30.1,0,0,0,30.209-29.984Z" transform="translate(-120.122 -512.151)" fill="none" stroke="#1d272b" stroke-miterlimit="10" stroke-width="2"/>
      <g id="Group_18422" data-name="Group 18422" transform="translate(7.012 22.22)">
        <path id="Path_40939" data-name="Path 40939" d="M195.973,530.78a39.581,39.581,0,0,1-68.14,39.411,39.456,39.456,0,0,0,68.14-39.411Z" transform="translate(-127.833 -530.78)" fill="#e7e9eb"/>
      </g>
    </g>
    <g id="Grupo_133096" data-name="Grupo 133096" transform="translate(594.441 6117.944)">
      <path id="Trazado_170482" data-name="Trazado 170482" d="M7319.7-1326.453a1.4,1.4,0,0,1-.981-.967c-.785-1.865-1.6-3.718-2.39-5.579a.516.516,0,0,0-.332-.311,18.379,18.379,0,0,1-6.259-3.692,13.748,13.748,0,0,1-4.307-7.91,17.029,17.029,0,0,1,.341-7.792,14.27,14.27,0,0,1,3.574-6.035,30,30,0,0,1,3.565-3c.055-.042.107-.086.177-.142-.168-.1-.324-.2-.475-.3a6.148,6.148,0,0,1-2.764-3.954,4.068,4.068,0,0,1-.06-1.048,1.467,1.467,0,0,1,.556-1.12c.995-.782,1.991-1.564,3-2.332.7-.533,1.413-1.046,2.126-1.561a1.047,1.047,0,0,1,1.43.142,1.05,1.05,0,0,1-.011,1.405,2.013,2.013,0,0,1-.291.242q-2.268,1.706-4.54,3.406a.383.383,0,0,0-.15.453,4.182,4.182,0,0,0,1.568,2.383,6.083,6.083,0,0,0,3.038,1.208c.494.065.994.079,1.492.109a1.054,1.054,0,0,1,1.021,1.074,1.049,1.049,0,0,1-1.067,1.025,11.649,11.649,0,0,1-2.49-.268.283.283,0,0,0-.207.026c-.65.525-1.282,1.073-1.944,1.584a18.592,18.592,0,0,0-3.513,3.358,12.041,12.041,0,0,0-2.4,5.776,14.974,14.974,0,0,0,.54,6.733,11.886,11.886,0,0,0,4.743,6.227,18.894,18.894,0,0,0,6.9,2.862c.741.157,1.5.249,2.248.349a1.069,1.069,0,0,1,.981,1.157,1.011,1.011,0,0,1-1.133.942c-.905-.11-1.8-.284-2.7-.431l-.115-.022c.036.094.062.168.093.24q.891,2.072,1.783,4.143a1.056,1.056,0,0,1-.765,1.585c-.011,0-.019.018-.029.027Z" transform="translate(-7305.132 1372.406)" fill="#1d272b"/>
      <path id="Trazado_170483" data-name="Trazado 170483" d="M7885.581-1280.541c-.011-.008-.021-.021-.034-.024a1.063,1.063,0,0,1-.761-1.628,20.924,20.924,0,0,0,1.688-5.174,11.892,11.892,0,0,0-.491-5.968c-.5-1.463-1.036-2.912-1.5-4.385a32.06,32.06,0,0,1-1.181-5.733,55.4,55.4,0,0,1-.429-5.973q-.05-2.935.167-5.861a61.236,61.236,0,0,1,.9-6.877c.093-.49.194-.979.308-1.465a1.043,1.043,0,0,1,1.237-.814,1.047,1.047,0,0,1,.822,1.266c-.259,1.46-.564,2.914-.756,4.383-.218,1.679-.369,3.369-.485,5.059a50.108,50.108,0,0,0,0,6.516,47.779,47.779,0,0,0,.721,5.984,33.964,33.964,0,0,0,1.627,5.621,22.192,22.192,0,0,1,1.078,3.5,14.562,14.562,0,0,1-.314,6.805,28.013,28.013,0,0,1-1.46,3.993,1.28,1.28,0,0,1-.926.774Z" transform="translate(-7858.437 1326.494)" fill="#1d272b"/>
      <path id="Trazado_170484" data-name="Trazado 170484" d="M7483.5-1006.249c.109-.139.191-.252.282-.358a1.27,1.27,0,0,1,1.568-.4,3.963,3.963,0,0,1,2.1,1.77,1.961,1.961,0,0,1-.262,2.313.674.674,0,0,1-.955.168,7.368,7.368,0,0,1-.613-.454c.007.107.012.193.018.279a4.093,4.093,0,0,1-.233,1.927,1.736,1.736,0,0,1-1.44,1.179,2.313,2.313,0,0,1-1.128-.206c-.089-.036-.177-.075-.294-.125a2.93,2.93,0,0,0,0,.375.2.2,0,0,0,.107.128,4.591,4.591,0,0,1,2.623,3.815,3.717,3.717,0,0,1-1.4,3.479,4.4,4.4,0,0,1-2.2,1.126,4.316,4.316,0,0,1-3.038-.654,4.039,4.039,0,0,1-1.939-3.1c-.04-.285-.086-.569-.132-.853a1,1,0,0,0-.281-.572,5.479,5.479,0,0,1-1.531-2.529,6.269,6.269,0,0,1,.13-3.37,12.221,12.221,0,0,1,2.529-4.762,4.433,4.433,0,0,1,2.433-1.5,3,3,0,0,1,3.6,2.161C7483.469-1006.368,7483.48-1006.329,7483.5-1006.249Zm-1.666,6.054a2.347,2.347,0,0,0-.626-1.721,1.436,1.436,0,0,0-1.3-.341,1.492,1.492,0,0,0-.834.544c-.334.424-.63.879-.956,1.31a1.871,1.871,0,0,1-.428.423.325.325,0,0,1-.461-.112.351.351,0,0,1,.049-.445c.146-.167.292-.334.423-.513.179-.244.331-.506.515-.746a2.935,2.935,0,0,1,1.58-1.169,3.947,3.947,0,0,1-.151-.458,10.891,10.891,0,0,1-.183-1.075.319.319,0,0,1,.343-.347.331.331,0,0,1,.354.339,3.876,3.876,0,0,0,.351,1.4.289.289,0,0,0,.168.158,2.23,2.23,0,0,1,1.716,1.729.333.333,0,0,0,.13.2,5.5,5.5,0,0,0,.887.426.964.964,0,0,0,1.271-.56,2.321,2.321,0,0,0,.173-.5,6.426,6.426,0,0,0-.016-2.14c-.018-.189-.047-.376.139-.493a.473.473,0,0,1,.537.035,7.1,7.1,0,0,1,.573.46c.171.144.336.294.5.441a1.271,1.271,0,0,0,.161-1.678,3.342,3.342,0,0,0-1.37-1.186c-.646-.329-.929-.248-1.284.394a4.331,4.331,0,0,0-.49,2.95.35.35,0,0,1-.22.407.332.332,0,0,1-.429-.165.655.655,0,0,1-.083-.258c-.017-.357-.023-.715-.027-1.073-.007-.618.034-1.24-.023-1.853a2.25,2.25,0,0,0-2.862-2.046,3.808,3.808,0,0,0-2.046,1.3,11.582,11.582,0,0,0-2.312,4.337,5.931,5.931,0,0,0-.235,2.645,4.7,4.7,0,0,0,1.446,2.677,1.48,1.48,0,0,1,.438.844c.066.416.131.833.213,1.246a3.224,3.224,0,0,0,1.031,1.929,3.491,3.491,0,0,0,4.426.359,3.28,3.28,0,0,0,1.635-3.379,4.34,4.34,0,0,0-1.342-2.567,4.551,4.551,0,0,0-1.048-.611,1.96,1.96,0,0,1-.971-.738.211.211,0,0,0-.133-.089c-.571-.115-.861-.045-1.114.445a2.722,2.722,0,0,1-.131.241,16.007,16.007,0,0,1-.907,1.366,1.873,1.873,0,0,1-1.453.748.338.338,0,0,1-.381-.332c-.007-.2.132-.316.352-.369a1.775,1.775,0,0,0,.67-.264,3.066,3.066,0,0,0,.631-.7,9.488,9.488,0,0,0,.654-1.13A1.559,1.559,0,0,1,7481.838-1000.2Z" transform="translate(-7467.426 1024.012)" fill="#1d272b"/>
    </g>
  </g>
</svg>
