<svg xmlns="http://www.w3.org/2000/svg" width="73.773" height="99.079" viewBox="0 0 73.773 99.079">
  <g id="Grupo_134240" data-name="Grupo 134240" transform="translate(-385.373 -1217.055)">
    <path id="Trazado_165193" data-name="Trazado 165193" d="M2538.539-338.516c.021-.32.06-.64.06-.96q0-15.91,0-31.82c0-.305-.029-.61-.055-1.122l-1.19,1.467-12.51-8.348c.32-.531.6-.994.877-1.454,1.676-2.749,3.376-5.483,5.023-8.248,2.933-4.923,7.349-7.212,12.969-7.339,2.576-.058,5.155,0,7.732-.013,1.425,0,1.988-.569,2.01-1.976a.909.909,0,0,1,0-.1,10.717,10.717,0,0,0-1.923-7.54,71.737,71.737,0,0,1-3.882-6.785,6.543,6.543,0,0,1-.753-2.828,79.926,79.926,0,0,1,.188-9.172,14.7,14.7,0,0,1,11.89-12.608,14.837,14.837,0,0,1,16.8,9.819,27.305,27.305,0,0,1,.813,4.152,4.95,4.95,0,0,1,.025.869c0,2.225.371,4.537-.118,6.649s-1.835,4.01-2.814,6a34.529,34.529,0,0,1-1.964,3.867,11.985,11.985,0,0,0-1.7,7.832c.09,1.223.625,1.8,1.882,1.817,3.284.054,6.586-.1,9.848.2a13.606,13.606,0,0,1,10.716,6.71c1.906,3.06,3.753,6.157,5.625,9.239.164.27.313.549.523.918l-12.556,8.379-1.027-1.423a2.486,2.486,0,0,0-.149.553q-.008,16.443,0,32.886a2.19,2.19,0,0,0,.065.378h-3.481c.011-.386.031-.772.031-1.158q0-20.261,0-40.522V-381.4h3.466c-.625,2.419.63,4.123,2.053,5.846l7.111-4.75c-1.555-2.558-3.038-5.006-4.533-7.448a9.129,9.129,0,0,0-.883-1.262,11.528,11.528,0,0,0-9.16-3.978c-2.833.008-5.671.032-8.5-.108a4.59,4.59,0,0,1-4.275-4.249c-.109-1.263-.02-2.543-.02-3.807H2563.5v11.628c1.112.147,2.172.213,3.2.435,6.92,1.5,11.5,7.279,11.553,14.678.052,6.962.069,13.924-.006,20.885-.071,6.611-3.165,11.326-9.254,13.966a28.83,28.83,0,0,1-3.576,1.046h-7.542a1.347,1.347,0,0,0-.329-.173c-6.256-1.29-10.274-4.963-11.92-11.177a1.324,1.324,0,0,0-.371-.735c-.978-.653-1.994-1.249-3.1-1.928a18.452,18.452,0,0,0,5.858,11.118l-2.376,2.445-3.618-4.225v4.676Zm36.373-22.289c-.5.2-.92.343-1.324.519a19.357,19.357,0,0,1-8.651,2.045c-.886-.04-1.356.552-1.474,1.461-.445,3.447-2.3,5.106-5.732,5.064a3.576,3.576,0,0,0-3.033,1.092,1.608,1.608,0,0,1-2.338.076,1.685,1.685,0,0,1,.02-2.426,5.33,5.33,0,0,1,3.807-2.031,10.466,10.466,0,0,0,2.4-.149,2.278,2.278,0,0,0,1.352-1.125,5.848,5.848,0,0,0,.054-2.044,22.155,22.155,0,0,1-3.365-.033c-1.462-.233-2.726-.194-3.611,1.187a.534.534,0,0,1-.154.115,1.548,1.548,0,0,1-2.115-.088,1.512,1.512,0,0,1-.268-2.092c.128-.2.254-.409.408-.656-.673-.267-1.268-.505-1.864-.737-.114-.044-.237-.066-.509-.14.435,4.615-.948,9.363,1.826,13.677.8-.388,1.533-.772,2.29-1.109a1.672,1.672,0,0,1,2.324.681,1.638,1.638,0,0,1-.82,2.273c-.454.268-.928.5-1.426.77,3.065,2.677,11.692,3.715,14.7,1.8-.247-.373-.523-.73-.735-1.122a2.343,2.343,0,0,0-2.456-1.322c-1.187.08-2.383.021-3.576.017-1.407-.005-2.163-.574-2.184-1.632-.021-1.088.7-1.673,2.108-1.685,1.321-.012,2.643.021,3.963-.008a5.226,5.226,0,0,1,4.773,2.572c.36.556.75,1.092,1.124,1.633,2.925-1.9,5.029-6.61,4.332-9.658l-3.221,1.574a10.872,10.872,0,0,1,1.186.972,1.64,1.64,0,0,1,.078,2.419,1.629,1.629,0,0,1-2.419-.077c-.691-.629-1.348-1.3-1.987-1.978a1.989,1.989,0,0,0-1.567-.751,1.655,1.655,0,0,1-1.785-1.642,1.583,1.583,0,0,1,1.756-1.651c2.878.167,5.213-1.218,7.608-2.458a1.021,1.021,0,0,0,.479-.7C2574.949-359.013,2574.912-359.85,2574.912-360.806Zm-11.42-73.267v22.9h3.155v3.372H2563.5v3.214c1.067,0,2.062-.034,3.054.013a1.034,1.034,0,0,0,1.107-.69c1.762-3.578,3.555-7.14,5.323-10.715a2.351,2.351,0,0,0,.283-1c-.012-2.385.043-4.777-.122-7.153A11.354,11.354,0,0,0,2563.492-434.073ZM2548.4-366.6c1.165,0,2,.036,2.829-.009a3.486,3.486,0,0,0,2.586-1.318c1.93-2.329,3.884-4.639,5.79-6.988a2.094,2.094,0,0,0,.4-1.211c.045-2.8.039-5.6.05-8.4,0-.5,0-1.009,0-1.5-4.785-.468-10.193,3.433-11.017,8.374C2548.438-374.075,2548.586-370.371,2548.4-366.6Zm11.592-44.661V-434.1a4.948,4.948,0,0,0-.533.054,11.383,11.383,0,0,0-9.168,10.66c-.147,2.389-.025,4.8-.025,7.27,1.222,0,2.28-.023,3.337.005a3.181,3.181,0,0,1,3.142,2.835c.09.656.108,1.323.161,2.009Zm3.515,29.669c.075.058.1.091.125.094a3.071,3.071,0,0,0,.384.03,5.6,5.6,0,0,1,5.455,3.418c.481.981,1.042,1.926,1.475,2.928a8.376,8.376,0,0,1,.643,2.2,5.573,5.573,0,0,1-2.147,5.284c1.664,1.49,3.568.96,5.475,1.045,0-2.77,0-5.436,0-8.1a11.009,11.009,0,0,0-3.437-8.215,11.223,11.223,0,0,0-7.972-3.2Zm-12.434-7.465c-.222.1-.368.166-.508.238a4.3,4.3,0,0,0-.421.236,18.283,18.283,0,0,0-7.963,11.836c-.733,3.345,1.079,5.484,2.933,7.738.113-1.755.12-3.486.112-5.217a14.409,14.409,0,0,1,3.164-9.6,49.418,49.418,0,0,1,3.731-3.661Zm8.782,19.094c-.5.6-1.448,1.681-2.335,2.814-1.5,1.916-3.129,3.615-5.879,3.845,1.609.94,3.081,1.52,4.743.611a7.839,7.839,0,0,1,1.182-.4,12.152,12.152,0,0,0,5.476-3.688Zm3.587-8.131v5.044a2.883,2.883,0,0,0,2.2,2.971,1.858,1.858,0,0,0,2.457-1.208,4.73,4.73,0,0,0-.185-2.394,29.139,29.139,0,0,0-1.4-2.845A2.642,2.642,0,0,0,2563.437-378.1Zm-23.542-3.158-7.975,2.658,4.673,3.129C2537.87-377.323,2539.619-378.836,2539.9-381.253Zm26.614,15.479-3.543,4.063c2.75.053,5.864.263,8.729-1.555A7.842,7.842,0,0,1,2566.509-365.775Zm-26.224-26.688c-1.752.38-1.757.379-2.025,1.981a13.086,13.086,0,0,0-.242,1.813c-.036,1.422-.012,2.846-.012,4.451a15.413,15.413,0,0,0,1.792-.9,1.171,1.171,0,0,0,.466-.812C2540.3-388.08,2540.285-390.234,2540.285-392.463Zm16.56-8.726a24.926,24.926,0,0,0,3.148,8.312v-8.312Zm-4.184,8.3c.761,1.206,1.5,2.4,2.276,3.579.141.215.45.5.639.47.8-.121,1.582-.347,2.341-.529l-2.577-4.913Zm-22.271,10.883.149.206c.8-.211,1.6-.414,2.4-.635,1.845-.512,1.819-.514,1.751-2.383-.046-1.27-.009-2.544-.009-3.816l-.213-.061Zm13.246-5.557a13.371,13.371,0,0,0,4.22-5.353h-4.22Zm16.336-17.08v-3.1h-3.083v3.1Zm-14.677,43.381c-.091-1.036.125-2.159-.323-2.854a18.93,18.93,0,0,0-2.863-2.92C2541.7-365.008,2543.1-362.365,2545.295-361.262Zm-.075,6.779c0-.952.027-1.622-.015-2.287a.926.926,0,0,0-.323-.631c-.916-.638-1.861-1.233-2.993-1.971C2542.311-357.25,2543.542-355.905,2545.22-354.483Zm8.189-58.265h-1.958l1.816,3.15.142-.092Z" transform="translate(-2139.472 1654.65)" fill="#1d272b"/>
    <path id="Trazado_165194" data-name="Trazado 165194" d="M2677.455-367.1a2.6,2.6,0,0,0-2.482-2.471,2.663,2.663,0,0,0-2.5,2.48,2.62,2.62,0,0,0,2.554,2.508A2.558,2.558,0,0,0,2677.455-367.1Z" transform="translate(-2258.48 1599.816)" fill="#1d272b"/>
    <path id="Trazado_165195" data-name="Trazado 165195" d="M2734.621-364.587a2.55,2.55,0,0,1-2.452-2.488,2.591,2.591,0,0,1,2.452-2.5,2.653,2.653,0,0,1,2.527,2.548A2.626,2.626,0,0,1,2734.621-364.587Zm.01-1.339c.389-.548.789-.867.759-1.138-.032-.29-.469-.535-.73-.8-.259.259-.688.494-.729.784C2733.893-366.811,2734.27-366.484,2734.631-365.926Z" transform="translate(-2306.599 1599.817)" fill="#1d272b"/>
    <path id="Trazado_165196" data-name="Trazado 165196" d="M2677.455-367.1a2.558,2.558,0,0,1-2.425,2.517,2.62,2.62,0,0,1-2.554-2.508,2.663,2.663,0,0,1,2.5-2.48A2.6,2.6,0,0,1,2677.455-367.1Zm-2.448,1.177c.351-.56.725-.893.686-1.165s-.479-.516-.744-.77c-.256.269-.687.52-.717.812C2674.206-366.78,2674.61-366.468,2675.007-365.925Z" transform="translate(-2258.48 1599.816)" fill="#1d272b"/>
  </g>
</svg>
