<svg xmlns="http://www.w3.org/2000/svg" width="95.447" height="95.447" viewBox="0 0 95.447 95.447">
  <g id="Grupo_134241" data-name="Grupo 134241" transform="translate(-1121.997 -1386.15)">
    <path id="Trazado_170393" data-name="Trazado 170393" d="M1031.014,92.621a47.724,47.724,0,1,1,47.619,47.774A47.8,47.8,0,0,1,1031.014,92.621Zm92.108.091a44.385,44.385,0,1,0-44.4,44.343A44.488,44.488,0,0,0,1123.122,92.713Z" transform="translate(90.983 1341.202)" fill="#1d272b"/>
    <path id="Trazado_170394" data-name="Trazado 170394" d="M1063.354,118.006a40.658,40.658,0,1,1,40.663,40.6A40.736,40.736,0,0,1,1063.354,118.006Zm40.656,39.616a39.672,39.672,0,1,0-39.666-39.732A39.73,39.73,0,0,0,1104.01,157.621Z" transform="translate(65.706 1315.924)" fill="#1d272b"/>
    <path id="Trazado_170395" data-name="Trazado 170395" d="M1111.658,156.546c1.471-.651,2.889-1.287,4.314-1.907,1.24-.539,2.173-.294,2.607.666s0,1.829-1.22,2.38c-1.384.625-2.775,1.235-4.37,1.944.564.841,1.036,1.636,1.614,2.346a1.306,1.306,0,0,0,.97.246c1.593-.114,3.18-.3,4.772-.418,1.252-.09,2.035.5,2.115,1.509.077.979-.636,1.666-1.884,1.8-1.366.145-2.733.281-4.065.417-.119,1.27-.233,2.476-.362,3.852,1.183.617,2.524,1.312,3.863,2.014,1.184.621,1.6,1.509,1.158,2.432-.467.967-1.467,1.164-2.721.523-1.195-.611-2.436-1.151-3.561-1.872a2.813,2.813,0,0,0-3.292,0c.6,2.352,1.216,4.731,1.828,7.11.036.14.092.276.126.417.324,1.322-.047,2.221-1.025,2.5-1.07.3-1.863-.284-2.218-1.639q-.868-3.314-1.732-6.628c-.073-.276-.171-.545-.308-.978-.987.719-1.915,1.346-2.773,2.057a1.035,1.035,0,0,0-.14.913c.453,1.3.988,2.571,1.468,3.862a1.712,1.712,0,0,1-.844,2.369,1.674,1.674,0,0,1-2.245-1.126c-.482-1.165-.926-2.345-1.393-3.535a13.6,13.6,0,0,0-1.793.62,2.208,2.208,0,0,0-1.041.9c-.757,1.764-1.407,3.575-2.115,5.36-.485,1.223-1.368,1.7-2.347,1.312-.95-.377-1.233-1.333-.757-2.574q1.014-2.638,2.031-5.275c.01-.027-.011-.066-.017-.1l-3.2-1.657c-1.1,1.273-2.273,2.6-3.415,3.946a1.753,1.753,0,0,1-2.03.647,1.652,1.652,0,0,1-.563-2.767c1.211-1.445,2.463-2.855,3.743-4.333a15.842,15.842,0,0,1-1-1.449,1.125,1.125,0,0,0-1.435-.578c-1.951.414-3.912.778-5.868,1.167-1.356.27-2.255-.19-2.454-1.268-.183-.99.475-1.749,1.8-2.017,1.812-.367,3.624-.74,5.448-1.046.744-.125,1.248-.358,1.445-1.162a6.73,6.73,0,0,1,.735-1.379c-1.387-.685-2.781-1.35-4.152-2.058a1.653,1.653,0,0,1-.743-2.6,1.685,1.685,0,0,1,2.259-.364c1.5.738,3.008,1.444,4.488,2.213a1.024,1.024,0,0,0,1.414-.223,5.966,5.966,0,0,0,1.654-3.581,1.141,1.141,0,0,0-.485-.807c-1.6-1.189-3.238-2.335-4.855-3.506-1.064-.771-1.338-1.751-.744-2.588s1.608-.908,2.684-.143c1.829,1.3,3.647,2.614,5.443,3.9l2.87-1.9c-.432-2.035-.877-4.118-1.316-6.2a1.724,1.724,0,0,1,1.22-2.288c.938-.219,1.75.353,2.016,1.5.44,1.9.837,3.817,1.263,5.775,1.328-.15,2.613-.271,3.886-.465.182-.028.378-.386.454-.627.372-1.175.7-2.363,1.054-3.543.367-1.226,1.135-1.761,2.122-1.494,1.05.284,1.448,1.146,1.091,2.443-.327,1.188-.642,2.383-1.051,3.544a1.518,1.518,0,0,0,.408,1.83A11.459,11.459,0,0,1,1111.658,156.546Zm-12.4,18.648a4.914,4.914,0,0,0,3.071-1.661,17.35,17.35,0,0,1,8.65-4.51c2.057-.346,2.575-1.595,1.78-3.543a9.034,9.034,0,0,0-.549-1.06q-1.507-2.63-3.027-5.252a10.463,10.463,0,0,0-1.33-2.1,2.646,2.646,0,0,0-1.754-.855,11.7,11.7,0,0,0-6.784,2.33,4.887,4.887,0,0,0-1.707,2.4,10.114,10.114,0,0,1-3.191,5.19q-1.118,1.034-2.211,2.1a1.053,1.053,0,0,0-.138,1.551c.814,1.065,1.571,2.179,2.451,3.187A7.214,7.214,0,0,0,1099.26,175.194Z" transform="translate(52.653 1262.262)" fill="#1d272b"/>
    <path id="Trazado_170396" data-name="Trazado 170396" d="M1279.2,136.49c-.233,2.718-3.684,5.218-6.134,4.241a3.623,3.623,0,0,1-1.61-1.646,22.885,22.885,0,0,1-1.28-3.344,9.048,9.048,0,0,0-3.706-4.819,29.354,29.354,0,0,1-3.493-2.587c-1.883-1.682-2.012-3.572-.553-5.733,1.284-1.9,3.105-2.378,5.333-1.265a11.81,11.81,0,0,1,2.7,1.808,33.818,33.818,0,0,1,7.265,9.308A32.305,32.305,0,0,1,1279.2,136.49Z" transform="translate(-89.125 1281.957)" fill="#1d272b"/>
    <path id="Trazado_170397" data-name="Trazado 170397" d="M1269.867,336.919c-3.085.011-4.847-2.127-4.153-5.48a11.426,11.426,0,0,1,.753-2.49,33.561,33.561,0,0,1,6.945-10.2,10.171,10.171,0,0,1,3.235-2.122c2.428-.96,5.938,1.7,5.737,4.3a3.532,3.532,0,0,1-.995,1.963,20.44,20.44,0,0,1-2.687,2.205,9.28,9.28,0,0,0-3.606,5.274,29.067,29.067,0,0,1-1.534,4.4A3.6,3.6,0,0,1,1269.867,336.919Z" transform="translate(-92.35 1129.001)" fill="#1d272b"/>
    <path id="Trazado_170398" data-name="Trazado 170398" d="M1354.1,233.291c.169-.945.445-2.55.746-4.151a7.441,7.441,0,0,0-.4-4.564,9.882,9.882,0,0,1-.556-7.01,5.79,5.79,0,0,1,8.687-3.083,4.412,4.412,0,0,1,1.939,4.145c-.1,1.727-.532,3.433-.7,5.159a10.615,10.615,0,0,0,.141,2.857,53.606,53.606,0,0,1,1.219,6.048c.292,4.777-2.376,6.976-7.087,6.111C1355.393,238.308,1354.059,236.7,1354.1,233.291Zm5.489,3.434c2.289.093,3.461-.829,3.386-3.033a18.629,18.629,0,0,0-.922-5.427,10.76,10.76,0,0,1-.215-6.166,15.679,15.679,0,0,0,.3-4.3,2.239,2.239,0,0,0-1.205-1.6c-2.064-.78-4.622-.393-5.093,2.782a10.945,10.945,0,0,0,.788,5.2,10.488,10.488,0,0,1,.562,3.905c-.116,1.906-.659,3.783-.864,5.688-.19,1.76.515,2.544,2.252,2.842C1358.939,236.685,1359.3,236.7,1359.589,236.725Z" transform="translate(-161.073 1209.43)" fill="#1d272b"/>
    <path id="Trazado_170399" data-name="Trazado 170399" d="M1216.458,99.318a2.216,2.216,0,0,1,4.359-.659c.45,1.526.84,3.069,1.252,4.607.5,1.851,1.013,3.7,1.47,5.559a2.2,2.2,0,0,1-1.477,2.666,2.149,2.149,0,0,1-2.761-1.455c-.972-3.407-1.87-6.836-2.792-10.258A2.506,2.506,0,0,1,1216.458,99.318Z" transform="translate(-53.967 1300.521)" fill="#1d272b"/>
    <path id="Trazado_170400" data-name="Trazado 170400" d="M1196.832,349.084a5.035,5.035,0,0,1-.675,1.215q-3.2,3.56-6.482,7.05a2.2,2.2,0,0,1-3.277.242,2.223,2.223,0,0,1,.032-3.29q3.194-3.495,6.419-6.96a2.159,2.159,0,0,1,2.645-.653A2.3,2.3,0,0,1,1196.832,349.084Z" transform="translate(-29.916 1105.518)" fill="#1d272b"/>
    <path id="Trazado_170401" data-name="Trazado 170401" d="M1319.785,361.21a7.566,7.566,0,0,1,1.178-1.85c2.483-2,5.019-3.931,7.564-5.849a2.208,2.208,0,0,1,3.111.349,2.166,2.166,0,0,1-.429,3.172c-2.475,1.95-4.983,3.86-7.483,5.778a1.95,1.95,0,0,1-2.423.23A9.669,9.669,0,0,1,1319.785,361.21Z" transform="translate(-134.731 1100.396)" fill="#1d272b"/>
    <path id="Trazado_170402" data-name="Trazado 170402" d="M1294.248,226.282a5.093,5.093,0,0,1,1.45,1.189c1.576,2.476,3.052,5.018,4.528,7.555a2.231,2.231,0,1,1-3.849,2.238c-1.518-2.514-3.026-5.034-4.486-7.582C1290.967,228.07,1292,226.26,1294.248,226.282Z" transform="translate(-112.665 1199.465)" fill="#1d272b"/>
    <path id="Trazado_170403" data-name="Trazado 170403" d="M1268.467,276.8a2.1,2.1,0,0,1-1.343,2.057c-2.567,1.087-5.143,2.156-7.736,3.178a2.21,2.21,0,0,1-1.69-4.083c2.593-1.118,5.2-2.2,7.835-3.22A2.151,2.151,0,0,1,1268.467,276.8Z" transform="translate(-85.169 1161.713)" fill="#1d272b"/>
    <path id="Trazado_170404" data-name="Trazado 170404" d="M1131.681,347.346a2.2,2.2,0,0,1-2.189-1.614,2.069,2.069,0,0,1,1.034-2.508c2.607-1.08,5.242-2.1,7.9-3.043a2.121,2.121,0,0,1,2.558,1.336,2.084,2.084,0,0,1-.89,2.656c-2.666,1.123-5.39,2.111-8.092,3.146A1.118,1.118,0,0,1,1131.681,347.346Z" transform="translate(14.075 1110.514)" fill="#1d272b"/>
    <path id="Trazado_170405" data-name="Trazado 170405" d="M1242.493,324.081a2.316,2.316,0,0,1-1.829,2.573,2.111,2.111,0,0,1-2.5-1.58q-.784-3.989-1.362-8.017a2.15,2.15,0,0,1,1.89-2.288,2.076,2.076,0,0,1,2.415,1.542C1241.65,319,1242.078,321.718,1242.493,324.081Z" transform="translate(-69.853 1130.323)" fill="#1d272b"/>
    <path id="Trazado_170406" data-name="Trazado 170406" d="M1161.861,387.6a2.212,2.212,0,0,1-1.619,2.051,2.028,2.028,0,0,1-2.51-.994q-1.424-3.04-2.66-6.168a2.075,2.075,0,0,1,1.148-2.535,2.038,2.038,0,0,1,2.706.645c1.059,2.171,1.952,4.423,2.906,6.645A1.225,1.225,0,0,1,1161.861,387.6Z" transform="translate(-5.892 1079.535)" fill="#1d272b"/>
    <path id="Trazado_170407" data-name="Trazado 170407" d="M1356.234,173.189a6.57,6.57,0,0,1-.468,1.129c-.948,1.581-1.925,3.146-2.915,4.7a2.242,2.242,0,1,1-3.82-2.3c1.016-1.667,2.045-3.328,3.109-4.965a2.159,2.159,0,0,1,2.539-.966A2.293,2.293,0,0,1,1356.234,173.189Z" transform="translate(-157.25 1242.93)" fill="#1d272b"/>
    <path id="Trazado_170408" data-name="Trazado 170408" d="M1178.524,208.335a1.953,1.953,0,0,1-2.079-1.892,2.13,2.13,0,1,1,2.079,1.892Z" transform="translate(-22.691 1216.405)" fill="#1d272b"/>
    <path id="Trazado_170409" data-name="Trazado 170409" d="M1184.152,239.062a1.351,1.351,0,0,1-1.47-1.268,1.234,1.234,0,0,1,1.33-1.269,1.274,1.274,0,0,1,1.521,1.183A1.32,1.32,0,0,1,1184.152,239.062Z" transform="translate(-27.566 1191.461)" fill="#1d272b"/>
    <path id="Trazado_170410" data-name="Trazado 170410" d="M1153.2,250.651c-.71-.1-1.372-.292-1.441-1.168-.053-.687.644-1.224,1.511-1.184.76.036,1.4.323,1.383,1.19S1153.932,250.563,1153.2,250.651Z" transform="translate(-3.391 1182.257)" fill="#1d272b"/>
    <path id="Trazado_170411" data-name="Trazado 170411" d="M1376.671,292.519a1.626,1.626,0,1,1-3.222.012,1.63,1.63,0,1,1,3.222-.012Z" transform="translate(-176.677 1149.154)" fill="#1d272b"/>
    <path id="Trazado_170412" data-name="Trazado 170412" d="M1376.2,236.217c-.079.813-.461,1.426-1.323,1.453a1.329,1.329,0,0,1-1.4-1.37,1.367,1.367,0,1,1,2.723-.083Z" transform="translate(-176.694 1192.831)" fill="#1d272b"/>
  </g>
</svg>
