<svg xmlns="http://www.w3.org/2000/svg" width="91.387" height="107.558" viewBox="0 0 91.387 107.558">
  <g id="Grupo_134242" data-name="Grupo 134242" transform="translate(-379.552 -1538.022)">
    <path id="Trazado_165224" data-name="Trazado 165224" d="M3814.7-886.555c-.951.076-1.852.1-2.74.227a16.429,16.429,0,0,0-5.441,1.9c-1.738.917-3.51,1.784-5.322,2.539-1.724.719-3.5,1.32-5.288,1.87a33.746,33.746,0,0,1-4.05.953,26.6,26.6,0,0,1-7.237.438,11.242,11.242,0,0,1-6.12-2.136,7.989,7.989,0,0,1-3.194-5.318,8.667,8.667,0,0,1,.872-4.986c.407-.839.929-1.624,1.417-2.423a.471.471,0,0,0,.06-.479,9.211,9.211,0,0,1,.364-7.254l2.055.909c-.06.164-.112.314-.168.462a6.7,6.7,0,0,0-.219,4.875,6.369,6.369,0,0,0,3.879,3.692,15.329,15.329,0,0,0,4.142.9,37.073,37.073,0,0,0,14.044-1.447,64.825,64.825,0,0,0,12.619-5.1.545.545,0,0,0,.334-.569c-.014-1.525-.007-3.051-.006-4.576v-.413c-1.073.235-2.094.5-3.13.679-3.139.545-6.277,1.1-9.427,1.57a55.444,55.444,0,0,1-8.906.606,22.907,22.907,0,0,1-7.655-1.1,10.008,10.008,0,0,1-4.877-3.541,4.582,4.582,0,0,1-.908-3,5.938,5.938,0,0,1,1.151-3.153,12.055,12.055,0,0,1,2.669-2.67c.046-.034.1-.061.186-.117l1.221,1.865c-.314.26-.613.5-.9.749a6.848,6.848,0,0,0-1.695,2.08,2.761,2.761,0,0,0,.524,3.449,8.661,8.661,0,0,0,4.35,2.518,28.34,28.34,0,0,0,7.791.647,70.06,70.06,0,0,0,9.756-.982c2.678-.453,5.341-.995,8.011-1.5.067-.013.132-.037.28-.08-.29-.211-.525-.39-.767-.557a6.615,6.615,0,0,1-2.034-1.964,5.373,5.373,0,0,1-.425-5.2,9.767,9.767,0,0,1,1.3-2.313,5.278,5.278,0,0,1,4.088-1.97c3.685-.034,7.369-.019,11.053,0a3.906,3.906,0,0,1,1.956.465l-.823,2.061a6.959,6.959,0,0,0-3.039-.279q-4.381-.014-8.763-.022a3.674,3.674,0,0,0-2.008.538,3.19,3.19,0,0,0-.944.917,4.6,4.6,0,0,0-1.012,3.1,3.3,3.3,0,0,0,1.339,2.368c1.171.862,2.347,1.718,3.538,2.553a.764.764,0,0,1,.359.721q-.013,10.666-.012,21.332a.7.7,0,0,0,.273.6c1.195,1.02,2.38,2.052,3.6,3.108.437-.375.87-.745,1.3-1.118.763-.66,1.519-1.328,2.29-1.978a.735.735,0,0,0,.289-.626q-.012-10.684-.014-21.368a.709.709,0,0,1,.345-.658c1.255-.885,2.532-1.745,3.732-2.7a3.293,3.293,0,0,0,.988-3.694c-.033-.1-.077-.195-.122-.307l2.028-1a5.7,5.7,0,0,1,.106,4.618c-.611,1.551-1.907,2.443-3.3,3.383.946.2,1.774.407,2.613.551,2.944.5,5.883,1.047,8.84,1.459a53,53,0,0,0,10.036.517,17.586,17.586,0,0,0,5.712-1.06,8.224,8.224,0,0,0,3-2.042,2.854,2.854,0,0,0,.374-3.812,8.53,8.53,0,0,0-2.1-2.247l-.315-.243,1.206-1.857a10.561,10.561,0,0,1,2.762,2.623,5.972,5.972,0,0,1,1.214,2.767,5.1,5.1,0,0,1-1.619,4.454,11.531,11.531,0,0,1-6.145,3.19,33.823,33.823,0,0,1-7.739.5,77.846,77.846,0,0,1-8.748-.824c-3.457-.5-6.884-1.159-10.288-1.937-.09-.02-.182-.03-.3-.049-.007.12-.017.223-.017.325,0,1.572,0,3.145-.005,4.717a.443.443,0,0,0,.272.463,62.282,62.282,0,0,0,15.233,5.781,36.119,36.119,0,0,0,9.913.934,19.337,19.337,0,0,0,5.39-.913,6.76,6.76,0,0,0,3.753-2.865,6.236,6.236,0,0,0,.391-5.393c-.093-.288-.208-.568-.325-.888l2.043-.912a10.127,10.127,0,0,1,.851,2.8,8.477,8.477,0,0,1-.47,4.493.579.579,0,0,0,.092.459,12.108,12.108,0,0,1,2.141,4.662,7.754,7.754,0,0,1-2.673,7.71,9.9,9.9,0,0,1-4.925,2.251,20.312,20.312,0,0,1-6.447.122c-1.6-.208-3.193-.539-4.775-.877a40.01,40.01,0,0,1-8.128-2.751c-1.439-.651-2.856-1.36-4.238-2.124a15.545,15.545,0,0,0-7.832-2.02c-.069,0-.138.011-.242.019-.006.133-.017.257-.017.381,0,1.467-.009,2.934.006,4.4a.705.705,0,0,1-.294.624,10.044,10.044,0,0,0-.873.765.611.611,0,0,0-.18.41c.116,1.826.249,3.65.382,5.474.1,1.439.214,2.877.321,4.315q.2,2.754.406,5.508.184,2.509.365,5.018c.124,1.707.243,3.414.368,5.121q.336,4.588.677,9.176c.176,2.421.342,4.843.518,7.264.175,2.4.359,4.794.537,7.192.029.385.048.772.074,1.185h-16.871c.051-.74.1-1.463.152-2.185q.2-2.719.4-5.438.269-3.649.539-7.3c.126-1.719.244-3.439.373-5.158.156-2.08.326-4.16.479-6.24.107-1.46.192-2.921.3-4.381q.266-3.7.544-7.4.213-2.895.421-5.79c.15-2.082.294-4.164.453-6.245a.636.636,0,0,0-.248-.6c-.376-.313-.865-.593-1.052-1a3.708,3.708,0,0,1-.048-1.425C3814.7-884.025,3814.7-885.232,3814.7-886.555Zm-35.6-5.1a8.185,8.185,0,0,0-1.417,3.16,7.8,7.8,0,0,0-.095,2.23,5.855,5.855,0,0,0,3.266,4.324,10.955,10.955,0,0,0,5.033,1.121,31.538,31.538,0,0,0,10.1-1.562,54.876,54.876,0,0,0,5.193-1.922,38.014,38.014,0,0,0,3.928-1.94,18.092,18.092,0,0,1,9.249-2.512c.111,0,.222-.014.324-.021v-5.753c-.126.055-.223.092-.315.138a69.485,69.485,0,0,1-8.391,3.6,51.081,51.081,0,0,1-10.181,2.507,34.052,34.052,0,0,1-8.352.144,18.821,18.821,0,0,1-4.391-.923A9.7,9.7,0,0,1,3779.093-891.653Zm47.868,2.9a8.17,8.17,0,0,1,.832,0c1.116.119,2.241.2,3.344.4a18.855,18.855,0,0,1,5.737,2.311,45.218,45.218,0,0,0,6.66,2.978,39.677,39.677,0,0,0,8.764,2.088,19.007,19.007,0,0,0,6.334-.18,7.079,7.079,0,0,0,4.719-3.149,4.958,4.958,0,0,0,.779-2.343,7.969,7.969,0,0,0-1.382-4.746c-.051-.085-.116-.162-.188-.263a9.517,9.517,0,0,1-3.665,2.48,20.479,20.479,0,0,1-6.367,1.176,39.877,39.877,0,0,1-12.178-1.368,65.017,65.017,0,0,1-13-4.987c-.118-.06-.24-.113-.391-.183Zm-6.106,48.72v2.266h-5.614c-.143,1.974-.283,3.917-.425,5.867h12.019c-.473-6.478-.942-12.927-1.415-19.4h-9.2c-.271,3.753-.542,7.489-.815,11.27Zm4.409-13.549c-.283-3.815-.565-7.6-.846-11.378h-7.186c-.286,3.8-.571,7.57-.858,11.378Zm-1.009-13.684-.806-11.027c-.851.736-1.626,1.4-2.387,2.073-.177.157-.292.169-.469,0-.377-.351-.776-.681-1.166-1.018s-.776-.668-1.227-1.055c-.271,3.719-.536,7.359-.8,11.024Z" transform="translate(-3395.575 2475.228)" fill="#1d272b"/>
    <path id="Trazado_165225" data-name="Trazado 165225" d="M3832.089-222.238l2.211.441c-.169.659-.315,1.293-.494,1.918a40.472,40.472,0,0,1-5.481,11.995,22.861,22.861,0,0,1-7.214,6.945,17.644,17.644,0,0,1-7.958,2.421,17.14,17.14,0,0,1-6.833-.782,10.28,10.28,0,0,1-6.027-5.331,12.914,12.914,0,0,1-1.237-4.222,20.189,20.189,0,0,1-.161-2.132c-.012-1.026.036-2.052.06-3.151l2.263.385c-.033.694-.092,1.357-.091,2.021,0,.735.029,1.472.1,2.2a11.155,11.155,0,0,0,.844,3.359,8.181,8.181,0,0,0,4.8,4.664,14.16,14.16,0,0,0,5.465.776,15.8,15.8,0,0,0,9.489-3.423,23.522,23.522,0,0,0,5.594-6.492,39.617,39.617,0,0,0,4.571-11.248C3832.012-221.99,3832.045-222.089,3832.089-222.238Z" transform="translate(-3417.568 1829.843)" fill="#1d272b"/>
    <path id="Trazado_165226" data-name="Trazado 165226" d="M3800.9-360.167l2.2-.364c.138.547.239,1.075.4,1.583a9.515,9.515,0,0,0,7.277,6.9,10.629,10.629,0,0,0,6.076-.57,26.3,26.3,0,0,0,9.114-5.9,54.671,54.671,0,0,0,8.285-10.492c.42-.662.826-1.333,1.259-2.035l1.934,1.154c-.294.486-.573.956-.861,1.42a61.651,61.651,0,0,1-7.8,10.343,30.268,30.268,0,0,1-10.34,7.327,14.345,14.345,0,0,1-6.229,1.2,11.424,11.424,0,0,1-8.8-4.594A13.063,13.063,0,0,1,3800.9-360.167Z" transform="translate(-3419.431 1968.176)" fill="#1d272b"/>
    <path id="Trazado_165227" data-name="Trazado 165227" d="M4525.742-369.876l1.918-1.145c.527.846,1.027,1.665,1.543,2.474a54.856,54.856,0,0,0,7.546,9.608,27.482,27.482,0,0,0,8.554,5.948,12.4,12.4,0,0,0,5.558,1.162,9.237,9.237,0,0,0,7.4-4.117,10.576,10.576,0,0,0,1.714-4.2c.019-.1.049-.2.088-.36l2.209.361a13.469,13.469,0,0,1-2.07,5.375,11.339,11.339,0,0,1-3.17,3.207,11.687,11.687,0,0,1-7.926,1.934,19.78,19.78,0,0,1-8.388-3.232,37.43,37.43,0,0,1-9.194-8.523,75.072,75.072,0,0,1-5.685-8.29A2.157,2.157,0,0,1,4525.742-369.876Z" transform="translate(-4093.243 1968.15)" fill="#1d272b"/>
    <path id="Trazado_165228" data-name="Trazado 165228" d="M3776.058-445.238c-.008.168-.008.295-.02.421a6.321,6.321,0,0,0,4.38,7.06,14.707,14.707,0,0,0,6.679.808,26.945,26.945,0,0,0,14.535-6.269,42.508,42.508,0,0,0,3.506-3.13c1.268-1.262,2.438-2.622,3.651-3.939.038-.042.083-.078.145-.135l1.705,1.405a2.236,2.236,0,0,1-.136.207,46.731,46.731,0,0,1-10.734,9.7,28.057,28.057,0,0,1-10.793,4.206,17.649,17.649,0,0,1-9.678-.879,8.584,8.584,0,0,1-4.97-4.8,9.5,9.5,0,0,1-.512-4.738c.009-.074.123-.2.177-.194C3774.675-445.43,3775.356-445.333,3776.058-445.238Z" transform="translate(-3394.172 2041.963)" fill="#1d272b"/>
    <path id="Trazado_165229" data-name="Trazado 165229" d="M4547.378-449.144l1.725-1.423c.369.43.713.856,1.084,1.257.969,1.047,1.9,2.129,2.934,3.114a35.1,35.1,0,0,0,10.633,7.3,21.79,21.79,0,0,0,9.829,1.844,11.243,11.243,0,0,0,5.72-1.724,6.077,6.077,0,0,0,2.708-5.95c-.047-.624-.072-.627.542-.722.463-.071.928-.14,1.394-.184.083-.008.249.1.257.169a8.783,8.783,0,0,1-1.628,6.715,9.747,9.747,0,0,1-4.919,3.236,17.985,17.985,0,0,1-7.686.6,29.3,29.3,0,0,1-14.3-6.124,49.553,49.553,0,0,1-8.138-7.9C4547.488-448.987,4547.45-449.046,4547.378-449.144Z" transform="translate(-4113.355 2042.097)" fill="#1d272b"/>
    <path id="Trazado_165230" data-name="Trazado 165230" d="M4543.973-221.793l2.191-.438c.159.6.3,1.189.47,1.77a37.62,37.62,0,0,0,5.549,11.841,19.436,19.436,0,0,0,7.354,6.4,16.063,16.063,0,0,0,8.108,1.465c.756-.05,1.509-.162,2.313-.251.155.682.317,1.393.5,2.176-.677.1-1.317.224-1.965.284a19.623,19.623,0,0,1-7.075-.57,18.764,18.764,0,0,1-8.132-4.773,31.287,31.287,0,0,1-6.637-9.9,42.675,42.675,0,0,1-2.58-7.571C4544.034-221.495,4544.008-221.629,4543.973-221.793Z" transform="translate(-4110.19 1829.837)" fill="#1d272b"/>
    <path id="Trazado_165231" data-name="Trazado 165231" d="M3970.4-989.376c.08.743.158,1.462.24,2.224-.642.078-1.254.147-1.865.229a47.148,47.148,0,0,0-10.179,2.19,12.382,12.382,0,0,0-2.154,1.092c-.605.371-.579.611,0,1.038a10.888,10.888,0,0,0,3.386,1.51,51.14,51.14,0,0,0,7.944,1.625c1.009.14,2.024.241,3.035.373.085.011.23.124.226.18-.052.685-.126,1.368-.2,2.092-.8-.09-1.561-.162-2.313-.26a66.387,66.387,0,0,1-7.741-1.4,18.949,18.949,0,0,1-4.712-1.7,7.181,7.181,0,0,1-1.595-1.191,2.415,2.415,0,0,1-.033-3.505,6.886,6.886,0,0,1,2.479-1.63,27.593,27.593,0,0,1,6.267-1.8c2.341-.414,4.7-.719,7.052-1.07A1.519,1.519,0,0,1,3970.4-989.376Z" transform="translate(-3561.482 2542.972)" fill="#1d272b"/>
    <path id="Trazado_165232" data-name="Trazado 165232" d="M4645.52-976.955c-.076-.757-.148-1.475-.224-2.223.562-.066,1.083-.123,1.6-.188a50.812,50.812,0,0,0,10.514-2.146,14.137,14.137,0,0,0,2.455-1.191c.668-.391.64-.645,0-1.1a11.66,11.66,0,0,0-3.563-1.545,51.387,51.387,0,0,0-7.777-1.562c-.916-.122-1.833-.241-2.811-.369.076-.731.151-1.457.231-2.228.675.077,1.327.123,1.968.228,2.173.358,4.351.692,6.508,1.123a21.846,21.846,0,0,1,5.694,1.86,5.573,5.573,0,0,1,1.941,1.481,2.418,2.418,0,0,1,0,3.14,6.285,6.285,0,0,1-2.48,1.741,26.041,26.041,0,0,1-6.152,1.812c-2.455.436-4.93.763-7.4,1.134C4645.884-976.964,4645.731-976.967,4645.52-976.955Z" transform="translate(-4204.38 2543.089)" fill="#1d272b"/>
    <path id="Trazado_165233" data-name="Trazado 165233" d="M4344.249-1050.815q-2.323,0-4.644,0a1.161,1.161,0,0,1-1.3-1.3q0-2.481,0-4.961a1.205,1.205,0,0,1,1.371-1.354q4.574,0,9.147,0a1.211,1.211,0,0,1,1.375,1.386q0,2.463,0,4.926a1.162,1.162,0,0,1-1.3,1.3Q4346.571-1050.813,4344.249-1050.815Zm-3.667-2.281h7.316v-3.057h-7.316Z" transform="translate(-3918.998 2607.162)" fill="#1d272b"/>
    <path id="Trazado_165234" data-name="Trazado 165234" d="M4344.252-1202.944q-2.322,0-4.644,0a1.164,1.164,0,0,1-1.3-1.3q0-2.48,0-4.961a1.192,1.192,0,0,1,1.367-1.348q4.573,0,9.147,0c.939,0,1.37.431,1.372,1.379q.007,2.463,0,4.925a1.164,1.164,0,0,1-1.3,1.306Q4346.574-1202.942,4344.252-1202.944Zm3.662-5.332H4340.6v3.055h7.316Z" transform="translate(-3919.001 2748.577)" fill="#1d272b"/>
    <path id="Trazado_165235" data-name="Trazado 165235" d="M4964.075-95.6a8.469,8.469,0,0,0,2.6-3.417,13.2,13.2,0,0,0,.987-5.878c-.028-.572-.05-1.144-.077-1.774l2.176-.378c.041.46.095.886.113,1.314a18,18,0,0,1-.747,6.634,10.907,10.907,0,0,1-3.237,4.935c-.107.091-.218.179-.328.266a1.222,1.222,0,0,1-.129.072Z" transform="translate(-4500.715 1722.766)" fill="#1d272b"/>
  </g>
</svg>
