<svg xmlns="http://www.w3.org/2000/svg" width="79.709" height="74.603" viewBox="0 0 79.709 74.603">
  <g id="Grupo_134243" data-name="Grupo 134243" transform="translate(-1113.365 -1740.658)">
    <path id="Trazado_170413" data-name="Trazado 170413" d="M1309.948,8.178c-.388-.557-.673-.948-.939-1.352A30.626,30.626,0,0,1,1304.4-5.287c-.453-2.783-1.25-5.508-1.856-8.267-1.3-5.928-2.578-11.863-3.889-17.79a2.6,2.6,0,0,0-.6-1.121,6.9,6.9,0,0,1-1.875-4.893c.038-2.295,1.147-3.362,3.257-3.376a16.4,16.4,0,0,1,1.555-2.511c.7-.785,1.731-.691,2.772-.4.547-2.1,1.591-3.545,4.122-2.988A3.5,3.5,0,0,1,1310-49.215a3.582,3.582,0,0,1,3.25.783c.147-.4.256-.71.378-1.017,1.241-3.126,4.472-4.106,7.1-2,3.226,2.585,4.175,6.09,3.741,10.1a4.563,4.563,0,0,0,.5,2.106,14.691,14.691,0,0,1,.971,6.543,20.12,20.12,0,0,1-1.733,6.418,57.334,57.334,0,0,0-1.613,5.916,10.7,10.7,0,0,0,.233,5.456c1.052,4.389,2.15,8.767,3.182,13.161a11.537,11.537,0,0,1-1.666,8.93c-.1.169-.194.346-.342.61h13.494c-.189-.306-.336-.526-.466-.756-1.722-3.062-2.477-6.247-1.268-9.7.446-1.273.838-2.564,1.289-3.835a.9.9,0,0,0-.377-1.276,2.908,2.908,0,0,1-1.275-2.539c0-5.737-.011-11.475,0-17.212a3.353,3.353,0,0,1,2.572-3.271c-.221-1.119-.508-2.218-.642-3.335a35.961,35.961,0,0,1-.276-4.111c-.013-2.757-.562-5.538.346-8.262a9.857,9.857,0,0,1,3.257-4.921,4.425,4.425,0,0,1,7.2,2.039c.11.288.219.575.356.937.285-.173.519-.325.761-.462a2.854,2.854,0,0,1,4.281,1.494c.243.64.486.783,1.162.679a2.753,2.753,0,0,1,2.892,1.909c.147.355.241.732.386,1.18a2.576,2.576,0,0,1,2.769.4,14.814,14.814,0,0,1,1.492,2.363l-.158.154c.305,0,.611-.015.915,0a2.642,2.642,0,0,1,2.38,2.135,6.605,6.605,0,0,1-1.319,5.712,3.46,3.46,0,0,0-.616,1.215c-1.814,7.913-3.583,15.837-5.41,23.747-.662,2.869-1.347,5.742-2.209,8.555a23.124,23.124,0,0,1-3.713,7.065,5.4,5.4,0,0,0-.269.48h.91q6.074,0,12.149,0c2.521,0,3.907,1.39,3.908,3.895,0,2.077.006,4.153,0,6.23a3.468,3.468,0,0,1-3.7,3.711q-13.24.014-26.48.005c-5.054,0-10.109.011-15.164-.006-1.962-.007-3.923-.1-5.885-.111-.852-.007-1.705.1-2.558.111-.977.018-1.487-.374-1.48-1.079s.517-1.064,1.5-1.064l48.287,0c.6,0,1.195.014,1.791,0a1.379,1.379,0,0,0,1.534-1.556q.027-3.193,0-6.386c-.008-1.114-.513-1.591-1.65-1.592q-7.905-.007-15.81.008a3.6,3.6,0,0,0-1.131.228,9.149,9.149,0,0,1-7.116-.375,1.816,1.816,0,0,0-.736-.2q-9.112,0-18.223.026a2.673,2.673,0,0,0-1.039.241,9.332,9.332,0,0,1-6.907.343,5.253,5.253,0,0,0-1.585-.265q-10.008-.026-20.016-.011c-1.02,0-1.146.074-1.161,1.079q-.049,3.5-.006,7.009c.01.956.552,1.439,1.559,1.447,2,.016,4,0,6,.008a2.157,2.157,0,0,1,.767.076,1,1,0,0,1,.674,1.179.981.981,0,0,1-1.029.881c-2.336.011-4.675.063-7.008-.029a3.348,3.348,0,0,1-3.1-3.325c-.037-2.492-.046-4.985.009-7.476.045-2.062,1.076-3,3.139-3q8.45,0,16.9,0ZM1303.2-34.093a3.13,3.13,0,0,1-1.653,2.481c-.568.235-.627.492-.506,1.045q3,13.662,5.961,27.334A25.751,25.751,0,0,0,1311,5.893a7.081,7.081,0,0,0,8.118,2.665c4.083-1.334,5.552-6.28,4.832-9.57-.665-3.04-1.474-6.047-2.17-9.08-.551-2.4-1.118-4.8-1.492-7.226a2,2,0,0,0-1.324-1.657,17.213,17.213,0,0,1-7.945-8.046,1.12,1.12,0,0,1,.359-1.624c.586-.315,1.17-.043,1.584.669a27.927,27.927,0,0,0,1.679,2.705,14.7,14.7,0,0,0,5.79,4.6c.12-.524.206-.977.329-1.418a46.26,46.26,0,0,1,1.524-5.209,17.087,17.087,0,0,0,1.542-6.049,13.332,13.332,0,0,0-.75-4.9c-3.341,2.833-5.771.982-8.062-1.469-1.365,1.065-1.365,1.065-3.35,1.019-1.346,2.676-1.707,2.857-4.691,2.313C1306.4-34.609,1305.274-33.646,1303.2-34.093Zm44.153,3.35c1.928,1.274,2.2,1.787,2.2,4.022q0,8.018,0,16.035c0,2.287-1.169,3.484-3.478,3.538-1.937.045-3.875.091-5.813.082a.911.911,0,0,0-1.038.767c-.377,1.266-.762,2.535-1.25,3.761a9.048,9.048,0,0,0-.292,5.641,7.223,7.223,0,0,0,5.677,5.721,7.073,7.073,0,0,0,7.389-3.344,29.422,29.422,0,0,0,4.161-10.62c.463-2.387,1.07-4.745,1.609-7.118,1.388-6.118,2.766-12.239,4.173-18.353.119-.516.066-.726-.48-.873a2.593,2.593,0,0,1-1.716-1.775c-.1-.26-.175-.528-.276-.836-2.059.489-3.16-.559-3.775-2.375a3.266,3.266,0,0,1-3.483-.212Zm-8.229-6.768a5.741,5.741,0,0,0,.008,1.007c.4,2,.781,4,1.239,5.99.306,1.332,0,1.817-1.331,1.855-1.168.033-1.5.374-1.5,1.578q0,8.1,0,16.2c0,1.346.312,1.646,1.637,1.666,2.193.032,4.386.077,6.579.124,1.25.026,1.644-.357,1.645-1.662q.005-8.177,0-16.355c0-.207.061-.472-.041-.61a2.993,2.993,0,0,0-.882-.866c-.141-.078-.543.165-.732.355a.82.82,0,0,0-.16,1.153,3.682,3.682,0,0,1-.628,4.632,3.762,3.762,0,0,1-4.6.431,3.727,3.727,0,0,1-1.548-4.286,3.625,3.625,0,0,1,3.96-2.572,1.067,1.067,0,0,0,1.182-.592c1.788-2.92,3.6-5.826,5.4-8.74a2.411,2.411,0,0,0,.154-.482,3.066,3.066,0,0,1-3.044-1.1C1344.515-37.417,1342.369-35.915,1339.126-37.511Zm-.077-5.668-.206.072c.332,1.045.639,2.1,1.013,3.13a1.4,1.4,0,0,0,.617.632,2.419,2.419,0,0,0,3.221-.627,8.257,8.257,0,0,0,2.313-8.07c-.622-2.6-2.666-3.1-4.566-1.209-.092.091-.182.185-.266.283A8.9,8.9,0,0,0,1339.049-43.179Zm-23.981-3.339c.251,1.242.391,2.3.686,3.313a6.444,6.444,0,0,0,3.013,3.982,1.774,1.774,0,0,0,2.044.061,3.629,3.629,0,0,0,1.454-2.321,8.9,8.9,0,0,0-1.072-6.23,5.456,5.456,0,0,0-2.371-2.4,1.942,1.942,0,0,0-2.8.813A17.988,17.988,0,0,0,1315.068-46.519Zm-1.432,3.809a17.6,17.6,0,0,0-.68-2.445,4.839,4.839,0,0,0-1.18-1.6c-.822-.761-1.507-.531-1.687.563a4.159,4.159,0,0,0,.1,1.733,22.193,22.193,0,0,0,.914,2.385c.292.72,1.21,1.43,1.695,1.24C1313.566-41.131,1313.516-41.879,1313.636-42.709Zm37.866-2.42a2.675,2.675,0,0,0-.045-.689c-.2-.449-.354-1.132-.693-1.251s-.978.222-1.318.541c-1.319,1.237-1.449,2.921-1.475,4.586a1.315,1.315,0,0,0,.624,1.04,1.385,1.385,0,0,0,1.148-.39C1350.848-42.4,1351.048-43.937,1351.5-45.13Zm4.035,2.49a2.584,2.584,0,0,0-.083-.837c-.194-.392-.526-1.064-.721-1.038a1.875,1.875,0,0,0-1.3.748A17.112,17.112,0,0,0,1352-40.161a2.163,2.163,0,0,0,.554,1.788c.521.474,1.109-.148,1.5-.573A6.078,6.078,0,0,0,1355.537-42.639Zm-45.8,2.88c-.648-1.515-1.2-2.927-1.874-4.277a1.26,1.26,0,0,0-1.108-.481c-.3.072-.621.593-.7.966a5.4,5.4,0,0,0,1.376,4.573c.3.379,1.075.777,1.4.635C1309.247-38.523,1309.432-39.244,1309.733-39.76Zm-4.649,2.083a5.826,5.826,0,0,0-1.5-3.385,4.293,4.293,0,0,0-1.113-.589,4.737,4.737,0,0,0-.573,1.2,5.288,5.288,0,0,0,.934,3.218c.286.578.793,1.241,1.466.99C1304.688-36.389,1304.832-37.178,1305.084-37.677Zm54.5-2.3a2.06,2.06,0,0,0-.038-.6c-.148-.366-.272-.908-.544-1.01s-.794.174-1.043.438a4.8,4.8,0,0,0-1.351,4.044c.041.32.277.811.506.863a1.213,1.213,0,0,0,1-.381A5.617,5.617,0,0,0,1359.587-39.973Zm.851,4.945a1.656,1.656,0,0,0,.01.54c.119.323.232.8.466.885s.7-.152.92-.383a4.384,4.384,0,0,0,1.249-3.768c-.118-.882-.613-1.052-1.269-.457A4.35,4.35,0,0,0,1360.437-35.029Zm-59.371-.016a4.5,4.5,0,0,0-1.487-3.23c-.593-.507-.989-.367-1.152.391a4.159,4.159,0,0,0,.973,3.615,4.071,4.071,0,0,0,1.189.7q.238-.627.476-1.254A1.387,1.387,0,0,0,1301.066-35.045Zm40.894,8.466a1.421,1.421,0,0,0-1.129,1.741,1.612,1.612,0,0,0,1.806,1.234,1.443,1.443,0,0,0,1.226-1.7c-.6.616-1.033,1.737-2.1.976C1340.762-25.042,1341.6-25.825,1341.96-26.579Z" transform="translate(-175.457 1793.228)" fill="#1d272b"/>
  </g>
</svg>
