<svg xmlns="http://www.w3.org/2000/svg" width="71.306" height="84.981" viewBox="0 0 71.306 84.981">
  <g id="Grupo_134244" data-name="Grupo 134244" transform="translate(-386 -1886.549)">
    <path id="Trazado_165242" data-name="Trazado 165242" d="M6310.416-1011.693a9.838,9.838,0,0,0-.548,1.587c-1.276,7.546-4.523,14.358-7.735,21.2a3.791,3.791,0,0,1-3.972,2.547c-8.634-.026-8.441.228-5.037-7.47a67.042,67.042,0,0,0,5.133-18.633c.751-5.718,2.2-11.344,3.365-17.007,1.026-4.994,3.689-8.338,8.941-9.483a42.646,42.646,0,0,0,7.9-2.784c1.747-.765,2.42-2,.861-3.88-1.616-1.954-2.4-4.443-4.868-5.916-.96-.574-1.074-3.034-1.066-4.633.008-1.66.941-3.32.93-4.976-.059-8.152,8.526-12.263,15.8-8.824a6.623,6.623,0,0,0,2.69.628c3.964.034,6.044,2,6.377,5.959.223,2.668.93,5.324.875,7.975a9.18,9.18,0,0,1-1.823,4.532c-1.467,2.17-3.4,4.029-4.809,6.229-.314.492.467,2.347,1.185,2.719a25.025,25.025,0,0,0,6.739,2.544c6.573,1.228,9.7,5.3,10.737,11.635.966,5.884,2.768,11.675,3.254,17.584.574,6.989,3.628,12.989,6.079,19.266,1.506,3.859,1.141,4.095-2.788,4.576-4.835.591-7.449-1.1-8.976-5.726-2.166-6.561-4.843-12.953-7.521-20,.4,6.143.728,11.853,1.154,17.556.137,1.83.538,3.639.8,5.461.242,1.673-.391,2.61-2.183,2.609q-15.271-.012-30.541,0c-2.4,0-2.244-1.617-2.068-3.239.468-4.335,1.069-8.661,1.384-13.007.216-2.986.041-6,.041-9Zm31.3,23.418c-.323-8.943-.681-17.544-.882-26.148-.023-.972.823-1.965,1.267-2.948.674.9,1.716,1.708,1.964,2.713,1.81,7.324,3.427,14.66,7,21.448,2.821,5.357,2.578,5.487,8.617,5.021a4.668,4.668,0,0,0,.816-.277c-.5-1.244-.966-2.488-1.488-3.709-2.547-5.963-4.824-11.927-5.512-18.53-.646-6.195-2.229-12.3-3.531-18.414a32.645,32.645,0,0,0-1.813-4.778,7.3,7.3,0,0,0-1.491.562c-3.194,2.423-6.359,2.426-9.628.092-2.1-1.5-4.2-1.061-6.208.339a6.723,6.723,0,0,1-8.369-.038,5.289,5.289,0,0,0-6.718.022,6.591,6.591,0,0,1-6.594.968,44.074,44.074,0,0,1-4.012-2.131,45.852,45.852,0,0,0-1.973,5.521c-1.177,5.358-2.305,10.734-3.208,16.144-.953,5.715-1.412,11.508-4.2,16.78-1.2,2.26-1.982,4.738-3.051,7.351a27.6,27.6,0,0,1,2.766.175c3.262.582,4.807-.869,6.286-3.843,3.665-7.37,5.688-15.185,7.58-23.094.206-.861,1.113-1.554,1.7-2.325.451.838,1.295,1.677,1.29,2.513q-.051,9.289-.42,18.575c-.109,2.642-.593,5.268-.919,8.013Zm4.734-47.488c-1.647-.55-2.914-.946-4.162-1.4-2.9-1.047-5.848-1.976-8.652-3.234-1.8-.808-3.245-2.74-2.068-4.471,1.729-2.543,2.148-6.108,5.554-7.523.662-.275,1.209-1.741,1.169-2.628-.127-2.768-.592-5.519-.87-8.283-.3-3.028-1.658-4.187-4.732-4.236a7.217,7.217,0,0,1-3.238-.752c-4.9-2.673-13.116-.544-13.313,6.851-.053,1.961-.842,3.892-1.062,5.863-.106.94.067,2.612.562,2.805,3.093,1.21,3.664,4.34,5.418,6.542,1.728,2.169,1.188,4.092-.876,5.446a26.4,26.4,0,0,1-5.5,2.5c-2.468.9-5.006,1.6-7.769,2.469,3.348,3.007,4.819,3.217,8.09,1.151,2.763-1.745,5.458-1.861,8.123.025a5.431,5.431,0,0,0,6.955.044c2.655-1.907,5.353-1.833,8.129-.12C6341.589-1032.626,6342.826-1032.776,6346.45-1035.763Z" transform="translate(-5904.939 2957.734)" fill="#1d272b"/>
    <path id="Trazado_165243" data-name="Trazado 165243" d="M6347.222-977.388a6.27,6.27,0,0,1-5.457-9.321,58.724,58.724,0,0,1,3.946-5.714c1.039-1.421,2.212-1.469,3.276-.016a61.844,61.844,0,0,1,3.81,5.457A6.292,6.292,0,0,1,6347.222-977.388Zm.141-14.384c-1.521,2.195-2.905,3.935-4,5.842a4.186,4.186,0,0,0,1.051,5.723,4.313,4.313,0,0,0,5.844.047c1.813-1.5,2.427-3.537,1.129-5.7C6350.253-987.749,6348.912-989.516,6347.362-991.773Z" transform="translate(-5925.65 2925.566)" fill="#1d272b"/>
  </g>
</svg>
