<svg xmlns="http://www.w3.org/2000/svg" width="71.695" height="91.787" viewBox="0 0 71.695 91.787">
  <g id="Grupo_134245" data-name="Grupo 134245" transform="translate(-1121.38 -2060.098)">
    <path id="Trazado_165239" data-name="Trazado 165239" d="M5631.3-1238.675c-.417,0-.738,0-1.06,0-8.093-.068-6.862.994-6.958-6.99-.007-.627,0-1.254,0-1.881a10.764,10.764,0,0,1,8.836-10.334,13.308,13.308,0,0,1,2.093-.166q24.9-.014,49.806-.007a10.727,10.727,0,0,1,10.93,10.884q.006,3.235,0,6.47a1.817,1.817,0,0,1-1.994,2.018c-1.977.016-3.953,0-5.99,0-.016.3-.04.54-.04.781,0,1.906.027,3.813-.014,5.718a2.08,2.08,0,0,0,1.258,2.1c.738.369,1.457.782,2.167,1.2a8.647,8.647,0,0,1,4.6,7.758c.045,6.295.015,12.589.013,18.884,0,1.33-.672,2.1-1.81,2.1-1.062,0-1.77-.817-1.771-2.088-.006-6.069-.038-12.138.014-18.207a5.8,5.8,0,0,0-3.356-5.648,18.283,18.283,0,0,1-2.869-1.767,4.838,4.838,0,0,1-1.825-3.955c-.009-2.253,0-4.507,0-6.816H5634.9v.776c0,2.006.015,4.013-.005,6.019a5.187,5.187,0,0,1-2.575,4.564c-.825.52-1.7.958-2.55,1.441a5.378,5.378,0,0,0-2.907,4.988q0,22.721.006,45.443a5.321,5.321,0,0,0,5.577,5.5q26.672,0,53.343,0a5.328,5.328,0,0,0,5.566-5.518c.02-3.235,0-6.47.006-9.705,0-.226-.009-.452.008-.677a1.862,1.862,0,0,1,1.848-1.8,1.807,1.807,0,0,1,1.725,1.9c.008,3.511.019,7.022,0,10.533a8.91,8.91,0,0,1-8.934,8.866q-14.634.018-29.267,0-12.113,0-24.226,0a8.929,8.929,0,0,1-9.234-9.251q-.005-22.646,0-45.292a8.842,8.842,0,0,1,4.876-8.206,17.674,17.674,0,0,0,2.211-1.269,2.2,2.2,0,0,0,.89-1.366C5631.352-1233.954,5631.3-1236.26,5631.3-1238.675Zm-4.545-3.637h64.6c0-1.818.051-3.593-.011-5.365a7.066,7.066,0,0,0-7.005-6.769q-25.233-.02-50.467,0a6.822,6.822,0,0,0-6.721,5.314A52.614,52.614,0,0,0,5626.756-1242.313Z" transform="translate(-4501.887 3318.151)" fill="#1d272b"/>
    <path id="Trazado_165240" data-name="Trazado 165240" d="M5760.6-1018.92a14.185,14.185,0,0,0,.347,2.043,2.055,2.055,0,0,0,2.233,1.547c2.883,0,5.766-.008,8.649,0a1.815,1.815,0,0,1,1.946,1.762,1.767,1.767,0,0,1-1.85,1.838c-1.931.015-3.861,0-5.791.006-.169,0-.338.017-.464.024a24.58,24.58,0,0,1,1.458,3.265,11.893,11.893,0,0,1-4.889,12.712c-5.024,3.3-10.238,3.162-15.339.226a20.542,20.542,0,0,1-9.9-13.669,30.345,30.345,0,0,1,3.7-23.627,20.533,20.533,0,0,1,6.646-6.542c3.4-2.148,6.9-1.949,10.3-.194a12.252,12.252,0,0,1,6.983,11.341,6.255,6.255,0,0,1-1.776,4.566c-.3.324-.59.662-.908,1.019,3.436.372,5.693.11,7.36-2.332a4.931,4.931,0,0,0,.866-2.829c0-2.432-.006-4.864.006-7.3a1.83,1.83,0,0,1,1.26-1.853,1.589,1.589,0,0,1,1.886.543,2.234,2.234,0,0,1,.437,1.228c.037,2.582.054,5.165.005,7.746a8.934,8.934,0,0,1-8.324,8.461C5763.887-1018.87,5762.335-1018.92,5760.6-1018.92Zm-3.716.139c-.376,0-.773.023-1.167,0a1.828,1.828,0,0,1-1.723-1.91,1.815,1.815,0,0,1,1.744-1.884c.5-.027,1,.018,1.5-.024a.819.819,0,0,0,.523-.3c.789-1.058,1.506-2.173,2.342-3.192a3.346,3.346,0,0,0,.82-2.487,8.71,8.71,0,0,0-4.417-7.339c-2.381-1.37-4.874-1.828-7.372-.171a17.48,17.48,0,0,0-5.533,5.653,26.922,26.922,0,0,0-3.143,19.769,17.423,17.423,0,0,0,8.138,11.865,10.529,10.529,0,0,0,10.607.606,8.5,8.5,0,0,0,4.436-8.93,8.322,8.322,0,0,0-2.418-3.821,1.875,1.875,0,0,0-1.57-.681c-1.327.037-2.658.027-3.985-.031a1.745,1.745,0,0,1-1.672-2,1.765,1.765,0,0,1,1.8-1.733c.522-.011,1.045,0,1.576,0Z" transform="translate(-4597.727 3133.666)" fill="#1d272b"/>
    <path id="Trazado_165241" data-name="Trazado 165241" d="M6079.484-841.385a1.74,1.74,0,0,1-1.827,1.757,1.781,1.781,0,0,1-1.742-1.784,1.81,1.81,0,0,1,1.77-1.768A1.764,1.764,0,0,1,6079.484-841.385Z" transform="translate(-4886.424 2965.706)" fill="#1d272b"/>
  </g>
</svg>
