<svg xmlns="http://www.w3.org/2000/svg" width="87.525" height="87.148" viewBox="0 0 87.525 87.148">
  <g id="Grupo_134246" data-name="Grupo 134246" transform="translate(-378.744 -2213.879)">
    <path id="Trazado_170414" data-name="Trazado 170414" d="M1936.614,89.46c3.8,2.074,5.122,5.225,5.008,9.563-.25,9.489-.055,18.989-.087,28.484-.021,6.489-3.27,9.767-9.673,9.826-3.4.031-6.8.07-10.2-.013-2.785-.068-4.126,1.086-4.081,3.951.073,4.57-.213,9.161.118,13.708.172,2.358,1.232,4.685,2.086,6.954,1.793,4.763,3.715,9.476,5.767,14.675H1870.5c1.392-4.084,2.121-8.124,4.054-11.467,3.22-5.568,3.8-11.358,3.669-17.552-.239-11.455,1.1-10.508-10.1-10.163-11.111.341-14.478-2.563-13.965-14.145.357-8.072.258-16.18-.009-24.26-.143-4.344,1.2-7.489,5.007-9.561h4.225c1.717,1.965,3.214,4.195,5.2,5.842,4.054,3.369,3.291,7.634,1.451,11.15-2.919,5.58-1.1,11.1-1.685,16.8,6.933,0,13.373.074,19.808-.078.99-.023,1.955-1.088,2.931-1.672l-.488-.918c-4.072-.162-6.941-1.811-8.139-5.923a16.372,16.372,0,0,0-2.186-3.634c-1.707-9.183-.553-17.594,9.871-21.57H1901.4a14.743,14.743,0,0,0,1.487.78c11.2,4.394,13.98,17.038,5.646,25.74a40.177,40.177,0,0,0-2.945,3.021c-1.443,1.867-.781,4.148,1.279,4.188,6.763.13,13.531.049,20.589.049,0-2.567.06-4.771-.016-6.971-.083-2.432.341-5.125-.552-7.242-3.923-9.294-2.645-14.384,5.5-19.565ZM1921.8,173.826c-1.677-3.89-3.289-7.346-4.657-10.9a27.957,27.957,0,0,1-2.246-7.646c-.362-4.78-.164-9.609-.093-14.416.062-4.168,2.148-6.248,6.3-6.329,3.869-.075,7.742.058,11.61-.048,3.743-.1,5.94-2.212,5.971-5.938.085-10.553.159-21.111-.114-31.658a5.874,5.874,0,0,0-3.179-4.264c-1.282-.5-3.276.825-4.956,1.344l1.258.857c.434,2.709.9,5.414,1.2,8.136a17.168,17.168,0,0,1-2.647.733,22.51,22.51,0,0,0-.062-3.968c-.126-.628-.88-1.131-1.351-1.689-.452.578-1.294,1.163-1.285,1.734.029,1.843-.236,4.12.713,5.435,2.219,3.07,1.786,6.372,2.077,9.72.329,3.792-1.643,8.011,1.808,11.366.115.111-.831,1.313-.752,1.194-2.667-.581-4.587-1.31-6.524-1.363-5.859-.16-11.727-.016-17.59-.075-3.655-.037-4.919-1.562-5.226-5.12-.3-3.523,2.567-4.777,4.373-6.732,4.989-5.4,5.517-12.318,1.139-17.481-4.352-5.131-15.329-6.349-20.686-2.224a30.272,30.272,0,0,0-3.046,3.217,18.758,18.758,0,0,0,2.073.183c4.221-.252,8.025.276,9.875,4.878.153.382.843.66,1.334.779,5.2,1.254,6.39,4.338,3.475,8.938a6.174,6.174,0,0,0-1.239,2.762c-.131,4.44-.058,8.887-.058,12.133,2.625,2.107,5.034,3.29,6.3,5.223,2.056,3.144.4,5.347-5.045,10.2-2.868,2.558-4.193.566-6.15-.771-1.354-.925-3.153-2.4-4.325-2.077a5.492,5.492,0,0,0-3.244,3.792c-.305,2.278,1.618,3.428,3.932,3.435,5.277.016,10.555-.021,15.833.021,3.432.028,5.35,1.6,5.334,4.232-.015,2.656-1.892,4.165-5.378,4.194-4.808.041-9.618-.049-14.424.07-.861.021-1.7.783-2.554,1.2a30.129,30.129,0,0,0,2.627,1.525,3.758,3.758,0,0,0,1.394.033c4.313.072,5.65,1.387,5.69,5.677.031,3.235.006,6.471.006,9.4,7.111,2.286,6.82-5.019,10.623-7.265,3.222,3.346-2.337,4.859-1.544,7.546Zm-57.726-78.951,1.261-.865c-1.671-.534-3.4-1.633-5-1.47-2.384.243-3.309,2.269-3.3,4.67.025,10.324-.031,20.648.031,30.972.025,4.161,2.154,6.243,6.316,6.324,3.87.075,7.745-.058,11.614.048,3.741.1,5.85,2.211,5.96,5.955.107,3.633-.124,7.281.069,10.907a23.4,23.4,0,0,1-3.124,13.118c-1.572,2.787-2.478,5.95-3.784,9.2h13.853c-1.023-1.592-1.752-2.907-2.656-4.088-1.28-1.675-.981-2.667,1.252-3.222a65.408,65.408,0,0,1,3.649,5.543c1.5,2.834,3.786,1.916,6.264,1.838,0-2.7,0-5.144,0-7.589,0-4.786,0-4.786-4.646-4.937-3.343-.109-5.4-1.779-5.149-4.4.3-3.034,2.307-4.081,5.152-4.058,4.81.04,9.623.084,14.43-.056.927-.027,1.831-.887,2.746-1.363-.928-.462-1.846-1.3-2.785-1.324-5.159-.133-10.324-.011-15.485-.086-3.57-.053-6.137-1.958-6.748-5.029-.654-3.289.725-5.658,3.624-7.281.722-.4,1.772-1.172,1.77-1.769-.019-4.7,2.746-6.633,7.093-7.307,0-4.271-.141-8.491.073-12.693.082-1.6,1.05-3.147,1.479-4.754.363-1.358.53-2.768.783-4.155-1.255.419-2.51.843-3.77,1.25a3.047,3.047,0,0,1-.636.068c-3.083-8.2-3.88-8.69-11.788-7.111V108.9l2.452.6c.395,7,.395,7,8.376,8.558.629,6.854-.381,8.018-6.968,8.02-5.046,0-10.1-.134-15.134.072-1.831.075-3.606,1.094-5.453,1.413a3.792,3.792,0,0,1-1.9-.461,44.28,44.28,0,0,0,1.459-6.118c.467-5.6-1.167-11.443,2.451-16.673.74-1.07.43-2.971.329-4.47-.042-.622-.81-1.195-1.248-1.789-.492.66-1.229,1.257-1.42,2a22.179,22.179,0,0,0-.244,4c-1.189-.637-2.517-1.079-2.485-1.375C1863.105,100.054,1863.625,97.469,1864.074,94.875Zm33.793,46.3c2.121-2.364,6.259-2.948,5.375-7.072-.551-2.571-3.027-2.434-5.171-2.406-2.208.028-4.894-.383-5.536,2.378C1891.573,138.205,1895.781,138.78,1897.867,141.175Z" transform="translate(-1475.361 2124.419)" fill="#1d272b"/>
  </g>
</svg>
