<svg xmlns="http://www.w3.org/2000/svg" xmlns:xlink="http://www.w3.org/1999/xlink" width="243.221" height="294.135" viewBox="0 0 243.221 294.135">
  <defs>
    <linearGradient id="linear-gradient" x1="0.5" x2="0.5" y2="1" gradientUnits="objectBoundingBox">
      <stop offset="0" stop-color="#f5f5f5"/>
      <stop offset="0.25" stop-color="#f5f5f5"/>
      <stop offset="1" stop-color="#eeeef2"/>
    </linearGradient>
    <linearGradient id="linear-gradient-4" x1="0.5" x2="0.5" y2="1" gradientUnits="objectBoundingBox">
      <stop offset="0" stop-color="#f5f5f5"/>
      <stop offset="0.25" stop-color="#f5f5f5"/>
      <stop offset="1" stop-color="#a7b3cf"/>
    </linearGradient>
  </defs>
  <g id="Grupo_134261" data-name="Grupo 134261" transform="translate(-204.878 -367.834)">
    <g id="Grupo_133112" data-name="Grupo 133112">
      <path id="Trazado_164055" data-name="Trazado 164055" d="M291.614,388.587c9.184-18.88,11.8-43.382,6.934-65.019-3.075-13.679-8.975-26.388-9.729-40.652-1.509-28.52,17.511-51.577,21.456-79.666,1.734-12.345-.158-26.726-7.592-34.225-7.343-7.406-17.822-5.894-26.135-.707s-15.346,13.49-23.327,19.56-17.808,9.823-26.236,4.992c-8.537-4.894-13.38-17.229-16.092-29.25s-4.044-24.826-8.673-35.718c-7.63-17.95-23.9-27.738-39.056-25.205s-28.7,16.406-35.969,34.632-8.535,40.272-4.918,60.4c1.835,10.21,4.857,19.988,6.5,30.257s1.8,21.508-1.88,30.758c-7.693,19.341-27.989,22.039-38.618,38.626-8.772,13.69-9.047,34.581-4.069,51.416s14.334,30.495,23.662,43.491c43.509,1.984,87.8,2.116,131.306,4.1C256.091,397.149,274.724,389.936,291.614,388.587Z" transform="translate(124.539 265.533)" fill="#a4a4b4" opacity="0.354" style="mix-blend-mode: multiply;isolation: isolate"/>
      <path id="Trazado_164056" data-name="Trazado 164056" d="M359.209,163.1c-.1,10.527,9.909,19.689,8.167,30.071-.931,5.555-5.164,11.186-2.7,16.253,2.176,4.483,8.41,5.261,13.176,3.8,11.156-3.413,17.937-14.816,21.18-26.024,3.05-10.541,3.807-22.316-1.078-32.143-3.936-7.917-13.018-14.907-22.241-14.26C367.262,141.389,359.283,155.167,359.209,163.1Z" transform="translate(46.633 280.43)" fill="#a4a4b4" opacity="0.31" style="mix-blend-mode: multiply;isolation: isolate"/>
      <path id="Trazado_164057" data-name="Trazado 164057" d="M112,131.157a39.863,39.863,0,0,0-.8,38.789c2.046,3.755,4.81,7.254,8.542,9.342s8.546,2.554,12.26.435c5.633-3.213,6.879-10.792,6.43-17.262s-1.914-13.252.577-19.239c1.624-3.9,4.743-6.945,7.509-10.141s5.349-6.926,5.492-11.151c.37-10.952-11.257-10.133-18.264-7.859A39.823,39.823,0,0,0,112,131.157Z" transform="translate(120.72 259.333)" fill="#a4a4b4" opacity="0.31" style="mix-blend-mode: multiply;isolation: isolate"/>
      <g id="Grupo_127878" data-name="Grupo 127878" transform="translate(300.998 477.371)">
        <path id="Trazado_163809" data-name="Trazado 163809" d="M289.074,240.3H267.049l6.062,32.226h9.9Z" transform="translate(-193.939 -240.304)" fill="#868695"/>
        <rect id="Rectángulo_35043" data-name="Rectángulo 35043" width="11.603" height="7.639" rx="1.111" transform="translate(78.335 32.226)" fill="#1d272b"/>
        <rect id="Rectángulo_35044" data-name="Rectángulo 35044" width="21.164" height="28.259" rx="4.786" transform="translate(57.859 11.606)" fill="#1d272b"/>
        <rect id="Rectángulo_35045" data-name="Rectángulo 35045" width="5.496" height="8.111" transform="translate(65.693 4.6)" fill="#868695"/>
        <rect id="Rectángulo_35046" data-name="Rectángulo 35046" width="9.536" height="5.93" rx="1.306" transform="translate(63.672 3.932)" fill="#868695"/>
        <g id="Grupo_127674" data-name="Grupo 127674" transform="translate(17.479 39.872)">
          <path id="Trazado_163810" data-name="Trazado 163810" d="M303.168,403.552h-1.712V275.169H222.508V403.552H220.8v-130.1h82.373Z" transform="translate(-220.795 -273.456)" fill="#868695"/>
        </g>
        <rect id="Rectángulo_35047" data-name="Rectángulo 35047" width="2.545" height="15.721" transform="translate(6.776 183.587) rotate(180)" fill="#64546f"/>
        <g id="Grupo_127675" data-name="Grupo 127675" transform="translate(0 167.866)">
          <path id="Trazado_163811" data-name="Trazado 163811" d="M206.262,387.738c0,4.342,1.894,7.86,4.231,7.86s4.231-3.518,4.231-7.86-1.894-7.861-4.231-7.861S206.262,383.4,206.262,387.738Z" transform="translate(-206.262 -379.877)" fill="#1d272b"/>
        </g>
        <g id="Grupo_127676" data-name="Grupo 127676" transform="translate(2.606 167.866)">
          <path id="Trazado_163812" data-name="Trazado 163812" d="M208.429,387.738c0,4.342,1.894,7.86,4.232,7.86s4.23-3.518,4.23-7.86-1.894-7.861-4.23-7.861S208.429,383.4,208.429,387.738Z" transform="translate(-208.429 -379.877)" fill="#868695"/>
        </g>
        <rect id="Rectángulo_35048" data-name="Rectángulo 35048" width="2.544" height="15.721" transform="translate(19.576 183.587) rotate(180)" fill="#64546f"/>
        <g id="Grupo_127677" data-name="Grupo 127677" transform="translate(12.802 167.866)">
          <path id="Trazado_163813" data-name="Trazado 163813" d="M216.906,387.738c0,4.342,1.894,7.86,4.23,7.86s4.231-3.518,4.231-7.86-1.894-7.861-4.231-7.861S216.906,383.4,216.906,387.738Z" transform="translate(-216.906 -379.877)" fill="#1d272b"/>
        </g>
        <g id="Grupo_127678" data-name="Grupo 127678" transform="translate(15.408 167.866)">
          <path id="Trazado_163814" data-name="Trazado 163814" d="M219.073,387.738c0,4.342,1.894,7.86,4.23,7.86s4.232-3.518,4.232-7.86-1.9-7.861-4.232-7.861S219.073,383.4,219.073,387.738Z" transform="translate(-219.073 -379.877)" fill="#868695"/>
        </g>
        <rect id="Rectángulo_35049" data-name="Rectángulo 35049" width="2.545" height="15.721" transform="translate(87.538 183.587) rotate(180)" fill="#64546f"/>
        <g id="Grupo_127679" data-name="Grupo 127679" transform="translate(80.761 167.866)">
          <path id="Trazado_163815" data-name="Trazado 163815" d="M273.411,387.738c0,4.342,1.9,7.86,4.231,7.86s4.232-3.518,4.232-7.86-1.9-7.861-4.232-7.861S273.411,383.4,273.411,387.738Z" transform="translate(-273.411 -379.877)" fill="#1d272b"/>
        </g>
        <g id="Grupo_127680" data-name="Grupo 127680" transform="translate(83.369 167.866)">
          <path id="Trazado_163816" data-name="Trazado 163816" d="M275.579,387.738c0,4.342,1.894,7.86,4.231,7.86s4.231-3.518,4.231-7.86-1.9-7.861-4.231-7.861S275.579,383.4,275.579,387.738Z" transform="translate(-275.579 -379.877)" fill="#868695"/>
        </g>
        <rect id="Rectángulo_35050" data-name="Rectángulo 35050" width="2.545" height="15.721" transform="translate(100.339 183.587) rotate(180)" fill="#64546f"/>
        <g id="Grupo_127681" data-name="Grupo 127681" transform="translate(93.563 167.866)">
          <path id="Trazado_163817" data-name="Trazado 163817" d="M284.055,387.738c0,4.342,1.894,7.86,4.231,7.86s4.23-3.518,4.23-7.86-1.893-7.861-4.23-7.861S284.055,383.4,284.055,387.738Z" transform="translate(-284.055 -379.877)" fill="#1d272b"/>
        </g>
        <g id="Grupo_127682" data-name="Grupo 127682" transform="translate(96.169 167.866)">
          <path id="Trazado_163818" data-name="Trazado 163818" d="M286.222,387.738c0,4.342,1.894,7.86,4.231,7.86s4.231-3.518,4.231-7.86-1.894-7.861-4.231-7.861S286.222,383.4,286.222,387.738Z" transform="translate(-286.222 -379.877)" fill="#868695"/>
        </g>
        <rect id="Rectángulo_35051" data-name="Rectángulo 35051" width="80.661" height="21.753" transform="translate(86.195 159.833) rotate(180)" fill="#1d272b"/>
        <rect id="Rectángulo_35052" data-name="Rectángulo 35052" width="13.003" height="21.753" transform="translate(99.198 159.833) rotate(180)" fill="#a4a4b4"/>
        <path id="Trazado_163819" data-name="Trazado 163819" d="M237.418,367.082h17.706a4.265,4.265,0,0,0,4.265-4.265H233.156A4.263,4.263,0,0,0,237.418,367.082Z" transform="translate(-200.81 -215.469)" fill="#a4a4b4"/>
        <rect id="Rectángulo_35053" data-name="Rectángulo 35053" width="80.661" height="21.753" transform="translate(86.195 135.495) rotate(180)" fill="#1d272b"/>
        <rect id="Rectángulo_35054" data-name="Rectángulo 35054" width="13.003" height="21.753" transform="translate(99.198 135.495) rotate(180)" fill="#a4a4b4"/>
        <path id="Trazado_163820" data-name="Trazado 163820" d="M237.418,346.847h17.706a4.265,4.265,0,0,0,4.265-4.265H233.156A4.263,4.263,0,0,0,237.418,346.847Z" transform="translate(-200.81 -219.571)" fill="#a4a4b4"/>
        <rect id="Rectángulo_35055" data-name="Rectángulo 35055" width="80.661" height="21.753" transform="translate(86.195 111.157) rotate(180)" fill="#1d272b"/>
        <rect id="Rectángulo_35056" data-name="Rectángulo 35056" width="13.003" height="21.753" transform="translate(99.198 111.157) rotate(180)" fill="#a4a4b4"/>
        <path id="Trazado_163821" data-name="Trazado 163821" d="M237.418,326.611h17.706a4.264,4.264,0,0,0,4.265-4.264H233.156A4.262,4.262,0,0,0,237.418,326.611Z" transform="translate(-200.81 -223.673)" fill="#a4a4b4"/>
        <rect id="Rectángulo_35057" data-name="Rectángulo 35057" width="80.661" height="21.753" transform="translate(86.195 86.819) rotate(180)" fill="#1d272b"/>
        <rect id="Rectángulo_35058" data-name="Rectángulo 35058" width="13.003" height="21.753" transform="translate(99.198 86.819) rotate(180)" fill="#a4a4b4"/>
        <path id="Trazado_163822" data-name="Trazado 163822" d="M237.418,306.375h17.706a4.264,4.264,0,0,0,4.265-4.264H233.156A4.262,4.262,0,0,0,237.418,306.375Z" transform="translate(-200.81 -227.775)" fill="#a4a4b4"/>
        <rect id="Rectángulo_35059" data-name="Rectángulo 35059" width="80.661" height="21.753" transform="translate(86.195 62.482) rotate(180)" fill="#1d272b"/>
        <rect id="Rectángulo_35060" data-name="Rectángulo 35060" width="13.003" height="21.753" transform="translate(99.198 62.482) rotate(180)" fill="#a4a4b4"/>
        <path id="Trazado_163823" data-name="Trazado 163823" d="M237.418,286.14h17.706a4.265,4.265,0,0,0,4.265-4.265H233.156A4.263,4.263,0,0,0,237.418,286.14Z" transform="translate(-200.81 -231.877)" fill="#a4a4b4"/>
        <g id="Grupo_127683" data-name="Grupo 127683" transform="translate(4.678 39.872)">
          <path id="Trazado_163824" data-name="Trazado 163824" d="M292.525,403.552h-1.712V275.169H211.864V403.552h-1.712v-130.1h82.373Z" transform="translate(-210.152 -273.456)" fill="#868695"/>
        </g>
        <path id="Trazado_163825" data-name="Trazado 163825" d="M284.478,274.324H217.956a2.594,2.594,0,0,1-2.594-2.594h0a2.594,2.594,0,0,1,2.594-2.594h66.522a2.6,2.6,0,0,1,2.6,2.594h0A2.6,2.6,0,0,1,284.478,274.324Z" transform="translate(-204.417 -234.46)" fill="#a4a4b4"/>
        <g id="Grupo_127684" data-name="Grupo 127684" transform="translate(11.231 26.179)">
          <path id="Trazado_163826" data-name="Trazado 163826" d="M286.508,273.842H215.6v-.68a11.1,11.1,0,0,1,11.091-11.091h48.726a11.1,11.1,0,0,1,11.091,11.091Zm-69.528-1.358h68.146a9.744,9.744,0,0,0-9.709-9.055H226.691A9.745,9.745,0,0,0,216.981,272.484Z" transform="translate(-215.6 -262.071)" fill="#a4a4b4"/>
        </g>
      </g>
      <g id="Grupo_127886" data-name="Grupo 127886" transform="translate(307.51 454.474)">
        <g id="Grupo_127882" data-name="Grupo 127882" transform="translate(0 1.877)">
          <g id="Grupo_127710" data-name="Grupo 127710" transform="translate(0.023)">
            <path id="Trazado_163858" data-name="Trazado 163858" d="M196.526,360.349a12.044,12.044,0,0,1-1.878.386,40.292,40.292,0,0,1-.345-5.753,8.622,8.622,0,0,1,.82-4.048l.273-.4a4.958,4.958,0,0,1,.934,1.579,13.581,13.581,0,0,1,.453,5.892C196.627,359.725,196.526,360.349,196.526,360.349Z" transform="translate(-193.889 -350.123)" fill="#1d272b"/>
            <path id="Trazado_163859" data-name="Trazado 163859" d="M194.595,359.4l1.776-.321s-.033.276-.148.359a3.24,3.24,0,0,1-1.033.292.854.854,0,0,1-.517-.11C194.6,359.587,194.595,359.4,194.595,359.4Z" transform="translate(-193.842 -348.813)" fill="#fff"/>
            <path id="Trazado_163860" data-name="Trazado 163860" d="M194.583,362.7a1.657,1.657,0,0,0,.176-1.191c-.065-.715-.151-1.958-.151-1.958a1.307,1.307,0,0,0,.819.1c.494-.061.788-.113,1.152-.923a20.4,20.4,0,0,0-.245,3.626,2.33,2.33,0,0,1,.084.454Z" transform="translate(-193.844 -348.866)" fill="#1d272b"/>
            <path id="Trazado_163861" data-name="Trazado 163861" d="M195.228,350.618l.322-.441a9.4,9.4,0,0,1,1.3,4.957,43.587,43.587,0,0,1-.325,5.177c-.035.347-.213,2.914-.217,3.137s.06.572.219.637a.317.317,0,0,1-.349-.035s-.018-1.839.12-3.139.381-5.446.3-6.43a8.763,8.763,0,0,0-.823-3.154A4.564,4.564,0,0,0,195.228,350.618Z" transform="translate(-193.745 -350.178)" fill="#cde3e8"/>
            <g id="Grupo_127709" data-name="Grupo 127709" transform="translate(0 13.494)">
              <g id="Grupo_127708" data-name="Grupo 127708">
                <path id="Trazado_163862" data-name="Trazado 163862" d="M194.347,362.353c.048-.071.114-.059.31-.116a.551.551,0,0,0,.337-.317,3.873,3.873,0,0,1,.686-.04,8.08,8.08,0,0,0,1.188.438c.142.028.317-.037.34.106a55.694,55.694,0,0,1,.2,6.113c-.117,2.624-.415,10.088-.431,12.021s.2,5.157.262,6.062.016,1.026-.249,1.24a5.055,5.055,0,0,1-3-.191,9.968,9.968,0,0,1,.039-1.887,88.2,88.2,0,0,0,.176-12.928,27.371,27.371,0,0,1-.176-4.689C194.073,365.141,194.347,362.353,194.347,362.353Z" transform="translate(-193.942 -361.878)" fill="#1d272b"/>
                <path id="Trazado_163863" data-name="Trazado 163863" d="M197.187,383.506c-.066.654-.151.761-.343.89a5.683,5.683,0,0,1-2.9-.118.637.637,0,0,0,.039.309c.4.411,2.725.385,3,.191s.314-.332.249-1.238Z" transform="translate(-193.942 -358.562)" fill="#cde3e8"/>
              </g>
            </g>
          </g>
          <g id="Grupo_127711" data-name="Grupo 127711" transform="translate(0 0.438)">
            <path id="Trazado_163864" data-name="Trazado 163864" d="M195.1,350.955a8.6,8.6,0,0,0-.82,4.047,40.374,40.374,0,0,0,.344,5.754,1.265,1.265,0,0,0,.857.167l-.107-10.365Z" transform="translate(-193.869 -350.558)" fill="#cde3e8"/>
            <path id="Trazado_163865" data-name="Trazado 163865" d="M194.636,362.257c-.2.059-.262.045-.31.115,0,0-.275,2.789-.326,5.812a27.378,27.378,0,0,0,.176,4.69A88.027,88.027,0,0,1,194,385.8a9.93,9.93,0,0,0-.038,1.887,3.293,3.293,0,0,0,1.68.33V361.9a3.5,3.5,0,0,0-.67.039A.545.545,0,0,1,194.636,362.257Z" transform="translate(-193.922 -348.819)" fill="#1d272b"/>
          </g>
        </g>
        <g id="Grupo_127883" data-name="Grupo 127883" transform="translate(32.021 3.117)">
          <path id="Trazado_163866" data-name="Trazado 163866" d="M220.741,389.365c-2,0-3.616,1.917-3.616,4.281s1.619,4.282,3.616,4.282,3.616-1.917,3.616-4.282S222.738,389.365,220.741,389.365Zm0,7.437a3.2,3.2,0,1,1,2.665-3.156A2.94,2.94,0,0,1,220.741,396.8Z" transform="translate(-217.125 -360.648)" fill="#1d272b"/>
          <path id="Trazado_163867" data-name="Trazado 163867" d="M223.765,396.758l.761-14.272s.8-6.285,1.109-7.517c.507-2.029,2.648-9.562,2.458-10.039s-.761-.095-1.047.953S224.3,374.9,224.3,374.9l-1.4,6.439-1.142,10.085-1.712,2.474,2.284,1.143Z" transform="translate(-216.676 -364.425)" fill="#1d272b"/>
          <path id="Trazado_163868" data-name="Trazado 163868" d="M228.415,389.117c-2,0-3.618,1.917-3.618,4.281s1.619,4.282,3.618,4.282,3.615-1.916,3.615-4.282S230.41,389.117,228.415,389.117Zm0,7.437a3.2,3.2,0,1,1,2.662-3.156A2.941,2.941,0,0,1,228.415,396.554Z" transform="translate(-215.949 -360.686)" fill="#1d272b"/>
          <path id="Trazado_163869" data-name="Trazado 163869" d="M225.17,397.178l-1.284-11.892-1.522-.953.856-9.991s2.361-9.315,2.887-9.735c.475-.381.952-.065.507,1.84-.246,1.056-1.775,8.056-1.775,8.056l1.712,17.825,2.237.57a7.132,7.132,0,0,0-2.428,1.9A16.241,16.241,0,0,0,225.17,397.178Z" transform="translate(-216.322 -364.465)" fill="#1d272b"/>
          <path id="Trazado_163870" data-name="Trazado 163870" d="M224.6,380.694a.761.761,0,1,1-.76-.761A.762.762,0,0,1,224.6,380.694Z" transform="translate(-216.212 -362.094)" fill="#cde3e8"/>
        </g>
        <g id="Grupo_127884" data-name="Grupo 127884" transform="translate(17.967 1.879)">
          <path id="Trazado_163871" data-name="Trazado 163871" d="M217.31,354.8c0-2.555-1.748-4.624-3.906-4.624s-3.9,2.069-3.9,4.624,1.748,4.623,3.9,4.623S217.31,357.356,217.31,354.8Zm-1.028,0A2.918,2.918,0,1,1,213.4,351.4,3.176,3.176,0,0,1,216.283,354.8Z" transform="translate(-209.5 -350.179)" fill="#1d272b"/>
          <path id="Trazado_163872" data-name="Trazado 163872" d="M216.671,354.81l.822,15.417s.536,5.868.487,7.238c-.144,3.925-.078,10.809-.19,11.353-.143.69-.475.528-.524-.644-.072-1.714-.475-10.092-.475-10.092l-1.045-6.624-1.232-10.892-1.851-2.673,2.468-1.233Z" transform="translate(-209.015 -349.469)" fill="#1d272b"/>
          <path id="Trazado_163873" data-name="Trazado 163873" d="M225.6,355.07c0-2.555-1.748-4.625-3.906-4.625s-3.9,2.07-3.9,4.625,1.748,4.624,3.9,4.624S225.6,357.622,225.6,355.07Zm-1.029,0a2.918,2.918,0,1,1-2.878-3.408A3.175,3.175,0,0,1,224.569,355.07Z" transform="translate(-208.229 -350.138)" fill="#1d272b"/>
          <path id="Trazado_163874" data-name="Trazado 163874" d="M218.128,354.362l-1.387,12.846-1.643,1.028.925,10.789s.427,8.635.466,9.36c.073,1.323.416,1.358.678-1.392.111-1.165.6-8.139.6-8.139l1.849-19.254,2.415-.614a7.718,7.718,0,0,1-2.62-2.055A17.586,17.586,0,0,1,218.128,354.362Z" transform="translate(-208.642 -349.538)" fill="#1d272b"/>
          <path id="Trazado_163875" data-name="Trazado 163875" d="M217.575,367.782a.822.822,0,1,0-.821.82A.821.821,0,0,0,217.575,367.782Z" transform="translate(-208.514 -347.606)" fill="url(#linear-gradient)"/>
        </g>
        <g id="Grupo_127885" data-name="Grupo 127885" transform="translate(9.843 0)">
          <g id="Grupo_127724" data-name="Grupo 127724">
            <g id="Grupo_127723" data-name="Grupo 127723">
              <path id="Trazado_163876" data-name="Trazado 163876" d="M209.38,383.634c0,.389-1.345.635-3.006.646s-3.006-.224-3.008-.612,1.346-.591,3.007-.6S209.38,383.247,209.38,383.634Z" transform="translate(-202.316 -343.258)" fill="#fff"/>
              <path id="Trazado_163877" data-name="Trazado 163877" d="M209.381,383.541c-.2.352-1.494.591-3.016.6-1.661.009-3.022-.2-3.022-.61,0,0,.013.524.013.524h0c.014.407,1.359.648,3.008.64s2.992-.265,3-.672h0v0h0A4.225,4.225,0,0,0,209.381,383.541Z" transform="translate(-202.32 -343.186)" fill="#1d272b"/>
              <g id="Grupo_127715" data-name="Grupo 127715" transform="translate(2.397 23.167)">
                <path id="Trazado_163878" data-name="Trazado 163878" d="M206.3,385.942l-1.1.009-.006-3.33a8.858,8.858,0,0,1-.592-2.346c-.053-.981-.055-.981-.076-11.638,0,0,.889.047,1.672.044C206.226,379.029,206.3,385.942,206.3,385.942Z" transform="translate(-204.534 -368.637)" fill="#1d272b"/>
                <path id="Trazado_163879" data-name="Trazado 163879" d="M205.91,368.858l1.575-.032s.125,11.192.088,11.842a14.03,14.03,0,0,1-.381,1.851c0,.494.036,3.4.036,3.4l-1.208.121Z" transform="translate(-204.323 -368.608)" fill="#1d272b"/>
              </g>
              <path id="Trazado_163880" data-name="Trazado 163880" d="M208.263,368.559l-4.057.022c-.03,0-.058.047-.058.106s.028.1.058.1h.174l-.008.325H204.2a.063.063,0,0,0-.056.069c0,.043.028.1.06.1h.173l.006.261h-.171a.073.073,0,0,0-.06.077c0,.042.028.078.06.077l4.057-.022c.03,0,.055-.036.055-.076s-.027-.078-.055-.078h-.175v-.275h.176c.03,0,.055-.032.055-.075s-.027-.078-.058-.078l-.174,0v-.335h.174c.03,0,.059-.047.059-.1S208.293,368.559,208.263,368.559Z" transform="translate(-202.198 -345.482)" fill="#fff"/>
              <path id="Trazado_163881" data-name="Trazado 163881" d="M203.721,380.843l-.03-19.83a.14.14,0,0,1,.141-.143h0l4.832-.027a.142.142,0,0,1,.1.04h0a.14.14,0,0,1,.04.1h0l.048,19.782a.145.145,0,0,1-.062.115h0a2.066,2.066,0,0,1-.926.236h0a15.564,15.564,0,0,1-1.567.084h0a11.9,11.9,0,0,1-1.642-.071h0a5.354,5.354,0,0,1-.834-.153h0a.179.179,0,0,1-.058-.033h0a.141.141,0,0,1-.043-.1Zm.283-.11a6.316,6.316,0,0,0,.686.117h0a11.318,11.318,0,0,0,1.6.069h0a15.178,15.178,0,0,0,1.541-.082h0a2.868,2.868,0,0,0,.639-.121h0c.043-.016.073-.025.1-.037h0l-.045-19.555-4.551.028L204,380.733Z" transform="translate(-202.267 -346.665)" fill="#1d272b"/>
              <path id="Trazado_163882" data-name="Trazado 163882" d="M203.7,361.28l-.01-.028.009-.039a.268.268,0,0,1,.067-.122h0a.772.772,0,0,1,.315-.164h0c.345-.089.907-.167,1.2-.255h0a.667.667,0,0,0,.129-.044h0c.009-.253.03-1.409.03-1.412h0v-.136l1.687-.01v.142s0,1.074.015,1.386h0c.035.014.087.03.148.051h0c.123.036.29.076.464.113h0a2.806,2.806,0,0,1,.992.286h0a.2.2,0,0,1,.067.128h0l.006.051v8.8h0v.142l-5.09.031-.036-8.924Zm.316,8.642,4.527-.03,0-8.642,0-.009a4.946,4.946,0,0,0-.84-.2h0a2.424,2.424,0,0,1-.788-.251h0l-.01-.014h0a.122.122,0,0,1-.038-.084h0c-.013-.125-.015-.992-.017-1.336h0l-1.129,0c-.007.353-.024,1.262-.025,1.328h0a.185.185,0,0,1-.055.123h0a1.561,1.561,0,0,1-.669.223h0c-.286.057-.61.112-.815.165h0a.686.686,0,0,0-.175.077h0l.036,8.647Z" transform="translate(-202.267 -346.937)" fill="#1d272b"/>
              <path id="Trazado_163883" data-name="Trazado 163883" d="M206.13,357.128l-.313,0-.011-8.582.316.768Z" transform="translate(-201.942 -348.55)" fill="#fff"/>
              <path id="Trazado_163884" data-name="Trazado 163884" d="M206.475,356.349s-.056-.23-.069-.265l-.074.013-.093.169,0,1.516a.164.164,0,0,1-.319,0l0-1.494-.107-.186s-.067-.025-.076-.017a1.261,1.261,0,0,0-.074.291.558.558,0,0,0-.138.031,8.522,8.522,0,0,0,.052,1.285c.025.175-.163.364-.245.536s-.253,1.956-.253,2l1.014.022c.738-.006.968-.03.968-.03,0-.048-.133-1.82-.215-2s-.292-.379-.268-.555a8.119,8.119,0,0,0,.037-1.293A.458.458,0,0,0,206.475,356.349Z" transform="translate(-202.054 -347.395)" fill="#fff"/>
              <path id="Trazado_163885" data-name="Trazado 163885" d="M205.691,356.125c0-.11.127-.205.283-.205s.288.091.288.2c0,0-.146.012-.3.01S205.691,356.125,205.691,356.125Z" transform="translate(-201.96 -347.42)" fill="#fff"/>
              <path id="Trazado_163886" data-name="Trazado 163886" d="M207.257,359.683c0,.044-.045.078-.1.081l-2.153.013a.1.1,0,0,1-.1-.082h0c0-.044.047-.081.1-.081l2.153-.013a.1.1,0,0,1,.1.082Z" transform="translate(-202.082 -346.855)" fill="#fff"/>
              <g id="Grupo_127716" data-name="Grupo 127716" transform="translate(2.327 15.328)">
                <path id="Trazado_163887" data-name="Trazado 163887" d="M204.517,361.917c-.023,0-.043-.013-.043-.031h0c0-.02.02-.032.042-.032h0l2.555-.014c.023,0,.042.014.042.03h0a.039.039,0,0,1-.043.035h0l-2.552.013Z" transform="translate(-204.474 -361.84)" fill="#fff" opacity="0.92"/>
                <path id="Trazado_163888" data-name="Trazado 163888" d="M204.524,364.869c-.024,0-.044-.015-.043-.032h0a.039.039,0,0,1,.042-.033h0l2.555-.014a.036.036,0,0,1,.039.032h0c0,.02-.017.032-.039.032h0l-2.553.015Z" transform="translate(-204.473 -361.388)" fill="#fff" opacity="0.92"/>
                <path id="Trazado_163889" data-name="Trazado 163889" d="M204.528,367.884a.036.036,0,0,1-.042-.031h0a.036.036,0,0,1,.042-.032h0l2.555-.016a.037.037,0,0,1,.039.032h0c0,.02-.017.032-.039.033h0l-2.555.014Z" transform="translate(-204.472 -360.925)" fill="#fff" opacity="0.92"/>
                <path id="Trazado_163890" data-name="Trazado 163890" d="M204.518,362.472a.042.042,0,0,1-.044-.031h0a.043.043,0,0,1,.045-.033h0l1.153-.007a.038.038,0,0,1,.04.032h0a.038.038,0,0,1-.04.032h0l-1.154.007Z" transform="translate(-204.474 -361.754)" fill="#fff" opacity="0.92"/>
                <path id="Trazado_163891" data-name="Trazado 163891" d="M204.519,363.074c-.024,0-.041-.015-.041-.032h0a.038.038,0,0,1,.041-.033h0l1.153-.007c.022,0,.042.015.04.035h0c0,.017-.017.03-.04.032h0l-1.153.006Z" transform="translate(-204.474 -361.662)" fill="#fff" opacity="0.92"/>
                <path id="Trazado_163892" data-name="Trazado 163892" d="M204.52,363.675c-.024,0-.04-.015-.04-.031h0c0-.02.016-.035.04-.035h0l1.152-.008c.022,0,.042.016.042.036h0c0,.017-.02.031-.042.031h0l-1.152.007Z" transform="translate(-204.473 -361.57)" fill="#fff" opacity="0.92"/>
                <path id="Trazado_163893" data-name="Trazado 163893" d="M204.522,364.275c-.025,0-.042-.013-.042-.032h0a.038.038,0,0,1,.042-.032h0l1.153-.007a.038.038,0,0,1,.039.032h0c0,.017-.015.032-.042.033h0l-1.151.006Z" transform="translate(-204.473 -361.477)" fill="#fff" opacity="0.92"/>
                <path id="Trazado_163894" data-name="Trazado 163894" d="M204.524,365.48a.038.038,0,0,1-.042-.035h0c0-.016.018-.031.042-.031h0l1.153-.008a.038.038,0,0,1,.04.033h0a.036.036,0,0,1-.04.032h0l-1.153.008Z" transform="translate(-204.473 -361.293)" fill="#fff" opacity="0.92"/>
                <path id="Trazado_163895" data-name="Trazado 163895" d="M204.524,366.079c-.023,0-.04-.013-.042-.032h0c0-.017.018-.031.042-.031h0l1.152-.007c.024,0,.043.015.04.033h0c0,.016-.015.031-.039.031h0l-1.153.006Z" transform="translate(-204.473 -361.201)" fill="#fff" opacity="0.92"/>
                <path id="Trazado_163896" data-name="Trazado 163896" d="M204.524,366.68c-.022,0-.039-.013-.039-.03h0a.037.037,0,0,1,.039-.036h0l1.156,0a.035.035,0,0,1,.039.033h0c0,.017-.017.031-.04.031h0l-1.154.006Z" transform="translate(-204.472 -361.109)" fill="#fff" opacity="0.92"/>
                <path id="Trazado_163897" data-name="Trazado 163897" d="M204.527,367.283a.037.037,0,0,1-.042-.032h0a.039.039,0,0,1,.042-.032h0l1.153-.008a.036.036,0,0,1,.04.033h0a.035.035,0,0,1-.038.032h0l-1.156.007Z" transform="translate(-204.472 -361.017)" fill="#fff" opacity="0.92"/>
              </g>
              <g id="Grupo_127718" data-name="Grupo 127718" transform="translate(5.447 15.126)">
                <g id="Grupo_127717" data-name="Grupo 127717">
                  <path id="Trazado_163898" data-name="Trazado 163898" d="M207.319,362.122v-.33l-.076.084-.062-.036.156-.175h.063l0,.456Z" transform="translate(-207.179 -361.665)" fill="#fff"/>
                </g>
              </g>
              <g id="Grupo_127720" data-name="Grupo 127720" transform="translate(5.366 18.541)">
                <g id="Grupo_127719" data-name="Grupo 127719">
                  <path id="Trazado_163899" data-name="Trazado 163899" d="M207.114,364.775a.183.183,0,0,1,.2-.149c.218,0,.277.185.122.272-.082.054-.1.066-.185.121h.262v.062l-.4,0,0-.048.271-.185h0c.091-.052.068-.158-.066-.158a.107.107,0,0,0-.118.088Z" transform="translate(-207.109 -364.626)" fill="#fff"/>
                </g>
              </g>
              <g id="Grupo_127722" data-name="Grupo 127722" transform="translate(5.375 21.955)">
                <g id="Grupo_127721" data-name="Grupo 127721">
                  <path id="Trazado_163900" data-name="Trazado 163900" d="M207.251,367.783h.085a.071.071,0,0,0,.08-.068c0-.046-.055-.066-.11-.065a.1.1,0,0,0-.1.055l-.075-.015a.17.17,0,0,1,.174-.1c.092,0,.191.039.193.128a.1.1,0,0,1-.053.095.108.108,0,0,1,.073.106c0,.067-.068.132-.205.133s-.181-.055-.2-.116l.078-.013c.007.036.044.069.118.068.091,0,.135-.04.128-.08s-.028-.062-.1-.062h-.087Z" transform="translate(-207.116 -367.586)" fill="#fff"/>
                </g>
              </g>
              <path id="Trazado_163901" data-name="Trazado 163901" d="M202.456,378.21c0,.246,1.8.435,4.012.424s4.007-.225,4.007-.471-1.8-.437-4.012-.426S202.456,377.962,202.456,378.21Zm1.925-.058a10.688,10.688,0,0,1,4.169-.023,10.628,10.628,0,0,1-4.169.023Z" transform="translate(-202.456 -344.074)" fill="#fff"/>
              <path id="Trazado_163902" data-name="Trazado 163902" d="M206.468,378.586c-2.212.012-4.009-.179-4.011-.426l0,.417h0c.017.248,1.8.436,4.009.423s3.989-.22,4.007-.468h0l0-.4C210.4,378.372,208.641,378.574,206.468,378.586Zm-4.011-.3v0l0,0Zm0,0Z" transform="translate(-202.456 -344.014)" fill="#cde3e8"/>
            </g>
          </g>
          <rect id="Rectángulo_35061" data-name="Rectángulo 35061" width="1.628" height="1.135" transform="translate(2.419 33.029)" fill="#cde3e8"/>
        </g>
      </g>
      <g id="Grupo_127834" data-name="Grupo 127834" transform="translate(204.878 440.434)">
        <path id="Trazado_150797" data-name="Trazado 150797" d="M235.554,428.2c-7.239,0-17.126-6.45-20.322-8.677l3.947-5.666c5.951,4.14,14.3,8.135,17.017,7.393,2.22-1.968,5.827-28.514,9.28-32.937l3.232,4.408c-.849,14.626-3.282,32.571-10.055,34.991A9.216,9.216,0,0,1,235.554,428.2Z" transform="translate(-196.92 -335.879)" fill="#dfebf4"/>
        <path id="Trazado_150798" data-name="Trazado 150798" d="M221.223,409.057s-5.911-7.184-6.35-8.092-1.865-1.089-1.531.045a10.521,10.521,0,0,0,1.594,2.7l-6.607-4.578s-.875-.741-1.347-.3.9,1.4.9,1.4l4.2,3.2-5.138-2.693s-1.093-.508-1.4.009,1.038,1.2,1.038,1.2l4.917,3.009-5.252-2.3s-1.314-.575-1.588.048,1.606,1.381,1.606,1.381l4.908,2.488-3.03-.573s-.537-.076-.432.385.789.637.789.637,8.667,4.294,10.2,4.551,1.642.128,1.642.128l.856-2.45Z" transform="translate(-204.625 -328.337)" fill="#bc8364"/>
        <rect id="Rectángulo_34018" data-name="Rectángulo 34018" width="6.796" height="10.485" transform="matrix(-1, -0.017, 0.017, -1, 65.209, 52.564)" fill="#bc8364"/>
        <g id="Grupo_91805" data-name="Grupo 91805" transform="translate(57.071 198.511)">
          <path id="Trazado_150799" data-name="Trazado 150799" d="M253.66,472.925a8.249,8.249,0,0,0,0,4.406c.711,1.98,2.833,1.535,3.822,4.365v.314a2.693,2.693,0,0,1-2.517,2.7,6.528,6.528,0,0,0-3.888,1.043c-2.83,1.98-.506,8.518-4.344,8.392-2.279-.076-9.052,0-9.052,0s3.677-2.313,5.233-3.021,7.032-18.195,7.032-18.195Z" transform="translate(-237.682 -472.925)" fill="#bc8364"/>
          <path id="Trazado_150800" data-name="Trazado 150800" d="M254.508,475.875a6.437,6.437,0,0,1,2.975,3.677v.314a2.693,2.693,0,0,1-2.517,2.7c-1.36.083-2.049.868-3.425,1.832-2.828,1.98-.968,7.729-4.806,7.6-2.279-.076-9.052,0-9.052,0s3.534-3.209,5.233-3.021C249.9,489.747,252.11,479.463,254.508,475.875Z" transform="translate(-237.682 -470.782)" fill="#d93328"/>
          <path id="Trazado_150801" data-name="Trazado 150801" d="M247.064,479.9a51.215,51.215,0,0,1,.021,9.8h.886s.594-7.943,1.519-9.694S247.064,479.9,247.064,479.9Z" transform="translate(-230.867 -468.364)" fill="#d93328"/>
        </g>
        <g id="Grupo_91806" data-name="Grupo 91806" transform="translate(38.242 195.802)">
          <path id="Trazado_150802" data-name="Trazado 150802" d="M243.6,471.356s-1.559,5.134-.848,7.115,2.831,1.535,3.821,4.365v.314a2.693,2.693,0,0,1-2.517,2.7,6.531,6.531,0,0,0-3.888,1.043c-2.828,1.98-.506,8.518-4.344,8.392-2.279-.076-9.052,0-9.052,0s3.677-2.313,5.233-3.021,7.375-18.046,7.375-18.046Z" transform="translate(-226.776 -471.356)" fill="#bc8364"/>
          <path id="Trazado_150803" data-name="Trazado 150803" d="M243.6,475.875a6.438,6.438,0,0,1,2.975,3.677v.314a2.693,2.693,0,0,1-2.517,2.7c-1.359.083-2.049.868-3.425,1.832-2.828,1.98-.969,7.729-4.806,7.6-2.279-.076-9.052,0-9.052,0s3.536-3.209,5.235-3.021C238.991,489.747,241.2,479.463,243.6,475.875Z" transform="translate(-226.776 -468.073)" fill="#d93328"/>
          <path id="Trazado_150804" data-name="Trazado 150804" d="M236.158,479.9a51.215,51.215,0,0,1,.021,9.8h.886s.594-7.943,1.519-9.694S236.158,479.9,236.158,479.9Z" transform="translate(-219.961 -465.655)" fill="#d93328"/>
        </g>
        <path id="Trazado_150805" data-name="Trazado 150805" d="M237.84,411.932c5.651,1.556,11.474,1.664,17.321,1.934,4.03,3.846,10.939,8.413,12.035,13.383,1.516,6.873-2.172,13.779-2.172,13.779l-3.893,32.362s10.438,2.179-.934,46.938l-5.478,6.1s2.36-39.7-.515-50.911c-7.213-28.131-3.945-38.013-5.873-39.556-3.5-2.8-3.916.432-3.916.432l-3.161,36.285s10.34,9.929.337,49.2l-4.446,3.722s-.04-39.458-2.868-50.683c-1.307-5.195-8.308-35.292-5.245-46.084C230.556,423.466,236.079,414.66,237.84,411.932Z" transform="translate(-187.452 -318.722)" fill="#bc8364"/>
        <path id="Trazado_150806" data-name="Trazado 150806" d="M229.128,438.383l2.533,16.235h30.081l1.344-23.934Z" transform="translate(-186.825 -305.099)" fill="#1d272b"/>
        <path id="Trazado_150807" data-name="Trazado 150807" d="M252.621,426.3c.131.86,10.6,12.717,11.42,13.7-16.993,4.554-31.982,2.363-33.493.723,1.654-4.549,7.867-13.318,7.867-13.318l-4.893-15.717c-5.9-1.989-3.993-7.859-3.993-7.859,4.96-3.424,5.934-15.21,5.934-15.21l14.711-.423s11.586,1.279,13.116,2.386-.984,12.4-.984,12.4S251.927,421.7,252.621,426.3Z" transform="translate(-186.747 -335.969)" fill="#e6b89c"/>
        <path id="Trazado_150808" data-name="Trazado 150808" d="M263.886,478.379c-.155.029-9.1,1.773-16.092,1.257-.136-.413-3.032-8.958-3.032-8.958l-1.412,8.786c-3.755-.2-9.331.04-12.853-1.24-2.063-10.956-3.277-25.629-1.393-32.264a35.945,35.945,0,0,1,2.384-5.792,64.382,64.382,0,0,1,5.348-9.418c.43-.687,1.1-1.685,1.119-1.68a5.179,5.179,0,0,0,.863-1.809l-4.7-15.3c-5.9-1.989-3.81-8.258-3.81-8.258,4.96-3.424,5.934-15.212,5.934-15.212l14.711-.421s11.586,1.279,13.116,2.384-.748,12.824-.748,12.824-10.616,18.3-9.922,22.9c.114.744,7.983,9.741,10.621,12.77a12.481,12.481,0,0,1,3.249,5.428c1.516,6.873-1.055,14.982-1.055,14.982Z" transform="translate(-187.523 -336.055)" fill="#fff"/>
        <path id="Trazado_150809" data-name="Trazado 150809" d="M237.229,399.772a10.981,10.981,0,0,0,11.849.585S242.344,408.423,237.229,399.772Z" transform="translate(-180.94 -327.555)" fill="#020202" opacity="0.23"/>
        <path id="Trazado_150810" data-name="Trazado 150810" d="M249.236,388.422l3.928.516-7.719,9.854,2.55,1.034-10.338,9.993-2.412-11.854,1.861-.413-1.861-9.373S247.306,388.112,249.236,388.422Z" transform="translate(-182.382 -335.98)" fill="#dfebf4"/>
        <path id="Trazado_150811" data-name="Trazado 150811" d="M248.221,388.552l-11.579,21.4,1.241-21.812S244.188,387.622,248.221,388.552Z" transform="translate(-181.367 -336.11)" fill="#d93328"/>
        <path id="Trazado_150812" data-name="Trazado 150812" d="M242.393,387.958c-.516-.014-5.9,1.372-5.9,1.372s1.958,1.839,5.44-.4c0,0,1.792,2.973,7.781.887C249.715,389.818,242.911,387.97,242.393,387.958Z" transform="translate(-181.474 -336.137)" fill="#4b4b4c" opacity="0.49"/>
        <path id="Trazado_150813" data-name="Trazado 150813" d="M246.843,386.48a37.1,37.1,0,0,1-4.414,1.754c-.516-.014-2.3-1.652-2.3-1.652l-3.7,3.767s2.039,1.184,5.521-1.055c0,0,1.2,2.386,7.715,1.593A14.3,14.3,0,0,1,246.843,386.48Z" transform="translate(-181.521 -337.211)" fill="#d93328"/>
        <path id="Trazado_150814" data-name="Trazado 150814" d="M235.8,402.563a.894.894,0,1,1,.91.877A.895.895,0,0,1,235.8,402.563Z" transform="translate(-181.982 -326.189)" fill="#666"/>
        <path id="Trazado_150815" data-name="Trazado 150815" d="M235.855,405.877a.894.894,0,1,1,.91.877A.893.893,0,0,1,235.855,405.877Z" transform="translate(-181.938 -323.781)" fill="#666"/>
        <path id="Trazado_150816" data-name="Trazado 150816" d="M235.915,409.19a.894.894,0,1,1,.91.879A.893.893,0,0,1,235.915,409.19Z" transform="translate(-181.895 -321.375)" fill="#666"/>
        <path id="Trazado_150817" data-name="Trazado 150817" d="M235.889,412.29a.894.894,0,1,1,.918.87A.895.895,0,0,1,235.889,412.29Z" transform="translate(-181.914 -319.129)" fill="#666"/>
        <path id="Trazado_150818" data-name="Trazado 150818" d="M235.977,415.6a.895.895,0,1,1,.919.87A.893.893,0,0,1,235.977,415.6Z" transform="translate(-181.85 -316.722)" fill="#666"/>
        <path id="Trazado_150819" data-name="Trazado 150819" d="M236.065,418.915a.895.895,0,1,1,.918.87A.893.893,0,0,1,236.065,418.915Z" transform="translate(-181.786 -314.315)" fill="#666"/>
        <path id="Trazado_150820" data-name="Trazado 150820" d="M236.341,422.65a.894.894,0,1,1,.917.87A.893.893,0,0,1,236.341,422.65Z" transform="translate(-181.585 -311.602)" fill="#666"/>
        <path id="Trazado_150821" data-name="Trazado 150821" d="M236.548,426.2a.895.895,0,1,1,.918.87A.9.9,0,0,1,236.548,426.2Z" transform="translate(-181.435 -309.022)" fill="#666"/>
        <path id="Trazado_150822" data-name="Trazado 150822" d="M236.637,429.4a.894.894,0,1,1,.917.87A.893.893,0,0,1,236.637,429.4Z" transform="translate(-181.37 -306.701)" fill="#666"/>
        <path id="Trazado_150823" data-name="Trazado 150823" d="M236.939,432.232a.895.895,0,1,1,.918.868A.9.9,0,0,1,236.939,432.232Z" transform="translate(-181.151 -304.643)" fill="#666"/>
        <path id="Trazado_150824" data-name="Trazado 150824" d="M237.147,435.663a.895.895,0,1,1,.918.87A.893.893,0,0,1,237.147,435.663Z" transform="translate(-181 -302.149)" fill="#666"/>
        <path id="Rectángulo_34019" data-name="Rectángulo 34019" d="M3.129,0H8.172A3.13,3.13,0,0,1,11.3,3.13V14.748a0,0,0,0,1,0,0H0a0,0,0,0,1,0,0V3.129A3.129,3.129,0,0,1,3.129,0Z" transform="translate(71.734 121.901) rotate(-179.191)" fill="#dfebf4"/>
        <path id="Rectángulo_34020" data-name="Rectángulo 34020" d="M1.87,0H6.489A1.871,1.871,0,0,1,8.36,1.871v10.52a0,0,0,0,1,0,0H0a0,0,0,0,1,0,0V1.87A1.87,1.87,0,0,1,1.87,0Z" transform="matrix(-1, -0.014, 0.014, -1, 50.863, 120.009)" fill="#dfebf4"/>
        <path id="Trazado_150825" data-name="Trazado 150825" d="M257.275,393.27a1.73,1.73,0,0,0,1.177-2.108c1.038.1,1.806-.908,2.352-1.8q.308-.505.618-1.01a2.8,2.8,0,0,0,.594-1.892,2.787,2.787,0,0,1-.171-.882c.088-.628.988-.975.922-1.607-.026-.261-.223-.477-.268-.735-.133-.779,1.095-1.241,1.057-2.03-.021-.409-.387-.729-.449-1.134-.126-.832,1.048-1.562.7-2.329-.107-.237-.342-.394-.466-.623-.342-.623.268-1.369.193-2.077-.093-.912-1.272-1.469-1.25-2.386.009-.361.214-.734.076-1.069a1.144,1.144,0,0,0-.406-.437l-1.619-1.214a2.485,2.485,0,0,0,2.12-.78,4.705,4.705,0,0,1,.6-.654,12.985,12.985,0,0,1,1.236-.54c.853-.506.958-1.675.965-2.666a3.214,3.214,0,0,0-.442-2.039,1.372,1.372,0,0,1-.551-1.492,1.613,1.613,0,0,0-2.1-1.417,1.956,1.956,0,0,0-1.131-1.9,5.751,5.751,0,0,0-2.3-.487,2.347,2.347,0,0,0-1.086.095.8.8,0,0,0-.518.867,1.721,1.721,0,0,1-1.1-.019,1.539,1.539,0,0,0-1.1.026c-.326.185-.432.742-.1.913a.891.891,0,0,0-1.286,1.207,2.337,2.337,0,0,0-1.59.109c-.464.28-.611,1.081-.129,1.333-.525.057-.587.81-.416,1.31s.4,1.129.01,1.492a5.209,5.209,0,0,0-2.111-.514,1.777,1.777,0,0,0-1.685,1.162,2.5,2.5,0,0,0-3-.109c-1.025-.843-2.548-.3-3.745.268l-1.312.627a3.14,3.14,0,0,0-1.238.86,6.53,6.53,0,0,0-2.208.112,2.221,2.221,0,0,0-1.581,1.424,1.514,1.514,0,0,1-.207.582.9.9,0,0,1-.5.266c-.523.133-1.074.135-1.588.3a1.42,1.42,0,0,0-1.067,1.089c-.035.357.128.749-.055,1.057-.124.205-.371.306-.52.5-.49.621.373,1.554.088,2.293-.159.411-.658.706-.6,1.141.036.266.275.454.387.7.3.654-.375,1.348-.411,2.068-.033.647.451,1.188.756,1.761a3.442,3.442,0,0,1,.33,2.282,1.386,1.386,0,0,0-.043.734c.135.378.6.5.9.761.632.532.518,1.512.723,2.312a5.5,5.5,0,0,0,2.136,2.655,41.9,41.9,0,0,0,9.005,6.081c3.318,1.48,7.2,2.056,10.593.763l-.4-.561a2.123,2.123,0,0,0,2.037-1.666,1.427,1.427,0,0,1,.166-.571C256.487,393.36,256.919,393.36,257.275,393.27Z" transform="translate(-186.139 -357.942)" fill="#35302c"/>
        <path id="Trazado_150826" data-name="Trazado 150826" d="M257.414,387.725c.451.136-5.625,10.1-13.048,10.913-6.88.756-11.653-13.7-11.659-13.723-.105-.5-1.364-9.518-1.8-13.939-.452-4.551,21.038-12,26.528.169.862,1.909.252,12.606.252,12.606s2.824-2.1,3.144,1.859C260.948,387.084,257.414,387.725,257.414,387.725Z" transform="translate(-185.539 -353.166)" fill="#bc8364"/>
        <path id="Trazado_150827" data-name="Trazado 150827" d="M241.671,373.553a.906.906,0,0,0,.984-.58.87.87,0,0,1-.262.734.606.606,0,0,0,.717-.178.679.679,0,0,1-.373.58,1.965,1.965,0,0,1-.694.2.271.271,0,0,1-.178-.01.289.289,0,0,1-.116-.2l-.116-.447" transform="translate(-177.741 -347.023)" fill="#1a1a1a"/>
        <path id="Trazado_150828" data-name="Trazado 150828" d="M240.008,375.084a1.829,1.829,0,1,1,2.046,1.583A1.828,1.828,0,0,1,240.008,375.084Z" transform="translate(-178.932 -346.985)" fill="#333"/>
        <path id="Trazado_150829" data-name="Trazado 150829" d="M234.048,374.56a.889.889,0,0,1-.924-.7.971.971,0,0,0,.188.808.573.573,0,0,1-.7-.249.729.729,0,0,0,.312.653,1.885,1.885,0,0,0,.673.266.274.274,0,0,0,.178,0,.328.328,0,0,0,.135-.2l.162-.471" transform="translate(-184.295 -346.381)" fill="#1a1a1a"/>
        <path id="Trazado_150830" data-name="Trazado 150830" d="M233.24,375.688a1.637,1.637,0,1,1,1.79,1.468A1.635,1.635,0,0,1,233.24,375.688Z" transform="translate(-183.844 -346.356)" fill="#333"/>
        <path id="Trazado_150831" data-name="Trazado 150831" d="M240.56,373.973a.539.539,0,1,1,.6.468A.541.541,0,0,1,240.56,373.973Z" transform="translate(-178.524 -346.737)" fill="#fff" opacity="0.43"/>
        <path id="Trazado_150832" data-name="Trazado 150832" d="M233.487,374.938a.445.445,0,1,1,.487.4A.446.446,0,0,1,233.487,374.938Z" transform="translate(-183.66 -345.951)" fill="#fff" opacity="0.43"/>
        <path id="Trazado_150833" data-name="Trazado 150833" d="M237.8,373.172s-2.79-.5-4.237.212a10.687,10.687,0,0,0-1.827,1.324l1.335-2.03a8.154,8.154,0,0,1,4.105-.827A.937.937,0,0,1,237.8,373.172Z" transform="translate(-184.931 -347.838)" fill="#35302c"/>
        <path id="Trazado_150834" data-name="Trazado 150834" d="M239.194,372.537s2.638-1.043,4.2-.627a10.808,10.808,0,0,1,2.051.941l-1.706-1.728a8.152,8.152,0,0,0-4.188-.005A.939.939,0,0,0,239.194,372.537Z" transform="translate(-179.655 -348.543)" fill="#35302c"/>
        <path id="Trazado_150835" data-name="Trazado 150835" d="M237.279,375.474l.4,3.758c.031.3-.382-.05-.685-.031-.4.026-.575.735-.54,1.089.059.578.527.82,2.831.371a.573.573,0,0,0,.449-.556C239.685,378.666,239.409,374.429,237.279,375.474Z" transform="translate(-181.504 -345.325)" fill="#1a1a1a" opacity="0.49"/>
        <path id="Trazado_150836" data-name="Trazado 150836" d="M237.5,375.374l.3,3.493s-1.45-.078-1.215,1.284c.1.571.635.789,2.976.326a.782.782,0,0,0,.616-.551c.081-.326.546-.375-.366-1.523C238.741,377.054,239.564,374.658,237.5,375.374Z" transform="translate(-181.425 -345.374)" fill="#ba6565"/>
        <path id="Trazado_150837" data-name="Trazado 150837" d="M236.855,378.42a1.042,1.042,0,0,0,1.259-.169.337.337,0,0,0,.109-.181c.038-.207-.174-.349-.342-.392a1.047,1.047,0,0,0-.8.029.729.729,0,0,0-.3.827" transform="translate(-181.29 -343.651)" fill="#fff" opacity="0.43"/>
        <path id="Trazado_150838" data-name="Trazado 150838" d="M239.946,377.208a1.266,1.266,0,0,0,.454,1.26,2.785,2.785,0,0,0,1.29.544,10.171,10.171,0,0,0,5.526-.665,3.536,3.536,0,0,0,1.288-.734,1.394,1.394,0,0,0,.411-1.359,1.421,1.421,0,0,0-1.107-.877,4.187,4.187,0,0,0-1.473.055l-4.6.725C241.013,376.273,240.148,376.5,239.946,377.208Z" transform="translate(-178.994 -345.309)" fill="#ba6565" opacity="0.52"/>
        <path id="Trazado_150839" data-name="Trazado 150839" d="M237.313,377.061a2.291,2.291,0,0,0-.875-.1,22.665,22.665,0,0,1-2.491-.126,1.372,1.372,0,0,0-1.11.193.674.674,0,0,0-.1.822,1.149,1.149,0,0,0,.43.361,4.3,4.3,0,0,0,2.115.575,3.434,3.434,0,0,0,2.068-.684.72.72,0,0,0,.354-.625A.588.588,0,0,0,237.313,377.061Z" transform="translate(-184.274 -344.239)" fill="#ba6565" opacity="0.52"/>
        <g id="Grupo_91807" data-name="Grupo 91807" transform="translate(54.637 36.622)">
          <path id="Trazado_150840" data-name="Trazado 150840" d="M244.68,379.919s-3-1.155-4.162-.625c-1.082.492-1.133,1.055-1.133,1.055a1.629,1.629,0,0,0-1.276-.52,5.957,5.957,0,0,0-1.837,1.322s1.153,4.206,4.212,3.7C244.343,384.221,244.68,379.919,244.68,379.919Z" transform="translate(-236.272 -379.154)" fill="#934c4c"/>
          <path id="Trazado_150841" data-name="Trazado 150841" d="M238.153,382.224a1.587,1.587,0,0,0,1.537-.342c.053-.05.109-.123.081-.192-.036-.093-.169-.081-.264-.05a2.452,2.452,0,0,1-1.626.155.372.372,0,0,0,.262.461" transform="translate(-235.115 -377.365)" fill="#fff" opacity="0.43"/>
          <path id="Trazado_150842" data-name="Trazado 150842" d="M244.709,379.54s-4.618,1.778-8.437,1.331C236.272,380.871,239.366,385.513,244.709,379.54Z" transform="translate(-236.272 -378.874)" fill="#fff"/>
        </g>
        <path id="Trazado_150843" data-name="Trazado 150843" d="M255.479,377.844c-.045-.349.174-.708.069-1.045a1.565,1.565,0,0,0-.371-.511,2.13,2.13,0,0,1-.478-1.761c.014.615.029,1.231.043,1.847a.927.927,0,0,0,.112.513c.092.131.245.209.335.34.262.383-.147.862-.219,1.319a2.306,2.306,0,0,0,.444,1.348,1.175,1.175,0,0,1,.007,1.348c.269-.209.171-.649-.038-.919a2.971,2.971,0,0,1-.606-.815c-.159-.509.221-1.084.026-1.581-.2-.52-.943-.723-1.032-1.272-.062-.387.243-.782.116-1.153-.105-.311-.458-.447-.725-.637a1.6,1.6,0,0,1-.551-1.818,1.41,1.41,0,0,1-1.383-1.2,1.45,1.45,0,0,0-.091-.52,1.64,1.64,0,0,0-.359-.366,2.253,2.253,0,0,1-.413-1.8q-.552.041-1.1.085a3.959,3.959,0,0,0,.71,2.11c-.055-.338-.518-.373-.824-.532-.6-.309-.59-1.15-.5-1.816a1.208,1.208,0,0,1-1.226-.442c-.019.518-.689.718-1.207.687s-1.127-.117-1.467.273a1.414,1.414,0,0,1-.275.314c-.314.2-.706-.157-1.077-.121-.307.029-.52.318-.658.594a4.182,4.182,0,0,0-.416,1.428.7.7,0,0,1-.1.357c-.185.25-.732.373-.552.628.3-.114.3-.551.178-.849s-.319-.616-.216-.924a1.739,1.739,0,0,1,.359-.478,1.344,1.344,0,0,0,.207-1.312c-.3.715-1.632.2-2.049.853-.1.155-.124.356-.25.49-.354.378-1.195-.016-1.409.456-.048.105-.043.23-.1.331-.117.209-.425.2-.649.117a1.544,1.544,0,0,0-.682-.2c-.4.043-.587.5-.8.839s-.786.58-.97.223a1.025,1.025,0,0,1-.806,1.012c-.4.074-.927-.038-1.1.325-.166.34.2.782,0,1.1-.143.24-.513.264-.653.5-.107.185-.036.416-.038.628a2.4,2.4,0,0,1-.4,1.01,6.757,6.757,0,0,0-.468,3.313l-.936-6.978a4.357,4.357,0,0,1,1.459-4.784,16.819,16.819,0,0,1,2.942-2.519,13.31,13.31,0,0,1,3.227-1.357c5.806-1.739,12.346-1.611,17.658,1.305a9.026,9.026,0,0,1,2.265,1.657,10.153,10.153,0,0,1,1.861,3.215,9.18,9.18,0,0,1,.779,2.976c.081,1.787-.734,3.472-1.421,5.122a40.58,40.58,0,0,0-2.016,6.2c.278-.5-.568-.931-.649-1.5-.047-.34.2-.647.271-.981.2-.856-.694-1.623-.682-2.5a3.261,3.261,0,0,0,.021-.608C256.486,378.775,255.566,378.5,255.479,377.844Z" transform="translate(-185.648 -353.979)" fill="#35302c"/>
        <path id="Trazado_150844" data-name="Trazado 150844" d="M232.645,380.2a41.057,41.057,0,0,0,8.741.126c3.96-.492,15.265-4.782,15.265-4.782l-.394.649-5.259,2.1s.884,4.673,1.207,4.822l3.94-3.4s.157.344-.338,1.24-8.539,12.484-16.13,9.1C239.677,390.059,234.238,385.69,232.645,380.2Z" transform="translate(-184.27 -345.158)" fill="#eeebf5"/>
        <g id="Grupo_91813" data-name="Grupo 91813" transform="translate(1.782 57.784)">
          <path id="Trazado_150845" data-name="Trazado 150845" d="M228.713,391.419l-22.9,6.017a.206.206,0,0,0-.145.25l8,30.451a.206.206,0,0,0,.25.145l22.9-6.018a.2.2,0,0,0,.145-.249l-8-30.451A.2.2,0,0,0,228.713,391.419Z" transform="translate(-205.657 -391.412)" fill="#333"/>
          <rect id="Rectángulo_34021" data-name="Rectángulo 34021" width="20.486" height="29.339" transform="translate(1.98 6.694) rotate(-14.721)" fill="#fff"/>
          <g id="Grupo_91808" data-name="Grupo 91808" transform="translate(4.489 4.883)">
            <path id="Trazado_150846" data-name="Trazado 150846" d="M224.784,394.243l-16.465,4.325a.086.086,0,0,0-.059.1l.009.036a.087.087,0,0,0,.1.06l16.465-4.326a.084.084,0,0,0,.059-.1l-.009-.038A.086.086,0,0,0,224.784,394.243Z" transform="translate(-208.257 -394.24)" fill="#333" opacity="0.37"/>
            <path id="Trazado_150847" data-name="Trazado 150847" d="M224.9,394.668l-16.465,4.326a.085.085,0,0,0-.06.1l.01.036a.084.084,0,0,0,.1.06l16.465-4.326a.083.083,0,0,0,.06-.1l-.01-.036A.083.083,0,0,0,224.9,394.668Z" transform="translate(-208.176 -393.932)" fill="#333" opacity="0.37"/>
            <path id="Trazado_150848" data-name="Trazado 150848" d="M225.015,395.122l-16.465,4.326a.084.084,0,0,0-.059.1l.009.038a.086.086,0,0,0,.1.059l16.465-4.325a.084.084,0,0,0,.059-.1l-.009-.036A.085.085,0,0,0,225.015,395.122Z" transform="translate(-208.09 -393.602)" fill="#333" opacity="0.37"/>
            <path id="Trazado_150849" data-name="Trazado 150849" d="M225.127,395.548l-16.465,4.325a.084.084,0,0,0-.059.1l.009.036a.084.084,0,0,0,.1.059l16.463-4.325a.085.085,0,0,0,.06-.1l-.009-.036A.084.084,0,0,0,225.127,395.548Z" transform="translate(-208.008 -393.292)" fill="#333" opacity="0.37"/>
          </g>
          <g id="Grupo_91809" data-name="Grupo 91809" transform="translate(8.58 20.455)">
            <path id="Trazado_150850" data-name="Trazado 150850" d="M227.154,403.263l-16.465,4.325a.084.084,0,0,0-.059.1l.009.036a.087.087,0,0,0,.1.06l16.463-4.326a.084.084,0,0,0,.06-.1l-.009-.038A.084.084,0,0,0,227.154,403.263Z" transform="translate(-210.627 -403.26)" fill="#333" opacity="0.37"/>
            <path id="Trazado_150851" data-name="Trazado 150851" d="M227.267,403.688,210.8,408.015a.083.083,0,0,0-.06.1l.01.036a.084.084,0,0,0,.1.061l16.465-4.326a.083.083,0,0,0,.06-.1l-.01-.036A.083.083,0,0,0,227.267,403.688Z" transform="translate(-210.547 -402.951)" fill="#333" opacity="0.37"/>
            <path id="Trazado_150852" data-name="Trazado 150852" d="M227.385,404.142l-16.465,4.326a.082.082,0,0,0-.059.1l.009.036a.085.085,0,0,0,.1.06l16.463-4.325a.085.085,0,0,0,.06-.1l-.009-.036A.085.085,0,0,0,227.385,404.142Z" transform="translate(-210.459 -402.622)" fill="#333" opacity="0.37"/>
            <path id="Trazado_150853" data-name="Trazado 150853" d="M227.5,404.567l-16.465,4.326a.087.087,0,0,0-.06.1l.01.036a.082.082,0,0,0,.1.059l16.465-4.325a.085.085,0,0,0,.06-.1l-.01-.036A.084.084,0,0,0,227.5,404.567Z" transform="translate(-210.379 -402.313)" fill="#333" opacity="0.37"/>
          </g>
          <g id="Grupo_91810" data-name="Grupo 91810" transform="translate(5.397 8.343)">
            <path id="Trazado_150854" data-name="Trazado 150854" d="M225.312,396.247l-16.465,4.325a.085.085,0,0,0-.06.1l.01.036a.084.084,0,0,0,.1.06l16.465-4.326a.083.083,0,0,0,.06-.1l-.01-.038A.084.084,0,0,0,225.312,396.247Z" transform="translate(-208.783 -396.244)" fill="#333" opacity="0.37"/>
            <path id="Trazado_150855" data-name="Trazado 150855" d="M225.424,396.672,208.959,401a.083.083,0,0,0-.06.1l.01.036a.083.083,0,0,0,.1.06l16.465-4.325a.087.087,0,0,0,.06-.1l-.01-.036A.084.084,0,0,0,225.424,396.672Z" transform="translate(-208.702 -395.936)" fill="#333" opacity="0.37"/>
            <path id="Trazado_150856" data-name="Trazado 150856" d="M225.542,397.126l-16.465,4.326a.085.085,0,0,0-.06.1l.01.038a.082.082,0,0,0,.1.059l16.465-4.325a.085.085,0,0,0,.06-.1l-.01-.036A.083.083,0,0,0,225.542,397.126Z" transform="translate(-208.615 -395.606)" fill="#333" opacity="0.37"/>
            <path id="Trazado_150857" data-name="Trazado 150857" d="M225.655,397.552l-16.465,4.325a.085.085,0,0,0-.06.1l.01.036a.084.084,0,0,0,.1.06l16.465-4.326a.087.087,0,0,0,.06-.1l-.01-.036A.082.082,0,0,0,225.655,397.552Z" transform="translate(-208.534 -395.296)" fill="#333" opacity="0.37"/>
          </g>
          <g id="Grupo_91811" data-name="Grupo 91811" transform="translate(6.172 11.292)">
            <path id="Trazado_150858" data-name="Trazado 150858" d="M225.761,397.955,209.3,402.281a.084.084,0,0,0-.06.1l.01.038a.083.083,0,0,0,.1.059l16.465-4.325a.087.087,0,0,0,.06-.1l-.01-.036A.085.085,0,0,0,225.761,397.955Z" transform="translate(-209.232 -397.953)" fill="#333" opacity="0.37"/>
            <path id="Trazado_150859" data-name="Trazado 150859" d="M225.871,398.381l-16.463,4.325a.085.085,0,0,0-.06.1l.009.036a.087.087,0,0,0,.1.06l16.465-4.326a.084.084,0,0,0,.059-.1l-.009-.036A.084.084,0,0,0,225.871,398.381Z" transform="translate(-209.151 -397.644)" fill="#333" opacity="0.37"/>
            <path id="Trazado_150860" data-name="Trazado 150860" d="M225.992,398.835l-16.465,4.325a.085.085,0,0,0-.06.1l.01.036a.083.083,0,0,0,.1.06l16.465-4.326a.084.084,0,0,0,.06-.1l-.01-.038A.084.084,0,0,0,225.992,398.835Z" transform="translate(-209.065 -397.314)" fill="#333" opacity="0.37"/>
            <path id="Trazado_150861" data-name="Trazado 150861" d="M226.1,399.26l-16.465,4.326a.083.083,0,0,0-.06.1l.01.036a.083.083,0,0,0,.1.06l16.465-4.326a.084.084,0,0,0,.06-.1l-.01-.036A.084.084,0,0,0,226.1,399.26Z" transform="translate(-208.983 -397.005)" fill="#333" opacity="0.37"/>
          </g>
          <g id="Grupo_91812" data-name="Grupo 91812" transform="translate(6.951 14.254)">
            <path id="Trazado_150862" data-name="Trazado 150862" d="M226.21,399.671,209.747,404a.083.083,0,0,0-.06.1l.009.036a.085.085,0,0,0,.1.06l16.465-4.326a.082.082,0,0,0,.059-.1l-.009-.036A.085.085,0,0,0,226.21,399.671Z" transform="translate(-209.683 -399.668)" fill="#333" opacity="0.37"/>
            <path id="Trazado_150863" data-name="Trazado 150863" d="M226.322,400.1l-16.465,4.326a.083.083,0,0,0-.059.1l.009.038a.084.084,0,0,0,.1.059l16.465-4.325a.086.086,0,0,0,.059-.1l-.009-.036A.085.085,0,0,0,226.322,400.1Z" transform="translate(-209.602 -399.36)" fill="#333" opacity="0.37"/>
            <path id="Trazado_150864" data-name="Trazado 150864" d="M226.443,400.551l-16.465,4.325a.085.085,0,0,0-.06.1l.01.036a.084.084,0,0,0,.1.06l16.465-4.326a.087.087,0,0,0,.06-.1l-.01-.036A.083.083,0,0,0,226.443,400.551Z" transform="translate(-209.516 -399.029)" fill="#333" opacity="0.37"/>
            <path id="Trazado_150865" data-name="Trazado 150865" d="M226.553,400.976,210.088,405.3a.086.086,0,0,0-.059.1l.009.036a.085.085,0,0,0,.1.06l16.465-4.327a.084.084,0,0,0,.059-.1l-.009-.036A.085.085,0,0,0,226.553,400.976Z" transform="translate(-209.434 -398.72)" fill="#333" opacity="0.37"/>
          </g>
          <rect id="Rectángulo_34022" data-name="Rectángulo 34022" width="5.019" height="2.419" transform="matrix(0.967, -0.254, 0.254, 0.967, 8.74, 1.991)" fill="#b3b3b3"/>
          <rect id="Rectángulo_34023" data-name="Rectángulo 34023" width="8.261" height="1.719" transform="matrix(0.967, -0.254, 0.254, 0.967, 7.609, 4.065)" fill="#b3b3b3"/>
        </g>
        <path id="Trazado_150866" data-name="Trazado 150866" d="M250.2,423.69s-4.34,8.439-5.072,9.223-.083,2.162.96,1.378a9.657,9.657,0,0,0,2.01-2.6l-1.079,7.966s-.29,1.112.475,1.353,1-1.412,1-1.412l1-5.183.111,5.827s.095,1.212.842,1.272.692-1.455.692-1.455l.368-5.759.609,5.765s.152,1.44,1,1.426.556-2.051.556-2.051l-.2-5.528,1.174,3s.238.521.678.23.228-.989.228-.989-.459-9.722-1.091-11.23-.836-1.55-.836-1.55l-3.189.261Z" transform="translate(-175.43 -310.41)" fill="#bc8364"/>
        <path id="Trazado_150867" data-name="Trazado 150867" d="M253.94,452.52l-6.792-1.241c.031-.176,3.189-17.541,3.4-26.651.2-8.986-2.809-21.347-3.67-25.242l3.6-9.927c1.367.361,7.2,25.546,6.978,35.328C257.23,434.444,254.074,451.786,253.94,452.52Z" transform="translate(-173.933 -335.048)" fill="#dfebf4"/>
      </g>
    </g>
    <g id="Grupo_128279" data-name="Grupo 128279" transform="translate(302.517 387.392)">
      <text id="PROPÓSITO_DE_LA" data-name="PROPÓSITO DE LA" transform="translate(5.626 18.514)" fill="#008f85" font-size="16" font-family="Roboto-Bold, Roboto" font-weight="700"><tspan x="0" y="0">PROPÓSITO DE LA</tspan></text>
      <text id="TANATOPRAXIA" transform="translate(5.626 36.792)" fill="#1d272b" font-size="17" font-family="Roboto-Bold, Roboto" font-weight="700"><tspan x="0" y="0">TANATOPRAXIA</tspan></text>
      <rect id="Rectángulo_34968" data-name="Rectángulo 34968" width="2.813" height="46.892" transform="translate(0 0)" fill="#d93328"/>
    </g>
    <g id="Grupo_128277" data-name="Grupo 128277" transform="translate(175.5 479.211)">
      <g id="Grupo_128244" data-name="Grupo 128244" transform="translate(48.536 94.312)">
        <g id="Grupo_128221" data-name="Grupo 128221" transform="translate(24.75 2.243)">
          <path id="Trazado_165244" data-name="Trazado 165244" d="M996.36,1144.1s-9.311-.058-11.53-1.758c-1.74-1.334-1.3-2.594-4.151-7.63a6.517,6.517,0,0,1-.259-2.8c.22-1.453-2.479-1.7-2.248,1.874a7.592,7.592,0,0,0-1.355,5.39c.549,3.344,1.826,3.817,2.046,6.025.155,1.558,0,4.295,2.989,4.6,2.77.285,4.842-.412,9.633-.2s5.894-.255,5.894-.255Z" transform="translate(-975.669 -1130.904)" fill="#edbe8c"/>
          <path id="Trazado_165245" data-name="Trazado 165245" d="M971.5,1171.174s-.792-1.366-1.529-1.439-.739,1-.484,1.292.9,1,1.1,1.267S971.88,1171.731,971.5,1171.174Z" transform="translate(-969.33 -1164.15)" fill="#edbe8c"/>
          <path id="Trazado_165246" data-name="Trazado 165246" d="M980.523,1140.836a5.451,5.451,0,0,1-.362-1.648.658.658,0,0,0-1.267-.3,2.357,2.357,0,0,0,.627,2.61C980.038,1141.655,980.764,1141.611,980.523,1140.836Z" transform="translate(-977.377 -1137.369)" fill="#edbe8c"/>
          <path id="Trazado_165247" data-name="Trazado 165247" d="M975.613,1147.75a5.448,5.448,0,0,1-.711-1.531.658.658,0,0,0-1.3-.023c-.26.924.639,2.367,1.179,2.412S976.016,1148.454,975.613,1147.75Z" transform="translate(-972.946 -1143.518)" fill="#edbe8c"/>
          <path id="Trazado_165248" data-name="Trazado 165248" d="M973.114,1158.135a5.452,5.452,0,0,1-.743-1.515.658.658,0,0,0-1.3.006c-.239.929.69,2.352,1.231,2.386S973.531,1158.83,973.114,1158.135Z" transform="translate(-970.784 -1152.437)" fill="#edbe8c"/>
        </g>
        <g id="Grupo_128223" data-name="Grupo 128223" transform="translate(24.065 20.937)">
          <g id="Grupo_128222" data-name="Grupo 128222">
            <path id="Trazado_165249" data-name="Trazado 165249" d="M1090.851,1325.232a2.756,2.756,0,0,1-1.187-.269l-123.517-58.745a2.767,2.767,0,0,1,2.377-5l123.517,58.745a2.768,2.768,0,0,1-1.19,5.267Z" transform="translate(-964.568 -1260.952)" fill="#1d272b"/>
          </g>
        </g>
        <g id="Grupo_128225" data-name="Grupo 128225" transform="translate(37.901 20.937)">
          <g id="Grupo_128224" data-name="Grupo 128224">
            <path id="Trazado_165250" data-name="Trazado 165250" d="M1063.589,1325.232a2.768,2.768,0,0,1-1.19-5.267l123.517-58.745a2.767,2.767,0,0,1,2.377,5l-123.517,58.745A2.757,2.757,0,0,1,1063.589,1325.232Z" transform="translate(-1060.819 -1260.952)" fill="#1d272b"/>
          </g>
        </g>
        <g id="Grupo_128226" data-name="Grupo 128226" transform="translate(104.917 46.408)" opacity="0.5" style="mix-blend-mode: multiply;isolation: isolate">
          <path id="Trazado_165251" data-name="Trazado 165251" d="M1532.082,1438.146l-5.055,2.42,1.525,5.4,6.682-3.288Z" transform="translate(-1527.027 -1438.146)" fill="#3e2b9e"/>
        </g>
        <g id="Grupo_128228" data-name="Grupo 128228" transform="translate(106.396 7.582)">
          <g id="Grupo_128227" data-name="Grupo 128227">
            <ellipse id="Elipse_4387" data-name="Elipse 4387" cx="10.286" cy="7.234" rx="10.286" ry="7.234" fill="#3e2b9e"/>
          </g>
        </g>
        <g id="Grupo_128230" data-name="Grupo 128230" transform="translate(8.302 28.259)">
          <g id="Grupo_128229" data-name="Grupo 128229">
            <path id="Trazado_165252" data-name="Trazado 165252" d="M1042.614,1317.422H857.675a2.767,2.767,0,1,1,0-5.534h184.939a2.767,2.767,0,1,1,0,5.534Z" transform="translate(-854.908 -1311.888)" fill="#1d272b"/>
          </g>
        </g>
        <g id="Grupo_128231" data-name="Grupo 128231" transform="translate(74.296 47.484)" opacity="0.5" style="mix-blend-mode: multiply;isolation: isolate">
          <path id="Trazado_165253" data-name="Trazado 165253" d="M1314.009,1447.491l6.557,3.119,8.553-2.061-5.952-2.916Z" transform="translate(-1314.009 -1445.632)" fill="#3e2b9e"/>
        </g>
        <g id="Grupo_128233" data-name="Grupo 128233" transform="translate(0 20.649)">
          <g id="Grupo_128232" data-name="Grupo 128232">
            <rect id="Rectángulo_35475" data-name="Rectángulo 35475" width="204.771" height="7.84" rx="3.92" fill="#1d272b"/>
          </g>
        </g>
        <path id="Trazado_165254" data-name="Trazado 165254" d="M1005.025,1271.662l-7.072.016s-.154-8.69-1.845-9.907-5.1-1.492-7.393-3.237c0,0,15.964-.192,16.271.061S1006.947,1269.817,1005.025,1271.662Z" transform="translate(-961.18 -1237.884)" fill="#3e2b9e" opacity="0.5" style="mix-blend-mode: multiply;isolation: isolate"/>
        <g id="Grupo_128234" data-name="Grupo 128234" transform="translate(190.097 20.735)" opacity="0.5" style="mix-blend-mode: multiply;isolation: isolate">
          <path id="Trazado_165255" data-name="Trazado 165255" d="M2121.565,1259.547h1.384a62.186,62.186,0,0,0-1.384,7.524l4.939.187s1.384.556,1.578,1.568c0,0-5.412.079-6.517,3.779l-1.768-.145S2118.721,1259.633,2121.565,1259.547Z" transform="translate(-2119.598 -1259.547)" fill="#3e2b9e"/>
        </g>
        <g id="Grupo_128236" data-name="Grupo 128236" transform="translate(40.611)">
          <g id="Grupo_128235" data-name="Grupo 128235">
            <path id="Trazado_165256" data-name="Trazado 165256" d="M1080.6,1149.731a103.237,103.237,0,0,0-.307-15.133c-.549-5-1.669-5.85,1.768-6.006,19.522-.884,29.055-5.468,36.627-6.849,6.342-1.157,22.865-5.136,33.308-4.253,10.851.919,26.359-2.191,35.548-2.191,10.453,0,12.829,6.768,17.774,5.637,1.693-.388-.123-3.106,3.889-3.106,2.748,0,3.974-1.961,5.08-1.1a13.7,13.7,0,0,0,6.02,2.654c3.194.664,6.738,6.129,5.9,10.887-.728,4.135,5.222,3.5,5.073,5.38-.217,2.753-1.384,4.219-1.162,10.675.131,3.814-18.658,2.225-29.592-.6s-18.429-1.843-25.678-.737-19.9-4.546-25.678-5.16-25.063,4.3-32.067,3.194a56.763,56.763,0,0,0-20.9.483C1089.571,1144.979,1078.526,1166.718,1080.6,1149.731Z" transform="translate(-1079.673 -1115.3)" fill="url(#linear-gradient)"/>
          </g>
        </g>
        <g id="Grupo_128238" data-name="Grupo 128238" transform="translate(40.45 14.961)">
          <g id="Grupo_128237" data-name="Grupo 128237">
            <path id="Trazado_165257" data-name="Trazado 165257" d="M1208.244,1223.418c-.449-.328-47.286-.983-58.514-3.276s-46.284,1.311-46.776,1.311-19.856-2.03-21.317-.975c-3.381,2.44-1.461,4.877-1.884,15.371-.15,3.716-2.373,15.461-.377,18.89,2.876,4.941,4.352.661,33.02-.977,20.449-1.169,25.615-7.808,30.2-5.97s4.423,11.267,18.511,16.345,20.641-9.829,26.047-10.366,13.884,6.835,29.446,10.111,11.6-25.964,12.866-33.95S1208.693,1223.745,1208.244,1223.418Z" transform="translate(-1078.549 -1219.378)" fill="url(#linear-gradient)"/>
          </g>
        </g>
        <g id="Grupo_128240" data-name="Grupo 128240" transform="translate(89.406 19.298)" style="mix-blend-mode: screen;isolation: isolate">
          <g id="Grupo_128239" data-name="Grupo 128239" opacity="0.5" style="mix-blend-mode: screen;isolation: isolate">
            <path id="Trazado_165258" data-name="Trazado 165258" d="M1516.694,1251.4h-96.651a.922.922,0,0,1,0-1.845h96.651a.922.922,0,0,1,0,1.845Z" transform="translate(-1419.121 -1249.551)" fill="#3e2b9e"/>
          </g>
        </g>
        <g id="Grupo_128242" data-name="Grupo 128242" transform="translate(48.667 19.298)" style="mix-blend-mode: screen;isolation: isolate">
          <g id="Grupo_128241" data-name="Grupo 128241" opacity="0.5" style="mix-blend-mode: screen;isolation: isolate">
            <path id="Trazado_165259" data-name="Trazado 165259" d="M1169.643,1251.4h-33.009a.922.922,0,1,1,0-1.845h33.009a.922.922,0,1,1,0,1.845Z" transform="translate(-1135.712 -1249.551)" fill="#3e2b9e"/>
          </g>
        </g>
        <g id="Grupo_128243" data-name="Grupo 128243" transform="translate(83.629 56.367)" opacity="0.5" style="mix-blend-mode: multiply;isolation: isolate">
          <path id="Trazado_165260" data-name="Trazado 165260" d="M1384.369,1507.427l6.443,3.064-10.829,5.15-1.052-5.628Z" transform="translate(-1378.932 -1507.427)" fill="#3e2b9e"/>
        </g>
      </g>
      <g id="Grupo_128252" data-name="Grupo 128252" transform="translate(40 85.214)">
        <g id="Grupo_128245" data-name="Grupo 128245" transform="translate(0 29.747)">
          <rect id="Rectángulo_35476" data-name="Rectángulo 35476" width="39.663" height="7.84" rx="3.92" fill="url(#linear-gradient-4)"/>
        </g>
        <g id="Grupo_128246" data-name="Grupo 128246" transform="translate(2.998 36.896)">
          <path id="Trazado_165261" data-name="Trazado 165261" d="M508.361,1314.214H480.689a2.767,2.767,0,1,1,0-5.534h27.672a2.767,2.767,0,0,1,0,5.534Z" transform="translate(-477.922 -1308.679)" fill="#1d272b"/>
        </g>
        <g id="Grupo_128247" data-name="Grupo 128247" transform="translate(5.996 37.357)">
          <path id="Trazado_165262" data-name="Trazado 165262" d="M501.545,1371.163a2.767,2.767,0,0,1-2.767-2.767v-53.741a2.767,2.767,0,0,1,5.534,0V1368.4A2.767,2.767,0,0,1,501.545,1371.163Z" transform="translate(-498.778 -1311.888)" fill="#1d272b"/>
        </g>
        <g id="Grupo_128248" data-name="Grupo 128248" transform="translate(27.672 37.357)">
          <path id="Trazado_165263" data-name="Trazado 165263" d="M652.339,1371.163a2.767,2.767,0,0,1-2.767-2.767v-53.741a2.767,2.767,0,0,1,5.534,0V1368.4A2.767,2.767,0,0,1,652.339,1371.163Z" transform="translate(-649.572 -1311.888)" fill="#1d272b"/>
        </g>
        <g id="Grupo_128249" data-name="Grupo 128249" transform="translate(5.765 4.612)">
          <rect id="Rectángulo_35477" data-name="Rectángulo 35477" width="12.913" height="25.443" rx="5" fill="#868695"/>
        </g>
        <g id="Grupo_128250" data-name="Grupo 128250" transform="translate(8.763)">
          <rect id="Rectángulo_35478" data-name="Rectángulo 35478" width="7.149" height="7.61" rx="3.574" fill="#1d272b"/>
        </g>
        <g id="Grupo_128251" data-name="Grupo 128251" transform="translate(21.446 24.674)">
          <path id="Trazado_165264" data-name="Trazado 165264" d="M624.474,1226.194c0,1.4-1.453,2.537-3.228,2.537h-11.76c-1.776,0-3.228-1.141-3.228-2.537s1.453-2.537,3.228-2.537h11.76C623.022,1223.658,624.474,1224.8,624.474,1226.194Z" transform="translate(-606.257 -1223.658)" fill="#008f85"/>
        </g>
      </g>
      <g id="Grupo_128253" data-name="Grupo 128253" transform="translate(79.206 174.225)">
        <rect id="Rectángulo_35479" data-name="Rectángulo 35479" width="21.215" height="8.532" rx="4.266" transform="translate(0 0)" fill="#008f85"/>
      </g>
      <g id="Grupo_128254" data-name="Grupo 128254" transform="translate(189.892 174.225)">
        <rect id="Rectángulo_35480" data-name="Rectángulo 35480" width="21.215" height="8.532" rx="4.266" transform="translate(0 0)" fill="#008f85"/>
      </g>
      <g id="Grupo_128275" data-name="Grupo 128275" transform="translate(42.283 116.354)">
        <path id="Trazado_165270" data-name="Trazado 165270" d="M506.62,1270.482H473.875a.922.922,0,1,1,0-1.845H506.62a.922.922,0,0,1,0,1.845Z" transform="translate(-472.953 -1268.637)" fill="#1d272b"/>
      </g>
    </g>
  </g>
</svg>
