<?xml version="1.0" encoding="utf-8"?>
<!-- Generator: Adobe Illustrator 26.0.1, SVG Export Plug-In . SVG Version: 6.00 Build 0)  -->
<svg version="1.1" id="Layer_1" xmlns="http://www.w3.org/2000/svg" xmlns:xlink="http://www.w3.org/1999/xlink" x="0px" y="0px"
	 viewBox="0 0 243.2 294.1" style="enable-background:new 0 0 243.2 294.1;" xml:space="preserve">
<style type="text/css">
	.st0{opacity:0.354;fill:#A4A4B4;enable-background:new    ;}
	.st1{opacity:0.31;fill:#A4A4B4;enable-background:new    ;}
	.st2{fill:#868695;}
	.st3{fill:#1D272B;}
	.st4{fill:#64546F;}
	.st5{fill:#A4A4B4;}
	.st6{fill:#FFFFFF;}
	.st7{fill:#CDE3E8;}
	.st8{fill:url(#Trazado_163875_00000002358349264748298520000000841123179702634889_);}
	.st9{opacity:0.92;fill:#FFFFFF;enable-background:new    ;}
	.st10{fill:#DFEBF4;}
	.st11{fill:#BC8364;}
	.st12{fill:#D93328;}
	.st13{fill:#E6B89C;}
	.st14{opacity:0.23;fill:#020202;enable-background:new    ;}
	.st15{opacity:0.49;fill:#4B4B4C;enable-background:new    ;}
	.st16{fill:#666666;}
	.st17{fill:#35302C;}
	.st18{fill:#1A1A1A;}
	.st19{fill:#333333;}
	.st20{opacity:0.43;fill:#FFFFFF;enable-background:new    ;}
	.st21{opacity:0.49;fill:#1A1A1A;enable-background:new    ;}
	.st22{fill:#BA6565;}
	.st23{opacity:0.52;fill:#BA6565;enable-background:new    ;}
	.st24{fill:#934C4C;}
	.st25{fill:#EEEBF5;}
	.st26{opacity:0.37;fill:#333333;enable-background:new    ;}
	.st27{fill:#B3B3B3;}
	.st28{enable-background:new    ;}
	.st29{fill:#008F85;}
	.st30{fill:#EDBE8C;}
	.st31{opacity:0.5;}
	.st32{fill:#3E2B9E;}
	.st33{opacity:0.5;fill:#3E2B9E;enable-background:new    ;}
	.st34{fill:url(#Trazado_165256_00000161608282935345654820000003266679902732091826_);}
	.st35{fill:url(#Trazado_165257_00000013155615877844995420000013653253801661251462_);}
	.st36{fill:url(#Rectángulo_35476_00000081647439154524509460000006835205054166312323_);}
</style>
<g id="Grupo_134261" transform="translate(-204.878 -367.834)">
	<g id="Grupo_133112">
		<path id="Trazado_164055" class="st0" d="M416.2,654.1c9.2-18.9,11.8-43.4,6.9-65c-3.1-13.7-9-26.4-9.7-40.7
			c-1.5-28.5,17.5-51.6,21.5-79.7c1.7-12.3-0.2-26.7-7.6-34.2c-7.3-7.4-17.8-5.9-26.1-0.7c-8.3,5.2-15.3,13.5-23.3,19.6
			c-8,6.1-17.8,9.8-26.2,5c-8.5-4.9-13.4-17.2-16.1-29.2c-2.7-12-4-24.8-8.7-35.7c-7.6-18-23.9-27.7-39.1-25.2s-28.7,16.4-36,34.6
			c-7.3,18.2-8.5,40.3-4.9,60.4c1.8,10.2,4.9,20,6.5,30.3c1.6,10.3,1.8,21.5-1.9,30.8c-7.7,19.3-28,22-38.6,38.6
			c-8.8,13.7-9,34.6-4.1,51.4c5,16.8,14.3,30.5,23.7,43.5c43.5,2,87.8,2.1,131.3,4.1C380.6,662.7,399.3,655.5,416.2,654.1z"/>
		<path id="Trazado_164056" class="st1" d="M405.8,443.5c-0.1,10.5,9.9,19.7,8.2,30.1c-0.9,5.6-5.2,11.2-2.7,16.3
			c2.2,4.5,8.4,5.3,13.2,3.8c11.2-3.4,17.9-14.8,21.2-26c3-10.5,3.8-22.3-1.1-32.1c-3.9-7.9-13-14.9-22.2-14.3
			C413.9,421.8,405.9,435.6,405.8,443.5z"/>
		<path id="Trazado_164057" class="st1" d="M232.7,390.5c-7,11.9-7.3,26.6-0.8,38.8c2,3.8,4.8,7.3,8.5,9.3c3.7,2.1,8.5,2.6,12.3,0.4
			c5.6-3.2,6.9-10.8,6.4-17.3s-1.9-13.3,0.6-19.2c1.6-3.9,4.7-6.9,7.5-10.1c2.8-3.2,5.3-6.9,5.5-11.2c0.4-11-11.3-10.1-18.3-7.9
			C245.4,376.3,237.7,382.4,232.7,390.5z"/>
		<g id="Grupo_127878" transform="translate(300.998 477.371)">
			<path id="Trazado_163809" class="st2" d="M95.1,0h-22l6.1,32.2h9.9L95.1,0z"/>
			<path id="Rectángulo_35043" class="st3" d="M79.4,32.2h9.4c0.6,0,1.1,0.5,1.1,1.1v5.4c0,0.6-0.5,1.1-1.1,1.1h-9.4
				c-0.6,0-1.1-0.5-1.1-1.1v-5.4C78.3,32.7,78.8,32.2,79.4,32.2z"/>
			<path id="Rectángulo_35044" class="st3" d="M62.6,11.6h11.6c2.6,0,4.8,2.1,4.8,4.8v18.7c0,2.6-2.1,4.8-4.8,4.8H62.6
				c-2.6,0-4.8-2.1-4.8-4.8V16.4C57.9,13.7,60,11.6,62.6,11.6z"/>
			<rect id="Rectángulo_35045" x="65.7" y="4.6" class="st2" width="5.5" height="8.1"/>
			<path id="Rectángulo_35046" class="st2" d="M65,3.9h6.9c0.7,0,1.3,0.6,1.3,1.3v3.3c0,0.7-0.6,1.3-1.3,1.3H65
				c-0.7,0-1.3-0.6-1.3-1.3V5.2C63.7,4.5,64.3,3.9,65,3.9z"/>
			<g id="Grupo_127674" transform="translate(17.479 39.872)">
				<path id="Trazado_163810" class="st2" d="M82.4,130.1h-1.7V1.7H1.7v128.4H0V0h82.4L82.4,130.1z"/>
			</g>
			<rect id="Rectángulo_35047" x="4.2" y="167.9" class="st4" width="2.5" height="15.7"/>
			<g id="Grupo_127675" transform="translate(0 167.866)">
				<path id="Trazado_163811" class="st3" d="M0,7.9c0,4.3,1.9,7.9,4.2,7.9s4.2-3.5,4.2-7.9S6.6,0,4.2,0S0,3.5,0,7.9z"/>
			</g>
			<g id="Grupo_127676" transform="translate(2.606 167.866)">
				<path id="Trazado_163812" class="st2" d="M0,7.9c0,4.3,1.9,7.9,4.2,7.9s4.2-3.5,4.2-7.9S6.6,0,4.2,0S0,3.5,0,7.9z"/>
			</g>
			<rect id="Rectángulo_35048" x="17" y="167.9" class="st4" width="2.5" height="15.7"/>
			<g id="Grupo_127677" transform="translate(12.802 167.866)">
				<path id="Trazado_163813" class="st3" d="M0,7.9c0,4.3,1.9,7.9,4.2,7.9s4.2-3.5,4.2-7.9S6.6,0,4.2,0S0,3.5,0,7.9z"/>
			</g>
			<g id="Grupo_127678" transform="translate(15.408 167.866)">
				<path id="Trazado_163814" class="st2" d="M0,7.9c0,4.3,1.9,7.9,4.2,7.9s4.2-3.5,4.2-7.9S6.6,0,4.2,0S0,3.5,0,7.9z"/>
			</g>
			<rect id="Rectángulo_35049" x="85" y="167.9" class="st4" width="2.5" height="15.7"/>
			<g id="Grupo_127679" transform="translate(80.761 167.866)">
				<path id="Trazado_163815" class="st3" d="M0,7.9c0,4.3,1.9,7.9,4.2,7.9s4.2-3.5,4.2-7.9S6.6,0,4.2,0S0,3.5,0,7.9z"/>
			</g>
			<g id="Grupo_127680" transform="translate(83.369 167.866)">
				<path id="Trazado_163816" class="st2" d="M0,7.9c0,4.3,1.9,7.9,4.2,7.9s4.2-3.5,4.2-7.9S6.6,0,4.2,0S0,3.5,0,7.9z"/>
			</g>
			<rect id="Rectángulo_35050" x="97.8" y="167.9" class="st4" width="2.5" height="15.7"/>
			<g id="Grupo_127681" transform="translate(93.563 167.866)">
				<path id="Trazado_163817" class="st3" d="M0,7.9c0,4.3,1.9,7.9,4.2,7.9s4.2-3.5,4.2-7.9S6.6,0,4.2,0S0,3.5,0,7.9z"/>
			</g>
			<g id="Grupo_127682" transform="translate(96.169 167.866)">
				<path id="Trazado_163818" class="st2" d="M0,7.9c0,4.3,1.9,7.9,4.2,7.9s4.2-3.5,4.2-7.9S6.6,0,4.2,0S0,3.5,0,7.9z"/>
			</g>
			<rect id="Rectángulo_35051" x="5.5" y="138.1" class="st3" width="80.7" height="21.8"/>
			<rect id="Rectángulo_35052" x="86.2" y="138.1" class="st5" width="13" height="21.8"/>
			<path id="Trazado_163819" class="st5" d="M36.6,151.6h17.7c2.4,0,4.3-1.9,4.3-4.3v0H32.3C32.3,149.7,34.3,151.6,36.6,151.6
				C36.6,151.6,36.6,151.6,36.6,151.6z"/>
			<rect id="Rectángulo_35053" x="5.5" y="113.7" class="st3" width="80.7" height="21.8"/>
			<rect id="Rectángulo_35054" x="86.2" y="113.7" class="st5" width="13" height="21.8"/>
			<path id="Trazado_163820" class="st5" d="M36.6,127.3h17.7c2.4,0,4.3-1.9,4.3-4.3v0H32.3C32.3,125.4,34.3,127.3,36.6,127.3
				C36.6,127.3,36.6,127.3,36.6,127.3z"/>
			<rect id="Rectángulo_35055" x="5.5" y="89.4" class="st3" width="80.7" height="21.8"/>
			<rect id="Rectángulo_35056" x="86.2" y="89.4" class="st5" width="13" height="21.8"/>
			<path id="Trazado_163821" class="st5" d="M36.6,102.9h17.7c2.4,0,4.3-1.9,4.3-4.3c0,0,0,0,0,0H32.3
				C32.3,101,34.3,102.9,36.6,102.9C36.6,102.9,36.6,102.9,36.6,102.9z"/>
			<rect id="Rectángulo_35057" x="5.5" y="65.1" class="st3" width="80.7" height="21.8"/>
			<rect id="Rectángulo_35058" x="86.2" y="65.1" class="st5" width="13" height="21.8"/>
			<path id="Trazado_163822" class="st5" d="M36.6,78.6h17.7c2.4,0,4.3-1.9,4.3-4.3c0,0,0,0,0,0H32.3C32.3,76.7,34.3,78.6,36.6,78.6
				C36.6,78.6,36.6,78.6,36.6,78.6z"/>
			<rect id="Rectángulo_35059" x="5.5" y="40.7" class="st3" width="80.7" height="21.8"/>
			<rect id="Rectángulo_35060" x="86.2" y="40.7" class="st5" width="13" height="21.8"/>
			<path id="Trazado_163823" class="st5" d="M36.6,54.3h17.7c2.4,0,4.3-1.9,4.3-4.3v0H32.3C32.3,52.4,34.3,54.3,36.6,54.3
				C36.6,54.3,36.6,54.3,36.6,54.3z"/>
			<g id="Grupo_127683" transform="translate(4.678 39.872)">
				<path id="Trazado_163824" class="st2" d="M82.4,130.1h-1.7V1.7H1.7v128.4H0V0h82.4V130.1z"/>
			</g>
			<path id="Trazado_163825" class="st5" d="M80.1,39.9H13.5c-1.4,0-2.6-1.2-2.6-2.6l0,0c0-1.4,1.2-2.6,2.6-2.6h66.5
				c1.4,0,2.6,1.2,2.6,2.6l0,0C82.7,38.7,81.5,39.9,80.1,39.9z"/>
			<g id="Grupo_127684" transform="translate(11.231 26.179)">
				<path id="Trazado_163826" class="st5" d="M70.9,11.8H0v-0.7C0,5,5,0,11.1,0h48.7c6.1,0,11.1,5,11.1,11.1L70.9,11.8z M1.4,10.4
					h68.1c-0.4-5.1-4.6-9-9.7-9.1H11.1C6,1.4,1.7,5.3,1.4,10.4L1.4,10.4z"/>
			</g>
		</g>
		<g id="Grupo_127886" transform="translate(307.51 454.474)">
			<g id="Grupo_127882" transform="translate(0 1.877)">
				<g id="Grupo_127710" transform="translate(0.023)">
					<path id="Trazado_163858" class="st3" d="M2.6,10.2c-0.6,0.2-1.2,0.3-1.9,0.4C0.5,8.7,0.4,6.8,0.4,4.9c-0.1-1.4,0.2-2.8,0.8-4
						l0.3-0.4c0.4,0.5,0.7,1,0.9,1.6C3,3.9,3.2,5.9,2.9,7.9C2.7,9.6,2.6,10.2,2.6,10.2z"/>
					<path id="Trazado_163859" class="st6" d="M0.8,10.6l1.8-0.3c0,0,0,0.3-0.1,0.4c-0.3,0.2-0.7,0.3-1,0.3c-0.2,0-0.4,0-0.5-0.1
						C0.8,10.8,0.8,10.6,0.8,10.6z"/>
					<path id="Trazado_163860" class="st3" d="M0.7,13.8C0.9,13.5,1,13,0.9,12.6c-0.1-0.7-0.2-2-0.2-2c0.3,0.1,0.5,0.2,0.8,0.1
						c0.5-0.1,0.8-0.1,1.2-0.9c-0.2,1.2-0.3,2.4-0.2,3.6c0,0.1,0.1,0.3,0.1,0.5L0.7,13.8z"/>
					<path id="Trazado_163861" class="st7" d="M1.5,0.4L1.8,0c0.9,1.5,1.3,3.2,1.3,5c0,1.7-0.1,3.5-0.3,5.2c0,0.3-0.2,2.9-0.2,3.1
						s0.1,0.6,0.2,0.6c-0.1,0.1-0.3,0-0.3,0c0,0,0-1.8,0.1-3.1s0.4-5.4,0.3-6.4C2.8,3.2,2.5,2.1,2,1.1C1.9,0.9,1.7,0.7,1.5,0.4z"/>
					<g id="Grupo_127709" transform="translate(0 13.494)">
						<g id="Grupo_127708">
							<path id="Trazado_163862" class="st3" d="M0.4,0.5c0-0.1,0.1-0.1,0.3-0.1C0.9,0.3,1,0.2,1.1,0c0.2,0,0.5,0,0.7,0
								c0.4,0.2,0.8,0.3,1.2,0.4c0.1,0,0.3,0,0.3,0.1c0.2,2,0.2,4.1,0.2,6.1C3.3,9.3,3.1,16.7,3,18.7s0.2,5.2,0.3,6.1s0,1-0.2,1.2
								c-1,0.2-2,0.2-3-0.2c0-0.6,0-1.3,0-1.9c0.4-4.3,0.4-8.6,0.2-12.9C0.1,9.4,0,7.9,0.1,6.3C0.1,3.3,0.4,0.5,0.4,0.5z"/>
							<path id="Trazado_163863" class="st7" d="M3.2,24.9c-0.1,0.7-0.2,0.8-0.3,0.9c-1,0.2-2,0.2-2.9-0.1c0,0.1,0,0.2,0,0.3
								c0.4,0.4,2.7,0.4,3,0.2S3.4,25.9,3.2,24.9L3.2,24.9z"/>
						</g>
					</g>
				</g>
				<g id="Grupo_127711" transform="translate(0 0.438)">
					<path id="Trazado_163864" class="st7" d="M1.2,0.4C0.6,1.7,0.4,3,0.4,4.4c0,1.9,0.1,3.8,0.3,5.8c0.3,0.2,0.6,0.2,0.9,0.2L1.5,0
						L1.2,0.4z"/>
					<path id="Trazado_163865" class="st3" d="M0.7,13.4c-0.2,0.1-0.3,0-0.3,0.1c0,0-0.3,2.8-0.3,5.8c-0.1,1.6,0,3.1,0.2,4.7
						c0.3,4.3,0.2,8.6-0.2,12.9C0,37.6,0,38.2,0,38.9c0.5,0.3,1.1,0.4,1.7,0.3V13.1c-0.2,0-0.4,0-0.7,0C1,13.3,0.9,13.4,0.7,13.4z"
						/>
				</g>
			</g>
			<g id="Grupo_127883" transform="translate(32.021 3.117)">
				<path id="Trazado_163866" class="st3" d="M3.6,28.7c-2,0-3.6,1.9-3.6,4.3s1.6,4.3,3.6,4.3s3.6-1.9,3.6-4.3S5.6,28.7,3.6,28.7z
					 M3.6,36.2c-1.7,0.3-3.4-0.9-3.7-2.6c-0.3-1.7,0.9-3.4,2.6-3.7c1.7-0.3,3.4,0.9,3.7,2.6c0,0.2,0,0.4,0,0.5
					C6.4,34.6,5.2,36,3.6,36.2L3.6,36.2z"/>
				<path id="Trazado_163867" class="st3" d="M7.1,32.3l0.8-14.3c0,0,0.8-6.3,1.1-7.5c0.5-2,2.6-9.6,2.5-10s-0.8-0.1-1,1
					s-2.7,9-2.7,9l-1.4,6.4L5.1,27l-1.7,2.5l2.3,1.1L7.1,32.3z"/>
				<path id="Trazado_163868" class="st3" d="M12.5,28.4c-2,0-3.6,1.9-3.6,4.3s1.6,4.3,3.6,4.3s3.6-1.9,3.6-4.3S14.5,28.4,12.5,28.4
					z M12.5,35.9c-1.7,0.3-3.4-0.9-3.7-2.6c-0.3-1.7,0.9-3.4,2.6-3.7s3.4,0.9,3.7,2.6c0,0.2,0,0.4,0,0.5
					C15.3,34.3,14.1,35.7,12.5,35.9L12.5,35.9z"/>
				<path id="Trazado_163869" class="st3" d="M8.8,32.7L7.6,20.8l-1.5-1l0.9-10c0,0,2.4-9.3,2.9-9.7c0.5-0.4,1-0.1,0.5,1.8
					C10,3,8.5,10,8.5,10l1.7,17.8l2.2,0.6c-0.9,0.4-1.8,1.1-2.4,1.9C9.6,31.1,9.2,31.9,8.8,32.7z"/>
				<path id="Trazado_163870" class="st7" d="M8.4,18.6c0,0.4-0.3,0.8-0.8,0.8c-0.4,0-0.8-0.3-0.8-0.8c0-0.4,0.3-0.8,0.8-0.8
					c0,0,0,0,0,0C8,17.8,8.4,18.2,8.4,18.6z"/>
			</g>
			<g id="Grupo_127884" transform="translate(17.967 1.879)">
				<path id="Trazado_163871" class="st3" d="M7.8,4.6C7.8,2.1,6.1,0,3.9,0S0,2.1,0,4.6s1.7,4.6,3.9,4.6S7.8,7.2,7.8,4.6z M6.8,4.6
					C6.5,6.2,5,7.3,3.4,7C1.8,6.8,0.8,5.2,1,3.7c0.2-1.4,1.4-2.4,2.9-2.4C5.6,1.4,6.9,2.9,6.8,4.6L6.8,4.6z"/>
				<path id="Trazado_163872" class="st3" d="M7.7,5.3l0.8,15.4c0,0,0.5,5.9,0.5,7.2c-0.1,3.9-0.1,10.8-0.2,11.4
					c-0.1,0.7-0.5,0.5-0.5-0.6C8.2,37,7.8,28.6,7.8,28.6l-1-6.6L5.5,11.1L3.6,8.4l2.5-1.2L7.7,5.3z"/>
				<path id="Trazado_163873" class="st3" d="M17.4,4.9c0-2.6-1.7-4.6-3.9-4.6S9.6,2.4,9.6,4.9s1.7,4.6,3.9,4.6S17.4,7.5,17.4,4.9z
					 M16.3,4.9c-0.3,1.6-1.8,2.7-3.4,2.4C11.4,7,10.3,5.5,10.6,4c0.2-1.4,1.5-2.4,2.9-2.4C15.2,1.7,16.5,3.2,16.3,4.9L16.3,4.9z"/>
				<path id="Trazado_163874" class="st3" d="M9.5,4.8L8.1,17.7l-1.6,1l0.9,10.8c0,0,0.4,8.6,0.5,9.4c0.1,1.3,0.4,1.4,0.7-1.4
					c0.1-1.2,0.6-8.1,0.6-8.1L11,10.1l2.4-0.6c-1-0.5-1.9-1.2-2.6-2.1C10.3,6.6,9.8,5.7,9.5,4.8z"/>
				
					<linearGradient id="Trazado_163875_00000096752171200405844200000017778888111845809558_" gradientUnits="userSpaceOnUse" x1="-191.786" y1="304.6306" x2="-191.786" y2="303.6306" gradientTransform="matrix(1.644 0 0 -1.644 323.5375 520.1685)">
					<stop  offset="0" style="stop-color:#F5F5F5"/>
					<stop  offset="0.25" style="stop-color:#F5F5F5"/>
					<stop  offset="1" style="stop-color:#EEEEF2"/>
				</linearGradient>
				<path id="Trazado_163875" style="fill:url(#Trazado_163875_00000096752171200405844200000017778888111845809558_);" d="
					M9.1,20.2c0-0.5-0.4-0.8-0.8-0.8c-0.5,0-0.8,0.4-0.8,0.8c0,0.5,0.4,0.8,0.8,0.8c0,0,0,0,0,0C8.7,21,9.1,20.6,9.1,20.2z"/>
			</g>
			<g id="Grupo_127885" transform="translate(9.843 0)">
				<g id="Grupo_127724">
					<g id="Grupo_127723">
						<path id="Trazado_163876" class="st6" d="M7.1,40.4c0,0.4-1.3,0.6-3,0.6s-3-0.2-3-0.6s1.3-0.6,3-0.6S7.1,40,7.1,40.4z"/>
						<path id="Trazado_163877" class="st3" d="M7.1,40.4c-0.2,0.4-1.5,0.6-3,0.6c-1.7,0-3-0.2-3-0.6l0,0.5l0,0c0,0.4,1.4,0.6,3,0.6
							s3-0.3,3-0.7l0,0l0,0l0,0C7.1,40.7,7.1,40.5,7.1,40.4z"/>
						<g id="Grupo_127715" transform="translate(2.397 23.167)">
							<path id="Trazado_163878" class="st3" d="M1.8,17.3l-1.1,0l0-3.3c-0.3-0.8-0.5-1.5-0.6-2.3C0,10.7,0,10.7,0,0
								c0,0,0.9,0,1.7,0C1.7,10.4,1.8,17.3,1.8,17.3z"/>
							<path id="Trazado_163879" class="st3" d="M1.6,0.2l1.6,0c0,0,0.1,11.2,0.1,11.8c-0.1,0.6-0.2,1.2-0.4,1.9c0,0.5,0,3.4,0,3.4
								l-1.2,0.1L1.6,0.2z"/>
						</g>
						<path id="Trazado_163880" class="st6" d="M6.1,23.1l-4.1,0c0,0-0.1,0-0.1,0.1s0,0.1,0.1,0.1h0.2l0,0.3H2c0,0-0.1,0-0.1,0.1
							c0,0,0,0.1,0.1,0.1h0.2l0,0.3H2c0,0-0.1,0-0.1,0.1c0,0,0,0.1,0.1,0.1l4.1,0c0,0,0.1,0,0.1-0.1s0-0.1-0.1-0.1H5.9v-0.3h0.2
							c0,0,0.1,0,0.1-0.1s0-0.1-0.1-0.1H5.9v-0.3h0.2C6.1,23.3,6.1,23.2,6.1,23.1C6.1,23.1,6.1,23.1,6.1,23.1z"/>
						<path id="Trazado_163881" class="st3" d="M1.5,34.2l0-19.8c0-0.1,0.1-0.1,0.1-0.1c0,0,0,0,0,0l0,0l4.8,0c0,0,0.1,0,0.1,0l0,0
							c0,0,0,0.1,0,0.1l0,0l0,19.8c0,0,0,0.1-0.1,0.1l0,0c-0.3,0.1-0.6,0.2-0.9,0.2l0,0c-0.5,0.1-1,0.1-1.6,0.1l0,0
							c-0.5,0-1.1,0-1.6-0.1l0,0c-0.3,0-0.6-0.1-0.8-0.2l0,0c0,0,0,0-0.1,0l0,0C1.5,34.3,1.5,34.2,1.5,34.2L1.5,34.2z M1.7,34.1
							c0.2,0.1,0.5,0.1,0.7,0.1l0,0C3,34.2,3.5,34.3,4,34.3l0,0c0.5,0,1,0,1.5-0.1l0,0c0.2,0,0.4-0.1,0.6-0.1l0,0c0,0,0.1,0,0.1,0
							l0,0l0-19.6l-4.6,0L1.7,34.1L1.7,34.1z"/>
						<path id="Trazado_163882" class="st3" d="M1.4,14.3L1.4,14.3L1.4,14.3c0-0.1,0-0.2,0.1-0.2l0,0C1.6,14.1,1.7,14,1.8,14l0,0
							c0.3-0.1,0.9-0.2,1.2-0.3l0,0c0,0,0.1,0,0.1,0l0,0c0-0.3,0-1.4,0-1.4l0,0v-0.1l1.7,0v0.1c0,0,0,1.1,0,1.4l0,0
							c0,0,0.1,0,0.1,0.1l0,0c0.1,0,0.3,0.1,0.5,0.1l0,0c0.3,0,0.7,0.1,1,0.3l0,0c0,0,0.1,0.1,0.1,0.1l0,0l0,0.1v8.8l0,0v0.1l-5.1,0
							L1.4,14.3L1.4,14.3z M1.7,23l4.5,0v-8.6v0c-0.3-0.1-0.6-0.2-0.8-0.2l0,0c-0.3,0-0.5-0.1-0.8-0.3l0,0l0,0l0,0c0,0,0-0.1,0-0.1
							l0,0c0-0.1,0-1,0-1.3l0,0H3.5c0,0.4,0,1.3,0,1.3l0,0c0,0,0,0.1-0.1,0.1l0,0c-0.2,0.1-0.4,0.2-0.7,0.2l0,0
							c-0.3,0.1-0.6,0.1-0.8,0.2l0,0c-0.1,0-0.1,0-0.2,0.1l0,0L1.7,23L1.7,23z"/>
						<path id="Trazado_163883" class="st6" d="M4.2,8.6H3.9l0-8.6l0.3,0.8L4.2,8.6z"/>
						<path id="Trazado_163884" class="st6" d="M4.4,9c0,0-0.1-0.2-0.1-0.3l-0.1,0L4.2,8.9v1.5c0,0.1-0.1,0.1-0.2,0.1
							c-0.1,0-0.1-0.1-0.1-0.1V8.9L3.8,8.7c0,0-0.1,0-0.1,0c0,0.1-0.1,0.2-0.1,0.3c0,0-0.1,0-0.1,0c0,0.4,0,0.9,0.1,1.3
							c0,0.2-0.2,0.4-0.2,0.5s-0.3,2-0.3,2l1,0c0.7,0,1,0,1,0c0,0-0.1-1.8-0.2-2s-0.3-0.4-0.3-0.6c0-0.4,0.1-0.9,0-1.3
							C4.5,9,4.5,9,4.4,9z"/>
						<path id="Trazado_163885" class="st6" d="M3.7,8.7c0-0.1,0.1-0.2,0.3-0.2c0.2,0,0.3,0.1,0.3,0.2c0,0-0.1,0-0.3,0
							C3.8,8.7,3.7,8.7,3.7,8.7z"/>
						<path id="Trazado_163886" class="st6" d="M5.2,12.8c0,0,0,0.1-0.1,0.1l-2.2,0c0,0-0.1,0-0.1-0.1l0,0c0,0,0-0.1,0.1-0.1l2.2,0
							C5.1,12.7,5.2,12.8,5.2,12.8z"/>
						<g id="Grupo_127716" transform="translate(2.327 15.328)">
							<path id="Trazado_163887" class="st9" d="M0,0.1C0,0.1,0,0.1,0,0.1L0,0.1C0,0,0,0,0,0.1L0,0.1L2.6,0c0,0,0,0,0,0l0,0
								c0,0,0,0,0,0c0,0,0,0,0,0l0,0L0,0.1L0,0.1z"/>
							<path id="Trazado_163888" class="st9" d="M0.1,3.5C0,3.5,0,3.5,0.1,3.5L0.1,3.5C0,3.4,0,3.4,0.1,3.5L0.1,3.5l2.6-0.1
								c0,0,0,0,0,0l0,0c0,0,0,0,0,0l0,0L0.1,3.5L0.1,3.5z"/>
							<path id="Trazado_163889" class="st9" d="M0.1,7C0,7,0,6.9,0.1,7C0,6.9,0,6.9,0.1,7L0.1,7C0,6.9,0,6.9,0.1,7
								C0.1,6.9,0.1,6.9,0.1,7L0.1,7l2.6-0.1c0,0,0,0,0,0l0,0c0,0,0,0,0,0l0,0L0.1,7z"/>
							<path id="Trazado_163890" class="st9" d="M0,0.7C0,0.7,0,0.7,0,0.7L0,0.7C0,0.7,0,0.7,0,0.7L0,0.7l1.2-0.1c0,0,0,0,0,0l0,0
								c0,0,0,0,0,0l0,0L0,0.7L0,0.7z"/>
							<path id="Trazado_163891" class="st9" d="M0,1.4C0,1.4,0,1.4,0,1.4L0,1.4C0,1.4,0,1.3,0,1.4L0,1.4l1.2-0.1c0,0,0,0,0,0l0,0
								c0,0,0,0,0,0l0,0L0,1.4L0,1.4z"/>
							<path id="Trazado_163892" class="st9" d="M0,2.1C0,2.1,0,2.1,0,2.1L0,2.1C0,2.1,0,2,0,2.1L0,2.1L1.2,2c0,0,0,0,0,0l0,0
								c0,0,0,0,0,0l0,0L0,2.1z"/>
							<path id="Trazado_163893" class="st9" d="M0,2.8C0,2.8,0,2.8,0,2.8L0,2.8C0,2.7,0,2.7,0,2.8L0,2.8l1.2-0.1c0,0,0,0,0,0l0,0
								c0,0,0,0,0,0l0,0L0,2.8L0,2.8z"/>
							<path id="Trazado_163894" class="st9" d="M0.1,4.2C0,4.2,0,4.2,0.1,4.2C0,4.2,0,4.2,0.1,4.2L0.1,4.2C0,4.1,0,4.1,0.1,4.2
								L0.1,4.2l1.2-0.1c0,0,0,0,0,0l0,0c0,0,0,0,0,0c0,0,0,0,0,0l0,0L0.1,4.2L0.1,4.2z"/>
							<path id="Trazado_163895" class="st9" d="M0.1,4.9C0,4.9,0,4.9,0.1,4.9L0.1,4.9C0,4.8,0,4.8,0.1,4.9L0.1,4.9l1.2-0.1
								c0,0,0,0,0,0l0,0c0,0,0,0,0,0l0,0L0.1,4.9L0.1,4.9z"/>
							<path id="Trazado_163896" class="st9" d="M0.1,5.6C0,5.6,0,5.6,0.1,5.6L0.1,5.6C0,5.5,0,5.5,0.1,5.6C0.1,5.5,0.1,5.5,0.1,5.6
								L0.1,5.6l1.2-0.1c0,0,0,0,0,0c0,0,0,0,0,0l0,0c0,0,0,0,0,0l0,0L0.1,5.6L0.1,5.6z"/>
							<path id="Trazado_163897" class="st9" d="M0.1,6.3C0,6.3,0,6.3,0.1,6.3C0,6.2,0,6.2,0.1,6.3L0.1,6.3C0,6.2,0,6.2,0.1,6.3
								L0.1,6.3l1.2-0.1c0,0,0,0,0,0c0,0,0,0,0,0l0,0c0,0,0,0,0,0c0,0,0,0,0,0l0,0L0.1,6.3L0.1,6.3z"/>
						</g>
						<g id="Grupo_127718" transform="translate(5.447 15.126)">
							<g id="Grupo_127717">
								<path id="Trazado_163898" class="st6" d="M0.1,0.5V0.1L0.1,0.2L0,0.2L0.2,0h0.1L0.1,0.5L0.1,0.5z"/>
							</g>
						</g>
						<g id="Grupo_127720" transform="translate(5.366 18.541)">
							<g id="Grupo_127719">
								<path id="Trazado_163899" class="st6" d="M0,0.1C0,0.1,0.1,0,0.2,0c0.2,0,0.3,0.2,0.1,0.3C0.2,0.3,0.2,0.3,0.1,0.4h0.3v0.1
									H0v0l0.3-0.2l0,0c0.1-0.1,0.1-0.2-0.1-0.2C0.2,0.1,0.1,0.1,0,0.1L0,0.1z"/>
							</g>
						</g>
						<g id="Grupo_127722" transform="translate(5.375 21.955)">
							<g id="Grupo_127721">
								<path id="Trazado_163900" class="st6" d="M0.1,0.2L0.1,0.2c0.1,0,0.2,0,0.2-0.1c0,0,0,0,0,0c0,0-0.1-0.1-0.1-0.1
									C0.1,0.1,0.1,0.1,0.1,0.2L0,0.1C0,0,0.1,0,0.2,0c0.1,0,0.2,0,0.2,0.1c0,0,0,0.1-0.1,0.1c0,0,0.1,0.1,0.1,0.1
									c0,0.1-0.1,0.1-0.2,0.1S0,0.4,0,0.3l0.1,0c0,0,0,0.1,0.1,0.1c0.1,0,0.1,0,0.1-0.1S0.3,0.3,0.1,0.2L0.1,0.2L0.1,0.2z"/>
							</g>
						</g>
						<path id="Trazado_163901" class="st6" d="M0,34.1c0,0.2,1.8,0.4,4,0.4s4-0.2,4-0.5s-1.8-0.4-4-0.4S0,33.9,0,34.1z M1.9,34.1
							c1.4-0.3,2.8-0.3,4.2,0C4.7,34.3,3.3,34.3,1.9,34.1z"/>
						<path id="Trazado_163902" class="st7" d="M4,34.6c-2.2,0-4-0.2-4-0.4v0.4l0,0C0,34.8,1.8,35,4,35s4-0.2,4-0.5l0,0v-0.4
							C7.9,34.4,6.2,34.6,4,34.6z M0,34.3L0,34.3z"/>
					</g>
				</g>
				<rect id="Rectángulo_35061" x="2.4" y="33" class="st7" width="1.6" height="1.1"/>
			</g>
		</g>
		<g id="Grupo_127834" transform="translate(204.878 440.434)">
			<path id="Trazado_150797" class="st10" d="M38.6,92.3c-7.2,0-17.1-6.5-20.3-8.7l3.9-5.7c6,4.1,14.3,8.1,17,7.4
				c2.2-2,5.8-28.5,9.3-32.9l3.2,4.4c-0.8,14.6-3.3,32.6-10.1,35C40.7,92.2,39.7,92.3,38.6,92.3z"/>
			<path id="Trazado_150798" class="st11" d="M16.6,80.7c0,0-5.9-7.2-6.4-8.1s-1.9-1.1-1.5,0c0.4,1,0.9,1.9,1.6,2.7l-6.6-4.6
				c0,0-0.9-0.7-1.3-0.3s0.9,1.4,0.9,1.4l4.2,3.2l-5.1-2.7c0,0-1.1-0.5-1.4,0s1,1.2,1,1.2l4.9,3l-5.3-2.3c0,0-1.3-0.6-1.6,0
				s1.6,1.4,1.6,1.4l4.9,2.5l-3-0.6c0,0-0.5-0.1-0.4,0.4s0.8,0.6,0.8,0.6s8.7,4.3,10.2,4.6s1.6,0.1,1.6,0.1l0.9-2.5L16.6,80.7z"/>
			
				<rect id="Rectángulo_34018" x="56.7" y="43.9" transform="matrix(1.699754e-02 -0.9999 0.9999 1.699754e-02 13.5911 108.3515)" class="st11" width="10.5" height="6.8"/>
			<g id="Grupo_91805" transform="translate(57.071 198.511)">
				<path id="Trazado_150799" class="st11" d="M16,0c-0.4,1.4-0.4,3,0,4.4c0.7,2,2.8,1.5,3.8,4.4v0.3c0,1.4-1.1,2.6-2.5,2.7
					c-1.4-0.1-2.7,0.3-3.9,1c-2.8,2-0.5,8.5-4.3,8.4c-2.3-0.1-9.1,0-9.1,0s3.7-2.3,5.2-3s7-18.2,7-18.2L16,0z"/>
				<path id="Trazado_150800" class="st12" d="M16.8,5.1c1.4,0.8,2.5,2.1,3,3.7v0.3c0,1.4-1.1,2.6-2.5,2.7c-1.4,0.1-2,0.9-3.4,1.8
					c-2.8,2-1,7.7-4.8,7.6c-2.3-0.1-9.1,0-9.1,0s3.5-3.2,5.2-3C12.2,19,14.4,8.7,16.8,5.1z"/>
				<path id="Trazado_150801" class="st12" d="M16.2,11.5c0.3,3.3,0.3,6.5,0,9.8h0.9c0,0,0.6-7.9,1.5-9.7S16.2,11.5,16.2,11.5z"/>
			</g>
			<g id="Grupo_91806" transform="translate(38.242 195.802)">
				<path id="Trazado_150802" class="st11" d="M16.8,0c0,0-1.6,5.1-0.8,7.1s2.8,1.5,3.8,4.4v0.3c0,1.4-1.1,2.6-2.5,2.7
					c-1.4-0.1-2.7,0.3-3.9,1c-2.8,2-0.5,8.5-4.3,8.4c-2.3-0.1-9.1,0-9.1,0s3.7-2.3,5.2-3s7.4-18,7.4-18L16.8,0z"/>
				<path id="Trazado_150803" class="st12" d="M16.8,7.8c1.4,0.8,2.5,2.1,3,3.7v0.3c0,1.4-1.1,2.6-2.5,2.7c-1.4,0.1-2,0.9-3.4,1.8
					c-2.8,2-1,7.7-4.8,7.6c-2.3-0.1-9.1,0-9.1,0s3.5-3.2,5.2-3C12.2,21.7,14.4,11.4,16.8,7.8z"/>
				<path id="Trazado_150804" class="st12" d="M16.2,14.2c0.3,3.3,0.3,6.5,0,9.8h0.9c0,0,0.6-7.9,1.5-9.7S16.2,14.2,16.2,14.2z"/>
			</g>
			<path id="Trazado_150805" class="st11" d="M50.4,93.2c5.7,1.6,11.5,1.7,17.3,1.9c4,3.8,10.9,8.4,12,13.4
				c1.5,6.9-2.2,13.8-2.2,13.8l-3.9,32.4c0,0,10.4,2.2-0.9,46.9l-5.5,6.1c0,0,2.4-39.7-0.5-50.9c-7.2-28.1-3.9-38-5.9-39.6
				c-3.5-2.8-3.9,0.4-3.9,0.4L53.8,154c0,0,10.3,9.9,0.3,49.2l-4.4,3.7c0,0,0-39.5-2.9-50.7c-1.3-5.2-8.3-35.3-5.2-46.1
				C43.1,104.7,48.6,95.9,50.4,93.2z"/>
			<path id="Trazado_150806" class="st3" d="M42.3,133.3l2.5,16.2h30.1l1.3-23.9L42.3,133.3z"/>
			<path id="Trazado_150807" class="st13" d="M65.9,90.3C66,91.2,76.5,103,77.3,104c-17,4.6-32,2.4-33.5,0.7
				c1.7-4.5,7.9-13.3,7.9-13.3l-4.9-15.7c-5.9-2-4-7.9-4-7.9c5-3.4,5.9-15.2,5.9-15.2l14.7-0.4c0,0,11.6,1.3,13.1,2.4
				s-1,12.4-1,12.4S65.2,85.7,65.9,90.3z"/>
			<path id="Trazado_150808" class="st6" d="M76.4,142.3c-0.2,0-9.1,1.8-16.1,1.3c-0.1-0.4-3-9-3-9l-1.4,8.8
				c-3.8-0.2-9.3,0-12.9-1.2c-2.1-11-3.3-25.6-1.4-32.3c0.6-2,1.4-3.9,2.4-5.8c1.5-3.3,3.3-6.4,5.3-9.4c0.4-0.7,1.1-1.7,1.1-1.7
				c0.4-0.5,0.7-1.2,0.9-1.8l-4.7-15.3c-5.9-2-3.8-8.3-3.8-8.3c5-3.4,5.9-15.2,5.9-15.2L63.4,52c0,0,11.6,1.3,13.1,2.4
				s-0.7,12.8-0.7,12.8s-10.6,18.3-9.9,22.9c0.1,0.7,8,9.7,10.6,12.8c1.5,1.5,2.7,3.4,3.2,5.4c1.5,6.9-1.1,15-1.1,15L76.4,142.3z"/>
			<path id="Trazado_150809" class="st14" d="M56.3,72.2c3.5,2.5,8.1,2.7,11.8,0.6C68.1,72.8,61.4,80.9,56.3,72.2z"/>
			<path id="Trazado_150810" class="st10" d="M66.9,52.4l3.9,0.5l-7.7,9.9l2.6,1l-10.3,10L52.9,62l1.9-0.4l-1.9-9.4
				C52.9,52.2,64.9,52.1,66.9,52.4z"/>
			<path id="Trazado_150811" class="st12" d="M66.9,52.4L55.3,73.8L56.5,52C56.5,52,62.8,51.5,66.9,52.4z"/>
			<path id="Trazado_150812" class="st15" d="M60.9,51.8c-0.5,0-5.9,1.4-5.9,1.4s2,1.8,5.4-0.4c0,0,1.8,3,7.8,0.9
				C68.2,53.7,61.4,51.8,60.9,51.8z"/>
			<path id="Trazado_150813" class="st12" d="M65.3,49.3c-1.4,0.7-2.9,1.3-4.4,1.8c-0.5,0-2.3-1.7-2.3-1.7l-3.7,3.8
				c0,0,2,1.2,5.5-1.1c0,0,1.2,2.4,7.7,1.6C66.9,52.4,66,50.9,65.3,49.3z"/>
			<path id="Trazado_150814" class="st16" d="M53.8,76.4c0-0.5,0.4-0.9,0.9-0.9s0.9,0.4,0.9,0.9c0,0.5-0.4,0.9-0.9,0.9c0,0,0,0,0,0
				C54.2,77.3,53.8,76.9,53.8,76.4z"/>
			<path id="Trazado_150815" class="st16" d="M53.9,82.1c0-0.5,0.4-0.9,0.9-0.9s0.9,0.4,0.9,0.9c0,0.5-0.4,0.9-0.9,0.9c0,0,0,0,0,0
				C54.3,83,53.9,82.6,53.9,82.1C53.9,82.1,53.9,82.1,53.9,82.1z"/>
			<path id="Trazado_150816" class="st16" d="M54,87.8c0-0.5,0.4-0.9,0.9-0.9c0.5,0,0.9,0.4,0.9,0.9c0,0.5-0.4,0.9-0.9,0.9
				C54.4,88.7,54,88.3,54,87.8C54,87.8,54,87.8,54,87.8z"/>
			<path id="Trazado_150817" class="st16" d="M54,93.2c0-0.5,0.4-0.9,0.9-0.9c0.5,0,0.9,0.4,0.9,0.9c0,0.5-0.4,0.9-0.9,0.9
				C54.4,94,54,93.7,54,93.2z"/>
			<path id="Trazado_150818" class="st16" d="M54.1,98.9c0-0.5,0.4-0.9,0.9-0.9c0.5,0,0.9,0.4,0.9,0.9s-0.4,0.9-0.9,0.9c0,0,0,0,0,0
				C54.6,99.8,54.1,99.4,54.1,98.9C54.1,98.9,54.1,98.9,54.1,98.9z"/>
			<path id="Trazado_150819" class="st16" d="M54.3,104.6c0-0.5,0.4-0.9,0.9-0.9c0.5,0,0.9,0.4,0.9,0.9s-0.4,0.9-0.9,0.9
				c0,0,0,0,0,0C54.7,105.5,54.3,105.1,54.3,104.6C54.3,104.6,54.3,104.6,54.3,104.6z"/>
			<path id="Trazado_150820" class="st16" d="M54.8,111c0-0.5,0.4-0.9,0.9-0.9c0.5,0,0.9,0.4,0.9,0.9c0,0.5-0.4,0.9-0.9,0.9
				c0,0,0,0,0,0C55.2,111.9,54.8,111.5,54.8,111C54.8,111,54.8,111,54.8,111z"/>
			<path id="Trazado_150821" class="st16" d="M55.1,117.2c0-0.5,0.4-0.9,0.9-0.9c0.5,0,0.9,0.4,0.9,0.9S56.5,118,56,118c0,0,0,0,0,0
				C55.5,118.1,55.1,117.7,55.1,117.2z"/>
			<path id="Trazado_150822" class="st16" d="M55.3,122.7c0-0.5,0.4-0.9,0.9-0.9c0.5,0,0.9,0.4,0.9,0.9c0,0.5-0.4,0.9-0.9,0.9
				c0,0,0,0,0,0C55.7,123.6,55.3,123.2,55.3,122.7C55.3,122.7,55.3,122.7,55.3,122.7z"/>
			<path id="Trazado_150823" class="st16" d="M55.8,127.6c0-0.5,0.4-0.9,0.9-0.9s0.9,0.4,0.9,0.9c0,0.5-0.4,0.9-0.9,0.9c0,0,0,0,0,0
				C56.2,128.5,55.8,128.1,55.8,127.6z"/>
			<path id="Trazado_150824" class="st16" d="M56.1,133.5c0-0.5,0.4-0.9,0.9-0.9c0.5,0,0.9,0.4,0.9,0.9s-0.4,0.9-0.9,0.9
				c0,0,0,0,0,0C56.6,134.4,56.2,134,56.1,133.5C56.1,133.5,56.1,133.5,56.1,133.5z"/>
			<path id="Rectángulo_34019" class="st10" d="M68.6,121.9l-5-0.1c-1.7,0-3.1-1.4-3.1-3.2l0.2-11.6l0,0l11.3,0.2l0,0l-0.2,11.6
				C71.8,120.5,70.3,121.9,68.6,121.9z"/>
			<path id="Rectángulo_34020" class="st10" d="M49,120l-4.6-0.1c-1,0-1.9-0.9-1.8-1.9l0.1-10.5l0,0l8.4,0.1l0,0l-0.1,10.5
				C50.9,119.2,50,120,49,120z"/>
			<path id="Trazado_150825" class="st17" d="M71.1,35.3c0.9-0.3,1.4-1.2,1.2-2.1c1,0.1,1.8-0.9,2.4-1.8c0.2-0.3,0.4-0.7,0.6-1
				c0.4-0.5,0.6-1.2,0.6-1.9c-0.1-0.3-0.2-0.6-0.2-0.9c0.1-0.6,1-1,0.9-1.6c0-0.3-0.2-0.5-0.3-0.7c-0.1-0.8,1.1-1.2,1.1-2
				c0-0.4-0.4-0.7-0.4-1.1c-0.1-0.8,1-1.6,0.7-2.3c-0.1-0.2-0.3-0.4-0.5-0.6c-0.3-0.6,0.3-1.4,0.2-2.1c-0.1-0.9-1.3-1.5-1.2-2.4
				c0-0.4,0.2-0.7,0.1-1.1c-0.1-0.2-0.2-0.3-0.4-0.4L74.2,12c0.8,0.1,1.6-0.2,2.1-0.8c0.2-0.2,0.4-0.5,0.6-0.7
				c0.4-0.2,0.8-0.4,1.2-0.5c0.9-0.5,1-1.7,1-2.7c0.1-0.7-0.1-1.4-0.4-2C78.2,5,78,4.4,78.1,3.8c-0.1-0.9-0.8-1.6-1.7-1.5
				c-0.1,0-0.3,0-0.4,0.1c0.1-0.8-0.4-1.6-1.1-1.9C74.2,0.2,73.4,0,72.6,0c-0.4-0.1-0.7,0-1.1,0.1C71.2,0.2,70.9,0.6,71,1
				c-0.4,0.1-0.7,0.1-1.1,0c-0.4-0.1-0.7-0.1-1.1,0c-0.3,0.2-0.4,0.7-0.1,0.9c-0.4-0.3-0.9-0.2-1.3,0.1c-0.2,0.3-0.3,0.7,0,1.1
				C66.9,3,66.3,3,65.8,3.2c-0.5,0.3-0.6,1.1-0.1,1.3c-0.5,0.1-0.6,0.8-0.4,1.3s0.4,1.1,0,1.5c-0.7-0.3-1.4-0.5-2.1-0.5
				c-0.8,0-1.4,0.5-1.7,1.2c-0.9-0.7-2.1-0.7-3-0.1c-1-0.8-2.5-0.3-3.7,0.3l-1.3,0.6c-0.5,0.2-0.9,0.5-1.2,0.9
				c-0.7-0.1-1.5-0.1-2.2,0.1c-0.7,0.2-1.3,0.7-1.6,1.4c0,0.2-0.1,0.4-0.2,0.6c-0.1,0.1-0.3,0.2-0.5,0.3c-0.5,0.1-1.1,0.1-1.6,0.3
				c-0.5,0.1-1,0.5-1.1,1.1c0,0.4,0.1,0.7-0.1,1.1c-0.1,0.2-0.4,0.3-0.5,0.5c-0.5,0.6,0.4,1.6,0.1,2.3c-0.2,0.4-0.7,0.7-0.6,1.1
				c0,0.3,0.3,0.5,0.4,0.7c0.3,0.7-0.4,1.3-0.4,2.1c0,0.6,0.5,1.2,0.8,1.8c0.4,0.7,0.5,1.5,0.3,2.3c-0.1,0.2-0.1,0.5,0,0.7
				c0.1,0.4,0.6,0.5,0.9,0.8c0.6,0.5,0.5,1.5,0.7,2.3c0.4,1.1,1.2,2,2.1,2.7c2.7,2.4,5.8,4.5,9,6.1c3.3,1.5,7.2,2.1,10.6,0.8
				L67.9,38c1,0,1.8-0.7,2-1.7c0-0.2,0.1-0.4,0.2-0.6C70.3,35.4,70.8,35.4,71.1,35.3z"/>
			<path id="Trazado_150826" class="st11" d="M71.9,34.6c0.5,0.1-5.6,10.1-13,10.9c-6.9,0.8-11.7-13.7-11.7-13.7
				c-0.1-0.5-1.4-9.5-1.8-13.9c-0.5-4.6,21-12,26.5,0.2c0.9,1.9,0.3,12.6,0.3,12.6s2.8-2.1,3.1,1.9C75.4,33.9,71.9,34.6,71.9,34.6z"
				/>
			<path id="Trazado_150827" class="st18" d="M63.9,26.5c0.4,0.1,0.8-0.2,1-0.6c0,0.3-0.1,0.5-0.3,0.7c0.3,0.1,0.5,0,0.7-0.2
				c0,0.2-0.2,0.5-0.4,0.6c-0.2,0.1-0.5,0.2-0.7,0.2c-0.1,0-0.1,0-0.2,0c-0.1,0-0.1-0.1-0.1-0.2L63.9,26.5"/>
			<path id="Trazado_150828" class="st19" d="M61.1,28.1c-0.1-1,0.6-1.9,1.6-2c1-0.1,1.9,0.6,2,1.6c0.1,1-0.6,1.9-1.6,2
				C62.1,29.8,61.2,29.1,61.1,28.1C61.1,28.1,61.1,28.1,61.1,28.1z"/>
			<path id="Trazado_150829" class="st18" d="M49.8,28.2c-0.4,0-0.8-0.3-0.9-0.7c-0.1,0.3,0,0.6,0.2,0.8c-0.3,0.1-0.6,0-0.7-0.2
				c0,0.3,0.1,0.5,0.3,0.7c0.2,0.1,0.4,0.2,0.7,0.3c0.1,0,0.1,0,0.2,0c0.1,0,0.1-0.1,0.1-0.2l0.2-0.5"/>
			<path id="Trazado_150830" class="st19" d="M49.4,29.3c-0.1-0.9,0.6-1.7,1.5-1.8s1.7,0.6,1.8,1.5c0.1,0.9-0.6,1.7-1.5,1.8
				c0,0,0,0,0,0C50.3,30.9,49.5,30.2,49.4,29.3C49.4,29.3,49.4,29.3,49.4,29.3z"/>
			<path id="Trazado_150831" class="st20" d="M62,27.2c0-0.3,0.2-0.6,0.5-0.6s0.6,0.2,0.6,0.5c0,0.3-0.2,0.6-0.5,0.6c0,0,0,0,0,0
				C62.3,27.7,62.1,27.5,62,27.2z"/>
			<path id="Trazado_150832" class="st20" d="M49.8,29c0-0.2,0.2-0.5,0.4-0.5s0.5,0.2,0.5,0.4c0,0.2-0.2,0.5-0.4,0.5
				C50.1,29.4,49.9,29.2,49.8,29z"/>
			<path id="Trazado_150833" class="st17" d="M52.9,25.3c0,0-2.8-0.5-4.2,0.2c-0.7,0.4-1.3,0.8-1.8,1.3l1.3-2
				c1.3-0.6,2.7-0.9,4.1-0.8c0.5,0.1,0.8,0.6,0.7,1.1C52.9,25.2,52.9,25.3,52.9,25.3z"/>
			<path id="Trazado_150834" class="st17" d="M59.5,24c0,0,2.6-1,4.2-0.6c0.7,0.2,1.4,0.6,2.1,0.9l-1.7-1.7c-1.4-0.4-2.8-0.4-4.2,0
				c-0.5,0.2-0.7,0.8-0.5,1.2C59.5,23.9,59.5,23.9,59.5,24z"/>
			<path id="Trazado_150835" class="st21" d="M55.8,30.1l0.4,3.8c0,0.3-0.4,0-0.7,0c-0.4,0-0.6,0.7-0.5,1.1c0.1,0.6,0.5,0.8,2.8,0.4
				c0.3-0.1,0.4-0.3,0.4-0.6C58.2,33.3,57.9,29.1,55.8,30.1z"/>
			<path id="Trazado_150836" class="st22" d="M56.1,30l0.3,3.5c0,0-1.4-0.1-1.2,1.3c0.1,0.6,0.6,0.8,3,0.3c0.3-0.1,0.5-0.3,0.6-0.6
				c0.1-0.3,0.5-0.4-0.4-1.5C57.3,31.7,58.1,29.3,56.1,30z"/>
			<path id="Trazado_150837" class="st20" d="M55.6,34.8c0.4,0.2,0.9,0.2,1.3-0.2c0.1,0,0.1-0.1,0.1-0.2c0-0.2-0.2-0.3-0.3-0.4
				c-0.3-0.1-0.5-0.1-0.8,0c-0.3,0.2-0.4,0.5-0.3,0.8"/>
			<path id="Trazado_150838" class="st23" d="M61,31.9c-0.1,0.5,0.1,1,0.5,1.3c0.4,0.3,0.8,0.5,1.3,0.5c1.9,0.3,3.8,0.1,5.5-0.7
				c0.5-0.2,0.9-0.4,1.3-0.7c0.4-0.3,0.5-0.9,0.4-1.4c-0.2-0.5-0.6-0.8-1.1-0.9c-0.5-0.1-1-0.1-1.5,0.1l-4.6,0.7
				C62,31,61.2,31.2,61,31.9z"/>
			<path id="Trazado_150839" class="st23" d="M53,32.8c-0.3-0.1-0.6-0.1-0.9-0.1c-0.8,0-1.7,0-2.5-0.1c-0.4-0.1-0.8,0-1.1,0.2
				c-0.2,0.2-0.3,0.6-0.1,0.8c0.1,0.2,0.3,0.3,0.4,0.4c0.6,0.4,1.4,0.6,2.1,0.6c0.7,0,1.5-0.2,2.1-0.7c0.2-0.1,0.4-0.4,0.4-0.6
				C53.4,33,53.2,32.9,53,32.8z"/>
			<g id="Grupo_91807" transform="translate(54.637 36.622)">
				<path id="Trazado_150840" class="st24" d="M8.4,0.8c0,0-3-1.2-4.2-0.6C3.2,0.6,3.1,1.2,3.1,1.2C2.8,0.8,2.3,0.7,1.8,0.7
					C1.1,1,0.5,1.4,0,2c0,0,1.2,4.2,4.2,3.7C8.1,5.1,8.4,0.8,8.4,0.8z"/>
				<path id="Trazado_150841" class="st20" d="M3,4.9c0.5,0.2,1.1,0,1.5-0.3c0.1,0,0.1-0.1,0.1-0.2c0-0.1-0.2-0.1-0.3,0
					C3.9,4.5,3.3,4.6,2.8,4.4C2.7,4.6,2.8,4.8,3,4.9C3,4.9,3,4.9,3,4.9"/>
				<path id="Trazado_150842" class="st6" d="M8.4,0.7c0,0-4.6,1.8-8.4,1.3C0,2,3.1,6.6,8.4,0.7z"/>
			</g>
			<path id="Trazado_150843" class="st17" d="M69.8,23.9c0-0.3,0.2-0.7,0.1-1c-0.1-0.2-0.2-0.4-0.4-0.5c-0.4-0.5-0.6-1.1-0.5-1.8
				c0,0.6,0,1.2,0,1.8c0,0.2,0,0.4,0.1,0.5c0.1,0.1,0.2,0.2,0.3,0.3c0.3,0.4-0.1,0.9-0.2,1.3c0,0.5,0.2,1,0.4,1.3
				c0.3,0.4,0.3,0.9,0,1.3c0.3-0.2,0.2-0.6,0-0.9c-0.2-0.2-0.5-0.5-0.6-0.8c-0.2-0.5,0.2-1.1,0-1.6c-0.2-0.5-0.9-0.7-1-1.3
				c-0.1-0.4,0.2-0.8,0.1-1.2c-0.1-0.3-0.5-0.4-0.7-0.6c-0.6-0.4-0.8-1.2-0.6-1.8c-0.7,0-1.3-0.5-1.4-1.2c0-0.2,0-0.4-0.1-0.5
				c-0.1-0.1-0.2-0.3-0.4-0.4c-0.4-0.5-0.5-1.2-0.4-1.8c-0.4,0-0.7,0.1-1.1,0.1c0,0.8,0.3,1.5,0.7,2.1c-0.1-0.3-0.5-0.4-0.8-0.5
				c-0.6-0.3-0.6-1.1-0.5-1.8c-0.5,0.1-0.9-0.1-1.2-0.4c0,0.5-0.7,0.7-1.2,0.7s-1.1-0.1-1.5,0.3c-0.1,0.1-0.2,0.2-0.3,0.3
				c-0.3,0.2-0.7-0.2-1.1-0.1c-0.3,0-0.5,0.3-0.7,0.6c-0.2,0.4-0.4,0.9-0.4,1.4c0,0.1,0,0.2-0.1,0.4c-0.2,0.2-0.7,0.4-0.6,0.6
				c0.3-0.1,0.3-0.6,0.2-0.8S55.9,17.3,56,17c0.1-0.2,0.2-0.3,0.4-0.5c0.3-0.4,0.4-0.9,0.2-1.3c-0.3,0.7-1.6,0.2-2,0.9
				c-0.1,0.2-0.1,0.4-0.2,0.5c-0.4,0.4-1.2,0-1.4,0.5c0,0.1,0,0.2-0.1,0.3c-0.1,0.2-0.4,0.2-0.6,0.1c-0.2-0.1-0.4-0.2-0.7-0.2
				c-0.4,0-0.6,0.5-0.8,0.8s-0.8,0.6-1,0.2c0,0.5-0.3,0.9-0.8,1c-0.4,0.1-0.9,0-1.1,0.3c-0.2,0.3,0.2,0.8,0,1.1
				c-0.1,0.2-0.5,0.3-0.7,0.5c-0.1,0.2,0,0.4,0,0.6c-0.1,0.4-0.2,0.7-0.4,1c-0.4,1-0.6,2.2-0.5,3.3l-0.9-7c-0.6-1.7,0-3.7,1.5-4.8
				c0.9-1,1.9-1.8,2.9-2.5c1-0.6,2.1-1,3.2-1.4c5.8-1.7,12.3-1.6,17.7,1.3c0.8,0.4,1.6,1,2.3,1.7c0.8,0.9,1.4,2,1.9,3.2
				c0.4,0.9,0.7,1.9,0.8,3c0.1,1.8-0.7,3.5-1.4,5.1c-0.8,2-1.5,4.1-2,6.2c0.3-0.5-0.6-0.9-0.6-1.5c0-0.3,0.2-0.6,0.3-1
				c0.2-0.9-0.7-1.6-0.7-2.5c0-0.2,0-0.4,0-0.6C70.8,24.8,69.9,24.5,69.8,23.9z"/>
			<path id="Trazado_150844" class="st25" d="M48.4,35c2.9,0.4,5.8,0.4,8.7,0.1c4-0.5,15.3-4.8,15.3-4.8L72,31l-5.3,2.1
				c0,0,0.9,4.7,1.2,4.8l3.9-3.4c0,0,0.2,0.3-0.3,1.2S63,48.3,55.4,44.9C55.4,44.9,50,40.5,48.4,35z"/>
			<g id="Grupo_91813" transform="translate(1.782 57.784)">
				<path id="Trazado_150845" class="st19" d="M23.1,0L0.2,6C0,6.1,0,6.2,0,6.3l8,30.5c0,0.1,0.1,0.2,0.2,0.1l22.9-6
					c0.1,0,0.2-0.1,0.1-0.2c0,0,0,0,0,0l-8-30.5C23.3,0,23.2,0,23.1,0C23.1,0,23.1,0,23.1,0z"/>
				
					<rect id="Rectángulo_34021" x="5.4" y="3.6" transform="matrix(0.9672 -0.2541 0.2541 0.9672 -4.1324 4.5678)" class="st6" width="20.5" height="29.3"/>
				<g id="Grupo_91808" transform="translate(4.489 4.883)">
					<path id="Trazado_150846" class="st26" d="M16.5,0L0.1,4.3C0,4.3,0,4.4,0,4.4l0,0c0,0,0.1,0.1,0.1,0.1l16.5-4.3
						c0,0,0.1-0.1,0.1-0.1l0,0C16.6,0,16.6,0,16.5,0z"/>
					<path id="Trazado_150847" class="st26" d="M16.7,0.7L0.3,5.1c0,0-0.1,0.1-0.1,0.1l0,0c0,0,0.1,0.1,0.1,0.1l16.5-4.3
						c0,0,0.1-0.1,0.1-0.1l0,0C16.8,0.8,16.8,0.7,16.7,0.7z"/>
					<path id="Trazado_150848" class="st26" d="M16.9,1.5L0.5,5.8c0,0-0.1,0.1-0.1,0.1l0,0c0,0,0.1,0.1,0.1,0.1L17,1.7
						c0,0,0.1-0.1,0.1-0.1l0,0C17,1.5,17,1.5,16.9,1.5z"/>
					<path id="Trazado_150849" class="st26" d="M17.1,2.3L0.7,6.6c0,0-0.1,0.1-0.1,0.1l0,0c0,0,0.1,0.1,0.1,0.1l16.5-4.3
						c0,0,0.1-0.1,0.1-0.1L17.1,2.3C17.2,2.3,17.2,2.2,17.1,2.3z"/>
				</g>
				<g id="Grupo_91809" transform="translate(8.58 20.455)">
					<path id="Trazado_150850" class="st26" d="M16.5,0L0.1,4.3C0,4.3,0,4.4,0,4.4l0,0c0,0,0.1,0.1,0.1,0.1l16.5-4.3
						c0,0,0.1-0.1,0.1-0.1L16.5,0C16.6,0,16.6,0,16.5,0z"/>
					<path id="Trazado_150851" class="st26" d="M16.7,0.7L0.3,5.1c0,0-0.1,0.1-0.1,0.1l0,0c0,0,0.1,0.1,0.1,0.1l16.5-4.3
						c0,0,0.1-0.1,0.1-0.1L16.7,0.7C16.8,0.8,16.8,0.7,16.7,0.7z"/>
					<path id="Trazado_150852" class="st26" d="M16.9,1.5L0.5,5.8c0,0-0.1,0.1-0.1,0.1c0,0,0,0,0,0l0,0c0,0,0.1,0.1,0.1,0.1L17,1.7
						c0,0,0.1-0.1,0.1-0.1L16.9,1.5C17,1.5,17,1.5,16.9,1.5z"/>
					<path id="Trazado_150853" class="st26" d="M17.1,2.3L0.7,6.6c0,0-0.1,0.1-0.1,0.1l0,0c0,0,0.1,0.1,0.1,0.1c0,0,0,0,0,0
						l16.5-4.3c0,0,0.1-0.1,0.1-0.1l0,0C17.2,2.3,17.2,2.2,17.1,2.3z"/>
				</g>
				<g id="Grupo_91810" transform="translate(5.397 8.343)">
					<path id="Trazado_150854" class="st26" d="M16.5,0L0.1,4.3C0,4.3,0,4.4,0,4.4l0,0c0,0,0.1,0.1,0.1,0.1l16.5-4.3
						c0,0,0.1-0.1,0.1-0.1l0,0C16.6,0,16.6,0,16.5,0z"/>
					<path id="Trazado_150855" class="st26" d="M16.7,0.7L0.3,5.1c0,0-0.1,0.1-0.1,0.1l0,0c0,0,0.1,0.1,0.1,0.1l16.5-4.3
						c0,0,0.1-0.1,0.1-0.1l0,0C16.8,0.8,16.8,0.7,16.7,0.7z"/>
					<path id="Trazado_150856" class="st26" d="M16.9,1.5L0.5,5.8c0,0-0.1,0.1-0.1,0.1l0,0c0,0,0.1,0.1,0.1,0.1c0,0,0,0,0,0L17,1.7
						c0,0,0.1-0.1,0.1-0.1l0,0C17,1.5,17,1.5,16.9,1.5C16.9,1.5,16.9,1.5,16.9,1.5z"/>
					<path id="Trazado_150857" class="st26" d="M17.1,2.3L0.7,6.6c0,0-0.1,0.1-0.1,0.1l0,0c0,0,0.1,0.1,0.1,0.1l16.5-4.3
						c0,0,0.1-0.1,0.1-0.1l0,0C17.2,2.3,17.2,2.2,17.1,2.3C17.1,2.3,17.1,2.3,17.1,2.3z"/>
				</g>
				<g id="Grupo_91811" transform="translate(6.172 11.292)">
					<path id="Trazado_150858" class="st26" d="M16.5,0L0.1,4.3C0,4.3,0,4.4,0,4.4l0,0c0,0,0.1,0.1,0.1,0.1l16.5-4.3
						c0,0,0.1-0.1,0.1-0.1l0,0C16.6,0,16.6,0,16.5,0C16.5,0,16.5,0,16.5,0z"/>
					<path id="Trazado_150859" class="st26" d="M16.7,0.7L0.3,5.1c0,0-0.1,0.1-0.1,0.1l0,0c0,0,0.1,0.1,0.1,0.1l16.5-4.3
						c0,0,0.1-0.1,0.1-0.1l0,0C16.8,0.8,16.8,0.7,16.7,0.7z"/>
					<path id="Trazado_150860" class="st26" d="M16.9,1.5L0.5,5.8c0,0-0.1,0.1-0.1,0.1l0,0c0,0,0.1,0.1,0.1,0.1L17,1.7
						c0,0,0.1-0.1,0.1-0.1l0,0C17,1.5,17,1.5,16.9,1.5z"/>
					<path id="Trazado_150861" class="st26" d="M17.1,2.3L0.7,6.6c0,0-0.1,0.1-0.1,0.1l0,0c0,0,0.1,0.1,0.1,0.1l16.5-4.3
						c0,0,0.1-0.1,0.1-0.1l0,0C17.2,2.3,17.2,2.2,17.1,2.3z"/>
				</g>
				<g id="Grupo_91812" transform="translate(6.951 14.254)">
					<path id="Trazado_150862" class="st26" d="M16.5,0L0.1,4.3C0,4.3,0,4.4,0,4.4l0,0c0,0,0.1,0.1,0.1,0.1l16.5-4.3
						c0,0,0.1-0.1,0.1-0.1c0,0,0,0,0,0l0,0C16.6,0,16.6,0,16.5,0z"/>
					<path id="Trazado_150863" class="st26" d="M16.7,0.7L0.3,5.1c0,0-0.1,0.1-0.1,0.1l0,0c0,0,0.1,0.1,0.1,0.1l16.5-4.3
						c0,0,0.1-0.1,0.1-0.1l0,0C16.8,0.8,16.8,0.7,16.7,0.7z"/>
					<path id="Trazado_150864" class="st26" d="M16.9,1.5L0.5,5.8c0,0-0.1,0.1-0.1,0.1l0,0c0,0,0.1,0.1,0.1,0.1L17,1.7
						c0,0,0.1-0.1,0.1-0.1l0,0C17,1.5,17,1.5,16.9,1.5z"/>
					<path id="Trazado_150865" class="st26" d="M17.1,2.3L0.7,6.6c0,0-0.1,0.1-0.1,0.1l0,0c0,0,0.1,0.1,0.1,0.1l16.5-4.3
						c0,0,0.1-0.1,0.1-0.1l0,0C17.2,2.3,17.2,2.2,17.1,2.3z"/>
				</g>
				
					<rect id="Rectángulo_34022" x="9" y="1.3" transform="matrix(0.9672 -0.2541 0.2541 0.9672 -0.2646 2.9977)" class="st27" width="5" height="2.4"/>
				
					<rect id="Rectángulo_34023" x="7.7" y="3" transform="matrix(0.9672 -0.2541 0.2541 0.9672 -0.5895 3.1295)" class="st27" width="8.3" height="1.7"/>
			</g>
			<path id="Trazado_150866" class="st11" d="M74.8,113.3c0,0-4.3,8.4-5.1,9.2s-0.1,2.2,1,1.4c0.8-0.7,1.5-1.6,2-2.6l-1.1,8
				c0,0-0.3,1.1,0.5,1.4s1-1.4,1-1.4l1-5.2l0.1,5.8c0,0,0.1,1.2,0.8,1.3s0.7-1.5,0.7-1.5l0.4-5.8l0.6,5.8c0,0,0.2,1.4,1,1.4
				s0.6-2.1,0.6-2.1l-0.2-5.5l1.2,3c0,0,0.2,0.5,0.7,0.2s0.2-1,0.2-1s-0.5-9.7-1.1-11.2s-0.8-1.5-0.8-1.5l-3.2,0.3L74.8,113.3z"/>
			<path id="Trazado_150867" class="st10" d="M80,117.5l-6.8-1.2c0-0.2,3.2-17.5,3.4-26.7c0.2-9-2.8-21.3-3.7-25.2l3.6-9.9
				c1.4,0.4,7.2,25.5,7,35.3C83.3,99.4,80.1,116.7,80,117.5z"/>
		</g>
	</g>
	<g id="Grupo_128279" transform="translate(302.517 387.392)">
		<g class="st28">
			<path class="st29" d="M9,14.5v4H6.6V7.1h4.4c0.9,0,1.6,0.2,2.3,0.5s1.1,0.8,1.5,1.3c0.3,0.6,0.5,1.2,0.5,2c0,1.1-0.4,2-1.1,2.6
				c-0.8,0.6-1.8,1-3.2,1H9z M9,12.6h2.1c0.6,0,1.1-0.1,1.4-0.4c0.3-0.3,0.5-0.7,0.5-1.2c0-0.6-0.2-1-0.5-1.4S11.7,9,11.1,9H9V12.6z
				"/>
			<path class="st29" d="M21.2,14.3h-1.9v4.2H17V7.1h4.2c1.3,0,2.4,0.3,3.1,0.9c0.7,0.6,1.1,1.4,1.1,2.5c0,0.8-0.2,1.4-0.5,1.9
				s-0.8,0.9-1.5,1.2l2.5,4.6v0.1h-2.5L21.2,14.3z M19.3,12.5h1.9c0.6,0,1-0.1,1.4-0.4c0.3-0.3,0.5-0.7,0.5-1.2c0-0.5-0.2-1-0.5-1.3
				S21.8,9,21.2,9h-1.9V12.5z"/>
			<path class="st29" d="M36.5,13.1c0,1.1-0.2,2.1-0.6,2.9s-1,1.5-1.7,2s-1.6,0.7-2.5,0.7c-0.9,0-1.8-0.2-2.5-0.7s-1.3-1.1-1.7-1.9
				s-0.6-1.8-0.6-2.9v-0.6c0-1.1,0.2-2.1,0.6-3s1-1.5,1.7-2C29.9,7.2,30.7,7,31.7,7s1.8,0.2,2.5,0.7c0.7,0.5,1.3,1.1,1.7,2
				s0.6,1.8,0.6,2.9V13.1z M34.1,12.6c0-1.2-0.2-2.1-0.6-2.7s-1-0.9-1.8-0.9c-0.8,0-1.4,0.3-1.8,0.9s-0.6,1.5-0.6,2.7v0.6
				c0,1.2,0.2,2.1,0.6,2.7s1,1,1.8,1c0.8,0,1.4-0.3,1.8-0.9s0.6-1.5,0.6-2.7V12.6z"/>
			<path class="st29" d="M40.6,14.5v4h-2.3V7.1h4.4c0.9,0,1.6,0.2,2.3,0.5s1.1,0.8,1.5,1.3s0.5,1.2,0.5,2c0,1.1-0.4,2-1.1,2.6
				s-1.8,1-3.2,1H40.6z M40.6,12.6h2.1c0.6,0,1.1-0.1,1.4-0.4s0.5-0.7,0.5-1.2c0-0.6-0.2-1-0.5-1.4S43.3,9,42.7,9h-2.1V12.6z"/>
			<path class="st29" d="M57.9,13.1c0,1.1-0.2,2.1-0.6,2.9s-1,1.5-1.7,2s-1.6,0.7-2.5,0.7c-0.9,0-1.8-0.2-2.5-0.7s-1.3-1.1-1.7-1.9
				s-0.6-1.8-0.6-2.9v-0.6c0-1.1,0.2-2.1,0.6-3s1-1.5,1.7-2C51.2,7.2,52.1,7,53,7s1.8,0.2,2.5,0.7c0.7,0.5,1.3,1.1,1.7,2
				s0.6,1.8,0.6,2.9V13.1z M55.5,12.6c0-1.2-0.2-2.1-0.6-2.7s-1-0.9-1.8-0.9c-0.8,0-1.4,0.3-1.8,0.9s-0.6,1.5-0.6,2.7v0.6
				c0,1.2,0.2,2.1,0.6,2.7s1,1,1.8,1c0.8,0,1.4-0.3,1.8-0.9s0.6-1.5,0.6-2.7V12.6z M53.5,4.1H56l-2.2,2.4H52L53.5,4.1z"/>
			<path class="st29" d="M65.5,15.5c0-0.4-0.2-0.8-0.5-1s-0.9-0.5-1.7-0.8s-1.5-0.5-1.9-0.8c-1.3-0.7-1.9-1.6-1.9-2.8
				c0-0.6,0.2-1.2,0.5-1.6s0.8-0.9,1.5-1.1S62.8,7,63.7,7c0.8,0,1.5,0.1,2.2,0.4s1.1,0.7,1.5,1.2s0.5,1.1,0.5,1.8h-2.3
				c0-0.5-0.2-0.9-0.5-1.2s-0.8-0.4-1.4-0.4c-0.6,0-1,0.1-1.3,0.4s-0.5,0.6-0.5,1c0,0.4,0.2,0.7,0.6,0.9s0.9,0.5,1.6,0.7
				c1.3,0.4,2.3,0.9,2.9,1.5s0.9,1.3,0.9,2.2c0,1-0.4,1.8-1.1,2.3s-1.7,0.8-3,0.8c-0.9,0-1.7-0.2-2.4-0.5s-1.3-0.8-1.6-1.3
				s-0.6-1.2-0.6-1.9h2.4c0,1.3,0.8,1.9,2.2,1.9c0.6,0,1-0.1,1.3-0.3S65.5,15.9,65.5,15.5z"/>
			<path class="st29" d="M71.9,18.5h-2.3V7.1h2.3V18.5z"/>
			<path class="st29" d="M82.4,9h-3.5v9.5h-2.3V9h-3.4V7.1h9.3V9z"/>
			<path class="st29" d="M92.9,13.1c0,1.1-0.2,2.1-0.6,2.9s-1,1.5-1.7,2s-1.6,0.7-2.5,0.7c-0.9,0-1.8-0.2-2.5-0.7s-1.3-1.1-1.7-1.9
				s-0.6-1.8-0.6-2.9v-0.6c0-1.1,0.2-2.1,0.6-3s1-1.5,1.7-2C86.2,7.2,87.1,7,88,7s1.8,0.2,2.5,0.7c0.7,0.5,1.3,1.1,1.7,2
				s0.6,1.8,0.6,2.9V13.1z M90.5,12.6c0-1.2-0.2-2.1-0.6-2.7s-1-0.9-1.8-0.9c-0.8,0-1.4,0.3-1.8,0.9s-0.6,1.5-0.6,2.7v0.6
				c0,1.2,0.2,2.1,0.6,2.7s1,1,1.8,1c0.8,0,1.4-0.3,1.8-0.9s0.6-1.5,0.6-2.7V12.6z"/>
			<path class="st29" d="M98.6,18.5V7.1h3.5c1,0,1.9,0.2,2.7,0.7c0.8,0.5,1.4,1.1,1.8,1.9s0.7,1.8,0.7,2.8v0.5c0,1.1-0.2,2-0.7,2.8
				s-1,1.5-1.8,1.9s-1.7,0.7-2.7,0.7H98.6z M100.9,9v7.6h1.1c0.9,0,1.6-0.3,2.1-0.9s0.7-1.5,0.7-2.6v-0.6c0-1.2-0.2-2-0.7-2.6
				S103,9,102.1,9H100.9z"/>
			<path class="st29" d="M115.8,13.6h-4.5v3.1h5.3v1.9H109V7.1h7.6V9h-5.3v2.7h4.5V13.6z"/>
			<path class="st29" d="M124.3,16.6h5v1.9H122V7.1h2.3V16.6z"/>
			<path class="st29" d="M137.2,16.2h-4.1l-0.8,2.3h-2.5L134,7.1h2.2l4.3,11.4H138L137.2,16.2z M133.7,14.3h2.8l-1.4-4.3L133.7,14.3
				z"/>
		</g>
		<g class="st28">
			<path class="st3" d="M15.8,26.7h-3.7v10.1H9.6V26.7H6v-2h9.8V26.7z"/>
			<path class="st3" d="M23,34.3h-4.4l-0.8,2.5h-2.6l4.5-12.1H22l4.5,12.1h-2.6L23,34.3z M19.4,32.3h3l-1.5-4.5L19.4,32.3z"/>
			<path class="st3" d="M37.5,36.8H35l-4.8-8v8h-2.5V24.7h2.5l4.9,8v-8h2.5V36.8z"/>
			<path class="st3" d="M46.6,34.3h-4.4l-0.8,2.5h-2.6l4.5-12.1h2.3l4.5,12.1h-2.6L46.6,34.3z M42.9,32.3h3l-1.5-4.5L42.9,32.3z"/>
			<path class="st3" d="M59.4,26.7h-3.7v10.1h-2.5V26.7h-3.7v-2h9.8V26.7z"/>
			<path class="st3" d="M70.5,31c0,1.2-0.2,2.2-0.6,3.1c-0.4,0.9-1,1.6-1.8,2.1c-0.8,0.5-1.7,0.7-2.7,0.7c-1,0-1.9-0.2-2.7-0.7
				c-0.8-0.5-1.4-1.2-1.8-2.1s-0.7-1.9-0.7-3.1v-0.6c0-1.2,0.2-2.2,0.6-3.1c0.4-0.9,1-1.6,1.8-2.1c0.8-0.5,1.7-0.7,2.7-0.7
				c1,0,1.9,0.2,2.7,0.7s1.4,1.2,1.8,2.1c0.4,0.9,0.6,1.9,0.6,3.1V31z M67.9,30.5c0-1.3-0.2-2.2-0.7-2.9c-0.5-0.7-1.1-1-1.9-1
				c-0.8,0-1.5,0.3-1.9,1c-0.5,0.7-0.7,1.6-0.7,2.9V31c0,1.2,0.2,2.2,0.7,2.9c0.5,0.7,1.1,1,2,1c0.8,0,1.5-0.3,1.9-1
				c0.4-0.7,0.7-1.6,0.7-2.9V30.5z"/>
			<path class="st3" d="M74.8,32.5v4.3h-2.5V24.7H77c0.9,0,1.7,0.2,2.4,0.5c0.7,0.3,1.2,0.8,1.6,1.4c0.4,0.6,0.6,1.3,0.6,2.1
				c0,1.2-0.4,2.1-1.2,2.8c-0.8,0.7-1.9,1-3.4,1H74.8z M74.8,30.5H77c0.7,0,1.2-0.2,1.5-0.5s0.5-0.8,0.5-1.3c0-0.6-0.2-1.1-0.5-1.4
				s-0.8-0.6-1.4-0.6h-2.3V30.5z"/>
			<path class="st3" d="M87.7,32.4h-2v4.4h-2.5V24.7h4.5c1.4,0,2.5,0.3,3.3,1c0.8,0.6,1.2,1.5,1.2,2.7c0,0.8-0.2,1.5-0.5,2.1
				c-0.4,0.6-0.9,1-1.6,1.3l2.6,4.9v0.1H90L87.7,32.4z M85.7,30.4h2c0.6,0,1.1-0.2,1.5-0.5c0.3-0.3,0.5-0.8,0.5-1.3
				c0-0.6-0.2-1-0.5-1.3c-0.3-0.3-0.8-0.5-1.5-0.5h-2V30.4z"/>
			<path class="st3" d="M100.9,34.3h-4.4l-0.8,2.5h-2.6l4.5-12.1h2.3l4.5,12.1h-2.6L100.9,34.3z M97.2,32.3h3l-1.5-4.5L97.2,32.3z"
				/>
			<path class="st3" d="M109.9,28.9l2.3-4.2h2.9l-3.5,6l3.6,6.1h-2.9l-2.3-4.2l-2.3,4.2h-2.9l3.6-6.1l-3.5-6h2.9L109.9,28.9z"/>
			<path class="st3" d="M119,36.8h-2.5V24.7h2.5V36.8z"/>
			<path class="st3" d="M128.3,34.3h-4.4l-0.8,2.5h-2.6l4.5-12.1h2.3l4.5,12.1h-2.6L128.3,34.3z M124.6,32.3h3l-1.5-4.5L124.6,32.3z
				"/>
		</g>
		<rect id="Rectángulo_34968" x="0" y="0" class="st12" width="2.8" height="46.9"/>
	</g>
	<g id="Grupo_128277" transform="translate(175.5 479.211)">
		<g id="Grupo_128244" transform="translate(48.536 94.312)">
			<g id="Grupo_128221" transform="translate(24.75 2.243)">
				<path id="Trazado_165244" class="st30" d="M20.7,13.2c0,0-9.3-0.1-11.5-1.8C7.4,10.1,7.9,8.8,5,3.8C4.7,2.9,4.6,1.9,4.8,1
					C5-0.4,2.3-0.7,2.5,2.9C1.4,4.4,0.9,6.4,1.1,8.3c0.5,3.3,1.8,3.8,2,6c0.2,1.6,0,4.3,3,4.6c2.8,0.3,4.8-0.4,9.6-0.2
					s5.9-0.3,5.9-0.3L20.7,13.2z"/>
				<path id="Trazado_165245" class="st30" d="M2.2,7c0,0-0.8-1.4-1.5-1.4s-0.7,1-0.5,1.3s0.9,1,1.1,1.3S2.5,7.6,2.2,7z"/>
				<path id="Trazado_165246" class="st30" d="M3.1,3.5C2.9,2.9,2.8,2.4,2.8,1.8c0-0.4-0.2-0.7-0.6-0.7c-0.3,0-0.6,0.1-0.7,0.4
					c-0.4,0.9-0.1,2,0.6,2.6C2.7,4.3,3.4,4.2,3.1,3.5z"/>
				<path id="Trazado_165247" class="st30" d="M2.7,4.2C2.4,3.8,2.1,3.2,2,2.7c0-0.4-0.4-0.6-0.7-0.6c-0.3,0-0.5,0.3-0.6,0.5
					C0.4,3.6,1.3,5,1.8,5.1S3.1,4.9,2.7,4.2z"/>
				<path id="Trazado_165248" class="st30" d="M2.3,5.7C2,5.2,1.8,4.7,1.6,4.2C1.5,3.8,1.2,3.6,0.8,3.6c-0.3,0-0.5,0.3-0.5,0.6
					C0,5.1,1,6.5,1.5,6.6S2.7,6.4,2.3,5.7z"/>
			</g>
			<g id="Grupo_128223" transform="translate(24.065 20.937)">
				<g id="Grupo_128222">
					<path id="Trazado_165249" class="st3" d="M126.3,64.3c-0.4,0-0.8-0.1-1.2-0.3L1.6,5.3C0.2,4.6-0.4,3,0.3,1.6
						c0.7-1.4,2.3-2,3.7-1.3L127.5,59c1.4,0.7,2,2.3,1.3,3.7C128.3,63.7,127.4,64.3,126.3,64.3L126.3,64.3z"/>
				</g>
			</g>
			<g id="Grupo_128225" transform="translate(37.901 20.937)">
				<g id="Grupo_128224">
					<path id="Trazado_165250" class="st3" d="M2.8,64.3C1.2,64.3,0,63,0,61.5c0-1.1,0.6-2,1.6-2.5L125.1,0.3c1.4-0.7,3-0.1,3.7,1.3
						s0.1,3-1.3,3.7L4,64C3.6,64.2,3.2,64.3,2.8,64.3z"/>
				</g>
			</g>
			<g id="Grupo_128226" transform="translate(104.917 46.408)" class="st31">
				<path id="Trazado_165251" class="st32" d="M5.1,0L0,2.4l1.5,5.4l6.7-3.3L5.1,0z"/>
			</g>
			<g id="Grupo_128228" transform="translate(106.396 7.582)">
				<g id="Grupo_128227">
					<ellipse id="Elipse_4387" class="st32" cx="10.3" cy="7.2" rx="10.3" ry="7.2"/>
				</g>
			</g>
			<g id="Grupo_128230" transform="translate(8.302 28.259)">
				<g id="Grupo_128229">
					<path id="Trazado_165252" class="st3" d="M187.7,5.5H2.8C1.2,5.5,0,4.3,0,2.8C0,1.2,1.2,0,2.8,0h184.9c1.5,0,2.8,1.2,2.8,2.8
						C190.5,4.3,189.2,5.5,187.7,5.5L187.7,5.5z"/>
				</g>
			</g>
			<g id="Grupo_128231" transform="translate(74.296 47.484)" class="st31">
				<path id="Trazado_165253" class="st32" d="M0,1.9L6.6,5l8.6-2.1L9.2,0L0,1.9z"/>
			</g>
			<g id="Grupo_128233" transform="translate(0 20.649)">
				<g id="Grupo_128232">
					<path id="Rectángulo_35475" class="st3" d="M3.9,0h196.9c2.2,0,3.9,1.8,3.9,3.9l0,0c0,2.2-1.8,3.9-3.9,3.9H3.9
						C1.8,7.8,0,6.1,0,3.9l0,0C0,1.8,1.8,0,3.9,0z"/>
				</g>
			</g>
			<path id="Trazado_165254" class="st33" d="M43.8,33.8l-7.1,0c0,0-0.2-8.7-1.8-9.9s-5.1-1.5-7.4-3.2c0,0,16-0.2,16.3,0.1
				S45.8,31.9,43.8,33.8z"/>
			<g id="Grupo_128234" transform="translate(190.097 20.735)" class="st31">
				<path id="Trazado_165255" class="st32" d="M2,0h1.4C2.7,2.5,2.3,5,2,7.5l4.9,0.2c0,0,1.4,0.6,1.6,1.6c0,0-5.4,0.1-6.5,3.8
					l-1.8-0.1C0.2,12.9-0.9,0.1,2,0z"/>
			</g>
			<g id="Grupo_128236" transform="translate(40.611)">
				<g id="Grupo_128235">
					
						<linearGradient id="Trazado_165256_00000000221550056133457190000001757390619504182162_" gradientUnits="userSpaceOnUse" x1="-241.062" y1="332.2457" x2="-241.062" y2="331.2457" gradientTransform="matrix(151.6106 0 0 -40.8881 36623.3516 13584.8809)">
						<stop  offset="0" style="stop-color:#F5F5F5"/>
						<stop  offset="0.25" style="stop-color:#F5F5F5"/>
						<stop  offset="1" style="stop-color:#EEEEF2"/>
					</linearGradient>
					<path id="Trazado_165256" style="fill:url(#Trazado_165256_00000000221550056133457190000001757390619504182162_);" d="
						M0.9,34.4c0.3-5,0.2-10.1-0.3-15.1c-0.5-5-1.7-5.8,1.8-6C21.9,12.4,31.4,7.8,39,6.4c6.3-1.2,22.9-5.1,33.3-4.3
						C83.2,3.1,98.7,0,107.9,0c10.5,0,12.8,6.8,17.8,5.6c1.7-0.4-0.1-3.1,3.9-3.1c2.7,0,4-2,5.1-1.1c1.8,1.4,3.8,2.3,6,2.7
						c3.2,0.7,6.7,6.1,5.9,10.9c-0.7,4.1,5.2,3.5,5.1,5.4c-0.2,2.8-1.4,4.2-1.2,10.7c0.1,3.8-18.7,2.2-29.6-0.6s-18.4-1.8-25.7-0.7
						s-19.9-4.5-25.7-5.2s-25.1,4.3-32.1,3.2c-6.9-1.1-14-1-20.9,0.5C9.9,29.7-1.1,51.4,0.9,34.4z"/>
				</g>
			</g>
			<g id="Grupo_128238" transform="translate(40.45 14.961)">
				<g id="Grupo_128237">
					
						<linearGradient id="Trazado_165257_00000013151497892958611760000002411893236590943130_" gradientUnits="userSpaceOnUse" x1="-240.8958" y1="317.9365" x2="-240.8958" y2="316.9365" gradientTransform="matrix(150.9701 0 0 -45.8114 36443.5508 14565.1182)">
						<stop  offset="0" style="stop-color:#F5F5F5"/>
						<stop  offset="0.25" style="stop-color:#F5F5F5"/>
						<stop  offset="1" style="stop-color:#EEEEF2"/>
					</linearGradient>
					<path id="Trazado_165257" style="fill:url(#Trazado_165257_00000013151497892958611760000002411893236590943130_);" d="
						M129.7,4c-0.4-0.3-47.3-1-58.5-3.3S24.9,2.1,24.4,2.1S4.5,0,3.1,1.1C-0.3,3.5,1.6,6,1.2,16.5c-0.2,3.7-2.4,15.5-0.4,18.9
						c2.9,4.9,4.4,0.7,33-1c20.4-1.2,25.6-7.8,30.2-6s4.4,11.3,18.5,16.3s20.6-9.8,26-10.4s13.9,6.8,29.4,10.1s11.6-26,12.9-33.9
						S130.1,4.4,129.7,4z"/>
				</g>
			</g>
			<g id="Grupo_128240" transform="translate(89.406 19.298)">
				<g id="Grupo_128239" class="st31">
					<path id="Trazado_165258" class="st32" d="M97.6,1.8H0.9C0.4,1.8,0,1.4,0,0.9S0.4,0,0.9,0h96.7c0.5,0,0.9,0.4,0.9,0.9
						S98.1,1.8,97.6,1.8z"/>
				</g>
			</g>
			<g id="Grupo_128242" transform="translate(48.667 19.298)">
				<g id="Grupo_128241" class="st31">
					<path id="Trazado_165259" class="st32" d="M33.9,1.8h-33C0.4,1.8,0,1.4,0,0.9S0.4,0,0.9,0h33c0.5,0,0.9,0.4,0.9,0.9
						S34.4,1.8,33.9,1.8z"/>
				</g>
			</g>
			<g id="Grupo_128243" transform="translate(83.629 56.367)" class="st31">
				<path id="Trazado_165260" class="st32" d="M5.4,0l6.4,3.1L1.1,8.2L0,2.6L5.4,0z"/>
			</g>
		</g>
		<g id="Grupo_128252" transform="translate(40 85.214)">
			<g id="Grupo_128245" transform="translate(0 29.747)">
				
					<linearGradient id="Rectángulo_35476_00000121266648691598775760000004638513967956744609_" gradientUnits="userSpaceOnUse" x1="-188.5081" y1="286.0294" x2="-188.5081" y2="285.0294" gradientTransform="matrix(39.663 0 0 -7.84 7496.6289 2242.4702)">
					<stop  offset="0" style="stop-color:#F5F5F5"/>
					<stop  offset="0.25" style="stop-color:#F5F5F5"/>
					<stop  offset="1" style="stop-color:#A7B3CF"/>
				</linearGradient>
				<path id="Rectángulo_35476" style="fill:url(#Rectángulo_35476_00000121266648691598775760000004638513967956744609_);" d="
					M3.9,0h31.8c2.2,0,3.9,1.8,3.9,3.9l0,0c0,2.2-1.8,3.9-3.9,3.9H3.9C1.8,7.8,0,6.1,0,3.9l0,0C0,1.8,1.8,0,3.9,0z"/>
			</g>
			<g id="Grupo_128246" transform="translate(2.998 36.896)">
				<path id="Trazado_165261" class="st3" d="M30.4,5.5H2.8C1.2,5.5,0,4.3,0,2.8C0,1.2,1.2,0,2.8,0h27.7c1.5,0,2.8,1.2,2.8,2.8
					C33.2,4.3,32,5.5,30.4,5.5z"/>
			</g>
			<g id="Grupo_128247" transform="translate(5.996 37.357)">
				<path id="Trazado_165262" class="st3" d="M2.8,59.3C1.2,59.3,0,58,0,56.5V2.8C0,1.2,1.2,0,2.8,0c1.5,0,2.8,1.2,2.8,2.8v53.7
					C5.5,58,4.3,59.3,2.8,59.3z"/>
			</g>
			<g id="Grupo_128248" transform="translate(27.672 37.357)">
				<path id="Trazado_165263" class="st3" d="M2.8,59.3C1.2,59.3,0,58,0,56.5V2.8C0,1.2,1.2,0,2.8,0c1.5,0,2.8,1.2,2.8,2.8v53.7
					C5.5,58,4.3,59.3,2.8,59.3z"/>
			</g>
			<g id="Grupo_128249" transform="translate(5.765 4.612)">
				<path id="Rectángulo_35477" class="st2" d="M5,0h2.9c2.8,0,5,2.2,5,5v15.4c0,2.8-2.2,5-5,5H5c-2.8,0-5-2.2-5-5V5
					C0,2.2,2.2,0,5,0z"/>
			</g>
			<g id="Grupo_128250" transform="translate(8.763)">
				<path id="Rectángulo_35478" class="st3" d="M3.6,0L3.6,0c2,0,3.6,1.6,3.6,3.6V4c0,2-1.6,3.6-3.6,3.6h0C1.6,7.6,0,6,0,4V3.6
					C0,1.6,1.6,0,3.6,0z"/>
			</g>
			<g id="Grupo_128251" transform="translate(21.446 24.674)">
				<path id="Trazado_165264" class="st29" d="M18.2,2.5c0,1.4-1.5,2.5-3.2,2.5H3.2C1.5,5.1,0,3.9,0,2.5S1.5,0,3.2,0H15
					C16.8,0,18.2,1.1,18.2,2.5z"/>
			</g>
		</g>
		<g id="Grupo_128253" transform="translate(79.206 174.225)">
			<path id="Rectángulo_35479" class="st29" d="M4.3,0h12.7c2.4,0,4.3,1.9,4.3,4.3l0,0c0,2.4-1.9,4.3-4.3,4.3H4.3
				C1.9,8.5,0,6.6,0,4.3l0,0C0,1.9,1.9,0,4.3,0z"/>
		</g>
		<g id="Grupo_128254" transform="translate(189.892 174.225)">
			<path id="Rectángulo_35480" class="st29" d="M4.3,0h12.7c2.4,0,4.3,1.9,4.3,4.3l0,0c0,2.4-1.9,4.3-4.3,4.3H4.3
				C1.9,8.5,0,6.6,0,4.3l0,0C0,1.9,1.9,0,4.3,0z"/>
		</g>
		<g id="Grupo_128275" transform="translate(42.283 116.354)">
			<path id="Trazado_165270" class="st3" d="M33.7,1.8H0.9C0.4,1.8,0,1.4,0,0.9S0.4,0,0.9,0h32.7c0.5,0,0.9,0.4,0.9,0.9
				S34.2,1.8,33.7,1.8L33.7,1.8z"/>
		</g>
	</g>
</g>
</svg>
