<svg xmlns="http://www.w3.org/2000/svg" xmlns:xlink="http://www.w3.org/1999/xlink" width="81.543" height="81.543" viewBox="0 0 81.543 81.543">
  <defs>
    <radialGradient id="radial-gradient" cx="0.076" cy="0.019" r="1.465" gradientTransform="translate(0.001)" gradientUnits="objectBoundingBox">
      <stop offset="0" stop-color="#f6f6f7"/>
      <stop offset="0.477" stop-color="#f9f9fa"/>
      <stop offset="0.715" stop-color="#fff"/>
    </radialGradient>
  </defs>
  <g id="Grupo_134273" data-name="Grupo 134273" transform="translate(-553.082 -2578.303)">
    <g id="Grupo_128858" data-name="Grupo 128858" transform="translate(553.082 2578.303)">
      <g id="Grupo_18421" data-name="Grupo 18421">
        <g id="Grupo_18420" data-name="Grupo 18420">
          <g id="Grupo_18419" data-name="Grupo 18419">
            <path id="Trazado_40936" data-name="Trazado 40936" d="M276.166,2186.491a40.771,40.771,0,1,1-40.771-40.77A40.771,40.771,0,0,1,276.166,2186.491Z" transform="translate(-194.623 -2145.721)" fill="#fff"/>
          </g>
        </g>
      </g>
      <path id="Trazado_40937" data-name="Trazado 40937" d="M275.978,2186.287a40.771,40.771,0,1,0-40.771,40.772A40.61,40.61,0,0,0,275.978,2186.287Z" transform="translate(-194.435 -2145.517)" fill="url(#radial-gradient)"/>
      <path id="Trazado_40938" data-name="Trazado 40938" d="M264.735,2184.708a31.121,31.121,0,1,0-31.121,31.12A31,31,0,0,0,264.735,2184.708Z" transform="translate(-192.719 -2143.802)" fill="none" stroke="#1d272d" stroke-miterlimit="10" stroke-width="4"/>
      <g id="Grupo_18422" data-name="Grupo 18422" transform="translate(7.223 22.89)">
        <path id="Trazado_40939" data-name="Trazado 40939" d="M270.742,2164.488a40.776,40.776,0,0,1-70.2,40.6,40.647,40.647,0,0,0,70.2-40.6Z" transform="translate(-200.545 -2164.488)" fill="#eceef0"/>
      </g>
    </g>
    <g id="tcZwWo" transform="translate(-4073.223 2844.681)">
      <g id="Grupo_133727" data-name="Grupo 133727" transform="translate(4644.013 -242.23)">
        <path id="Trazado_173434" data-name="Trazado 173434" d="M4702.333-242.211c1.076,0,2.154.052,3.225-.014,1.223-.076,1.4.651,1.373,1.593s.118,1.979-1.311,1.991a4.191,4.191,0,0,0-1.115.038c-.336.1-.9.425-.877.561a2.166,2.166,0,0,0,.632,1.2,2.962,2.962,0,0,0,1.2.333,13.984,13.984,0,0,1,10.762,15.159,13.992,13.992,0,0,1-13,12.354c-7.474.268-13.54-4.54-14.726-11.673a14.044,14.044,0,0,1,9.709-15.612,23.74,23.74,0,0,0,2.3-.58c.358-.153.548-.7.813-1.076a7.4,7.4,0,0,0-.979-.666c-.189-.092-.459-.013-.693-.017-1.824-.03-2.69-1.3-1.925-2.953a1.5,1.5,0,0,1,1.1-.606c1.164-.079,2.336-.028,3.5-.028ZM4690.907-223a11.427,11.427,0,0,0,11.483,11.505,11.365,11.365,0,0,0,11.3-11.378,11.3,11.3,0,0,0-11.391-11.417A11.367,11.367,0,0,0,4690.907-223Z" transform="translate(-4675.875 242.23)" fill="#1d272b"/>
        <path id="Trazado_173435" data-name="Trazado 173435" d="M4649.233-174.825c-1.309,0-2.626.081-3.924-.044-.457-.044-.866-.595-1.3-.914.4-.3.8-.852,1.206-.864q3.995-.116,7.994,0c.4.012.789.553,1.183.85-.412.32-.8.875-1.238.917-1.3.123-2.615.044-3.924.044Z" transform="translate(-4644.013 195.097)" fill="#1d272b"/>
        <path id="Trazado_173436" data-name="Trazado 173436" d="M4657.9-152.144a26.1,26.1,0,0,1-3.212-.045c-.411-.051-.76-.6-1.136-.922.388-.307.766-.862,1.166-.878,2.142-.086,4.291-.084,6.433,0,.415.017.809.547,1.212.84-.415.334-.8.9-1.25.958A23.913,23.913,0,0,1,4657.9-152.144Z" transform="translate(-4650.876 178.805)" fill="#1d272b"/>
        <path id="Trazado_173437" data-name="Trazado 173437" d="M4657.246-197.526c-1.165,0-2.336.07-3.49-.041-.37-.036-.694-.552-1.038-.849.333-.313.658-.886,1-.9q3.63-.121,7.265-.007c.354.011.69.563,1.035.865-.379.31-.736.846-1.142.886C4659.677-197.449,4658.458-197.526,4657.246-197.526Z" transform="translate(-4650.274 211.405)" fill="#1d272b"/>
        <path id="Trazado_173438" data-name="Trazado 173438" d="M4766.721-222.715c1.545-.862,2.835-.77,3.818.2a2.564,2.564,0,0,1,.338,3.405Z" transform="translate(-4732.275 228.618)" fill="#1d272b"/>
        <path id="Trazado_173439" data-name="Trazado 173439" d="M4697.052-222.68l-4.141,3.579a2.645,2.645,0,0,1,.34-3.414C4694.185-223.454,4695.567-223.541,4697.052-222.68Z" transform="translate(-4678.85 228.597)" fill="#1d272b"/>
        <path id="Trazado_173440" data-name="Trazado 173440" d="M4734.449-192.257c-.579.575-1.131,1.548-1.891,1.754a3.231,3.231,0,0,1-2.443-.734,1.766,1.766,0,0,1-.151-2.644c1.148-1.024.965-2.2.979-3.426a10.461,10.461,0,0,1,.068-2.086,1.245,1.245,0,0,1,.881-.806c.291,0,.753.485.841.833a8.161,8.161,0,0,1,.055,1.807c.026,1.306-.3,2.686,1.041,3.663C4734.136-193.672,4734.161-193.062,4734.449-192.257Z" transform="translate(-4705.458 211.997)" fill="#1d272b"/>
      </g>
    </g>
  </g>
</svg>
