<svg xmlns="http://www.w3.org/2000/svg" xmlns:xlink="http://www.w3.org/1999/xlink" width="81.543" height="81.543" viewBox="0 0 81.543 81.543">
  <defs>
    <radialGradient id="radial-gradient" cx="0.076" cy="0.019" r="1.465" gradientTransform="translate(0.001)" gradientUnits="objectBoundingBox">
      <stop offset="0" stop-color="#f6f6f7"/>
      <stop offset="0.477" stop-color="#f9f9fa"/>
      <stop offset="0.715" stop-color="#fff"/>
    </radialGradient>
  </defs>
  <g id="Grupo_134276" data-name="Grupo 134276" transform="translate(-1176.082 -2578.303)">
    <g id="Grupo_128861" data-name="Grupo 128861" transform="translate(1176.082 2578.303)">
      <g id="Grupo_18421" data-name="Grupo 18421">
        <g id="Grupo_18420" data-name="Grupo 18420">
          <g id="Grupo_18419" data-name="Grupo 18419">
            <path id="Trazado_40936" data-name="Trazado 40936" d="M276.166,2186.491a40.771,40.771,0,1,1-40.771-40.77A40.771,40.771,0,0,1,276.166,2186.491Z" transform="translate(-194.623 -2145.721)" fill="#fff"/>
          </g>
        </g>
      </g>
      <path id="Trazado_40937" data-name="Trazado 40937" d="M275.978,2186.287a40.771,40.771,0,1,0-40.771,40.772A40.61,40.61,0,0,0,275.978,2186.287Z" transform="translate(-194.435 -2145.517)" fill="url(#radial-gradient)"/>
      <path id="Trazado_40938" data-name="Trazado 40938" d="M264.735,2184.708a31.121,31.121,0,1,0-31.121,31.12A31,31,0,0,0,264.735,2184.708Z" transform="translate(-192.719 -2143.802)" fill="none" stroke="#1d272d" stroke-miterlimit="10" stroke-width="4"/>
      <g id="Grupo_18422" data-name="Grupo 18422" transform="translate(7.223 22.89)">
        <path id="Trazado_40939" data-name="Trazado 40939" d="M270.742,2164.488a40.776,40.776,0,0,1-70.2,40.6,40.647,40.647,0,0,0,70.2-40.6Z" transform="translate(-200.545 -2164.488)" fill="#eceef0"/>
      </g>
    </g>
    <g id="_2iMSbh" data-name="2iMSbh" transform="translate(-4450.072 2991.637)">
      <g id="Grupo_133730" data-name="Grupo 133730" transform="translate(5647.99 -391.145)">
        <path id="Trazado_173447" data-name="Trazado 173447" d="M5665.918-391.145h3.307a2.165,2.165,0,0,0,.4.133c8.17,1.1,13.672,5.546,16.487,13.264a36.42,36.42,0,0,1,1.045,4.531v3.307a1.853,1.853,0,0,0-.133.4,19.463,19.463,0,0,1-13.668,16.645c-1.343.405-2.75.6-4.127.887h-3.307a2.177,2.177,0,0,0-.4-.133c-8.2-1.113-13.718-5.579-16.513-13.347a36.545,36.545,0,0,1-1.019-4.448v-3.307a2.152,2.152,0,0,0,.133-.4c1.11-8.2,5.58-13.717,13.348-16.513A36.5,36.5,0,0,1,5665.918-391.145Zm18.263,19.582a16.629,16.629,0,0,0-16.392-16.607,16.62,16.62,0,0,0-16.826,16.52,16.623,16.623,0,0,0,16.479,16.694A16.618,16.618,0,0,0,5684.182-371.563Z" transform="translate(-5647.99 391.145)" fill="#1d272b"/>
        <path id="Trazado_173448" data-name="Trazado 173448" d="M5682.2-351.375l-1.23-.608a12.933,12.933,0,0,0,0,10.772l1.192-.584,1.121,1.872-2.272,1.448c-3.15-3.639-4.208-11.437.482-17.13a14.3,14.3,0,0,1,20.065-2.182,14.274,14.274,0,0,1,2.706,19.39l-2.353-1.378,1.069-1.916,1.2.594a12.885,12.885,0,0,0,.085-10.89c-.264.126-.466.219-.666.319-.178.089-.352.186-.575.3l-1.112-1.863,1.183-.761a12.9,12.9,0,0,0-9.271-5.394c-.023.261-.045.48-.062.7-.015.2-.024.4-.04.651h-2.143l-.113-1.405-3.086.653c.189.327.3.544.435.746,1.435,2.175,2.854,4.361,4.329,6.509a3.016,3.016,0,0,0,1.206.988,4.542,4.542,0,0,1,2.688,4.878,4.5,4.5,0,0,1-4.08,3.672,4.413,4.413,0,0,1-4.507-3.111,4.716,4.716,0,0,1,.238-3.3,3.822,3.822,0,0,0,.33-1.7c-.2-2.54-.477-5.074-.734-7.609-.028-.282-.106-.559-.173-.9a12.654,12.654,0,0,0-5.982,4.648l1.116.7Zm10.49,7.178a2.259,2.259,0,0,0,2.226-2.2,2.225,2.225,0,0,0-2.268-2.232,2.2,2.2,0,0,0-2.211,2.186A2.224,2.224,0,0,0,5692.693-344.2Z" transform="translate(-5673.031 366.189)" fill="#1d272b"/>
      </g>
    </g>
  </g>
</svg>
