<svg xmlns="http://www.w3.org/2000/svg" xmlns:xlink="http://www.w3.org/1999/xlink" width="81.543" height="81.543" viewBox="0 0 81.543 81.543">
  <defs>
    <radialGradient id="radial-gradient" cx="0.076" cy="0.019" r="1.465" gradientTransform="translate(0.001)" gradientUnits="objectBoundingBox">
      <stop offset="0" stop-color="#f6f6f7"/>
      <stop offset="0.477" stop-color="#f9f9fa"/>
      <stop offset="0.715" stop-color="#fff"/>
    </radialGradient>
  </defs>
  <g id="Grupo_134277" data-name="Grupo 134277" transform="translate(-439.082 -2797.303)">
    <g id="Grupo_128858" data-name="Grupo 128858" transform="translate(439.082 2797.303)">
      <g id="Grupo_18421" data-name="Grupo 18421">
        <g id="Grupo_18420" data-name="Grupo 18420">
          <g id="Grupo_18419" data-name="Grupo 18419">
            <path id="Trazado_40936" data-name="Trazado 40936" d="M276.166,2186.491a40.771,40.771,0,1,1-40.771-40.77A40.771,40.771,0,0,1,276.166,2186.491Z" transform="translate(-194.623 -2145.721)" fill="#fff"/>
          </g>
        </g>
      </g>
      <path id="Trazado_40937" data-name="Trazado 40937" d="M275.978,2186.287a40.771,40.771,0,1,0-40.771,40.772A40.61,40.61,0,0,0,275.978,2186.287Z" transform="translate(-194.435 -2145.517)" fill="url(#radial-gradient)"/>
      <path id="Trazado_40938" data-name="Trazado 40938" d="M264.735,2184.708a31.121,31.121,0,1,0-31.121,31.12A31,31,0,0,0,264.735,2184.708Z" transform="translate(-192.719 -2143.802)" fill="none" stroke="#1d272d" stroke-miterlimit="10" stroke-width="4"/>
      <g id="Grupo_18422" data-name="Grupo 18422" transform="translate(7.223 22.89)">
        <path id="Trazado_40939" data-name="Trazado 40939" d="M270.742,2164.488a40.776,40.776,0,0,1-70.2,40.6,40.647,40.647,0,0,0,70.2-40.6Z" transform="translate(-200.545 -2164.488)" fill="#eceef0"/>
      </g>
    </g>
    <g id="nOONQ1" transform="translate(-5124.907 3557.278)">
      <g id="Grupo_133731" data-name="Grupo 133731" transform="translate(5584.966 -739.02)">
        <path id="Trazado_173449" data-name="Trazado 173449" d="M5721.012-325.114c.074.524.173,1.046.217,1.573.054.659.082,1.322.088,1.984.012,1.423.008,2.846,0,4.268a2.8,2.8,0,0,1-2.239,2.8,5.639,5.639,0,0,1-1.142.024,2.217,2.217,0,0,1-.228-.023v.9c.1.005.2.015.3.015,1.12,0,2.241,0,3.361,0a1.014,1.014,0,0,1,.222.05l-1.062,1.106-2.763.014c-.109,0-.218.006-.328.006h-6.017c-.29,0-.29,0-.291-.289s0-.573,0-.886h5.368v-1.091l-1.728-.272q-2.072-.325-4.145-.65c-.821-.13-1.638-.3-2.464-.393a14.661,14.661,0,0,0-1.7-.017.263.263,0,0,0-.157.1,5.142,5.142,0,0,1-4.063,1.8c-.9-.009-1.8.03-2.694-.018a6.361,6.361,0,0,1-2.863-.812,6.914,6.914,0,0,1-1.718-1.43v2.806c.28.022.563.048.848.065,1.332.08,2.664.156,3.995.237.255.016.509.053.764.08l1.2,1.2a.716.716,0,0,1-.146.021q-3.012-.188-6.024-.378c-.6-.038-1.2-.074-1.838-.112v-.266c0-2.477,0-4.955,0-7.432a13.892,13.892,0,0,0-.067-1.962,2.621,2.621,0,0,0-2.616-2.272c-.53-.021-1.062-.008-1.592-.014a2.265,2.265,0,0,1-.24-.027l-1.108-1.108a.8.8,0,0,1,.181-.043c.907,0,1.814-.015,2.722.008a4.031,4.031,0,0,1,2.424.831,3.7,3.7,0,0,1,1.25,1.809.245.245,0,0,0,.257.2,1.247,1.247,0,0,0,.958-.312,5.834,5.834,0,0,1,3.541-1.316,33.553,33.553,0,0,1,3.573.033,4.659,4.659,0,0,1,3.132,1.6,4.986,4.986,0,0,1,1.225,2.339c.013.057.032.112.056.191H5718.3v1.16c-.086,0-.171.011-.257.011h-6c-1.429,0-2.858,0-4.287,0-.174,0-.224.045-.254.227-.087.526-.216,1.046-.332,1.585-.013,0,.021.011.052.009a10.265,10.265,0,0,1,2.384.257c1.147.192,2.3.359,3.447.536,1.295.2,2.59.4,3.886.595.48.072.962.141,1.445.19a1.634,1.634,0,0,0,1.74-1.564c.017-1.873.01-3.746,0-5.62a6.731,6.731,0,0,0-.094-.775c-.214.06-.415.115-.615.173-.707.2-1.411.415-2.121.608-.157.043-.189.114-.186.26.009.4,0,.792,0,1.2h-1.185V-322.5c0-.317,0-.634,0-.951,0-.123.033-.175.159-.211,1.161-.329,2.319-.668,3.479-1,.329-.095.323-.09.277-.431-.052-.387-.092-.775-.134-1.162a.281.281,0,0,1,.025-.095c.135.135.267.272.4.4C5720.43-325.668,5720.722-325.392,5721.012-325.114Zm-26.073,3.585c0,.644.01,1.255,0,1.865a3.191,3.191,0,0,0,.257,1.414,5.018,5.018,0,0,0,1.03,1.5,5.012,5.012,0,0,0,3.521,1.461c.869.029,1.74.011,2.61.007a3.867,3.867,0,0,0,3.047-1.4,3.881,3.881,0,0,0,.423-4.513,3.8,3.8,0,0,0-3.426-1.983c-.848-.009-1.7-.035-2.544.009a7.84,7.84,0,0,0-1.683.27,4.381,4.381,0,0,0-2.02,1.259.382.382,0,0,1-.242.1C5695.6-321.522,5695.291-321.53,5694.938-321.53Z" transform="translate(-5683.571 344.614)" fill="#1d272b"/>
        <path id="Trazado_173450" data-name="Trazado 173450" d="M5995.509-723.158c-.354-.091-.71-.172-1.06-.276q-1.225-.366-2.445-.755a.21.21,0,0,0-.285.1,4.213,4.213,0,0,1-4.137,1.935,4.146,4.146,0,0,1-3.005-1.781c-.047-.066-.092-.133-.139-.2,0-.006-.012-.008-.038-.026-.416.138-.848.278-1.277.424-.944.321-1.886.647-2.83.968a2.374,2.374,0,0,1-.234.055l-.879-.882a2.146,2.146,0,0,1,.3-.157q2.432-.83,4.866-1.652c.178-.06.362-.105.535-.18a.255.255,0,0,0,.134-.182c.009-.737.011-1.473,0-2.21a.5.5,0,0,0-.154-.276,5.448,5.448,0,0,1-1.306-2.447,6.23,6.23,0,0,1-.178-1.31,16.791,16.791,0,0,1,.069-3.09,4.432,4.432,0,0,1,2.235-3.229,4.538,4.538,0,0,1,4.922.057,4.513,4.513,0,0,1,2.225,3.915c.027.875.021,1.754-.025,2.629a5.536,5.536,0,0,1-1.378,3.418.492.492,0,0,0-.117.29c-.009.73,0,1.46-.007,2.19a.212.212,0,0,0,.176.249c.713.208,1.422.427,2.132.645.09.028.176.068.264.1a2.77,2.77,0,0,0,.194.241C5994.546-724.109,5995.028-723.634,5995.509-723.158Zm-8.045-3.51a.337.337,0,0,1,0-.086c.085-.3.18-.59.255-.889.034-.134.094-.157.219-.14a1.145,1.145,0,0,0,.435.014,4.144,4.144,0,0,0,3.137-3.221,14.165,14.165,0,0,0,.133-3.481,2.571,2.571,0,0,0-.1-.675,3.468,3.468,0,0,0-2.5-2.533,3.518,3.518,0,0,0-4.463,3.04,24.007,24.007,0,0,0-.025,2.6,4.193,4.193,0,0,0,.654,2.264c.266.4.59.752.879,1.132a.5.5,0,0,1,.112.269c.008,1.143,0,2.286.01,3.429a.2.2,0,0,1-.164.22c-.149.047-.294.108-.447.165a3.1,3.1,0,0,0,5.013-.045,1.2,1.2,0,0,0-.25-.088c-.2-.025-.252-.127-.248-.325.014-.649.005-1.3,0-1.947,0-.076-.007-.152-.012-.254A3.387,3.387,0,0,1,5987.463-726.668Z" transform="translate(-5961.736 739.02)" fill="#1d272b"/>
        <path id="Trazado_173451" data-name="Trazado 173451" d="M5633.74-58.465c.068.366.147.73.2,1.1.143.946.266,1.9.416,2.841a1.394,1.394,0,0,0,1.466,1.168q3.71-.184,7.421-.372c1.463-.073,2.926-.156,4.39-.2a2.839,2.839,0,0,1,.847.213c.246.074.482.184.73.248a3.166,3.166,0,0,0,.712.114c.634.015,1.268.007,1.9,0a1.2,1.2,0,0,0,1.251-1.254c0-.375,0-.75,0-1.151H5651.3v-1.191c.475,0,.937,0,1.4,0a3.489,3.489,0,0,1,.637.039,1.12,1.12,0,0,1,.916,1.054,14.357,14.357,0,0,1-.032,1.678,2.336,2.336,0,0,1-2.112,1.992c-.891.032-1.784.025-2.676.005a2.528,2.528,0,0,1-.671-.193c-.343-.11-.683-.229-1.026-.337a.826.826,0,0,0-.28-.04q-2.483.115-4.965.239-2.375.118-4.748.243c-.625.032-1.252.052-1.877.1a2.569,2.569,0,0,1-2.487-1.569.305.305,0,0,0-.338-.226c-1.164.01-2.328.006-3.492,0a2.577,2.577,0,0,1-.28-.03c.207-.207.42-.409.619-.623.127-.136.234-.291.351-.437a2,2,0,0,1,.4-.086c.721-.009,1.443,0,2.165,0h.26c-.056-.418-.107-.808-.164-1.238h-1.2Z" transform="translate(-5627.305 88.582)" fill="#1d272b"/>
        <path id="Trazado_173452" data-name="Trazado 173452" d="M5591.4-167.468l-2.045,2.082-2.74.017q-.694,0-1.389,0c-.079,0-.159-.007-.261-.011,0-.362,0-.707,0-1.053,0-.157.129-.114.213-.115.56,0,1.12,0,1.68,0h3.295c.065,0,.13-.008.209-.012-.225-1.6-.447-3.181-.672-4.784h-1.114v-1.174h2.354a1.016,1.016,0,0,1,.011.16,20.458,20.458,0,0,0,.376,4.126C5591.355-167.976,5591.375-167.721,5591.4-167.468Z" transform="translate(-5584.966 197.585)" fill="#1d272b"/>
        <path id="Trazado_173453" data-name="Trazado 173453" d="M6215.17,17.709a1.865,1.865,0,0,1-.237.03q-3.281,0-6.562,0c-.044,0-.087,0-.15-.008V16.569c.079,0,.157-.01.235-.01q3.68,0,7.359,0a1.316,1.316,0,0,1,.325.086.683.683,0,0,1-.1.194C6215.756,17.135,6215.462,17.421,6215.17,17.709Z" transform="translate(-6180.639 16.879)" fill="#1d272b"/>
        <path id="Trazado_173454" data-name="Trazado 173454" d="M5970.364-49.066l-1.2-1.2c.262,0,.523,0,.784.017.742.045,1.484.1,2.228.144a.344.344,0,0,0,.225-.1c.334-.322.658-.654.989-.979a.278.278,0,0,1,.162-.091c.845-.006,1.689,0,2.552,0V-50.1h-.43c-.509,0-1.018-.007-1.525.006a.5.5,0,0,0-.3.129c-.339.317-.661.651-.994.973a.29.29,0,0,1-.187.088c-.756-.043-1.511-.1-2.267-.146A.131.131,0,0,1,5970.364-49.066Z" transform="translate(-5952.164 81.717)" fill="#1d272b"/>
        <path id="Trazado_173455" data-name="Trazado 173455" d="M6312.824-416.647q-.721-.714-1.441-1.43a2.663,2.663,0,0,1-.194-.241c.407.119.816.232,1.222.358a20.762,20.762,0,0,1,2.05.668,3.058,3.058,0,0,1,1.852,2.529c.073.494.119.993.174,1.49.01.087,0,.175.006.263-.29-.278-.582-.554-.87-.833-.137-.132-.27-.27-.4-.4-.036-.185-.065-.373-.11-.556a2.017,2.017,0,0,0-1.442-1.54C6313.381-416.433,6313.1-416.546,6312.824-416.647Z" transform="translate(-6279.051 432.51)" fill="#1d272b"/>
        <path id="Trazado_173456" data-name="Trazado 173456" d="M5589.854-308.393l1.108,1.108a.756.756,0,0,1-.146.028q-2.675,0-5.349,0c-.05,0-.1-.007-.165-.012v-1.158c.074,0,.152-.012.229-.012q2.044,0,4.089,0A1.259,1.259,0,0,1,5589.854-308.393Z" transform="translate(-5585.288 327.494)" fill="#1d272b"/>
        <path id="Trazado_173457" data-name="Trazado 173457" d="M5938.956-390.421l.879.882c-.215.088-.437.162-.644.267a1.566,1.566,0,0,0-.916,1.512c0,.28.009.56,0,.839,0,.062-.079.169-.125.171-.337.015-.676.008-1.052.008,0-.128,0-.242,0-.357a5.107,5.107,0,0,1,.138-1.618,2.829,2.829,0,0,1,1.6-1.7A.358.358,0,0,1,5938.956-390.421Z" transform="translate(-5921.51 405.85)" fill="#1d272b"/>
        <path id="Trazado_173458" data-name="Trazado 173458" d="M6365.27,17.7c.292-.288.586-.574.874-.867a.708.708,0,0,0,.1-.194,1.249,1.249,0,0,1,.313-.086c.8-.007,1.592,0,2.388,0,.036,0,.072.007.124.013v1.15a.675.675,0,0,1-.112.02q-1.745,0-3.491,0A1.236,1.236,0,0,1,6365.27,17.7Z" transform="translate(-6330.739 16.889)" fill="#1d272b"/>
        <path id="Trazado_173459" data-name="Trazado 173459" d="M5588.213,16.634c-.116.146-.224.3-.35.437-.2.214-.413.416-.619.623-.167.01-.334.028-.5.03-.477,0-.953,0-1.444,0v-1.17c.074,0,.152-.012.229-.012.787,0,1.574,0,2.361,0A1.348,1.348,0,0,1,5588.213,16.634Z" transform="translate(-5585.283 16.894)" fill="#1d272b"/>
        <path id="Trazado_173460" data-name="Trazado 173460" d="M6420.174-37.024l1.063-1.106.319-.08c0,.314,0,.589,0,.864,0,.353.063.343-.345.341C6420.865-37.007,6420.52-37.018,6420.174-37.024Z" transform="translate(-6383.213 69.223)" fill="#1d272b"/>
        <path id="Trazado_173461" data-name="Trazado 173461" d="M5992.618-238.92h1.155c0,.083.01.161.01.239,0,.73.009,1.46,0,2.189,0,.212.067.259.263.255.626-.011,1.252,0,1.94,0-.274.275-.507.521-.754.753a4.254,4.254,0,0,0-1.383,2.477c-.033.21-.049.422-.075.646H5992.6a5.319,5.319,0,0,1,.744-2.684h-.731Z" transform="translate(-5974.566 261.051)" fill="#1d272b"/>
      </g>
    </g>
  </g>
</svg>
