<svg xmlns="http://www.w3.org/2000/svg" xmlns:xlink="http://www.w3.org/1999/xlink" width="81.543" height="81.543" viewBox="0 0 81.543 81.543">
  <defs>
    <radialGradient id="radial-gradient" cx="0.076" cy="0.019" r="1.465" gradientTransform="translate(0.001)" gradientUnits="objectBoundingBox">
      <stop offset="0" stop-color="#f6f6f7"/>
      <stop offset="0.477" stop-color="#f9f9fa"/>
      <stop offset="0.715" stop-color="#fff"/>
    </radialGradient>
  </defs>
  <g id="Grupo_134279" data-name="Grupo 134279" transform="translate(-857.082 -2797.303)">
    <g id="Grupo_128860" data-name="Grupo 128860" transform="translate(857.082 2797.303)">
      <g id="Grupo_18421" data-name="Grupo 18421">
        <g id="Grupo_18420" data-name="Grupo 18420">
          <g id="Grupo_18419" data-name="Grupo 18419">
            <path id="Trazado_40936" data-name="Trazado 40936" d="M276.166,2186.491a40.771,40.771,0,1,1-40.771-40.77A40.771,40.771,0,0,1,276.166,2186.491Z" transform="translate(-194.623 -2145.721)" fill="#fff"/>
          </g>
        </g>
      </g>
      <path id="Trazado_40937" data-name="Trazado 40937" d="M275.978,2186.287a40.771,40.771,0,1,0-40.771,40.772A40.61,40.61,0,0,0,275.978,2186.287Z" transform="translate(-194.435 -2145.517)" fill="url(#radial-gradient)"/>
      <path id="Trazado_40938" data-name="Trazado 40938" d="M264.735,2184.708a31.121,31.121,0,1,0-31.121,31.12A31,31,0,0,0,264.735,2184.708Z" transform="translate(-192.719 -2143.802)" fill="none" stroke="#1d272d" stroke-miterlimit="10" stroke-width="4"/>
      <g id="Grupo_18422" data-name="Grupo 18422" transform="translate(7.223 22.89)">
        <path id="Trazado_40939" data-name="Trazado 40939" d="M270.742,2164.488a40.776,40.776,0,0,1-70.2,40.6,40.647,40.647,0,0,0,70.2-40.6Z" transform="translate(-200.545 -2164.488)" fill="#eceef0"/>
      </g>
    </g>
    <g id="Zou7Cr.tif" transform="translate(-6034.452 3583.754)">
      <g id="Grupo_133733" data-name="Grupo 133733" transform="translate(6918.87 -763.389)">
        <path id="Trazado_173463" data-name="Trazado 173463" d="M6943.784-752.115c1.15-1.366,2.149-2.558,3.155-3.744a2.028,2.028,0,0,1,3.241-.29c2,1.652,2.055,2.29.384,4.28-2.139,2.547-4.287,5.087-6.406,7.652a1.705,1.705,0,0,0-.359,1c-.024,3.917-.014,7.834-.017,11.75,0,1.446-.618,2.061-2.068,2.061q-10.4,0-20.808,0c-1.406,0-2.034-.624-2.034-2.025q0-14.971,0-29.942a1.743,1.743,0,0,1,1.98-2.007c5.686,0,11.372,0,17.057-.009a2.22,2.22,0,0,1,1.705.693q1.73,1.772,3.5,3.5a2.135,2.135,0,0,1,.673,1.642C6943.771-755.812,6943.784-754.073,6943.784-752.115Zm-1.132-5.6c-1.245,0-2.417,0-3.59,0-.824,0-.936-.116-.939-.947,0-1.172,0-2.344,0-3.533a3.1,3.1,0,0,0-.343-.046q-8.49,0-16.98-.009c-.7,0-.8.38-.8.955q.011,14.9.006,29.79c0,.869.1.972.984.972q10.33,0,20.66,0c.915,0,1-.091,1-1.025q0-5.024,0-10.048v-.817c-1.029,1.219-1.915,2.276-2.81,3.324a2.048,2.048,0,0,1-.609.574q-2.09.951-4.212,1.832a.557.557,0,0,1-.8-.676c.333-1.495.7-2.984,1.077-4.467a1.828,1.828,0,0,1,.417-.642c1.946-2.338,3.857-4.708,5.871-6.986a3.923,3.923,0,0,0,1.095-3.035C6942.58-754.213,6942.652-755.932,6942.652-757.72Zm3.646,4.367-9.663,11.522,2.365,1.984,9.664-11.518Z" transform="translate(-6918.87 763.389)"/>
        <path id="Trazado_173464" data-name="Trazado 173464" d="M6949.008-635.31h-1.552a.612.612,0,0,1-.694-.693c0-1.058,0-2.117,0-3.176a.587.587,0,0,1,.655-.656c1.059,0,2.117,0,3.176,0a.611.611,0,0,1,.694.693c0,1.058,0,2.117,0,3.176a.589.589,0,0,1-.655.657C6950.09-635.307,6949.55-635.311,6949.008-635.31Zm1.133-3.348h-2.195v2.158h2.195Z" transform="translate(-6942.797 657.4)"/>
        <path id="Trazado_173465" data-name="Trazado 173465" d="M6949.028-592.066c.495,0,.988.007,1.482,0s.751.2.75.711q0,1.553,0,3.105c0,.505-.254.72-.746.716-1.011-.007-2.022-.009-3.034,0-.541,0-.759-.258-.752-.783.012-.988.015-1.976,0-2.964-.009-.578.261-.808.819-.788C6948.04-592.053,6948.534-592.067,6949.028-592.066Zm1.055,3.382v-2.2h-2.162v2.2Z" transform="translate(-6942.767 616.424)"/>
        <path id="Trazado_173466" data-name="Trazado 173466" d="M6992.382-675.711c1.6,0,3.2,0,4.8,0,.437,0,.859.055.837.6-.019.5-.428.536-.833.535q-4.8-.007-9.606,0c-.437,0-.858-.055-.837-.6.02-.5.429-.536.833-.535C6989.18-675.707,6990.78-675.711,6992.382-675.711Z" transform="translate(-6977.096 688.177)"/>
        <path id="Trazado_173467" data-name="Trazado 173467" d="M6994.431-722.39c-.965,0-1.932.039-2.892-.026a.953.953,0,0,1-.714-.54c-.083-.424.295-.567.7-.566,1.953,0,3.905-.019,5.856.026.254.006.5.347.75.534-.244.191-.48.529-.736.546C6996.409-722.352,6995.419-722.39,6994.431-722.39Z" transform="translate(-6980.587 729.191)"/>
        <path id="Trazado_173468" data-name="Trazado 173468" d="M6949.9-732.492c.486-.964.892-1.752,1.283-2.547.189-.384.412-.764.9-.512s.3.66.107,1.035c-.488.964-.962,1.934-1.456,2.9-.342.666-.655.721-1.185.213a15.657,15.657,0,0,1-1.427-1.46c-.149-.186-.062-.562-.082-.851.289.025.656-.052.851.1A7.867,7.867,0,0,1,6949.9-732.492Z" transform="translate(-6943.89 739.579)"/>
        <path id="Trazado_173469" data-name="Trazado 173469" d="M6948.883-684.749c.455-.905.847-1.677,1.231-2.452.185-.373.386-.781.887-.547s.336.64.143,1.022c-.5.984-.982,1.977-1.489,2.957-.32.62-.64.672-1.144.193-.477-.453-.933-.928-1.4-1.39-.275-.273-.462-.577-.142-.915.354-.371.678-.17.964.129S6948.514-685.14,6948.883-684.749Z" transform="translate(-6942.83 698.56)"/>
        <path id="Trazado_173470" data-name="Trazado 173470" d="M6989.88-626.787c-.8,0-1.6,0-2.4,0-.409,0-.761-.17-.674-.594a.892.892,0,0,1,.672-.514c1.6-.046,3.2-.022,4.795-.024.41,0,.762.17.675.593a.909.909,0,0,1-.674.513C6991.482-626.746,6990.68-626.787,6989.88-626.787Z" transform="translate(-6977.14 647.179)"/>
        <path id="Trazado_173471" data-name="Trazado 173471" d="M6988.88-579.06a9.412,9.412,0,0,1-1.545-.025c-.25-.042-.455-.348-.68-.534.221-.19.434-.531.665-.544a28.471,28.471,0,0,1,3.167,0c.234.013.452.347.677.533-.221.19-.422.505-.668.544A10.382,10.382,0,0,1,6988.88-579.06Z" transform="translate(-6977.02 606.247)"/>
      </g>
    </g>
  </g>
</svg>
