<svg xmlns="http://www.w3.org/2000/svg" xmlns:xlink="http://www.w3.org/1999/xlink" width="81.543" height="81.543" viewBox="0 0 81.543 81.543">
  <defs>
    <radialGradient id="radial-gradient" cx="0.076" cy="0.019" r="1.465" gradientTransform="translate(0.001)" gradientUnits="objectBoundingBox">
      <stop offset="0" stop-color="#f6f6f7"/>
      <stop offset="0.477" stop-color="#f9f9fa"/>
      <stop offset="0.715" stop-color="#fff"/>
    </radialGradient>
  </defs>
  <g id="Grupo_134266" data-name="Grupo 134266" transform="translate(-343.082 -2355.304)">
    <g id="Grupo_91119" data-name="Grupo 91119" transform="translate(332.866 2354.088)">
      <g id="Grupo_18423" data-name="Grupo 18423" transform="translate(10.216 1.216)">
        <g id="Grupo_18421" data-name="Grupo 18421">
          <g id="Grupo_18420" data-name="Grupo 18420">
            <g id="Grupo_18419" data-name="Grupo 18419">
              <path id="Trazado_40936" data-name="Trazado 40936" d="M276.166,2186.491a40.771,40.771,0,1,1-40.771-40.77A40.771,40.771,0,0,1,276.166,2186.491Z" transform="translate(-194.623 -2145.721)" fill="#fff"/>
            </g>
          </g>
        </g>
        <path id="Trazado_40937" data-name="Trazado 40937" d="M275.978,2186.287a40.771,40.771,0,1,0-40.771,40.772A40.61,40.61,0,0,0,275.978,2186.287Z" transform="translate(-194.435 -2145.517)" fill="url(#radial-gradient)"/>
        <path id="Trazado_40938" data-name="Trazado 40938" d="M264.735,2184.708a31.121,31.121,0,1,0-31.121,31.12A31,31,0,0,0,264.735,2184.708Z" transform="translate(-192.719 -2143.802)" fill="none" stroke="#1d272d" stroke-miterlimit="10" stroke-width="4"/>
        <g id="Grupo_18422" data-name="Grupo 18422" transform="translate(7.223 22.89)">
          <path id="Trazado_40939" data-name="Trazado 40939" d="M270.742,2164.488a40.776,40.776,0,0,1-70.2,40.6,40.647,40.647,0,0,0,70.2-40.6Z" transform="translate(-200.545 -2164.488)" fill="#eceef0"/>
        </g>
      </g>
      <g id="X3eSo4" transform="translate(-7236.993 1987.265)">
        <g id="Grupo_133111" data-name="Grupo 133111" transform="translate(7274.552 -1963.336)">
          <path id="Trazado_170487" data-name="Trazado 170487" d="M7301.3-1945.554h-1.069v-.457c0-4.457-.032-8.914.016-13.37a2.837,2.837,0,0,0-2.9-2.889c-4.8.029-9.6.011-14.408.011h-.376c.058.418.122.8.162,1.187a6.843,6.843,0,0,1-.216,2.831,4.79,4.79,0,0,1-4.089,3.277,5.786,5.786,0,0,1-2.48-.129c-.09-.022-.184-.033-.314-.055v.407c0,6.888.021,13.776-.015,20.664a2.839,2.839,0,0,0,2.95,2.926c2.216-.029,4.433-.007,6.649-.008h.446v1.069h-.384q-3.379,0-6.757,0a3.8,3.8,0,0,1-3.959-3.961q0-10.8.007-21.593a.775.775,0,0,1,.177-.5q3.463-3.489,6.954-6.949a.867.867,0,0,1,.555-.221c5.041-.012,10.082.01,15.123-.018a3.883,3.883,0,0,1,3.946,3.947c-.052,4.468-.015,8.938-.015,13.406Zm-25.156-10.519a4.689,4.689,0,0,0,4.693-1.144c1.141-1.3,1.038-2.84.847-4.322Z" transform="translate(-7274.552 1963.336)" fill="#1d272b"/>
          <path id="Trazado_170488" data-name="Trazado 170488" d="M7478.057-1690.3a6.519,6.519,0,0,1-.325.829.871.871,0,0,0,.007.936,1.7,1.7,0,0,1-.054,2.036,1.829,1.829,0,0,1-.564.481,1,1,0,0,0-.554.991,1.645,1.645,0,0,1-.4,1.151,1.622,1.622,0,0,1-1.321.6,1.064,1.064,0,0,0-1.021.563,1.66,1.66,0,0,1-2.423.643,1.071,1.071,0,0,0-1.1,0,1.668,1.668,0,0,1-2.449-.659,1.06,1.06,0,0,0-.958-.545,1.667,1.667,0,0,1-1.772-1.771,1.068,1.068,0,0,0-.542-.959,1.665,1.665,0,0,1-.659-2.446,1.081,1.081,0,0,0-.005-1.1,1.664,1.664,0,0,1,.67-2.444,1.068,1.068,0,0,0,.539-.962,1.641,1.641,0,0,1,1.708-1.756,1.216,1.216,0,0,0,1.068-.618,1.625,1.625,0,0,1,2.308-.63,1.227,1.227,0,0,0,1.263,0,1.618,1.618,0,0,1,2.311.62,1.235,1.235,0,0,0,1.1.629,1.625,1.625,0,0,1,1.679,1.7,1.122,1.122,0,0,0,.624,1.062A1.764,1.764,0,0,1,7478.057-1690.3Zm-.476-.036a1.271,1.271,0,0,0-.655-1.23,1.461,1.461,0,0,1-.823-1.383,1.2,1.2,0,0,0-1.352-1.318,1.419,1.419,0,0,1-1.307-.759,1.19,1.19,0,0,0-1.786-.521,1.57,1.57,0,0,1-1.611.017,1.205,1.205,0,0,0-1.813.516,1.4,1.4,0,0,1-1.278.745c-.915.016-1.351.426-1.375,1.335a1.51,1.51,0,0,1-.8,1.361,1.187,1.187,0,0,0-.473,1.769,1.5,1.5,0,0,1,.009,1.58,1.2,1.2,0,0,0,.471,1.8,1.368,1.368,0,0,1,.78,1.329,1.567,1.567,0,0,0,.039.355,1.192,1.192,0,0,0,1,.979,3.606,3.606,0,0,1,.672.071,2.492,2.492,0,0,1,.723.4,2.233,2.233,0,0,1,.349.492,1.2,1.2,0,0,0,1.515.426,2.507,2.507,0,0,1,.55-.249,3.073,3.073,0,0,1,.858,0,1.95,1.95,0,0,1,.484.223,1.162,1.162,0,0,0,1.586-.445,1.656,1.656,0,0,1,1.527-.908,1.128,1.128,0,0,0,1.22-1.211,1.643,1.643,0,0,1,.9-1.529,1.178,1.178,0,0,0,.421-1.649c-.031-.064-.06-.13-.1-.191a1.229,1.229,0,0,1-.011-1.318A4.855,4.855,0,0,0,7477.581-1690.339Z" transform="translate(-7450.115 1715.317)" fill="#1d272b"/>
          <path id="Trazado_170489" data-name="Trazado 170489" d="M7576.213-1500.117c-.524,0-.952-.021-1.376.01a1.032,1.032,0,0,0-.53.209c-.335.263-.641.565-1.01.9-.7-1.756-1.388-3.478-2.1-5.257a2.255,2.255,0,0,0,2.963-1C7574.848-1503.545,7575.512-1501.878,7576.213-1500.117Z" transform="translate(-7549.988 1538.018)" fill="#1d272b"/>
          <path id="Trazado_170490" data-name="Trazado 170490" d="M7489.639-1509.7a2.39,2.39,0,0,0,2.793,1.458l-1.716,4.481c-.371-.321-.708-.632-1.068-.913a.892.892,0,0,0-.47-.181c-.438-.024-.879-.008-1.389-.008C7488.4-1506.47,7489-1508.027,7489.639-1509.7Z" transform="translate(-7472.542 1542.136)" fill="#1d272b"/>
          <path id="Trazado_170491" data-name="Trazado 170491" d="M7363.97-1738.576v.756h-16.294v-.756Z" transform="translate(-7342.447 1754.647)" fill="#1d272b"/>
          <path id="Trazado_170492" data-name="Trazado 170492" d="M7347.569-1784.069v-.749h16.3v.749Z" transform="translate(-7342.348 1797.583)" fill="#1d272b"/>
          <path id="Trazado_170493" data-name="Trazado 170493" d="M7347.586-1830.346v-.752h16.3v.752Z" transform="translate(-7342.364 1840.553)" fill="#1d272b"/>
          <path id="Trazado_170494" data-name="Trazado 170494" d="M7536.22-1494.409q1.109,2.783,2.219,5.565c.134.334-.2.338-.318.6-.68-1.71-1.321-3.324-2-5.025-.566,1.476-1.1,2.868-1.634,4.261-.437-.2-.45-.234-.3-.626q.856-2.232,1.713-4.463a2.516,2.516,0,0,1,.211-.361Z" transform="translate(-7515.543 1527.983)" fill="#1d272b"/>
          <path id="Trazado_170495" data-name="Trazado 170495" d="M7353.093-1692.222c.06.792.06.784-.653.781-1.522-.005-3.044,0-4.566,0-.747,0-.747,0-.643-.78Z" transform="translate(-7341.989 1711.608)" fill="#1d272b"/>
          <path id="Trazado_170496" data-name="Trazado 170496" d="M7347.667-1598.9v-.759h5.871v.759Z" transform="translate(-7342.439 1625.663)" fill="#1d272b"/>
          <path id="Trazado_170497" data-name="Trazado 170497" d="M7353.611-1645.8v.742h-5.875v-.742Z" transform="translate(-7342.503 1668.502)" fill="#1d272b"/>
          <path id="Trazado_170498" data-name="Trazado 170498" d="M7617.953-1509.11l.526-.033c.705,1.776,1.406,3.541,2.112,5.321-.37.132-.546.038-.684-.321-.587-1.533-1.208-3.052-1.816-4.577C7618.048-1508.829,7618.013-1508.94,7617.953-1509.11Z" transform="translate(-7593.399 1541.619)" fill="#1d272b"/>
          <path id="Trazado_170499" data-name="Trazado 170499" d="M7474.368-1505.109h-.546l1.844-4.829.516.092Z" transform="translate(-7459.573 1542.357)" fill="#1d272b"/>
          <path id="Trazado_170500" data-name="Trazado 170500" d="M7488.98-1678.451a1.949,1.949,0,0,1-.153.382,1.781,1.781,0,0,0-.013,1.988.92.92,0,0,1,.13.637,1.046,1.046,0,0,1-.443.562,1.881,1.881,0,0,0-1,1.725c-.014.652-.255.883-.905.887a1.822,1.822,0,0,0-1.672.961c-.347.578-.669.666-1.252.341a1.824,1.824,0,0,0-1.927,0c-.59.331-.915.25-1.254-.328a1.856,1.856,0,0,0-1.738-.973.739.739,0,0,1-.844-.836,1.886,1.886,0,0,0-1.026-1.783.728.728,0,0,1-.315-1.145,1.9,1.9,0,0,0-.009-2.088.738.738,0,0,1,.276-1.108,6.009,6.009,0,0,0,.628-.468,1.77,1.77,0,0,0,.436-1.285c.038-.63.242-.873.876-.885a1.9,1.9,0,0,0,1.748-1.024.749.749,0,0,1,1.182-.3,1.858,1.858,0,0,0,1.991.005.755.755,0,0,1,1.2.316,1.866,1.866,0,0,0,1.687,1c.694.016.9.224.918.911a1.814,1.814,0,0,0,1,1.686A.85.85,0,0,1,7488.98-1678.451Zm-6.288-3.978a5.361,5.361,0,0,0-5.354,5.338,5.372,5.372,0,0,0,5.352,5.381,5.366,5.366,0,0,0,5.369-5.4A5.359,5.359,0,0,0,7482.692-1682.429Z" transform="translate(-7461.971 1703.384)" fill="#1d272b"/>
          <path id="Trazado_170501" data-name="Trazado 170501" d="M7526.63-1633.629c-.07.1-.12.179-.179.252-1.228,1.5-2.459,3-3.681,4.506-.18.222-.315.225-.519.033q-1.209-1.137-2.439-2.252c-.22-.2-.228-.351-.015-.554a8.542,8.542,0,0,0,.605-.655c.158-.185.292-.2.472-.021.394.38.812.735,1.2,1.119.216.212.354.2.542-.037.813-1.011,1.639-2.01,2.461-3.014.352-.43.353-.43.794-.068.193.158.389.314.577.478A1.764,1.764,0,0,1,7526.63-1633.629Z" transform="translate(-7502.117 1658.09)" fill="#1d272b"/>
        </g>
      </g>
    </g>
  </g>
</svg>
