<svg xmlns="http://www.w3.org/2000/svg" xmlns:xlink="http://www.w3.org/1999/xlink" width="81.543" height="81.543" viewBox="0 0 81.543 81.543">
  <defs>
    <radialGradient id="radial-gradient" cx="0.076" cy="0.019" r="1.465" gradientTransform="translate(0.001)" gradientUnits="objectBoundingBox">
      <stop offset="0" stop-color="#f6f6f7"/>
      <stop offset="0.477" stop-color="#f9f9fa"/>
      <stop offset="0.715" stop-color="#fff"/>
    </radialGradient>
  </defs>
  <g id="Grupo_134269" data-name="Grupo 134269" transform="translate(-758.082 -2355.303)">
    <g id="Grupo_134268" data-name="Grupo 134268">
      <g id="Grupo_128859" data-name="Grupo 128859" transform="translate(758.082 2355.303)">
        <g id="Grupo_18421" data-name="Grupo 18421">
          <g id="Grupo_18420" data-name="Grupo 18420">
            <g id="Grupo_18419" data-name="Grupo 18419">
              <path id="Trazado_40936" data-name="Trazado 40936" d="M276.166,2186.491a40.771,40.771,0,1,1-40.771-40.77A40.771,40.771,0,0,1,276.166,2186.491Z" transform="translate(-194.623 -2145.721)" fill="#fff"/>
            </g>
          </g>
        </g>
        <path id="Trazado_40937" data-name="Trazado 40937" d="M275.978,2186.287a40.771,40.771,0,1,0-40.771,40.772A40.61,40.61,0,0,0,275.978,2186.287Z" transform="translate(-194.435 -2145.517)" fill="url(#radial-gradient)"/>
        <path id="Trazado_40938" data-name="Trazado 40938" d="M264.735,2184.708a31.121,31.121,0,1,0-31.121,31.12A31,31,0,0,0,264.735,2184.708Z" transform="translate(-192.719 -2143.802)" fill="none" stroke="#1d272d" stroke-miterlimit="10" stroke-width="4"/>
        <g id="Grupo_18422" data-name="Grupo 18422" transform="translate(7.223 22.89)">
          <path id="Trazado_40939" data-name="Trazado 40939" d="M270.742,2164.488a40.776,40.776,0,0,1-70.2,40.6,40.647,40.647,0,0,0,70.2-40.6Z" transform="translate(-200.545 -2164.488)" fill="#eceef0"/>
        </g>
      </g>
      <g id="iaFtAT.tif" transform="translate(781.081 2378.094)">
        <g id="Grupo_128163" data-name="Grupo 128163">
          <path id="Trazado_165151" data-name="Trazado 165151" d="M482.051,27.588a.876.876,0,0,1-.382-.833q.022-2.488,0-4.975a1.066,1.066,0,0,1,.346-.829q3.687-3.669,7.364-7.351a2.489,2.489,0,0,1,.338-.242l-.06-.1c-.09-.026-.18-.055-.271-.077a3.174,3.174,0,0,1-1.651-5.168c.074-.085.155-.165.235-.245l4.3-4.3.834.874c-.071.077-.158.177-.251.27-1.368,1.369-2.746,2.727-4.1,4.109a1.948,1.948,0,1,0,2.833,2.672q2.936-2.929,5.866-5.862,2.359-2.359,4.72-4.716A2.959,2.959,0,0,1,502.5.56l-.054-.09a2.586,2.586,0,0,0-.276-.024c-1.205.019-2.413-.008-3.614.075a4.837,4.837,0,0,0-3.037,1.433c-.435.416-.841.862-1.273,1.309l-.839-.88c1.575-1.889,3.447-3.23,6.08-3.149,1.293.04,2.589,0,3.883.013a.786.786,0,0,0,.625-.253c1.227-1.242,2.466-2.472,3.715-3.721l.834.912-8.489,8.485h.425c1.508,0,3.016.006,4.524-.009a.779.779,0,0,0,.489-.195q4.346-4.209,8.673-8.438a1.947,1.947,0,0,0-.583-3.3A1.781,1.781,0,0,0,511.8-7a14.8,14.8,0,0,0-1.413,1.345c-.281.284-.531.6-.836.945l-.87-1.039a29.829,29.829,0,0,1,2.463-2.268,3.085,3.085,0,0,1,4.18.528,3.185,3.185,0,0,1-.156,4.23c-.676.709-1.4,1.374-2.1,2.057-.126.122-.26.235-.475.428h5.256V.444h-.394c-1.923,0-3.845,0-5.768.007a.734.734,0,0,0-.467.157c-1.342,1.288-2.67,2.589-4,3.888-.035.034-.064.074-.13.151H511.8V5.873h-.429q-5.429,0-10.858,0a2.414,2.414,0,1,0-.031,4.823q3.412.02,6.824-.006a1.177,1.177,0,0,1,1,.465,14.753,14.753,0,0,0,3.5,3.234,11.77,11.77,0,0,0,5.695,1.73c.088,0,.176.007.263.014a.344.344,0,0,1,.083.036v1.2c-.726-.074-1.45-.1-2.157-.229a12.47,12.47,0,0,1-7.611-4.429,2.057,2.057,0,0,0-1.842-.834c-1.971.065-3.946.054-5.918,0a1.492,1.492,0,0,0-1.226.5c-1.17,1.176-2.346,2.347-3.565,3.47a1.928,1.928,0,0,0,2.7,2.758c.877-.846,1.729-1.719,2.59-2.581.905-.906,1.809-1.812,2.729-2.734l.8.914c-.027.029-.114.129-.208.222-1.652,1.653-3.311,3.3-4.956,4.96a1.949,1.949,0,1,0,2.792,2.715q2.457-2.447,4.9-4.906a1.767,1.767,0,0,0,.216-.341l1.009.972a2.309,2.309,0,0,0-.362.242q-2.484,2.474-4.959,4.957a1.945,1.945,0,0,0,.355,3.074,1.837,1.837,0,0,0,2.362-.37c.607-.652,1.195-1.322,1.826-2.023l.91.818c-.687.753-1.345,1.5-2.026,2.216a3.526,3.526,0,0,1-1.613.841h-1.056a.534.534,0,0,0-.123-.071,3.107,3.107,0,0,1-2.4-2.6,6.468,6.468,0,0,1-.052-.927,3.3,3.3,0,0,1-3.624-3.644A3.362,3.362,0,0,1,495,19.723a3.294,3.294,0,0,1-1.25-2.074,1.146,1.146,0,0,0-.631,1.165,14.763,14.763,0,0,1,0,1.994,1.1,1.1,0,0,1-.26.661q-1.505,1.556-3.058,3.066a10.371,10.371,0,0,1-4.719,2.68c-.578.149-1.168.249-1.752.372Zm14.7-19.624c-.117.106-.173.153-.225.205q-6.728,6.726-13.45,13.458a.765.765,0,0,0-.193.486c-.016,1.293-.009,2.587-.008,3.88,0,.11.011.22.018.355a9.352,9.352,0,0,0,5.961-2.6c.983-.934,1.929-1.907,2.88-2.874a.729.729,0,0,0,.184-.453c.019-.74.025-1.482,0-2.222a1.1,1.1,0,0,1,.373-.892c1.952-1.884,3.891-3.781,5.838-5.67a2.068,2.068,0,0,1,.371-.227A3.776,3.776,0,0,1,496.754,7.964Z" transform="translate(-481.668 8.606)" fill="#1d272b"/>
          <path id="Trazado_165153" data-name="Trazado 165153" d="M831.717,351.468l-.9-.815c.732-.812,1.436-1.612,2.168-2.385a.844.844,0,0,1,.546-.174c.891-.024,1.787.027,2.674-.037a5.4,5.4,0,0,0,3.958-2.148l.968.726a6.736,6.736,0,0,1-3.567,2.427,8.824,8.824,0,0,1-2.99.212,1.574,1.574,0,0,0-1.5.67C832.666,350.481,832.178,350.957,831.717,351.468Z" transform="translate(-804.439 -319.129)" fill="#1d272b"/>
          <path id="Trazado_165154" data-name="Trazado 165154" d="M860.053,43.334l.781-.752,1.178,1.181-.776.746Z" transform="translate(-831.47 -38.715)" fill="#1d272b"/>
          <path id="Trazado_165155" data-name="Trazado 165155" d="M838.027,67.619l-.78.757-1.185-1.182.783-.761Z" transform="translate(-809.292 -60.765)" fill="#1d272b"/>
          <path id="Trazado_165156" data-name="Trazado 165156" d="M814.341,92.008l-.732.736-1.194-1.2.765-.71Z" transform="translate(-787.43 -83.325)" fill="#1d272b"/>
          <path id="Trazado_165157" data-name="Trazado 165157" d="M789.18,116.956l-1.078-1.083.817-.724,1.044,1.07Z" transform="translate(-764.954 -105.801)" fill="#1d272b"/>
          <path id="Trazado_165158" data-name="Trazado 165158" d="M764.414,138.818l.756-.811,1.19,1.192-.771.788Z" transform="translate(-743.056 -126.932)" fill="#1d272b"/>
          <path id="Trazado_165159" data-name="Trazado 165159" d="M511.738,358.514l-.362-1.086c.033-.043.045-.074.064-.08a13.138,13.138,0,0,0,4.477-3.052c.611-.542,1.228-1.076,1.873-1.639l.783.893a2.128,2.128,0,0,1-.174.194c-1.126.984-2.245,1.975-3.382,2.944A9.56,9.56,0,0,1,511.738,358.514Z" transform="translate(-509.132 -325.367)" fill="#1d272b"/>
          <path id="Trazado_165160" data-name="Trazado 165160" d="M661.406,244.228l-1.159-1.155.795-.754,1.176,1.176Z" transform="translate(-646.757 -223.364)" fill="#1d272b"/>
          <path id="Trazado_165161" data-name="Trazado 165161" d="M638.426,266.993l-.75.8-1.193-1.187.773-.792Z" transform="translate(-624.788 -245.089)" fill="#1d272b"/>
        </g>
      </g>
    </g>
  </g>
</svg>
