<svg xmlns="http://www.w3.org/2000/svg" xmlns:xlink="http://www.w3.org/1999/xlink" width="81.543" height="81.543" viewBox="0 0 81.543 81.543">
  <defs>
    <radialGradient id="radial-gradient" cx="0.076" cy="0.019" r="1.465" gradientTransform="translate(0.001)" gradientUnits="objectBoundingBox">
      <stop offset="0" stop-color="#f6f6f7"/>
      <stop offset="0.477" stop-color="#f9f9fa"/>
      <stop offset="0.715" stop-color="#fff"/>
    </radialGradient>
  </defs>
  <g id="Grupo_134270" data-name="Grupo 134270" transform="translate(-971.082 -2355.303)">
    <g id="Grupo_128860" data-name="Grupo 128860" transform="translate(971.082 2355.303)">
      <g id="Grupo_18421" data-name="Grupo 18421">
        <g id="Grupo_18420" data-name="Grupo 18420">
          <g id="Grupo_18419" data-name="Grupo 18419">
            <path id="Trazado_40936" data-name="Trazado 40936" d="M276.166,2186.491a40.771,40.771,0,1,1-40.771-40.77A40.771,40.771,0,0,1,276.166,2186.491Z" transform="translate(-194.623 -2145.721)" fill="#fff"/>
          </g>
        </g>
      </g>
      <path id="Trazado_40937" data-name="Trazado 40937" d="M275.978,2186.287a40.771,40.771,0,1,0-40.771,40.772A40.61,40.61,0,0,0,275.978,2186.287Z" transform="translate(-194.435 -2145.517)" fill="url(#radial-gradient)"/>
      <path id="Trazado_40938" data-name="Trazado 40938" d="M264.735,2184.708a31.121,31.121,0,1,0-31.121,31.12A31,31,0,0,0,264.735,2184.708Z" transform="translate(-192.719 -2143.802)" fill="none" stroke="#1d272d" stroke-miterlimit="10" stroke-width="4"/>
      <g id="Grupo_18422" data-name="Grupo 18422" transform="translate(7.223 22.89)">
        <path id="Trazado_40939" data-name="Trazado 40939" d="M270.742,2164.488a40.776,40.776,0,0,1-70.2,40.6,40.647,40.647,0,0,0,70.2-40.6Z" transform="translate(-200.545 -2164.488)" fill="#eceef0"/>
      </g>
    </g>
    <g id="Grupo_127499" data-name="Grupo 127499" transform="translate(2125.191 2568.069)">
      <path id="Trazado_160166" data-name="Trazado 160166" d="M-1112.223-185.566h2.112c-.027-.308-.048-.6-.077-.885a8.447,8.447,0,0,1,.268-3.675,2.857,2.857,0,0,1,1-1.445,2.2,2.2,0,0,1,2.336-.175,1.452,1.452,0,0,1,.818,1.1c.006.029.011.059.017.088,0,0,.008.007.013.01a1.441,1.441,0,0,1,2.229.773,1.565,1.565,0,0,1,1.412.142,1.1,1.1,0,0,1,.529,1.275,1.416,1.416,0,0,1,1.357.379,1.607,1.607,0,0,1,.252,1.371,1.622,1.622,0,0,1,1.819,2.08,11.836,11.836,0,0,1-.679,1.547,2.209,2.209,0,0,0-.239,1.337,9.448,9.448,0,0,1-.238,3.722c-.377,1.557-.8,3.1-1.241,4.645a26.432,26.432,0,0,0-.718,3.913,37.212,37.212,0,0,1-.979,5.4,7.824,7.824,0,0,1-1.381,2.931,3.94,3.94,0,0,1-2.151,1.371.137.137,0,0,0-.081.06h14.889v4.781h-40.8v-4.771h12.1l.008-.029c-.13-.062-.258-.127-.389-.186a4.065,4.065,0,0,1-1.685-1.508,9.562,9.562,0,0,1-1.167-2.664,32.6,32.6,0,0,1-1.027-4.862,33.118,33.118,0,0,0-1.546-6.083,24.322,24.322,0,0,1-1.02-3.881,8.906,8.906,0,0,1-.074-2.641,1.75,1.75,0,0,0-.257-1.015c-.243-.5-.53-.973-.738-1.482a1.649,1.649,0,0,1,.951-2.212,2.577,2.577,0,0,1,.74-.117,1.6,1.6,0,0,1,.23-1.343,1.4,1.4,0,0,1,1.33-.407,1.1,1.1,0,0,1,.48-1.293,1.542,1.542,0,0,1,1.407-.195,1.448,1.448,0,0,1,2.179-.87,5.5,5.5,0,0,1,.3-.716,1.694,1.694,0,0,1,1.322-.742,2.289,2.289,0,0,1,2.442,1.4,5.7,5.7,0,0,1,.567,2.493c.012.672-.033,1.346-.062,2.018a2.3,2.3,0,0,0,.354,1.284,5.923,5.923,0,0,1,.759,1.724,6.725,6.725,0,0,1,.054,2.315,49.658,49.658,0,0,0-.557,6.628,16.535,16.535,0,0,0,.757,5.278,18.029,18.029,0,0,1,.813,3.171,7.955,7.955,0,0,1-.156,3.661,3.293,3.293,0,0,1-2.025,2.2.608.608,0,0,0-.083.053h6.792c-.025-.023-.037-.044-.054-.048a3.344,3.344,0,0,1-2.394-2.445,7.738,7.738,0,0,1-.232-3c.017-.191.033-.383.051-.593h-.646Zm-3.989-1.454.036,0c-.049-.6-.08-1.2-.153-1.794a3.813,3.813,0,0,0-.491-1.478,1.621,1.621,0,0,0-1.638-.923,1.087,1.087,0,0,0-1.111,1.233,3.576,3.576,0,0,0,.109.674c.169.626.37,1.243.529,1.871a2.34,2.34,0,0,1,.05.745.543.543,0,0,1-.485.444.508.508,0,0,1-.527-.381,2.144,2.144,0,0,1-.1-.456c-.043-.461-.066-.924-.11-1.384a2.572,2.572,0,0,0-.286-1.071.775.775,0,0,0-1.022-.3c-.295.11-.394.349-.327.766a7.656,7.656,0,0,0,.537,1.581,5.311,5.311,0,0,1,.273.853.423.423,0,0,1-.27.512.511.511,0,0,1-.614-.17,1.253,1.253,0,0,1-.2-.42c-.078-.333-.114-.675-.19-1.008a6.942,6.942,0,0,0-.267-.93.424.424,0,0,0-.493-.282c-.282.057-.585.107-.706.422a.6.6,0,0,0,.007.337,1.934,1.934,0,0,0,.171.453c.245.448.508.885.755,1.332a1.734,1.734,0,0,1,.289.988.673.673,0,0,1-.494.578c-.269.046-.461-.073-.577-.4-.1-.271-.15-.557-.237-.831a9.061,9.061,0,0,0-.34-.965.562.562,0,0,0-.641-.356.587.587,0,0,0-.519.756,7.109,7.109,0,0,0,.613,1.839c.131.309.256.621.363.939a.46.46,0,0,1-.133.49.506.506,0,0,1-.6-.047,1.229,1.229,0,0,1-.278-.411c-.117-.308-.186-.633-.3-.944a4.548,4.548,0,0,0-.3-.669.307.307,0,0,0-.419-.146,1.192,1.192,0,0,0-.7.776,1.329,1.329,0,0,0,.185.934c.2.393.414.773.613,1.164a2.243,2.243,0,0,1,.3,1.351,9.266,9.266,0,0,0,.242,3.329,42.915,42.915,0,0,0,1.236,4.159,23.28,23.28,0,0,1,.977,3.817,52.151,52.151,0,0,0,1.016,5.233,11.532,11.532,0,0,0,1.015,2.748,3.708,3.708,0,0,0,1.92,1.8,5.644,5.644,0,0,0,3.2.143,2.706,2.706,0,0,0,2.14-2.192,8.322,8.322,0,0,0,.007-3.42,17.184,17.184,0,0,0-.734-2.727,16.728,16.728,0,0,1-.79-5.111,46.7,46.7,0,0,1,.548-7.007,7.009,7.009,0,0,0,.021-1.906,5.066,5.066,0,0,0-.76-1.854,2.728,2.728,0,0,1-.417-1.526C-1116.276-186.253-1116.24-186.637-1116.212-187.021Zm12.709,20.994v-19.2a.879.879,0,0,0-.1-.013c-1.234,0-2.467,0-3.7.005a1.208,1.208,0,0,0-.362.136c.1.072.15.109.2.152a.9.9,0,0,1,.165,1.091.817.817,0,0,1-.934.369.83.83,0,0,1-.585-.935.8.8,0,0,1,.883-.719,1.415,1.415,0,0,0,.294-.046l-.008-.044h-4.247v19.2Zm11.909,7.077H-1131.1v3.5h39.506Zm-19.325-6.75a9.759,9.759,0,0,0-.068,2.36,4.712,4.712,0,0,0,.462,1.694,2.589,2.589,0,0,0,1.817,1.407,6.435,6.435,0,0,0,2.331.058,3.465,3.465,0,0,0,2.193-1.173,5.9,5.9,0,0,0,1.055-1.935,27.755,27.755,0,0,0,1.116-5.261c.126-.862.223-1.728.346-2.591a24.283,24.283,0,0,1,.793-3.271,34.34,34.34,0,0,0,1.153-4.757,7.373,7.373,0,0,0,.04-2.3,2.805,2.805,0,0,1,.293-1.811c.2-.4.4-.794.569-1.205a1.037,1.037,0,0,0-.505-1.436c-.264-.156-.451-.118-.6.158a3.623,3.623,0,0,0-.245.635c-.1.322-.161.653-.265.973a1.029,1.029,0,0,1-.238.374.507.507,0,0,1-.586.083.425.425,0,0,1-.186-.487,1.36,1.36,0,0,1,.06-.244c.17-.449.351-.894.514-1.346a3.708,3.708,0,0,0,.3-1.4.519.519,0,0,0-.52-.555.645.645,0,0,0-.7.5c-.137.4-.222.809-.332,1.213a4.142,4.142,0,0,1-.176.584.465.465,0,0,1-.757.2c-.035-.024-.071-.046-.132-.086V-165.7Zm2.924-19.87c.228,0,.457.005.685,0a.222.222,0,0,0,.163-.078c.146-.254.281-.515.413-.777a.132.132,0,0,0-.015-.122.855.855,0,0,1-.188-.875c.1-.475.238-.942.357-1.413a4.5,4.5,0,0,0,.2-1.545.926.926,0,0,0-.5-.806,1.607,1.607,0,0,0-1.912.355,3.554,3.554,0,0,0-.772,1.946,9.718,9.718,0,0,0-.012,2.193,1.054,1.054,0,0,0,.292.639c.068.076.143.147.207.226a.641.641,0,0,0,.626.263A3.31,3.31,0,0,1-1107.995-185.569Zm4.686-.008a1.594,1.594,0,0,1,.187-1c.068-.147.149-.288.221-.433.219-.44.464-.87.647-1.325.2-.486.031-.747-.478-.872-.023-.006-.047-.009-.071-.013a.5.5,0,0,0-.59.264,1.667,1.667,0,0,0-.165.454c-.073.407-.11.822-.19,1.227a2.717,2.717,0,0,1-.233.711.5.5,0,0,1-.636.182.475.475,0,0,1-.269-.536,1.091,1.091,0,0,1,.045-.211c.169-.481.359-.955.507-1.443a4.69,4.69,0,0,0,.186-.985c.025-.317-.141-.484-.452-.554a.786.786,0,0,0-1.024.62,5.674,5.674,0,0,0-.179,1.5c-.01.336-.02.674-.061,1.007-.052.43-.3.668-.727.523-.01,0-.023,0-.031,0l-.465.88Zm-4.7.768a.477.477,0,0,0-.489.506.481.481,0,0,0,.5.516.478.478,0,0,0,.487-.528A.467.467,0,0,0-1108.013-184.809Zm-1.471-.773h.548l-.548-.593Z" fill="#1d272b"/>
    </g>
  </g>
</svg>
