<svg xmlns="http://www.w3.org/2000/svg" xmlns:xlink="http://www.w3.org/1999/xlink" width="417.787" height="443.002" viewBox="0 0 417.787 443.002">
  <defs>
    <linearGradient id="linear-gradient" x1="0.5" x2="0.5" y2="1" gradientUnits="objectBoundingBox">
      <stop offset="0" stop-color="#f5f5f5"/>
      <stop offset="0.25" stop-color="#f5f5f5"/>
      <stop offset="1" stop-color="#eeeef2"/>
    </linearGradient>
    <radialGradient id="radial-gradient" cx="0.5" cy="0.5" r="0.5" gradientUnits="objectBoundingBox">
      <stop offset="0" stop-color="#f6f6f7"/>
      <stop offset="0.477" stop-color="#f9f9fa"/>
      <stop offset="0.715" stop-color="#fff"/>
    </radialGradient>
    <linearGradient id="linear-gradient-2" x1="0.5" x2="0.5" y2="1" gradientUnits="objectBoundingBox">
      <stop offset="0" stop-color="#f5f5f5"/>
      <stop offset="0.25" stop-color="#f5f5f5"/>
      <stop offset="1" stop-color="#a7b3cf"/>
    </linearGradient>
    <linearGradient id="linear-gradient-6" x1="0.5" x2="0.5" y2="1" gradientUnits="objectBoundingBox">
      <stop offset="0" stop-color="#fff"/>
      <stop offset="1" stop-color="#f8f8f8"/>
    </linearGradient>
  </defs>
  <g id="Grupo_134233" data-name="Grupo 134233" transform="translate(-274.291 -5834)">
    <g id="Grupo_131737" data-name="Grupo 131737" transform="translate(274.291 5834)">
      <path id="Trazado_151846" data-name="Trazado 151846" d="M438.419,524.728C454,496.87,458.437,460.716,450.185,428.79c-5.217-20.184-15.23-38.936-16.51-59.984-2.56-42.083,29.714-76.1,36.409-117.551,2.943-18.215-.268-39.436-12.882-50.5-12.459-10.928-30.242-8.7-44.348-1.044s-26.041,19.9-39.584,28.862-30.219,14.494-44.52,7.365c-14.486-7.221-22.7-25.422-27.307-43.16s-6.862-36.632-14.717-52.7c-12.947-26.486-40.551-40.928-66.275-37.191s-48.708,24.208-61.036,51.1-14.483,59.422-8.346,89.127c3.113,15.065,8.241,29.493,11.038,44.645s3.052,31.736-3.19,45.384c-13.055,28.539-47.5,32.519-65.531,56.993C78.5,410.335,78.032,441.161,86.48,466s24.323,45,40.152,64.172c73.83,2.928,148.984,3.122,222.814,6.049C378.14,537.361,409.758,526.718,438.419,524.728Z" transform="translate(-80.961 -96.306)" fill="#a4a4b4" opacity="0.354" style="mix-blend-mode: multiply;isolation: isolate"/>
      <path id="Trazado_151847" data-name="Trazado 151847" d="M359.21,189.647c-.215,23.038,21.685,43.088,17.873,65.809-2.038,12.157-11.3,24.48-5.917,35.569,4.763,9.812,18.4,11.513,28.834,8.323,24.415-7.469,39.254-32.425,46.351-56.951,6.675-23.069,8.332-48.837-2.358-70.343-8.615-17.327-28.49-32.623-48.673-31.208C376.834,142.142,359.372,172.294,359.21,189.647Z" transform="translate(-33.9 -43.301)" fill="#a4a4b4" opacity="0.31" style="mix-blend-mode: multiply;isolation: isolate"/>
      <path id="Trazado_151848" data-name="Trazado 151848" d="M119.317,156.02c-16.308,27.209-17.044,63.071-1.864,90.925,4.8,8.8,11.275,17,20.022,21.9s20.032,5.986,28.738,1.02c13.2-7.532,16.124-25.3,15.073-40.463s-4.487-31.064,1.353-45.1c3.807-9.148,11.117-16.281,17.6-23.772s12.538-16.236,12.873-26.14c.868-25.672-26.387-23.754-42.812-18.422C149.333,122.775,130.687,137.051,119.317,156.02Z" transform="translate(-72.929 -93.055)" fill="#a4a4b4" opacity="0.31" style="mix-blend-mode: multiply;isolation: isolate"/>
      <g id="Grupo_107069" data-name="Grupo 107069" transform="translate(9.124 0.001)" style="mix-blend-mode: multiply;isolation: isolate">
        <path id="Trazado_151849" data-name="Trazado 151849" d="M432.263,532.177l-1.582-1.71c4.354-5.632,11.3-18.541,8.951-41.751-1.047-10.332-3.643-20.538-6.153-30.408-1.121-4.409-2.28-8.969-3.293-13.5-10.8-48.31-6.074-101.6,12.957-146.21,1.69-3.959,3.519-7.931,5.289-11.772,5.245-11.387,10.669-23.162,13-35.882,4.09-22.321-4-39.051-13.238-45.149-8.868-5.853-21.386-4.959-34.342,2.455a161.186,161.186,0,0,0-13.8,9.235c-5.887,4.239-11.974,8.622-18.511,11.725-25.716,12.21-57.868,1.833-74.786-24.133-8.131-12.478-12.722-27.559-17.161-42.144-1.72-5.651-3.5-11.5-5.455-17.088-6.084-17.386-17.221-39.21-35.72-44.43-16.255-4.589-32.718,5.5-43.664,14.765-20.943,17.733-35.706,41.75-41.571,67.623-3.954,17.448-4.113,36.438-4.267,54.8-.229,27.35-.466,55.631-13.517,78.407-5.937,10.361-14.1,18.628-22,26.624-7.4,7.487-15.044,15.23-20.745,24.615-12.918,21.265-16.085,51.37-8.688,82.6,6.647,28.058,20.2,52.954,33.3,77.031l-1.8,1.371c-13.189-24.233-26.827-49.292-33.561-77.718-7.574-31.974-4.29-62.87,9.01-84.762,5.852-9.634,13.6-17.476,21.09-25.062,7.79-7.886,15.845-16.042,21.62-26.119,12.689-22.144,12.912-48.794,13.148-77.01.156-18.524.316-37.677,4.342-55.437,5.992-26.438,21.048-50.952,42.392-69.028,11.308-9.575,28.365-19.979,45.408-15.168,19.379,5.469,30.927,27.993,37.2,45.926,1.976,5.647,3.764,11.52,5.492,17.2,4.384,14.4,8.915,29.291,16.842,41.455,16.354,25.1,47.434,35.131,72.293,23.328,6.37-3.024,12.381-7.352,18.2-11.537a162.49,162.49,0,0,1,13.98-9.353c13.592-7.777,26.829-8.65,36.318-2.388,9.911,6.54,18.611,24.32,14.289,47.9-2.4,13.076-7.9,25.014-13.215,36.559-1.761,3.824-3.583,7.777-5.257,11.7-18.8,44.062-23.463,96.7-12.8,144.419,1,4.487,2.157,9.025,3.273,13.415,2.537,9.974,5.16,20.286,6.231,30.836C444.213,512.629,436.862,526.228,432.263,532.177Z" transform="translate(-87.906 -97.739)" fill="#a4a4b4"/>
      </g>
    </g>
    <g id="Grupo_131738" data-name="Grupo 131738" transform="translate(0 -3)">
      <g id="Grupo_128292" data-name="Grupo 128292" transform="translate(582.038 6045.426)">
        <g id="Grupo_127882" data-name="Grupo 127882" transform="translate(0 2.27)">
          <g id="Grupo_127710" data-name="Grupo 127710" transform="translate(0.028)">
            <path id="Trazado_163858" data-name="Trazado 163858" d="M197,362.4a14.571,14.571,0,0,1-2.271.467,48.733,48.733,0,0,1-.417-6.958c.138-2.771.346-3.546.992-4.9l.331-.481a6,6,0,0,1,1.13,1.91,16.428,16.428,0,0,1,.548,7.127C197.118,361.65,197,362.4,197,362.4Z" transform="translate(-193.806 -350.037)" fill="#1d272b"/>
            <path id="Trazado_163859" data-name="Trazado 163859" d="M194.595,359.471l2.148-.388s-.04.333-.179.434a3.919,3.919,0,0,1-1.25.353,1.033,1.033,0,0,1-.625-.133C194.6,359.693,194.595,359.471,194.595,359.471Z" transform="translate(-193.684 -346.66)" fill="#fff"/>
            <path id="Trazado_163860" data-name="Trazado 163860" d="M194.583,363.533a2,2,0,0,0,.213-1.441c-.078-.865-.183-2.369-.183-2.369a1.58,1.58,0,0,0,.99.126c.6-.074.953-.137,1.394-1.116a24.674,24.674,0,0,0-.3,4.386,2.821,2.821,0,0,1,.1.55Z" transform="translate(-193.689 -346.799)" fill="#1d272b"/>
            <path id="Trazado_163861" data-name="Trazado 163861" d="M195.228,350.711l.389-.533a11.375,11.375,0,0,1,1.578,6,52.741,52.741,0,0,1-.393,6.262c-.042.42-.258,3.525-.262,3.794s.073.692.265.77a.383.383,0,0,1-.423-.042s-.022-2.225.145-3.8.46-6.587.357-7.777a10.6,10.6,0,0,0-1-3.815A5.521,5.521,0,0,0,195.228,350.711Z" transform="translate(-193.434 -350.178)" fill="#cde3e8"/>
            <g id="Grupo_127709" data-name="Grupo 127709" transform="translate(0 16.323)">
              <g id="Grupo_127708" data-name="Grupo 127708">
                <path id="Trazado_163862" data-name="Trazado 163862" d="M194.431,362.453c.059-.086.138-.071.375-.141a.666.666,0,0,0,.407-.384,4.688,4.688,0,0,1,.83-.049,9.779,9.779,0,0,0,1.437.53c.172.033.384-.045.412.128a67.362,67.362,0,0,1,.239,7.394c-.141,3.174-.5,12.2-.522,14.54s.239,6.237.317,7.332.02,1.242-.3,1.5-3.147.262-3.634-.232a12.058,12.058,0,0,1,.047-2.282,106.685,106.685,0,0,0,.213-15.637,33.114,33.114,0,0,1-.213-5.672C194.1,365.824,194.431,362.453,194.431,362.453Z" transform="translate(-193.941 -361.879)" fill="#1d272b"/>
                <path id="Trazado_163863" data-name="Trazado 163863" d="M197.868,383.506c-.08.791-.183.921-.414,1.077a6.873,6.873,0,0,1-3.511-.142.771.771,0,0,0,.047.374c.487.5,3.3.466,3.633.232s.379-.4.3-1.5Z" transform="translate(-193.942 -353.335)" fill="#cde3e8"/>
              </g>
            </g>
          </g>
          <g id="Grupo_127711" data-name="Grupo 127711" transform="translate(0 0.53)">
            <path id="Trazado_163864" data-name="Trazado 163864" d="M195.278,351.038c-.646,1.349-.855,2.127-.992,4.9a48.834,48.834,0,0,0,.416,6.96,1.531,1.531,0,0,0,1.037.2l-.13-12.537Z" transform="translate(-193.787 -350.558)" fill="#cde3e8"/>
            <path id="Trazado_163865" data-name="Trazado 163865" d="M194.786,362.332c-.237.071-.317.054-.375.14,0,0-.332,3.373-.395,7.03a33.114,33.114,0,0,0,.213,5.672,106.47,106.47,0,0,1-.213,15.638,12.008,12.008,0,0,0-.046,2.282,3.983,3.983,0,0,0,2.033.4V361.9a4.237,4.237,0,0,0-.81.047A.659.659,0,0,1,194.786,362.332Z" transform="translate(-193.922 -346.077)" fill="#1d272b"/>
          </g>
        </g>
        <g id="Grupo_127883" data-name="Grupo 127883" transform="translate(38.732 3.77)">
          <path id="Trazado_163866" data-name="Trazado 163866" d="M221.5,389.365c-2.415,0-4.373,2.319-4.373,5.178s1.959,5.18,4.373,5.18,4.373-2.319,4.373-5.18S223.915,389.365,221.5,389.365Zm0,9a3.871,3.871,0,1,1,3.224-3.817A3.556,3.556,0,0,1,221.5,398.36Z" transform="translate(-217.125 -354.629)" fill="#1d272b"/>
          <path id="Trazado_163867" data-name="Trazado 163867" d="M224.543,403.471l.921-17.264s.97-7.6,1.342-9.093c.614-2.454,3.2-11.566,2.973-12.142s-.921-.114-1.267,1.152-3.316,10.913-3.316,10.913l-1.689,7.789-1.381,12.2-2.07,2.992,2.762,1.382Z" transform="translate(-215.967 -364.362)" fill="#1d272b"/>
          <path id="Trazado_163868" data-name="Trazado 163868" d="M229.173,389.117c-2.418,0-4.376,2.319-4.376,5.178s1.959,5.18,4.376,5.18,4.372-2.317,4.372-5.18S231.587,389.117,229.173,389.117Zm0,9a3.871,3.871,0,1,1,3.22-3.817C232.393,396.4,230.952,398.112,229.173,398.112Z" transform="translate(-214.094 -354.727)" fill="#1d272b"/>
          <path id="Trazado_163869" data-name="Trazado 163869" d="M225.758,404.034l-1.553-14.384-1.841-1.152,1.035-12.085s2.856-11.268,3.492-11.775c.575-.46,1.151-.078.614,2.225-.3,1.278-2.147,9.744-2.147,9.744l2.07,21.56,2.706.689a8.627,8.627,0,0,0-2.937,2.3A19.644,19.644,0,0,0,225.758,404.034Z" transform="translate(-215.055 -364.465)" fill="#1d272b"/>
          <path id="Trazado_163870" data-name="Trazado 163870" d="M224.92,380.854a.921.921,0,1,1-.919-.921A.921.921,0,0,1,224.92,380.854Z" transform="translate(-214.773 -358.355)" fill="#cde3e8"/>
        </g>
        <g id="Grupo_127884" data-name="Grupo 127884" transform="translate(21.732 2.273)">
          <path id="Trazado_163871" data-name="Trazado 163871" d="M218.947,355.772c0-3.09-2.115-5.593-4.725-5.593s-4.722,2.5-4.722,5.593,2.115,5.591,4.722,5.591S218.947,358.86,218.947,355.772Zm-1.243,0c0,2.275-1.558,4.121-3.482,4.121s-3.478-1.846-3.478-4.121,1.557-4.121,3.478-4.121S217.7,353.495,217.7,355.772Z" transform="translate(-209.5 -350.179)" fill="#1d272b"/>
          <path id="Trazado_163872" data-name="Trazado 163872" d="M217.511,354.81l.995,18.647s.649,7.1.589,8.755c-.174,4.747-.095,13.074-.23,13.733-.173.834-.575.639-.633-.778-.087-2.073-.575-12.207-.575-12.207l-1.264-8.012-1.49-13.175-2.239-3.234,2.985-1.491Z" transform="translate(-208.25 -348.35)" fill="#1d272b"/>
          <path id="Trazado_163873" data-name="Trazado 163873" d="M227.234,356.039c0-3.09-2.115-5.594-4.725-5.594s-4.722,2.5-4.722,5.594,2.115,5.593,4.722,5.593S227.234,359.126,227.234,356.039Zm-1.244,0c0,2.275-1.557,4.121-3.481,4.121s-3.479-1.846-3.479-4.121,1.56-4.122,3.479-4.122S225.99,353.762,225.99,356.039Z" transform="translate(-206.226 -350.074)" fill="#1d272b"/>
          <path id="Trazado_163874" data-name="Trazado 163874" d="M218.763,354.362,217.085,369.9l-1.988,1.243,1.119,13.051s.516,10.445.564,11.322c.088,1.6.5,1.642.82-1.684.134-1.409.73-9.845.73-9.845l2.236-23.289,2.921-.742a9.335,9.335,0,0,1-3.169-2.486A21.273,21.273,0,0,1,218.763,354.362Z" transform="translate(-207.289 -348.526)" fill="#1d272b"/>
          <path id="Trazado_163875" data-name="Trazado 163875" d="M217.919,367.955a.994.994,0,1,0-.993.992A.993.993,0,0,0,217.919,367.955Z" transform="translate(-206.96 -343.55)" fill="url(#linear-gradient)"/>
        </g>
        <g id="Grupo_127885" data-name="Grupo 127885" transform="translate(11.906 0)">
          <g id="Grupo_127724" data-name="Grupo 127724">
            <g id="Grupo_127723" data-name="Grupo 127723">
              <path id="Trazado_163876" data-name="Trazado 163876" d="M210.641,383.753c0,.47-1.627.769-3.635.781s-3.635-.271-3.638-.741,1.628-.714,3.637-.728S210.641,383.285,210.641,383.753Z" transform="translate(-202.096 -334.915)" fill="#fff"/>
              <path id="Trazado_163877" data-name="Trazado 163877" d="M210.646,383.544c-.237.425-1.807.714-3.648.725-2.009.011-3.655-.243-3.655-.738,0-.006.015.633.015.633h0c.017.493,1.643.784,3.638.774s3.619-.321,3.63-.813h0v-.006h0A5.109,5.109,0,0,0,210.646,383.544Z" transform="translate(-202.106 -334.731)" fill="#1d272b"/>
              <g id="Grupo_127715" data-name="Grupo 127715" transform="translate(2.899 28.022)">
                <path id="Trazado_163878" data-name="Trazado 163878" d="M206.675,389.568l-1.327.011-.007-4.027a10.713,10.713,0,0,1-.716-2.838c-.064-1.187-.067-1.187-.092-14.077,0,0,1.076.057,2.023.053C206.581,381.206,206.675,389.568,206.675,389.568Z" transform="translate(-204.534 -368.637)" fill="#1d272b"/>
                <path id="Trazado_163879" data-name="Trazado 163879" d="M205.91,368.865l1.906-.039s.151,13.537.106,14.324a16.967,16.967,0,0,1-.46,2.239c0,.6.043,4.11.043,4.11l-1.461.146Z" transform="translate(-203.99 -368.562)" fill="#1d272b"/>
              </g>
              <path id="Trazado_163880" data-name="Trazado 163880" d="M209.127,368.559l-4.908.026c-.036,0-.07.057-.07.128s.034.127.07.127h.211l-.01.393h-.211a.076.076,0,0,0-.068.084c0,.052.033.127.073.127h.209l.007.315h-.206a.088.088,0,0,0-.073.094c0,.05.033.095.073.093l4.908-.027c.036,0,.067-.043.067-.092s-.032-.095-.067-.095h-.212V369.4h.213c.036,0,.067-.039.067-.091s-.032-.095-.07-.095l-.211,0v-.4h.211c.036,0,.071-.057.071-.127S209.163,368.559,209.127,368.559Z" transform="translate(-201.79 -340.645)" fill="#fff"/>
              <path id="Trazado_163881" data-name="Trazado 163881" d="M203.727,385.034l-.036-23.986a.17.17,0,0,1,.17-.173h0l5.845-.032a.172.172,0,0,1,.121.049h0a.17.17,0,0,1,.049.121h0l.059,23.928a.176.176,0,0,1-.075.139h0a2.5,2.5,0,0,1-1.12.286h0a18.8,18.8,0,0,1-1.9.1h0a14.388,14.388,0,0,1-1.987-.086h0a6.479,6.479,0,0,1-1.009-.186h0a.216.216,0,0,1-.07-.04h0a.171.171,0,0,1-.052-.121Zm.342-.133a7.614,7.614,0,0,0,.83.141h0a13.692,13.692,0,0,0,1.938.084h0a18.356,18.356,0,0,0,1.864-.1h0a3.465,3.465,0,0,0,.773-.146h0c.052-.02.088-.031.117-.045h0l-.054-23.653-5.5.033.038,23.685Z" transform="translate(-201.968 -343.693)" fill="#1d272b"/>
              <path id="Trazado_163882" data-name="Trazado 163882" d="M203.7,361.743l-.013-.033.011-.047a.324.324,0,0,1,.081-.148h0a.934.934,0,0,1,.381-.2h0c.417-.107,1.1-.2,1.455-.308h0a.807.807,0,0,0,.156-.053h0c.011-.306.036-1.7.036-1.708h0v-.165l2.041-.013v.172s.006,1.3.018,1.677h.006c.042.017.1.036.179.061h0c.149.043.35.092.561.137h0a3.4,3.4,0,0,1,1.2.346h0a.237.237,0,0,1,.081.155h0l.007.061v10.648h0v.172l-6.156.038-.043-10.795Zm.382,10.453,5.476-.036,0-10.453,0-.011a5.983,5.983,0,0,0-1.016-.243h0a2.932,2.932,0,0,1-.953-.3h0l-.013-.017h0a.147.147,0,0,1-.046-.1h0c-.015-.151-.018-1.2-.021-1.615h0l-1.366.006c-.008.427-.029,1.526-.031,1.606h0a.224.224,0,0,1-.067.149h0a1.888,1.888,0,0,1-.809.269h0c-.346.068-.738.135-.986.2h0a.834.834,0,0,0-.212.093h0l.043,10.459Z" transform="translate(-201.968 -344.394)" fill="#1d272b"/>
              <path id="Trazado_163883" data-name="Trazado 163883" d="M206.2,358.925l-.379.005-.014-10.381.382.929Z" transform="translate(-201.133 -348.55)" fill="#fff"/>
              <path id="Trazado_163884" data-name="Trazado 163884" d="M206.768,356.4s-.068-.278-.084-.321l-.089.015-.113.205,0,1.833a.2.2,0,0,1-.386,0l-.006-1.807-.13-.225s-.081-.031-.092-.021a1.524,1.524,0,0,0-.089.351.674.674,0,0,0-.167.038,10.306,10.306,0,0,0,.063,1.554c.031.212-.2.441-.3.649s-.306,2.366-.306,2.42c0,0,.2.005,1.226.026.893-.007,1.17-.036,1.17-.036-.006-.059-.16-2.2-.259-2.413s-.353-.459-.324-.671a9.825,9.825,0,0,0,.045-1.564A.554.554,0,0,0,206.768,356.4Z" transform="translate(-201.421 -345.573)" fill="#fff"/>
              <path id="Trazado_163885" data-name="Trazado 163885" d="M205.691,356.168c0-.133.153-.248.342-.248s.349.11.349.241c0,0-.177.014-.367.013S205.691,356.168,205.691,356.168Z" transform="translate(-201.178 -345.638)" fill="#fff"/>
              <path id="Trazado_163886" data-name="Trazado 163886" d="M207.752,359.7c0,.053-.054.095-.126.1l-2.6.015a.115.115,0,0,1-.126-.1h0c0-.053.057-.1.126-.1l2.6-.015a.115.115,0,0,1,.126.1Z" transform="translate(-201.492 -344.184)" fill="#fff"/>
              <g id="Grupo_127716" data-name="Grupo 127716" transform="translate(2.815 18.54)">
                <path id="Trazado_163887" data-name="Trazado 163887" d="M204.526,361.933c-.028,0-.052-.015-.052-.038h0c0-.024.024-.039.05-.039h0l3.09-.017c.028,0,.05.017.05.036h0a.048.048,0,0,1-.052.042h0l-3.087.015Z" transform="translate(-204.474 -361.84)" fill="#fff" opacity="0.92"/>
                <path id="Trazado_163888" data-name="Trazado 163888" d="M204.533,364.885c-.029,0-.053-.018-.052-.039h0a.047.047,0,0,1,.05-.041h0l3.09-.017a.044.044,0,0,1,.047.039h0c0,.024-.021.039-.047.039h0l-3.089.018Z" transform="translate(-204.471 -360.675)" fill="#fff" opacity="0.92"/>
                <path id="Trazado_163889" data-name="Trazado 163889" d="M204.537,367.9a.043.043,0,0,1-.05-.038h0a.043.043,0,0,1,.05-.039h0l3.09-.02a.045.045,0,0,1,.047.039h0c0,.024-.021.039-.047.04h0l-3.09.017Z" transform="translate(-204.469 -359.483)" fill="#fff" opacity="0.92"/>
                <path id="Trazado_163890" data-name="Trazado 163890" d="M204.527,362.487a.05.05,0,0,1-.053-.038h0a.052.052,0,0,1,.054-.04h0l1.4-.008a.046.046,0,0,1,.049.039h0a.046.046,0,0,1-.049.039h0l-1.4.008Z" transform="translate(-204.474 -361.619)" fill="#fff" opacity="0.92"/>
                <path id="Trazado_163891" data-name="Trazado 163891" d="M204.527,363.089c-.029,0-.05-.018-.05-.039h0a.046.046,0,0,1,.05-.04h0l1.4-.008c.027,0,.05.018.049.042h0c0,.021-.021.036-.049.039h0l-1.4.007Z" transform="translate(-204.473 -361.381)" fill="#fff" opacity="0.92"/>
                <path id="Trazado_163892" data-name="Trazado 163892" d="M204.529,363.69c-.029,0-.049-.018-.049-.038h0c0-.024.02-.042.049-.042h0l1.394-.01c.026,0,.05.02.05.043h0c0,.021-.024.038-.05.038h0l-1.394.008Z" transform="translate(-204.472 -361.144)" fill="#fff" opacity="0.92"/>
                <path id="Trazado_163893" data-name="Trazado 163893" d="M204.53,364.29c-.031,0-.05-.015-.05-.039h0a.046.046,0,0,1,.05-.039h0l1.4-.008a.046.046,0,0,1,.047.039h0c0,.021-.018.039-.05.04h0l-1.392.007Z" transform="translate(-204.472 -360.906)" fill="#fff" opacity="0.92"/>
                <path id="Trazado_163894" data-name="Trazado 163894" d="M204.532,365.5a.046.046,0,0,1-.05-.042h0c0-.02.022-.038.05-.038h0l1.4-.01a.046.046,0,0,1,.049.04h0a.044.044,0,0,1-.049.039h0l-1.4.01Z" transform="translate(-204.471 -360.431)" fill="#fff" opacity="0.92"/>
                <path id="Trazado_163895" data-name="Trazado 163895" d="M204.533,366.094c-.028,0-.049-.015-.05-.039h0c0-.021.022-.038.05-.038h0l1.394-.008c.029,0,.052.018.049.04h0c0,.02-.018.038-.047.038h0l-1.4.007Z" transform="translate(-204.47 -360.193)" fill="#fff" opacity="0.92"/>
                <path id="Trazado_163896" data-name="Trazado 163896" d="M204.532,366.7c-.027,0-.047-.015-.047-.036h0a.045.045,0,0,1,.047-.043h0l1.4-.006a.042.042,0,0,1,.047.04h0c0,.021-.021.038-.049.038h0l-1.4.007Z" transform="translate(-204.47 -359.956)" fill="#fff" opacity="0.92"/>
                <path id="Trazado_163897" data-name="Trazado 163897" d="M204.535,367.3a.045.045,0,0,1-.05-.039h0a.047.047,0,0,1,.05-.039h0l1.4-.01a.044.044,0,0,1,.049.04h0a.043.043,0,0,1-.046.039h0l-1.4.008Z" transform="translate(-204.47 -359.719)" fill="#fff" opacity="0.92"/>
              </g>
              <g id="Grupo_127718" data-name="Grupo 127718" transform="translate(6.589 18.296)">
                <g id="Grupo_127717" data-name="Grupo 127717">
                  <path id="Trazado_163898" data-name="Trazado 163898" d="M207.348,362.217v-.4l-.092.1-.075-.043.188-.212h.077l0,.551Z" transform="translate(-207.179 -361.665)" fill="#fff"/>
                </g>
              </g>
              <g id="Grupo_127720" data-name="Grupo 127720" transform="translate(6.491 22.427)">
                <g id="Grupo_127719" data-name="Grupo 127719">
                  <path id="Trazado_163899" data-name="Trazado 163899" d="M207.115,364.806a.222.222,0,0,1,.243-.18c.264,0,.335.223.148.329-.1.066-.126.08-.223.146h.317v.075l-.487,0,0-.059.328-.223h0c.11-.063.082-.191-.08-.191a.129.129,0,0,0-.142.106Z" transform="translate(-207.109 -364.626)" fill="#fff"/>
                </g>
              </g>
              <g id="Grupo_127722" data-name="Grupo 127722" transform="translate(6.501 26.556)">
                <g id="Grupo_127721" data-name="Grupo 127721">
                  <path id="Trazado_163900" data-name="Trazado 163900" d="M207.279,367.824h.1a.086.086,0,0,0,.1-.082c0-.056-.067-.079-.133-.078a.119.119,0,0,0-.12.067l-.091-.018a.205.205,0,0,1,.211-.126c.112,0,.232.047.233.155a.123.123,0,0,1-.064.114.131.131,0,0,1,.088.128c0,.081-.082.159-.248.16-.149,0-.219-.067-.239-.141l.095-.015c.008.043.053.084.142.082.11,0,.163-.049.155-.1,0-.031-.033-.075-.124-.075h-.1Z" transform="translate(-207.116 -367.586)" fill="#fff"/>
                </g>
              </g>
              <path id="Trazado_163901" data-name="Trazado 163901" d="M202.456,378.309c0,.3,2.173.526,4.853.513s4.846-.272,4.846-.569-2.172-.529-4.853-.515S202.456,378.009,202.456,378.309Zm2.328-.07a12.928,12.928,0,0,1,5.043-.028,12.856,12.856,0,0,1-5.043.028Z" transform="translate(-202.456 -337.02)" fill="#fff"/>
              <path id="Trazado_163902" data-name="Trazado 163902" d="M207.309,378.681c-2.676.014-4.849-.216-4.852-.515l0,.5h0c.021.3,2.183.527,4.849.512s4.825-.266,4.846-.566h0l-.006-.49C212.066,378.423,209.938,378.667,207.309,378.681Zm-4.852-.365v.006l0-.006Zm0,.006Z" transform="translate(-202.456 -336.864)" fill="#cde3e8"/>
            </g>
          </g>
          <rect id="Rectángulo_35061" data-name="Rectángulo 35061" width="1.969" height="1.373" transform="translate(2.926 39.951)" fill="#cde3e8"/>
        </g>
      </g>
      <g id="Grupo_128290" data-name="Grupo 128290" transform="translate(308.869 5995.878)">
        <g id="Grupo_127635" data-name="Grupo 127635" transform="translate(129.608 0)">
          <path id="Trazado_163717" data-name="Trazado 163717" d="M386.047,362.344l.735,6.153h14.555l2.76-14.872Z" transform="translate(-303.444 -113.799)" fill="#f9afb6"/>
          <path id="Trazado_163718" data-name="Trazado 163718" d="M344,363.836c.053-.264,1.2-5.878,1.2-5.878l18.116,2.429-4.274,12.98L344,369.979Z" transform="translate(-314.831 -112.625)" fill="#f9afb6"/>
          <path id="Trazado_163719" data-name="Trazado 163719" d="M366.6,368.776c-.942-.953.62,1.247-6.367.779-3.326-.222-7.114-2.167-7.385-3.031.287-2.106.529-3.735-1.005-5.186-1.055-1-3.907-1.642-4.736-.963-.986.81-.71,1.651-.953,2.756-.4,1.82-3.227,4.109-4.551,5.006-.944.639-8.878,5.678-10.906,5.908-1.173.135-4.749.45-5.556,1.583a6.892,6.892,0,0,0-.987,2.155l-.005.019a3.409,3.409,0,0,0,1.276,3.608,7.717,7.717,0,0,0,4.664.916c1.365-.042,8.8.128,27.711-.337,3.478-.085,5-.233,10.717-.507a6.293,6.293,0,0,0,.212-4.5C368.161,375.357,366.9,369.071,366.6,368.776Z" transform="translate(-320.235 -112.046)" fill="#64546f"/>
          <path id="Trazado_163720" data-name="Trazado 163720" d="M416.737,251.011l7.562,37.665-9.81,101.809-17.309,1.153L390.442,311.5,365.2,391.141l-20.258-2.715,11.335-98.045,7.43-37.619,28.018-7.3Z" transform="translate(-314.576 -143.093)" fill="#1d272b"/>
          <path id="Trazado_163721" data-name="Trazado 163721" d="M402.251,188.737c3.571,11.854,11.094,24.955,13.49,40.368,2.326,14.959,7.279,62.97,7.413,74.935L413,305.957a153.066,153.066,0,0,1-57.875-.211c.393-7.349,7.821-45.174,5.84-54.253-1.389-6.369-3.256-7.924-7.426-17.372-2.769-6.281-4.062-29.724-4.369-30.8l26.557-12.866Z" transform="translate(-313.43 -158.457)" fill="url(#radial-gradient)"/>
          <path id="Trazado_163722" data-name="Trazado 163722" d="M368.941,202.067a13.628,13.628,0,0,0-18.957,3.466L323.9,243.285l-1.24,1.8a9.2,9.2,0,0,0,9.515,14.208l31.693-6.77a5.334,5.334,0,0,0-.742-10.536l-10.073-.7,17.93-18.523a14.775,14.775,0,0,0,1.421-1.732A13.627,13.627,0,0,0,368.941,202.067Z" transform="translate(-321.048 -155.501)" fill="url(#radial-gradient)"/>
          <g id="Grupo_127632" data-name="Grupo 127632" transform="translate(42.535)">
            <path id="Trazado_163723" data-name="Trazado 163723" d="M358.945,177.369a75.329,75.329,0,0,1,6.08,18,72.421,72.421,0,0,1,1.238,8.619c0,.055.013.108.013.163.01.01.01.022,0,.043.635,7.5,7.647,13.046,14.969,11.3.413-.088.837-.22,1.273-.351l.194-.066c8.573-2.828,11.127-13.871,4.856-20.355-.459-.479-.917-.979-1.375-1.521a27.407,27.407,0,0,1-3.736-5.914c-.164-.369-.328-.728-.459-1.1a27.086,27.086,0,0,1-2.035-9.367,24.724,24.724,0,0,1,.027-2.744l-1.393.21Z" transform="translate(-353.318 -162.426)" fill="#f8d1b9"/>
            <path id="Trazado_163724" data-name="Trazado 163724" d="M364.7,199.915c0,.055.013.108.013.163.01.01.01.022,0,.043.635,7.5,7.647,13.046,14.969,11.3.413-.088.837-.22,1.273-.351l.194-.066c8.573-2.828,11.127-13.871,4.856-20.355-.459-.479-.917-.979-1.375-1.521a22.163,22.163,0,0,1-6.56,6.981A22.809,22.809,0,0,1,364.7,199.915Z" transform="translate(-351.759 -158.351)" fill="url(#radial-gradient)"/>
            <path id="Trazado_163725" data-name="Trazado 163725" d="M355.706,185.395c.295,9.034,7.76,18.773,15.306,17.976,7.356-.776,12.436-11.317,11.388-19.878-.935-7.639-7.108-16.624-14.564-16.1C360.4,167.921,355.452,177.637,355.706,185.395Z" transform="translate(-354.198 -164.243)" fill="#f8d1b9"/>
            <g id="Grupo_127631" data-name="Grupo 127631" transform="translate(7.482 20.798)">
              <path id="Trazado_163726" data-name="Trazado 163726" d="M368.908,183.925a.849.849,0,1,0,1.081-.521A.847.847,0,0,0,368.908,183.925Z" transform="translate(-358.115 -180.712)" fill="#64546f"/>
              <path id="Trazado_163727" data-name="Trazado 163727" d="M362.586,185.261a.849.849,0,1,0,1.079-.525A.851.851,0,0,0,362.586,185.261Z" transform="translate(-359.826 -180.351)" fill="#64546f"/>
              <g id="Grupo_127629" data-name="Grupo 127629" transform="translate(9.679)">
                <path id="Trazado_163728" data-name="Trazado 163728" d="M368.338,182.382a.318.318,0,0,1-.144-.6,4.656,4.656,0,0,1,3.765-.2.318.318,0,1,1-.221.6,4.118,4.118,0,0,0-2.134-.2,4.039,4.039,0,0,0-1.122.376A.324.324,0,0,1,368.338,182.382Z" transform="translate(-368.021 -181.275)" fill="#64546f"/>
              </g>
              <g id="Grupo_127630" data-name="Grupo 127630" transform="translate(0 1.531)">
                <path id="Trazado_163729" data-name="Trazado 163729" d="M360.721,184.485a.318.318,0,0,1-.231-.535,4.636,4.636,0,0,1,1.071-.851,4.762,4.762,0,0,1,2.368-.619.33.33,0,0,1,.348.319.318.318,0,0,1-.318.316h-.03a4.139,4.139,0,0,0-2.051.534,3.986,3.986,0,0,0-.924.736A.322.322,0,0,1,360.721,184.485Z" transform="translate(-360.405 -182.48)" fill="#64546f"/>
              </g>
            </g>
            <path id="Trazado_163730" data-name="Trazado 163730" d="M380.256,180.54c.388,2.567-.559,4.837-2.113,5.072s-3.126-1.657-3.514-4.224.56-4.837,2.114-5.071S379.868,177.973,380.256,180.54Z" transform="translate(-349.094 -161.826)" fill="#f8d1b9"/>
            <path id="Trazado_163731" data-name="Trazado 163731" d="M361.1,185.553c.827,2.46.288,4.861-1.2,5.36s-3.368-1.089-4.193-3.549-.288-4.861,1.2-5.362S360.271,183.092,361.1,185.553Z" transform="translate(-354.301 -160.306)" fill="#f8d1b9"/>
            <path id="Trazado_163732" data-name="Trazado 163732" d="M381.924,179.443a125.353,125.353,0,0,1-14.052,4.52c-4.734,1.216-12.016,2.779-12.016,2.779h0a24.174,24.174,0,0,1-.84-12.73,22.734,22.734,0,0,1,1.441-4.448l13.687-4.655a14.5,14.5,0,0,1,11.779,14.533Z" transform="translate(-354.517 -164.91)" fill="url(#radial-gradient)"/>
          </g>
          <path id="Trazado_163733" data-name="Trazado 163733" d="M378.783,177.84c.352.064-.582,3.321,1.068,5.883a5.955,5.955,0,0,0,1.737,1.731,14.047,14.047,0,0,1-2.076,9.858c-.588.885-3.341,5.012-8.061,5.551-4.736.54-9.751-2.728-12.128-8.183a11.27,11.27,0,0,0-.144-3.584c-.558-2.707-2-4.551-1.824-4.668.222-.151,1.908,3.541,5.534,4.935.967.372,3.078,1.183,4.579.272a4.9,4.9,0,0,1,1.883-1.012,5.21,5.21,0,0,1,1.8.1,5.3,5.3,0,0,0,3.432-1.153c.615-.449,1.29-1.186,3.167-7.175C378.141,179.164,378.549,177.8,378.783,177.84Z" transform="translate(-311.218 -161.408)" fill="#1d272b"/>
          <path id="Trazado_163734" data-name="Trazado 163734" d="M433.408,238.443l-1.622-2.565L405.95,195.023a14.645,14.645,0,0,0-1.273-1.7,13.622,13.622,0,1,0-20.48,17.967l25.348,28.9-3.961,2.753a5.452,5.452,0,0,0,3.678,9.9l18.085-1.888a8.325,8.325,0,0,0,3.52-1.221A8.178,8.178,0,0,0,433.408,238.443Z" transform="translate(-304.861 -158.472)" fill="url(#radial-gradient)"/>
          <path id="Trazado_163735" data-name="Trazado 163735" d="M386.229,363.9c-1.721,1.323.491,4,.638,8.3.173,5.027-2.671,6.55-1.093,8.6,1.355,1.765,4.449,1.937,9.025,2.188,3.866.213,8.2.452,9.939-1.661.879-1.072.743-2.331.546-4.15-.325-3.014-1.54-3.2-2.1-5.964-.738-3.665.851-6.043-.912-7.169-.6-.388-.806-.117-1.732-.6-1.92-1.012-1.568-2.446-3.1-3.321a5.387,5.387,0,0,0-4.012-.3c-1.938.627-1.714,2.08-4.012,3.171C387.721,363.8,387.069,363.257,386.229,363.9Z" transform="translate(-303.647 -112.186)" fill="#db8804"/>
          <g id="Grupo_127633" data-name="Grupo 127633" transform="translate(91.212 54.751)">
            <path id="Trazado_163736" data-name="Trazado 163736" d="M405.069,232.711a.474.474,0,0,1-.427-.266l-11.773-23.766a.476.476,0,1,1,.854-.422L405.5,232.023a.476.476,0,0,1-.216.638A.46.46,0,0,1,405.069,232.711Z" transform="translate(-392.821 -207.992)" fill="#a4a4b4"/>
          </g>
          <g id="Grupo_127634" data-name="Grupo 127634" transform="translate(13.68 85.341)">
            <path id="Trazado_163737" data-name="Trazado 163737" d="M332.288,236.193a.477.477,0,0,1-.163-.925,53.048,53.048,0,0,1,17.391-3.205.463.463,0,0,1,.484.469.477.477,0,0,1-.469.484,52.123,52.123,0,0,0-17.08,3.148A.466.466,0,0,1,332.288,236.193Z" transform="translate(-331.813 -232.063)" fill="#a4a4b4"/>
          </g>
        </g>
        <g id="Grupo_127651" data-name="Grupo 127651" transform="translate(0 110.223)">
          <path id="Trazado_163738" data-name="Trazado 163738" d="M313.719,330.736,230.05,297.856h105.82Z" transform="translate(-190.729 -239.126)" fill="url(#linear-gradient-2)"/>
          <rect id="Rectángulo_35034" data-name="Rectángulo 35034" width="46.483" height="58.044" transform="translate(144.929 88.161)" fill="#1d272b"/>
          <rect id="Rectángulo_35035" data-name="Rectángulo 35035" width="31.541" height="14.407" transform="translate(87.959 146.205)" fill="#1d272b"/>
          <rect id="Rectángulo_35036" data-name="Rectángulo 35036" width="46.484" height="58.044" transform="translate(165.493 88.161)" fill="#a4a4b4"/>
          <path id="Trazado_163739" data-name="Trazado 163739" d="M295.888,330.736l140.534-3.142,106.505-29.736H318.039Z" transform="translate(-198.254 -239.126)" fill="#868695"/>
          <g id="Grupo_127636" data-name="Grupo 127636" transform="translate(0 33.128)">
            <path id="Trazado_163740" data-name="Trazado 163740" d="M238.431,303.314l-39.322-12.8v-12.8l39.322,12.8Z" transform="translate(-199.109 -277.71)" fill="#868695"/>
            <rect id="Rectángulo_35037" data-name="Rectángulo 35037" width="305.352" height="12.803" transform="translate(39.322 12.801)" fill="#1d272b"/>
            <path id="Trazado_163741" data-name="Trazado 163741" d="M543.782,290.511H235.736l-36.627-12.8H519.044Z" transform="translate(-199.109 -277.71)" fill="url(#linear-gradient-2)"/>
          </g>
          <g id="Grupo_127650" data-name="Grupo 127650" transform="translate(16.91)">
            <path id="Trazado_163742" data-name="Trazado 163742" d="M394.518,285.513c-5.987.2-11.734-.072-17.488-.371q-8.612-.536-17.111-1.426c-5.681-.538-11.332-1.3-16.981-2.009-5.657-.749-11.26-1.589-16.939-2.5l2.64-.022-17.846,1.343c-5.959.357-11.908.8-17.877,1.066-5.961.328-11.934.555-17.91.764-5.981.154-11.961.321-17.963.268-2.971-.027-5.362-2.811-5.339-6.218a6.086,6.086,0,0,1,4.012-5.921c5.807-1.75,11.637-3.28,17.466-4.823,5.834-1.489,11.671-2.96,17.52-4.33,5.841-1.434,11.7-2.684,17.554-4.026l17.583-3.748a5.766,5.766,0,0,1,1.681-.109l.96.088,16.741,1.495,16.738,1.567,16.647,1.582c5.508.55,11.031,1.039,16.33,1.506l.109.01c6.207.547,10.852,6.761,10.376,13.879C404.977,280.216,400.186,285.3,394.518,285.513Z" transform="translate(-227.13 -251.157)" fill="#f8d1b9"/>
            <path id="Trazado_163743" data-name="Trazado 163743" d="M249.8,282.052c-2.258-2.694-3.78-2.918-6.258-4.874A25.234,25.234,0,0,1,237,268.843c-1.44-2.715-2.057-5-3.294-9.576-1.164-4.3-1.783-6.676-.96-7.405,1.188-1.05,4.635,1.969,5.526,2.772a70.46,70.46,0,0,0,8.415,6.347c4.447,2.856,8.948,5.745,15.218,6.874a30.45,30.45,0,0,0,10.632,0q.858,7.4,1.717,14.8a71.158,71.158,0,0,0-12.516,2.448c-3.751,1.1-6.8,2.336-9.245.517C251.319,284.747,251.484,284.06,249.8,282.052Z" transform="translate(-232.367 -251.643)" fill="#f8d1b9"/>
            <path id="Trazado_163744" data-name="Trazado 163744" d="M399.064,289.014c-4.923.224-9.841.224-14.761.239-4.919-.041-9.838-.1-14.754-.261-4.917-.1-9.831-.375-14.747-.563-4.914-.23-9.829-.53-14.742-.844l1.655-.1-17.846,1.343c-5.959.356-11.908.8-17.877,1.066-5.963.328-11.936.554-17.91.764-5.981.154-11.961.322-17.965.267-2.971-.025-5.36-2.81-5.337-6.217a6.084,6.084,0,0,1,4.012-5.92c5.806-1.751,11.637-3.281,17.465-4.824,5.836-1.49,11.673-2.959,17.521-4.329,5.841-1.433,11.7-2.686,17.554-4.026l17.583-3.749a3.813,3.813,0,0,1,.7-.084l.952-.014c4.913-.076,9.826-.139,14.738-.13,4.909.048,9.822.008,14.73.149,4.911.079,9.819.257,14.727.454,4.907.254,9.813.491,14.718.953l.058.006c6.207.586,10.825,6.832,10.314,13.953C409.382,283.737,404.681,288.764,399.064,289.014Z" transform="translate(-223.589 -248.936)" fill="#f8d1b9"/>
            <path id="Trazado_163745" data-name="Trazado 163745" d="M451.845,263.455c-1.3-.987-39.669-8.745-50.742-8.728-10.98.017-10.483-.524-78.107,8.863,7.7-1.069-1.111,25.831-1.111,25.831,9.445,1.108,17.119,2.445,22.457,3.48,15.044,2.914,22.5,5.552,32.314,2.188,3.894-1.336,15.925,4.576,30.11,5.913a59.258,59.258,0,0,0,13.823-.519c6.78-.878,12.184-1.58,17.942-4.858,3.182-1.812,9.419-6.091,14.714-15.616q-.442-5.088-.871-10.2Q452.107,266.628,451.845,263.455Z" transform="translate(-208.123 -250.807)" fill="#f8d1b9"/>
            <path id="Trazado_163746" data-name="Trazado 163746" d="M447.43,284.136c-.648-1.167-1.256-2.434-1.843-3.751-2.418-5.4-4.505-11.777-7.139-16.576a23.99,23.99,0,0,1-5.613.8c-.244.011-.486.01-.727.009-1.681-.024-3.758-1.655-6.874-2.926-3.412-1.394-5.8.651-4.908,3.393,1.071,3.29,2.6,5.4,3.513,8.765.777,2.859.724,10.411-.461,15.347a30.715,30.715,0,0,1,3.79-4.055c3.488-3.3,8.3-2.925,10.329-2.684C440.837,282.858,442.244,282.566,447.43,284.136Z" transform="translate(-181.512 -249.043)" fill="#f8d1b9"/>
            <path id="Trazado_163747" data-name="Trazado 163747" d="M442.882,279.838c-2.418-5.4-4.505-11.777-7.14-16.576a23.988,23.988,0,0,1-5.613.8,20.732,20.732,0,0,0,6.087,12.137A16.479,16.479,0,0,0,442.882,279.838Z" transform="translate(-178.806 -248.496)" fill="#f8d1b9"/>
            <g id="Grupo_127644" data-name="Grupo 127644" transform="translate(254.835 9.142)">
              <path id="Trazado_163748" data-name="Trazado 163748" d="M452.4,262.194c-5.8-4.7-15.436-4.626-18.511,1.228-3,5.707,1.195,15.085,7.056,18.984,5.228,3.478,13.78,3.929,16.982-1.714C461.118,275.065,457.378,266.227,452.4,262.194Z" transform="translate(-432.893 -258.836)" fill="#f8d1b9"/>
              <g id="Grupo_127643" data-name="Grupo 127643" transform="translate(4.025 0.363)">
                <g id="Grupo_127637" data-name="Grupo 127637" transform="translate(6.66 7.013)">
                  <path id="Trazado_163749" data-name="Trazado 163749" d="M441.577,267.934a.269.269,0,0,1-.23-.141.348.348,0,0,1,.076-.441,3.573,3.573,0,0,0,1.106-1.436,4.046,4.046,0,0,0,.273-1.008.283.283,0,0,1,.316-.264.313.313,0,0,1,.231.363,4.638,4.638,0,0,1-.324,1.184,4.171,4.171,0,0,1-1.295,1.689A.246.246,0,0,1,441.577,267.934Z" transform="translate(-441.3 -264.64)" fill="#64546f"/>
                </g>
                <g id="Grupo_127638" data-name="Grupo 127638" transform="translate(9.745 0.001)">
                  <path id="Trazado_163750" data-name="Trazado 163750" d="M444.005,262.751a.26.26,0,0,1-.188-.084.353.353,0,0,1-.017-.449,3.915,3.915,0,0,0,.775-1.7,4.112,4.112,0,0,0,.059-1.055.307.307,0,0,1,.253-.343.288.288,0,0,1,.3.291,4.863,4.863,0,0,1-.069,1.24,4.589,4.589,0,0,1-.907,1.993A.269.269,0,0,1,444.005,262.751Z" transform="translate(-443.728 -259.123)" fill="#64546f"/>
                </g>
                <g id="Grupo_127639" data-name="Grupo 127639" transform="translate(2.969 1.471)">
                  <path id="Trazado_163751" data-name="Trazado 163751" d="M443.139,263.147h-.023a3.618,3.618,0,0,1-1.716-.6,13.315,13.315,0,0,1-1.369-1.134l-.127-.119c-.295-.278-.43-.383-.555-.383-.141.019-.3.183-.436.464a.258.258,0,0,1-.377.117.341.341,0,0,1-.1-.432c.294-.591.627-.75.854-.779.36-.042.618.192.969.521l.126.117a13.417,13.417,0,0,0,1.3,1.083,3.143,3.143,0,0,0,1.48.508.308.308,0,0,1,.253.343A.3.3,0,0,1,443.139,263.147Z" transform="translate(-438.396 -260.279)" fill="#64546f"/>
                </g>
                <g id="Grupo_127640" data-name="Grupo 127640" transform="translate(0 1.704)">
                  <path id="Trazado_163752" data-name="Trazado 163752" d="M436.622,265.344a.279.279,0,0,1-.256-.2,5.148,5.148,0,0,1-.288-2.181,4.894,4.894,0,0,1,.849-2.385.255.255,0,0,1,.39-.05.35.35,0,0,1,.043.446,4.2,4.2,0,0,0-.731,2.05,4.446,4.446,0,0,0,.248,1.877.334.334,0,0,1-.149.414A.234.234,0,0,1,436.622,265.344Z" transform="translate(-436.06 -260.462)" fill="#64546f"/>
                </g>
                <g id="Grupo_127641" data-name="Grupo 127641" transform="translate(7.111)">
                  <path id="Trazado_163753" data-name="Trazado 163753" d="M441.932,261.46a.242.242,0,0,1-.135-.041.345.345,0,0,1-.107-.432l.831-1.7a.257.257,0,0,1,.377-.122.344.344,0,0,1,.105.432l-.831,1.7A.273.273,0,0,1,441.932,261.46Z" transform="translate(-441.656 -259.122)" fill="#64546f"/>
                </g>
                <g id="Grupo_127642" data-name="Grupo 127642" transform="translate(4.462 5.7)">
                  <path id="Trazado_163754" data-name="Trazado 163754" d="M439.848,265.877a.249.249,0,0,1-.173-.071.349.349,0,0,1-.043-.446l1.146-1.633a.252.252,0,0,1,.389-.048.348.348,0,0,1,.042.446l-1.146,1.633A.263.263,0,0,1,439.848,265.877Z" transform="translate(-439.571 -263.607)" fill="#64546f"/>
                </g>
              </g>
              <path id="Trazado_163755" data-name="Trazado 163755" d="M451.588,262.239c-1.692-.1-2.172,4.339-2.019,6.916a10.8,10.8,0,0,1,.009,1.129,4.366,4.366,0,0,1-4.381,4.436c-1.793-.121-3.641-.142-3.6.516.093,1.566,2.927,1.777,3.059,3.692a3.331,3.331,0,0,1-.419,2.16c-.685.961-1.749.344-3.571,1.2-.948.442-2.022,1.235-1.922,1.709.072.346.709.266,1.613.681a6.769,6.769,0,0,1,2.058,1.731c1.371,1.3,3.13,1.332,5.351,1.366a12.717,12.717,0,0,0,4.578-.825,13.938,13.938,0,0,0,1.557-.746c2.195-1.257,4.951-4.44,5.235-11.969C459.312,269.521,454.7,262.427,451.588,262.239Z" transform="translate(-431.31 -257.915)" fill="#12263f"/>
              <path id="Trazado_163756" data-name="Trazado 163756" d="M442.257,272.869c-1.341-1.544-3.152-1.97-4.041-.951s-.526,3.095.816,4.639,3.15,1.97,4.041.951S443.6,274.413,442.257,272.869Z" transform="translate(-431.583 -255.443)" fill="#f8d1b9"/>
            </g>
            <path id="Trazado_163757" data-name="Trazado 163757" d="M262.876,290.333c-2.26-2.7-3.781-2.918-6.258-4.874a25.236,25.236,0,0,1-6.545-8.338c-1.44-2.713-2.057-5-3.3-9.576-1.163-4.3-1.782-6.674-.958-7.4,1.188-1.05,4.635,1.97,5.524,2.77a70.623,70.623,0,0,0,8.417,6.349c4.447,2.856,8.947,5.744,15.218,6.873a30.474,30.474,0,0,0,10.632,0q.86,7.4,1.717,14.8a71.436,71.436,0,0,0-12.518,2.446c-3.752,1.1-6.8,2.338-9.244.518C264.395,293.029,264.56,292.341,262.876,290.333Z" transform="translate(-228.826 -249.4)" fill="#f8d1b9"/>
            <path id="Trazado_163758" data-name="Trazado 163758" d="M345.607,256.833c2.115.053,18.508-2.352,22.58-1.407,4.776,1.109,10.59,5.927,22.415,5.927,9.04,0,10.82.5,24.511-4.634-1.112,3.317-1.683,10.917-2.609,17.317a87.868,87.868,0,0,0-.862,14.814c.2,10.737.135,29.311,0,54.068l-68.666,2.223c.646-18.27,1.714-27.638,2.36-45.908,1.162-3.45,2-17.238,2.375-23.221A56.554,56.554,0,0,0,345.607,256.833Z" transform="translate(-202.41 -250.678)" fill="url(#radial-gradient)"/>
            <g id="Grupo_127645" data-name="Grupo 127645" transform="translate(102.876 58.73)">
              <path id="Trazado_163759" data-name="Trazado 163759" d="M329.775,308.573l-16.457-5.359v-5.358l16.457,5.358Z" transform="translate(-313.319 -297.856)" fill="url(#linear-gradient-2)"/>
              <rect id="Rectángulo_35038" data-name="Rectángulo 35038" width="138.407" height="5.359" transform="translate(16.457 5.358)" fill="#1d272b"/>
              <path id="Trazado_163760" data-name="Trazado 163760" d="M468.183,303.214H329.775l-16.457-5.358H457.068Z" transform="translate(-313.319 -297.856)" fill="#1d272b"/>
            </g>
            <g id="Grupo_127649" data-name="Grupo 127649" transform="translate(122.745 17.779)">
              <path id="Trazado_163761" data-name="Trazado 163761" d="M439.874,294.217l-34.8,8.822-1.52.426-24.285,1.967q-12.147.951-24.312,1.763c-2.7.181-5.017-2.183-5.175-5.279a5.579,5.579,0,0,1,3.692-5.775q11.817-3.418,23.648-6.706l23.677-6.5-1.52.426c5.5-2.859,10.957-5.716,16.476-8.5l8.3-4.13,8.42-4c6.424-3.051,13.791.449,16.452,7.817s-.391,15.818-6.816,18.871a11.587,11.587,0,0,1-2.032.743Z" transform="translate(-323.315 -265.633)" fill="#f8d1b9"/>
              <path id="Trazado_163762" data-name="Trazado 163762" d="M366.176,288.871c.126.939.9,7.389-2.776,11.535-3.538,3.985-9.092,3.477-9.477,3.435-2.465-.266-3.811-1.347-6.673-.832-1.634.293-2.276,1.061-3.929,1.583a26.436,26.436,0,0,1-13.066.587,1.831,1.831,0,0,1-.513-3.261,35.62,35.62,0,0,0,7.453-6.073,16.229,16.229,0,0,1,6.072-4.762c.487-.193,1.467-.59,5.866-.968,4.973-.43,7.087-.231,11.418-.581C362.972,289.339,364.933,289.064,366.176,288.871Z" transform="translate(-328.954 -259.339)" fill="#f8d1b9"/>
              <g id="Grupo_127646" data-name="Grupo 127646" transform="translate(2.689 37.084)">
                <path id="Trazado_163763" data-name="Trazado 163763" d="M331.253,302.532a.184.184,0,0,1-.166-.122.224.224,0,0,1,.09-.279,25.033,25.033,0,0,0,4.19-2.787,27.282,27.282,0,0,0,4.312-4.459.167.167,0,0,1,.258-.019.233.233,0,0,1,.017.3,27.712,27.712,0,0,1-4.376,4.523,25.361,25.361,0,0,1-4.247,2.828A.171.171,0,0,1,331.253,302.532Z" transform="translate(-331.07 -294.813)" fill="#e59ca9"/>
              </g>
              <g id="Grupo_127647" data-name="Grupo 127647" transform="translate(6.751 37.571)">
                <path id="Trazado_163764" data-name="Trazado 163764" d="M334.449,302.915a.186.186,0,0,1-.167-.122.226.226,0,0,1,.09-.28,25.184,25.184,0,0,0,4.19-2.787,27.285,27.285,0,0,0,4.312-4.459.168.168,0,0,1,.258-.019.232.232,0,0,1,.016.3,27.759,27.759,0,0,1-4.374,4.523,25.615,25.615,0,0,1-4.248,2.827A.169.169,0,0,1,334.449,302.915Z" transform="translate(-334.266 -295.196)" fill="#e59ca9"/>
              </g>
              <g id="Grupo_127648" data-name="Grupo 127648" transform="translate(12.66 39.377)">
                <path id="Trazado_163765" data-name="Trazado 163765" d="M339.1,302.512a.18.18,0,0,1-.154-.1.227.227,0,0,1,.057-.29,26.616,26.616,0,0,0,3.842-3.386c.61-.652,1.2-1.342,1.741-2.05a.168.168,0,0,1,.259-.019.236.236,0,0,1,.017.3c-.554.718-1.148,1.418-1.768,2.079a26.911,26.911,0,0,1-3.9,3.433A.159.159,0,0,1,339.1,302.512Z" transform="translate(-338.915 -296.618)" fill="#e59ca9"/>
              </g>
            </g>
          </g>
          <rect id="Rectángulo_35039" data-name="Rectángulo 35039" width="138.884" height="14.407" transform="translate(119.5 146.205)" fill="#a4a4b4"/>
        </g>
        <g id="Grupo_127665" data-name="Grupo 127665" transform="translate(32.314 19.859)">
          <path id="Trazado_163766" data-name="Trazado 163766" d="M345.3,255.9l-28.05-7.273-.661-24.842a14.823,14.823,0,0,0-.534-3.495,14.133,14.133,0,0,0-27.187,7.738l8.529,29.963.691,2.435a8.383,8.383,0,0,0,8.01,6.073l37.792.216A5.5,5.5,0,0,0,345.3,255.9Z" transform="translate(-232.617 -172.551)" fill="url(#radial-gradient)"/>
          <path id="Trazado_163767" data-name="Trazado 163767" d="M292.257,277.387c-.381,5.592-1,11.145-1.6,16.7-.661,5.553-1.347,11.094-2.148,16.623-.737,5.541-1.6,11.069-2.465,16.584s-1.817,11.031-2.783,16.546l-.2,1.182c-.025.076-.038.165-.064.241l-5.007,15.047c-1.767,4.994-3.431,10-5.3,14.971-1.792,4.982-3.7,9.938-5.617,14.894-1.36,3.406-3.037,8.781-4.664,13.395-.724,2.084-1.449,4.016-2.135,5.541a6.8,6.8,0,0,1-12.988-3.152c.038-.8.089-1.6.14-2.389.28-4.537.712-9.036,1.131-13.547.547-5.287,1.766-14.729,2.453-19.99.61-5.261,1.411-10.484,2.122-15.733l2.427-15.669-.267,1.423c.534-5.566,1.093-11.133,1.716-16.686s1.271-11.107,2.033-16.648c.712-5.541,1.525-11.069,2.351-16.6.9-5.515,1.779-11.031,2.9-16.521a14.145,14.145,0,0,1,27.971,3.787Z" transform="translate(-243.735 -158.395)" fill="#1d272b"/>
          <path id="Trazado_163768" data-name="Trazado 163768" d="M320.159,340.541l-10.764,61.013-1.309,7.384a6.726,6.726,0,0,1-13.344-.9l-.254-6.481-2.351-59.412-16.991-59.793a14.11,14.11,0,0,1,27.145-7.714l17.36,61.089.318,1.118A8.516,8.516,0,0,1,320.159,340.541Z" transform="translate(-236.333 -157.829)" fill="#1d272b"/>
          <g id="Grupo_127657" data-name="Grupo 127657" transform="translate(3.684)">
            <path id="Trazado_163769" data-name="Trazado 163769" d="M314.7,305.237c-3.311-13.836-4.965-20.753-4.683-28.66.224-6.272,2.661-13.474,7.537-27.877,5.876-17.363,8.462-20.286,7.479-27.515-.165-1.216-2.426-16.471-11.908-19.191-1.487-.427-5.584-1.243-15.483,4.74a76.5,76.5,0,0,0-21.7,19.844s-.268.369-.566.789c-3.037,4.293-8.694,14.16-18.728,39.884a135.065,135.065,0,0,0-9.169,45.757l-.091,3.724a301.227,301.227,0,0,0,71.993,5.552C318.124,318.241,316.408,312.387,314.7,305.237Z" transform="translate(-247.388 -174.806)" fill="url(#radial-gradient)"/>
            <path id="Trazado_163770" data-name="Trazado 163770" d="M301.439,231.751c2.1,3.079,5.343,6.039,6.537,5.381,1.306-.729-.979-5.251.564-12.354.2-.914.421-1.633.559-2.094q3.161-3.414,6.322-6.829,2.958-3.193,5.917-6.39-3.107-6.455-6.241-12.893c-1.008-2.1-2.032-4.218-3.055-6.319a31.68,31.68,0,0,1-13.967,15.418,12.716,12.716,0,0,0-3.233,2.033c-.482.446-3.062,2.781-3.176,5.5C291.557,215.977,298.335,227.227,301.439,231.751Z" transform="translate(-235.396 -177.906)" fill="#f8d1b9"/>
            <path id="Trazado_163771" data-name="Trazado 163771" d="M331.531,195.5a17.8,17.8,0,0,1,.761,2.035c2.416,7.947-.177,18.134-6.635,20.453-6.854,2.459-15.869-4.708-18.6-12.749-2.44-7.171-.815-17.778,6.019-20.5C319.887,182.023,328.435,188.517,331.531,195.5Z" transform="translate(-231.518 -179.571)" fill="#f8d1b9"/>
            <g id="Grupo_127656" data-name="Grupo 127656" transform="translate(75.997 19.562)">
              <path id="Trazado_163772" data-name="Trazado 163772" d="M320.866,201.225a.836.836,0,1,1-1.182-.025A.835.835,0,0,1,320.866,201.225Z" transform="translate(-303.875 -194.566)" fill="#64546f"/>
              <path id="Trazado_163773" data-name="Trazado 163773" d="M326.778,200.14a.836.836,0,1,1-1.182-.024A.835.835,0,0,1,326.778,200.14Z" transform="translate(-302.273 -194.86)" fill="#64546f"/>
              <g id="Grupo_127652" data-name="Grupo 127652" transform="translate(14.098 3.776)">
                <path id="Trazado_163774" data-name="Trazado 163774" d="M318.6,200.812a.319.319,0,0,1-.225-.544,4.708,4.708,0,0,1,2.115-1.219,4.536,4.536,0,0,1,1.343-.144.318.318,0,0,1-.014.635h-.013a3.946,3.946,0,0,0-2.981,1.178A.322.322,0,0,1,318.6,200.812Z" transform="translate(-318.282 -198.902)" fill="#64546f"/>
              </g>
              <g id="Grupo_127653" data-name="Grupo 127653" transform="translate(22.014 2.055)">
                <path id="Trazado_163775" data-name="Trazado 163775" d="M324.829,198.823a.318.318,0,0,1-.164-.59,4.682,4.682,0,0,1,2.343-.685,4.6,4.6,0,0,1,1.337.18.319.319,0,0,1,.217.394.314.314,0,0,1-.393.217,3.492,3.492,0,0,0-1.153-.156,4.058,4.058,0,0,0-2.024.594A.32.32,0,0,1,324.829,198.823Z" transform="translate(-324.511 -197.548)" fill="#64546f"/>
              </g>
              <path id="Trazado_163776" data-name="Trazado 163776" d="M316.142,200.628a7.836,7.836,0,0,1-6.392,5.057,13.12,13.12,0,0,0,7.657,7.938c.947.337,5.879,2.1,10.186-.982,4.679-3.346,4.273-9.3,4.247-9.605-1.087,1.237-1.827,1.4-2.3,1.317-.891-.156-1.168-1.217-2.084-1.264-.641-.034-1.052.456-1.545.843a7.051,7.051,0,0,1-5.128,1.029C317.765,204.373,316.315,201.042,316.142,200.628Z" transform="translate(-306.495 -194.658)" fill="#1d272b"/>
              <g id="Grupo_127654" data-name="Grupo 127654" transform="translate(0 0.583)">
                <path id="Trazado_163777" data-name="Trazado 163777" d="M311.426,208.285a.275.275,0,0,1-.221-.109,19.226,19.226,0,0,1-2.044-3.279,19.515,19.515,0,0,1-1.972-8.22.281.281,0,0,1,.562-.013,18.978,18.978,0,0,0,1.915,7.985,18.688,18.688,0,0,0,1.982,3.185.28.28,0,0,1-.222.451Z" transform="translate(-307.189 -196.389)" fill="#1d272b"/>
              </g>
              <g id="Grupo_127655" data-name="Grupo 127655" transform="translate(4.414)">
                <path id="Trazado_163778" data-name="Trazado 163778" d="M316.105,203.762a.28.28,0,0,1-.28-.257,8.527,8.527,0,0,0-1.12-3.571,8.712,8.712,0,0,0-3.88-3.468.281.281,0,0,1,.234-.511,9.263,9.263,0,0,1,4.13,3.7,9.108,9.108,0,0,1,1.2,3.806.283.283,0,0,1-.257.3Z" transform="translate(-310.662 -195.93)" fill="#1d272b"/>
              </g>
            </g>
            <path id="Trazado_163779" data-name="Trazado 163779" d="M332.147,196.692c-1.137.834-2.535.935-4.775,1.181-4.534.494-7.014-.756-9.667-1.909a6.441,6.441,0,0,0-.717,3.466c.141,1.491.8,2.069.858,3.326.038.89-.826,4-1.792,3.935-.99-.112.011-1.259-.047-2.579a5.188,5.188,0,0,0-3.555-4.345,3.381,3.381,0,0,0-2.42.052c-1.27.623-.909,1.84-2.171,2.809-.916.705-1.248.17-4.088.943-1.578.428-2.478.865-2.746.522-.155-.2.015-.516.323-1.306.32-.826.544-1.689.895-2.5a36.5,36.5,0,0,0,1.492-6.24,19.736,19.736,0,0,1,3.195-7.2c3.983-5.1,14.462-6.2,20.976-1.653C331.948,188.008,334.533,194.944,332.147,196.692Z" transform="translate(-232.876 -180.053)" fill="#64546f"/>
            <path id="Trazado_163780" data-name="Trazado 163780" d="M313.375,198.075c.938,2.19.521,4.468-.929,5.088s-3.383-.653-4.321-2.844-.52-4.468.93-5.087S312.439,195.884,313.375,198.075Z" transform="translate(-231.073 -176.6)" fill="#f8d1b9"/>
            <path id="Trazado_163781" data-name="Trazado 163781" d="M303.034,195.23a59.572,59.572,0,0,0,10.01,3.533c5,1.276,10.4,2.561,16.648.914a24.27,24.27,0,0,0,3.4-1.173,29.879,29.879,0,0,0-5.507-16.6,49.393,49.393,0,0,0-19.176-.773,32.7,32.7,0,0,0-5.374,14.1Z" transform="translate(-232.317 -180.537)" fill="url(#radial-gradient)"/>
          </g>
          <path id="Trazado_163782" data-name="Trazado 163782" d="M287.419,304.6c.07-.516,1.123-32.336,1.123-32.336l9.975,31.751Z" transform="translate(-232.862 -155.694)" fill="url(#radial-gradient)"/>
          <path id="Trazado_163783" data-name="Trazado 163783" d="M339.118,278.607l-29.393-7.734-7.312-46.565a15.277,15.277,0,0,0-.47-2.014,14.06,14.06,0,0,0-26.839,8.393l15.8,50.525.574,1.841a8.419,8.419,0,0,0,7.926,5.892l38.251.47a5.494,5.494,0,0,0,1.465-10.807Z" transform="translate(-236.372 -171.901)" fill="url(#radial-gradient)"/>
          <g id="Grupo_127658" data-name="Grupo 127658" transform="translate(35.786 51.809)">
            <path id="Trazado_163784" data-name="Trazado 163784" d="M293.849,287.112a8.913,8.913,0,0,1-7.682-6.28c-2.024-6.654-4.344-15.488-6.588-24.03s-4.561-17.358-6.579-23.993a15.781,15.781,0,0,1,1.794-11.266.476.476,0,1,1,.823.479,14.847,14.847,0,0,0-1.7,10.551c2.013,6.612,4.334,15.446,6.578,23.988s4.56,17.358,6.579,23.993a7.949,7.949,0,0,0,6.815,5.608l9.619-.042h0a.477.477,0,0,1,0,.953Z" transform="translate(-272.648 -221.305)" fill="#a4a4b4"/>
          </g>
          <g id="Grupo_127659" data-name="Grupo 127659" transform="translate(63.143 71.669)">
            <path id="Trazado_163785" data-name="Trazado 163785" d="M303.643,264.467a.461.461,0,0,1-.1-.011l-2.868-.618a.476.476,0,0,1-.365-.356l-6.122-25.963a.477.477,0,1,1,.928-.219l6.053,25.671,2.575.553a.477.477,0,0,1-.1.943Z" transform="translate(-294.175 -236.933)" fill="#a4a4b4"/>
          </g>
          <path id="Trazado_163786" data-name="Trazado 163786" d="M340.039,265.966c0,.037-.01.072-.014.109C340.03,266.038,340.035,266,340.039,265.966Z" transform="translate(-218.614 -157.4)" fill="#fff"/>
          <g id="Grupo_127661" data-name="Grupo 127661" transform="translate(103.793 77.657)">
            <path id="Trazado_163787" data-name="Trazado 163787" d="M326.162,245.027c.22.047.557.117.967.2,0,0,2.1.409,3.987.6,2.075.215,4.057-.875,9.657-2.792,4.259-1.456,5.541-1.656,6.908-1.116a7.983,7.983,0,0,1,2.847,2.209,12.212,12.212,0,0,1,2.542,4.26,45.194,45.194,0,0,1-26.351,6.457Q326.44,249.936,326.162,245.027Z" transform="translate(-326.162 -241.644)" fill="#db8804"/>
            <path id="Trazado_163788" data-name="Trazado 163788" d="M355.833,250.729h0a3.027,3.027,0,0,1-3.941,1.672l-10.862-4.393a3.026,3.026,0,0,1-1.672-3.942h0a3.027,3.027,0,0,1,3.942-1.672l10.862,4.393A3.026,3.026,0,0,1,355.833,250.729Z" transform="translate(-322.648 -241.501)" fill="#c0aeba"/>
            <path id="Trazado_163789" data-name="Trazado 163789" d="M373.562,257.82s-5.33-.018-6.414-.456l-.886-.384a2.119,2.119,0,0,1-1.169-2.758h0a2.116,2.116,0,0,1,2.758-1.169l.886.383C369.821,253.874,373.562,257.82,373.562,257.82Z" transform="translate(-315.66 -238.596)" fill="#c0aeba"/>
            <g id="Grupo_127660" data-name="Grupo 127660" transform="translate(30.8 7.963)">
              <rect id="Rectángulo_35040" data-name="Rectángulo 35040" width="1.019" height="23.23" transform="matrix(0.365, -0.931, 0.931, 0.365, 0, 0.948)" fill="#c0aeba"/>
            </g>
            <path id="Trazado_163790" data-name="Trazado 163790" d="M343.961,254.74a29.534,29.534,0,0,0,4.966-1.19,7.3,7.3,0,0,0,.855-.393,13.317,13.317,0,0,0,4.815-4.484,1.837,1.837,0,0,0-2.981-2.041,13.2,13.2,0,0,1-3.224,1.792c-1.613.619-3.772,1.446-5.7.675-2.312-.924-2.169-3.291-3.773-3.417-1.539-.121-2.4,2.073-4.59,4.161a15.917,15.917,0,0,1-7.705,3.908l-.1,3.346a24.226,24.226,0,0,1,3.641,0c2.318.173,3.061.563,5.026.543a14.713,14.713,0,0,0,3.7-.51C341.784,256.324,341.418,255.358,343.961,254.74Z" transform="translate(-326.064 -240.551)" fill="#db8804"/>
          </g>
          <g id="Grupo_127664" data-name="Grupo 127664" transform="translate(97.848 102.393)">
            <path id="Trazado_163791" data-name="Trazado 163791" d="M350.434,267.494c-.8-.693-2.515-.832-3.107-.14-.25.294-.2.615-.161,1.056a2.139,2.139,0,0,1,.029.5l0,.042c-.005.066-.02.128-.031.194,0,.037,0,.07-.008.108s-.017.06-.022.09-.017.071-.025.106a4.86,4.86,0,0,1-2.755,3.2,6.151,6.151,0,0,1-5.332-.689,6.68,6.68,0,0,1-1.29-.98c.192.03.372.056.557.085l-5.157-6.781c-.183-.022-.372-.039-.566-.047-.084-.005-.316-.014-.6-.006-.782.019-4.153.225-5.789.158a12.655,12.655,0,0,1-3.887-.8l-.8,12.012c8.492,1.522,12.818,3.383,15.207,4.921a5.438,5.438,0,0,0,3.235,1.1c1.816-.077,2.856-1.331,6.307-3.936,1.32-1,2.434-1.769,3.172-2.268C351.3,271.8,351.746,268.627,350.434,267.494Z" transform="translate(-321.484 -260.436)" fill="#db8804"/>
            <g id="Grupo_127662" data-name="Grupo 127662" transform="translate(9.156 4.4)">
              <path id="Trazado_163792" data-name="Trazado 163792" d="M329.2,273.8a.51.51,0,0,1-.125-1l32.528-8.206a.509.509,0,1,1,.248.987l-32.528,8.206A.455.455,0,0,1,329.2,273.8Z" transform="translate(-328.688 -264.571)" fill="#c0aeba"/>
            </g>
            <path id="Trazado_163793" data-name="Trazado 163793" d="M339.325,271.412c2.36.3,2.975.324,3.665-.046a3.331,3.331,0,0,0,1.634-2.068c.008-.034.019-.069.025-.106.014-.064.02-.132.029-.2a3.832,3.832,0,0,0,.005-.732,2.385,2.385,0,0,0-2.312-1.915,29.056,29.056,0,0,1-7.269-1.02,30.6,30.6,0,0,0-4.457-1.192l5.157,6.781C337.146,271.121,338.338,271.286,339.325,271.412Z" transform="translate(-319.003 -260.289)" fill="#db8804"/>
            <path id="Rectángulo_35041" data-name="Rectángulo 35041" d="M1.494,0H4.788A1.494,1.494,0,0,1,6.282,1.494V4.788A1.494,1.494,0,0,1,4.788,6.282H1.493A1.493,1.493,0,0,1,0,4.789V1.494A1.494,1.494,0,0,1,1.494,0Z" transform="translate(39.784)" fill="#fff"/>
            <g id="Grupo_127663" data-name="Grupo 127663" transform="translate(25.9 2.246)">
              <path id="Trazado_163794" data-name="Trazado 163794" d="M342.374,270.033a.51.51,0,0,1-.193-.982l15.048-6.137a.509.509,0,1,1,.385.943L342.566,270A.516.516,0,0,1,342.374,270.033Z" transform="translate(-341.864 -262.876)" fill="#c0aeba"/>
            </g>
          </g>
          <path id="Trazado_163795" data-name="Trazado 163795" d="M305.157,372.32l-1.309,7.384a6.726,6.726,0,0,1-13.344-.9l-.254-6.481Z" transform="translate(-232.095 -128.595)" fill="#f9afb6"/>
          <path id="Trazado_163796" data-name="Trazado 163796" d="M262.4,373.46c-.724,2.084-1.449,4.016-2.135,5.541a6.8,6.8,0,0,1-12.988-3.152c.038-.8.089-1.6.14-2.389Z" transform="translate(-243.735 -128.287)" fill="#f9afb6"/>
          <path id="Trazado_163797" data-name="Trazado 163797" d="M248.169,373.722c.532-.044,1.027.419,1.5.867,1.139,1.069,1.16,2.093,1.782,2.847,1.123,1.36,3.692.835,4.843.619a11.5,11.5,0,0,0,6.856-4.6,30.593,30.593,0,0,0,8.788,6.453s5.129,3.544,9.839,2.366h0c1.473-.072,3.23-.367,4.4.868a5.024,5.024,0,0,1,1.029,3.5,6.715,6.715,0,0,1-2.575,4.844c-1.448,1.082-2.778.975-6.012.928-6.714-.1-4.935.3-8.851.061-6.944-.421-5.871-1.272-9.686-1.113-1.861.076-7.053.484-10.355.309a8.534,8.534,0,0,1-2.338-.433,9.274,9.274,0,0,1-2.894-1.609,43.257,43.257,0,0,1,1.057-10.46C246.741,373.992,247.877,373.746,248.169,373.722Z" transform="translate(-244.489 -128.287)" fill="#db8804"/>
          <path id="Trazado_163798" data-name="Trazado 163798" d="M290.981,372.58c.534-.044,1.028.419,1.5.867,1.137,1.069,1.159,2.093,1.78,2.847,1.123,1.362,3.693.835,4.845.62a11.5,11.5,0,0,0,6.855-4.6,30.63,30.63,0,0,0,8.788,6.455s5.13,3.544,9.839,2.366h0c1.474-.074,3.23-.367,4.4.868a5.022,5.022,0,0,1,1.031,3.495,6.713,6.713,0,0,1-2.575,4.843c-1.449,1.083-2.779.977-6.014.928-6.713-.1-4.933.3-8.851.062-6.944-.421-5.871-1.272-9.686-1.113-1.859.078-7.053.484-10.355.309a8.575,8.575,0,0,1-2.338-.432,9.265,9.265,0,0,1-2.894-1.61,43.3,43.3,0,0,1,1.057-10.459C289.553,372.85,290.69,372.6,290.981,372.58Z" transform="translate(-232.894 -128.596)" fill="#db8804"/>
        </g>
        <g id="Grupo_127669" data-name="Grupo 127669" transform="translate(212.998 114.141)">
          <path id="Rectángulo_35042" data-name="Rectángulo 35042" d="M.781,0H3.951a.78.78,0,0,1,.78.78V3.436a.781.781,0,0,1-.781.781H.78A.78.78,0,0,1,0,3.437V.781A.781.781,0,0,1,.781,0Z" transform="translate(0 0)" fill="#fff"/>
        </g>
        <g id="Grupo_127671" data-name="Grupo 127671" transform="translate(168.451 78.992)">
          <path id="Trazado_163807" data-name="Trazado 163807" d="M353.3,234.025a16.1,16.1,0,0,1,6.13-2.664c1.578-.316,5.374-1.1,8.6.885a10.311,10.311,0,0,1,3.571,4.044c1.89,3.313,4.471,8.035,7.428,14.081a1.836,1.836,0,0,1-.51,2.11,1.881,1.881,0,0,1-1.768-.151c-.844-.5-.867-1.305-1.722-2.709a10.233,10.233,0,0,0-1.245-1.652,3.2,3.2,0,0,1-.515,1.957,3.3,3.3,0,0,1-2.2,1.378,4.146,4.146,0,0,0-1.689-.883c-1.211-.3-1.961.16-3.2-.249a4.038,4.038,0,0,1-1.168-.618,2.934,2.934,0,0,1-2.106-.358,3.791,3.791,0,0,1-1.193-2.14,11.281,11.281,0,0,0-2.287-3.793l-4.487.961a6.88,6.88,0,0,1-3.181-4.327A7.017,7.017,0,0,1,353.3,234.025Z" transform="translate(-351.612 -226.019)" fill="#db8804"/>
          <path id="Trazado_163808" data-name="Trazado 163808" d="M411.361,238.211c.25-4.462-3.308-7.465-3.8-7.868q-2.844,1.369-5.688,2.737a10.83,10.83,0,0,0-4.4-4.683,10.662,10.662,0,0,0-4.684-1.329,13.628,13.628,0,0,0-7.644,15.254,1.315,1.315,0,0,0,2.122,1.28l.928,1.925c.344,1.486.8,1.922,1.191,2,.479.1.879-.33,1.386-.086.343.165.33.447.717.715a2.083,2.083,0,0,0,1.137.268c.916-.011,3.448-3.129,6.268-7.79a8.187,8.187,0,0,0,4.121,2.737,8.75,8.75,0,0,0,7.246-1.484A8.489,8.489,0,0,0,411.361,238.211Z" transform="translate(-342.608 -227.068)" fill="#db8804"/>
        </g>
        <g id="Grupo_127685" data-name="Grupo 127685" transform="translate(10.73 98.786)">
          <path id="Trazado_163809" data-name="Trazado 163809" d="M289.284,240.3H267.049l6.12,32.533h10Z" transform="translate(-193.242 -240.305)" fill="#868695"/>
          <rect id="Rectángulo_35043" data-name="Rectángulo 35043" width="11.714" height="7.712" rx="1.111" transform="translate(79.082 32.533)" fill="#1d272b"/>
          <rect id="Rectángulo_35044" data-name="Rectángulo 35044" width="21.366" height="28.529" rx="4.786" transform="translate(58.41 11.716)" fill="#1d272b"/>
          <rect id="Rectángulo_35045" data-name="Rectángulo 35045" width="5.548" height="8.189" transform="translate(66.319 4.643)" fill="#868695"/>
          <rect id="Rectángulo_35046" data-name="Rectángulo 35046" width="9.627" height="5.987" rx="1.306" transform="translate(64.28 3.969)" fill="#868695"/>
          <g id="Grupo_127674" data-name="Grupo 127674" transform="translate(17.646 40.252)">
            <path id="Trazado_163810" data-name="Trazado 163810" d="M303.954,404.792h-1.729V275.185h-79.7V404.792H220.8V273.456h83.159Z" transform="translate(-220.795 -273.456)" fill="#868695"/>
          </g>
          <rect id="Rectángulo_35047" data-name="Rectángulo 35047" width="2.569" height="15.871" transform="translate(6.84 185.338) rotate(180)" fill="#64546f"/>
          <g id="Grupo_127675" data-name="Grupo 127675" transform="translate(0 169.467)">
            <path id="Trazado_163811" data-name="Trazado 163811" d="M206.262,387.813c0,4.383,1.912,7.935,4.272,7.935s4.272-3.551,4.272-7.935-1.912-7.936-4.272-7.936S206.262,383.431,206.262,387.813Z" transform="translate(-206.262 -379.877)" fill="#1d272b"/>
          </g>
          <g id="Grupo_127676" data-name="Grupo 127676" transform="translate(2.631 169.467)">
            <path id="Trazado_163812" data-name="Trazado 163812" d="M208.429,387.813c0,4.383,1.912,7.935,4.273,7.935s4.27-3.551,4.27-7.935-1.912-7.936-4.27-7.936S208.429,383.431,208.429,387.813Z" transform="translate(-208.429 -379.877)" fill="#868695"/>
          </g>
          <rect id="Rectángulo_35048" data-name="Rectángulo 35048" width="2.568" height="15.871" transform="translate(19.763 185.338) rotate(180)" fill="#64546f"/>
          <g id="Grupo_127677" data-name="Grupo 127677" transform="translate(12.924 169.467)">
            <path id="Trazado_163813" data-name="Trazado 163813" d="M216.906,387.813c0,4.383,1.912,7.935,4.27,7.935s4.272-3.551,4.272-7.935-1.912-7.936-4.272-7.936S216.906,383.431,216.906,387.813Z" transform="translate(-216.906 -379.877)" fill="#1d272b"/>
          </g>
          <g id="Grupo_127678" data-name="Grupo 127678" transform="translate(15.555 169.467)">
            <path id="Trazado_163814" data-name="Trazado 163814" d="M219.073,387.813c0,4.383,1.912,7.935,4.27,7.935s4.273-3.551,4.273-7.935-1.914-7.936-4.273-7.936S219.073,383.431,219.073,387.813Z" transform="translate(-219.073 -379.877)" fill="#868695"/>
          </g>
          <rect id="Rectángulo_35049" data-name="Rectángulo 35049" width="2.569" height="15.871" transform="translate(88.372 185.338) rotate(180)" fill="#64546f"/>
          <g id="Grupo_127679" data-name="Grupo 127679" transform="translate(81.531 169.467)">
            <path id="Trazado_163815" data-name="Trazado 163815" d="M273.411,387.813c0,4.383,1.914,7.935,4.271,7.935s4.273-3.551,4.273-7.935-1.914-7.936-4.273-7.936S273.411,383.431,273.411,387.813Z" transform="translate(-273.411 -379.877)" fill="#1d272b"/>
          </g>
          <g id="Grupo_127680" data-name="Grupo 127680" transform="translate(84.164 169.467)">
            <path id="Trazado_163816" data-name="Trazado 163816" d="M275.579,387.813c0,4.383,1.912,7.935,4.271,7.935s4.272-3.551,4.272-7.935-1.913-7.936-4.272-7.936S275.579,383.431,275.579,387.813Z" transform="translate(-275.579 -379.877)" fill="#868695"/>
          </g>
          <rect id="Rectángulo_35050" data-name="Rectángulo 35050" width="2.569" height="15.871" transform="translate(101.296 185.338) rotate(180)" fill="#64546f"/>
          <g id="Grupo_127681" data-name="Grupo 127681" transform="translate(94.455 169.467)">
            <path id="Trazado_163817" data-name="Trazado 163817" d="M284.055,387.813c0,4.383,1.912,7.935,4.272,7.935s4.27-3.551,4.27-7.935-1.911-7.936-4.27-7.936S284.055,383.431,284.055,387.813Z" transform="translate(-284.055 -379.877)" fill="#1d272b"/>
          </g>
          <g id="Grupo_127682" data-name="Grupo 127682" transform="translate(97.086 169.467)">
            <path id="Trazado_163818" data-name="Trazado 163818" d="M286.222,387.813c0,4.383,1.912,7.935,4.271,7.935s4.272-3.551,4.272-7.935-1.912-7.936-4.272-7.936S286.222,383.431,286.222,387.813Z" transform="translate(-286.222 -379.877)" fill="#868695"/>
          </g>
          <rect id="Rectángulo_35051" data-name="Rectángulo 35051" width="81.43" height="21.961" transform="translate(87.017 161.357) rotate(180)" fill="#1d272b"/>
          <rect id="Rectángulo_35052" data-name="Rectángulo 35052" width="13.127" height="21.961" transform="translate(100.144 161.357) rotate(180)" fill="#a4a4b4"/>
          <path id="Trazado_163819" data-name="Trazado 163819" d="M237.459,367.122h17.875a4.305,4.305,0,0,0,4.306-4.306H233.156A4.3,4.3,0,0,0,237.459,367.122Z" transform="translate(-200.502 -214.064)" fill="#a4a4b4"/>
          <rect id="Rectángulo_35053" data-name="Rectángulo 35053" width="81.43" height="21.961" transform="translate(87.017 136.787) rotate(180)" fill="#1d272b"/>
          <rect id="Rectángulo_35054" data-name="Rectángulo 35054" width="13.127" height="21.961" transform="translate(100.144 136.787) rotate(180)" fill="#a4a4b4"/>
          <path id="Trazado_163820" data-name="Trazado 163820" d="M237.459,346.887h17.875a4.306,4.306,0,0,0,4.306-4.305H233.156A4.3,4.3,0,0,0,237.459,346.887Z" transform="translate(-200.502 -218.398)" fill="#a4a4b4"/>
          <rect id="Rectángulo_35055" data-name="Rectángulo 35055" width="81.43" height="21.961" transform="translate(87.017 112.216) rotate(180)" fill="#1d272b"/>
          <rect id="Rectángulo_35056" data-name="Rectángulo 35056" width="13.127" height="21.961" transform="translate(100.144 112.216) rotate(180)" fill="#a4a4b4"/>
          <path id="Trazado_163821" data-name="Trazado 163821" d="M237.459,326.651h17.875a4.305,4.305,0,0,0,4.306-4.3H233.156A4.3,4.3,0,0,0,237.459,326.651Z" transform="translate(-200.502 -222.732)" fill="#a4a4b4"/>
          <rect id="Rectángulo_35057" data-name="Rectángulo 35057" width="81.43" height="21.961" transform="translate(87.017 87.647) rotate(180)" fill="#1d272b"/>
          <rect id="Rectángulo_35058" data-name="Rectángulo 35058" width="13.127" height="21.961" transform="translate(100.144 87.647) rotate(180)" fill="#a4a4b4"/>
          <path id="Trazado_163822" data-name="Trazado 163822" d="M237.459,306.415h17.875a4.305,4.305,0,0,0,4.306-4.3H233.156A4.3,4.3,0,0,0,237.459,306.415Z" transform="translate(-200.502 -227.067)" fill="#a4a4b4"/>
          <rect id="Rectángulo_35059" data-name="Rectángulo 35059" width="81.43" height="21.961" transform="translate(87.017 63.077) rotate(180)" fill="#1d272b"/>
          <rect id="Rectángulo_35060" data-name="Rectángulo 35060" width="13.127" height="21.961" transform="translate(100.144 63.077) rotate(180)" fill="#a4a4b4"/>
          <path id="Trazado_163823" data-name="Trazado 163823" d="M237.459,286.181h17.875a4.306,4.306,0,0,0,4.306-4.306H233.156A4.3,4.3,0,0,0,237.459,286.181Z" transform="translate(-200.502 -231.401)" fill="#a4a4b4"/>
          <g id="Grupo_127683" data-name="Grupo 127683" transform="translate(4.723 40.252)">
            <path id="Trazado_163824" data-name="Trazado 163824" d="M293.31,404.792h-1.729V275.185h-79.7V404.792h-1.729V273.456H293.31Z" transform="translate(-210.152 -273.456)" fill="#868695"/>
          </g>
          <path id="Trazado_163825" data-name="Trazado 163825" d="M285.138,274.374H217.981a2.619,2.619,0,0,1-2.619-2.619h0a2.619,2.619,0,0,1,2.619-2.619h67.157a2.62,2.62,0,0,1,2.62,2.619h0A2.62,2.62,0,0,1,285.138,274.374Z" transform="translate(-204.313 -234.129)" fill="#a4a4b4"/>
          <g id="Grupo_127684" data-name="Grupo 127684" transform="translate(11.338 26.428)">
            <path id="Trazado_163826" data-name="Trazado 163826" d="M287.185,273.954H215.6v-.686a11.21,11.21,0,0,1,11.2-11.2h49.19a11.21,11.21,0,0,1,11.2,11.2Zm-70.191-1.371h68.8a9.837,9.837,0,0,0-9.8-9.142H226.8A9.838,9.838,0,0,0,216.994,272.583Z" transform="translate(-215.6 -262.071)" fill="#a4a4b4"/>
          </g>
        </g>
      </g>
      <g id="Grupo_128295" data-name="Grupo 128295" transform="translate(311.656 5813.408)">
        <path id="Trazado_163848" data-name="Trazado 163848" d="M202.861,340.122a5.23,5.23,0,0,0,5.7,4.883l12.178-1.685a5.533,5.533,0,0,0,4.44-6.28h0a5.232,5.232,0,0,0-5.714-4.869L207.3,333.852a5.53,5.53,0,0,0-4.44,6.27Z" transform="translate(-202.821 -184.956)" fill="#1d272b"/>
        <path id="Trazado_163849" data-name="Trazado 163849" d="M213.04,405.4c13.338,28.39,41.944,32.244,72.641,16.9,30.68-15.328,45.237-53.745,28.576-79.909-14.028-22.022-43.129-30.829-71.972-11C212.155,352.1,200.621,378.969,213.04,405.4Z" transform="translate(-185.709 -219.877)" fill="#1d272b"/>
        <path id="Trazado_163850" data-name="Trazado 163850" d="M212.955,395.161c8.419,21.784,36.78,28.325,63.371,14.551,26.591-13.755,41.339-42.6,32.936-64.395S272.47,316.992,245.9,330.761C219.287,344.526,204.553,373.353,212.955,395.161Z" transform="translate(-177.688 -208.182)" fill="url(#linear-gradient-2)"/>
        <path id="Trazado_163851" data-name="Trazado 163851" d="M221.191,351.951c3.488,5.963,11.171,7.368,17.186,3.123s8.038-12.512,4.555-18.48-11.179-7.369-17.177-3.123C219.739,337.712,217.7,345.979,221.191,351.951Z" transform="translate(-148.937 -180.872)" fill="url(#linear-gradient-6)"/>
        <path id="Trazado_163852" data-name="Trazado 163852" d="M216.141,352.251c3.683,4.31,10.731,3.31,15.772-2.244,5.025-5.553,6.129-13.541,2.455-17.842s-10.735-3.31-15.763,2.239S212.467,347.936,216.141,352.251Z" transform="translate(-166.778 -186.461)" fill="url(#linear-gradient-6)"/>
        <path id="Trazado_163853" data-name="Trazado 163853" d="M248.479,335.9c.347,5.9-5.139,10.864-12.271,11.125-7.12.237-13.177-4.343-13.524-10.231s5.139-10.878,12.263-11.116C242.079,325.422,248.132,330,248.479,335.9Z" transform="translate(-138.653 -200.426)" fill="url(#linear-gradient-6)"/>
        <path id="Trazado_163854" data-name="Trazado 163854" d="M214.654,347.553c-.394-5.185,4.364-9.663,10.637-10.017s11.662,3.584,12.055,8.76-4.364,9.668-10.629,10.013S215.048,352.739,214.654,347.553Z" transform="translate(-164.635 -157.125)" fill="url(#linear-gradient-6)"/>
        <path id="Trazado_163855" data-name="Trazado 163855" d="M247.778,332.961c-3.746-4.231-10.781-3.081-15.734,2.565-4.927,5.656-5.892,13.667-2.15,17.9s10.781,3.091,15.725-2.57S251.528,337.206,247.778,332.961Z" transform="translate(-122.666 -183.099)" fill="url(#linear-gradient-6)"/>
        <path id="Trazado_163856" data-name="Trazado 163856" d="M242.5,341.38c-2.243-4.576-8.445-5.47-13.884-2.006-5.414,3.472-8,10-5.753,14.579s8.449,5.484,13.876,2.006S244.738,345.974,242.5,341.38Z" transform="translate(-140.643 -158.041)" fill="url(#linear-gradient-6)"/>
        <path id="Trazado_163857" data-name="Trazado 163857" d="M213.463,409.19V378.217l63.843-40.1V284.818H262.848v44.566l-58.91,47.74.707,33.89Z" transform="translate(-199.205 -258.227)" fill="#1d272b"/>
      </g>
    </g>
    <g id="Grupo_128293" data-name="Grupo 128293" transform="translate(556.626 5997.599)">
      <rect id="Rectángulo_33829" data-name="Rectángulo 33829" width="99.33" height="43.6" transform="translate(2.172 2.172)" fill="#1d272b"/>
      <g id="Grupo_91754" data-name="Grupo 91754" transform="translate(63.299 29.249)">
        <rect id="Rectángulo_33830" data-name="Rectángulo 33830" width="9.41" height="14.37" fill="#3d4a60"/>
        <rect id="Rectángulo_33831" data-name="Rectángulo 33831" width="7.931" height="5.003" transform="translate(0.739 4.756)" fill="#e6e6e6"/>
        <rect id="Rectángulo_33832" data-name="Rectángulo 33832" width="3.98" height="0.37" rx="0.128" transform="translate(2.715 1.604)" fill="#fff"/>
        <rect id="Rectángulo_33833" data-name="Rectángulo 33833" width="5.949" height="0.37" rx="0.128" transform="translate(1.731 2.477)" fill="#fff"/>
        <path id="Rectángulo_33834" data-name="Rectángulo 33834" d="M.128,0H3.852A.128.128,0,0,1,3.98.128V.242A.128.128,0,0,1,3.852.37H.127A.127.127,0,0,1,0,.242V.128A.128.128,0,0,1,.128,0Z" transform="translate(2.715 5.453)" fill="#3d4a60"/>
        <path id="Rectángulo_33835" data-name="Rectángulo 33835" d="M.127,0H5.821a.128.128,0,0,1,.128.128V.242A.128.128,0,0,1,5.821.37H.128A.128.128,0,0,1,0,.242V.127A.127.127,0,0,1,.127,0Z" transform="translate(1.731 6.325)" fill="#3d4a60"/>
      </g>
      <g id="Grupo_91755" data-name="Grupo 91755" transform="translate(74.928 29.793)">
        <rect id="Rectángulo_33836" data-name="Rectángulo 33836" width="5.501" height="13.827" fill="#e6e6e6"/>
        <rect id="Rectángulo_33837" data-name="Rectángulo 33837" width="5.501" height="6.141" fill="#ff404e"/>
        <rect id="Rectángulo_33838" data-name="Rectángulo 33838" width="2.473" height="0.313" rx="0.108" transform="translate(1.407 1.962)" fill="#fff"/>
        <rect id="Rectángulo_33839" data-name="Rectángulo 33839" width="3.934" height="0.313" rx="0.108" transform="translate(0.565 2.548)" fill="#fff"/>
        <rect id="Rectángulo_33840" data-name="Rectángulo 33840" width="2.473" height="4.43" transform="translate(1.407 6.913)" fill="#fbb03b"/>
        <rect id="Rectángulo_33841" data-name="Rectángulo 33841" width="17.746" height="8.513" transform="translate(4.883 5.324)" fill="#fff"/>
        <rect id="Rectángulo_33842" data-name="Rectángulo 33842" width="7.171" height="8.518" transform="translate(15.458 5.314)" fill="#50759b"/>
        <rect id="Rectángulo_33843" data-name="Rectángulo 33843" width="7.331" height="0.739" transform="translate(6.425 7.624)" fill="#008f85"/>
        <path id="Trazado_150739" data-name="Trazado 150739" d="M483.809,358.95a1.336,1.336,0,1,0-1.336,1.343A1.34,1.34,0,0,0,483.809,358.95Z" transform="translate(-463.311 -349.244)" fill="#fff"/>
        <rect id="Rectángulo_33844" data-name="Rectángulo 33844" width="6.709" height="0.229" rx="0.079" transform="translate(6.425 9.344)" opacity="0.34"/>
        <rect id="Rectángulo_33845" data-name="Rectángulo 33845" width="6.709" height="0.229" rx="0.079" transform="translate(6.425 9.984)" opacity="0.34"/>
      </g>
      <g id="Grupo_91756" data-name="Grupo 91756" transform="translate(6.563 10.395)">
        <rect id="Rectángulo_33846" data-name="Rectángulo 33846" width="24.696" height="12.749" fill="#fff"/>
        <rect id="Rectángulo_33847" data-name="Rectángulo 33847" width="24.696" height="3.732" fill="#008f85"/>
        <rect id="Rectángulo_33848" data-name="Rectángulo 33848" width="24.696" height="3.732" transform="translate(0 9.031)" fill="#008f85"/>
        <rect id="Rectángulo_33849" data-name="Rectángulo 33849" width="15.45" height="0.356" rx="0.123" transform="translate(6.718 5.352)" opacity="0.29"/>
        <rect id="Rectángulo_33850" data-name="Rectángulo 33850" width="15.45" height="0.356" rx="0.123" transform="translate(6.718 6.34)" opacity="0.29"/>
        <rect id="Rectángulo_33851" data-name="Rectángulo 33851" width="15.45" height="0.356" rx="0.123" transform="translate(6.718 7.229)" opacity="0.29"/>
      </g>
      <g id="Grupo_91761" data-name="Grupo 91761" transform="translate(71.575 14.774)">
        <g id="Grupo_91757" data-name="Grupo 91757" transform="translate(14.3)">
          <path id="Rectángulo_33852" data-name="Rectángulo 33852" d="M0,0H3.651a0,0,0,0,1,0,0V6.617a.486.486,0,0,1-.486.486H.486A.486.486,0,0,1,0,6.617V0A0,0,0,0,1,0,0Z" transform="translate(0.365 1.098)" fill="#fbb03b"/>
          <rect id="Rectángulo_33853" data-name="Rectángulo 33853" width="4.381" height="1.294" fill="#fff"/>
          <rect id="Rectángulo_33854" data-name="Rectángulo 33854" width="2.943" height="2.013" transform="translate(0.719 3.529)" fill="#fff"/>
        </g>
        <g id="Grupo_91758" data-name="Grupo 91758" transform="translate(9.514 0.136)">
          <path id="Rectángulo_33855" data-name="Rectángulo 33855" d="M0,0H3.651a0,0,0,0,1,0,0V6.675a.427.427,0,0,1-.427.427H.427A.427.427,0,0,1,0,6.675V0A0,0,0,0,1,0,0Z" transform="translate(0.365 0.963)" fill="#fbb03b"/>
          <rect id="Rectángulo_33856" data-name="Rectángulo 33856" width="4.381" height="1.294" fill="#fff"/>
          <rect id="Rectángulo_33857" data-name="Rectángulo 33857" width="2.943" height="2.013" transform="translate(0.719 3.529)" fill="#fff"/>
        </g>
        <g id="Grupo_91759" data-name="Grupo 91759" transform="translate(4.786 0.136)">
          <path id="Rectángulo_33858" data-name="Rectángulo 33858" d="M0,0H3.651a0,0,0,0,1,0,0V6.558a.545.545,0,0,1-.545.545H.545A.545.545,0,0,1,0,6.558V0A0,0,0,0,1,0,0Z" transform="translate(0.365 0.963)" fill="#fbb03b"/>
          <rect id="Rectángulo_33859" data-name="Rectángulo 33859" width="4.381" height="1.294" fill="#fff"/>
          <rect id="Rectángulo_33860" data-name="Rectángulo 33860" width="2.943" height="2.013" transform="translate(0.719 3.529)" fill="#fff"/>
        </g>
        <g id="Grupo_91760" data-name="Grupo 91760" transform="translate(0 0.136)">
          <path id="Rectángulo_33861" data-name="Rectángulo 33861" d="M0,0H3.651a0,0,0,0,1,0,0V6.554A.549.549,0,0,1,3.1,7.1H.549A.549.549,0,0,1,0,6.554V0A0,0,0,0,1,0,0Z" transform="translate(0.365 0.963)" fill="#fbb03b"/>
          <rect id="Rectángulo_33862" data-name="Rectángulo 33862" width="4.381" height="1.294" fill="#fff"/>
          <rect id="Rectángulo_33863" data-name="Rectángulo 33863" width="2.943" height="2.013" transform="translate(0.719 3.529)" fill="#fff"/>
        </g>
      </g>
      <g id="Grupo_91766" data-name="Grupo 91766" transform="translate(43.066 35.559)">
        <g id="Grupo_91762" data-name="Grupo 91762" transform="translate(14.3)">
          <path id="Rectángulo_33864" data-name="Rectángulo 33864" d="M0,0H3.651a0,0,0,0,1,0,0V6.617a.486.486,0,0,1-.486.486H.486A.486.486,0,0,1,0,6.617V0A0,0,0,0,1,0,0Z" transform="translate(0.365 1.098)" fill="#fbb03b"/>
          <rect id="Rectángulo_33865" data-name="Rectángulo 33865" width="4.381" height="1.294" fill="#fff"/>
          <rect id="Rectángulo_33866" data-name="Rectángulo 33866" width="2.943" height="2.014" transform="translate(0.719 3.529)" fill="#fff"/>
        </g>
        <g id="Grupo_91763" data-name="Grupo 91763" transform="translate(9.514 0.136)">
          <path id="Rectángulo_33867" data-name="Rectángulo 33867" d="M0,0H3.651a0,0,0,0,1,0,0V6.675a.427.427,0,0,1-.427.427H.427A.427.427,0,0,1,0,6.675V0A0,0,0,0,1,0,0Z" transform="translate(0.365 0.963)" fill="#fbb03b"/>
          <rect id="Rectángulo_33868" data-name="Rectángulo 33868" width="4.381" height="1.294" fill="#fff"/>
          <rect id="Rectángulo_33869" data-name="Rectángulo 33869" width="2.943" height="2.014" transform="translate(0.719 3.529)" fill="#fff"/>
        </g>
        <g id="Grupo_91764" data-name="Grupo 91764" transform="translate(4.785 0.136)">
          <path id="Rectángulo_33870" data-name="Rectángulo 33870" d="M0,0H3.651a0,0,0,0,1,0,0V6.558a.545.545,0,0,1-.545.545H.545A.545.545,0,0,1,0,6.558V0A0,0,0,0,1,0,0Z" transform="translate(0.365 0.963)" fill="#fbb03b"/>
          <rect id="Rectángulo_33871" data-name="Rectángulo 33871" width="4.381" height="1.294" fill="#fff"/>
          <rect id="Rectángulo_33872" data-name="Rectángulo 33872" width="2.943" height="2.014" transform="translate(0.719 3.529)" fill="#fff"/>
        </g>
        <g id="Grupo_91765" data-name="Grupo 91765" transform="translate(0 0.136)">
          <path id="Rectángulo_33873" data-name="Rectángulo 33873" d="M0,0H3.651a0,0,0,0,1,0,0V6.553A.549.549,0,0,1,3.1,7.1H.549A.549.549,0,0,1,0,6.553V0A0,0,0,0,1,0,0Z" transform="translate(0.365 0.963)" fill="#fbb03b"/>
          <rect id="Rectángulo_33874" data-name="Rectángulo 33874" width="4.381" height="1.294" fill="#fff"/>
          <rect id="Rectángulo_33875" data-name="Rectángulo 33875" width="2.943" height="2.014" transform="translate(0.719 3.529)" fill="#fff"/>
        </g>
      </g>
      <g id="Grupo_91767" data-name="Grupo 91767" transform="translate(51.86 10.165)">
        <rect id="Rectángulo_33876" data-name="Rectángulo 33876" width="12.837" height="13.49" transform="translate(0 12.837) rotate(-90)" fill="#fff"/>
        <path id="Trazado_150740" data-name="Trazado 150740" d="M453.24,344.211s5.98,2.13,6.518,2.533,1.352-.1.792-.69a6.052,6.052,0,0,0-1.755-1.074l5.036.133s.713.105.811-.386-.947-.525-.947-.525l-3.3-.271,3.623-.462s.748-.141.736-.609-.953-.332-.953-.332l-3.614.159,3.55-.767s.888-.192.822-.716-1.315-.207-1.315-.207l-3.432.5,1.794-.933s.308-.183.1-.437-.632-.075-.632-.075-4.259,1.4-5.156,1.9a5.2,5.2,0,0,1-2.677.162Z" transform="translate(-451.962 -337.019)" fill="#db8804"/>
        <rect id="Rectángulo_33877" data-name="Rectángulo 33877" width="2.413" height="13.49" transform="translate(0 2.413) rotate(-90)" fill="#50759b"/>
        <rect id="Rectángulo_33878" data-name="Rectángulo 33878" width="2.413" height="13.49" transform="translate(0 12.837) rotate(-90)" fill="#50759b"/>
      </g>
      <rect id="Rectángulo_33879" data-name="Rectángulo 33879" width="98.365" height="4.466" transform="translate(3.138 23.052)" fill="url(#linear-gradient-2)"/>
      <path id="Trazado_150741" data-name="Trazado 150741" d="M519.5,378.683H415.822V330.739H519.5Zm-99.329-4.346h94.985V335.083H420.168Z" transform="translate(-415.822 -330.739)" fill="url(#linear-gradient-2)"/>
      <rect id="Rectángulo_33881" data-name="Rectángulo 33881" width="3.741" height="42.725" transform="translate(49.605 2.292)" fill="url(#linear-gradient-2)"/>
      <rect id="Rectángulo_33882" data-name="Rectángulo 33882" width="0.128" height="47.87" transform="translate(51.294 0.044)" opacity="0.26"/>
      <path id="Rectángulo_33883" data-name="Rectángulo 33883" d="M0,0H1.534a1,1,0,0,1,1,1v9.587a1,1,0,0,1-1,1H0a0,0,0,0,1,0,0V0A0,0,0,0,1,0,0Z" transform="translate(52.018 18.465)" fill="#a4b6c1"/>
      <path id="Rectángulo_33884" data-name="Rectángulo 33884" d="M0,0H1.534a1,1,0,0,1,1,1v9.587a1,1,0,0,1-1,1H0a0,0,0,0,1,0,0V0A0,0,0,0,1,0,0Z" transform="translate(50.51 30.052) rotate(180)" fill="#a4b6c1"/>
    </g>
    <g id="Grupo_131739" data-name="Grupo 131739" transform="translate(448.358 5856.229)">
      <text id="SIGNOS" transform="translate(9.777 32.106)" fill="#008f85" font-size="40" font-family="Roboto-Bold, Roboto" font-weight="700"><tspan x="0" y="0">SIGNOS</tspan></text>
      <text id="DEL_FALLECIMIENTO" data-name="DEL FALLECIMIENTO" transform="translate(9.777 63.133)" fill="#1d272b" font-size="24" font-family="Roboto-Bold, Roboto" font-weight="700"><tspan x="0" y="0">DEL FALLECIMIENTO</tspan></text>
      <rect id="Rectángulo_34968" data-name="Rectángulo 34968" width="4.889" height="81.493" transform="translate(0 -6)" fill="#d93328"/>
    </g>
  </g>
</svg>
