<?xml version="1.0" encoding="utf-8"?>
<!-- Generator: Adobe Illustrator 26.0.1, SVG Export Plug-In . SVG Version: 6.00 Build 0)  -->
<svg version="1.1" id="Layer_1" xmlns="http://www.w3.org/2000/svg" xmlns:xlink="http://www.w3.org/1999/xlink" x="0px" y="0px"
	 viewBox="0 0 417.8 443" style="enable-background:new 0 0 417.8 443;" xml:space="preserve">
<style type="text/css">
	.st0{opacity:0.354;fill:#A4A4B4;enable-background:new    ;}
	.st1{opacity:0.31;fill:#A4A4B4;enable-background:new    ;}
	.st2{fill:#A4A4B4;}
	.st3{fill:#1D272B;}
	.st4{fill:#FFFFFF;}
	.st5{fill:#CDE3E8;}
	.st6{fill:url(#Trazado_163875_00000090983903426906895500000007522304163513976205_);}
	.st7{opacity:0.92;fill:#FFFFFF;enable-background:new    ;}
	.st8{fill:#F9AFB6;}
	.st9{fill:#64546F;}
	.st10{fill:url(#Trazado_163721_00000128444655587420728020000012767511339466161822_);}
	.st11{fill:url(#Trazado_163722_00000036939328567867967130000000392007883040971186_);}
	.st12{fill:#F8D1B9;}
	.st13{fill:url(#Trazado_163724_00000092419617652129925030000006510034272207171999_);}
	.st14{fill:url(#Trazado_163732_00000017513095499687415290000000529104629945153428_);}
	.st15{fill:url(#Trazado_163734_00000082364009699416287140000005422312183811162553_);}
	.st16{fill:#DB8804;}
	.st17{fill:url(#Trazado_163738_00000070095959439826558320000012756712498822765735_);}
	.st18{fill:#868695;}
	.st19{fill:url(#Trazado_163741_00000096043979860611989640000002037246240135049609_);}
	.st20{fill:#12263F;}
	.st21{fill:url(#Trazado_163758_00000040564022595192434560000014960341081241271686_);}
	.st22{fill:url(#Trazado_163759_00000044879169630604173970000015553882272843778222_);}
	.st23{fill:#E59CA9;}
	.st24{fill:url(#Trazado_163766_00000113346780178695087330000014584136012049523593_);}
	.st25{fill:url(#Trazado_163769_00000004543629241829066340000003198750939008341693_);}
	.st26{fill:url(#Trazado_163781_00000022519870949348738380000012803280018032689823_);}
	.st27{fill:url(#Trazado_163782_00000029723915905543555430000002648807385580547220_);}
	.st28{fill:url(#Trazado_163783_00000040577073051706200870000008299052929369454998_);}
	.st29{fill:#C0AEBA;}
	.st30{fill:url(#Trazado_163850_00000053530801642115737660000015256118733576539543_);}
	.st31{fill:url(#Trazado_163851_00000057123682422663317070000007498619823392976054_);}
	.st32{fill:url(#Trazado_163852_00000163056971437652212120000008916033991387057817_);}
	.st33{fill:url(#Trazado_163853_00000120558557273515843170000014048999180270597279_);}
	.st34{fill:url(#Trazado_163854_00000118399169125431529430000017789204024732882320_);}
	.st35{fill:url(#Trazado_163855_00000088849632646555666410000004043036222700992387_);}
	.st36{fill:url(#Trazado_163856_00000097478981022703633660000003862501202211914114_);}
	.st37{fill:#3D4A60;}
	.st38{fill:#E6E6E6;}
	.st39{fill:#FF404E;}
	.st40{fill:#FBB03B;}
	.st41{fill:#50759B;}
	.st42{fill:#008F85;}
	.st43{opacity:0.34;enable-background:new    ;}
	.st44{opacity:0.29;enable-background:new    ;}
	.st45{fill:url(#Rectángulo_33879_00000114786395336249514160000006701771895546361500_);}
	.st46{fill:url(#Trazado_150741_00000134227680336226766130000016571668577618802859_);}
	.st47{fill:url(#Rectángulo_33881_00000070802569875727085370000002041372840120370861_);}
	.st48{opacity:0.26;enable-background:new    ;}
	.st49{fill:#A4B6C1;}
	.st50{enable-background:new    ;}
	.st51{fill:#D93328;}
</style>
<g id="Grupo_134233" transform="translate(-274.291 -5834)">
	<g id="Grupo_131737" transform="translate(274.291 5834)">
		<path id="Trazado_151846" class="st0" d="M357.5,428.4c15.6-27.9,20-64,11.8-95.9c-5.2-20.2-15.2-38.9-16.5-60
			c-2.6-42.1,29.7-76.1,36.4-117.6c2.9-18.2-0.3-39.4-12.9-50.5c-12.5-10.9-30.2-8.7-44.3-1s-26,19.9-39.6,28.9s-30.2,14.5-44.5,7.4
			c-14.5-7.2-22.7-25.4-27.3-43.2s-6.9-36.6-14.7-52.7c-12.9-26.5-40.6-40.9-66.3-37.2s-48.7,24.2-61,51.1s-14.5,59.4-8.3,89.1
			c3.1,15.1,8.2,29.5,11,44.6s3.1,31.7-3.2,45.4c-13.1,28.5-47.5,32.5-65.5,57c-14.9,20.2-15.4,51-6.9,75.9s24.3,45,40.2,64.2
			c73.8,2.9,149,3.1,222.8,6C297.2,441.1,328.8,430.4,357.5,428.4z"/>
		<path id="Trazado_151847" class="st1" d="M325.3,146.3c-0.2,23,21.7,43.1,17.9,65.8c-2,12.2-11.3,24.5-5.9,35.6
			c4.8,9.8,18.4,11.5,28.8,8.3c24.4-7.5,39.3-32.4,46.4-57c6.7-23.1,8.3-48.8-2.4-70.3c-8.6-17.3-28.5-32.6-48.7-31.2
			C342.9,98.8,325.5,129,325.3,146.3z"/>
		<path id="Trazado_151848" class="st1" d="M46.4,63c-16.3,27.2-17,63.1-1.9,90.9c4.8,8.8,11.3,17,20,21.9s20,6,28.7,1
			c13.2-7.5,16.1-25.3,15.1-40.5s-4.5-31.1,1.4-45.1c3.8-9.1,11.1-16.3,17.6-23.8s12.5-16.2,12.9-26.1c0.9-25.7-26.4-23.8-42.8-18.4
			C76.4,29.7,57.8,44,46.4,63z"/>
		<g id="Grupo_107069" transform="translate(9.124 0.001)">
			<path id="Trazado_151849" class="st2" d="M344.4,434.4l-1.6-1.7c4.4-5.6,11.3-18.5,9-41.8c-1-10.3-3.6-20.5-6.2-30.4
				c-1.1-4.4-2.3-9-3.3-13.5c-10.8-48.3-6.1-101.6,13-146.2c1.7-4,3.5-7.9,5.3-11.8c5.2-11.4,10.7-23.2,13-35.9
				c4.1-22.3-4-39.1-13.2-45.1c-8.9-5.9-21.4-5-34.3,2.5c-4.8,2.8-9.4,5.9-13.8,9.2c-5.9,4.2-12,8.6-18.5,11.7
				c-25.7,12.2-57.9,1.8-74.8-24.1c-8.1-12.5-12.7-27.6-17.2-42.1c-1.7-5.7-3.5-11.5-5.5-17.1C190.1,30.7,179,8.9,160.5,3.7
				c-16.3-4.6-32.7,5.5-43.7,14.8C95.9,36.2,81.1,60.2,75.3,86.1c-4,17.4-4.1,36.4-4.3,54.8c-0.2,27.3-0.5,55.6-13.5,78.4
				c-5.9,10.4-14.1,18.6-22,26.6c-7.4,7.5-15,15.2-20.7,24.6c-12.9,21.3-16.1,51.4-8.7,82.6c6.6,28.1,20.2,53,33.3,77l-1.8,1.4
				C24.4,407.3,10.7,382.2,4,353.8c-7.6-32-4.3-62.9,9-84.8c5.9-9.6,13.6-17.5,21.1-25.1c7.8-7.9,15.8-16,21.6-26.1
				c12.7-22.1,12.9-48.8,13.1-77c0.2-18.5,0.3-37.7,4.3-55.4c6-26.4,21-51,42.4-69C126.9,6.8,144-3.6,161,1.2
				c19.4,5.5,30.9,28,37.2,45.9c2,5.6,3.8,11.5,5.5,17.2c4.4,14.4,8.9,29.3,16.8,41.5c16.4,25.1,47.4,35.1,72.3,23.3
				c6.4-3,12.4-7.4,18.2-11.5c4.5-3.4,9.2-6.5,14-9.4c13.6-7.8,26.8-8.6,36.3-2.4c9.9,6.5,18.6,24.3,14.3,47.9
				c-2.4,13.1-7.9,25-13.2,36.6c-1.8,3.8-3.6,7.8-5.3,11.7c-18.8,44.1-23.5,96.7-12.8,144.4c1,4.5,2.2,9,3.3,13.4
				c2.5,10,5.2,20.3,6.2,30.8C356.3,414.9,349,428.5,344.4,434.4z"/>
		</g>
	</g>
	<g id="Grupo_131738" transform="translate(0 -3)">
		<g id="Grupo_128292" transform="translate(582.038 6045.426)">
			<g id="Grupo_127882" transform="translate(0 2.27)">
				<g id="Grupo_127710" transform="translate(0.028)">
					<path id="Trazado_163858" class="st3" d="M3.2,12.4c-0.7,0.2-1.5,0.4-2.3,0.5c-0.3-2.3-0.4-4.6-0.4-7c0.1-2.8,0.3-3.5,1-4.9
						l0.3-0.5C2.3,1.1,2.7,1.7,3,2.4c0.7,2.3,0.9,4.7,0.5,7.1C3.3,11.6,3.2,12.4,3.2,12.4z"/>
					<path id="Trazado_163859" class="st4" d="M0.9,12.8l2.1-0.4c0,0,0,0.3-0.2,0.4c-0.4,0.2-0.8,0.3-1.2,0.4c-0.2,0-0.4,0-0.6-0.1
						C0.9,13,0.9,12.8,0.9,12.8z"/>
					<path id="Trazado_163860" class="st3" d="M0.9,16.7c0.2-0.4,0.3-1,0.2-1.4c-0.1-0.9-0.2-2.4-0.2-2.4c0.3,0.1,0.7,0.2,1,0.1
						c0.6-0.1,1-0.1,1.4-1.1C3.1,13.4,3,14.9,3,16.3c0.1,0.2,0.1,0.4,0.1,0.5L0.9,16.7z"/>
					<path id="Trazado_163861" class="st5" d="M1.8,0.5L2.2,0c1.1,1.8,1.6,3.9,1.6,6c0,2.1-0.1,4.2-0.4,6.3c0,0.4-0.3,3.5-0.3,3.8
						s0.1,0.7,0.3,0.8c-0.1,0.1-0.3,0.1-0.4,0c0,0,0-2.2,0.1-3.8s0.5-6.6,0.4-7.8C3.4,3.9,3,2.6,2.4,1.4C2.3,1.1,2,0.8,1.8,0.5z"/>
					<g id="Grupo_127709" transform="translate(0 16.323)">
						<g id="Grupo_127708">
							<path id="Trazado_163862" class="st3" d="M0.5,0.6c0.1-0.1,0.1-0.1,0.4-0.1C1.1,0.4,1.2,0.2,1.3,0C1.5,0,1.8,0,2.1,0
								C2.6,0.2,3,0.4,3.5,0.5c0.2,0,0.4,0,0.4,0.1c0.2,2.5,0.3,4.9,0.2,7.4C4,11.2,3.7,20.3,3.7,22.6s0.2,6.2,0.3,7.3
								c0.1,1.1,0,1.2-0.3,1.5s-3.1,0.3-3.6-0.2c-0.1-0.8,0-1.5,0-2.3c0.5-5.2,0.5-10.4,0.2-15.6C0.1,11.4,0,9.5,0.1,7.6
								C0.2,3.9,0.5,0.6,0.5,0.6z"/>
							<path id="Trazado_163863" class="st5" d="M3.9,30.2c-0.1,0.8-0.2,0.9-0.4,1.1c-1.2,0.3-2.4,0.2-3.5-0.1c0,0.1,0,0.3,0,0.4
								c0.5,0.5,3.3,0.5,3.6,0.2S4.1,31.3,3.9,30.2L3.9,30.2z"/>
						</g>
					</g>
				</g>
				<g id="Grupo_127711" transform="translate(0 0.53)">
					<path id="Trazado_163864" class="st5" d="M1.5,0.5c-0.6,1.3-0.9,2.1-1,4.9c0,2.3,0.1,4.7,0.4,7c0.3,0.2,0.7,0.3,1,0.2L1.8,0
						L1.5,0.5z"/>
					<path id="Trazado_163865" class="st3" d="M0.9,16.3c-0.2,0.1-0.3,0.1-0.4,0.1c0,0-0.3,3.4-0.4,7c-0.1,1.9,0,3.8,0.2,5.7
						c0.3,5.2,0.2,10.4-0.2,15.6C0,45.5,0,46.3,0,47c0.6,0.3,1.3,0.4,2,0.4V15.8c-0.3,0-0.5,0-0.8,0C1.2,16.1,1.1,16.2,0.9,16.3z"/>
				</g>
			</g>
			<g id="Grupo_127883" transform="translate(38.732 3.77)">
				<path id="Trazado_163866" class="st3" d="M4.4,34.7C2,34.7,0,37.1,0,39.9s2,5.2,4.4,5.2s4.4-2.3,4.4-5.2S6.8,34.7,4.4,34.7z
					 M4.4,43.7c-2.1,0.4-4.1-1.1-4.5-3.2s1.1-4.1,3.2-4.5s4.1,1.1,4.5,3.2c0,0.2,0.1,0.4,0.1,0.6C7.7,41.9,6.3,43.6,4.4,43.7
					L4.4,43.7z"/>
				<path id="Trazado_163867" class="st3" d="M8.6,39.1l0.9-17.3c0,0,1-7.6,1.3-9.1c0.6-2.5,3.2-11.6,3-12.1s-0.9-0.1-1.3,1.2
					S9.2,12.7,9.2,12.7l-1.7,7.8L6.2,32.7l-2.1,3L6.9,37L8.6,39.1z"/>
				<path id="Trazado_163868" class="st3" d="M15.1,34.4c-2.4,0-4.4,2.3-4.4,5.2s2,5.2,4.4,5.2s4.4-2.3,4.4-5.2S17.5,34.4,15.1,34.4
					z M15.1,43.4c-2.1,0.4-4.1-1.1-4.5-3.2c-0.4-2.1,1.1-4.1,3.2-4.5c2.1-0.4,4.1,1.1,4.5,3.2c0,0.2,0.1,0.4,0.1,0.6
					C18.3,41.7,16.9,43.4,15.1,43.4L15.1,43.4z"/>
				<path id="Trazado_163869" class="st3" d="M10.7,39.6L9.2,25.2L7.3,24l1-12.1c0,0,2.9-11.3,3.5-11.8c0.6-0.5,1.2-0.1,0.6,2.2
					c-0.3,1.3-2.1,9.7-2.1,9.7l2.1,21.6l2.7,0.7c-1.1,0.5-2.1,1.3-2.9,2.3C11.6,37.6,11.1,38.6,10.7,39.6z"/>
				<path id="Trazado_163870" class="st5" d="M10.1,22.5c0,0.5-0.4,0.9-0.9,0.9c-0.5,0-0.9-0.4-0.9-0.9c0-0.5,0.4-0.9,0.9-0.9
					c0,0,0,0,0,0C9.7,21.6,10.1,22,10.1,22.5z"/>
			</g>
			<g id="Grupo_127884" transform="translate(21.732 2.273)">
				<path id="Trazado_163871" class="st3" d="M9.4,5.6C9.4,2.5,7.3,0,4.7,0S0,2.5,0,5.6s2.1,5.6,4.7,5.6S9.4,8.7,9.4,5.6z M8.2,5.6
					c0,2.3-1.6,4.1-3.5,4.1S1.2,7.9,1.2,5.6s1.6-4.1,3.5-4.1S8.2,3.3,8.2,5.6L8.2,5.6z"/>
				<path id="Trazado_163872" class="st3" d="M9.3,6.5l1,18.6c0,0,0.6,7.1,0.6,8.8c-0.2,4.7-0.1,13.1-0.2,13.7
					c-0.2,0.8-0.6,0.6-0.6-0.8c-0.1-2.1-0.6-12.2-0.6-12.2l-1.3-8L6.7,13.4l-2.2-3.2l3-1.5L9.3,6.5z"/>
				<path id="Trazado_163873" class="st3" d="M21,6c0-3.1-2.1-5.6-4.7-5.6S11.6,2.9,11.6,6s2.1,5.6,4.7,5.6S21,9.1,21,6z M19.8,6
					c0,2.3-1.6,4.1-3.5,4.1S12.8,8.2,12.8,6s1.6-4.1,3.5-4.1S19.8,3.7,19.8,6L19.8,6z"/>
				<path id="Trazado_163874" class="st3" d="M11.5,5.8L9.8,21.4l-2,1.2l1.1,13.1c0,0,0.5,10.4,0.6,11.3c0.1,1.6,0.5,1.6,0.8-1.7
					c0.1-1.4,0.7-9.8,0.7-9.8l2.2-23.3l2.9-0.7C15,10.8,13.9,10,13,8.9C12.4,8,11.9,6.9,11.5,5.8z"/>
				
					<linearGradient id="Trazado_163875_00000109746114140982217570000016419983172600200080_" gradientUnits="userSpaceOnUse" x1="-376.6895" y1="321.2807" x2="-376.6895" y2="320.2807" gradientTransform="matrix(1.988 0 0 -1.988 758.8261 662.127)">
					<stop  offset="0" style="stop-color:#F5F5F5"/>
					<stop  offset="0.25" style="stop-color:#F5F5F5"/>
					<stop  offset="1" style="stop-color:#EEEEF2"/>
				</linearGradient>
				<path id="Trazado_163875" style="fill:url(#Trazado_163875_00000109746114140982217570000016419983172600200080_);" d="M11,24.4
					c0-0.5-0.4-1-1-1s-1,0.4-1,1c0,0.5,0.4,1,1,1c0,0,0,0,0,0C10.5,25.4,11,25,11,24.4z"/>
			</g>
			<g id="Grupo_127885" transform="translate(11.906 0)">
				<g id="Grupo_127724">
					<g id="Grupo_127723">
						<path id="Trazado_163876" class="st4" d="M8.5,48.8c0,0.5-1.6,0.8-3.6,0.8s-3.6-0.3-3.6-0.7s1.6-0.7,3.6-0.7
							S8.5,48.4,8.5,48.8z"/>
						<path id="Trazado_163877" class="st3" d="M8.5,48.8c-0.2,0.4-1.8,0.7-3.6,0.7c-2,0-3.7-0.2-3.7-0.7c0,0,0,0.6,0,0.6l0,0
							c0,0.5,1.6,0.8,3.6,0.8s3.6-0.3,3.6-0.8l0,0v0l0,0C8.5,49.2,8.5,49,8.5,48.8z"/>
						<g id="Grupo_127715" transform="translate(2.899 28.022)">
							<path id="Trazado_163878" class="st3" d="M2.1,20.9l-1.3,0l0-4c-0.4-0.9-0.6-1.9-0.7-2.8C0,12.9,0,12.9,0,0
								c0,0,1.1,0.1,2,0.1C2,12.6,2.1,20.9,2.1,20.9z"/>
							<path id="Trazado_163879" class="st3" d="M1.9,0.3l1.9,0c0,0,0.2,13.5,0.1,14.3c-0.1,0.8-0.3,1.5-0.5,2.2c0,0.6,0,4.1,0,4.1
								l-1.5,0.1L1.9,0.3z"/>
						</g>
						<path id="Trazado_163880" class="st4" d="M7.3,27.9l-4.9,0c0,0-0.1,0.1-0.1,0.1s0,0.1,0.1,0.1h0.2l0,0.4H2.4
							c0,0-0.1,0-0.1,0.1c0,0,0,0,0,0c0,0.1,0,0.1,0.1,0.1h0.2l0,0.3H2.4c0,0-0.1,0-0.1,0.1c0,0,0,0.1,0.1,0.1l4.9,0
							c0,0,0.1,0,0.1-0.1s0-0.1-0.1-0.1H7.1v-0.3h0.2c0,0,0.1,0,0.1-0.1s0-0.1-0.1-0.1H7.1v-0.4h0.2c0,0,0.1-0.1,0.1-0.1
							S7.4,27.9,7.3,27.9z"/>
						<path id="Trazado_163881" class="st3" d="M1.8,41.3l0-24c0-0.1,0.1-0.2,0.2-0.2c0,0,0,0,0,0l0,0l5.8,0c0,0,0.1,0,0.1,0l0,0
							c0,0,0,0.1,0,0.1l0,0L8,41.2c0,0.1,0,0.1-0.1,0.1l0,0c-0.3,0.2-0.7,0.3-1.1,0.3l0,0c-0.6,0.1-1.3,0.1-1.9,0.1l0,0
							c-0.7,0-1.3,0-2-0.1l0,0c-0.3,0-0.7-0.1-1-0.2l0,0c0,0,0,0-0.1,0l0,0C1.8,41.4,1.8,41.4,1.8,41.3L1.8,41.3z M2.1,41.2
							c0.3,0.1,0.6,0.1,0.8,0.1l0,0c0.6,0.1,1.3,0.1,1.9,0.1l0,0c0.6,0,1.2,0,1.9-0.1l0,0c0.3,0,0.5-0.1,0.8-0.1l0,0
							c0.1,0,0.1,0,0.1,0l0,0L7.6,17.5l-5.5,0L2.1,41.2L2.1,41.2z"/>
						<path id="Trazado_163882" class="st3" d="M1.7,17.3L1.7,17.3L1.7,17.3c0-0.1,0-0.2,0.1-0.2l0,0C1.9,17,2.1,17,2.2,16.9l0,0
							c0.4-0.1,1.1-0.2,1.5-0.3l0,0c0.1,0,0.1,0,0.2-0.1l0,0c0-0.3,0-1.7,0-1.7l0,0v-0.2l2,0v0.2c0,0,0,1.3,0,1.7h0
							c0,0,0.1,0,0.2,0.1l0,0c0.1,0,0.4,0.1,0.6,0.1l0,0c0.4,0,0.8,0.2,1.2,0.3l0,0c0,0,0.1,0.1,0.1,0.2l0,0l0,0.1v10.6l0,0v0.2
							l-6.2,0L1.7,17.3L1.7,17.3z M2.1,27.8l5.5,0V17.3v0c-0.3-0.1-0.7-0.2-1-0.2l0,0c-0.3,0-0.7-0.1-1-0.3l0,0l0,0l0,0
							c0,0,0-0.1,0-0.1l0,0c0-0.2,0-1.2,0-1.6l0,0l-1.4,0c0,0.4,0,1.5,0,1.6l0,0c0,0.1,0,0.1-0.1,0.1l0,0c-0.2,0.2-0.5,0.2-0.8,0.3
							l0,0c-0.3,0.1-0.7,0.1-1,0.2l0,0c-0.1,0-0.1,0.1-0.2,0.1l0,0L2.1,27.8L2.1,27.8z"/>
						<path id="Trazado_163883" class="st4" d="M5.1,10.4l-0.4,0L4.7,0l0.4,0.9L5.1,10.4z"/>
						<path id="Trazado_163884" class="st4" d="M5.3,10.8c0,0-0.1-0.3-0.1-0.3l-0.1,0l-0.1,0.2v1.8c0,0.1-0.1,0.2-0.2,0.1
							c-0.1,0-0.1-0.1-0.1-0.1l0-1.8l-0.1-0.2c0,0-0.1,0-0.1,0c0,0.1-0.1,0.2-0.1,0.4c-0.1,0-0.1,0-0.2,0c0,0.5,0,1,0.1,1.6
							c0,0.2-0.2,0.4-0.3,0.6s-0.3,2.4-0.3,2.4c0,0,0.2,0,1.2,0c0.9,0,1.2,0,1.2,0c0-0.1-0.2-2.2-0.3-2.4s-0.4-0.5-0.3-0.7
							c0.1-0.5,0.1-1,0-1.6C5.5,10.8,5.4,10.8,5.3,10.8z"/>
						<path id="Trazado_163885" class="st4" d="M4.5,10.5c0-0.1,0.2-0.2,0.3-0.2s0.3,0.1,0.3,0.2c0,0-0.2,0-0.4,0S4.5,10.5,4.5,10.5
							z"/>
						<path id="Trazado_163886" class="st4" d="M6.3,15.5c0,0.1-0.1,0.1-0.1,0.1l-2.6,0c-0.1,0-0.1,0-0.1-0.1l0,0
							c0-0.1,0.1-0.1,0.1-0.1l2.6,0C6.2,15.4,6.3,15.5,6.3,15.5z"/>
						<g id="Grupo_127716" transform="translate(2.815 18.54)">
							<path id="Trazado_163887" class="st7" d="M0.1,0.1C0,0.1,0,0.1,0.1,0.1L0.1,0.1C0,0,0,0,0.1,0.1L0.1,0.1L3.1,0
								c0,0,0.1,0,0.1,0l0,0c0,0,0,0-0.1,0l0,0L0.1,0.1L0.1,0.1z"/>
							<path id="Trazado_163888" class="st7" d="M0.1,4.2C0,4.2,0,4.2,0.1,4.2L0.1,4.2C0,4.1,0,4.1,0.1,4.2L0.1,4.2l3.1-0.1
								c0,0,0,0,0,0l0,0c0,0,0,0,0,0l0,0L0.1,4.2L0.1,4.2z"/>
							<path id="Trazado_163889" class="st7" d="M0.1,8.4C0,8.4,0,8.4,0.1,8.4C0,8.4,0,8.4,0.1,8.4L0.1,8.4C0,8.4,0,8.3,0.1,8.4
								C0.1,8.3,0.1,8.3,0.1,8.4L0.1,8.4l3.1-0.1c0,0,0,0,0,0l0,0c0,0,0,0,0,0l0,0L0.1,8.4L0.1,8.4z"/>
							<path id="Trazado_163890" class="st7" d="M0.1,0.9C0,0.9,0,0.9,0.1,0.9L0.1,0.9C0,0.8,0,0.8,0.1,0.9L0.1,0.9l1.4-0.1
								c0,0,0,0,0,0l0,0c0,0,0,0,0,0l0,0L0.1,0.9L0.1,0.9z"/>
							<path id="Trazado_163891" class="st7" d="M0.1,1.7C0,1.7,0,1.7,0.1,1.7L0.1,1.7C0,1.6,0,1.6,0.1,1.7L0.1,1.7l1.4-0.1
								c0,0,0.1,0,0,0l0,0c0,0,0,0,0,0l0,0L0.1,1.7L0.1,1.7z"/>
							<path id="Trazado_163892" class="st7" d="M0.1,2.5C0,2.5,0,2.5,0.1,2.5L0.1,2.5C0,2.5,0,2.5,0.1,2.5L0.1,2.5l1.4-0.1
								c0,0,0.1,0,0.1,0l0,0c0,0,0,0-0.1,0l0,0L0.1,2.5L0.1,2.5z"/>
							<path id="Trazado_163893" class="st7" d="M0.1,3.4C0,3.4,0,3.4,0.1,3.4L0.1,3.4C0,3.3,0,3.3,0.1,3.4L0.1,3.4l1.4-0.1
								c0,0,0,0,0,0l0,0c0,0,0,0-0.1,0l0,0L0.1,3.4L0.1,3.4z"/>
							<path id="Trazado_163894" class="st7" d="M0.1,5.1C0,5.1,0,5.1,0.1,5.1C0,5,0,5,0.1,5.1L0.1,5.1C0,5,0,5,0.1,5.1L0.1,5.1
								L1.5,5c0,0,0,0,0,0l0,0c0,0,0,0,0,0c0,0,0,0,0,0l0,0L0.1,5.1L0.1,5.1z"/>
							<path id="Trazado_163895" class="st7" d="M0.1,5.9C0,5.9,0,5.9,0.1,5.9L0.1,5.9C0,5.8,0,5.8,0.1,5.9L0.1,5.9l1.4-0.1
								c0,0,0.1,0,0,0l0,0c0,0,0,0,0,0l0,0L0.1,5.9L0.1,5.9z"/>
							<path id="Trazado_163896" class="st7" d="M0.1,6.7C0,6.7,0,6.7,0.1,6.7L0.1,6.7C0,6.7,0,6.7,0.1,6.7C0.1,6.7,0.1,6.7,0.1,6.7
								L0.1,6.7l1.4-0.1c0,0,0,0,0,0c0,0,0,0,0,0l0,0c0,0,0,0,0,0l0,0L0.1,6.7L0.1,6.7z"/>
							<path id="Trazado_163897" class="st7" d="M0.1,7.6C0,7.6,0,7.6,0.1,7.6L0.1,7.6C0,7.5,0,7.5,0.1,7.6L0.1,7.6l1.4-0.1
								c0,0,0,0,0,0c0,0,0,0,0,0l0,0c0,0,0,0,0,0l0,0L0.1,7.6L0.1,7.6z"/>
						</g>
						<g id="Grupo_127718" transform="translate(6.589 18.296)">
							<g id="Grupo_127717">
								<path id="Trazado_163898" class="st4" d="M0.2,0.6V0.2L0.1,0.3L0,0.2L0.2,0h0.1L0.2,0.6L0.2,0.6z"/>
							</g>
						</g>
						<g id="Grupo_127720" transform="translate(6.491 22.427)">
							<g id="Grupo_127719">
								<path id="Trazado_163899" class="st4" d="M0,0.2C0,0.1,0.1,0,0.2,0c0.3,0,0.3,0.2,0.1,0.3C0.3,0.4,0.3,0.4,0.2,0.5h0.3v0.1
									H0V0.5l0.3-0.2l0,0c0.1-0.1,0.1-0.2-0.1-0.2c-0.1,0-0.1,0-0.1,0.1L0,0.2z"/>
							</g>
						</g>
						<g id="Grupo_127722" transform="translate(6.501 26.556)">
							<g id="Grupo_127721">
								<path id="Trazado_163900" class="st4" d="M0.2,0.2h0.1c0,0,0.1,0,0.1-0.1c0,0,0,0,0,0c0-0.1-0.1-0.1-0.1-0.1
									C0.2,0.1,0.1,0.1,0.2,0.2L0,0.1C0.1,0,0.1,0,0.2,0c0.1,0,0.2,0,0.2,0.2c0,0,0,0.1-0.1,0.1c0.1,0,0.1,0.1,0.1,0.1
									c0,0.1-0.1,0.2-0.2,0.2C0.1,0.6,0,0.5,0,0.4l0.1,0c0,0,0.1,0.1,0.1,0.1c0.1,0,0.2,0,0.2-0.1c0,0,0-0.1-0.1-0.1L0.2,0.2
									L0.2,0.2z"/>
							</g>
						</g>
						<path id="Trazado_163901" class="st4" d="M0,41.3c0,0.3,2.2,0.5,4.9,0.5s4.8-0.3,4.8-0.6s-2.2-0.5-4.9-0.5S0,41,0,41.3z
							 M2.3,41.2c1.7-0.3,3.4-0.3,5,0C5.7,41.5,4,41.5,2.3,41.2z"/>
						<path id="Trazado_163902" class="st5" d="M4.9,41.8c-2.7,0-4.8-0.2-4.9-0.5v0.5l0,0c0,0.3,2.2,0.5,4.8,0.5s4.8-0.3,4.8-0.6
							l0,0l0-0.5C9.6,41.6,7.5,41.8,4.9,41.8z M0,41.5L0,41.5L0,41.5z"/>
					</g>
				</g>
				<rect id="Rectángulo_35061" x="2.9" y="40" class="st5" width="2" height="1.4"/>
			</g>
		</g>
		<g id="Grupo_128290" transform="translate(308.869 5995.878)">
			<g id="Grupo_127635" transform="translate(129.608 0)">
				<path id="Trazado_163717" class="st8" d="M82.6,248.5l0.7,6.2h14.6l2.8-14.9L82.6,248.5z"/>
				<path id="Trazado_163718" class="st8" d="M29.2,251.2c0.1-0.3,1.2-5.9,1.2-5.9l18.1,2.4l-4.3,13l-15-3.4V251.2z"/>
				<path id="Trazado_163719" class="st9" d="M46.4,256.7c-0.9-1,0.6,1.2-6.4,0.8c-3.3-0.2-7.1-2.2-7.4-3c0.3-2.1,0.5-3.7-1-5.2
					c-1.1-1-3.9-1.6-4.7-1c-1,0.8-0.7,1.7-1,2.8c-0.4,1.8-3.2,4.1-4.6,5c-0.9,0.6-8.9,5.7-10.9,5.9c-1.2,0.1-4.7,0.5-5.6,1.6
					c-0.5,0.7-0.8,1.4-1,2.2l0,0c-0.4,1.4,0.2,2.8,1.3,3.6c1.4,0.8,3.1,1.1,4.7,0.9c1.4,0,8.8,0.1,27.7-0.3c3.5-0.1,5-0.2,10.7-0.5
					c0.6-1.4,0.7-3,0.2-4.5C47.9,263.3,46.7,257,46.4,256.7z"/>
				<path id="Trazado_163720" class="st3" d="M102.2,107.9l7.6,37.7l-9.8,101.8l-17.3,1.2l-6.7-80.1L50.6,248l-20.3-2.7l11.3-98
					l7.4-37.6l28-7.3L102.2,107.9z"/>
				
					<radialGradient id="Trazado_163721_00000174577922427824547650000005719144764278580409_" cx="-258.3884" cy="458.1789" r="0.5" gradientTransform="matrix(73.984 0 0 -119.8758 19189.3359 55014.7656)" gradientUnits="userSpaceOnUse">
					<stop  offset="0" style="stop-color:#F6F6F7"/>
					<stop  offset="0.477" style="stop-color:#F9F9FA"/>
					<stop  offset="0.715" style="stop-color:#FFFFFF"/>
				</radialGradient>
				<path id="Trazado_163721" style="fill:url(#Trazado_163721_00000174577922427824547650000005719144764278580409_);" d="
					M88.8,30.3c3.6,11.9,11.1,25,13.5,40.4c2.3,15,7.3,63,7.4,74.9l-10.2,1.9c-19.1,3.6-38.8,3.5-57.9-0.2
					c0.4-7.3,7.8-45.2,5.8-54.3c-1.4-6.4-3.3-7.9-7.4-17.4c-2.8-6.3-4.1-29.7-4.4-30.8L62.3,32L88.8,30.3z"/>
				
					<radialGradient id="Trazado_163722_00000031926887722969600860000007242385830273375651_" cx="-257.9012" cy="456.7314" r="0.5" gradientTransform="matrix(53.7861 0 0 -59.8479 13898.374 27408.5039)" gradientUnits="userSpaceOnUse">
					<stop  offset="0" style="stop-color:#F6F6F7"/>
					<stop  offset="0.477" style="stop-color:#F9F9FA"/>
					<stop  offset="0.715" style="stop-color:#FFFFFF"/>
				</radialGradient>
				<path id="Trazado_163722" style="fill:url(#Trazado_163722_00000031926887722969600860000007242385830273375651_);" d="
					M47.9,46.6c-6.2-4.3-14.7-2.7-19,3.5L2.9,87.8l-1.2,1.8c-2.9,4.2-1.8,9.9,2.4,12.8c2.1,1.4,4.7,1.9,7.1,1.4L42.8,97
					c2.9-0.6,4.7-3.5,4.1-6.3c-0.5-2.3-2.5-4-4.8-4.2L32,85.8l17.9-18.5c0.5-0.5,1-1.1,1.4-1.7C55.6,59.3,54.1,50.9,47.9,46.6
					C47.9,46.6,47.9,46.6,47.9,46.6z"/>
				<g id="Grupo_127632" transform="translate(42.535)">
					<path id="Trazado_163723" class="st12" d="M5.6,14.9c2.8,5.7,4.8,11.8,6.1,18c0.6,2.8,1,5.7,1.2,8.6c0,0.1,0,0.1,0,0.2
						c0,0,0,0,0,0c0.6,7.5,7.6,13,15,11.3c0.4-0.1,0.8-0.2,1.3-0.4l0.2-0.1c8.6-2.8,11.1-13.9,4.9-20.4c-0.5-0.5-0.9-1-1.4-1.5
						c-1.5-1.8-2.7-3.8-3.7-5.9c-0.2-0.4-0.3-0.7-0.5-1.1c-1.2-3-1.9-6.1-2-9.4c0-0.9,0-1.8,0-2.7l-1.4,0.2L5.6,14.9z"/>
					
						<radialGradient id="Trazado_163724_00000173118979703260795140000003785125232418876603_" cx="-298.3477" cy="451.9727" r="0.5" gradientTransform="matrix(24.785 0 0 -22.6163 7419.8823 10264.0576)" gradientUnits="userSpaceOnUse">
						<stop  offset="0" style="stop-color:#F6F6F7"/>
						<stop  offset="0.477" style="stop-color:#F9F9FA"/>
						<stop  offset="0.715" style="stop-color:#FFFFFF"/>
					</radialGradient>
					<path id="Trazado_163724" style="fill:url(#Trazado_163724_00000173118979703260795140000003785125232418876603_);" d="
						M12.9,41.6c0,0.1,0,0.1,0,0.2c0,0,0,0,0,0c0.6,7.5,7.6,13,15,11.3c0.4-0.1,0.8-0.2,1.3-0.4l0.2-0.1c8.6-2.8,11.1-13.9,4.9-20.4
						c-0.5-0.5-0.9-1-1.4-1.5c-1.7,2.8-3.9,5.2-6.6,7C22.4,40.4,17.7,41.7,12.9,41.6z"/>
					<path id="Trazado_163725" class="st12" d="M1.5,21.2c0.3,9,7.8,18.8,15.3,18c7.4-0.8,12.4-11.3,11.4-19.9
						c-0.9-7.6-7.1-16.6-14.6-16.1C6.2,3.7,1.3,13.4,1.5,21.2z"/>
					<g id="Grupo_127631" transform="translate(7.482 20.798)">
						<path id="Trazado_163726" class="st9" d="M10.8,3.2c-0.2,0.4,0.1,0.9,0.5,1.1s0.9-0.1,1.1-0.5c0.2-0.4-0.1-0.9-0.5-1.1
							c0,0,0,0,0,0C11.4,2.5,10.9,2.8,10.8,3.2C10.8,3.2,10.8,3.2,10.8,3.2z"/>
						<path id="Trazado_163727" class="st9" d="M2.8,4.9C2.6,5.4,2.8,5.8,3.3,6c0.4,0.2,0.9-0.1,1.1-0.5C4.5,5,4.3,4.5,3.8,4.4
							c0,0,0,0,0,0C3.4,4.2,2.9,4.5,2.8,4.9z"/>
						<g id="Grupo_127629" transform="translate(9.679)">
							<path id="Trazado_163728" class="st9" d="M0.3,1.1C0.1,1.1,0,1,0,0.8c0-0.1,0.1-0.2,0.2-0.3c1.2-0.6,2.5-0.7,3.8-0.2
								c0.2,0.1,0.3,0.2,0.2,0.4C4.1,0.9,3.9,1,3.7,0.9C3,0.7,2.3,0.6,1.6,0.7C1.2,0.8,0.8,0.9,0.5,1.1C0.4,1.1,0.4,1.1,0.3,1.1z"/>
						</g>
						<g id="Grupo_127630" transform="translate(0 1.531)">
							<path id="Trazado_163729" class="st9" d="M0.3,2C0.1,2,0,1.9,0,1.7c0-0.1,0-0.2,0.1-0.2c0.3-0.3,0.7-0.6,1.1-0.9
								C1.9,0.2,2.7,0,3.5,0c0.2,0,0.3,0.1,0.3,0.3c0,0,0,0,0,0c0,0.2-0.1,0.3-0.3,0.3h0c-0.7,0-1.4,0.2-2.1,0.5
								C1.1,1.4,0.8,1.6,0.5,1.9C0.5,2,0.4,2,0.3,2z"/>
						</g>
					</g>
					<path id="Trazado_163730" class="st12" d="M31.2,18.7c0.4,2.6-0.6,4.8-2.1,5.1s-3.1-1.7-3.5-4.2s0.6-4.8,2.1-5.1
						S30.8,16.1,31.2,18.7z"/>
					<path id="Trazado_163731" class="st12" d="M6.8,25.2c0.8,2.5,0.3,4.9-1.2,5.4s-3.4-1.1-4.2-3.5s-0.3-4.9,1.2-5.4
						S6,22.8,6.8,25.2z"/>
					
						<radialGradient id="Trazado_163732_00000175281163406706982640000014940326889172200592_" cx="-298.717" cy="451.6983" r="0.5" gradientTransform="matrix(27.3973 0 0 -21.833 8197.7617 9872.8408)" gradientUnits="userSpaceOnUse">
						<stop  offset="0" style="stop-color:#F6F6F7"/>
						<stop  offset="0.477" style="stop-color:#F9F9FA"/>
						<stop  offset="0.715" style="stop-color:#FFFFFF"/>
					</radialGradient>
					<path id="Trazado_163732" style="fill:url(#Trazado_163732_00000175281163406706982640000014940326889172200592_);" d="
						M27.4,14.5c-4.6,1.8-9.3,3.3-14.1,4.5c-4.7,1.2-12,2.8-12,2.8l0,0c-1.4-4.1-1.7-8.5-0.8-12.7c0.3-1.5,0.8-3,1.4-4.4L15.6,0
						C22.6,1.3,27.5,7.5,27.4,14.5L27.4,14.5z"/>
				</g>
				<path id="Trazado_163733" class="st3" d="M67.6,16.4c0.4,0.1-0.6,3.3,1.1,5.9c0.5,0.7,1,1.3,1.7,1.7c0.6,3.4-0.2,6.9-2.1,9.9
					c-0.6,0.9-3.3,5-8.1,5.6c-4.7,0.5-9.8-2.7-12.1-8.2c0.1-1.2,0.1-2.4-0.1-3.6c-0.6-2.7-2-4.6-1.8-4.7c0.2-0.2,1.9,3.5,5.5,4.9
					c1,0.4,3.1,1.2,4.6,0.3c0.5-0.5,1.2-0.8,1.9-1c0.6-0.1,1.2,0,1.8,0.1c1.2,0,2.5-0.4,3.4-1.2c0.6-0.4,1.3-1.2,3.2-7.2
					C66.9,17.8,67.3,16.4,67.6,16.4z"/>
				
					<radialGradient id="Trazado_163734_00000176741966212262468880000000607253618030768545_" cx="-257.9037" cy="456.9269" r="0.5" gradientTransform="matrix(53.864 0 0 -64.1884 13994.624 29391.7266)" gradientUnits="userSpaceOnUse">
					<stop  offset="0" style="stop-color:#F6F6F7"/>
					<stop  offset="0.477" style="stop-color:#F9F9FA"/>
					<stop  offset="0.715" style="stop-color:#FFFFFF"/>
				</radialGradient>
				<path id="Trazado_163734" style="fill:url(#Trazado_163734_00000176741966212262468880000000607253618030768545_);" d="
					M128.5,80l-1.6-2.6l-25.8-40.9c-0.4-0.6-0.8-1.2-1.3-1.7c-5-5.7-13.6-6.2-19.2-1.3c-5.7,5-6.2,13.6-1.3,19.2l0,0l25.3,28.9
					l-4,2.8c-2.5,1.7-3.1,5.1-1.4,7.6c1.1,1.6,3.1,2.5,5,2.3l18.1-1.9c1.3-0.1,2.5-0.6,3.5-1.2C129.8,88.9,131,83.8,128.5,80
					C128.6,80,128.5,80,128.5,80z"/>
				<path id="Trazado_163735" class="st16" d="M82.6,251.7c-1.7,1.3,0.5,4,0.6,8.3c0.2,5-2.7,6.5-1.1,8.6c1.4,1.8,4.4,1.9,9,2.2
					c3.9,0.2,8.2,0.5,9.9-1.7c0.9-1.1,0.7-2.3,0.5-4.1c-0.3-3-1.5-3.2-2.1-6c-0.7-3.7,0.9-6-0.9-7.2c-0.6-0.4-0.8-0.1-1.7-0.6
					c-1.9-1-1.6-2.4-3.1-3.3c-1.2-0.6-2.7-0.7-4-0.3c-1.9,0.6-1.7,2.1-4,3.2C84.1,251.6,83.4,251.1,82.6,251.7z"/>
				<g id="Grupo_127633" transform="translate(91.212 54.751)">
					<path id="Trazado_163736" class="st2" d="M12.2,24.7c-0.2,0-0.3-0.1-0.4-0.3L0,0.7C-0.1,0.5,0,0.2,0.3,0s0.5,0,0.6,0.2l0,0
						L12.7,24c0.1,0.2,0,0.5-0.2,0.6c0,0,0,0,0,0C12.4,24.7,12.3,24.7,12.2,24.7z"/>
				</g>
				<g id="Grupo_127634" transform="translate(13.68 85.341)">
					<path id="Trazado_163737" class="st2" d="M0.5,4.1C0.2,4.1,0,3.9,0,3.7c0-0.2,0.1-0.4,0.3-0.4c5.6-2,11.5-3.1,17.4-3.2
						c0.3,0,0.5,0.2,0.5,0.4c0,0,0,0,0,0c0,0.3-0.2,0.5-0.5,0.5C11.9,1,6.1,2.1,0.6,4.1C0.6,4.1,0.5,4.1,0.5,4.1z"/>
				</g>
			</g>
			<g id="Grupo_127651" transform="translate(0 110.223)">
				
					<linearGradient id="Trazado_163738_00000086667060011800205120000006872490935119235459_" gradientUnits="userSpaceOnUse" x1="-129.1708" y1="344.6375" x2="-129.1708" y2="343.6375" gradientTransform="matrix(105.82 0 0 -32.88 13761.084 11390.4131)">
					<stop  offset="0" style="stop-color:#F5F5F5"/>
					<stop  offset="0.25" style="stop-color:#F5F5F5"/>
					<stop  offset="1" style="stop-color:#A7B3CF"/>
				</linearGradient>
				<path id="Trazado_163738" style="fill:url(#Trazado_163738_00000086667060011800205120000006872490935119235459_);" d="
					M123,91.6L39.3,58.7h105.8L123,91.6z"/>
				<rect id="Rectángulo_35034" x="144.9" y="88.2" class="st3" width="46.5" height="58"/>
				<rect id="Rectángulo_35035" x="88" y="146.2" class="st3" width="31.5" height="14.4"/>
				<rect id="Rectángulo_35036" x="165.5" y="88.2" class="st2" width="46.5" height="58"/>
				<path id="Trazado_163739" class="st18" d="M97.6,91.6l140.5-3.1l106.5-29.7H119.8L97.6,91.6z"/>
				<g id="Grupo_127636" transform="translate(0 33.128)">
					<path id="Trazado_163740" class="st18" d="M39.3,25.6L0,12.8V0l39.3,12.8V25.6z"/>
					<rect id="Rectángulo_35037" x="39.3" y="12.8" class="st3" width="305.4" height="12.8"/>
					
						<linearGradient id="Trazado_163741_00000107582637927200528460000015750959962753077383_" gradientUnits="userSpaceOnUse" x1="-129.7995" y1="303.2554" x2="-129.7995" y2="302.2554" gradientTransform="matrix(344.673 0 0 -12.8 44910.707 3881.6667)">
						<stop  offset="0" style="stop-color:#F5F5F5"/>
						<stop  offset="0.25" style="stop-color:#F5F5F5"/>
						<stop  offset="1" style="stop-color:#A7B3CF"/>
					</linearGradient>
					<path id="Trazado_163741" style="fill:url(#Trazado_163741_00000107582637927200528460000015750959962753077383_);" d="
						M344.7,12.8h-308L0,0h319.9L344.7,12.8z"/>
				</g>
				<g id="Grupo_127650" transform="translate(16.91)">
					<path id="Trazado_163742" class="st12" d="M167.4,34.4c-6,0.2-11.7-0.1-17.5-0.4c-5.7-0.4-11.4-0.8-17.1-1.4
						c-5.7-0.5-11.3-1.3-17-2c-5.7-0.7-11.3-1.6-16.9-2.5l2.6,0l-17.8,1.3c-6,0.4-11.9,0.8-17.9,1.1c-6,0.3-11.9,0.6-17.9,0.8
						c-6,0.2-12,0.3-18,0.3c-3,0-5.4-2.8-5.3-6.2c-0.1-2.6,1.5-5,4-5.9c5.8-1.8,11.6-3.3,17.5-4.8c5.8-1.5,11.7-3,17.5-4.3
						c5.8-1.4,11.7-2.7,17.6-4l17.6-3.7c0.6-0.1,1.1-0.2,1.7-0.1l1,0.1l16.7,1.5l16.7,1.6L151.5,7c5.5,0.5,11,1,16.3,1.5l0.1,0
						c6.2,0.5,10.9,6.8,10.4,13.9C177.8,29.1,173.1,34.1,167.4,34.4z"/>
					<path id="Trazado_163743" class="st12" d="M17.4,30.4c-2.3-2.7-3.8-2.9-6.3-4.9c-2.7-2.3-5-5.1-6.5-8.3c-1.4-2.7-2.1-5-3.3-9.6
						c-1.2-4.3-1.8-6.7-1-7.4C1.6-0.8,5,2.2,5.9,3c2.6,2.3,5.5,4.4,8.4,6.3c4.4,2.9,8.9,5.7,15.2,6.9c3.5,0.6,7.1,0.6,10.6,0
						c0.6,4.9,1.1,9.9,1.7,14.8c-4.2,0.4-8.4,1.3-12.5,2.4c-3.8,1.1-6.8,2.3-9.2,0.5C19,33.1,19.1,32.4,17.4,30.4z"/>
					<path id="Trazado_163744" class="st12" d="M175.5,40.1c-4.9,0.2-9.8,0.2-14.8,0.2c-4.9,0-9.8-0.1-14.8-0.3
						c-4.9-0.1-9.8-0.4-14.7-0.6c-4.9-0.2-9.8-0.5-14.7-0.8l1.7-0.1l-17.8,1.3c-6,0.4-11.9,0.8-17.9,1.1c-6,0.3-11.9,0.6-17.9,0.8
						c-6,0.2-12,0.3-18,0.3c-3,0-5.4-2.8-5.3-6.2c-0.1-2.6,1.5-5,4-5.9c5.8-1.8,11.6-3.3,17.5-4.8c5.8-1.5,11.7-3,17.5-4.3
						c5.8-1.4,11.7-2.7,17.6-4l17.6-3.7c0.2,0,0.5-0.1,0.7-0.1l1,0c4.9-0.1,9.8-0.1,14.7-0.1c4.9,0,9.8,0,14.7,0.1
						c4.9,0.1,9.8,0.3,14.7,0.5c4.9,0.3,9.8,0.5,14.7,1l0.1,0c6.2,0.6,10.8,6.8,10.3,14C185.8,34.8,181.1,39.8,175.5,40.1z"/>
					<path id="Trazado_163745" class="st12" d="M243.7,12.6c-1.3-1-39.7-8.7-50.7-8.7c-11,0-10.5-0.5-78.1,8.9
						c7.7-1.1-1.1,25.8-1.1,25.8c9.4,1.1,17.1,2.4,22.5,3.5c15,2.9,22.5,5.6,32.3,2.2c3.9-1.3,15.9,4.6,30.1,5.9
						c4.6,0.4,9.3,0.2,13.8-0.5c6.8-0.9,12.2-1.6,17.9-4.9c3.2-1.8,9.4-6.1,14.7-15.6c-0.3-3.4-0.6-6.8-0.9-10.2
						C244.1,16.9,243.9,14.8,243.7,12.6z"/>
					<path id="Trazado_163746" class="st12" d="M265.9,35.1c-0.6-1.2-1.3-2.4-1.8-3.8c-2.4-5.4-4.5-11.8-7.1-16.6
						c-1.8,0.5-3.7,0.8-5.6,0.8c-0.2,0-0.5,0-0.7,0c-1.7,0-3.8-1.7-6.9-2.9c-3.4-1.4-5.8,0.7-4.9,3.4c1.1,3.3,2.6,5.4,3.5,8.8
						c0.8,2.9,0.7,10.4-0.5,15.3c1.1-1.5,2.4-2.8,3.8-4.1c3.5-3.3,8.3-2.9,10.3-2.7C259.3,33.8,260.7,33.5,265.9,35.1z"/>
					<path id="Trazado_163747" class="st12" d="M264.1,31.3c-2.4-5.4-4.5-11.8-7.1-16.6c-1.8,0.5-3.7,0.8-5.6,0.8
						c0.6,4.6,2.8,8.9,6.1,12.1C259.3,29.4,261.6,30.7,264.1,31.3z"/>
					<g id="Grupo_127644" transform="translate(254.835 9.142)">
						<path id="Trazado_163748" class="st12" d="M19.5,3.4C13.7-1.3,4.1-1.3,1,4.6c-3,5.7,1.2,15.1,7.1,19c5.2,3.5,13.8,3.9,17-1.7
							C28.2,16.2,24.5,7.4,19.5,3.4z"/>
						<g id="Grupo_127643" transform="translate(4.025 0.363)">
							<g id="Grupo_127637" transform="translate(6.66 7.013)">
								<path id="Trazado_163749" class="st9" d="M0.3,3.3C0.2,3.3,0.1,3.2,0,3.2C0,3,0,2.8,0.1,2.7C0.6,2.3,1,1.8,1.2,1.3
									c0.1-0.3,0.2-0.7,0.3-1C1.5,0.1,1.6,0,1.8,0c0,0,0,0,0,0C2,0,2.1,0.2,2,0.4C2,0.8,1.9,1.2,1.7,1.6C1.4,2.2,1,2.8,0.4,3.2
									C0.4,3.3,0.3,3.3,0.3,3.3z"/>
							</g>
							<g id="Grupo_127638" transform="translate(9.745 0.001)">
								<path id="Trazado_163750" class="st9" d="M0.3,3.6c-0.1,0-0.1,0-0.2-0.1C0,3.4,0,3.2,0.1,3.1C0.5,2.6,0.7,2,0.8,1.4
									C0.9,1,0.9,0.7,0.9,0.3C0.9,0.2,1,0,1.2,0c0.2,0,0.3,0.1,0.3,0.3c0,0,0,0,0,0c0,0.4,0,0.8-0.1,1.2c-0.1,0.7-0.4,1.4-0.9,2
									C0.4,3.6,0.4,3.6,0.3,3.6z"/>
							</g>
							<g id="Grupo_127639" transform="translate(2.969 1.471)">
								<path id="Trazado_163751" class="st9" d="M4.7,2.9L4.7,2.9C4.1,2.8,3.5,2.6,3,2.3C2.5,1.9,2.1,1.5,1.6,1.1L1.5,1
									C1.2,0.7,1.1,0.6,1,0.6c-0.1,0-0.3,0.2-0.4,0.5C0.5,1.2,0.3,1.3,0.2,1.2c0,0,0,0,0,0C0,1.1,0,0.9,0,0.8C0.3,0.2,0.7,0,0.9,0
									c0.4,0,0.6,0.2,1,0.5L2,0.6C2.4,1,2.8,1.4,3.3,1.7c0.4,0.3,1,0.5,1.5,0.5C4.9,2.3,5,2.4,5,2.6C5,2.7,4.9,2.9,4.7,2.9z"/>
							</g>
							<g id="Grupo_127640" transform="translate(0 1.704)">
								<path id="Trazado_163752" class="st9" d="M0.6,4.9c-0.1,0-0.2-0.1-0.3-0.2C0.1,4,0,3.2,0,2.5c0.1-0.9,0.4-1.7,0.8-2.4
									C0.9,0,1.1,0,1.2,0c0,0,0,0,0,0c0.1,0.1,0.1,0.3,0,0.4c-0.4,0.6-0.7,1.3-0.7,2c-0.1,0.6,0,1.3,0.2,1.9
									c0.1,0.2,0,0.3-0.1,0.4C0.6,4.9,0.6,4.9,0.6,4.9z"/>
							</g>
							<g id="Grupo_127641" transform="translate(7.111)">
								<path id="Trazado_163753" class="st9" d="M0.3,2.3c0,0-0.1,0-0.1,0C0,2.2,0,2,0,1.9l0.8-1.7C0.9,0,1.1,0,1.2,0c0,0,0,0,0,0
									c0.1,0.1,0.2,0.3,0.1,0.4L0.5,2.2C0.5,2.3,0.4,2.3,0.3,2.3z"/>
							</g>
							<g id="Grupo_127642" transform="translate(4.462 5.7)">
								<path id="Trazado_163754" class="st9" d="M0.3,2.3c-0.1,0-0.1,0-0.2-0.1C0,2.1,0,1.9,0.1,1.8l1.1-1.6C1.3,0,1.4,0,1.6,0
									c0,0,0,0,0,0c0.1,0.1,0.1,0.3,0,0.4L0.5,2.2C0.4,2.2,0.4,2.3,0.3,2.3z"/>
							</g>
						</g>
						<path id="Trazado_163755" class="st20" d="M20.3,4.3c-1.7-0.1-2.2,4.3-2,6.9c0,0.4,0,0.8,0,1.1c0,2.4-1.9,4.4-4.3,4.4
							c0,0-0.1,0-0.1,0c-1.8-0.1-3.6-0.1-3.6,0.5c0.1,1.6,2.9,1.8,3.1,3.7c0.1,0.7,0,1.5-0.4,2.2c-0.7,1-1.7,0.3-3.6,1.2
							c-0.9,0.4-2,1.2-1.9,1.7c0.1,0.3,0.7,0.3,1.6,0.7c0.8,0.4,1.5,1,2.1,1.7c1.4,1.3,3.1,1.3,5.4,1.4c1.6,0,3.1-0.3,4.6-0.8
							c0.5-0.2,1.1-0.5,1.6-0.7c2.2-1.3,5-4.4,5.2-12C28,11.6,23.4,4.5,20.3,4.3z"/>
						<path id="Trazado_163756" class="st12" d="M10.7,17.4c-1.3-1.5-3.2-2-4-1s-0.5,3.1,0.8,4.6s3.1,2,4,1S12,19,10.7,17.4z"/>
					</g>
					<path id="Trazado_163757" class="st12" d="M34.1,40.9c-2.3-2.7-3.8-2.9-6.3-4.9c-2.7-2.3-5-5.1-6.5-8.3c-1.4-2.7-2.1-5-3.3-9.6
						c-1.2-4.3-1.8-6.7-1-7.4c1.2-1,4.6,2,5.5,2.8c2.6,2.3,5.5,4.4,8.4,6.3c4.4,2.9,8.9,5.7,15.2,6.9c3.5,0.6,7.1,0.6,10.6,0
						c0.6,4.9,1.1,9.9,1.7,14.8C54.3,42,50.1,42.8,46,44c-3.8,1.1-6.8,2.3-9.2,0.5C35.6,43.6,35.7,42.9,34.1,40.9z"/>
					
						<radialGradient id="Trazado_163758_00000119078169480521007720000011935925413687220113_" cx="-145.6572" cy="347.4755" r="0.5" gradientTransform="matrix(72.137 0 0 -89.9352 10683.9111 31299.7754)" gradientUnits="userSpaceOnUse">
						<stop  offset="0" style="stop-color:#F6F6F7"/>
						<stop  offset="0.477" style="stop-color:#F9F9FA"/>
						<stop  offset="0.715" style="stop-color:#FFFFFF"/>
					</radialGradient>
					<path id="Trazado_163758" style="fill:url(#Trazado_163758_00000119078169480521007720000011935925413687220113_);" d="
						M143.2,6.2c2.1,0.1,18.5-2.4,22.6-1.4c4.8,1.1,10.6,5.9,22.4,5.9c9,0,10.8,0.5,24.5-4.6c-1.1,3.3-1.7,10.9-2.6,17.3
						c-0.7,4.9-1,9.9-0.9,14.8c0.2,10.7,0.1,29.3,0,54.1l-68.7,2.2c0.6-18.3,1.7-27.6,2.4-45.9c1.2-3.5,2-17.2,2.4-23.2
						C145.7,18.9,145,12.4,143.2,6.2z"/>
					<g id="Grupo_127645" transform="translate(102.876 58.73)">
						
							<linearGradient id="Trazado_163759_00000163068535707363717510000010001249021284512154_" gradientUnits="userSpaceOnUse" x1="-244.0306" y1="275.0265" x2="-244.0306" y2="274.0265" gradientTransform="matrix(16.457 0 0 -10.717 4024.2395 2947.4619)">
							<stop  offset="0" style="stop-color:#F5F5F5"/>
							<stop  offset="0.25" style="stop-color:#F5F5F5"/>
							<stop  offset="1" style="stop-color:#A7B3CF"/>
						</linearGradient>
						<path id="Trazado_163759" style="fill:url(#Trazado_163759_00000163068535707363717510000010001249021284512154_);" d="
							M16.5,10.7L0,5.4V0l16.5,5.4V10.7z"/>
						<rect id="Rectángulo_35038" x="16.5" y="5.4" class="st3" width="138.4" height="5.4"/>
						<path id="Trazado_163760" class="st3" d="M154.9,5.4H16.5L0,0h143.8L154.9,5.4z"/>
					</g>
					<g id="Grupo_127649" transform="translate(122.745 17.779)">
						<path id="Trazado_163761" class="st12" d="M116.6,28.6l-34.8,8.8l-1.5,0.4l-24.3,2c-8.1,0.6-16.2,1.2-24.3,1.8
							c-2.7,0.2-5-2.2-5.2-5.3c-0.2-2.5,1.3-4.9,3.7-5.8c7.9-2.3,15.8-4.5,23.6-6.7l23.7-6.5L76,17.7c5.5-2.9,11-5.7,16.5-8.5
							l8.3-4.1l8.4-4c6.4-3.1,13.8,0.4,16.5,7.8s-0.4,15.8-6.8,18.9c-0.7,0.3-1.3,0.6-2,0.7L116.6,28.6z"/>
						<path id="Trazado_163762" class="st12" d="M37.2,29.5c0.1,0.9,0.9,7.4-2.8,11.5c-3.5,4-9.1,3.5-9.5,3.4
							c-2.5-0.3-3.8-1.3-6.7-0.8c-1.6,0.3-2.3,1.1-3.9,1.6c-4.2,1.3-8.7,1.5-13.1,0.6c-1-0.3-1.5-1.3-1.2-2.3c0.1-0.4,0.4-0.7,0.7-1
							c2.7-1.7,5.3-3.7,7.5-6.1c1.6-2.1,3.7-3.7,6.1-4.8c0.5-0.2,1.5-0.6,5.9-1c5-0.4,7.1-0.2,11.4-0.6C34,30,36,29.7,37.2,29.5z"/>
						<g id="Grupo_127646" transform="translate(2.689 37.084)">
							<path id="Trazado_163763" class="st23" d="M0.2,7.7C0.1,7.7,0,7.7,0,7.6c0-0.1,0-0.2,0.1-0.3C1.6,6.5,3,5.6,4.3,4.5
								c1.6-1.3,3-2.8,4.3-4.5C8.7,0,8.8,0,8.8,0c0,0,0,0,0,0c0.1,0.1,0.1,0.2,0,0.3C7.6,2,6.1,3.5,4.5,4.9C3.2,6,1.8,6.9,0.2,7.7
								C0.2,7.7,0.2,7.7,0.2,7.7z"/>
						</g>
						<g id="Grupo_127647" transform="translate(6.751 37.571)">
							<path id="Trazado_163764" class="st23" d="M0.2,7.7C0.1,7.7,0,7.7,0,7.6c0-0.1,0-0.2,0.1-0.3C1.6,6.5,3,5.6,4.3,4.5
								c1.6-1.3,3-2.8,4.3-4.5C8.7,0,8.8,0,8.8,0c0,0,0,0,0,0c0.1,0.1,0.1,0.2,0,0.3C7.6,2,6.1,3.5,4.5,4.9C3.2,6,1.8,6.9,0.2,7.7
								C0.2,7.7,0.2,7.7,0.2,7.7z"/>
						</g>
						<g id="Grupo_127648" transform="translate(12.66 39.377)">
							<path id="Trazado_163765" class="st23" d="M0.2,5.9c-0.1,0-0.1,0-0.2-0.1C0,5.7,0,5.6,0.1,5.5c1.4-1,2.7-2.1,3.8-3.4
								c0.6-0.7,1.2-1.3,1.7-2C5.7,0,5.8,0,5.9,0c0,0,0,0,0,0C6,0.1,6,0.3,5.9,0.3C5.4,1.1,4.8,1.8,4.2,2.4C3,3.7,1.7,4.8,0.2,5.9
								C0.3,5.9,0.2,5.9,0.2,5.9z"/>
						</g>
					</g>
				</g>
				<rect id="Rectángulo_35039" x="119.5" y="146.2" class="st2" width="138.9" height="14.4"/>
			</g>
			<g id="Grupo_127665" transform="translate(32.314 19.859)">
				
					<radialGradient id="Trazado_163766_00000015339851919833425290000015038373426566205597_" cx="-160.8198" cy="436.7115" r="0.5" gradientTransform="matrix(61.0612 0 0 -56.693 9906.082 24824.3223)" gradientUnits="userSpaceOnUse">
					<stop  offset="0" style="stop-color:#F6F6F7"/>
					<stop  offset="0.477" style="stop-color:#F9F9FA"/>
					<stop  offset="0.715" style="stop-color:#FFFFFF"/>
				</radialGradient>
				<path id="Trazado_163766" style="fill:url(#Trazado_163766_00000015339851919833425290000015038373426566205597_);" d="
					M112.7,83.3l-28-7.3L84,51.2c0-1.2-0.2-2.4-0.5-3.5c-2.1-7.5-10-11.9-17.5-9.7c-7.5,2.1-11.9,10-9.7,17.5l8.5,30l0.7,2.4
					c1,3.6,4.3,6.1,8,6.1l37.8,0.2c3,0,5.5-2.5,5.5-5.5C116.8,86.2,115.1,84,112.7,83.3z"/>
				<path id="Trazado_163767" class="st3" d="M48.5,119c-0.4,5.6-1,11.1-1.6,16.7c-0.7,5.6-1.3,11.1-2.1,16.6
					c-0.7,5.5-1.6,11.1-2.5,16.6s-1.8,11-2.8,16.5l-0.2,1.2c0,0.1,0,0.2-0.1,0.2l-5,15c-1.8,5-3.4,10-5.3,15
					c-1.8,5-3.7,9.9-5.6,14.9c-1.4,3.4-3,8.8-4.7,13.4c-0.7,2.1-1.4,4-2.1,5.5c-1.5,3.4-5.6,4.9-9,3.4c-2.6-1.2-4.1-3.8-4-6.6
					c0-0.8,0.1-1.6,0.1-2.4c0.3-4.5,0.7-9,1.1-13.5c0.5-5.3,1.8-14.7,2.5-20c0.6-5.3,1.4-10.5,2.1-15.7l2.4-15.7l-0.3,1.4
					c0.5-5.6,1.1-11.1,1.7-16.7s1.3-11.1,2-16.6c0.7-5.5,1.5-11.1,2.4-16.6c0.9-5.5,1.8-11,2.9-16.5c1.6-7.7,9-12.6,16.7-11
					C44.2,105.6,49,111.9,48.5,119L48.5,119z"/>
				<path id="Trazado_163768" class="st3" d="M83.8,182.7l-10.8,61l-1.3,7.4c-0.6,3.7-4.1,6.1-7.8,5.5c-3.1-0.6-5.4-3.2-5.6-6.4
					l-0.3-6.5l-2.4-59.4l-17-59.8c-2.1-7.5,2.3-15.3,9.8-17.4c7.5-2.1,15.2,2.2,17.4,9.7l17.4,61.1l0.3,1.1
					C84,180.2,84,181.5,83.8,182.7z"/>
				<g id="Grupo_127657" transform="translate(3.684)">
					
						<radialGradient id="Trazado_163769_00000149376302717382335150000003585036943456996270_" cx="-164.8428" cy="438.3317" r="0.5" gradientTransform="matrix(77.8488 0 0 -120.8661 12871.7393 53066.7539)" gradientUnits="userSpaceOnUse">
						<stop  offset="0" style="stop-color:#F6F6F7"/>
						<stop  offset="0.477" style="stop-color:#F9F9FA"/>
						<stop  offset="0.715" style="stop-color:#FFFFFF"/>
					</radialGradient>
					<path id="Trazado_163769" style="fill:url(#Trazado_163769_00000149376302717382335150000003585036943456996270_);" d="
						M67.3,130.4c-3.3-13.8-5-20.8-4.7-28.7c0.2-6.3,2.7-13.5,7.5-27.9c5.9-17.4,8.5-20.3,7.5-27.5c-0.2-1.2-2.4-16.5-11.9-19.2
						c-1.5-0.4-5.6-1.2-15.5,4.7c-8.4,5.1-15.8,11.9-21.7,19.8c0,0-0.3,0.4-0.6,0.8c-3,4.3-8.7,14.2-18.7,39.9
						c-5.7,14.6-8.8,30.1-9.2,45.8L0,141.9c23.7,4.7,47.9,6.6,72,5.6C70.7,143.4,69,137.6,67.3,130.4z"/>
					<path id="Trazado_163770" class="st12" d="M66,53.8c2.1,3.1,5.3,6,6.5,5.4c1.3-0.7-1-5.3,0.6-12.4c0.2-0.9,0.4-1.6,0.6-2.1
						c2.1-2.3,4.2-4.6,6.3-6.8c2-2.1,3.9-4.3,5.9-6.4c-2.1-4.3-4.2-8.6-6.2-12.9c-1-2.1-2-4.2-3.1-6.3c-2.8,6.6-7.7,12-14,15.4
						c-1.2,0.5-2.3,1.2-3.2,2c-0.5,0.4-3.1,2.8-3.2,5.5C56.2,38.1,62.9,49.3,66,53.8z"/>
					<path id="Trazado_163771" class="st12" d="M100,15.9c0.3,0.7,0.5,1.3,0.8,2c2.4,7.9-0.2,18.1-6.6,20.5
						c-6.9,2.5-15.9-4.7-18.6-12.7c-2.4-7.2-0.8-17.8,6-20.5C88.4,2.5,96.9,8.9,100,15.9z"/>
					<g id="Grupo_127656" transform="translate(75.997 19.562)">
						<path id="Trazado_163772" class="st9" d="M17,6.7c0.3,0.3,0.3,0.9,0,1.2c-0.3,0.3-0.9,0.3-1.2,0c-0.3-0.3-0.3-0.9,0-1.2
							c0,0,0,0,0,0C16.1,6.3,16.7,6.3,17,6.7C17,6.7,17,6.7,17,6.7z"/>
						<path id="Trazado_163773" class="st9" d="M24.5,5.3c0.3,0.3,0.3,0.9,0,1.2c-0.3,0.3-0.9,0.3-1.2,0c-0.3-0.3-0.3-0.9,0-1.2
							c0,0,0,0,0,0C23.7,4.9,24.2,4.9,24.5,5.3C24.5,5.3,24.5,5.3,24.5,5.3z"/>
						<g id="Grupo_127652" transform="translate(14.098 3.776)">
							<path id="Trazado_163774" class="st9" d="M0.3,1.9C0.1,1.9,0,1.8,0,1.6c0-0.1,0-0.2,0.1-0.2c0.6-0.6,1.3-1,2.1-1.2
								C2.6,0,3.1,0,3.6,0c0.2,0,0.3,0.2,0.3,0.3c0,0.2-0.1,0.3-0.3,0.3h0c-1.1,0-2.2,0.4-3,1.2C0.5,1.9,0.4,1.9,0.3,1.9z"/>
						</g>
						<g id="Grupo_127653" transform="translate(22.014 2.055)">
							<path id="Trazado_163775" class="st9" d="M0.3,1.3C0.1,1.3,0,1.1,0,1c0-0.1,0.1-0.2,0.2-0.3C0.9,0.3,1.7,0,2.5,0
								c0.5,0,0.9,0.1,1.3,0.2c0.2,0,0.3,0.2,0.2,0.4c0,0.2-0.2,0.3-0.4,0.2c0,0,0,0,0,0C3.3,0.7,2.9,0.6,2.5,0.6
								c-0.7,0-1.4,0.2-2,0.6C0.4,1.3,0.4,1.3,0.3,1.3z"/>
						</g>
						<path id="Trazado_163776" class="st3" d="M9.6,6c-1,2.7-3.5,4.7-6.4,5.1c1.3,3.6,4.1,6.5,7.7,7.9c0.9,0.3,5.9,2.1,10.2-1
							c4.7-3.3,4.3-9.3,4.2-9.6c-1.1,1.2-1.8,1.4-2.3,1.3c-0.9-0.2-1.2-1.2-2.1-1.3c-0.6,0-1.1,0.5-1.5,0.8c-1.5,1-3.3,1.4-5.1,1
							C11.3,9.7,9.8,6.4,9.6,6z"/>
						<g id="Grupo_127654" transform="translate(0 0.583)">
							<path id="Trazado_163777" class="st3" d="M4.2,11.9c-0.1,0-0.2,0-0.2-0.1c-0.8-1-1.5-2.1-2-3.3C0.7,5.9,0,3.1,0,0.3
								C0,0.1,0.1,0,0.3,0s0.3,0.1,0.3,0.3c0,2.8,0.7,5.5,1.9,8c0.6,1.1,1.2,2.2,2,3.2c0.1,0.1,0.1,0.3-0.1,0.4
								C4.4,11.9,4.3,11.9,4.2,11.9L4.2,11.9z"/>
						</g>
						<g id="Grupo_127655" transform="translate(4.414)">
							<path id="Trazado_163778" class="st3" d="M5.4,7.8c-0.1,0-0.3-0.1-0.3-0.3C5.1,6.3,4.7,5.1,4,4C3.1,2.5,1.8,1.3,0.2,0.5
								C0,0.5,0,0.3,0,0.2C0.1,0,0.3,0,0.4,0l0,0c1.7,0.8,3.2,2.1,4.1,3.7c0.7,1.2,1.1,2.5,1.2,3.8C5.7,7.7,5.6,7.8,5.4,7.8L5.4,7.8
								z"/>
						</g>
					</g>
					<path id="Trazado_163779" class="st9" d="M99.3,16.6c-1.1,0.8-2.5,0.9-4.8,1.2c-4.5,0.5-7-0.8-9.7-1.9
						c-0.6,1.1-0.8,2.3-0.7,3.5c0.1,1.5,0.8,2.1,0.9,3.3c0,0.9-0.8,4-1.8,3.9c-1-0.1,0-1.3,0-2.6c-0.2-2-1.6-3.7-3.6-4.3
						c-0.8-0.3-1.6-0.3-2.4,0.1c-1.3,0.6-0.9,1.8-2.2,2.8c-0.9,0.7-1.2,0.2-4.1,0.9c-1.6,0.4-2.5,0.9-2.7,0.5
						c-0.2-0.2,0-0.5,0.3-1.3c0.3-0.8,0.5-1.7,0.9-2.5c0.7-2,1.2-4.1,1.5-6.2c0.6-2.6,1.7-5,3.2-7.2c4-5.1,14.5-6.2,21-1.7
						C99.1,8,101.7,14.9,99.3,16.6z"/>
					<path id="Trazado_163780" class="st12" d="M82.3,21.5c0.9,2.2,0.5,4.5-0.9,5.1s-3.4-0.7-4.3-2.8s-0.5-4.5,0.9-5.1
						S81.4,19.3,82.3,21.5z"/>
					
						<radialGradient id="Trazado_163781_00000131342233689889059810000015861007697482117562_" cx="-162.8822" cy="431.0777" r="0.5" gradientTransform="matrix(30.058 0 0 -19.9186 4981.6606 8596.4414)" gradientUnits="userSpaceOnUse">
						<stop  offset="0" style="stop-color:#F6F6F7"/>
						<stop  offset="0.477" style="stop-color:#F9F9FA"/>
						<stop  offset="0.715" style="stop-color:#FFFFFF"/>
					</radialGradient>
					<path id="Trazado_163781" style="fill:url(#Trazado_163781_00000131342233689889059810000015861007697482117562_);" d="
						M70.7,14.7c3.2,1.5,6.6,2.7,10,3.5c5,1.3,10.4,2.6,16.6,0.9c1.2-0.3,2.3-0.7,3.4-1.2c-0.1-6-2.1-11.7-5.5-16.6
						C89-0.1,82.5-0.4,76.1,0.6C73.2,4.8,71.4,9.6,70.7,14.7L70.7,14.7z"/>
				</g>
				
					<radialGradient id="Trazado_163782_00000039094269779417754090000014538179024822773437_" cx="-153.7418" cy="434.413" r="0.5" gradientTransform="matrix(11.098 0 0 -32.336 1766.3312 14179.916)" gradientUnits="userSpaceOnUse">
					<stop  offset="0" style="stop-color:#F6F6F7"/>
					<stop  offset="0.477" style="stop-color:#F9F9FA"/>
					<stop  offset="0.715" style="stop-color:#FFFFFF"/>
				</radialGradient>
				<path id="Trazado_163782" style="fill:url(#Trazado_163782_00000039094269779417754090000014538179024822773437_);" d="
					M54.6,148.9c0.1-0.5,1.1-32.3,1.1-32.3l10,31.8L54.6,148.9z"/>
				
					<radialGradient id="Trazado_163783_00000020365065765505157000000011844126119323014069_" cx="-160.9958" cy="437.516" r="0.5" gradientTransform="matrix(68.7576 0 0 -76.989 11142.1553 33762.957)" gradientUnits="userSpaceOnUse">
					<stop  offset="0" style="stop-color:#F6F6F7"/>
					<stop  offset="0.477" style="stop-color:#F9F9FA"/>
					<stop  offset="0.715" style="stop-color:#FFFFFF"/>
				</radialGradient>
				<path id="Trazado_163783" style="fill:url(#Trazado_163783_00000020365065765505157000000011844126119323014069_);" d="
					M102.7,106.7L73.4,99L66,52.4c-0.1-0.7-0.3-1.4-0.5-2C63.3,43,55.4,38.9,48,41.2s-11.5,10.2-9.2,17.6l15.8,50.5l0.6,1.8
					c1.1,3.5,4.3,5.8,7.9,5.9l38.3,0.5c3,0,5.5-2.4,5.6-5.4C106.9,109.6,105.2,107.3,102.7,106.7L102.7,106.7z"/>
				<g id="Grupo_127658" transform="translate(35.786 51.809)">
					<path id="Trazado_163784" class="st2" d="M21.2,65.8c-3.6-0.3-6.6-2.8-7.7-6.3c-2-6.7-4.3-15.5-6.6-24s-4.6-17.4-6.6-24
						C-0.5,7.7,0.2,3.6,2.1,0.2C2.3,0,2.6-0.1,2.8,0.1S3.1,0.5,3,0.7C1.1,3.9,0.5,7.7,1.3,11.3c2,6.6,4.3,15.4,6.6,24
						c2.2,8.5,4.6,17.4,6.6,24c0.9,3.1,3.6,5.3,6.8,5.6l9.6,0l0,0c0.3,0,0.5,0.2,0.5,0.5c0,0.2-0.2,0.4-0.5,0.5L21.2,65.8z"/>
				</g>
				<g id="Grupo_127659" transform="translate(63.143 71.669)">
					<path id="Trazado_163785" class="st2" d="M9.5,27.5c0,0-0.1,0-0.1,0l-2.9-0.6c-0.2,0-0.3-0.2-0.4-0.4L0,0.6
						C-0.1,0.3,0.1,0.1,0.3,0s0.5,0.1,0.6,0.3c0,0,0,0,0,0L7,26l2.6,0.6c0.3,0.1,0.4,0.3,0.4,0.6C9.9,27.4,9.7,27.5,9.5,27.5
						L9.5,27.5z"/>
				</g>
				<path id="Trazado_163786" class="st4" d="M121.4,108.6c0,0,0,0.1,0,0.1C121.4,108.6,121.4,108.6,121.4,108.6z"/>
				<g id="Grupo_127661" transform="translate(103.793 77.657)">
					<path id="Trazado_163787" class="st16" d="M0,3.4c0.2,0,0.6,0.1,1,0.2c0,0,2.1,0.4,4,0.6C7,4.4,9,3.3,14.6,1.4
						c4.3-1.5,5.5-1.7,6.9-1.1c1.1,0.5,2.1,1.3,2.8,2.2c1.1,1.2,2,2.7,2.5,4.3C19,11.5,9.8,13.8,0.6,13.2C0.4,9.9,0.2,6.7,0,3.4z"/>
					<path id="Trazado_163788" class="st29" d="M33.2,9.2L33.2,9.2c-0.6,1.5-2.4,2.3-3.9,1.7c0,0,0,0,0,0L18.4,6.5
						c-1.5-0.6-2.3-2.4-1.7-3.9c0,0,0,0,0,0l0,0c0.6-1.6,2.4-2.3,3.9-1.7c0,0,0,0,0,0l10.9,4.4C33.1,5.9,33.8,7.7,33.2,9.2
						C33.2,9.2,33.2,9.2,33.2,9.2z"/>
					<path id="Trazado_163789" class="st29" d="M57.9,19.2c0,0-5.3,0-6.4-0.5l-0.9-0.4c-1.1-0.4-1.6-1.7-1.2-2.8l0,0
						c0.4-1.1,1.7-1.6,2.8-1.2c0,0,0,0,0,0l0.9,0.4C54.2,15.3,57.9,19.2,57.9,19.2z"/>
					<g id="Grupo_127660" transform="translate(30.8 7.963)">
						
							<rect id="Rectángulo_35040" x="10.5" y="-6.9" transform="matrix(0.365 -0.931 0.931 0.365 2.5967 13.2335)" class="st29" width="1" height="23.2"/>
					</g>
					<path id="Trazado_163790" class="st16" d="M17.9,14.2c1.7-0.3,3.3-0.7,5-1.2c0.3-0.1,0.6-0.2,0.9-0.4c2-1.1,3.6-2.6,4.8-4.5
						c0.4-0.9,0-2-0.9-2.4c-0.7-0.3-1.5-0.2-2,0.4c-1,0.7-2.1,1.3-3.2,1.8c-1.6,0.6-3.8,1.4-5.7,0.7c-2.3-0.9-2.2-3.3-3.8-3.4
						C11.3,5,10.5,7.2,8.3,9.3c-2.2,2-4.8,3.3-7.7,3.9l-0.1,3.3c1.2-0.1,2.4-0.1,3.6,0c2.3,0.2,3.1,0.6,5,0.5c1.2,0,2.5-0.2,3.7-0.5
						C15.7,15.8,15.4,14.8,17.9,14.2z"/>
				</g>
				<g id="Grupo_127664" transform="translate(97.848 102.393)">
					<path id="Trazado_163791" class="st16" d="M28.9,7.1c-0.8-0.7-2.5-0.8-3.1-0.1c-0.2,0.3-0.2,0.6-0.2,1.1c0,0.2,0,0.3,0,0.5v0
						c0,0.1,0,0.1,0,0.2c0,0,0,0.1,0,0.1s0,0.1,0,0.1s0,0.1,0,0.1c-0.4,1.4-1.4,2.6-2.8,3.2c-1.8,0.6-3.8,0.3-5.3-0.7
						c-0.5-0.3-0.9-0.6-1.3-1c0.2,0,0.4,0.1,0.6,0.1l-5.2-6.8c-0.2,0-0.4,0-0.6,0c-0.1,0-0.3,0-0.6,0C9.7,3.8,6.3,4,4.7,4
						C3.4,3.9,2.1,3.6,0.8,3.2L0,15.2c8.5,1.5,12.8,3.4,15.2,4.9c0.9,0.7,2.1,1.1,3.2,1.1c1.8-0.1,2.9-1.3,6.3-3.9
						c1.3-1,2.4-1.8,3.2-2.3C29.8,11.4,30.3,8.2,28.9,7.1z"/>
					<g id="Grupo_127662" transform="translate(9.156 4.4)">
						<path id="Trazado_163792" class="st29" d="M0.5,9.2C0.2,9.2,0,9,0,8.7c0-0.2,0.2-0.4,0.4-0.5L32.9,0c0.3-0.1,0.6,0.1,0.6,0.4
							c0.1,0.3-0.1,0.6-0.4,0.6c0,0,0,0,0,0L0.6,9.2C0.6,9.2,0.6,9.2,0.5,9.2z"/>
					</g>
					<path id="Trazado_163793" class="st16" d="M20.3,11.1c2.4,0.3,3,0.3,3.7,0c0.8-0.4,1.4-1.2,1.6-2.1c0,0,0-0.1,0-0.1
						c0-0.1,0-0.1,0-0.2c0-0.2,0-0.5,0-0.7c-0.2-1.1-1.2-1.9-2.3-1.9c-2.5,0-4.9-0.4-7.3-1c-1.5-0.5-2.9-0.9-4.5-1.2l5.2,6.8
						C18.1,10.8,19.3,11,20.3,11.1z"/>
					<path id="Rectángulo_35041" class="st4" d="M41.3,0h3.3c0.8,0,1.5,0.7,1.5,1.5v3.3c0,0.8-0.7,1.5-1.5,1.5h-3.3
						c-0.8,0-1.5-0.7-1.5-1.5V1.5C39.8,0.7,40.5,0,41.3,0z"/>
					<g id="Grupo_127663" transform="translate(25.9 2.246)">
						<path id="Trazado_163794" class="st29" d="M0.5,7.2C0.2,7.2,0,6.9,0,6.6c0-0.2,0.1-0.4,0.3-0.5l15-6.1c0.3-0.1,0.6,0,0.7,0.3
							c0.1,0.3,0,0.6-0.3,0.7l0,0l-15,6.1C0.6,7.1,0.6,7.2,0.5,7.2z"/>
					</g>
				</g>
				<path id="Trazado_163795" class="st8" d="M73.1,243.7l-1.3,7.4c-0.6,3.7-4.1,6.1-7.8,5.5c-3.1-0.6-5.4-3.2-5.6-6.4l-0.3-6.5
					L73.1,243.7z"/>
				<path id="Trazado_163796" class="st8" d="M18.7,245.2c-0.7,2.1-1.4,4-2.1,5.5c-1.5,3.4-5.6,4.9-9,3.4c-2.6-1.2-4.1-3.8-4-6.6
					c0-0.8,0.1-1.6,0.1-2.4L18.7,245.2z"/>
				<path id="Trazado_163797" class="st16" d="M3.7,245.4c0.5,0,1,0.4,1.5,0.9c1.1,1.1,1.2,2.1,1.8,2.8c1.1,1.4,3.7,0.8,4.8,0.6
					c2.8-0.6,5.2-2.3,6.9-4.6c2.5,2.7,5.5,4.8,8.8,6.5c0,0,5.1,3.5,9.8,2.4l0,0c1.5-0.1,3.2-0.4,4.4,0.9c0.8,1,1.1,2.2,1,3.5
					c-0.1,1.9-1.1,3.7-2.6,4.8c-1.4,1.1-2.8,1-6,0.9c-6.7-0.1-4.9,0.3-8.9,0.1c-6.9-0.4-5.9-1.3-9.7-1.1c-1.9,0.1-7.1,0.5-10.4,0.3
					c-0.8,0-1.6-0.2-2.3-0.4c-1.1-0.4-2-0.9-2.9-1.6c-0.1-3.5,0.3-7,1.1-10.5C2.3,245.7,3.4,245.5,3.7,245.4z"/>
				<path id="Trazado_163798" class="st16" d="M58.1,244c0.5,0,1,0.4,1.5,0.9c1.1,1.1,1.2,2.1,1.8,2.8c1.1,1.4,3.7,0.8,4.8,0.6
					c2.8-0.6,5.2-2.3,6.9-4.6c2.5,2.7,5.5,4.8,8.8,6.5c0,0,5.1,3.5,9.8,2.4l0,0c1.5-0.1,3.2-0.4,4.4,0.9c0.8,1,1.1,2.2,1,3.5
					c-0.1,1.9-1.1,3.7-2.6,4.8c-1.4,1.1-2.8,1-6,0.9c-6.7-0.1-4.9,0.3-8.9,0.1c-6.9-0.4-5.9-1.3-9.7-1.1c-1.9,0.1-7.1,0.5-10.4,0.3
					c-0.8,0-1.6-0.2-2.3-0.4c-1.1-0.4-2-0.9-2.9-1.6c-0.1-3.5,0.3-7,1.1-10.5C56.7,244.3,57.8,244,58.1,244z"/>
			</g>
			<g id="Grupo_127669" transform="translate(212.998 114.141)">
				<path id="Rectángulo_35042" class="st4" d="M0.8,0H4c0.4,0,0.8,0.3,0.8,0.8l0,0v2.7c0,0.4-0.3,0.8-0.8,0.8H0.8
					C0.3,4.2,0,3.9,0,3.4c0,0,0,0,0,0V0.8C0,0.3,0.3,0,0.8,0z"/>
			</g>
			<g id="Grupo_127671" transform="translate(168.451 78.992)">
				<path id="Trazado_163807" class="st16" d="M1.7,8c1.8-1.3,3.9-2.2,6.1-2.7c1.6-0.3,5.4-1.1,8.6,0.9c1.5,1,2.8,2.4,3.6,4
					c1.9,3.3,4.5,8,7.4,14.1c0.3,0.7,0.1,1.6-0.5,2.1c-0.6,0.2-1.2,0.2-1.8-0.2c-0.8-0.5-0.9-1.3-1.7-2.7c-0.4-0.6-0.8-1.1-1.2-1.7
					c0,0.7-0.1,1.4-0.5,2c-0.5,0.7-1.3,1.2-2.2,1.4c-0.5-0.4-1.1-0.7-1.7-0.9c-1.2-0.3-2,0.2-3.2-0.2c-0.4-0.1-0.8-0.3-1.2-0.6
					c-0.7,0.1-1.5,0-2.1-0.4c-0.6-0.6-1-1.3-1.2-2.1c-0.5-1.4-1.3-2.7-2.3-3.8l-4.5,1c-1.6-1-2.8-2.5-3.2-4.3
					C-0.3,11.8,0.3,9.6,1.7,8z"/>
				<path id="Trazado_163808" class="st16" d="M68.8,11.1C69,6.7,65.4,3.7,65,3.3c-1.9,0.9-3.8,1.8-5.7,2.7c-1-2-2.5-3.6-4.4-4.7
					c-1.4-0.8-3-1.3-4.7-1.3c-5.8,2.7-9,9-7.6,15.3c-0.1,0.7,0.3,1.4,1,1.6c0.4,0.1,0.8,0,1.1-0.3l0.9,1.9c0.3,1.5,0.8,1.9,1.2,2
					c0.5,0.1,0.9-0.3,1.4-0.1c0.3,0.2,0.3,0.4,0.7,0.7c0.3,0.2,0.7,0.3,1.1,0.3c0.9,0,3.4-3.1,6.3-7.8c1.1,1.3,2.5,2.3,4.1,2.7
					c2.5,0.6,5.2,0.1,7.2-1.5C68.3,13.7,68.7,12.4,68.8,11.1z"/>
			</g>
			<g id="Grupo_127685" transform="translate(10.73 98.786)">
				<path id="Trazado_163809" class="st18" d="M96,0H73.8l6.1,32.5h10L96,0z"/>
				<path id="Rectángulo_35043" class="st3" d="M80.2,32.5h9.5c0.6,0,1.1,0.5,1.1,1.1v5.5c0,0.6-0.5,1.1-1.1,1.1h-9.5
					c-0.6,0-1.1-0.5-1.1-1.1v-5.5C79.1,33,79.6,32.5,80.2,32.5z"/>
				<path id="Rectángulo_35044" class="st3" d="M63.2,11.7H75c2.6,0,4.8,2.1,4.8,4.8v19c0,2.6-2.1,4.8-4.8,4.8H63.2
					c-2.6,0-4.8-2.1-4.8-4.8v-19C58.4,13.9,60.6,11.7,63.2,11.7z"/>
				<rect id="Rectángulo_35045" x="66.3" y="4.6" class="st18" width="5.5" height="8.2"/>
				<path id="Rectángulo_35046" class="st18" d="M65.6,4h7c0.7,0,1.3,0.6,1.3,1.3v3.4c0,0.7-0.6,1.3-1.3,1.3h-7
					c-0.7,0-1.3-0.6-1.3-1.3V5.3C64.3,4.6,64.9,4,65.6,4z"/>
				<g id="Grupo_127674" transform="translate(17.646 40.252)">
					<path id="Trazado_163810" class="st18" d="M83.2,131.3h-1.7V1.7H1.7v129.6H0V0h83.2L83.2,131.3z"/>
				</g>
				<rect id="Rectángulo_35047" x="4.3" y="169.5" class="st9" width="2.6" height="15.9"/>
				<g id="Grupo_127675" transform="translate(0 169.467)">
					<path id="Trazado_163811" class="st3" d="M0,7.9c0,4.4,1.9,7.9,4.3,7.9s4.3-3.6,4.3-7.9S6.6,0,4.3,0S0,3.6,0,7.9z"/>
				</g>
				<g id="Grupo_127676" transform="translate(2.631 169.467)">
					<path id="Trazado_163812" class="st18" d="M0,7.9c0,4.4,1.9,7.9,4.3,7.9s4.3-3.6,4.3-7.9S6.6,0,4.3,0S0,3.6,0,7.9z"/>
				</g>
				<rect id="Rectángulo_35048" x="17.2" y="169.5" class="st9" width="2.6" height="15.9"/>
				<g id="Grupo_127677" transform="translate(12.924 169.467)">
					<path id="Trazado_163813" class="st3" d="M0,7.9c0,4.4,1.9,7.9,4.3,7.9s4.3-3.6,4.3-7.9S6.6,0,4.3,0S0,3.6,0,7.9z"/>
				</g>
				<g id="Grupo_127678" transform="translate(15.555 169.467)">
					<path id="Trazado_163814" class="st18" d="M0,7.9c0,4.4,1.9,7.9,4.3,7.9s4.3-3.6,4.3-7.9S6.6,0,4.3,0S0,3.6,0,7.9z"/>
				</g>
				<rect id="Rectángulo_35049" x="85.8" y="169.5" class="st9" width="2.6" height="15.9"/>
				<g id="Grupo_127679" transform="translate(81.531 169.467)">
					<path id="Trazado_163815" class="st3" d="M0,7.9c0,4.4,1.9,7.9,4.3,7.9s4.3-3.6,4.3-7.9S6.6,0,4.3,0S0,3.6,0,7.9z"/>
				</g>
				<g id="Grupo_127680" transform="translate(84.164 169.467)">
					<path id="Trazado_163816" class="st18" d="M0,7.9c0,4.4,1.9,7.9,4.3,7.9s4.3-3.6,4.3-7.9S6.6,0,4.3,0S0,3.6,0,7.9z"/>
				</g>
				<rect id="Rectángulo_35050" x="98.7" y="169.5" class="st9" width="2.6" height="15.9"/>
				<g id="Grupo_127681" transform="translate(94.455 169.467)">
					<path id="Trazado_163817" class="st3" d="M0,7.9c0,4.4,1.9,7.9,4.3,7.9s4.3-3.6,4.3-7.9S6.6,0,4.3,0S0,3.6,0,7.9z"/>
				</g>
				<g id="Grupo_127682" transform="translate(97.086 169.467)">
					<path id="Trazado_163818" class="st18" d="M0,7.9c0,4.4,1.9,7.9,4.3,7.9s4.3-3.6,4.3-7.9S6.6,0,4.3,0S0,3.6,0,7.9z"/>
				</g>
				<rect id="Rectángulo_35051" x="5.6" y="139.4" class="st3" width="81.4" height="22"/>
				<rect id="Rectángulo_35052" x="87" y="139.4" class="st2" width="13.1" height="22"/>
				<path id="Trazado_163819" class="st2" d="M37,153.1h17.9c2.4,0,4.3-1.9,4.3-4.3c0,0,0,0,0,0H32.7
					C32.7,151.1,34.6,153.1,37,153.1C37,153.1,37,153.1,37,153.1z"/>
				<rect id="Rectángulo_35053" x="5.6" y="114.8" class="st3" width="81.4" height="22"/>
				<rect id="Rectángulo_35054" x="87" y="114.8" class="st2" width="13.1" height="22"/>
				<path id="Trazado_163820" class="st2" d="M37,128.5h17.9c2.4,0,4.3-1.9,4.3-4.3H32.7C32.7,126.6,34.6,128.5,37,128.5
					C37,128.5,37,128.5,37,128.5z"/>
				<rect id="Rectángulo_35055" x="5.6" y="90.3" class="st3" width="81.4" height="22"/>
				<rect id="Rectángulo_35056" x="87" y="90.3" class="st2" width="13.1" height="22"/>
				<path id="Trazado_163821" class="st2" d="M37,103.9h17.9c2.4,0,4.3-1.9,4.3-4.3H32.7C32.7,102,34.6,103.9,37,103.9
					C37,103.9,37,103.9,37,103.9z"/>
				<rect id="Rectángulo_35057" x="5.6" y="65.7" class="st3" width="81.4" height="22"/>
				<rect id="Rectángulo_35058" x="87" y="65.7" class="st2" width="13.1" height="22"/>
				<path id="Trazado_163822" class="st2" d="M37,79.3h17.9c2.4,0,4.3-1.9,4.3-4.3H32.7C32.7,77.4,34.6,79.3,37,79.3
					C37,79.3,37,79.3,37,79.3z"/>
				<rect id="Rectángulo_35059" x="5.6" y="41.1" class="st3" width="81.4" height="22"/>
				<rect id="Rectángulo_35060" x="87" y="41.1" class="st2" width="13.1" height="22"/>
				<path id="Trazado_163823" class="st2" d="M37,54.8h17.9c2.4,0,4.3-1.9,4.3-4.3l0,0H32.7C32.7,52.8,34.6,54.8,37,54.8
					C37,54.8,37,54.8,37,54.8z"/>
				<g id="Grupo_127683" transform="translate(4.723 40.252)">
					<path id="Trazado_163824" class="st18" d="M83.2,131.3h-1.7V1.7H1.7v129.6H0V0h83.2V131.3z"/>
				</g>
				<path id="Trazado_163825" class="st2" d="M80.8,40.2H13.7c-1.4,0-2.6-1.2-2.6-2.6l0,0c0-1.4,1.2-2.6,2.6-2.6h67.2
					c1.4,0,2.6,1.2,2.6,2.6l0,0C83.4,39.1,82.3,40.2,80.8,40.2z"/>
				<g id="Grupo_127684" transform="translate(11.338 26.428)">
					<path id="Trazado_163826" class="st2" d="M71.6,11.9H0v-0.7C0,5,5,0,11.2,0h49.2c6.2,0,11.2,5,11.2,11.2L71.6,11.9z M1.4,10.5
						h68.8c-0.4-5.1-4.6-9.1-9.8-9.1H11.2C6,1.4,1.8,5.4,1.4,10.5L1.4,10.5z"/>
				</g>
			</g>
		</g>
		<g id="Grupo_128295" transform="translate(311.656 5813.408)">
			<path id="Trazado_163848" class="st3" d="M0,155.2c0.2,2.9,2.7,5.1,5.5,4.9c0.1,0,0.1,0,0.2,0l12.2-1.7c2.9-0.6,4.9-3.3,4.4-6.3
				l0,0c-0.2-2.9-2.7-5.1-5.6-4.9c-0.1,0-0.1,0-0.2,0l-12.2,1.7C1.6,149.4-0.4,152.2,0,155.2L0,155.2z"/>
			<path id="Trazado_163849" class="st3" d="M27.3,185.5c13.3,28.4,41.9,32.2,72.6,16.9c30.7-15.3,45.2-53.7,28.6-79.9
				c-14-22-43.1-30.8-72-11C26.4,132.2,14.9,159.1,27.3,185.5z"/>
			
				<linearGradient id="Trazado_163850_00000065760930169233835530000001845482447574225550_" gradientUnits="userSpaceOnUse" x1="-131.9148" y1="640.7392" x2="-131.9148" y2="639.7392" gradientTransform="matrix(101.0278 0 0 -93.3813 13410.4746 59948.4336)">
				<stop  offset="0" style="stop-color:#F5F5F5"/>
				<stop  offset="0.25" style="stop-color:#F5F5F5"/>
				<stop  offset="1" style="stop-color:#A7B3CF"/>
			</linearGradient>
			<path id="Trazado_163850" style="fill:url(#Trazado_163850_00000065760930169233835530000001845482447574225550_);" d="M35.3,187
				c8.4,21.8,36.8,28.3,63.4,14.6c26.6-13.8,41.3-42.6,32.9-64.4s-36.8-28.3-63.4-14.6C41.6,136.3,26.9,165.2,35.3,187z"/>
			
				<linearGradient id="Trazado_163851_00000151511118560467011270000006893225841495514011_" gradientUnits="userSpaceOnUse" x1="-129.0479" y1="636.0663" x2="-129.0479" y2="635.0663" gradientTransform="matrix(25.1501 0 0 -26.5115 3328.6885 17013.2383)">
				<stop  offset="0" style="stop-color:#FFFFFF"/>
				<stop  offset="1" style="stop-color:#F8F8F8"/>
			</linearGradient>
			<path id="Trazado_163851" style="fill:url(#Trazado_163851_00000151511118560467011270000006893225841495514011_);" d="
				M72.3,171.1c3.5,6,11.2,7.4,17.2,3.1s8-12.5,4.6-18.5s-11.2-7.4-17.2-3.1C70.8,156.8,68.8,165.1,72.3,171.1z"/>
			
				<linearGradient id="Trazado_163852_00000092455058285926247580000011066876179726590594_" gradientUnits="userSpaceOnUse" x1="-128.6107" y1="635.7903" x2="-128.6107" y2="634.7903" gradientTransform="matrix(22.5652 0 0 -25.4357 2960.5994 16314.8223)">
				<stop  offset="0" style="stop-color:#FFFFFF"/>
				<stop  offset="1" style="stop-color:#F8F8F8"/>
			</linearGradient>
			<path id="Trazado_163852" style="fill:url(#Trazado_163852_00000092455058285926247580000011066876179726590594_);" d="
				M49.4,165.8c3.7,4.3,10.7,3.3,15.8-2.2c5-5.6,6.1-13.5,2.5-17.8s-10.7-3.3-15.8,2.2S45.7,161.5,49.4,165.8z"/>
			
				<linearGradient id="Trazado_163853_00000040571735415464350040000016272506062963548070_" gradientUnits="userSpaceOnUse" x1="-129.1479" y1="634.4948" x2="-129.1479" y2="633.4948" gradientTransform="matrix(25.8262 0 0 -21.366 3432.3235 13681.876)">
				<stop  offset="0" style="stop-color:#FFFFFF"/>
				<stop  offset="1" style="stop-color:#F8F8F8"/>
			</linearGradient>
			<path id="Trazado_163853" style="fill:url(#Trazado_163853_00000040571735415464350040000016272506062963548070_);" d="
				M109.8,135.5c0.3,5.9-5.1,10.9-12.3,11.1c-7.1,0.2-13.2-4.3-13.5-10.2s5.1-10.9,12.3-11.1C103.4,125,109.5,129.6,109.8,135.5z"/>
			
				<linearGradient id="Trazado_163854_00000075136533913914893940000009632056728233637504_" gradientUnits="userSpaceOnUse" x1="-128.6429" y1="633.3976" x2="-128.6429" y2="632.3976" gradientTransform="matrix(22.7375 0 0 -18.8163 2986.3838 12098.5791)">
				<stop  offset="0" style="stop-color:#FFFFFF"/>
				<stop  offset="1" style="stop-color:#F8F8F8"/>
			</linearGradient>
			<path id="Trazado_163854" style="fill:url(#Trazado_163854_00000075136533913914893940000009632056728233637504_);" d="M50,190.4
				c-0.4-5.2,4.4-9.7,10.6-10s11.7,3.6,12.1,8.8s-4.4,9.7-10.6,10S50.4,195.6,50,190.4z"/>
			
				<linearGradient id="Trazado_163855_00000123432839221604557980000014314703188372295851_" gradientUnits="userSpaceOnUse" x1="-128.5888" y1="635.8265" x2="-128.5888" y2="634.8265" gradientTransform="matrix(22.4497 0 0 -25.5718 3002.9575 16406.5254)">
				<stop  offset="0" style="stop-color:#FFFFFF"/>
				<stop  offset="1" style="stop-color:#F8F8F8"/>
			</linearGradient>
			<path id="Trazado_163855" style="fill:url(#Trazado_163855_00000123432839221604557980000014314703188372295851_);" d="
				M125.1,149.9c-3.7-4.2-10.8-3.1-15.7,2.6c-4.9,5.7-5.9,13.7-2.1,17.9s10.8,3.1,15.7-2.6S128.9,154.1,125.1,149.9z"/>
			
				<linearGradient id="Trazado_163856_00000139284430317877040860000009936225527004958874_" gradientUnits="userSpaceOnUse" x1="-128.3485" y1="634.2789" x2="-128.3485" y2="633.2789" gradientTransform="matrix(21.2552 0 0 -20.8111 2820.116 13379.2432)">
				<stop  offset="0" style="stop-color:#FFFFFF"/>
				<stop  offset="1" style="stop-color:#F8F8F8"/>
			</linearGradient>
			<path id="Trazado_163856" style="fill:url(#Trazado_163856_00000139284430317877040860000009936225527004958874_);" d="
				M101.9,183.3c-2.2-4.6-8.4-5.5-13.9-2c-5.4,3.5-8,10-5.8,14.6s8.4,5.5,13.9,2S104.1,187.9,101.9,183.3z"/>
			<path id="Trazado_163857" class="st3" d="M14.3,151v-31l63.8-40.1V26.6H63.6v44.6L4.7,118.9l0.7,33.9L14.3,151z"/>
		</g>
	</g>
	<g id="Grupo_128293" transform="translate(556.626 5997.599)">
		<rect id="Rectángulo_33829" x="2.2" y="2.2" class="st3" width="99.3" height="43.6"/>
		<g id="Grupo_91754" transform="translate(63.299 29.249)">
			<rect id="Rectángulo_33830" x="0" y="0" class="st37" width="9.4" height="14.4"/>
			<rect id="Rectángulo_33831" x="0.7" y="4.8" class="st38" width="7.9" height="5"/>
			<path id="Rectángulo_33832" class="st4" d="M2.8,1.6h3.7c0.1,0,0.1,0.1,0.1,0.1v0.1C6.7,1.9,6.6,2,6.6,2H2.8
				C2.8,2,2.7,1.9,2.7,1.8V1.7C2.7,1.7,2.8,1.6,2.8,1.6z"/>
			<path id="Rectángulo_33833" class="st4" d="M1.9,2.5h5.7c0.1,0,0.1,0.1,0.1,0.1v0.1c0,0.1-0.1,0.1-0.1,0.1H1.9
				c-0.1,0-0.1-0.1-0.1-0.1V2.6C1.7,2.5,1.8,2.5,1.9,2.5z"/>
			<path id="Rectángulo_33834" class="st37" d="M2.8,5.5h3.7c0.1,0,0.1,0.1,0.1,0.1l0,0v0.1c0,0.1-0.1,0.1-0.1,0.1l0,0H2.8
				c-0.1,0-0.1-0.1-0.1-0.1c0,0,0,0,0,0V5.6C2.7,5.5,2.8,5.5,2.8,5.5z"/>
			<path id="Rectángulo_33835" class="st37" d="M1.9,6.3h5.7c0.1,0,0.1,0.1,0.1,0.1v0.1c0,0.1-0.1,0.1-0.1,0.1H1.9
				c-0.1,0-0.1-0.1-0.1-0.1V6.5C1.7,6.4,1.8,6.3,1.9,6.3C1.9,6.3,1.9,6.3,1.9,6.3z"/>
		</g>
		<g id="Grupo_91755" transform="translate(74.928 29.793)">
			<rect id="Rectángulo_33836" x="0" y="0" class="st38" width="5.5" height="13.8"/>
			<rect id="Rectángulo_33837" x="0" y="0" class="st39" width="5.5" height="6.1"/>
			<path id="Rectángulo_33838" class="st4" d="M1.5,2h2.3c0.1,0,0.1,0,0.1,0.1v0.1c0,0.1,0,0.1-0.1,0.1H1.5c-0.1,0-0.1,0-0.1-0.1
				V2.1C1.4,2,1.5,2,1.5,2z"/>
			<path id="Rectángulo_33839" class="st4" d="M0.7,2.5h3.7c0.1,0,0.1,0,0.1,0.1v0.1c0,0.1,0,0.1-0.1,0.1H0.7c-0.1,0-0.1,0-0.1-0.1
				V2.7C0.6,2.6,0.6,2.5,0.7,2.5z"/>
			<rect id="Rectángulo_33840" x="1.4" y="6.9" class="st40" width="2.5" height="4.4"/>
			<rect id="Rectángulo_33841" x="4.9" y="5.3" class="st4" width="17.7" height="8.5"/>
			<rect id="Rectángulo_33842" x="15.5" y="5.3" class="st41" width="7.2" height="8.5"/>
			<rect id="Rectángulo_33843" x="6.4" y="7.6" class="st42" width="7.3" height="0.7"/>
			<path id="Trazado_150739" class="st4" d="M20.5,9.7c0-0.7-0.6-1.3-1.3-1.3c-0.7,0-1.3,0.6-1.3,1.3c0,0.7,0.6,1.3,1.3,1.3
				C19.9,11,20.5,10.4,20.5,9.7z"/>
			<path id="Rectángulo_33844" class="st43" d="M6.5,9.3h6.6c0,0,0.1,0,0.1,0.1v0.1c0,0,0,0.1-0.1,0.1H6.5c0,0-0.1,0-0.1-0.1
				L6.5,9.3C6.4,9.4,6.5,9.3,6.5,9.3z"/>
			<path id="Rectángulo_33845" class="st43" d="M6.5,10h6.6c0,0,0.1,0,0.1,0.1v0.1c0,0,0,0.1-0.1,0.1H6.5c0,0-0.1,0-0.1-0.1L6.5,10
				C6.4,10,6.5,10,6.5,10z"/>
		</g>
		<g id="Grupo_91756" transform="translate(6.563 10.395)">
			<rect id="Rectángulo_33846" x="0" y="0" class="st4" width="24.7" height="12.7"/>
			<rect id="Rectángulo_33847" x="0" y="0" class="st42" width="24.7" height="3.7"/>
			<rect id="Rectángulo_33848" x="0" y="9" class="st42" width="24.7" height="3.7"/>
			<path id="Rectángulo_33849" class="st44" d="M6.8,5.4H22c0.1,0,0.1,0.1,0.1,0.1v0.1c0,0.1-0.1,0.1-0.1,0.1H6.8
				c-0.1,0-0.1-0.1-0.1-0.1V5.5C6.7,5.4,6.8,5.4,6.8,5.4z"/>
			<path id="Rectángulo_33850" class="st44" d="M6.8,6.3H22c0.1,0,0.1,0.1,0.1,0.1v0.1c0,0.1-0.1,0.1-0.1,0.1H6.8
				c-0.1,0-0.1-0.1-0.1-0.1V6.5C6.7,6.4,6.8,6.3,6.8,6.3z"/>
			<path id="Rectángulo_33851" class="st44" d="M6.8,7.2H22c0.1,0,0.1,0.1,0.1,0.1v0.1c0,0.1-0.1,0.1-0.1,0.1H6.8
				c-0.1,0-0.1-0.1-0.1-0.1V7.4C6.7,7.3,6.8,7.2,6.8,7.2z"/>
		</g>
		<g id="Grupo_91761" transform="translate(71.575 14.774)">
			<g id="Grupo_91757" transform="translate(14.3)">
				<path id="Rectángulo_33852" class="st40" d="M0.4,1.1H4l0,0v6.6C4,8,3.8,8.2,3.5,8.2c0,0,0,0,0,0H0.9C0.6,8.2,0.4,8,0.4,7.7
					c0,0,0,0,0,0V1.1L0.4,1.1z"/>
				<rect id="Rectángulo_33853" x="0" y="0" class="st4" width="4.4" height="1.3"/>
				<rect id="Rectángulo_33854" x="0.7" y="3.5" class="st4" width="2.9" height="2"/>
			</g>
			<g id="Grupo_91758" transform="translate(9.514 0.136)">
				<path id="Rectángulo_33855" class="st40" d="M0.4,1H4l0,0v6.7c0,0.2-0.2,0.4-0.4,0.4c0,0,0,0,0,0H0.8c-0.2,0-0.4-0.2-0.4-0.4
					c0,0,0,0,0,0V1L0.4,1z"/>
				<rect id="Rectángulo_33856" x="0" y="0" class="st4" width="4.4" height="1.3"/>
				<rect id="Rectángulo_33857" x="0.7" y="3.5" class="st4" width="2.9" height="2"/>
			</g>
			<g id="Grupo_91759" transform="translate(4.786 0.136)">
				<path id="Rectángulo_33858" class="st40" d="M0.4,1H4l0,0v6.6c0,0.3-0.2,0.5-0.5,0.5l0,0H0.9c-0.3,0-0.5-0.2-0.5-0.5
					c0,0,0,0,0,0V1L0.4,1z"/>
				<rect id="Rectángulo_33859" x="0" y="0" class="st4" width="4.4" height="1.3"/>
				<rect id="Rectángulo_33860" x="0.7" y="3.5" class="st4" width="2.9" height="2"/>
			</g>
			<g id="Grupo_91760" transform="translate(0 0.136)">
				<path id="Rectángulo_33861" class="st40" d="M0.4,1H4l0,0v6.6c0,0.3-0.2,0.5-0.6,0.5H0.9c-0.3,0-0.5-0.2-0.5-0.5V1L0.4,1z"/>
				<rect id="Rectángulo_33862" x="0" y="0" class="st4" width="4.4" height="1.3"/>
				<rect id="Rectángulo_33863" x="0.7" y="3.5" class="st4" width="2.9" height="2"/>
			</g>
		</g>
		<g id="Grupo_91766" transform="translate(43.066 35.559)">
			<g id="Grupo_91762" transform="translate(14.3)">
				<path id="Rectángulo_33864" class="st40" d="M0.4,1.1H4l0,0v6.6C4,8,3.8,8.2,3.5,8.2c0,0,0,0,0,0H0.9C0.6,8.2,0.4,8,0.4,7.7
					c0,0,0,0,0,0V1.1L0.4,1.1z"/>
				<rect id="Rectángulo_33865" x="0" y="0" class="st4" width="4.4" height="1.3"/>
				<rect id="Rectángulo_33866" x="0.7" y="3.5" class="st4" width="2.9" height="2"/>
			</g>
			<g id="Grupo_91763" transform="translate(9.514 0.136)">
				<path id="Rectángulo_33867" class="st40" d="M0.4,1H4l0,0v6.7c0,0.2-0.2,0.4-0.4,0.4c0,0,0,0,0,0H0.8c-0.2,0-0.4-0.2-0.4-0.4
					c0,0,0,0,0,0V1L0.4,1z"/>
				<rect id="Rectángulo_33868" x="0" y="0" class="st4" width="4.4" height="1.3"/>
				<rect id="Rectángulo_33869" x="0.7" y="3.5" class="st4" width="2.9" height="2"/>
			</g>
			<g id="Grupo_91764" transform="translate(4.785 0.136)">
				<path id="Rectángulo_33870" class="st40" d="M0.4,1H4l0,0v6.6c0,0.3-0.2,0.5-0.5,0.5l0,0H0.9c-0.3,0-0.5-0.2-0.5-0.5
					c0,0,0,0,0,0V1L0.4,1z"/>
				<rect id="Rectángulo_33871" x="0" y="0" class="st4" width="4.4" height="1.3"/>
				<rect id="Rectángulo_33872" x="0.7" y="3.5" class="st4" width="2.9" height="2"/>
			</g>
			<g id="Grupo_91765" transform="translate(0 0.136)">
				<path id="Rectángulo_33873" class="st40" d="M0.4,1H4l0,0v6.6c0,0.3-0.2,0.5-0.6,0.5c0,0,0,0,0,0H0.9c-0.3,0-0.5-0.2-0.5-0.5V1
					L0.4,1z"/>
				<rect id="Rectángulo_33874" x="0" y="0" class="st4" width="4.4" height="1.3"/>
				<rect id="Rectángulo_33875" x="0.7" y="3.5" class="st4" width="2.9" height="2"/>
			</g>
		</g>
		<g id="Grupo_91767" transform="translate(51.86 10.165)">
			<rect id="Rectángulo_33876" x="0" y="0" class="st4" width="13.5" height="12.8"/>
			<path id="Trazado_150740" class="st16" d="M1.3,7.2c0,0,6,2.1,6.5,2.5S9.1,9.6,8.6,9C8.1,8.6,7.5,8.2,6.8,8l5,0.1
				c0,0,0.7,0.1,0.8-0.4s-0.9-0.5-0.9-0.5L8.4,6.9l3.6-0.5c0,0,0.7-0.1,0.7-0.6s-1-0.3-1-0.3L8.2,5.7l3.5-0.8c0,0,0.9-0.2,0.8-0.7
				S11.3,4,11.3,4L7.8,4.5l1.8-0.9c0,0,0.3-0.2,0.1-0.4S9.1,3,9.1,3S4.9,4.4,4,4.9C3.1,5.2,2.2,5.3,1.3,5.1L1.3,7.2z"/>
			<rect id="Rectángulo_33877" x="0" y="0" class="st41" width="13.5" height="2.4"/>
			<rect id="Rectángulo_33878" x="0" y="10.4" class="st41" width="13.5" height="2.4"/>
		</g>
		
			<linearGradient id="Rectángulo_33879_00000119801950836927632480000000073085496288301987_" gradientUnits="userSpaceOnUse" x1="-376.859" y1="416.6638" x2="-376.859" y2="415.6638" gradientTransform="matrix(98.365 0 0 -4.466 37122.0586 1883.8723)">
			<stop  offset="0" style="stop-color:#F5F5F5"/>
			<stop  offset="0.25" style="stop-color:#F5F5F5"/>
			<stop  offset="1" style="stop-color:#A7B3CF"/>
		</linearGradient>
		
			<rect id="Rectángulo_33879" x="3.1" y="23.1" style="fill:url(#Rectángulo_33879_00000119801950836927632480000000073085496288301987_);" width="98.4" height="4.5"/>
		
			<linearGradient id="Trazado_150741_00000096779072996043905750000016245062186062101656_" gradientUnits="userSpaceOnUse" x1="-376.9091" y1="451.7925" x2="-376.9091" y2="450.7925" gradientTransform="matrix(103.678 0 0 -47.944 39129.0195 21660.7402)">
			<stop  offset="0" style="stop-color:#F5F5F5"/>
			<stop  offset="0.25" style="stop-color:#F5F5F5"/>
			<stop  offset="1" style="stop-color:#A7B3CF"/>
		</linearGradient>
		<path id="Trazado_150741" style="fill:url(#Trazado_150741_00000096779072996043905750000016245062186062101656_);" d="
			M103.7,47.9H0V0h103.7V47.9z M4.3,43.6h95V4.3h-95L4.3,43.6z"/>
		
			<linearGradient id="Rectángulo_33881_00000026843338780970448410000003062905604784892064_" gradientUnits="userSpaceOnUse" x1="-352.1734" y1="451.3517" x2="-352.1734" y2="450.3517" gradientTransform="matrix(3.741 0 0 -42.725 1368.9562 19286.293)">
			<stop  offset="0" style="stop-color:#F5F5F5"/>
			<stop  offset="0.25" style="stop-color:#F5F5F5"/>
			<stop  offset="1" style="stop-color:#A7B3CF"/>
		</linearGradient>
		
			<rect id="Rectángulo_33881" x="49.6" y="2.3" style="fill:url(#Rectángulo_33881_00000026843338780970448410000003062905604784892064_);" width="3.7" height="42.7"/>
		<rect id="Rectángulo_33882" x="51.3" y="0" class="st48" width="0.1" height="47.9"/>
		<path id="Rectángulo_33883" class="st49" d="M52,18.5h1.5c0.6,0,1,0.4,1,1v9.6c0,0.6-0.4,1-1,1H52l0,0V18.5L52,18.5z"/>
		<path id="Rectángulo_33884" class="st49" d="M50.5,30.1H49c-0.6,0-1-0.4-1-1v-9.6c0-0.6,0.4-1,1-1h1.5l0,0V30.1L50.5,30.1z"/>
	</g>
	<g id="Grupo_131739" transform="translate(448.358 5856.229)">
		<g class="st50">
			<path class="st42" d="M27.1,24.6c0-1.1-0.4-2-1.2-2.5s-2.2-1.2-4.2-1.9s-3.6-1.3-4.8-1.9c-3.2-1.7-4.8-4.1-4.8-7.1
				c0-1.5,0.4-2.9,1.3-4.1C14.2,5.9,15.4,5,17,4.3s3.4-1,5.5-1c2,0,3.8,0.4,5.4,1.1c1.6,0.7,2.8,1.8,3.7,3.1s1.3,2.9,1.3,4.6h-5.9
				c0-1.3-0.4-2.3-1.2-3s-2-1.1-3.5-1.1c-1.4,0-2.5,0.3-3.3,0.9c-0.8,0.6-1.2,1.4-1.2,2.4c0,0.9,0.5,1.7,1.4,2.3
				c0.9,0.6,2.3,1.2,4.1,1.8c3.3,1,5.8,2.2,7.3,3.7s2.3,3.3,2.3,5.5c0,2.5-0.9,4.4-2.8,5.8c-1.9,1.4-4.4,2.1-7.5,2.1
				c-2.2,0-4.2-0.4-6-1.2s-3.2-1.9-4.1-3.3c-0.9-1.4-1.4-3-1.4-4.8H17c0,3.1,1.9,4.7,5.6,4.7c1.4,0,2.5-0.3,3.3-0.8
				S27.1,25.7,27.1,24.6z"/>
			<path class="st42" d="M43.1,32.1h-5.9V3.7h5.9V32.1z"/>
			<path class="st42" d="M71.1,28.5c-1.1,1.3-2.5,2.2-4.5,2.9s-4.1,1-6.4,1c-2.5,0-4.6-0.5-6.5-1.6s-3.3-2.6-4.3-4.7
				s-1.5-4.4-1.6-7.2v-1.9c0-2.8,0.5-5.3,1.4-7.4s2.3-3.7,4.1-4.8s3.9-1.7,6.3-1.7c3.4,0,6,0.8,7.9,2.4s3,3.9,3.4,7h-5.7
				c-0.3-1.6-0.8-2.8-1.7-3.6S61.5,8,60,8c-2,0-3.5,0.7-4.6,2.2s-1.6,3.7-1.6,6.7v1.8c0,3,0.6,5.2,1.7,6.8s2.8,2.3,5,2.3
				c2.2,0,3.8-0.5,4.7-1.4v-4.9h-5.3v-4.3h11.2V28.5z"/>
			<path class="st42" d="M98.9,32.1h-5.9L81.7,13.4v18.7h-5.9V3.7h5.9l11.4,18.8V3.7h5.8V32.1z"/>
			<path class="st42" d="M127.4,18.5c0,2.8-0.5,5.3-1.5,7.4s-2.4,3.7-4.2,4.9s-4,1.7-6.3,1.7c-2.4,0-4.5-0.6-6.3-1.7
				s-3.3-2.8-4.3-4.9s-1.5-4.5-1.5-7.3v-1.4c0-2.8,0.5-5.3,1.5-7.4s2.4-3.8,4.3-4.9s3.9-1.7,6.3-1.7s4.5,0.6,6.3,1.7
				s3.3,2.8,4.3,4.9s1.5,4.6,1.5,7.4V18.5z M121.5,17.2c0-3-0.5-5.2-1.6-6.8s-2.6-2.3-4.6-2.3c-2,0-3.5,0.8-4.6,2.3
				s-1.6,3.8-1.6,6.7v1.4c0,2.9,0.5,5.2,1.6,6.8s2.6,2.4,4.6,2.4c2,0,3.5-0.8,4.5-2.3s1.6-3.8,1.6-6.7V17.2z"/>
			<path class="st42" d="M146.4,24.6c0-1.1-0.4-2-1.2-2.5s-2.2-1.2-4.2-1.9s-3.6-1.3-4.8-1.9c-3.2-1.7-4.8-4.1-4.8-7.1
				c0-1.5,0.4-2.9,1.3-4.1s2.1-2.1,3.7-2.8s3.4-1,5.5-1c2,0,3.8,0.4,5.4,1.1s2.8,1.8,3.7,3.1s1.3,2.9,1.3,4.6h-5.9
				c0-1.3-0.4-2.3-1.2-3s-2-1.1-3.5-1.1c-1.4,0-2.5,0.3-3.3,0.9s-1.2,1.4-1.2,2.4c0,0.9,0.5,1.7,1.4,2.3s2.3,1.2,4.1,1.8
				c3.3,1,5.8,2.2,7.3,3.7s2.3,3.3,2.3,5.5c0,2.5-0.9,4.4-2.8,5.8s-4.4,2.1-7.5,2.1c-2.2,0-4.2-0.4-6-1.2s-3.2-1.9-4.1-3.3
				s-1.4-3-1.4-4.8h5.9c0,3.1,1.9,4.7,5.6,4.7c1.4,0,2.5-0.3,3.3-0.8S146.4,25.7,146.4,24.6z"/>
		</g>
		<g class="st50">
			<path class="st3" d="M11.3,63.1V46.1h5.2c1.5,0,2.8,0.3,4,1s2.1,1.6,2.8,2.9s1,2.7,1,4.2V55c0,1.6-0.3,3-1,4.2s-1.6,2.2-2.8,2.9
				s-2.5,1-4,1H11.3z M14.8,48.9v11.4h1.7c1.4,0,2.4-0.4,3.2-1.3s1.1-2.2,1.1-3.9v-0.9c0-1.7-0.4-3-1.1-3.9s-1.8-1.3-3.2-1.3H14.8z"
				/>
			<path class="st3" d="M37.2,55.7h-6.7v4.6h7.9v2.8H26.9V46.1h11.4v2.8h-7.9V53h6.7V55.7z"/>
			<path class="st3" d="M43.9,60.3h7.5v2.8h-11V46.1h3.5V60.3z"/>
			<path class="st3" d="M69.6,56.2h-6.8v7h-3.5V46.1h11.1v2.8h-7.6v4.4h6.8V56.2z"/>
			<path class="st3" d="M79.9,59.6h-6.2l-1.2,3.5h-3.7l6.4-17.1h3.3l6.4,17.1h-3.7L79.9,59.6z M74.7,56.8H79l-2.1-6.4L74.7,56.8z"/>
			<path class="st3" d="M89.9,60.3h7.5v2.8h-11V46.1h3.5V60.3z"/>
			<path class="st3" d="M102.9,60.3h7.5v2.8h-11V46.1h3.5V60.3z"/>
			<path class="st3" d="M122.7,55.7h-6.8v4.6h7.9v2.8h-11.4V46.1h11.4v2.8h-7.9V53h6.8V55.7z"/>
			<path class="st3" d="M139.3,57.4c-0.1,1.8-0.8,3.3-2,4.3s-2.8,1.6-4.8,1.6c-2.2,0-3.9-0.7-5.2-2.2s-1.9-3.5-1.9-6.1v-1
				c0-1.6,0.3-3.1,0.9-4.3s1.4-2.2,2.5-2.9s2.3-1,3.7-1c2,0,3.6,0.5,4.8,1.6s1.9,2.5,2.1,4.4h-3.5c-0.1-1.1-0.4-1.9-0.9-2.4
				s-1.3-0.7-2.4-0.7c-1.2,0-2,0.4-2.6,1.3s-0.9,2.1-0.9,3.9v1.3c0,1.8,0.3,3.2,0.8,4s1.4,1.3,2.6,1.3c1.1,0,1.9-0.2,2.4-0.7
				s0.8-1.3,0.9-2.3H139.3z"/>
			<path class="st3" d="M145.4,63.1h-3.5V46.1h3.5V63.1z"/>
			<path class="st3" d="M153.2,46.1l4.4,12.4l4.4-12.4h4.6v17.1H163v-4.7l0.4-8.1l-4.6,12.7h-2.4l-4.6-12.7l0.4,8v4.7h-3.5V46.1
				H153.2z"/>
			<path class="st3" d="M173.4,63.1h-3.5V46.1h3.5V63.1z"/>
			<path class="st3" d="M186.9,55.7h-6.8v4.6h7.9v2.8h-11.4V46.1H188v2.8h-7.9V53h6.8V55.7z"/>
			<path class="st3" d="M204,63.1h-3.5l-6.8-11.2v11.2h-3.5V46.1h3.5l6.9,11.2V46.1h3.5V63.1z"/>
			<path class="st3" d="M219.6,48.9h-5.2v14.2h-3.5V48.9h-5.2v-2.8h13.9V48.9z"/>
			<path class="st3" d="M235.3,55c0,1.7-0.3,3.2-0.9,4.4s-1.4,2.2-2.5,2.9s-2.4,1-3.8,1c-1.4,0-2.7-0.3-3.8-1s-2-1.7-2.6-2.9
				s-0.9-2.7-0.9-4.4v-0.8c0-1.7,0.3-3.2,0.9-4.4s1.5-2.3,2.6-2.9s2.4-1,3.8-1s2.7,0.3,3.8,1s2,1.7,2.6,2.9s0.9,2.8,0.9,4.4V55z
				 M231.7,54.2c0-1.8-0.3-3.1-1-4.1s-1.6-1.4-2.7-1.4c-1.2,0-2.1,0.5-2.7,1.4s-1,2.3-1,4V55c0,1.7,0.3,3.1,1,4.1s1.6,1.4,2.8,1.4
				c1.2,0,2.1-0.5,2.7-1.4s1-2.3,1-4V54.2z"/>
		</g>
		<rect id="Rectángulo_34968" x="0" y="-6" class="st51" width="4.9" height="81.5"/>
	</g>
</g>
</svg>
