<svg xmlns="http://www.w3.org/2000/svg" width="149.968" height="150.034" viewBox="0 0 149.968 150.034">
  <g id="D0YFD3" transform="translate(-1743.137 -22.769)">
    <g id="Grupo_131745" data-name="Grupo 131745" transform="translate(1743.137 22.769)">
      <path id="Trazado_168491" data-name="Trazado 168491" d="M1811.054,98.618v2.251c0,11.994.025,23.988-.011,35.982-.018,5.943-.19,11.886-.208,17.829-.011,3.466.122,6.933.233,10.4a5.787,5.787,0,0,1-2.584,5.114c-4.553,3.345-13.539,3.389-18.117.078a6,6,0,0,1-2.682-5.2c.042-14.6.023-29.195.024-43.792v-1.511c-.561.371-.941.588-1.283.853a85.773,85.773,0,0,1-14.982,9.092,18.327,18.327,0,0,0-4.732,3.782,47.271,47.271,0,0,0-11.134,18.295,6.34,6.34,0,0,1-5.757,4.533,6.02,6.02,0,0,1-6.007-3.7,11.248,11.248,0,0,1-.526-4.334c.238-4.6,2.2-8.636,4.747-12.332,2.1-3.05,4.558-5.858,6.86-8.771.276-.35.572-.683,1.11-1.324h-1.786c-2.092,0-4.184.035-6.276,0a4.545,4.545,0,0,1-4.714-4.354A16.232,16.232,0,0,1,1743.2,119c.181-3.058,1.957-4.718,5.049-4.727,4.37-.012,8.751-.2,13.107.043,6.352.355,11.617-1.946,16.324-5.935a57.818,57.818,0,0,0,9.779-10.711,3.367,3.367,0,0,0,.372-1.851c-.008-3.065-.11-6.131-.1-9.2,0-.915-.244-1.3-1.2-1.419-3.41-.427-6.818-.892-10.208-1.451-3.295-.544-6.053-2.324-8.72-4.188-6.937-4.849-12.463-11.105-17.556-17.787a9.016,9.016,0,0,0-1.707-1.371,6.227,6.227,0,0,0-.5,2.259,8.5,8.5,0,0,0,1.182,3.071c2.836,4.439,6.745,7.9,10.654,11.337,1.813,1.594,3.713,3.093,5.625,4.569A2.421,2.421,0,0,1,1766.4,84.4a2.387,2.387,0,0,1-2.478,1.647,46.258,46.258,0,0,0-14.644,3.167c-1.107.428-1.7.959-1.529,2.218a18.266,18.266,0,0,1,.02,2.428c6.209-1.8,12.212-4.218,18.437-5.137,6.279-.926,12.782-.453,19.25.448-.253,1.524-.484,2.916-.737,4.437-2.109-.167-4.129-.447-6.151-.463-5.234-.041-10.523-.718-15.668.689-3.376.923-6.667,2.163-9.99,3.279-1.448.486-2.873,1.04-4.323,1.52a4.31,4.31,0,0,1-5.2-3.45,31.086,31.086,0,0,1-.03-6.247,3.941,3.941,0,0,1,2.946-3.395c3.518-1.167,7.072-2.227,10.612-3.329.338-.1.678-.2,1.12-.331-2.28-2.126-4.57-4.032-6.58-6.2a91.026,91.026,0,0,1-6.377-7.715,10.018,10.018,0,0,1-1.81-7.677,5.082,5.082,0,0,1,3.9-4.418,5.382,5.382,0,0,1,5.7,1.954c3.577,4.206,7.1,8.467,10.867,12.5a39.78,39.78,0,0,0,10.295,7.793c2.389,1.287,5.009,1.291,7.55,1.745,1.959.35,3.942.57,6.127.877V79.156c0-16.085.043-32.171-.04-48.255a6.41,6.41,0,0,1,4.044-6.379,17.8,17.8,0,0,1,15.123-.093c2.838,1.245,4.426,3.362,4.243,6.674-.195,3.519-.258,7.05-.244,10.575.025,6.813.16,13.627.2,20.44a1.215,1.215,0,0,0,1.124,1.4c13.032,3.225,26.091,6.384,39.451,7.881,5.753.645,11.594.568,17.4.639a24.648,24.648,0,0,0,4.984-1c-.393-.551-.63-.922-.9-1.264a40.072,40.072,0,0,0-14.722-11.444,4.861,4.861,0,0,0-1.87-.409c-2.091-.049-4.19.086-6.273-.052-1.484-.1-1.839.438-1.744,1.81.114,1.66.027,3.334.027,5.117h-4.472c0-3.255-.073-6.492.041-9.722a1.861,1.861,0,0,1,2.071-1.686c4-.023,8.015-.235,11.985.1,1.786.151,3.543,1.307,5.2,2.213a43.792,43.792,0,0,1,14.538,12.778c.611.839,1.14,1.179,2.164.706s2.155-.772,3.521-1.245c-1.373-1.6-2.474-3.087-3.786-4.361-2.865-2.781-5.815-5.476-8.775-8.157-1.257-1.139-1.622-2.125-.986-3.252.572-1.012,1.975-1.244,3.412-.862a85.164,85.164,0,0,0,10.1,1.819,37.215,37.215,0,0,0,4.908.036c0-1.3.069-2.631-.055-3.946-.026-.278-.756-.695-1.167-.7-3.811-.055-7.624-.037-11.436-.034q-14.3.013-28.59.031c-2.61,0-3.2-.591-3.2-3.187q0-4.114,0-8.229V35.909a67.971,67.971,0,0,1-7.156.727,64.764,64.764,0,0,1-7.037-.738V64.781h-4.626c0-.543,0-1.041,0-1.54q.069-6.966.141-13.931c.035-3.52.105-7.041.086-10.56-.015-2.687-.126-5.375-.23-8.06a5.744,5.744,0,0,1,3.14-5.647,17.248,17.248,0,0,1,16.935-.1,5.859,5.859,0,0,1,3.305,5.82c-.116,3.762-.035,7.53-.031,11.3,0,1.907.01,1.909,1.862,1.909,12.273,0,24.547.1,36.818-.057,3.888-.049,6.28,2.224,5.835,5.93a23.617,23.617,0,0,0,.036,2.78c0,3.447-1.9,5.328-5.376,5.268-1.857-.032-3.713-.173-5.569-.255-.44-.02-.882,0-1.562,0,.455.516.747.851,1.043,1.181,1.424,1.592,2.906,3.136,4.257,4.787,1.157,1.413,2.1,2.8,4.215,3.172,1.858.329,2.83,2.044,2.96,3.967a38.4,38.4,0,0,1,.01,4.6,4.238,4.238,0,0,1-2.842,4.1c-3.635,1.252-7.325,2.346-10.993,3.5-.257.081-.527.122-.791.182l-.466.529a6.12,6.12,0,0,1,1.322.672c4.439,3.834,8.746,7.8,11.919,12.81a10.632,10.632,0,0,1,1.7,8.1,5,5,0,0,1-4.206,4.116,5.138,5.138,0,0,1-5.369-2.156,89.436,89.436,0,0,0-5.776-7.43c-4.365-4.6-8.859-9.078-14.433-12.31-2.6-1.51-5.446-1.759-8.282-2.174-14.431-2.109-28.844-4.317-43.039-7.742a4.5,4.5,0,0,0-.639-.05v7.163l13.843,3,.326-1.408h4.366a42.955,42.955,0,0,1-.05,5.167c-.164,1.355-1.5,1.845-3.091,1.475q-6.848-1.595-13.7-3.159c-.528-.121-1.071-.171-1.778-.281a28.288,28.288,0,0,0,.06,3.71c.05.368.758.81,1.238.93,4.729,1.185,9.477,2.3,14.213,3.456,3.023.741,3.217,1.022,3.217,4.187q0,23.151-.009,46.3c0,2.539-.189,5.078-.182,7.616.008,3.245.093,6.491.235,9.732a1.82,1.82,0,0,0,.873,1.274,12.966,12.966,0,0,0,12.168.072,2.512,2.512,0,0,0,1.062-1.85c.12-2.645-.034-5.3.1-7.945a3.994,3.994,0,0,1,1.045-2.542c6.726-6.134,14.33-10.643,23.535-11.764a83.747,83.747,0,0,1,9.191-.239c3.021-.033,6.044-.012,9.065,0,.849,0,1.626.152,1.623-1.209,0-1.282-.643-1.285-1.566-1.277-3.208.027-6.415.015-9.623.009-1.691,0-2.661-.621-2.832-1.869-.2-1.437.6-2.188,1.853-2.724,4.128-1.76,7.817-4.131,10.251-8.037a36.156,36.156,0,0,0,1.785-3.769c-1.772,0-3.233-.028-4.69.029-.223.009-.519.37-.633.633-1.383,3.179-3.941,5.226-6.732,7.053-3.983,2.607-8.468,3.933-12.993,5.227a52.842,52.842,0,0,0-15.238,7.383c-.876.6-1.841,1.23-2.793.481a3.22,3.22,0,0,1-1.241-2.1c-.074-11.622-.059-23.244-.042-34.866,0-3.43.111-6.86.1-10.29,0-.982.212-1.466,1.3-1.415.958.046,1.925-.088,3.078-.154v42.389c.606-.278.971-.416,1.308-.6a68.225,68.225,0,0,1,16.286-6.412,25.411,25.411,0,0,0,10.5-5.555,11.507,11.507,0,0,0,2.386-3.347,4.76,4.76,0,0,1,4.463-2.979c1.627,0,3.255-.043,4.881.006a4.406,4.406,0,0,1,4.286,5.752,19.076,19.076,0,0,1-5.327,9c-.458.443-.929.871-1.742,1.632,1.1,0,1.8,0,2.51,0,3.137.008,5.008,1.883,5.028,5.043,0,.558.007,1.116,0,1.674a4.575,4.575,0,0,1-4.791,4.841c-4.416.042-8.841.19-13.248-.02-8.5-.406-15.846,2.513-22.6,7.351-3.925,2.812-3.917,2.823-3.917,7.655,0,.883-.07,1.773.015,2.649.308,3.2-1.3,5.293-4,6.521a17.77,17.77,0,0,1-15.5-.094,6.2,6.2,0,0,1-3.869-6.359c.089-1.66-.017-3.33.023-4.994.041-1.712.227-3.422.221-5.132q-.092-25.648-.211-51.3c0-.934-.2-1.393-1.2-1.619-3.986-.895-7.949-1.895-11.922-2.848A9.205,9.205,0,0,0,1811.054,98.618Zm77.408-27.584c-.53.162-.878.255-1.216.375-2.626.928-5.216,1.972-7.882,2.764-3.109.924-6.255,2.151-9.435,2.326a110.77,110.77,0,0,1-24.039-1.162c-12.43-2.036-24.706-4.763-36.892-7.921-2.107-.546-2.559-1.1-2.562-3.3-.005-3.811-.032-7.623.009-11.434.039-3.7.2-7.393.212-11.089.006-1.96-.193-3.921-.3-5.946a23.546,23.546,0,0,1-14.053-.022v1.353c0,19.147-.077,38.3.073,57.441a11.57,11.57,0,0,1-2.516,7.625,61.167,61.167,0,0,1-9.608,10.159c-5.331,4.317-11.2,7-18.271,6.658-4.173-.2-8.365-.037-12.548-.037h-1.559v2.444h1.607q6.066,0,12.132.005a2.322,2.322,0,0,1,2.4,1.541,2.219,2.219,0,0,1-.775,2.611c-.381.341-.765.678-1.135,1.032-4.925,4.714-9.527,9.718-12.412,15.973a34.812,34.812,0,0,0-1.892,7.058,1.646,1.646,0,0,0,1.3,2.134,1.746,1.746,0,0,0,2.175-1.45c.039-.133.107-.258.152-.389a53.181,53.181,0,0,1,10.7-18.118,31.193,31.193,0,0,1,9.368-7.27,120.147,120.147,0,0,0,12.729-7.952,7.332,7.332,0,0,0,3.622-5.213,1.99,1.99,0,0,1,2.283-1.641,2.1,2.1,0,0,1,2.113,2.02,20.979,20.979,0,0,1,.052,2.228q.005,25.379-.007,50.758c0,.947.09,1.737,1.072,2.189a13.373,13.373,0,0,0,12.074-.071,1.94,1.94,0,0,0,.961-1.349q.228-6.1.262-12.2c.01-2.635-.2-5.271-.207-7.906q-.027-34.234-.01-68.468c0-.744-.031-1.489.009-2.231a2.3,2.3,0,0,1,3.124-2.331c14.67,3.852,29.627,6.2,44.621,8.254,5.8.794,11.1,2.311,15.776,5.956a93.438,93.438,0,0,1,16.219,16.932,5.754,5.754,0,0,0,.779.97c.252.209.688.435.933.348a1.19,1.19,0,0,0,.512-.856,6.245,6.245,0,0,0-1-4.246,39.673,39.673,0,0,0-7.1-8.308c-2.993-2.768-6.258-5.242-9.413-7.833-.891-.732-1.5-1.581-1.054-2.772a2.474,2.474,0,0,1,2.513-1.589,43.069,43.069,0,0,0,15-3.407c.436-.186,1-.658,1.049-1.054A29.74,29.74,0,0,0,1888.462,71.034ZM1799.419,27.05c-2.117.624-4.179,1.1-6.134,1.856-1.236.478-1.244,1.263-.093,1.847a13.084,13.084,0,0,0,12.284.045c1.269-.628,1.272-1.393-.038-1.909C1803.532,28.136,1801.511,27.672,1799.419,27.05Zm37.521.024c-2.067.585-4.1,1.007-6.012,1.75-1.462.568-1.458,1.373-.05,2.049a13.185,13.185,0,0,0,12.047-.048c1.311-.646,1.313-1.428-.086-1.986C1840.976,28.1,1838.988,27.669,1836.94,27.073Z" transform="translate(-1743.137 -22.769)" fill="#1d272b"/>
      <path id="Trazado_168492" data-name="Trazado 168492" d="M2104.659,250.077h4.5c0,1.329.029,2.652-.031,3.971a.868.868,0,0,1-.648.551,25.028,25.028,0,0,1-3.3-.331c-.216-.038-.475-.558-.493-.868C2104.621,252.342,2104.659,251.28,2104.659,250.077Z" transform="translate(-2003.806 -186.671)" fill="#1d272b"/>
    </g>
  </g>
</svg>
