<svg xmlns="http://www.w3.org/2000/svg" xmlns:xlink="http://www.w3.org/1999/xlink" width="79.155" height="79.154" viewBox="0 0 79.155 79.154">
  <defs>
    <linearGradient id="linear-gradient" x1="0.5" x2="0.5" y2="1" gradientUnits="objectBoundingBox">
      <stop offset="0" stop-color="#fff"/>
      <stop offset="1" stop-color="#f8f8f8"/>
    </linearGradient>
  </defs>
  <g id="Grupo_134227" data-name="Grupo 134227" transform="translate(-800 -1293.71)">
    <g id="Group_18531" data-name="Group 18531" transform="translate(800 1293.71)">
      <g id="Group_18423" data-name="Group 18423">
        <g id="Group_18421" data-name="Group 18421">
          <g id="Group_18420" data-name="Group 18420">
            <g id="Group_18419" data-name="Group 18419">
              <path id="Path_40936" data-name="Path 40936" d="M201.954,554.407a39.577,39.577,0,1,1-39.578-39.575h0A39.576,39.576,0,0,1,201.954,554.407Z" transform="translate(-122.8 -514.832)" fill="#fff"/>
            </g>
          </g>
        </g>
        <path id="Path_40937" data-name="Path 40937" d="M201.953,554.407a39.42,39.42,0,1,0,0,.312Z" transform="translate(-122.799 -514.832)" fill="url(#linear-gradient)"/>
        <path id="Path_40938" data-name="Path 40938" d="M190.028,551.858a30.209,30.209,0,1,0-30.209,30.209h0a30.1,30.1,0,0,0,30.209-29.984Z" transform="translate(-120.122 -512.151)" fill="none" stroke="#008f85" stroke-miterlimit="10" stroke-width="3"/>
        <g id="Group_18422" data-name="Group 18422" transform="translate(7.012 22.22)">
          <path id="Path_40939" data-name="Path 40939" d="M195.973,530.78a39.581,39.581,0,0,1-68.14,39.411,39.456,39.456,0,0,0,68.14-39.411Z" transform="translate(-127.833 -530.78)" fill="#e7e9eb"/>
        </g>
      </g>
    </g>
    <g id="_5cqKkg" data-name="5cqKkg" transform="translate(-2470.025 1846.547)">
      <g id="Grupo_133723" data-name="Grupo 133723" transform="translate(3292.198 -530.503)">
        <path id="Trazado_173390" data-name="Trazado 173390" d="M3324.619-514.555a11.855,11.855,0,0,1,2.19,7.93c.638.264.844.522.757.943s-.362.6-1,.612a12,12,0,0,1-3.074,5.64c.292.254.587.486.854.747a.743.743,0,0,1,.066,1.129.756.756,0,0,1-1.1-.081c-.275-.274-.538-.561-.82-.857-.143.1-.253.177-.36.257a11.6,11.6,0,0,1-6,2.305c-.177.016-.322.016-.375.266a.661.661,0,0,1-.695.526.669.669,0,0,1-.7-.522.308.308,0,0,0-.335-.268,11.772,11.772,0,0,1-4.148-1.136.49.49,0,0,0-.42.05,5.135,5.135,0,0,1-8.32-3.221,4.9,4.9,0,0,1,2.082-4.968c.233-.175.313-.327.154-.609-.437.106-.883.218-1.331.322a.74.74,0,0,1-.951-.5.742.742,0,0,1,.592-.934c.521-.138,1.044-.261,1.571-.392q.03-.532.056-1.007c-5.572-.444-9.43-3.157-10.768-8.686-1.092-4.51.44-8.314,4.052-11.228a11.058,11.058,0,0,1,13.2-.165,4.476,4.476,0,0,1,5.479-1.761,4.433,4.433,0,0,1,2.725,4.331c-.18,2.188-1.5,3.614-3.86,4.166.076.738.152,1.479.221,2.154l3.426.3a8.045,8.045,0,0,1,.657-.891c.087-.092.336-.076.5-.042a.614.614,0,0,1,.521.611,4.879,4.879,0,0,1-.151.859c.082.04.167.088.257.126a11.543,11.543,0,0,1,3.843,2.592.372.372,0,0,0,.542.083c.335-.2.69-.359,1.041-.525a.738.738,0,0,1,1.031.3.733.733,0,0,1-.359,1.014C3325.337-514.906,3325-514.745,3324.619-514.555Zm.466,9.267c-.424-.054-.795-.1-1.166-.148a.76.76,0,0,1-.753-.848.765.765,0,0,1,.949-.623c.393.052.787.094,1.176.14a9.963,9.963,0,0,0-2.037-7.081c-.93.359-1.221.346-1.463-.067-.221-.377-.109-.7.414-1.151a10.141,10.141,0,0,0-3.378-2.174c-.333.656-.62.846-1.047.71s-.541-.452-.442-1.223l-1.935-.2a2.643,2.643,0,0,0-2.786,1.507c-.3.55-.6,1.1-.913,1.644a.76.76,0,0,1-1.059.333.742.742,0,0,1-.229-1.05q.364-.68.741-1.352a5.6,5.6,0,0,1,1.532-1.883.458.458,0,0,0,.144-.35c-.053-.774-.135-1.545-.194-2.319-.021-.27-.16-.368-.407-.447a4.378,4.378,0,0,1-3.022-4.728.487.487,0,0,0-.24-.527,9.385,9.385,0,0,0-6.737-1.823,9.555,9.555,0,0,0-8.465,10.566,9.577,9.577,0,0,0,9.983,8.5c.1-.005.225-.007.281-.066.425-.452.835-.917,1.246-1.374-.035-.024-.131-.083-.219-.152a.754.754,0,0,1-.19-1.006.708.708,0,0,1,.992-.226q1.157.74,2.285,1.525a.721.721,0,0,1,.168.977.729.729,0,0,1-.96.25c-.166-.086-.311-.215-.479-.3a.356.356,0,0,0-.293-.018,4.456,4.456,0,0,0-1.534,1.523,6.8,6.8,0,0,0-.354,1.059c.458.087.712.268.775.639.082.486-.227.727-.6.9a10.289,10.289,0,0,0,2.092,4.827c.311-.318.583-.612.874-.886a1.073,1.073,0,0,1,.436-.273.673.673,0,0,1,.8.345.694.694,0,0,1-.1.869c-.33.352-.675.689-1.024,1.042a10.374,10.374,0,0,0,6.387,2.842c0-.255-.008-.478,0-.7a.712.712,0,0,1,.737-.735.715.715,0,0,1,.726.747c.009.221,0,.442,0,.69a10.313,10.313,0,0,0,5.57-2.146c-.462-.6-.514-.965-.2-1.285s.637-.276,1.363.235A10.333,10.333,0,0,0,3325.085-505.288Zm-14.437-20.791a2.934,2.934,0,0,0,2.931,2.948,2.947,2.947,0,0,0,2.951-2.933,2.948,2.948,0,0,0-2.937-2.948A2.935,2.935,0,0,0,3310.648-526.079Zm-6.836,22.3a3.61,3.61,0,0,0-.442,5.065,3.573,3.573,0,0,0,4.879.693l-1.351-1.119c-.551.391-.894.415-1.207.09s-.277-.656.1-1.149Z" transform="translate(-3292.198 530.503)" fill="#1d272b"/>
        <path id="Trazado_173391" data-name="Trazado 173391" d="M3297.648-214.963a2.606,2.606,0,0,1-2.611,2.57,2.609,2.609,0,0,1-2.561-2.584,2.6,2.6,0,0,1,2.594-2.586A2.6,2.6,0,0,1,3297.648-214.963Zm-1.49-.025a1.086,1.086,0,0,0-1.1-1.087,1.094,1.094,0,0,0-1.09,1.1,1.1,1.1,0,0,0,1.108,1.09A1.091,1.091,0,0,0,3296.158-214.988Z" transform="translate(-3292.455 241.138)" fill="#1d272b"/>
        <path id="Trazado_173392" data-name="Trazado 173392" d="M3686.2-446.963a2.584,2.584,0,0,1-2.6-2.57,2.583,2.583,0,0,1,2.584-2.586,2.584,2.584,0,0,1,2.582,2.551A2.589,2.589,0,0,1,3686.2-446.963Zm1.075-2.571a1.1,1.1,0,0,0-1.085-1.113,1.118,1.118,0,0,0-1.11,1.1,1.1,1.1,0,0,0,1.093,1.1A1.08,1.08,0,0,0,3687.271-449.534Z" transform="translate(-3654.11 458.025)" fill="#1d272b"/>
        <path id="Trazado_173393" data-name="Trazado 173393" d="M3372.875-455.924a5.878,5.878,0,0,1-5.9,5.871,5.872,5.872,0,0,1-5.879-5.925,5.87,5.87,0,0,1,5.914-5.85A5.873,5.873,0,0,1,3372.875-455.924Zm-1.468-.025a4.445,4.445,0,0,0-4.409-4.415,4.449,4.449,0,0,0-4.434,4.43,4.445,4.445,0,0,0,4.41,4.414A4.445,4.445,0,0,0,3371.407-455.949Z" transform="translate(-3355.909 467.002)" fill="#1d272b"/>
        <path id="Trazado_173394" data-name="Trazado 173394" d="M3523.9-292.166a6.675,6.675,0,0,1-6.619-6.253,6.619,6.619,0,0,1,5.6-6.943,6.447,6.447,0,0,1,6.485,2.785.726.726,0,0,1,0,.968.68.68,0,0,1-.855.172,1.468,1.468,0,0,1-.45-.434,4.955,4.955,0,0,0-5.222-1.968,4.925,4.925,0,0,0-3.966,3.971,5.132,5.132,0,0,0,3.336,5.912,5.147,5.147,0,0,0,6.279-2.5c.046-.089.087-.181.133-.27a.748.748,0,0,1,1-.4.732.732,0,0,1,.338,1.019,6.5,6.5,0,0,1-3.6,3.452,6.98,6.98,0,0,1-1.224.357C3524.727-292.224,3524.31-292.209,3523.9-292.166Z" transform="translate(-3500.307 322.399)" fill="#1d272b"/>
        <path id="Trazado_173395" data-name="Trazado 173395" d="M3562.171-257.487a3.245,3.245,0,0,1,3.25-3.26,3.254,3.254,0,0,1,3.275,3.277,3.264,3.264,0,0,1-3.274,3.245A3.252,3.252,0,0,1,3562.171-257.487Zm1.479.016a1.782,1.782,0,0,0,1.816,1.77,1.8,1.8,0,0,0,1.751-1.8,1.782,1.782,0,0,0-1.783-1.765A1.771,1.771,0,0,0,3563.65-257.47Z" transform="translate(-3541.833 281.068)" fill="#1d272b"/>
        <path id="Trazado_173396" data-name="Trazado 173396" d="M3508-304.572a.729.729,0,0,1-.743-.728.726.726,0,0,1,.737-.732.724.724,0,0,1,.745.725A.734.734,0,0,1,3508-304.572Z" transform="translate(-3491.059 322.941)" fill="#1d272b"/>
        <path id="Trazado_173397" data-name="Trazado 173397" d="M3674.956-233.505a.748.748,0,0,1-.762.716.744.744,0,0,1-.72-.757.754.754,0,0,1,.763-.719A.748.748,0,0,1,3674.956-233.505Z" transform="translate(-3644.751 256.582)" fill="#1d272b"/>
        <path id="Trazado_173398" data-name="Trazado 173398" d="M3430.13-362.635a.743.743,0,0,1-.741-.738.743.743,0,0,1,.751-.73.727.727,0,0,1,.752.757A.727.727,0,0,1,3430.13-362.635Z" transform="translate(-3419.053 376.639)" fill="#1d272b"/>
        <path id="Trazado_173399" data-name="Trazado 173399" d="M3458.851-383.927a.754.754,0,0,1-.744.738.753.753,0,0,1-.738-.744.742.742,0,0,1,.743-.734A.745.745,0,0,1,3458.851-383.927Z" transform="translate(-3444.926 395.653)" fill="#1d272b"/>
        <path id="Trazado_173400" data-name="Trazado 173400" d="M3447.905-416.585a.749.749,0,0,1-.751.729.756.756,0,0,1-.735-.747.754.754,0,0,1,.754-.729A.748.748,0,0,1,3447.905-416.585Z" transform="translate(-3434.801 425.859)" fill="#1d272b"/>
        <path id="Trazado_173401" data-name="Trazado 173401" d="M3402.239-382.954a.748.748,0,0,1-.749-.732.759.759,0,0,1,.736-.749.755.755,0,0,1,.747.736A.748.748,0,0,1,3402.239-382.954Z" transform="translate(-3393.257 395.439)" fill="#1d272b"/>
        <path id="Trazado_173402" data-name="Trazado 173402" d="M3412.879-415.567a.722.722,0,0,1-.714-.759.721.721,0,0,1,.77-.7.715.715,0,0,1,.694.74A.716.716,0,0,1,3412.879-415.567Z" transform="translate(-3403.127 425.577)" fill="#1d272b"/>
      </g>
    </g>
  </g>
</svg>
