<svg xmlns="http://www.w3.org/2000/svg" width="130.477" height="134.127" viewBox="0 0 130.477 134.127">
  <g id="CY2bg3" transform="translate(-4103.723 290.104)">
    <g id="Grupo_133725" data-name="Grupo 133725" transform="translate(4103.723 -290.104)">
      <path id="Trazado_173428" data-name="Trazado 173428" d="M4172.486-204.06c2.336-2.012,4.325-3.683,6.263-5.41,1.389-1.239,2.87-2.021,4.315-.323s.376,3.05-.989,4.245c-1.782,1.559-3.535,3.15-5.609,5l7.309,4.821c2.287-1.753,4.423-3.394,6.564-5.029,1.37-1.045,2.908-1.617,4.129-.041,1.294,1.67.424,3.1-1.083,4.234-1.578,1.187-3.137,2.4-4.823,3.689l6.225,7.812c1.639-.57,3.438-1.531,5.318-1.732,1.257-.136,2.631.805,3.953,1.265-.732,1.171-1.212,2.711-2.256,3.422-1.406.957-3.246,1.275-4.994,1.9.376,2.7.629,5.279,1.16,7.8a2.85,2.85,0,0,0,1.784,1.58c1.376.434,3,.258,4.246.877.986.49,1.57,1.791,2.333,2.733-.969.722-1.9,1.986-2.913,2.05a28.1,28.1,0,0,1-5.721-.717c-1.4,3.377-2.692,6.517-4.067,9.844a22.611,22.611,0,0,1,4.212,2.981c.721.785.663,2.284.954,3.462-1.255.232-2.682.952-3.726.586-1.717-.6-3.187-1.909-4.684-2.87l-9.707,6.65a26.8,26.8,0,0,1,1.739,5.342c.141,1.114-.815,2.365-1.279,3.554-1.135-.627-3.11-1.091-3.269-1.907-.941-4.862-3.541-6.466-8.278-5.288-1.242.309-2.671-.131-4.26-.245a28.812,28.812,0,0,1-1.7,5.621c-.527,1-2.028,1.484-3.092,2.2-.577-1.162-1.635-2.329-1.623-3.484.021-1.808.765-3.609,1.246-5.591l-8.191-3.541c-1.053,1.594-2.055,3.036-2.977,4.528-1.011,1.638-2.29,3.072-4.264,1.886-2.062-1.239-1.2-2.982-.132-4.569.93-1.375,1.787-2.8,2.756-4.328l-7.914-5.4c-1.194,1.3-2.254,2.942-3.751,3.91-1.023.661-2.656.382-4.017.524.112-1.294-.143-2.787.426-3.831a19.117,19.117,0,0,1,3.168-3.552l-5.573-5.652c-1.187.965-2.619,2.105-4.024,3.278s-2.9,1.968-4.367.328c-1.5-1.685-.481-3.042.951-4.2,1.37-1.111,2.725-2.241,4.229-3.481l-5.188-7.388c-1.656.932-3.174,2.134-4.894,2.624-1.07.305-2.446-.468-3.686-.758.353-1.162.374-2.663,1.136-3.408,1.228-1.2,2.942-1.9,4.692-2.964a57.221,57.221,0,0,0-2.7-5.514,2.705,2.705,0,0,0-2.251-.793c-1.738.244-3.427,1.111-5.143,1.134-1.043.014-2.1-1.075-3.153-1.669.618-1.028,1-2.535,1.9-2.986a34.363,34.363,0,0,1,5.942-1.8l-1.087-9.106a27.255,27.255,0,0,1-5.6-.964c-1.1-.418-1.828-1.834-2.722-2.8,1.077-.727,2.107-1.961,3.242-2.066a27.389,27.389,0,0,1,5.758.6l3.333-8.122c-1.13-.943-2.285-1.969-3.5-2.909-1.518-1.169-2.284-2.552-.994-4.248s2.725-.95,4.068.078c1.152.882,2.313,1.755,3.57,2.708l6.165-5.181c-.631-1.39-1.625-2.818-1.879-4.369-.21-1.284,0-3.329.825-3.938,1.458-1.07,2.9-.018,3.664,1.654.643,1.406,1.354,2.781,2.077,4.255l7.948-1.884c0-1.683-.329-3.334.1-4.752.347-1.137,1.617-1.993,2.479-2.974.844.967,2.489,2.018,2.4,2.885-.425,4.005,1.094,5.868,5.087,6.17,1.5.114,2.952.947,4.741,1.559a22.215,22.215,0,0,1,2.551-4.384c.729-.8,2.205-.913,3.346-1.334.387,1.178,1.291,2.48,1.045,3.507a23.145,23.145,0,0,1-2.325,4.841l7.085,7.763c1.429-1.458,2.931-2.983,4.424-4.517,1.233-1.266,2.59-1.908,4.033-.425,1.419,1.458.772,2.812-.449,4.071-1.737,1.791-3.441,3.613-5.452,5.73Zm-3.417,58.283.32-.876a24.993,24.993,0,0,0,24.107-17.392c3.3-10.789-.723-22.638-10.419-28.291a62.543,62.543,0,0,1-22.121-21.929c-6.637-10.781-20.461-14.236-31.873-8.5a24.493,24.493,0,0,0-11.959,30.787c7.229,18.072,19.235,32.045,36.891,40.653C4158.8-149,4164.038-147.6,4169.068-145.778Z" transform="translate(-4103.723 270.079)" fill="#1d272b"/>
      <path id="Trazado_173429" data-name="Trazado 173429" d="M4259.779-236.36l-2.383-4.849-2.148,4.715h-1.916c-.862-1.8-1.555-3.255-2.248-4.706-.676,1.441-1.351,2.882-2.278,4.862a3.471,3.471,0,0,1-3.876-2.693,3.628,3.628,0,0,0-3.377-2.972c-3.478-.589-5.22-2.807-5.148-6.347.092-4.55-.247-9.273.854-13.6,2.222-8.739,10.914-13.726,20.1-12.356,8.146,1.215,14.615,8.711,14.821,17.235q.106,4.366.008,8.736c-.076,3.514-1.767,5.711-5.212,6.353-1.735.323-2.787.822-3.25,2.672A3.5,3.5,0,0,1,4259.779-236.36Zm-7.261-16.954c-1.731-1.625-2.643-3.219-3.733-3.352-2.3-.279-3.256,1.78-3.184,3.648.042,1.086,1.4,2.122,2.161,3.18Zm11.371.5-4.306-3.98c-.833.972-2.191,1.851-2.385,2.938-.355,2.006.663,3.909,2.925,3.888C4261.137-249.974,4262.138-251.425,4263.89-252.811Zm-9.18,1.84-1.287.032q-.824,2.211-1.646,4.423l4.8-.094Z" transform="translate(-4153.448 284.268)" fill="#b42218"/>
      <path id="Trazado_173430" data-name="Trazado 173430" d="M4217.161-260.246a30.155,30.155,0,0,1,21.249-28.62,29.875,29.875,0,0,1,33.578,12.409,29.674,29.674,0,0,1-2.449,35.414,6.388,6.388,0,0,1-1.52,1.546c-.533.294-1.7.466-1.852.226a2.915,2.915,0,0,1-.389-2.183c.233-.734,1-1.295,1.533-1.936a26.435,26.435,0,0,0,.451-33.416,26.46,26.46,0,0,0-33.191-6.982,26.548,26.548,0,0,0-13.022,30.816,26.352,26.352,0,0,0,28.123,18.932c2.842-.309,5.573-1.563,8.395-2.213a10.556,10.556,0,0,1,2.989.176c-.579.917-.937,2.265-1.768,2.688-16.3,8.3-37.773-2.488-41.29-20.69C4217.607-256.114,4217.435-258.19,4217.161-260.246Z" transform="translate(-4146.236 290.104)" fill="#1d272b"/>
      <path id="Trazado_173431" data-name="Trazado 173431" d="M4154.393-201.522a12.2,12.2,0,0,1,10.483,6.2,71.425,71.425,0,0,0,26.056,25.823,13.341,13.341,0,0,1,5.093,17.461,13.449,13.449,0,0,1-16.822,6.907c-18.674-6.887-31.311-20.051-38.524-38.372C4137.212-192.3,4143.938-201.459,4154.393-201.522ZM4186.318-159c.012-4.72-2.777-7.453-6.193-7.55-1.718-.049-3.433-.2-5.147-.347a4.4,4.4,0,0,0-5.031,3.242c-.737,2.313.35,3.993,2.267,5.265a42.553,42.553,0,0,1,3.663,2.6c2.054,1.7,4.525,2.3,6.646.97C4184.344-155.961,4185.54-158.1,4186.318-159Zm-30.043-19.683a4.678,4.678,0,0,0,4.716-4.727,4.792,4.792,0,0,0-4.942-4.85,4.713,4.713,0,0,0-4.671,5.074A4.612,4.612,0,0,0,4156.275-178.686Z" transform="translate(-4117.229 256.906)" fill="#1d272b"/>
    </g>
  </g>
</svg>
