<?xml version="1.0" encoding="utf-8"?>
<!-- Generator: Adobe Illustrator 26.0.1, SVG Export Plug-In . SVG Version: 6.00 Build 0)  -->
<svg version="1.1" id="Layer_1" xmlns="http://www.w3.org/2000/svg" xmlns:xlink="http://www.w3.org/1999/xlink" x="0px" y="0px"
	 viewBox="0 0 62.6 62.6" style="enable-background:new 0 0 62.6 62.6;" xml:space="preserve">
<style type="text/css">
	.st0{fill:#FFFFFF;}
	.st1{fill:url(#Trazado_40937_00000155130551383763525520000016688365940611329465_);}
	.st2{fill:none;stroke:#1D272B;stroke-width:2;stroke-miterlimit:10;}
	.st3{fill:#ECEEF0;}
	.st4{enable-background:new    ;}
	.st5{fill:#1D272B;}
</style>
<g id="Grupo_134286" transform="translate(-402.313 -4741.179)">
	<g id="Grupo_18423" transform="translate(402.313 4741.179)">
		<g id="Grupo_18421">
			<g id="Grupo_18420">
				<g id="Grupo_18419">
					<path id="Trazado_40936" class="st0" d="M62.6,31.3c0,17.3-14,31.3-31.3,31.3C14,62.6,0,48.6,0,31.3C0,14,14,0,31.3,0
						c0,0,0,0,0,0C48.6,0,62.6,14,62.6,31.3z"/>
				</g>
			</g>
		</g>
		
			<radialGradient id="Trazado_40937_00000160182003432444920620000008946358726618170797_" cx="-269.5488" cy="422.1688" r="1.465" gradientTransform="matrix(62.6263 0 0 -62.6265 16885.6562 26440.127)" gradientUnits="userSpaceOnUse">
			<stop  offset="0" style="stop-color:#F6F6F7"/>
			<stop  offset="0.477" style="stop-color:#F9F9FA"/>
			<stop  offset="0.715" style="stop-color:#FFFFFF"/>
		</radialGradient>
		<path id="Trazado_40937" style="fill:url(#Trazado_40937_00000160182003432444920620000008946358726618170797_);" d="M62.6,31.3
			C62.6,14,48.6,0,31.3,0S0,14,0,31.3c0,17.3,14,31.3,31.3,31.3c17.2,0.1,31.2-13.8,31.3-31.1C62.6,31.5,62.6,31.4,62.6,31.3z"/>
		<path id="Trazado_40938" class="st2" d="M55.3,31.4c0-13.2-10.7-23.9-23.9-23.9S7.5,18.2,7.5,31.4c0,13.2,10.7,23.9,23.9,23.9
			c0,0,0,0,0,0c13.2,0,23.9-10.6,23.9-23.7C55.3,31.5,55.3,31.5,55.3,31.4z"/>
		<g id="Grupo_18422" transform="translate(5.548 17.58)">
			<path id="Trazado_40939" class="st3" d="M53.9,0c7,15.8-0.1,34.3-15.9,41.3c-13.5,6-29.3,1.8-38-10.2c9.7,14.3,29.1,18,43.3,8.4
				C56.2,30.8,60.7,14,53.9,0z"/>
		</g>
	</g>
	<g class="st4">
		<path class="st5" d="M435.9,4784.4h-4.2V4768l-5.1,1.6v-3.4l8.8-3.2h0.5V4784.4z"/>
	</g>
</g>
</svg>
