<svg xmlns="http://www.w3.org/2000/svg" xmlns:xlink="http://www.w3.org/1999/xlink" width="81.543" height="81.543" viewBox="0 0 81.543 81.543">
  <defs>
    <radialGradient id="radial-gradient" cx="0.076" cy="0.019" r="1.465" gradientTransform="translate(0.001)" gradientUnits="objectBoundingBox">
      <stop offset="0" stop-color="#f6f6f7"/>
      <stop offset="0.477" stop-color="#f9f9fa"/>
      <stop offset="0.715" stop-color="#fff"/>
    </radialGradient>
  </defs>
  <g id="Grupo_134271" data-name="Grupo 134271" transform="translate(-1176.082 -2355.303)">
    <g id="Grupo_128861" data-name="Grupo 128861" transform="translate(1176.082 2355.303)">
      <g id="Grupo_18421" data-name="Grupo 18421">
        <g id="Grupo_18420" data-name="Grupo 18420">
          <g id="Grupo_18419" data-name="Grupo 18419">
            <path id="Trazado_40936" data-name="Trazado 40936" d="M276.166,2186.491a40.771,40.771,0,1,1-40.771-40.77A40.771,40.771,0,0,1,276.166,2186.491Z" transform="translate(-194.623 -2145.721)" fill="#fff"/>
          </g>
        </g>
      </g>
      <path id="Trazado_40937" data-name="Trazado 40937" d="M275.978,2186.287a40.771,40.771,0,1,0-40.771,40.772A40.61,40.61,0,0,0,275.978,2186.287Z" transform="translate(-194.435 -2145.517)" fill="url(#radial-gradient)"/>
      <path id="Trazado_40938" data-name="Trazado 40938" d="M264.735,2184.708a31.121,31.121,0,1,0-31.121,31.12A31,31,0,0,0,264.735,2184.708Z" transform="translate(-192.719 -2143.802)" fill="none" stroke="#1d272d" stroke-miterlimit="10" stroke-width="4"/>
      <g id="Grupo_18422" data-name="Grupo 18422" transform="translate(7.223 22.89)">
        <path id="Trazado_40939" data-name="Trazado 40939" d="M270.742,2164.488a40.776,40.776,0,0,1-70.2,40.6,40.647,40.647,0,0,0,70.2-40.6Z" transform="translate(-200.545 -2164.488)" fill="#eceef0"/>
      </g>
    </g>
    <g id="_0zXMi4" data-name="0zXMi4" transform="translate(-1392.753 3064.472)">
      <g id="Grupo_133722" data-name="Grupo 133722" transform="translate(2596.697 -685.47)">
        <path id="Trazado_173384" data-name="Trazado 173384" d="M2624.82-667.46V-651.2a1.677,1.677,0,0,1-1.729,1.73q-5.4,0-10.808,0l-13.847,0a1.676,1.676,0,0,1-1.739-1.737c0-1.623.006-3.245.006-4.868q0-6.221-.006-12.442,0-4.148,0-8.3,0-3.47,0-6.941a1.678,1.678,0,0,1,1.709-1.714q4.815,0,9.63,0,5.14,0,10.281,0h4.762a1.679,1.679,0,0,1,1.74,1.736Zm-1.125.007v-.211q0-7.987,0-15.974c0-.512-.2-.707-.714-.707h-24.146c-.123,0-.246-.006-.369,0a.588.588,0,0,0-.647.658q0,2.9,0,5.8,0,5.341,0,10.683,0,5.21,0,10.419,0,2.777,0,5.553a.573.573,0,0,0,.641.639q1.115,0,2.232,0l12.126,0H2623c.5,0,.7-.2.7-.7q0-2.987,0-5.975Z" transform="translate(-2596.697 685.47)" fill="#1d272b"/>
        <path id="Trazado_173385" data-name="Trazado 173385" d="M2715.95-221.468q3.33,0,6.659,0a1.019,1.019,0,0,1,.435.1c1.788.887,3.569,1.787,5.359,2.668a.776.776,0,0,1,.49.8c-.016,1.88-.007,3.76-.007,5.64,0,2.512-.007,5.024.007,7.536a.64.64,0,0,1-.7.693q-6.634-.017-13.267,0a.838.838,0,0,1-.506-.158q-2.738-1.921-5.48-3.835a.651.651,0,0,1-.3-.576q.008-5.087.006-10.174c0-.691,0-1.382,0-2.073a.559.559,0,0,1,.617-.622Zm-.561,13.488h12.361v-9.543h-3.641c0,.051-.009.091-.009.131q0,2,0,4.007a.565.565,0,0,1-.64.634h-3.8a.562.562,0,0,1-.625-.632q0-1.969,0-3.937v-.2h-3.653Zm-5.617-12.007c-.006.045-.01.062-.01.079q0,4.075,0,8.151a.3.3,0,0,0,.121.2q1.965,1.386,3.938,2.762c.136.1.274.188.428.292,0-.057.007-.086.007-.114q0-4.5,0-8.995a.2.2,0,0,0-.144-.206q-1.367-.679-2.732-1.364Zm5.621,14.82h12.355v-1.67h-12.355Zm10.467-13.485.006-.032a.476.476,0,0,0-.052-.035q-1.555-.777-3.111-1.55a.7.7,0,0,0-.3-.071q-3-.006-6.008,0h-4.781c.059.039.075.053.094.062,1.036.518,2.072,1.038,3.111,1.55a.781.781,0,0,0,.334.072q5.077.008,10.155.007Zm-5.68,1.127v3.638h2.793v-3.638Zm-10.418,7.264c0,.451,0,.864,0,1.278a.267.267,0,0,0,.137.253q1.83,1.273,3.654,2.554l.711.5c0-.478,0-.921,0-1.363a.209.209,0,0,0-.09-.131c-.188-.139-.383-.27-.574-.4Z" transform="translate(-2704.699 237.78)" fill="#1d272b"/>
        <path id="Trazado_173386" data-name="Trazado 173386" d="M2890.929-365.468q2.795,0,5.589,0a.548.548,0,0,1,.508.287.529.529,0,0,1-.021.582.531.531,0,0,1-.472.256h-5.062l-4.956,0c-.4,0-.809,0-1.213,0a.556.556,0,0,1-.578-.571.558.558,0,0,1,.581-.552Z" transform="translate(-2874.6 376.718)" fill="#1d272b"/>
        <path id="Trazado_173387" data-name="Trazado 173387" d="M2890.914-524.345q-1.65,0-3.3,0c-.76,0-1.52.006-2.28.008a.562.562,0,0,1-.608-.559.561.561,0,0,1,.6-.565h11.17a.562.562,0,0,1,.6.568.575.575,0,0,1-.6.556h-5.586Z" transform="translate(-2874.6 531.086)" fill="#1d272b"/>
        <path id="Trazado_173388" data-name="Trazado 173388" d="M2742.639-565.47c.281,0,.562,0,.843,0a1.114,1.114,0,0,1,1.122,1.111q.005.86,0,1.721a1.112,1.112,0,0,1-1.093,1.1q-.869.009-1.739,0a1.114,1.114,0,0,1-1.1-1.11q0-.852,0-1.7a1.115,1.115,0,0,1,1.128-1.122Zm-.834,1.133v1.667h1.667v-1.667Z" transform="translate(-2735.605 569.689)" fill="#1d272b"/>
        <path id="Trazado_173389" data-name="Trazado 173389" d="M2744.567-403.522c0,.287,0,.574,0,.861a1.116,1.116,0,0,1-1.107,1.107q-.861,0-1.721,0a1.115,1.115,0,0,1-1.106-1.09q-.008-.878,0-1.756a1.115,1.115,0,0,1,1.107-1.09q.861,0,1.721,0a1.117,1.117,0,0,1,1.107,1.107C2744.57-404.1,2744.567-403.809,2744.567-403.522Zm-1.138.837v-1.674h-1.665v1.674Z" transform="translate(-2735.568 415.334)" fill="#1d272b"/>
      </g>
    </g>
  </g>
</svg>
