<svg xmlns="http://www.w3.org/2000/svg" xmlns:xlink="http://www.w3.org/1999/xlink" width="81.543" height="81.543" viewBox="0 0 81.543 81.543">
  <defs>
    <radialGradient id="radial-gradient" cx="0.076" cy="0.019" r="1.465" gradientTransform="translate(0.001)" gradientUnits="objectBoundingBox">
      <stop offset="0" stop-color="#f6f6f7"/>
      <stop offset="0.477" stop-color="#f9f9fa"/>
      <stop offset="0.715" stop-color="#fff"/>
    </radialGradient>
  </defs>
  <g id="Grupo_134272" data-name="Grupo 134272" transform="translate(-343.082 -2578.304)">
    <g id="Grupo_91119" data-name="Grupo 91119" transform="translate(332.866 2577.088)">
      <g id="Grupo_18423" data-name="Grupo 18423" transform="translate(10.216 1.216)">
        <g id="Grupo_18421" data-name="Grupo 18421">
          <g id="Grupo_18420" data-name="Grupo 18420">
            <g id="Grupo_18419" data-name="Grupo 18419">
              <path id="Trazado_40936" data-name="Trazado 40936" d="M276.166,2186.491a40.771,40.771,0,1,1-40.771-40.77A40.771,40.771,0,0,1,276.166,2186.491Z" transform="translate(-194.623 -2145.721)" fill="#fff"/>
            </g>
          </g>
        </g>
        <path id="Trazado_40937" data-name="Trazado 40937" d="M275.978,2186.287a40.771,40.771,0,1,0-40.771,40.772A40.61,40.61,0,0,0,275.978,2186.287Z" transform="translate(-194.435 -2145.517)" fill="url(#radial-gradient)"/>
        <path id="Trazado_40938" data-name="Trazado 40938" d="M264.735,2184.708a31.121,31.121,0,1,0-31.121,31.12A31,31,0,0,0,264.735,2184.708Z" transform="translate(-192.719 -2143.802)" fill="none" stroke="#1d272d" stroke-miterlimit="10" stroke-width="4"/>
        <g id="Grupo_18422" data-name="Grupo 18422" transform="translate(7.223 22.89)">
          <path id="Trazado_40939" data-name="Trazado 40939" d="M270.742,2164.488a40.776,40.776,0,0,1-70.2,40.6,40.647,40.647,0,0,0,70.2-40.6Z" transform="translate(-200.545 -2164.488)" fill="#eceef0"/>
        </g>
      </g>
      <g id="bdzeja" transform="translate(-3733.758 439.223)">
        <g id="Grupo_133726" data-name="Grupo 133726" transform="translate(3766.005 -415.702)">
          <path id="Trazado_173432" data-name="Trazado 173432" d="M3789.244-387.48l-1.373,2.388c-1.222,2.129-2.418,4.274-3.672,6.383a6.732,6.732,0,0,1-6.554,3.494,6.9,6.9,0,0,1-6.314-5.885,6.962,6.962,0,0,1,.161-2.791c.022-.081.033-.165.045-.228a15.047,15.047,0,0,1-1.592-.545,6.427,6.427,0,0,1-3.905-5.458,6.723,6.723,0,0,1,1.459-4.831c1.148-1.543,2.223-3.142,3.348-4.7a5.769,5.769,0,0,1,3.966-2.516c.082-.012.162-.037.294-.069-.1-.076-.161-.127-.226-.172a6.5,6.5,0,0,1-2.942-6.762,6.553,6.553,0,0,1,5.136-5.352,6.488,6.488,0,0,1,4.7.709c.761.425,1.495.9,2.268,1.3a3.752,3.752,0,0,0,1.061.259c.066.012.171-.1.232-.173a8.477,8.477,0,0,1,5.392-3.159,8.478,8.478,0,0,1,8.64,3.983,8.323,8.323,0,0,1-.339,9.45.6.6,0,0,0-.111.523c.094.386.18.776.244,1.168a.378.378,0,0,0,.336.342,6.815,6.815,0,0,1,5.1,4.934,7.031,7.031,0,0,1-6.546,8.966c-1.365.048-2.729.089-4.094.148a7.125,7.125,0,0,1-4.533-1.3C3789.379-387.408,3789.328-387.432,3789.244-387.48Zm6.478.713c0-.044,0-.089,0-.133.758,0,1.517.025,2.274,0a6.139,6.139,0,0,0,5.1-2.813,6.364,6.364,0,0,0-4.107-9.83.451.451,0,0,1-.411-.4c-.12-.623-.272-1.241-.377-1.866a.748.748,0,0,1,.121-.515,7.861,7.861,0,0,0,1.586-5.721,7.9,7.9,0,0,0-9.564-6.783,7.838,7.838,0,0,0-4.638,3.026c-.087.115-.256.26-.372.247a3.752,3.752,0,0,1-1.746-.414c-.653-.42-1.339-.789-2.01-1.181a5.766,5.766,0,0,0-4.242-.737,5.723,5.723,0,0,0-4.62,4.36,5.7,5.7,0,0,0,1.9,6.056,18.487,18.487,0,0,0,1.619,1.1.572.572,0,0,1,.227.379c.009.194-.17.271-.355.3-.319.047-.635.113-.955.149a5.194,5.194,0,0,0-3.75,2.269c-1.211,1.686-2.406,3.384-3.615,5.072a5.976,5.976,0,0,0,4.088,9.393c.469.062.557.194.4.639a6.178,6.178,0,0,0-.271,3.056,6.232,6.232,0,0,0,5.152,5.164,6.223,6.223,0,0,0,6.438-3.069q2.589-4.5,5.168-9c.223-.388.387-.421.737-.143a5.69,5.69,0,0,0,3.009,1.315C3793.579-386.749,3794.653-386.789,3795.722-386.767Z" transform="translate(-3766.005 415.702)" fill="#1d272b"/>
          <path id="Trazado_173433" data-name="Trazado 173433" d="M3868.262-319.557c-.747-.174-1.45-.324-2.145-.5a3.353,3.353,0,0,1-.861-.339c-1.409-.838-2.809-1.693-4.209-2.547a1.557,1.557,0,0,1-.812-1.626,1.6,1.6,0,0,1,2.387-1.2c.763.423,1.53.842,2.26,1.318a4.986,4.986,0,0,0,2.219.779c1.233.14,2.46.334,3.686.526a1.788,1.788,0,0,1,.609.262,8.247,8.247,0,0,1,.661.495,3.529,3.529,0,0,1,1.062-3.755,3.446,3.446,0,0,1,2.607-.843,3.518,3.518,0,0,1,3.2,3.492,3.539,3.539,0,0,1-3.691,3.527,2.041,2.041,0,0,0,.159.17c.46.38.931.749,1.378,1.144a.925.925,0,0,1,.286.463q.655,3.072,1.274,6.151c.058.288.171.38.466.377.777-.008,1.555.017,2.332.039a2,2,0,0,1,2.034,2.009,2.021,2.021,0,0,1-2.009,2.015c-1.393.055-2.786.1-4.18.131a2.125,2.125,0,0,1-2.141-1.649c-.451-1.676-.754-3.381-1.04-5.091-.016-.1-.043-.193-.076-.334-.082.1-.133.148-.175.208-1.254,1.757-2.546,3.489-3.747,5.281-.758,1.131-1.382,2.353-2.061,3.536q-2.279,3.97-4.555,7.942a1.884,1.884,0,0,1-2.6.751,1.888,1.888,0,0,1-.663-2.622q2.988-5.333,5.978-10.665c.068-.122.134-.246.23-.423-.293.021-.532.035-.77.057-1.643.151-3.285.307-4.928.451a.716.716,0,0,0-.579.329c-.852,1.2-1.72,2.383-2.588,3.569a1.591,1.591,0,0,1-2.178.385,1.567,1.567,0,0,1-.432-2.206c1.214-1.73,2.446-3.449,3.674-5.169a1,1,0,0,1,.7-.43c1.827-.277,3.65-.575,5.477-.856a.666.666,0,0,0,.494-.321c1.021-1.518,2.054-3.028,3.083-4.541C3868.138-319.35,3868.184-319.431,3868.262-319.557Zm10.692,11.408v-.128c.692,0,1.384.007,2.075,0a1.884,1.884,0,0,0,.585-.1,1.312,1.312,0,0,0,.857-1.416,1.3,1.3,0,0,0-1.274-1.157c-.967-.028-1.934-.039-2.9-.057-.368-.007-.446-.07-.519-.424-.441-2.124-.878-4.25-1.332-6.371a.9.9,0,0,0-.291-.484q-2.559-2.036-5.14-4.044a.794.794,0,0,0-.356-.156q-2.053-.305-4.107-.593a3.457,3.457,0,0,1-1.419-.442c-.906-.569-1.844-1.088-2.774-1.62a.935.935,0,0,0-1.322.279.954.954,0,0,0,.375,1.343q2.125,1.294,4.256,2.579a1.587,1.587,0,0,0,.443.178c.884.212,1.771.413,2.656.62.425.1.513.315.271.672q-1.836,2.706-3.682,5.4a.682.682,0,0,1-.409.254c-1.916.316-3.836.613-5.752.927a.583.583,0,0,0-.347.206c-1.212,1.685-2.422,3.372-3.608,5.076a1.117,1.117,0,0,0-.145.72.806.806,0,0,0,.72.706.929.929,0,0,0,.955-.429c.907-1.25,1.812-2.5,2.729-3.747a.768.768,0,0,1,.416-.292c.37-.072.752-.084,1.129-.119l4.015-.372c.537-.05,1.073-.105,1.61-.143.351-.025.5.2.353.521-.031.069-.06.139-.1.2q-1.945,3.472-3.892,6.944-1.245,2.219-2.493,4.437a1.27,1.27,0,0,0-.149,1.089,1.123,1.123,0,0,0,1,.805,1.186,1.186,0,0,0,1.215-.67q2.574-4.489,5.153-8.974c.563-.976,1.123-1.957,1.742-2.9.645-.978,1.364-1.907,2.043-2.862s1.346-1.92,2.034-2.869a.593.593,0,0,1,.407-.224c.212,0,.267.2.3.39.038.243.082.486.125.728.314,1.781.584,3.57,1.075,5.316a1.455,1.455,0,0,0,1.565,1.193C3877.684-308.155,3878.319-308.149,3878.954-308.149Zm-.711-15.33a2.82,2.82,0,0,0-2.8-2.844,2.826,2.826,0,0,0-2.868,2.834,2.83,2.83,0,0,0,2.844,2.831A2.822,2.822,0,0,0,3878.243-323.48Z" transform="translate(-3849.345 332.049)" fill="#1d272b"/>
        </g>
      </g>
    </g>
  </g>
</svg>
