<svg xmlns="http://www.w3.org/2000/svg" width="213.789" height="178.435" viewBox="0 0 213.789 178.435">
  <g id="Grupo_134234" data-name="Grupo 134234" transform="translate(-396.607 -6944.564)">
    <path id="Trazado_168551" data-name="Trazado 168551" d="M3149.145-68.558c2.018,4.444-.362,9.733,1.187,14.821l-3.789.538,3.248.467a26.548,26.548,0,0,0,.034,4.156c.7,4.323-.44,7.334-4.263,10.171a22.833,22.833,0,0,0-2.652,34.234,23.216,23.216,0,0,0,34.475-.452c9.215-10.409,7.719-26.114-3.581-34.194-3.01-2.153-3.945-4.435-3.854-7.909.165-6.232-.064-12.475-.143-18.714-.023-1.863-.16-3.781,1.638-3.423-.318-.59-1.359-1.624-1.365-2.664-.1-16.614-.061-33.229-.048-49.844,0-2.151.38-4.209,3.084-4.241,2.733-.033,3.078,1.962,3.07,4.167q-.113,29.337-.166,58.674c0,5.3.09,10.6.428,15.878a5.909,5.909,0,0,0,2.04,3.746,29.481,29.481,0,0,1,8.883,34.116c-4.927,12.356-17.543,19.735-31.2,18.246a29.411,29.411,0,0,1-25.242-23.753c-2.009-11.4,1.54-20.819,10.145-28.526a7.074,7.074,0,0,0,2.215-4.628c.211-34.631.257-69.264.363-103.9.035-11.141,7.965-18.556,18.415-17.3a15.887,15.887,0,0,1,14.067,15.227c.139,4.473.005,8.954.053,13.432.022,2.127-.482,3.861-2.974,3.906-2.733.049-3.2-1.892-3.2-4.091,0-4.006.037-8.013-.008-12.019-.068-6.034-4.371-10.468-10.083-10.457s-10.071,4.4-10.082,10.468c-.047,26.631-.013,53.261-.049,79.891A25.677,25.677,0,0,1,3149.145-68.558Z" transform="translate(-2656.345 7113.592)" fill="#1d272b"/>
    <path id="Trazado_168552" data-name="Trazado 168552" d="M3298.559-69.747l-5.617.4c-1.995-8.07-3.667-15.632-5.789-23.066a41.506,41.506,0,0,0-4.325-9.63c-1.878-3.166-1.251-5.173,1.693-7.041,2.151-1.365,4.111-3.032,6.74-5L3252.7-130.916c1.587,14.2,3.082,27.592,4.66,41.717,2.433-1.728,4.417-3.05,6.3-4.5,2.438-1.874,4.4-1.656,6.295.861,6.769,8.991,9.732,19.21,9.921,30.325.015.877-.667,1.766-1.06,2.737-.12-.042.857.231.842.31a95.589,95.589,0,0,1-2.295,10.037c-.133.43-2.516.621-3.522.173a3.485,3.485,0,0,1-1.407-2.864c.178-2.325,1.1-4.6,1.238-6.92a45.259,45.259,0,0,0-7.6-28.6c-2.869,2.095-5.549,4.116-8.3,6.04-3.429,2.4-5.476,1.518-5.959-2.611q-2.8-24.019-5.534-48.045c-.081-.7-.1-1.411-.129-2.117-.19-4.171,1.49-5.411,5.368-3.767,7.256,3.077,14.47,6.252,21.7,9.4q11.971,5.214,23.929,10.459c4.421,1.945,4.626,4.117.737,7.083-2.9,2.208-7.358,3.976-8.2,6.807-.813,2.747,2.432,6.516,3.316,9.983,1.794,7.038,3.195,14.175,4.762,21.271.248,1.126.515,2.249.773,3.374Z" transform="translate(-2690.246 7104.752)" fill="#1d272b"/>
    <path id="Trazado_168553" data-name="Trazado 168553" d="M3038.325-18.409c2.082,5.458,2.077,5.452-2.945,9.062-1.513,1.088-2.991,2.225-5.261,3.918L3068.771,11.5c-1.613-14.228-3.131-27.635-4.687-41.362l-3.416,1.259c-.115-1.6-.215-2.975-.314-4.352-.161,5.183-2.339,8.75-5.243,8.59-2.439-.134-3.062-1.4-3.159-7.346-.171,2.025-.263,3.109-.354,4.194l-.971.465c-1.811-3.379-4.057-6.6-5.348-10.168-3.365-9.3-4.707-18.907-2.891-28.778.128-.693.048-1.631.468-2.024a32.067,32.067,0,0,1,3.555-2.591c.75,1.146,1.843,2.208,2.151,3.461.286,1.167-.281,2.536-.444,3.82a45.9,45.9,0,0,0,5.344,28.647c1.081,1.961,2.079,2.6,4.06,1.026,2.008-1.6,4.217-2.952,6.372-4.359,3.01-1.966,5.614-.837,6.011,2.752q2.77,25.061,5.391,50.139c.4,3.85-1.6,5.407-5.11,3.891Q3047.03,8.75,3023.958-1.449c-3.8-1.677-4.12-4.212-.732-6.5,3.978-2.683,7.111-7.015,12.822-6.689.677.039,1.5-2.5,2.258-3.847Z" transform="translate(-2624.275 7084.77)" fill="#1d272b"/>
    <path id="Trazado_168554" data-name="Trazado 168554" d="M3171.562-54.408c0,10.932.042,21.865-.018,32.8-.031,5.517-.4,11.036-.27,16.547a6.3,6.3,0,0,0,2.169,4.191c3.572,2.882,5.215,6.824,3.987,10.845a9.464,9.464,0,0,1-9.144,6.962A9.386,9.386,0,0,1,3159,10.166c-1.35-4.246.214-8.122,4.012-11.125a5.774,5.774,0,0,0,2.008-3.93c.051-9.482-.27-18.966-.25-28.448.025-12.465.261-24.929.381-37.394.021-2.136.234-4.359,2.864-4.429,2.864-.076,3.154,2.215,3.141,4.5-.027,5.417-.008,10.833-.008,16.25Zm-4.009,65.774,1.62-.051c.843-1.409,2.436-2.893,2.307-4.206-.117-1.193-2.294-3.22-3.231-3.049a5,5,0,0,0-3.366,3.36C3164.74,8.613,3166.585,10.041,3167.553,11.366Z" transform="translate(-2664.586 7086.102)" fill="#1d272b"/>
    <path id="Trazado_168555" data-name="Trazado 168555" d="M3039.236-35.834c-.585,2.125-.851,4.642-4.1,3.85a2.945,2.945,0,0,1-1.84-1.213c-12.775-27.118-13-53.826,3.781-79.37,3.919-5.966,9.922-10.568,15.007-15.758a4.434,4.434,0,0,1,2.323-1.522,22.758,22.758,0,0,1,4.449.493c-.393,1.507-.313,3.485-1.262,4.439-3.967,3.99-8.789,7.227-12.311,11.545-14.6,17.9-17.808,38.522-12.747,60.555,1.356,5.9,4.432,11.407,6.72,17.075A.524.524,0,0,0,3039.236-35.834Z" transform="translate(-2625.207 7102.123)" fill="#1d272b"/>
    <path id="Trazado_168556" data-name="Trazado 168556" d="M3305.664-41.152q-.237,2.948-.475,5.9l-.235.038q-.161-1.264-.322-2.529c.231,9.222-.265,18.315-3.882,26.974-5.126,12.272-12.379,22.94-23.264,30.868-.855.624-1.719,1.631-2.629,1.692a18.076,18.076,0,0,1-4.387-.738c.355-1.443.245-3.359,1.148-4.246,3.761-3.7,8.257-6.711,11.7-10.657,10.527-12.057,15.44-26.383,15.831-42.316.031-1.265,0-2.532,0-3.729,2.437-.464,4.48-.852,6.527-1.239Z" transform="translate(-2697.371 7076.142)" fill="#1d272b"/>
    <path id="Trazado_168557" data-name="Trazado 168557" d="M3115.163-69.3a77.179,77.179,0,0,1-9.492-.129c-1.221-.153-2.262-1.76-3.386-2.7,1-1.1,1.968-3.1,3.016-3.145,6.676-.283,13.377-.276,20.052.026,1,.045,1.91,2.138,2.861,3.283-1.064.883-2.06,2.4-3.206,2.527a93.218,93.218,0,0,1-9.846.121Z" transform="translate(-2648.115 7086.196)" fill="#1d272b"/>
    <path id="Trazado_168558" data-name="Trazado 168558" d="M3218.224-69.353c-2.933,0-5.866-.035-8.8.016-2.136.037-4.133-.629-3.745-2.957a4.777,4.777,0,0,1,3.454-2.992c6.2-.31,12.435-.311,18.637,0a4.787,4.787,0,0,1,3.379,3.032c.427,2.083-1.386,2.923-3.425,2.907C3224.559-69.375,3221.391-69.356,3218.224-69.353Z" transform="translate(-2678.383 7086.207)" fill="#1d272b"/>
    <path id="Trazado_168559" data-name="Trazado 168559" d="M3127.231-97.357c-2.326-.392-5.893,1.057-5.942-2.976-.05-4.152,3.525-3.214,6.054-3.223,2.547-.009,6.237-.936,6.311,3C3133.736-96.137,3129.741-97.786,3127.231-97.357Z" transform="translate(-2653.681 7094.447)" fill="#1d272b"/>
    <path id="Trazado_168560" data-name="Trazado 168560" d="M3127.472-41.266c-1.052,0-2.261.33-3.118-.08-1.185-.566-3.04-1.831-2.931-2.542.191-1.258,1.477-3.053,2.607-3.314a15.446,15.446,0,0,1,6.94.044c1.152.282,1.917,2.145,2.856,3.295a22.594,22.594,0,0,1-3.611,2.537c-.73.336-1.81-.091-2.734-.173Z" transform="translate(-2653.719 7078.023)" fill="#1d272b"/>
    <path id="Trazado_168561" data-name="Trazado 168561" d="M3211.1-97.48c-2-.187-5.521.864-5.509-2.974.011-3.666,3.4-3.056,5.915-3.126,1.051-.029,2.328-.362,3.106.1a20.639,20.639,0,0,1,3.393,3.177,18.921,18.921,0,0,1-3.378,2.737C3213.788-97.139,3212.565-97.48,3211.1-97.48Z" transform="translate(-2678.372 7094.466)" fill="#1d272b"/>
    <path id="Trazado_168562" data-name="Trazado 168562" d="M3211.712-41.278c-.584,0-1.167,0-1.75.006-2.223.023-4.547-.136-4.458-3.075.077-2.582,2.222-2.976,4.338-3,1.634-.016,3.442-.4,4.851.178,1.315.535,2.2,2.114,3.281,3.233a23.2,23.2,0,0,1-3.493,2.582C3213.732-40.978,3212.646-41.283,3211.712-41.278Z" transform="translate(-2678.344 7077.995)" fill="#1d272b"/>
    <path id="Trazado_168563" data-name="Trazado 168563" d="M3256.4,55.671c-1.568-2.028-3.125-3.171-3.014-4.118.14-1.175,1.658-2.187,2.581-3.27,1,.887,2.727,1.7,2.822,2.678C3258.9,52.127,3257.622,53.428,3256.4,55.671Z" transform="translate(-2692.367 7049.949)" fill="#1d272b"/>
    <path id="Trazado_168564" data-name="Trazado 168564" d="M3089.824-135.507c-2.1,1.233-3.35,2.557-4.372,2.4-1.078-.163-1.942-1.737-2.9-2.7,1.08-.948,2.073-2.475,3.269-2.655C3086.727-138.592,3087.892-137.011,3089.824-135.507Z" transform="translate(-2642.337 7104.641)" fill="#1d272b"/>
  </g>
</svg>
