<svg xmlns="http://www.w3.org/2000/svg" xmlns:xlink="http://www.w3.org/1999/xlink" width="222.94" height="222.945" viewBox="0 0 222.94 222.945">
  <defs>
    <radialGradient id="radial-gradient" cx="0.076" cy="0.019" r="1.465" gradientTransform="translate(0)" gradientUnits="objectBoundingBox">
      <stop offset="0" stop-color="#f6f6f7"/>
      <stop offset="0.477" stop-color="#f9f9fa"/>
      <stop offset="0.715" stop-color="#fff"/>
    </radialGradient>
  </defs>
  <g id="Grupo_134263" data-name="Grupo 134263" transform="translate(-390.969 -4233.743)">
    <path id="Trazado_40936" data-name="Trazado 40936" d="M417.562,2257.189a111.47,111.47,0,1,1-111.468-111.468A111.468,111.468,0,0,1,417.562,2257.189Z" transform="translate(196.346 2088.021)" fill="#fff"/>
    <path id="Trazado_40937" data-name="Trazado 40937" d="M415.569,2255.017A111.467,111.467,0,1,0,304.1,2366.492,111.031,111.031,0,0,0,415.569,2255.017Z" transform="translate(198.34 2090.195)" fill="url(#radial-gradient)"/>
    <path id="Trazado_40938" data-name="Trazado 40938" d="M389.579,2246.181a94.349,94.349,0,1,0-94.349,94.35A94.011,94.011,0,0,0,389.579,2246.181Z" transform="translate(207.429 2099.273)" fill="none" stroke="#008f85" stroke-miterlimit="10" stroke-width="5"/>
    <path id="Trazado_40939" data-name="Trazado 40939" d="M392.465,2164.488A111.483,111.483,0,0,1,200.545,2275.5a111.8,111.8,0,0,0,11.094,14.849,111.485,111.485,0,0,0,180.826-125.859Z" transform="translate(210.172 2131.838)" fill="#eceef0"/>
    <path id="Trazado_173917" data-name="Trazado 173917" d="M2420.465,167.546c1.867,1.211,3.692,2.4,5.524,3.578.586.377,1.194.719,1.79,1.081a3.193,3.193,0,0,1,1.622,3.292,3.143,3.143,0,0,1-2.21,2.719,52.178,52.178,0,0,1-15.594,3.129,1.921,1.921,0,0,0-1.5.765c-3.85,4.46-7.739,8.887-11.617,13.323-.205.234-.422.458-.719.779.848.6,1.619,1.2,2.432,1.725,1.941,1.258,3.888,2.507,5.859,3.719a3.357,3.357,0,0,1,1.829,3.381,3.236,3.236,0,0,1-2.358,2.82,53.965,53.965,0,0,1-19.516,3.049,12.767,12.767,0,0,1-2.559-.129,3.869,3.869,0,0,0-3.436,1.042,129.982,129.982,0,0,1-26.1,15.675c-.145.064-.294.12-.436.19-.6.291-1.2.491-1.75-.07-.517-.527-.327-1.1-.067-1.674,1.362-3,2.651-6.035,4.1-8.993,2.044-4.182,4.2-8.308,6.365-12.557-.2-.13-.442-.309-.7-.465a54.718,54.718,0,0,1-11.9-9.694,3.323,3.323,0,0,1-.04-4.906,3.275,3.275,0,0,1,4.809.363,48.606,48.606,0,0,0,10.187,8.354c.295.18.6.346.948.548.152-.2.293-.359.4-.538,3.115-5.115,6.215-10.239,9.354-15.34a1.221,1.221,0,0,0,0-1.45,38.378,38.378,0,0,1-5.215-16.437,19.877,19.877,0,0,1,.052-3.13,2.974,2.974,0,0,1,2.254-2.665,3.055,3.055,0,0,1,3.3.879,51.556,51.556,0,0,0,8.233,7.158c.386.264.78.516,1.222.808,1.058-1.47,2.061-2.885,3.086-4.284,2.658-3.628,5.306-7.265,8.01-10.858a1.359,1.359,0,0,0,.107-1.742,37.157,37.157,0,0,1-4.763-15.6,22.675,22.675,0,0,1,.033-2.942,3.118,3.118,0,0,1,2.174-2.949,3.228,3.228,0,0,1,3.633.954,49.5,49.5,0,0,0,8.962,7.618c.287.189.585.363.922.57l.71-.812c3.7-4.256,7.391-8.525,11.125-12.752a.95.95,0,0,0,.077-1.375,40.738,40.738,0,0,1-5.77-14.981c-.015-.094-.038-.186-.052-.28-.334-2.155-.324-2.21-2.53-2.638-14.135-2.738-26.346.77-36.149,11.5a33.449,33.449,0,0,0-8.379,19.5c-.092.85-.139,1.705-.185,2.56-.039.719-.308,1.252-1.09,1.3s-1.141-.418-1.253-1.14a38.5,38.5,0,0,1-.221-10.994c2.117-15.93,10.5-27.386,25.106-33.975,11.314-5.1,22.8-4.709,34.085.4,2.75,1.245,4.427,3.374,4.288,6.565a6.974,6.974,0,0,1-5.843,6.259c-.372.07-.744.134-1.264.227a33.692,33.692,0,0,0,4.429,11.648,17.985,17.985,0,0,1,1.288-1.568q6.432-6.2,12.893-12.375c.069-.066.131-.165.212-.186.514-.137,1.113-.47,1.523-.314a1.573,1.573,0,0,1,.616,1.3c-.229,3.286-.442,6.579-.855,9.845a100.561,100.561,0,0,1-3.566,16.323,1.024,1.024,0,0,0,.454,1.268,93.433,93.433,0,0,0,12.466,8.688,3.188,3.188,0,0,1,1.679,3.172,3.136,3.136,0,0,1-2.2,2.826c-.059.023-.12.039-.18.061a52.523,52.523,0,0,1-18.546,3.153,1.454,1.454,0,0,0-1.495.939c-2.507,4.654-5.072,9.278-7.618,13.911C2420.8,166.948,2420.663,167.191,2420.465,167.546Zm-11.726,11.536a46.255,46.255,0,0,0,11.146-1.174c2.125-.487,4.21-1.161,6.289-1.828a1.422,1.422,0,0,0,.873-.934c.026-.341-.424-.744-.714-1.076a2.587,2.587,0,0,0-.639-.405,81.641,81.641,0,0,1-18.868-15.056,44.891,44.891,0,0,1-9.293-14.907,42.081,42.081,0,0,1-1.431-5.41,1.516,1.516,0,0,1,.542-1.32c.339-.186.952.105,1.437.224.138.034.245.194.365.3a47.18,47.18,0,0,0,25.945,11.667,50.387,50.387,0,0,0,23.121-2.561c.438-.157,1.026-.612,1.06-.973s-.447-.913-.839-1.181c-3.083-2.114-6.294-4.05-9.282-6.287-6.493-4.861-12.222-10.479-16.293-17.6-3.065-5.36-5.178-11-4.927-17.312.025-.625-.206-1.1-.857-1.15-.727-.059-1.049.471-1.033,1.092a37.819,37.819,0,0,0,.262,4.641c1.067,7.176,4.266,13.417,8.617,19.115a74.337,74.337,0,0,0,18.583,16.7c.519.342,1.035.665.936,1.4-.105.781-.724.969-1.36,1.118a49.241,49.241,0,0,1-23.168.085,46.819,46.819,0,0,1-23.144-13.711c-.448-.469-.849-1.141-1.655-.812s-.691,1.107-.632,1.736a50.284,50.284,0,0,0,.763,6.4c1.967,8.676,6.743,15.769,12.825,22.065a83.6,83.6,0,0,0,14,11.361,2.074,2.074,0,0,1,.789,1.348c.073.674-.554.933-1.148,1.036-2.433.422-4.854.974-7.3,1.217a45.932,45.932,0,0,1-27.921-5.814,52.341,52.341,0,0,1-11.631-9.259,1.542,1.542,0,0,0-1.256-.483c-.323.13-.584.771-.616,1.208a24.581,24.581,0,0,0,1.028,8.349c2.12,7.674,6.37,14.1,11.769,19.827a80.263,80.263,0,0,0,14.75,12.081c.53.346,1.1.774.811,1.427a2,2,0,0,1-1.206.992,46.826,46.826,0,0,1-46.683-13.769c-.495-.522-1.016-1-1.682-.372-.6.574-.256,1.135.219,1.647,14.9,16.033,35.206,19.006,52.968,13.122.5-.167,1.181-.654,1.242-1.071.056-.379-.53-1.01-.982-1.283a93.323,93.323,0,0,1-14-10.128,53.763,53.763,0,0,1-12.988-16.465,33.774,33.774,0,0,1-2.975-8.893,1.251,1.251,0,0,1,.541-1.483,1.209,1.209,0,0,1,1.544.328c.091.088.193.164.289.247A47.1,47.1,0,0,0,2408.74,179.082Zm10.869-73.537a4.837,4.837,0,0,0,4.857-3.288c.578-1.845-.248-3.68-2.2-4.878a6.854,6.854,0,0,0-.755-.4,39.336,39.336,0,0,0-53.594,22.61c-.808,2.258-1.333,4.617-1.989,6.93l.3.122a37.031,37.031,0,0,1,18.984-20.239c8.889-4.265,18.174-4.8,27.676-2.533.15-1.041.15-1.041-.606-1.306-.3-.1-.6-.2-.9-.314a3.547,3.547,0,0,1-2.19-4.463,3.468,3.468,0,0,1,4.382-2.319c2.246.666,4.475,1.4,6.694,2.15a3.544,3.544,0,0,1,2.517,3.531,3.429,3.429,0,0,1-2.625,3.327C2419.54,104.658,2419.407,104.934,2419.609,105.546Zm-55.35,99.989a196.846,196.846,0,0,0-9.227,18.765,124.358,124.358,0,0,0,23.282-14.084A52.2,52.2,0,0,1,2364.259,205.534Zm74.125-96.492a3.653,3.653,0,0,0-.486.3q-6.017,5.875-12.036,11.749c-.464.451-.245.783.053,1.133q3.441,4.05,6.9,8.084a18.032,18.032,0,0,0,1.46,1.35A106.36,106.36,0,0,0,2438.383,109.043Zm-45.329,62.707c.135.167.164.241.214.26a40.342,40.342,0,0,0,11.062,2.544,1.178,1.178,0,0,0,.828-.454c.767-.966,1.49-1.967,2.212-2.969.844-1.172,1.668-2.358,2.41-3.408l-8.157-7.763Zm6.875,9.077a4.2,4.2,0,0,0-.434-.213c-3.274-.956-6.555-1.89-9.817-2.885-.537-.164-.736.023-.981.4-1.165,1.773-2.32,3.552-3.527,5.3a.831.831,0,0,0,.118,1.226c1.289,1.394,2.547,2.817,3.84,4.207.549.59,1.155,1.127,1.835,1.786Zm13.537-18.624,6.281-11.2c-2.921-.968-5.674-1.891-8.441-2.771a.916.916,0,0,0-.756.31c-1.375,1.7-2.731,3.407-4.045,5.151a1,1,0,0,0,.007.938,27.567,27.567,0,0,0,2.013,2.4C2410.1,158.712,2411.7,160.36,2413.466,162.2Zm-26.518,6.9c1.242.625,2.271,1.179,3.337,1.648a.9.9,0,0,0,.822-.249q4.558-6.184,9.053-12.414c.125-.173.252-.519.168-.645-.743-1.112-1.534-2.192-2.4-3.41ZM2373.5,202.2c.9.261,1.605.427,2.283.677a1.692,1.692,0,0,0,1.89-.386c2.6-2.275,5.23-4.506,7.846-6.759.207-.178.381-.4.587-.612l-5.083-5.34Zm35.642-62.351c1.162.571,2.141,1.007,3.074,1.526.65.361,1.033.215,1.5-.337,2.873-3.375,5.785-6.716,8.684-10.068.326-.377.653-.753,1-1.153l-2.591-3.392Zm-32.288,44.384-9.4,15.5,3.788,1.667c2.727-4.463,5.375-8.784,7.994-13.122a.925.925,0,0,0-.056-.814C2378.49,186.442,2377.744,185.457,2376.856,184.235Zm18.983,10.562a159.3,159.3,0,0,0,11.8-13.326c-1.665-.121-3.11-.253-4.558-.308a1.288,1.288,0,0,0-.849.443c-1,1.1-1.926,2.268-2.924,3.37-2.166,2.39-4.359,4.755-6.611,7.207Zm19.382-52.032c2.544.627,4.8,1.2,7.064,1.712.17.038.542-.279.632-.506q1.922-4.859,3.772-9.745a.925.925,0,0,0-.056-.77c-.511-.624-1.094-1.19-1.721-1.853Zm.093,20.768,3.366,2.673,7.953-14.4c-1.441-.18-2.567-.29-3.681-.472a.958.958,0,0,0-1.183.61c-.942,1.861-1.914,3.708-2.932,5.528C2417.713,159.48,2416.527,161.453,2415.314,163.533Zm-35.492,40.3c1.978.173,3.671.348,5.37.445a1.6,1.6,0,0,0,.985-.429c1.2-1.023,2.374-2.089,3.558-3.136.461-.407.928-.807,1.437-1.248l-3.23-2.708Zm48.936-68.242-3.634,9.376c1.382.091,2.662.2,3.944.236.189.006.482-.277.569-.491q1.146-2.81,2.215-5.649a.857.857,0,0,0-.079-.747C2430.82,137.407,2429.821,136.543,2428.759,135.594Zm-41.827,40.969-3.646-1.955c-.771,1.137-1.519,2.225-2.244,3.328a.584.584,0,0,0-.041.509c.715,1.171,1.458,2.326,2.279,3.621Zm17.708-24.319,4.038-5.151c-1.157-.625-2.17-1.207-3.22-1.711a.9.9,0,0,0-.821.194c-.709.8-1.368,1.655-2,2.519a.847.847,0,0,0-.121.733C2403.158,149.936,2403.862,151.012,2404.639,152.244Zm3.052,22.441c1.69,0,3.228.01,4.765-.013a.8.8,0,0,0,.55-.294c.652-.885,1.272-1.794,1.938-2.744l-3.258-2.534Zm31.671-30.172.055-.289-5.458-4.052-2.011,5.164Zm-19.832-42.331.333.1c.2-.412.575-.831.558-1.234a1.442,1.442,0,0,0-.689-1.1c-2.289-.814-4.606-1.553-6.932-2.257a1,1,0,0,0-1.351.84,1.7,1.7,0,0,0,.569,1.4c.875.447,1.835,1.048,2.879.171a2.221,2.221,0,0,1,1.259-.327A3.322,3.322,0,0,1,2419.53,102.181ZM2396.369,203.6l.026-.266L2393,200.877l-3.542,3.252.11.258Zm6.608-59.713-3.648-2.593-.193.132,1.918,4.847ZM2379.56,175.94l1.736-2.563-3.45-2.459-.212.122Zm36.367-1.639,2.211-.4-1.31-.894Z" transform="translate(-1896.802 4184.004)" fill="#1d272b"/>
  </g>
</svg>
