<svg xmlns="http://www.w3.org/2000/svg" xmlns:xlink="http://www.w3.org/1999/xlink" width="81.543" height="81.543" viewBox="0 0 81.543 81.543">
  <defs>
    <radialGradient id="radial-gradient" cx="0.076" cy="0.019" r="1.465" gradientTransform="translate(0.001)" gradientUnits="objectBoundingBox">
      <stop offset="0" stop-color="#f6f6f7"/>
      <stop offset="0.477" stop-color="#f9f9fa"/>
      <stop offset="0.715" stop-color="#fff"/>
    </radialGradient>
  </defs>
  <g id="Grupo_134274" data-name="Grupo 134274" transform="translate(-758.082 -2578.303)">
    <g id="Grupo_128859" data-name="Grupo 128859" transform="translate(758.082 2578.303)">
      <g id="Grupo_18421" data-name="Grupo 18421">
        <g id="Grupo_18420" data-name="Grupo 18420">
          <g id="Grupo_18419" data-name="Grupo 18419">
            <path id="Trazado_40936" data-name="Trazado 40936" d="M276.166,2186.491a40.771,40.771,0,1,1-40.771-40.77A40.771,40.771,0,0,1,276.166,2186.491Z" transform="translate(-194.623 -2145.721)" fill="#fff"/>
          </g>
        </g>
      </g>
      <path id="Trazado_40937" data-name="Trazado 40937" d="M275.978,2186.287a40.771,40.771,0,1,0-40.771,40.772A40.61,40.61,0,0,0,275.978,2186.287Z" transform="translate(-194.435 -2145.517)" fill="url(#radial-gradient)"/>
      <path id="Trazado_40938" data-name="Trazado 40938" d="M264.735,2184.708a31.121,31.121,0,1,0-31.121,31.12A31,31,0,0,0,264.735,2184.708Z" transform="translate(-192.719 -2143.802)" fill="none" stroke="#1d272d" stroke-miterlimit="10" stroke-width="4"/>
      <g id="Grupo_18422" data-name="Grupo 18422" transform="translate(7.223 22.89)">
        <path id="Trazado_40939" data-name="Trazado 40939" d="M270.742,2164.488a40.776,40.776,0,0,1-70.2,40.6,40.647,40.647,0,0,0,70.2-40.6Z" transform="translate(-200.545 -2164.488)" fill="#eceef0"/>
      </g>
    </g>
    <g id="Q9BjU3" transform="translate(-3464.481 3594.045)">
      <g id="Grupo_133728" data-name="Grupo 133728" transform="translate(4239.766 -997.044)">
        <path id="Trazado_173441" data-name="Trazado 173441" d="M4243.238-880.216a7.405,7.405,0,0,1-.333-1.128,2.4,2.4,0,0,1,2.253-2.7c2.025-.137,4.05-.29,6.075-.437.029,0,.057-.009.111-.018,0-.076.013-.154.013-.231q0-3.742,0-7.483a2.4,2.4,0,0,1,2.494-2.509q1.159,0,2.318,0a2.4,2.4,0,0,1,2.345,1.7.519.519,0,0,0,.167.24c.341.256.695.5,1.036.751a.26.26,0,0,0,.315.027c.894-.448,1.791-.89,2.687-1.333a.907.907,0,0,1,.261-.115c.294-.038.411-.227.52-.48a4.907,4.907,0,0,1,1.212-1.638c1.3-1.211,2.618-2.412,3.928-3.617q.8-.74,1.607-1.48c.26-.239.446-.23.674.029.516.584,1.036,1.166,1.542,1.759a.679.679,0,0,1,.145.374,7.06,7.06,0,0,1-.012.794.359.359,0,0,1-.4.389c-.2,0-.4,0-.6,0a.439.439,0,0,0-.083.03c0,.164,0,.344,0,.524-.007.307-.146.437-.456.433-.544-.006-.544-.006-.546.528,0,.418-.147.54-.561.471-.144-.024-.288-.045-.475-.074,0,.213.007.4,0,.592-.014.321-.185.458-.507.42-.181-.021-.363-.037-.578-.058.012.2.026.38.034.56.014.334-.128.477-.459.462l-.573-.027a.665.665,0,0,0-.092.013c-.016.242-.038.488-.047.734a.383.383,0,0,1-.23.391.4.4,0,0,1-.456-.13c-.247-.25-.5-.491-.768-.748-.216.183-.443.369-.66.566a.21.21,0,0,0-.029.17,1.619,1.619,0,0,1-.962,2.028q-1.516.74-3.029,1.485a2.116,2.116,0,0,1-2.22-.109c-.078-.05-.161-.094-.281-.164,0,.31-.01.579.009.847,0,.053.113.118.186.145.813.3,1.627.6,2.442.9a1.71,1.71,0,0,1,1.26,1.844.748.748,0,0,0,.011.091c.113-.005.228-.008.341-.017l7.15-.553c1.416-.109,2.83-.237,4.247-.321a3.869,3.869,0,0,1,4.112,3.2,5.43,5.43,0,0,1,.062.9c.008.8,0,1.6,0,2.442h.269q3.51,0,7.02,0a1.929,1.929,0,0,1,1.8,2.8,1.857,1.857,0,0,1-1.711,1.056c-.521.013-1.042,0-1.593,0v.249q0,5.231,0,10.463c0,.125,0,.251-.005.375a.327.327,0,0,1-.329.346q-.772.017-1.545,0c-.211,0-.331-.168-.332-.414,0-.861,0-1.722,0-2.583q0-4.095,0-8.19v-.234H4258.75v1.418c0,2.369,0,4.739,0,7.108a2.144,2.144,0,0,1-2.3,2.189,2.031,2.031,0,0,1-1.1-.4.2.2,0,0,0-.284-.008,2.052,2.052,0,0,1-2.25.166,2.047,2.047,0,0,1-1.155-1.937q0-4.128,0-8.256v-.277h-3.046v.3q0,5.331,0,10.662c0,.346-.115.461-.462.461-.427,0-.854,0-1.28,0-.342,0-.46-.124-.46-.469q0-4.746,0-9.492c0-.085,0-.169,0-.314-.1.092-.164.142-.22.194q-1.141,1.041-2.282,2.083c-.272.248-.442.239-.687-.04q-1.649-1.87-3.294-3.744a.389.389,0,0,1,.026-.632l3.229-3.229c.046-.046.088-.1.132-.144Zm3.144-.26a1.455,1.455,0,0,0-.157-1.9.376.376,0,0,1-.029-.551.375.375,0,0,1,.549.034,2.164,2.164,0,0,1,.639,1.808,2.245,2.245,0,0,1-.464,1.156.366.366,0,0,0,.4.225q6.147-.006,12.294,0h.269l-.1-.161a1.693,1.693,0,0,1,1.229-2.633c1.891-.224,3.788-.4,5.682-.6q2.326-.242,4.653-.481c.651-.067,1.3-.139,1.954-.195a.359.359,0,0,1,.405.488.423.423,0,0,1-.408.249q-.8.076-1.6.158l-7.549.783c-1.009.1-2.019.207-3.028.317a.973.973,0,0,0-.861.769.929.929,0,0,0,.479,1.045,2.545,2.545,0,0,0,.962.252q7.9.023,15.8.01c.057,0,.113-.01.192-.017v-.249q0-1.17,0-2.34a3.159,3.159,0,0,0-3.426-3.238c-.829.051-1.658.123-2.486.187q-4.707.366-9.415.739a.6.6,0,0,0-.334.158,1.544,1.544,0,0,1-1.25.5,9.556,9.556,0,0,1-1.252-.321.782.782,0,0,0-.232-.057c-.374.024-.746.064-1.12.092l-8.87.643c-1.379.1-2.759.193-4.138.3a1.617,1.617,0,0,0-1.392.946,1.634,1.634,0,0,0,.071,1.609c.274-.28.524-.538.777-.794.313-.316.478-.311.783.02Zm2.156,3.807.014.054h37.117c.081,0,.162,0,.243-.006a1.19,1.19,0,0,0,.971-1.681,1.191,1.191,0,0,0-1.175-.7c-2.442.012-4.884.032-7.325.034q-8.377.008-16.753,0h-13.851l1.168,1.269c.247.267.237.438-.037.689C4248.784-876.9,4248.661-876.783,4248.537-876.669Zm9.272-12.06.056-.033a.612.612,0,0,0,.011-.084c0-1.177.016-2.354,0-3.531a1.645,1.645,0,0,0-1.658-1.609q-1.2-.005-2.405,0a1.658,1.658,0,0,0-1.716,1.712q-.008,3.774,0,7.547a1.773,1.773,0,0,0,.019.181l5.434-.393c-.038-.041-.046-.057-.058-.061-.082-.031-.164-.066-.249-.09a3.52,3.52,0,0,1-1.536-.952c-.872-.874-1.765-1.728-2.65-2.59-.2-.193-.233-.42-.084-.581s.388-.16.6.046q1.206,1.18,2.411,2.362a3.65,3.65,0,0,0,1.4,1c1.013.329,2.015.695,3.021,1.044a.987.987,0,0,0,1.319-.572.985.985,0,0,0-.665-1.273q-1.406-.519-2.812-1.038a2.68,2.68,0,0,1-1.167-.8c-.809-.981-1.606-1.972-2.4-2.962a.385.385,0,0,1,0-.57c.179-.146.386-.109.571.118.637.78,1.269,1.565,1.9,2.346C4257.369-889.254,4257.59-888.992,4257.81-888.728Zm-5.423,12.86v8.45c0,.059,0,.118,0,.177a1.412,1.412,0,0,0,1.446,1.362,1.42,1.42,0,0,0,1.379-1.479q0-3.817,0-7.634v-.876Zm3.557,0v.262c0,2.757,0,5.515-.005,8.272a2.715,2.715,0,0,1-.128.776c-.123.4-.112.454.3.591a1.609,1.609,0,0,0,.386.083,1.419,1.419,0,0,0,1.516-1.514q.005-3.728,0-7.456c0-.335,0-.67,0-1.014Zm-12.35,2.714,4.635-4.234-3.2-3.461-4.367,4.37Zm26.954-26.783-5.405,4.986,1.414,1.333c0-.006.011-.054.015-.1.032-.437.144-.53.588-.492.159.013.318.019.5.03-.011-.218-.023-.407-.03-.6-.012-.311.127-.453.436-.435.218.012.436.034.675.054.013-.236.021-.455.039-.673a.366.366,0,0,1,.466-.362l.507.079a.332.332,0,0,0,.03-.067c.006-.169.007-.338.017-.507a.36.36,0,0,1,.407-.387c.182,0,.364,0,.585,0,0-.2-.007-.379,0-.56.015-.316.142-.427.461-.424.2,0,.4,0,.657,0-.041-.174-.032-.344-.112-.441C4271.4-898.986,4270.979-899.449,4270.547-899.939Zm-7.323,7.192c-.038.015-.092.033-.143.058-1,.491-1.991.981-2.983,1.478a.484.484,0,0,1-.57-.046c-.284-.217-.583-.415-.921-.653a10.874,10.874,0,0,1-.008,1.142.845.845,0,0,0,.575,1.025,1.11,1.11,0,0,1,.188.114,1.329,1.329,0,0,0,1.346.057l1.546-.753c.562-.274,1.124-.546,1.683-.825a.764.764,0,0,0,.464-.854c-.083.069-.16.134-.238.2-.269.218-.515.172-.654-.145C4263.4-892.206,4263.321-892.474,4263.225-892.748Zm19.523,16.881v10.682h.718v-10.682Zm-34.887.015a.835.835,0,0,0-.726.647q0,4.94,0,9.88a1,1,0,0,0,.017.135h.71Zm17.437-17.894-.682-.622a2.24,2.24,0,0,0-.6,1.71Z" transform="translate(-4239.766 905.082)" fill="#1d272b"/>
        <path id="Trazado_173442" data-name="Trazado 173442" d="M4506.806-997.043h3.067c.416,0,.519.1.519.526,0,1.427.016,2.854-.008,4.281a7.1,7.1,0,0,1-.1,1.794,3.57,3.57,0,0,1-3.548,2.659,3.515,3.515,0,0,1-3.376-2.75,6.753,6.753,0,0,1-.07-1.268c-.015-.639-.014-1.279-.024-1.918-.015-.956-.033-1.912-.049-2.868-.005-.317.134-.453.481-.454C4504.732-997.045,4505.769-997.043,4506.806-997.043ZM4504-992.481h5.643v-3.811H4504Zm.027.76a2.8,2.8,0,0,0,1.328,2.8,2.832,2.832,0,0,0,3.189-.173,2.756,2.756,0,0,0,1.063-2.626Z" transform="translate(-4491.583 997.044)" fill="#1d272b"/>
        <path id="Trazado_173443" data-name="Trazado 173443" d="M5142.481-582.424a3.567,3.567,0,0,1-3.541-3.613,3.555,3.555,0,0,1,3.6-3.521,3.569,3.569,0,0,1,3.537,3.6A3.575,3.575,0,0,1,5142.481-582.424Zm-2.807-3.557a2.843,2.843,0,0,0,2.868,2.826,2.854,2.854,0,0,0,2.8-2.873,2.843,2.843,0,0,0-2.806-2.8A2.83,2.83,0,0,0,5139.674-585.981Z" transform="translate(-5099.242 607.549)" fill="#1d272b"/>
        <path id="Trazado_173444" data-name="Trazado 173444" d="M4285.221-383.192a1.317,1.317,0,0,1,.273.173q.808.859,1.6,1.731a.354.354,0,0,1-.013.546q-.461.443-.938.869a.35.35,0,0,1-.545-.029q-.814-.869-1.617-1.747a.347.347,0,0,1,.011-.528c.312-.3.631-.595.955-.883A1.166,1.166,0,0,1,4285.221-383.192Zm1.1,2.154-1.15-1.242-.411.392,1.145,1.234Z" transform="translate(-4281.92 410.293)" fill="#1d272b"/>
        <path id="Trazado_173445" data-name="Trazado 173445" d="M4342.719-422.142c.012.209.027.382.031.554a.353.353,0,0,1-.321.4.349.349,0,0,1-.4-.324c-.055-.562-.106-1.126-.125-1.691a.485.485,0,0,1,.226-.332c.151-.1.309-.017.43.114q.777.842,1.556,1.682c.07.075.142.149.207.228a.372.372,0,0,1-.009.548.375.375,0,0,1-.532-.053c-.312-.331-.62-.667-.93-1C4342.819-422.054,4342.781-422.085,4342.719-422.142Z" transform="translate(-4337.396 448.898)" fill="#1d272b"/>
      </g>
    </g>
  </g>
</svg>
