<svg xmlns="http://www.w3.org/2000/svg" xmlns:xlink="http://www.w3.org/1999/xlink" width="79.155" height="79.153" viewBox="0 0 79.155 79.153">
  <defs>
    <radialGradient id="radial-gradient" cx="0.077" cy="0.019" r="1.465" gradientTransform="matrix(1, 0, 0, -1, 0, 9.666)" gradientUnits="objectBoundingBox">
      <stop offset="0" stop-color="#f4f4f5"/>
      <stop offset="0.477" stop-color="#f7f8fa"/>
      <stop offset="0.715" stop-color="#fff"/>
    </radialGradient>
  </defs>
  <g id="Grupo_134251" data-name="Grupo 134251" transform="translate(-269.851 -4452.402)">
    <g id="Group_18421" data-name="Group 18421" transform="translate(269.851 4452.402)">
      <g id="Group_18420" data-name="Group 18420">
        <g id="Group_18419" data-name="Group 18419">
          <path id="Path_40936" data-name="Path 40936" d="M201.954,554.407a39.577,39.577,0,1,1-39.578-39.575h0A39.576,39.576,0,0,1,201.954,554.407Z" transform="translate(-122.8 -514.832)" fill="#fff"/>
        </g>
      </g>
    </g>
    <path id="Path_40937" data-name="Path 40937" d="M201.953,554.407a39.42,39.42,0,1,0,0,.312Z" transform="translate(147.051 3937.57)" fill="url(#radial-gradient)"/>
    <path id="Path_40938" data-name="Path 40938" d="M190.028,551.858a30.209,30.209,0,1,0-30.209,30.209h0a30.1,30.1,0,0,0,30.209-29.984Z" transform="translate(149.729 3940.252)" fill="none" stroke="#1d272b" stroke-miterlimit="10" stroke-width="2"/>
    <g id="Group_18422" data-name="Group 18422" transform="translate(276.863 4474.622)">
      <path id="Path_40939" data-name="Path 40939" d="M195.973,530.78a39.581,39.581,0,0,1-68.14,39.411,39.456,39.456,0,0,0,68.14-39.411Z" transform="translate(-127.833 -530.78)" fill="#e7e9eb"/>
    </g>
    <path id="Trazado_170415" data-name="Trazado 170415" d="M1896.394-92.719q0,3.661,0,7.322a.5.5,0,0,0,.266.5,8.771,8.771,0,0,1,4.176,6.467,8.744,8.744,0,0,1-2.087,7.048,8.617,8.617,0,0,1-5.085,2.993,8.757,8.757,0,0,1-7.905-2.21,8.64,8.64,0,0,1-2.879-7.33,8.746,8.746,0,0,1,4.2-6.96.52.52,0,0,0,.269-.509c-.005-4.8-.02-9.6,0-14.4a4.291,4.291,0,0,1,2.514-4.054,4.315,4.315,0,0,1,4.781.477,4.27,4.27,0,0,1,1.746,3.538Q1896.4-96.274,1896.394-92.719Zm-2.265.87v-.212c0-2.594.008-5.189-.008-7.783a2.273,2.273,0,0,0-2.077-2.2,2.2,2.2,0,0,0-2.367,1.9c-.094,1.017-.069,2.046-.07,3.071q-.006,6.6.01,13.194a.361.361,0,0,1-.289.394,6.042,6.042,0,0,0-2.145,1.385,6.636,6.636,0,0,0-1.9,6.353,6.8,6.8,0,0,0,7.754,5.174,6.759,6.759,0,0,0,5.477-7.877,6.546,6.546,0,0,0-4.083-5.02.412.412,0,0,1-.307-.452C1894.132-86.565,1894.129-89.207,1894.129-91.848Z" transform="translate(-1583.705 4578.819)" fill="#1d272b"/>
    <path id="Trazado_170416" data-name="Trazado 170416" d="M2109.462-53.654c-.754,0-1.508.006-2.262,0a1.154,1.154,0,0,1-1.123-.887,1.114,1.114,0,0,1,.734-1.319,1.792,1.792,0,0,1,.522-.056q2.191-.006,4.382,0a1.083,1.083,0,0,1,1.116,1.142,1.1,1.1,0,0,1-1.108,1.122C2110.97-53.646,2110.216-53.653,2109.462-53.654Z" transform="translate(-1791.122 4533.815)" fill="#1d272b"/>
    <path id="Trazado_170417" data-name="Trazado 170417" d="M2109.622,73.556c-.766,0-1.532.01-2.3,0a1.041,1.041,0,0,1-1.094-1.079,1.084,1.084,0,0,1,1.085-1.175q2.3-.023,4.6,0a1.132,1.132,0,0,1-.027,2.262c-.754.006-1.508,0-2.262,0Z" transform="translate(-1791.281 4415.608)" fill="#1d272b"/>
    <path id="Trazado_170418" data-name="Trazado 170418" d="M2109.633,10c-.731,0-1.462,0-2.192,0a1.091,1.091,0,0,1-1.209-1.123,1.085,1.085,0,0,1,1.194-1.137q2.211-.006,4.42,0a1.087,1.087,0,0,1,1.125.876,1.1,1.1,0,0,1-.634,1.279,1.592,1.592,0,0,1-.582.1C2111.047,10.011,2110.34,10,2109.633,10Z" transform="translate(-1791.281 4474.659)" fill="#1d272b"/>
    <path id="Trazado_170419" data-name="Trazado 170419" d="M2124.96,137.5c-.554,0-1.108,0-1.661,0a1.132,1.132,0,1,1,.007-2.263q1.679,0,3.357,0a1.131,1.131,0,0,1-.007,2.263C2126.09,137.5,2125.525,137.5,2124.96,137.5Z" transform="translate(-1806.063 4356.193)" fill="#1d272b"/>
    <path id="Trazado_170420" data-name="Trazado 170420" d="M1937.376,80.379c.55.23,1.1.409,1.6.677a5.651,5.651,0,1,1-6.851,8.821,5.651,5.651,0,0,1,2.731-9.363c.241-.063.248-.189.248-.377q0-3.82,0-7.64a1.128,1.128,0,0,1,.756-1.119,1.064,1.064,0,0,1,1.259.371,1.722,1.722,0,0,1,.246.883c.02,2.534.012,5.069.013,7.6Z" transform="translate(-1628.074 4415.59)" fill="#1d272b"/>
  </g>
</svg>
