<svg xmlns="http://www.w3.org/2000/svg" width="93.739" height="128.371" viewBox="0 0 93.739 128.371">
  <g id="Grupo_134291" data-name="Grupo 134291" transform="translate(-1263.664 -5323.076)">
    <path id="Trazado_170564" data-name="Trazado 170564" d="M-38.172-825.686a32.035,32.035,0,0,0,4.335-.054,4.826,4.826,0,0,0,2.644-1.218q6.609-6.652,13.044-13.477a7.424,7.424,0,0,1,5.8-2.5q14.029.1,28.06.009a6.351,6.351,0,0,1,5.965,3.269c2.815,4.663,5.775,9.238,8.561,13.918a7.172,7.172,0,0,1,.976,3.423c.148,12.451.2,24.9-.847,37.328-.138,1.63-1.312,2.812-2.534,2.657-1.4-.179-2.1-1.289-1.977-3.124.169-2.436.314-4.874.454-7.087-2.355.111-4.575.3-6.8.306q-35.676.034-71.351-.007a44.46,44.46,0,0,1-4.809-.524c.239,3.708.475,7.485.727,11.259q.907,13.592,1.828,27.183c.17,2.5.274,5.018.556,7.51.524,4.618-.083,9.162-.689,13.716-.556,4.181-1.046,8.371-1.628,12.548-.15,1.078.163,1.518,1.239,1.437.372-.028.748,0,1.122,0H23.8c2.133,0,2.168-.016,1.9-2.17-.765-6.092-1.625-12.173-2.293-18.276a37.936,37.936,0,0,1,.06-6.227c.386-6.828.826-13.652,1.258-20.477.119-1.872.986-2.755,2.492-2.611,1.377.132,2.1,1.17,1.983,2.943-.474,7.46-1.14,14.913-1.365,22.381a79.159,79.159,0,0,0,.947,10.982c.423,3.819.927,7.63,1.463,11.436.58,4.119-2.093,6.584-5.991,6.568-26.135-.1-52.271-.054-78.406-.056-4.684,0-6.629-2.146-6.075-6.8.757-6.363,1.779-12.7,2.284-19.085a76.642,76.642,0,0,0-.418-10.857c-.587-9.168-1.241-18.332-1.85-27.5-.5-7.463-.947-14.929-1.455-22.39-.235-3.457-.9-6.924-.745-10.358a61.181,61.181,0,0,1,1.739-10.036c.423-1.948,1.468-3.788-.319-5.649a3.52,3.52,0,0,1-.455-2.138c-.056-2.136-.045-4.275-.015-6.413a4.353,4.353,0,0,1,4.724-4.692q7.375-.056,14.751.016c2.888.03,4.54,1.762,4.569,4.645.017,1.657.1,3.321-.024,4.969C-37.572-829.214-37.906-827.537-38.172-825.686ZM-56.981-835.96c0,2.082-.018,3.949.017,5.815a1.289,1.289,0,0,0,.38.961c1.5.864,1.545,2.185,1.265,3.632a31.417,31.417,0,0,1-.967,4.686c-2.422,6.742-2.127,13.533-.588,20.366.613,2.723,1.984,3.783,4.736,3.783q37.039,0,74.077,0c3.376,0,4.859-1.5,4.863-4.9q.012-8.979,0-17.958c0-.467-.048-.935-.084-1.59H24.927q-13.388,0-26.777,0-19.079-.016-38.159-.054c-2.612-.006-4.413-1.395-4.788-3.6-.485-2.854,0-3.67,2.78-4.7v-6.436Zm30.869,10.291c2.332,0,4.183.011,6.034-.013a1.154,1.154,0,0,0,.689-.3c2.882-2.617,5.7-5.3,8.656-7.836a4.859,4.859,0,0,1,2.855-1.1c6.09-.1,12.183-.029,18.275-.057a4.153,4.153,0,0,1,3.67,1.865c1.576,2.221,3.2,4.41,4.833,6.589.26.347.672.793,1.035.814,1.574.089,3.157.038,4.71.038.036-.3.095-.432.053-.5-2.345-3.822-4.667-7.659-7.093-11.429a2.388,2.388,0,0,0-1.763-.791q-14.268-.074-28.535-.014a2.432,2.432,0,0,0-1.593.525C-18.14-833.962-21.941-829.992-26.111-825.669Zm14.055-1.036H13.158a21.5,21.5,0,0,1-1.526-2.137,3.122,3.122,0,0,0-3.252-1.666c-4.958.1-9.919.027-14.878.051a2.9,2.9,0,0,0-1.65.347C-9.438-829.111-10.62-827.976-12.056-826.7Z" transform="translate(1326.106 6166.011)" fill="#1d272b"/>
    <path id="Trazado_170565" data-name="Trazado 170565" d="M26.994-592.774q-11.776,0-23.553,0c-2.993,0-4.022-1.039-4.024-4.058q-.006-11.132,0-22.264c0-2.725,1.153-3.86,3.908-3.861q23.633-.007,47.266,0c2.838,0,3.975,1.138,3.978,3.979q.011,11.052,0,22.1c0,2.977-1.095,4.1-4.029,4.1Q38.771-592.766,26.994-592.774ZM4.023-618.409v21.033H49.988v-21.033Z" transform="translate(1284.086 6016.58)" fill="#b42218"/>
  </g>
</svg>
