<svg xmlns="http://www.w3.org/2000/svg" xmlns:xlink="http://www.w3.org/1999/xlink" width="222.94" height="222.945" viewBox="0 0 222.94 222.945">
  <defs>
    <radialGradient id="radial-gradient" cx="0.076" cy="0.019" r="1.465" gradientTransform="translate(0)" gradientUnits="objectBoundingBox">
      <stop offset="0" stop-color="#f6f6f7"/>
      <stop offset="0.477" stop-color="#f9f9fa"/>
      <stop offset="0.715" stop-color="#fff"/>
    </radialGradient>
  </defs>
  <g id="Grupo_134227" data-name="Grupo 134227" transform="translate(-1015.969 -6999.742)">
    <path id="Trazado_40936" data-name="Trazado 40936" d="M417.562,2257.189a111.47,111.47,0,1,1-111.468-111.468A111.468,111.468,0,0,1,417.562,2257.189Z" transform="translate(821.346 4854.021)" fill="#fff"/>
    <path id="Trazado_40937" data-name="Trazado 40937" d="M415.569,2255.017A111.467,111.467,0,1,0,304.1,2366.492,111.031,111.031,0,0,0,415.569,2255.017Z" transform="translate(823.34 4856.195)" fill="url(#radial-gradient)"/>
    <path id="Trazado_40938" data-name="Trazado 40938" d="M389.579,2246.181a94.349,94.349,0,1,0-94.349,94.35A94.011,94.011,0,0,0,389.579,2246.181Z" transform="translate(832.429 4865.274)" fill="none" stroke="#1d272b" stroke-miterlimit="10" stroke-width="5"/>
    <path id="Trazado_40939" data-name="Trazado 40939" d="M392.465,2164.488A111.483,111.483,0,0,1,200.545,2275.5a111.8,111.8,0,0,0,11.094,14.849,111.485,111.485,0,0,0,180.826-125.859Z" transform="translate(835.172 4897.838)" fill="#eceef0"/>
    <path id="Trazado_173873" data-name="Trazado 173873" d="M-2818.21,457.638c5.726-12.144,13.266-22.5,26.711-27a6.456,6.456,0,0,0,3.945-3.843c1.987-4.307,4.211-8.505,6.386-12.723,1.827-3.543,3.9-6.959,5-10.846a34.512,34.512,0,0,0,.623-16.127,1.25,1.25,0,0,0-1.423-1.184,18.161,18.161,0,0,0-16.117,7.767c-1.788,2.434-4.016,3.275-6.4,2.356a5.032,5.032,0,0,1-2.452-7.531A28.08,28.08,0,0,1-2782.8,376.1c.785-.139,1.579-.222,2.575-.359-.28-.45-.511-.835-.755-1.21-2.53-3.885-6.081-6.748-9.637-9.6a5.62,5.62,0,0,1-2.2-3.184,5.073,5.073,0,0,1,2.068-5.359,4.91,4.91,0,0,1,5.736-.033c12.86,9.3,20.337,21.553,20.421,37.742a42.292,42.292,0,0,1-5.332,20.654c-2.02,3.718-4.037,7.438-6,11.184a40.349,40.349,0,0,0-2.213,4.773,15.246,15.246,0,0,1-9.668,9.466c-5.047,1.814-9.613,4.442-12.986,8.674-2.105,2.642-3.822,5.6-5.687,8.426-.725,1.1-1.373,2.249-2.067,3.37a4.923,4.923,0,0,1-5.269,2.521,4.868,4.868,0,0,1-4.184-3.915,2.046,2.046,0,0,0-.211-.409Z" transform="translate(3892.095 6694.734)" fill="#008f85"/>
    <path id="Trazado_173874" data-name="Trazado 173874" d="M-2575.065,653.974a29.363,29.363,0,0,1-3.7-2.72,145.716,145.716,0,0,1-10.269-10.732,42.794,42.794,0,0,1-9.724-30.882,33.006,33.006,0,0,1,4.894-15.368,15.11,15.11,0,0,1,16.4-7.234c2.549.473,5.112.926,7.613,1.6a24.605,24.605,0,0,1,16.06,13.02c1.429,2.765,2.8,5.562,4.169,8.355,1.409,2.866.52,5.869-2.1,7.187-2.671,1.344-5.6.237-7.078-2.688-1.277-2.529-2.563-5.054-3.8-7.6a15.138,15.138,0,0,0-11.184-8.7c-1.957-.392-3.908-.812-5.87-1.174a4.742,4.742,0,0,0-5.058,1.979c-2.93,4.214-3.89,9.005-3.924,14.128,1.711.087,3.337.119,4.954.259a33.741,33.741,0,0,1,22.708,11.282,5.154,5.154,0,0,1-.106,7.489c-2.188,1.988-5.29,1.753-7.461-.61a23.844,23.844,0,0,0-17.434-8.059c-.237-.008-.473,0-1.131,0a79.48,79.48,0,0,0,3.7,7.275,47.141,47.141,0,0,0,4.967,6.274,88.05,88.05,0,0,0,7.273,7.3c3.406,2.95,3.118,7.933-1.741,9.621Z" transform="translate(3725.458 6519.023)" fill="#008f85"/>
    <path id="Trazado_173875" data-name="Trazado 173875" d="M-2745.989,770.648c-.347-.171-.694-.343-1.042-.511-2.323-1.124-3.665-3.934-2.555-6.249,2.6-5.421,4.875-11.03,8.418-15.948a22.874,22.874,0,0,1,7.009-6.265,9.945,9.945,0,0,1,14.021,4.352c2.6,5.3,5.011,10.7,7.857,15.861,2.01,3.648,1.017,7.87-3.728,8.761h-.479c-2.609-.373-4.04-2.02-5.119-4.318-2.471-5.258-5.107-10.439-7.724-15.748a15.937,15.937,0,0,0-5.35,6.149c-1.677,3.309-3.384,6.6-4.956,9.964a6.723,6.723,0,0,1-4.192,3.953Z" transform="translate(3840.261 6402.35)" fill="#1d272b"/>
    <path id="Trazado_173876" data-name="Trazado 173876" d="M-2565.087,393.15c3.21.962,6.363,1.717,9.375,2.847,8.5,3.189,14.889,8.99,19.853,16.474q2.053,3.095,4.079,6.207c1.758,2.693,1.284,5.762-1.133,7.4-2.5,1.694-5.553,1-7.371-1.712-1.4-2.089-2.767-4.2-4.149-6.3a33.029,33.029,0,0,0-22.428-14.814c-5.6-1.05-8.846-5.482-8.461-11.125a32.955,32.955,0,0,0-10.167-26.867c-1.06-1.044-2.156-2.032-2.438-3.6a5.113,5.113,0,0,1,2.525-5.494,5.024,5.024,0,0,1,5.99.756,42.772,42.772,0,0,1,11.851,17.606,42.212,42.212,0,0,1,2.476,17.9C-2565.106,392.7-2565.087,392.977-2565.087,393.15Z" transform="translate(3717.212 6694.689)" fill="#008f85"/>
  </g>
</svg>
