<svg xmlns="http://www.w3.org/2000/svg" xmlns:xlink="http://www.w3.org/1999/xlink" width="81.543" height="81.543" viewBox="0 0 81.543 81.543">
  <defs>
    <radialGradient id="radial-gradient" cx="0.076" cy="0.019" r="1.465" gradientTransform="translate(0.001)" gradientUnits="objectBoundingBox">
      <stop offset="0" stop-color="#f6f6f7"/>
      <stop offset="0.477" stop-color="#f9f9fa"/>
      <stop offset="0.715" stop-color="#fff"/>
    </radialGradient>
  </defs>
  <g id="Grupo_134275" data-name="Grupo 134275" transform="translate(-971.082 -2578.303)">
    <g id="Grupo_128860" data-name="Grupo 128860" transform="translate(971.082 2578.303)">
      <g id="Grupo_18421" data-name="Grupo 18421">
        <g id="Grupo_18420" data-name="Grupo 18420">
          <g id="Grupo_18419" data-name="Grupo 18419">
            <path id="Trazado_40936" data-name="Trazado 40936" d="M276.166,2186.491a40.771,40.771,0,1,1-40.771-40.77A40.771,40.771,0,0,1,276.166,2186.491Z" transform="translate(-194.623 -2145.721)" fill="#fff"/>
          </g>
        </g>
      </g>
      <path id="Trazado_40937" data-name="Trazado 40937" d="M275.978,2186.287a40.771,40.771,0,1,0-40.771,40.772A40.61,40.61,0,0,0,275.978,2186.287Z" transform="translate(-194.435 -2145.517)" fill="url(#radial-gradient)"/>
      <path id="Trazado_40938" data-name="Trazado 40938" d="M264.735,2184.708a31.121,31.121,0,1,0-31.121,31.12A31,31,0,0,0,264.735,2184.708Z" transform="translate(-192.719 -2143.802)" fill="none" stroke="#1d272d" stroke-miterlimit="10" stroke-width="4"/>
      <g id="Grupo_18422" data-name="Grupo 18422" transform="translate(7.223 22.89)">
        <path id="Trazado_40939" data-name="Trazado 40939" d="M270.742,2164.488a40.776,40.776,0,0,1-70.2,40.6,40.647,40.647,0,0,0,70.2-40.6Z" transform="translate(-200.545 -2164.488)" fill="#eceef0"/>
      </g>
    </g>
    <g id="vr5k3j" transform="translate(-4531.617 3172.73)">
      <g id="Grupo_133729" data-name="Grupo 133729" transform="translate(5524.686 -574.059)">
        <path id="Trazado_173446" data-name="Trazado 173446" d="M5550.845-539.661c.668,1.066,1.21,2.042,1.86,2.942,1.03,1.429,2.035,1.551,3.616.751.4-.2,1.027.042,1.55.082-.083.549.027,1.271-.283,1.617a3.546,3.546,0,0,1-4.453.63,12.4,12.4,0,0,1-2.74-2.6c-1.312-1.536-2.426-3.246-3.793-4.727a13.67,13.67,0,0,0-2.713-1.82l-.464.279c.461,2.067.91,4.137,1.394,6.2.122.52.375,1.009.535,1.522a2.124,2.124,0,0,1-1.243,2.743,2.1,2.1,0,0,1-2.739-1.265,29.11,29.11,0,0,1-2.021-8.673,23.86,23.86,0,0,1,1.815-11.415c.722-1.751,1.334-3.548,2.057-5.488-1.443-.131-2.711-.155-3.942-.382a13.049,13.049,0,0,1-3.544-1.036,2.447,2.447,0,0,0-2.9.443,20.827,20.827,0,0,1,1.528,2.588,7.1,7.1,0,0,1,.564,2.622c0,.36-.643.919-1.076,1.016-.258.058-.815-.544-1-.955-.575-1.283-1.036-2.618-1.542-3.932l-.467.023c-.459.562-.875,1.166-1.385,1.676a17.434,17.434,0,0,1-2.566,2.288c-.333.222-1.063-.153-1.612-.255a4.862,4.862,0,0,1,.537-1.56,27.693,27.693,0,0,1,2.172-2.173c1.218-1.2,2.433-2.4,3.694-3.649a13.444,13.444,0,0,0-5.494-1.624c-.794,0-1.482-.133-1.5-1.055-.021-1,.772-1.3,1.55-1.143a39.1,39.1,0,0,1,5.251,1.351c1.592.563,3.08,1.416,4.617,2.134.432.2.876.379,1.426.615-.145-3.009-1.94-4.734-4.013-6.248-1.067-.78-2.265-1.385-3.314-2.187a6.054,6.054,0,0,1-1.6-1.844,1.4,1.4,0,0,1,.387-1.325,1.56,1.56,0,0,1,1.38.229c1.427,1.071,2.781,2.241,4.161,3.374l.387-.282a8.953,8.953,0,0,1-.246-2,5.209,5.209,0,0,1,.664-1.514c.474.3,1.283.528,1.359.906a29.461,29.461,0,0,1,.285,3.675c.03.427-.031,1.017.216,1.246,1.865,1.732,2.4,4,2.713,6.532l3.634.163c-.286-2.056-.488-3.97-.836-5.857-.248-1.339-.705-2.638-1.046-3.96-.389-1.511.169-2.685,1.4-3a2.167,2.167,0,0,1,2.718,1.866c.584,2.326,1.206,4.652,1.607,7.013a18.468,18.468,0,0,1-.958,10.015c-.979,2.5-1.875,5.045-2.6,7.629-.6,2.141-.466,2.179,1.519,3.033.341.147.681.295,1.072.464.506-1.154.923-2.325,1.516-3.4.677-1.225,1.6-2.318,2.255-3.552a39.6,39.6,0,0,0,2.114-4.683c.257-.687.412-1.3,1.251-1.228.86.071,1.05.72.976,1.446-.065.644-.211,1.281-.325,1.936,1.221-.13,2.4-.288,3.575-.364a7.255,7.255,0,0,1,1.6.158c.764.123,1.333.6,1.019,1.348a1.708,1.708,0,0,1-1.406.748,9.977,9.977,0,0,0-5.664,1,11.155,11.155,0,0,0-1.29.9c1.13.338,2.123.572,3.065.936.671.26,1.117.815.735,1.58-.369.74-.956.633-1.692.428a15.357,15.357,0,0,0-3.269-.454,1.245,1.245,0,0,0-.9.65c-.539,1.116-.987,2.276-1.454,3.425-.331.812.079,1.281.833,1.19a43.37,43.37,0,0,0,5.1-.885c.717-.176,1.321-.384,1.709.353a1.088,1.088,0,0,1-.678,1.611,29.83,29.83,0,0,1-3.078.9C5551.944-539.783,5551.452-539.752,5550.845-539.661Zm-7.793-3.807a7.19,7.19,0,0,1,3.984,2.069c1.356,1.551,2.533,3.258,3.852,4.845a11.64,11.64,0,0,0,2.34,2.323,3.158,3.158,0,0,0,3.813-.323c.22-.2.259-.6.382-.914-.321.032-.723-.049-.951.114a2.321,2.321,0,0,1-3.195-.06,55.372,55.372,0,0,1-3.666-4.743c1.012-.113,1.59-.124,2.143-.251,1.161-.268,2.318-.567,3.453-.929.214-.068.316-.487.47-.744a3.436,3.436,0,0,0-.939-.109c-1.827.3-3.64.7-5.476.92-1.073.126-1.678-.843-1.32-1.9.239-.705.51-1.4.8-2.087,1.132-2.679,2.545-3.255,5.307-2.178.154.06.3.2.448.2a4.436,4.436,0,0,0,.763-.1c-.113-.271-.152-.671-.354-.787a4.949,4.949,0,0,0-1.5-.544c-.785-.151-1.588-.2-2.384-.3l-.176-.346a17.979,17.979,0,0,1,2.248-1.756,9.754,9.754,0,0,1,5.779-1.061c.319.028.666-.24,1-.371-.307-.21-.6-.555-.925-.6a8.6,8.6,0,0,0-2.222-.051c-1.127.138-2.238.4-3.472.638.258-1,.539-1.9.692-2.815.046-.273-.265-.607-.414-.912a4.639,4.639,0,0,0-.565.775c-.712,1.568-1.308,3.2-2.115,4.711-.909,1.706-2.043,3.291-2.994,4.976a22.78,22.78,0,0,0-1.1,2.673c-.645-.3-1.194-.572-1.756-.812-2.333-1-2.354-1-1.817-3.495a23.508,23.508,0,0,1,.8-2.867c.618-1.757,1.282-3.5,1.959-5.234,2.272-5.814.75-11.425-.931-17.014a1.353,1.353,0,0,0-1.828-.861,1.459,1.459,0,0,0-1.075,1.732c.064.447.258.875.343,1.321.516,2.72,1.093,5.431,1.5,8.167.234,1.589.1,1.619-1.451,1.572-.7-.021-1.406-.141-2.108-.132-.763.01-1.079-.258-1.155-1.061a8.655,8.655,0,0,0-2.561-5.775c-.281-.264-.279-.886-.308-1.349-.073-1.189-.053-2.385-.163-3.57-.021-.215-.486-.388-.747-.581a3.427,3.427,0,0,0-.193.85c.032,1,.112,2,.173,2.993l-.427.245c-1.611-1.188-3.217-2.383-4.84-3.555a5.614,5.614,0,0,0-.944-.449c.055.37-.013.841.191,1.089a7.857,7.857,0,0,0,1.555,1.408c1.018.711,2.13,1.288,3.126,2.025,2.415,1.786,4.172,3.968,4.053,7.408-.754-.291-1.4-.513-2.022-.786-2.311-1.012-4.584-2.119-6.936-3.025a12.506,12.506,0,0,0-3.282-.514c-.192-.018-.423.372-.636.573a4.839,4.839,0,0,0,.676.4c.141.057.328-.012.492,0a16.065,16.065,0,0,1,6.432,2.222c-1.452,1.281-2.825,2.449-4.147,3.672-.9.835-1.751,1.733-2.59,2.635a2.441,2.441,0,0,0-.32.792c.291.015.689.161.854.024a28.579,28.579,0,0,0,2.352-2.174c.645-.67,1.208-1.418,1.871-2.209,1.255,1.466,2.343,2.75,2.5,4.569.022.25.329.475.5.711.163-.247.49-.516.46-.737a6.779,6.779,0,0,0-.535-2.138c-.519-1.022-1.214-1.954-1.864-2.97,1.287-.962,2.425-1.607,4.241-.777a22.559,22.559,0,0,0,5.532,1.175,13.817,13.817,0,0,0,2.148.017c-.182.718-.272,1.24-.446,1.733-.552,1.561-1.068,3.14-1.719,4.66-2.66,6.209-2.328,12.432-.18,18.676.6,1.746,1.308,2.306,2.332,1.926,1.061-.394,1.21-1.2.574-2.966A21.609,21.609,0,0,1,5543.052-543.468Z" transform="translate(-5524.686 574.059)" fill="#1d272b"/>
      </g>
    </g>
  </g>
</svg>
