<svg xmlns="http://www.w3.org/2000/svg" width="192.123" height="188.087" viewBox="0 0 192.123 188.087">
  <g id="zdG7d2" transform="translate(-2003.783 234.735)">
    <g id="Grupo_131748" data-name="Grupo 131748" transform="translate(2003.783 -234.735)">
      <path id="Trazado_168493" data-name="Trazado 168493" d="M2251.2-140.351a47.235,47.235,0,0,1-47.241-46.84,47.208,47.208,0,0,1,47.023-47.543,47.163,47.163,0,0,1,47.333,46.958A47.151,47.151,0,0,1,2251.2-140.351Zm-11.788-61.06c.293-.458.51-.791.721-1.128,3.011-4.807,6-9.631,9.046-14.412,1.128-1.768,2.723-1.819,3.811-.182,6.708,10.094,13.145,20.341,17.61,31.684a19.561,19.561,0,0,1,.827,13.405,1.527,1.527,0,0,0,.453,1.82c3.681,3.476,7.32,6.995,10.979,10.494a7.629,7.629,0,0,0,.725.549,42.959,42.959,0,0,0-4.325-61.072c-18.695-16.094-44.444-12.064-57.812,1.607Zm29.968,34.349c-.23.29-.387.464-.518.657-5.222,7.705-13.806,11.173-22.854,8.956-12.12-2.97-18.534-15.656-15-25.681,1.629-4.623,3.854-9.04,5.875-13.52.352-.781.419-1.235-.26-1.88-5.774-5.481-11.507-11-17.255-16.512-.25-.24-.534-.445-.931-.773-9.962,12.493-13.259,26.368-8.267,41.456,5.619,16.984,17.793,27,35.509,29.544,13.316,1.914,25-2.254,35.1-11.308Zm-28.98-27.791c-.217.375-.4.639-.529.923-.984,2.092-2.018,4.163-2.921,6.29a43.722,43.722,0,0,0-2.4,6.367,15.728,15.728,0,0,0,2.47,12.941c6.836,10.268,22.432,9.889,28.721-.688.325-.546.616-.968-.017-1.577-5.6-5.391-11.147-10.832-16.744-16.222C2246.192-189.5,2243.341-192.1,2240.4-194.854Zm27.292,20.561a12.269,12.269,0,0,0,.161-6.447,52.974,52.974,0,0,0-4.878-11.934q-5.524-9.377-11.036-18.761c-.213-.361-.488-.687-.9-1.264-2.853,4.722-5.578,9.213-8.258,13.732a1.136,1.136,0,0,0,.258,1.014c3.587,3.548,7.182,7.088,10.823,10.581,3.368,3.231,6.794,6.4,10.191,9.6C2265.229-176.657,2266.4-175.527,2267.689-174.293Z" transform="translate(-2154.902 234.735)" fill="#1d272b"/>
      <path id="Trazado_168494" data-name="Trazado 168494" d="M2176.936,350.421a7.15,7.15,0,0,1-5.453-2.9q-4.3-5.261-8.647-10.486c-1.428-1.723-3.092-1.715-4.492.029q-3.872,4.821-7.715,9.666c-3.446,4.326-9.029,4.278-12.413-.127-2.482-3.23-4.937-6.481-7.406-9.721a2.507,2.507,0,0,0-4,0c-2.087,2.653-4.1,5.364-6.145,8.05-.613.806-1.194,1.64-1.853,2.407a7.471,7.471,0,0,1-11.649-.775c-.9-1.345-2.048-2.519-3.054-3.794-1.459-1.849-2.888-3.723-4.339-5.579s-3.069-1.872-4.508-.088q-3.613,4.48-7.237,8.95a7.5,7.5,0,0,1-11.963-.089c-2.251-2.85-4.46-5.734-6.694-8.6-1.494-1.917-3.2-1.917-4.7,0q-3.32,4.243-6.627,8.5a7.515,7.515,0,0,1-12.04.136q-3.6-4.455-7.138-8.959a2.624,2.624,0,0,0-4.516.247c-1.518,2.41-2.963,4.866-4.455,7.293-.81,1.317-1.633,2.627-2.487,3.916a2,2,0,1,1-3.377-2.113c2.137-3.406,4.333-6.774,6.509-10.156a15.116,15.116,0,0,1,1.682-2.526,6.5,6.5,0,0,1,9.061.037,32.807,32.807,0,0,1,2.118,2.534c1.939,2.411,3.847,4.847,5.806,7.242a3.451,3.451,0,0,0,5.574-.054c2.333-2.942,4.62-5.921,6.933-8.879a6.55,6.55,0,0,1,10.548-.068c2.333,2.942,4.614,5.925,6.927,8.882a3.494,3.494,0,0,0,5.736.071c2.395-2.945,4.844-5.85,7.136-8.873a6.692,6.692,0,0,1,6.1-2.671,6.469,6.469,0,0,1,4.735,2.687c2.407,3.133,4.819,6.262,7.277,9.355,2,2.513,4.688,2.312,6.535-.289,1.835-2.585,3.822-5.063,5.746-7.586a10.414,10.414,0,0,1,1.07-1.335,9.725,9.725,0,0,1,2.635-2.207,6.321,6.321,0,0,1,7.686,1.927c2.51,3.268,5.063,6.5,7.615,9.739,1.75,2.218,4.192,2.247,5.972.046,2.618-3.237,5.187-6.513,7.8-9.758,2.98-3.707,7.7-3.722,10.7-.067q4.233,5.159,8.5,10.295c2.012,2.428,4.68,2.208,6.455-.4,1.711-2.515,3.563-4.935,5.345-7.4a11.444,11.444,0,0,0,.707-1.137c2.1-3.778,7.113-4.886,10.107-2.043a27.015,27.015,0,0,1,3.3,4.512c.94,1.373,1.811,2.793,2.717,4.19.929,1.433,1.874,2.856,2.791,4.3.828,1.3.7,2.43-.326,3.12-1.045.7-2.231.357-3.07-.956-2.235-3.5-4.437-7.018-6.678-10.513-.707-1.1-1.475-2.3-2.99-2.154a3.114,3.114,0,0,0-2.03,1c-2.621,3.531-5.054,7.2-7.7,10.713C2181.7,349.739,2179.669,350.443,2176.936,350.421Z" transform="translate(-2018.742 -192.895)" fill="#1d272b"/>
      <path id="Trazado_168495" data-name="Trazado 168495" d="M2020.314,171.436c2.681.044,4.993,1.119,7.367,2a47.1,47.1,0,0,0,6.711,2.222c3.228.668,6.277-.365,9.207-1.712,3.294-1.514,6.691-2.892,10.372-2.109a36.11,36.11,0,0,1,7.5,2.513,14.857,14.857,0,0,0,12.539.134c3.027-1.259,5.99-2.949,9.409-2.788a23.017,23.017,0,0,1,5.62.925c2.41.739,4.7,1.871,7.068,2.748a12.107,12.107,0,0,0,8.506.029c2.108-.76,4.173-1.647,6.239-2.52a14.22,14.22,0,0,1,11.416-.028c2.281.946,4.53,2.006,6.877,2.752a13.267,13.267,0,0,0,9.521-.636c2.008-.867,4.063-1.626,6.108-2.407a14.372,14.372,0,0,1,10.629.089c2.468.948,4.947,1.864,7.425,2.786a12.561,12.561,0,0,0,9.877-.2c1.9-.85,3.8-1.687,5.736-2.456a13.057,13.057,0,0,1,10.8.181c2.436,1.146,4.863,2.31,7.292,3.47a1.918,1.918,0,0,1,1.208,2.064,1.85,1.85,0,0,1-1.652,1.723,2.925,2.925,0,0,1-1.51-.3c-2.413-1.1-4.793-2.271-7.207-3.369a8.87,8.87,0,0,0-7.135-.126c-2.24.878-4.427,1.89-6.65,2.813a15.485,15.485,0,0,1-10.9.4c-3.214-1.027-6.283-2.506-9.494-3.544a10.008,10.008,0,0,0-6.794.16c-3.041,1.176-6.032,2.548-9.161,3.415a16.256,16.256,0,0,1-11.02-.876c-1.945-.844-3.938-1.575-5.909-2.358a9.6,9.6,0,0,0-7.39-.008c-2.307.931-4.594,1.919-6.932,2.766a15.985,15.985,0,0,1-11.26-.038c-2.488-.916-4.934-1.943-7.411-2.887a9.461,9.461,0,0,0-6.708-.035c-2.5.889-4.941,1.928-7.447,2.79a15.888,15.888,0,0,1-10.8-.044c-2.411-.869-4.71-2.071-7.149-2.839a9.577,9.577,0,0,0-6.551.109,74.9,74.9,0,0,1-9.069,3.29c-3.926.992-7.766.1-11.432-1.559-1.335-.6-2.729-1.082-4.106-1.592a9.318,9.318,0,0,0-7.816.281c-2.034,1.04-4.1,2.009-6.165,3-1.451.694-2.615.422-3.149-.706-.545-1.153-.061-2.2,1.4-2.923,2.379-1.173,4.721-2.442,7.175-3.433A31.772,31.772,0,0,1,2020.314,171.436Z" transform="translate(-2005.984 -71.903)" fill="#1d272b"/>
      <path id="Trazado_168496" data-name="Trazado 168496" d="M2099.767,300.081H2006.9a10.553,10.553,0,0,1-1.224-.017,2.018,2.018,0,0,1-1.881-2.041,1.977,1.977,0,0,1,1.913-1.993c.364-.035.734-.013,1.1-.013h186.11c2.028,0,3.011.67,3,2.038s-.98,2.027-3.027,2.027Z" transform="translate(-2003.788 -165.95)" fill="#1d272b"/>
      <path id="Trazado_168497" data-name="Trazado 168497" d="M2099.858,520.3h-92.99c-.408,0-.819.021-1.224-.02a2,2,0,0,1-.151-3.978,6.291,6.291,0,0,1,1.1-.051q93.174,0,186.349,0a8.4,8.4,0,0,1,1.1.037,2,2,0,0,1-.088,4c-.406.032-.816.012-1.225.012Z" transform="translate(-2003.783 -332.22)" fill="#1d272b"/>
      <path id="Trazado_168498" data-name="Trazado 168498" d="M2047.825,226.553h-39.56a11.665,11.665,0,0,1-1.346-.026,1.974,1.974,0,0,1-1.788-1.992,1.944,1.944,0,0,1,1.717-1.937,7.04,7.04,0,0,1,1.222-.043q39.866,0,79.733,0a5.923,5.923,0,0,1,.977.046,1.892,1.892,0,0,1,1.711,1.923,1.937,1.937,0,0,1-1.76,2,11.614,11.614,0,0,1-1.346.03Q2067.6,226.554,2047.825,226.553Z" transform="translate(-2004.798 -110.49)" fill="#1d272b"/>
      <path id="Trazado_168499" data-name="Trazado 168499" d="M2191.469,263.08q-15.25,0-30.5,0a5.92,5.92,0,0,1-1.1-.042,1.961,1.961,0,0,1-1.735-1.924,2,2,0,0,1,1.735-2.049,11.185,11.185,0,0,1,1.59-.044q30.316,0,60.632.008a4.134,4.134,0,0,1,1.432.214,1.967,1.967,0,0,1-.224,3.7,7.009,7.009,0,0,1-1.7.13Q2206.536,263.085,2191.469,263.08Z" transform="translate(-2120.307 -138.02)" fill="#1d272b"/>
      <path id="Trazado_168500" data-name="Trazado 168500" d="M2506.469,263.088h-30.254c-2.057,0-3.054-.641-3.094-1.984-.041-1.364,1.033-2.074,3.123-2.074h60.507a10.05,10.05,0,0,1,1.1.019,2.014,2.014,0,0,1-.028,4.021,9.3,9.3,0,0,1-.979.018Z" transform="translate(-2358.108 -138.027)" fill="#1d272b"/>
      <path id="Trazado_168501" data-name="Trazado 168501" d="M2653.828,222.957q7.657,0,15.316,0a7.562,7.562,0,0,1,1.221.048,1.96,1.96,0,0,1,1.721,2.049,1.889,1.889,0,0,1-1.73,1.906,9.873,9.873,0,0,1-1.466.042q-15.316.006-30.631,0a5.586,5.586,0,0,1-1.214-.091,1.983,1.983,0,0,1,.009-3.866,5.823,5.823,0,0,1,1.338-.087Q2646.109,222.954,2653.828,222.957Z" transform="translate(-2480.703 -110.797)" fill="#1d272b"/>
      <path id="Trazado_168502" data-name="Trazado 168502" d="M2439.5,226.665c-5.383,0-10.766.012-16.149-.008a2,2,0,0,1-2.159-2,2.058,2.058,0,0,1,2.2-1.976c.285-.013.571-.008.856-.008h8.686q10.766,0,21.531,0a13.508,13.508,0,0,1,1.589.035,1.96,1.96,0,0,1,1.78,1.99,1.987,1.987,0,0,1-1.822,1.949,8.718,8.718,0,0,1-.978.02H2439.5Z" transform="translate(-2318.905 -110.581)" fill="#1d272b"/>
      <path id="Trazado_168503" data-name="Trazado 168503" d="M2406.114,474.837a2.017,2.017,0,1,1-2.031-2A2.015,2.015,0,0,1,2406.114,474.837Z" transform="translate(-2304.476 -299.442)" fill="#1d272b"/>
      <path id="Trazado_168504" data-name="Trazado 168504" d="M2344.954,474.835a2.015,2.015,0,0,1-4.029,0,1.983,1.983,0,0,1,2.007-2.018A2.021,2.021,0,0,1,2344.954,474.835Z" transform="translate(-2258.308 -299.431)" fill="#1d272b"/>
      <path id="Trazado_168505" data-name="Trazado 168505" d="M2190,476.806a1.989,1.989,0,1,1-.028-3.976,1.988,1.988,0,1,1,.028,3.976Z" transform="translate(-2142.817 -299.44)" fill="#1d272b"/>
      <path id="Trazado_168506" data-name="Trazado 168506" d="M2650.852,430.447a1.988,1.988,0,0,1-2.022,2,2,2,0,0,1,.006-4A1.978,1.978,0,0,1,2650.852,430.447Z" transform="translate(-2489.273 -265.929)" fill="#1d272b"/>
      <path id="Trazado_168507" data-name="Trazado 168507" d="M2130.828,430.431a1.976,1.976,0,0,1-1.987,2.028,2,2,0,0,1-2-2.031,1.992,1.992,0,0,1,3.984,0Z" transform="translate(-2096.688 -265.946)" fill="#1d272b"/>
      <path id="Trazado_168508" data-name="Trazado 168508" d="M2191.978,430.469a2.018,2.018,0,1,1-4.035-.051,2,2,0,0,1,1.973-1.935A2.04,2.04,0,0,1,2191.978,430.469Z" transform="translate(-2142.814 -265.96)" fill="#1d272b"/>
      <path id="Trazado_168509" data-name="Trazado 168509" d="M2467.242,474.889a2,2,0,0,1-2.118,1.9,2.04,2.04,0,0,1-1.922-2.123,2.064,2.064,0,0,1,2.075-1.854A2.024,2.024,0,0,1,2467.242,474.889Z" transform="translate(-2350.616 -299.427)" fill="#1d272b"/>
      <path id="Trazado_168510" data-name="Trazado 168510" d="M2251.152,472.8a2,2,0,0,1,.058,3.995,2,2,0,1,1-.058-3.995Z" transform="translate(-2189.016 -299.419)" fill="#1d272b"/>
      <path id="Trazado_168511" data-name="Trazado 168511" d="M2342.91,432.449a2,2,0,1,1,2.05-1.992A2.016,2.016,0,0,1,2342.91,432.449Z" transform="translate(-2258.315 -265.941)" fill="#1d272b"/>
      <path id="Trazado_168512" data-name="Trazado 168512" d="M2528.571,430.363a1.985,1.985,0,0,1-1.977,2.044,1.95,1.95,0,0,1-2-2.009,1.987,1.987,0,0,1,3.974-.035Z" transform="translate(-2396.97 -265.898)" fill="#1d272b"/>
      <path id="Trazado_168513" data-name="Trazado 168513" d="M2100.2,474.882a2.028,2.028,0,0,1-4.052-.081,2.026,2.026,0,0,1,4.052.081Z" transform="translate(-2073.512 -299.43)" fill="#1d272b"/>
      <path id="Trazado_168514" data-name="Trazado 168514" d="M2039,474.821a2.017,2.017,0,1,1-4.032-.1,2.038,2.038,0,0,1,2.009-1.909A2.012,2.012,0,0,1,2039,474.821Z" transform="translate(-2027.321 -299.425)" fill="#1d272b"/>
      <path id="Trazado_168515" data-name="Trazado 168515" d="M2742.691,430.362a1.984,1.984,0,1,1-2.063-1.953A1.976,1.976,0,0,1,2742.691,430.362Z" transform="translate(-2558.625 -265.902)" fill="#1d272b"/>
      <path id="Trazado_168516" data-name="Trazado 168516" d="M2712.029,474.872a2.046,2.046,0,0,1-2.126,1.92,2,2,0,0,1-1.92-2.106,2.029,2.029,0,0,1,2.044-1.867A2.063,2.063,0,0,1,2712.029,474.872Z" transform="translate(-2535.414 -299.432)" fill="#1d272b"/>
      <path id="Trazado_168517" data-name="Trazado 168517" d="M2098.188,432.469a2.068,2.068,0,0,1-2.05-2.011,2.027,2.027,0,0,1,4.052-.049A2.076,2.076,0,0,1,2098.188,432.469Z" transform="translate(-2073.506 -265.953)" fill="#1d272b"/>
      <path id="Trazado_168518" data-name="Trazado 168518" d="M2159.471,428.466a1.993,1.993,0,0,1-.048,3.986,1.994,1.994,0,1,1,.048-3.986Z" transform="translate(-2119.769 -265.947)" fill="#1d272b"/>
      <path id="Trazado_168519" data-name="Trazado 168519" d="M2314.314,474.853a2.026,2.026,0,0,1-2.083,1.953,2.07,2.07,0,0,1-1.94-2.119,2.044,2.044,0,0,1,2.043-1.878A2,2,0,0,1,2314.314,474.853Z" transform="translate(-2235.179 -299.424)" fill="#1d272b"/>
      <path id="Trazado_168520" data-name="Trazado 168520" d="M2373.632,432.44a1.948,1.948,0,0,1-1.993-2.01,1.986,1.986,0,1,1,1.993,2.01Z" transform="translate(-2281.495 -265.931)" fill="#1d272b"/>
      <path id="Trazado_168521" data-name="Trazado 168521" d="M2495.934,432.419a2,2,0,0,1-.112-4,2,2,0,1,1,.112,4Z" transform="translate(-2373.801 -265.907)" fill="#1d272b"/>
      <path id="Trazado_168522" data-name="Trazado 168522" d="M2557.031,432.469a2,2,0,1,1,.037-3.991,2.009,2.009,0,0,1,1.969,1.948A2.04,2.04,0,0,1,2557.031,432.469Z" transform="translate(-2419.916 -265.957)" fill="#1d272b"/>
      <path id="Trazado_168523" data-name="Trazado 168523" d="M2620.247,430.482a2.018,2.018,0,0,1-4.035.019,2.017,2.017,0,1,1,4.035-.019Z" transform="translate(-2466.135 -265.95)" fill="#1d272b"/>
      <path id="Trazado_168524" data-name="Trazado 168524" d="M2587.771,432.411a1.961,1.961,0,0,1-2.009-2,1.994,1.994,0,0,1,1.9-2,2,2,0,1,1,.111,4Z" transform="translate(-2443.147 -265.905)" fill="#1d272b"/>
      <path id="Trazado_168525" data-name="Trazado 168525" d="M2436.764,430.425a1.99,1.99,0,1,1-2.055-1.963A1.976,1.976,0,0,1,2436.764,430.425Z" transform="translate(-2327.656 -265.943)" fill="#1d272b"/>
      <path id="Trazado_168526" data-name="Trazado 168526" d="M2467.259,430.407a2.034,2.034,0,0,1-2.01,2.033,2,2,0,0,1-.051-4A2.007,2.007,0,0,1,2467.259,430.407Z" transform="translate(-2350.639 -265.926)" fill="#1d272b"/>
      <path id="Trazado_168527" data-name="Trazado 168527" d="M2404.075,432.47a2.045,2.045,0,0,1-2.027-2.024,2.02,2.02,0,1,1,2.027,2.024Z" transform="translate(-2304.452 -265.959)" fill="#1d272b"/>
      <path id="Trazado_168528" data-name="Trazado 168528" d="M2312.365,428.459a1.979,1.979,0,0,1,1.969,2.054,2.011,2.011,0,0,1-2.091,1.94,2.049,2.049,0,0,1-1.927-2A2.019,2.019,0,0,1,2312.365,428.459Z" transform="translate(-2235.2 -265.942)" fill="#1d272b"/>
      <path id="Trazado_168529" data-name="Trazado 168529" d="M2283.777,474.855a1.935,1.935,0,0,1-2.06,1.942,1.991,1.991,0,1,1,2.06-1.942Z" transform="translate(-2212.165 -299.43)" fill="#1d272b"/>
      <path id="Trazado_168530" data-name="Trazado 168530" d="M2281.817,428.446a2,2,0,1,1-1.995,2.023A1.971,1.971,0,0,1,2281.817,428.446Z" transform="translate(-2212.179 -265.932)" fill="#1d272b"/>
      <path id="Trazado_168531" data-name="Trazado 168531" d="M2222.651,430.432a1.983,1.983,0,1,1-2-2.012A1.966,1.966,0,0,1,2222.651,430.432Z" transform="translate(-2166.023 -265.913)" fill="#1d272b"/>
      <path id="Trazado_168532" data-name="Trazado 168532" d="M2375.581,474.815a1.989,1.989,0,1,1-2.011-1.991A1.945,1.945,0,0,1,2375.581,474.815Z" transform="translate(-2281.468 -299.435)" fill="#1d272b"/>
      <path id="Trazado_168533" data-name="Trazado 168533" d="M2069.681,430.484a1.987,1.987,0,1,1-1.969-2.056A1.991,1.991,0,0,1,2069.681,430.484Z" transform="translate(-2050.533 -265.919)" fill="#1d272b"/>
      <path id="Trazado_168534" data-name="Trazado 168534" d="M2497.9,474.842a2,2,0,0,1-3.994-.04,2,2,0,0,1,2.025-2A1.961,1.961,0,0,1,2497.9,474.842Z" transform="translate(-2373.797 -299.417)" fill="#1d272b"/>
      <path id="Trazado_168535" data-name="Trazado 168535" d="M2556.951,476.8a2.035,2.035,0,0,1-1.961-2.082,2.065,2.065,0,0,1,2.027-1.9,1.991,1.991,0,1,1-.066,3.979Z" transform="translate(-2419.914 -299.434)" fill="#1d272b"/>
      <path id="Trazado_168536" data-name="Trazado 168536" d="M2681.512,474.806a1.982,1.982,0,0,1-2.016,2,1.986,1.986,0,0,1-.026-3.972A1.985,1.985,0,0,1,2681.512,474.806Z" transform="translate(-2512.423 -299.443)" fill="#1d272b"/>
      <path id="Trazado_168537" data-name="Trazado 168537" d="M2037.026,432.461a2.052,2.052,0,0,1-2.051-2,2.018,2.018,0,1,1,2.051,2Z" transform="translate(-2027.331 -265.949)" fill="#1d272b"/>
      <path id="Trazado_168538" data-name="Trazado 168538" d="M2681.471,430.462a1.994,1.994,0,1,1-2.01-2.006A1.976,1.976,0,0,1,2681.471,430.462Z" transform="translate(-2512.392 -265.94)" fill="#1d272b"/>
      <path id="Trazado_168539" data-name="Trazado 168539" d="M2710.01,432.476a2.05,2.05,0,0,1-2.046-2.007,2.015,2.015,0,0,1,1.933-1.982,2,2,0,1,1,.113,3.989Z" transform="translate(-2535.403 -265.962)" fill="#1d272b"/>
      <path id="Trazado_168540" data-name="Trazado 168540" d="M2159.468,472.835a1.989,1.989,0,1,1-.073,3.975,1.988,1.988,0,0,1,.073-3.975Z" transform="translate(-2119.81 -299.444)" fill="#1d272b"/>
      <path id="Trazado_168541" data-name="Trazado 168541" d="M2251.11,432.465a2,2,0,1,1,2.076-1.978A2.055,2.055,0,0,1,2251.11,432.465Z" transform="translate(-2189.032 -265.949)" fill="#1d272b"/>
      <path id="Trazado_168542" data-name="Trazado 168542" d="M2524.58,474.784a1.946,1.946,0,0,1,2.051-1.95,1.986,1.986,0,0,1-.066,3.971A1.943,1.943,0,0,1,2524.58,474.784Z" transform="translate(-2396.957 -299.442)" fill="#1d272b"/>
      <path id="Trazado_168543" data-name="Trazado 168543" d="M2620.221,474.81a2.016,2.016,0,0,1-2.04,1.989,1.988,1.988,0,1,1-.012-3.975A2.028,2.028,0,0,1,2620.221,474.81Z" transform="translate(-2466.106 -299.436)" fill="#1d272b"/>
      <path id="Trazado_168544" data-name="Trazado 168544" d="M2648.8,476.8a1.976,1.976,0,0,1-1.938-2.071,2,2,0,0,1,1.994-1.9,1.987,1.987,0,1,1-.056,3.974Z" transform="translate(-2489.275 -299.435)" fill="#1d272b"/>
      <path id="Trazado_168545" data-name="Trazado 168545" d="M2128.859,476.79a1.991,1.991,0,0,1-.128-3.979,1.991,1.991,0,1,1,.128,3.979Z" transform="translate(-2096.676 -299.424)" fill="#1d272b"/>
      <path id="Trazado_168546" data-name="Trazado 168546" d="M2434.775,472.813a1.99,1.99,0,1,1-.061,3.978,1.99,1.99,0,0,1,.061-3.978Z" transform="translate(-2327.663 -299.427)" fill="#1d272b"/>
      <path id="Trazado_168547" data-name="Trazado 168547" d="M2069.657,474.828a1.946,1.946,0,0,1-2.025,1.977,1.99,1.99,0,0,1,.028-3.979A1.949,1.949,0,0,1,2069.657,474.828Z" transform="translate(-2050.514 -299.436)" fill="#1d272b"/>
      <path id="Trazado_168548" data-name="Trazado 168548" d="M2222.635,474.852a1.985,1.985,0,1,1-1.973-2.027A1.944,1.944,0,0,1,2222.635,474.852Z" transform="translate(-2166.008 -299.436)" fill="#1d272b"/>
      <path id="Trazado_168549" data-name="Trazado 168549" d="M2589.722,474.825a1.988,1.988,0,1,1-2.015-1.984A1.951,1.951,0,0,1,2589.722,474.825Z" transform="translate(-2443.135 -299.447)" fill="#1d272b"/>
      <path id="Trazado_168550" data-name="Trazado 168550" d="M2742.694,474.751a1.982,1.982,0,1,1-2.07-1.921A1.924,1.924,0,0,1,2742.694,474.751Z" transform="translate(-2558.631 -299.438)" fill="#1d272b"/>
    </g>
  </g>
</svg>
