<svg xmlns="http://www.w3.org/2000/svg" width="106.827" height="106.84" viewBox="0 0 106.827 106.84">
  <g id="Grupo_134293" data-name="Grupo 134293" transform="translate(-784 -5918.24)">
    <path id="Trazado_170575" data-name="Trazado 170575" d="M-3339.671,207.993c-.554-.179-1.112-.351-1.663-.539a6.326,6.326,0,0,1-4.2-7.712c.988-3.425,2.218-6.783,3.417-10.143q7.74-21.7,15.517-43.378a4.353,4.353,0,0,0,.3-1.409q.029-9.544.011-19.088c0-.172-.021-.344-.037-.575l-.894-.21a1.56,1.56,0,0,1-1.291-1.661,1.636,1.636,0,0,1,1.46-1.649,2.832,2.832,0,0,1,.52-.025c8.552,0,17.1-.018,25.656.036a2.431,2.431,0,0,1,1.714.87,1.827,1.827,0,0,1-.054,1.694c-.343.5-1.083.727-1.838,1.187,0,.074-.038.409-.038.743,0,6.119-.01,12.239.01,18.358a5.262,5.262,0,0,0,.292,1.723q9.176,25.711,18.381,51.41c.264.738.5,1.485.748,2.228v2.713c-.1.247-.214.489-.3.741a6.245,6.245,0,0,1-4.109,4.149c-.546.182-1.095.357-1.642.536Zm16.865-82.89v1.3c0,6.017.018,12.033-.02,18.05a8.159,8.159,0,0,1-.439,2.642q-7.73,21.705-15.52,43.39c-1.11,3.1-2.264,6.189-3.267,9.325-.843,2.635.471,4.447,3.221,4.688.449.039.9.065,1.353.065q23.785,0,47.57,0a15.759,15.759,0,0,0,1.769-.1,3.1,3.1,0,0,0,2.962-3.55,9.332,9.332,0,0,0-.558-2.311q-9.2-25.766-18.407-51.528a7.831,7.831,0,0,1-.429-2.538c-.036-6.051-.019-12.1-.019-18.154V125.1Z" transform="translate(4172.493 5817.087)" fill="#1d272b"/>
    <path id="Trazado_170576" data-name="Trazado 170576" d="M-3520.259,130.625c-2.07-.411-4.171-.706-6.2-1.255a31.171,31.171,0,0,1-16.359-10.735,31.377,31.377,0,0,1-7.211-22.263,31.329,31.329,0,0,1,11.094-22.545,75.564,75.564,0,0,1,6.318-4.378,1.529,1.529,0,0,0,.661-1q.048-20.4.021-40.791a2.379,2.379,0,0,0-.06-.354c-.29-.063-.592-.118-.888-.194a1.573,1.573,0,0,1-1.283-1.672A1.636,1.636,0,0,1-3532.7,23.8a1.745,1.745,0,0,1,.312-.018q14.655,0,29.311.005a1.64,1.64,0,0,1,1.817,1.7,1.571,1.571,0,0,1-1.219,1.608c-.292.091-.6.133-1,.219v1.15q0,19.717-.021,39.435a1.676,1.676,0,0,0,1.037,1.772,29.609,29.609,0,0,1,7.16,5.161,1.786,1.786,0,0,1,.32,2.657,1.725,1.725,0,0,1-2.593-.091,30.874,30.874,0,0,0-8.147-5.547,2.1,2.1,0,0,1-1.195-2.208q.029-20.552.013-41.1V27.273h-21.554v1.394c0,13.493-.018,26.985.025,40.478a3,3,0,0,1-1.9,3.069c-8.966,4.512-14.467,11.772-15.95,21.669-2.281,15.233,7.113,28.854,22.13,32.557a27.838,27.838,0,0,0,11.167.342,8.732,8.732,0,0,1,1.241-.127,1.688,1.688,0,0,1,1.837,1.469,1.71,1.71,0,0,1-1.454,1.863c-1.219.248-2.452.428-3.68.638Z" transform="translate(4334.094 5894.455)" fill="#1d272b"/>
    <path id="Trazado_170577" data-name="Trazado 170577" d="M-3513.64,345.453a22.14,22.14,0,0,0,12.582,24.691,22,22,0,0,0,13.432,1.508,6.255,6.255,0,0,1,.819-.134,1.746,1.746,0,0,1,1.965,1.45,1.613,1.613,0,0,1-1.407,1.875,34.747,34.747,0,0,1-5.983.639c-9.741-.238-17.15-4.65-22.04-13.036a24.724,24.724,0,0,1-2.512-18.818,1.851,1.851,0,0,1,2-1.585q19.134.016,38.268.012c1.308,0,2.016.656,1.991,1.742s-.745,1.65-2.192,1.651q-17.83.008-35.661,0Z" transform="translate(4308.389 5642.728)" fill="#d93328"/>
    <path id="Trazado_170578" data-name="Trazado 170578" d="M-3481.225,166.987c0,3.372-.058,6.746.028,10.116a2.658,2.658,0,0,1-1.817,2.772,47.68,47.68,0,0,0-7.565,4.087,34.133,34.133,0,0,0-5.08,5.313c-.964,1.095-2.36,1.21-3.034.089a1.9,1.9,0,0,1,.29-2.217,23.856,23.856,0,0,1,11.024-9.069c2.226-.878,2.914-2,2.823-4.384-.218-5.728-.074-11.47-.067-17.206,0-1.226.45-1.9,1.316-2.075,1.208-.241,2.065.524,2.074,1.936C-3481.212,159.895-3481.226,163.441-3481.225,166.987Z" transform="translate(4293.634 5791.169)" fill="#1d272b"/>
    <path id="Trazado_170579" data-name="Trazado 170579" d="M-3430.476,65.029c0-2.153-.012-4.306,0-6.459.01-1.322.626-2.033,1.7-2.03s1.688.711,1.692,2.038q.02,6.459,0,12.917c0,1.313-.637,2.034-1.7,2.033s-1.682-.726-1.691-2.041C-3430.487,69.335-3430.476,67.182-3430.476,65.029Z" transform="translate(4239.484 5868.548)" fill="#1d272b"/>
    <path id="Trazado_170580" data-name="Trazado 170580" d="M-3264.765,346.184c-1.186-3.324-2.336-6.55-3.487-9.774-.35-.98-.728-1.95-1.047-2.939a1.757,1.757,0,0,1,1.028-2.391,1.729,1.729,0,0,1,2.195,1.243q2.676,7.382,5.29,14.787c.514,1.462-.215,2.447-1.771,2.542-.312.019-.626.007-.939.007h-43.389c-.278,0-.557.009-.834,0-1.688-.082-2.367-1.052-1.8-2.67,1.2-3.437,2.429-6.863,3.655-10.291q4.555-12.73,9.119-25.458c.611-1.7.912-1.918,2.731-1.918q8.918,0,17.835,0c1.6,0,2,.275,2.533,1.767q2.51,7,5.006,14a4.546,4.546,0,0,1,.26,1.106,1.532,1.532,0,0,1-1.119,1.676,1.549,1.549,0,0,1-1.918-.628,4.743,4.743,0,0,1-.506-1.133c-1.476-4.111-2.963-8.219-4.4-12.344a1.245,1.245,0,0,0-1.41-.993c-5.006.039-10.013.03-15.019.007a1.062,1.062,0,0,0-1.209.818q-5.655,15.927-11.36,31.836c-.079.221-.129.452-.213.75Z" transform="translate(4143.967 5668.613)" fill="#008f85"/>
    <path id="Trazado_170581" data-name="Trazado 170581" d="M-3228.364,165.612c.848,4.745-.634,10.249-2.946,15.609a10.953,10.953,0,0,1-.5,1.249,1.56,1.56,0,0,1-1.937.816,1.52,1.52,0,0,1-1.177-1.827,10.519,10.519,0,0,1,.736-2.372,28.142,28.142,0,0,0,2.448-13.849c-.2-3.009-.036-6.043-.035-9.065a1.617,1.617,0,0,1,1.3-1.762,1.554,1.554,0,0,1,1.9.895,3.587,3.587,0,0,1,.2,1.425C-3228.354,159.3-3228.364,161.872-3228.364,165.612Z" transform="translate(4084.841 5791.183)" fill="#1d272b"/>
  </g>
</svg>
