<?xml version="1.0" encoding="utf-8"?>
<!-- Generator: Adobe Illustrator 26.0.1, SVG Export Plug-In . SVG Version: 6.00 Build 0)  -->
<svg version="1.1" id="Layer_1" xmlns="http://www.w3.org/2000/svg" xmlns:xlink="http://www.w3.org/1999/xlink" x="0px" y="0px"
	 viewBox="0 0 335 144" style="enable-background:new 0 0 335 144;" xml:space="preserve">
<style type="text/css">
	.st0{enable-background:new    ;}
	.st1{fill:#FFFFFF;}
	.st2{fill:#B42218;}
</style>
<g id="Grupo_134229" transform="translate(-156.861 -7823)">
	<g id="Grupo_133810" transform="translate(177.656 7711.42)">
		<g class="st0">
			<path class="st1" d="M63.6,161.4h-6.4l-1.2,3.7h-3.9l6.6-17.8h3.4l6.7,17.8h-3.9L63.6,161.4z M58.2,158.5h4.4l-2.2-6.7
				L58.2,158.5z"/>
			<path class="st1" d="M77,158.6h-2.9v6.5h-3.7v-17.8H77c2.1,0,3.7,0.5,4.9,1.4c1.1,0.9,1.7,2.3,1.7,4c0,1.2-0.3,2.2-0.8,3
				c-0.5,0.8-1.3,1.5-2.4,1.9l3.8,7.3v0.2h-3.9L77,158.6z M74.1,155.6h3c0.9,0,1.6-0.2,2.1-0.7c0.5-0.5,0.8-1.1,0.8-1.9
				c0-0.8-0.2-1.5-0.7-2c-0.5-0.5-1.2-0.7-2.2-0.7h-2.9V155.6z"/>
			<path class="st1" d="M99.1,150.3h-5.4v14.8H90v-14.8h-5.4v-3h14.5V150.3z"/>
			<path class="st1" d="M111.9,157.4h-7v4.8h8.3v2.9h-11.9v-17.8h11.9v3h-8.2v4.2h7V157.4z"/>
			<path class="st1" d="M121.8,158.6h-2.9v6.5h-3.7v-17.8h6.6c2.1,0,3.7,0.5,4.9,1.4c1.1,0.9,1.7,2.3,1.7,4c0,1.2-0.3,2.2-0.8,3
				c-0.5,0.8-1.3,1.5-2.4,1.9l3.8,7.3v0.2h-3.9L121.8,158.6z M118.9,155.6h3c0.9,0,1.6-0.2,2.1-0.7c0.5-0.5,0.8-1.1,0.8-1.9
				c0-0.8-0.2-1.5-0.7-2c-0.5-0.5-1.2-0.7-2.2-0.7h-2.9V155.6z"/>
			<path class="st1" d="M135.1,165.1h-3.7v-17.8h3.7V165.1z"/>
			<path class="st1" d="M148.8,161.4h-6.4l-1.2,3.7h-3.9l6.6-17.8h3.4l6.7,17.8H150L148.8,161.4z M143.3,158.5h4.4l-2.2-6.7
				L143.3,158.5z"/>
		</g>
		<g class="st0">
			<path class="st1" d="M61.8,222.1c-0.1,1.5-0.7,2.7-1.7,3.6s-2.4,1.3-4,1.3c-1.8,0-3.3-0.6-4.3-1.8s-1.6-2.9-1.6-5.1v-0.9
				c0-1.4,0.2-2.6,0.7-3.6s1.2-1.8,2.1-2.4s1.9-0.8,3.1-0.8c1.6,0,3,0.4,4,1.3s1.6,2.1,1.7,3.7h-2.9c-0.1-0.9-0.3-1.6-0.8-2
				s-1.1-0.6-2-0.6c-1,0-1.7,0.3-2.2,1s-0.7,1.8-0.7,3.3v1.1c0,1.5,0.2,2.7,0.7,3.4s1.2,1.1,2.2,1.1c0.9,0,1.6-0.2,2-0.6
				s0.7-1.1,0.8-1.9H61.8z"/>
			<path class="st1" d="M75.4,220.1c0,1.4-0.2,2.6-0.7,3.7s-1.2,1.9-2.1,2.4s-2,0.9-3.2,0.9c-1.2,0-2.2-0.3-3.2-0.8
				s-1.6-1.4-2.1-2.4s-0.8-2.3-0.8-3.6v-0.7c0-1.4,0.3-2.6,0.8-3.7s1.2-1.9,2.1-2.5s2-0.9,3.2-0.9s2.2,0.3,3.2,0.9s1.6,1.4,2.1,2.5
				s0.8,2.3,0.8,3.7V220.1z M72.4,219.4c0-1.5-0.3-2.6-0.8-3.4s-1.3-1.2-2.3-1.2c-1,0-1.7,0.4-2.3,1.1s-0.8,1.9-0.8,3.4v0.7
				c0,1.5,0.3,2.6,0.8,3.4s1.3,1.2,2.3,1.2c1,0,1.7-0.4,2.3-1.2s0.8-1.9,0.8-3.4V219.4z"/>
			<path class="st1" d="M81.3,212.6L85,223l3.6-10.3h3.8v14.2h-2.9V223l0.3-6.7L86,226.9h-2l-3.8-10.6l0.3,6.7v3.9h-2.9v-14.2H81.3z
				"/>
			<path class="st1" d="M105.8,212.6v9.4c0,1.6-0.5,2.8-1.5,3.7s-2.3,1.4-4,1.4c-1.7,0-3-0.4-4-1.3s-1.5-2.1-1.5-3.6v-9.5h2.9v9.4
				c0,0.9,0.2,1.6,0.7,2s1.1,0.6,1.9,0.6c1.6,0,2.5-0.9,2.5-2.6v-9.5H105.8z M100.9,208.8h3.1l-2.7,3h-2.3L100.9,208.8z"/>
			<path class="st1" d="M119.8,226.9h-2.9l-5.7-9.4v9.4h-2.9v-14.2h2.9l5.7,9.4v-9.4h2.9V226.9z"/>
			<path class="st1" d="M127.3,226.9v-14.2h4.4c1.2,0,2.4,0.3,3.4,0.8s1.8,1.4,2.3,2.4s0.8,2.2,0.8,3.5v0.7c0,1.3-0.3,2.5-0.8,3.5
				s-1.3,1.8-2.3,2.4s-2.1,0.9-3.3,0.9H127.3z M130.2,215v9.5h1.4c1.1,0,2-0.4,2.6-1.1s0.9-1.8,0.9-3.2v-0.8c0-1.4-0.3-2.5-0.9-3.3
				s-1.5-1.1-2.6-1.1H130.2z"/>
			<path class="st1" d="M148.8,220.7h-5.6v3.8h6.6v2.4h-9.5v-14.2h9.5v2.4h-6.6v3.4h5.6V220.7z"/>
			<path class="st1" d="M156.8,221.7h-2.3v5.2h-2.9v-14.2h5.3c1.7,0,3,0.4,3.9,1.1c0.9,0.7,1.4,1.8,1.4,3.2c0,1-0.2,1.8-0.6,2.4
				s-1.1,1.2-1.9,1.5l3.1,5.8v0.1h-3.1L156.8,221.7z M154.5,219.3h2.4c0.7,0,1.3-0.2,1.7-0.6c0.4-0.4,0.6-0.9,0.6-1.5
				c0-0.7-0.2-1.2-0.6-1.6s-1-0.6-1.8-0.6h-2.4V219.3z"/>
			<path class="st1" d="M172.9,220.7h-5.6v3.8h6.6v2.4h-9.5v-14.2h9.5v2.4h-6.6v3.4h5.6V220.7z"/>
			<path class="st1" d="M186.7,222.1c-0.1,1.5-0.7,2.7-1.7,3.6c-1,0.9-2.4,1.3-4,1.3c-1.8,0-3.3-0.6-4.3-1.8s-1.6-2.9-1.6-5.1v-0.9
				c0-1.4,0.2-2.6,0.7-3.6c0.5-1,1.2-1.8,2.1-2.4c0.9-0.6,1.9-0.8,3.1-0.8c1.6,0,3,0.4,4,1.3c1,0.9,1.6,2.1,1.7,3.7h-2.9
				c-0.1-0.9-0.3-1.6-0.8-2s-1.1-0.6-2-0.6c-1,0-1.7,0.3-2.2,1c-0.5,0.7-0.7,1.8-0.7,3.3v1.1c0,1.5,0.2,2.7,0.7,3.4
				c0.5,0.7,1.2,1.1,2.2,1.1c0.9,0,1.6-0.2,2-0.6c0.4-0.4,0.7-1.1,0.8-1.9H186.7z"/>
			<path class="st1" d="M200.2,226.9h-2.9v-6.1h-5.7v6.1h-2.9v-14.2h2.9v5.8h5.7v-5.8h2.9V226.9z"/>
			<path class="st1" d="M211,223.9h-5.1l-1,2.9h-3.1l5.3-14.2h2.7l5.3,14.2H212L211,223.9z M206.6,221.6h3.6l-1.8-5.3L206.6,221.6z"
				/>
			<path class="st1" d="M226.3,219.1l3-6.4h3.2l-4.7,9.1v5.2h-3v-5.2l-4.7-9.1h3.2L226.3,219.1z"/>
			<path class="st1" d="M244,223.3l3.2-10.7h3.3l-5,14.2h-3.1l-4.9-14.2h3.3L244,223.3z"/>
			<path class="st1" d="M260.4,220.7h-5.6v3.8h6.6v2.4h-9.5v-14.2h9.5v2.4h-6.6v3.4h5.6V220.7z"/>
			<path class="st1" d="M274.6,226.9h-2.9l-5.7-9.4v9.4h-2.9v-14.2h2.9l5.7,9.4v-9.4h2.9V226.9z"/>
			<path class="st1" d="M285.4,223.9h-5.1l-1,2.9h-3.1l5.3-14.2h2.7l5.3,14.2h-3.1L285.4,223.9z M281,221.6h3.6l-1.8-5.3L281,221.6z
				"/>
		</g>
		<g class="st0">
			<path class="st2" d="M79.4,193.1c-0.3,3.6-1.6,6.4-4,8.5c-2.4,2.1-5.5,3.1-9.5,3.1c-4.3,0-7.7-1.4-10.1-4.3
				c-2.5-2.9-3.7-6.8-3.7-11.9v-2c0-3.2,0.6-6,1.7-8.5c1.1-2.4,2.8-4.3,4.9-5.6c2.1-1.3,4.5-2,7.3-2c3.9,0,7,1,9.3,3.1
				c2.4,2.1,3.7,5,4.1,8.7h-6.9c-0.2-2.2-0.8-3.7-1.8-4.7c-1-1-2.6-1.5-4.7-1.5c-2.3,0-4,0.8-5.2,2.5c-1.1,1.6-1.7,4.2-1.8,7.7v2.5
				c0,3.6,0.5,6.2,1.6,7.9c1.1,1.7,2.8,2.5,5.2,2.5c2.1,0,3.7-0.5,4.8-1.5c1-1,1.6-2.5,1.8-4.5H79.4z"/>
			<path class="st2" d="M102.8,197.3H90.7l-2.3,6.9h-7.3l12.4-33.4h6.4l12.5,33.4h-7.3L102.8,197.3z M92.6,191.7h8.4l-4.2-12.5
				L92.6,191.7z"/>
			<path class="st2" d="M127.9,192h-5.5v12.2h-6.9v-33.4H128c3.9,0,7,0.9,9.1,2.6c2.1,1.8,3.2,4.2,3.2,7.5c0,2.3-0.5,4.2-1.5,5.7
				c-1,1.5-2.5,2.7-4.5,3.6l7.2,13.7v0.3h-7.4L127.9,192z M122.4,186.4h5.6c1.7,0,3.1-0.4,4-1.3c0.9-0.9,1.4-2.1,1.4-3.6
				c0-1.6-0.4-2.8-1.3-3.7c-0.9-0.9-2.3-1.4-4.1-1.4h-5.5V186.4z"/>
			<path class="st2" d="M173,188.3c0,3.3-0.6,6.2-1.7,8.7c-1.2,2.5-2.8,4.4-5,5.7c-2.2,1.3-4.6,2-7.4,2c-2.8,0-5.2-0.7-7.4-2
				c-2.2-1.3-3.9-3.2-5-5.7s-1.8-5.3-1.8-8.5v-1.7c0-3.3,0.6-6.2,1.8-8.7c1.2-2.5,2.9-4.4,5-5.8c2.2-1.3,4.6-2,7.4-2
				c2.8,0,5.3,0.7,7.4,2c2.2,1.3,3.8,3.3,5,5.8c1.2,2.5,1.8,5.4,1.8,8.7V188.3z M166,186.7c0-3.5-0.6-6.2-1.9-8
				c-1.3-1.8-3-2.7-5.4-2.7c-2.3,0-4.1,0.9-5.3,2.7c-1.3,1.8-1.9,4.4-1.9,7.9v1.6c0,3.4,0.6,6.1,1.9,7.9c1.3,1.9,3.1,2.8,5.4,2.8
				c2.3,0,4.1-0.9,5.3-2.7c1.2-1.8,1.9-4.5,1.9-7.9V186.7z M160.1,161.8h7.2L161,169h-5.4L160.1,161.8z"/>
			<path class="st2" d="M201.2,176.4H191v27.8h-6.9v-27.8H174v-5.6h27.2V176.4z"/>
			<path class="st2" d="M212.4,204.2h-6.9v-33.4h6.9V204.2z"/>
			<path class="st2" d="M218.8,204.2v-33.4h10.3c2.9,0,5.6,0.7,7.9,2c2.3,1.3,4.1,3.2,5.4,5.6s2,5.2,2,8.3v1.5
				c0,3.1-0.6,5.9-1.9,8.3c-1.3,2.4-3.1,4.3-5.4,5.6s-4.9,2-7.9,2H218.8z M225.7,176.4v22.3h3.3c2.7,0,4.8-0.9,6.2-2.6
				c1.4-1.8,2.1-4.3,2.2-7.6v-1.8c0-3.4-0.7-6-2.1-7.7c-1.4-1.8-3.5-2.6-6.2-2.6H225.7z"/>
			<path class="st2" d="M267.7,197.3h-12.1l-2.3,6.9h-7.3l12.4-33.4h6.4l12.5,33.4h-7.3L267.7,197.3z M257.5,191.7h8.4l-4.2-12.5
				L257.5,191.7z"/>
		</g>
	</g>
	<g id="Grupo_133809" transform="translate(410.516 7560.667)">
		<rect id="Rectángulo_36458" x="-184.9" y="388.3" class="st1" width="266.2" height="2.5"/>
	</g>
	<g class="st0">
		<path class="st1" d="M199.5,7937h-15.4v-59.4l-18.4,5.7v-12.4l32.1-11.5h1.6V7937z"/>
	</g>
</g>
</svg>
