<?xml version="1.0" encoding="utf-8"?>
<!-- Generator: Adobe Illustrator 26.0.1, SVG Export Plug-In . SVG Version: 6.00 Build 0)  -->
<svg version="1.1" id="Layer_1" xmlns="http://www.w3.org/2000/svg" xmlns:xlink="http://www.w3.org/1999/xlink" x="0px" y="0px"
	 viewBox="0 0 456.8 560.1" style="enable-background:new 0 0 456.8 560.1;" xml:space="preserve">
<style type="text/css">
	.st0{opacity:0.354;fill:#A4A4B4;enable-background:new    ;}
	.st1{opacity:0.31;fill:#A4A4B4;enable-background:new    ;}
	.st2{fill:#A4A4B4;}
	.st3{clip-path:url(#SVGID_00000023243745448505292370000008647295396005670541_);}
	.st4{fill:#E8F3FC;}
	.st5{opacity:0.16;fill:#050505;enable-background:new    ;}
	.st6{fill:#A7C1CE;}
	.st7{fill:#7D888C;}
	.st8{fill:#475054;}
	.st9{fill:#FFFFFF;}
	.st10{fill:#6D6D6D;}
	.st11{fill:#E6B89C;}
	.st12{fill:#050505;}
	.st13{fill:#D93328;}
	.st14{opacity:0.24;fill:url(#Trazado_165785_00000034768787813215266720000016710681227315847303_);enable-background:new    ;}
	.st15{opacity:0.24;fill:url(#Trazado_165786_00000101101848137527218360000005730083039293307541_);enable-background:new    ;}
	.st16{opacity:0.24;fill:url(#Trazado_165787_00000138542491734101382800000001536467720361466527_);enable-background:new    ;}
	.st17{opacity:0.24;fill:url(#Trazado_165785-2_00000142140307291521807050000016635356455463568826_);enable-background:new    ;}
	.st18{opacity:0.24;fill:url(#Trazado_165786-2_00000039133894272802416330000007560452940265816991_);enable-background:new    ;}
	.st19{opacity:0.24;fill:url(#Trazado_165787-2_00000101784139910837807690000003403711916457864581_);enable-background:new    ;}
	.st20{fill:#BACFF4;}
	.st21{opacity:0.47;fill:#FFFFFF;enable-background:new    ;}
	.st22{opacity:0.53;fill:#050505;enable-background:new    ;}
	.st23{fill:#868695;}
	.st24{fill:#D7E9F4;}
	.st25{opacity:0.15;fill:#515151;enable-background:new    ;}
	.st26{fill:#F7B242;}
	.st27{fill:#1D272B;}
	.st28{fill:#E8E8E8;}
	.st29{fill:#DFEBF4;}
	.st30{fill:#BC8364;}
	.st31{opacity:0.23;fill:#020202;enable-background:new    ;}
	.st32{opacity:0.49;fill:#4B4B4C;enable-background:new    ;}
	.st33{fill:#666666;}
	.st34{fill:#35302C;}
	.st35{fill:#1A1A1A;}
	.st36{fill:#333333;}
	.st37{opacity:0.43;fill:#FFFFFF;enable-background:new    ;}
	.st38{opacity:0.49;fill:#1A1A1A;enable-background:new    ;}
	.st39{fill:#BA6565;}
	.st40{opacity:0.52;fill:#BA6565;enable-background:new    ;}
	.st41{fill:#934C4C;}
	.st42{fill:#EEEBF5;}
	.st43{opacity:0.37;fill:#333333;enable-background:new    ;}
	.st44{fill:#B3B3B3;}
	.st45{fill:#64546F;}
	.st46{fill:#D1EBEA;}
	.st47{fill:#39666E;}
	.st48{fill:#79AAB1;}
	.st49{fill:#1F2A35;}
	.st50{fill:#ABC6C9;}
	.st51{fill:#C1D4D7;}
	.st52{fill:#EAF2F2;}
	.st53{fill:#8AB5BB;}
	.st54{fill:#FFFFFA;}
	.st55{fill:#DADBDE;}
	.st56{fill:#E2E3E5;}
	.st57{fill:#526366;}
	.st58{fill:#CDDDDF;}
	.st59{fill:url(#Elipse_4457_00000116941284200647188720000002009783750385579435_);}
	.st60{fill:#D8E4E6;}
	.st61{fill:#EEF1F1;}
	.st62{fill:#797F85;}
	.st63{fill:#51799E;}
	.st64{fill:#008F85;}
	.st65{fill:#ACC1D1;}
	.st66{fill:#707B82;}
	.st67{fill:#C7D0D8;}
	.st68{opacity:0.25;enable-background:new    ;}
	.st69{fill:url(#Rectángulo_35599_00000182524455446393099700000002880258088510264206_);}
	.st70{fill:#F2F3F4;}
	.st71{fill:#7AA2CC;}
	.st72{clip-path:url(#SVGID_00000176758570538625624760000006702641526027112332_);}
	.st73{opacity:0.26;fill:#FFFFFF;enable-background:new    ;}
	.st74{fill:#B5D6FF;}
	.st75{fill:#F2F2F2;}
	.st76{opacity:0.41;enable-background:new    ;}
	.st77{fill:#175A8B;}
	.st78{opacity:0.17;enable-background:new    ;}
	.st79{opacity:0.28;fill:#FFFFFF;enable-background:new    ;}
	.st80{enable-background:new    ;}
</style>
<g id="Grupo_134253" transform="translate(-905.521 -3599.451)">
	<g id="Grupo_129307" transform="translate(-153.354 -145.485)">
		<g id="Grupo_128802" transform="translate(1058.875 3744.937)">
			<path id="Trazado_151846" class="st0" d="M396.5,502.2c17.3-32.6,22.2-75,13.1-112.4c-5.8-23.6-16.9-45.6-18.3-70.3
				c-2.8-49.3,33-89.1,40.4-137.7c3.3-21.3-0.3-46.2-14.3-59.1c-13.8-12.8-33.5-10.2-49.2-1.2s-28.9,23.3-43.9,33.8
				c-15,10.5-33.5,17-49.4,8.6c-16.1-8.5-25.2-29.8-30.3-50.5s-7.6-42.9-16.3-61.7c-14.4-31-45-47.9-73.5-43.6S100.7,36.5,87,68
				S71,137.6,77.8,172.4c3.5,17.6,9.1,34.5,12.2,52.3s3.4,37.2-3.5,53.2c-14.5,33.4-52.7,38.1-72.7,66.8
				c-16.5,23.7-17,59.8-7.7,88.9s27,52.7,44.5,75.2c81.9,3.4,165.3,3.7,247.2,7.1C329.6,517,364.7,504.5,396.5,502.2z"/>
			<path id="Trazado_151847" class="st1" d="M366.6,150.3c-0.2,22.5,21.2,42,17.4,64.2c-2,11.9-11,23.9-5.8,34.7
				c4.6,9.6,18,11.2,28.1,8.1c23.8-7.3,38.3-31.6,45.2-55.6c6.5-22.5,8.1-47.7-2.3-68.6c-8.4-16.9-27.8-31.8-47.5-30.5
				C383.8,103.9,366.7,133.4,366.6,150.3z"/>
			<path id="Trazado_151848" class="st1" d="M57.7,78.3c-20.3,33.8-21.2,78.4-2.3,113c6,10.9,14,21.1,24.9,27.2s24.9,7.4,35.7,1.3
				c16.4-9.4,20-31.4,18.7-50.3s-5.6-38.6,1.7-56c4.7-11.4,13.8-20.2,21.9-29.5s15.6-20.2,16-32.5c1.1-31.9-32.8-29.5-53.2-22.9
				C95,36.9,71.8,54.7,57.7,78.3z"/>
			<g id="Grupo_107069" transform="translate(11.339 0)">
				<path id="Trazado_151849" class="st2" d="M380.3,508.8l-1.7-2c4.8-6.6,12.5-21.7,9.9-48.9c-1.2-12.1-4-24.1-6.8-35.6
					c-1.2-5.2-2.5-10.5-3.6-15.8c-11.9-56.6-6.7-119,14.3-171.3c1.9-4.6,3.9-9.3,5.8-13.8c5.8-13.3,11.8-27.1,14.4-42
					c4.5-26.1-4.4-45.7-14.6-52.9c-9.8-6.9-23.6-5.8-37.9,2.9c-5.3,3.3-10.4,6.9-15.2,10.8c-6.5,5-13.2,10.1-20.4,13.7
					c-28.4,14.3-63.9,2.1-82.6-28.3c-9-14.6-14.1-32.3-19-49.4c-1.9-6.6-3.9-13.5-6-20c-6.7-20.4-19-45.9-39.5-52
					c-18-5.4-36.1,6.4-48.2,17.3c-23.2,20.9-39.3,48.6-45.9,79.2c-4.4,20.4-4.5,42.7-4.7,64.2c-0.3,32-0.5,65.2-14.9,91.8
					C56.9,269,47.9,278.6,39.2,288c-8.2,8.8-16.6,17.8-22.9,28.8C2,341.8-1.5,377,6.7,413.6c7.3,32.9,22.3,62,36.8,90.2l-2,1.6
					c-14.6-28.4-29.6-57.7-37.1-91c-8.4-37.5-4.7-73.6,10-99.3c6.5-11.3,15-20.5,23.3-29.4c8.6-9.2,17.5-18.8,23.9-30.6
					c14-25.9,14.3-57.2,14.5-90.2c0.2-21.7,0.3-44.1,4.8-64.9c6.7-31.2,23.1-59.5,46.8-80.8C140.2,8,159-4.2,177.8,1.4
					c21.4,6.4,34.2,32.8,41.1,53.8c2.2,6.6,4.2,13.5,6.1,20.1c4.8,16.9,9.8,34.3,18.6,48.6c18.1,29.4,52.4,41.1,79.8,27.3
					c7-3.5,13.7-8.6,20.1-13.5c5-3.9,10.1-7.6,15.4-11c15-9.1,29.6-10.1,40.1-2.8c10.9,7.7,20.6,28.5,15.8,56.1
					c-2.6,15.3-8.7,29.3-14.6,42.8c-1.9,4.5-4,9.1-5.8,13.7c-20.8,51.6-25.9,113.3-14.1,169.2c1.1,5.3,2.4,10.6,3.6,15.7
					c2.8,11.7,5.7,23.8,6.9,36.1C393.5,485.9,385.4,501.9,380.3,508.8z"/>
			</g>
		</g>
		<g>
			<defs>
				<rect id="SVGID_1_" x="1090.5" y="3790" width="410.9" height="515.1"/>
			</defs>
			<clipPath id="SVGID_00000013915068072488699580000009982697177792423855_">
				<use xlink:href="#SVGID_1_"  style="overflow:visible;"/>
			</clipPath>
			
				<g id="Enmascarar_grupo_188" transform="translate(1090.544 3835.959)" style="clip-path:url(#SVGID_00000013915068072488699580000009982697177792423855_);">
				<g id="Grupo_128824" transform="translate(7.691 -102.637)">
					<g id="Grupo_128812" transform="translate(0 92.615)">
						<rect id="Rectángulo_35578" x="7.8" y="4.3" class="st4" width="361.6" height="423"/>
						<rect id="Rectángulo_35579" x="7.8" y="384.5" class="st5" width="361.6" height="11.6"/>
						<g id="Grupo_128803" transform="translate(248.397 26.002)">
							<rect id="Rectángulo_35580" x="0.8" y="0.9" class="st6" width="106.2" height="65"/>
							<path id="Trazado_165763" class="st7" d="M107,66.7H0.8c-0.4,0-0.8-0.4-0.8-0.9v-65C0,0.4,0.3,0,0.8,0H107
								c0.4,0,0.8,0.4,0.8,0.9v65C107.8,66.3,107.4,66.7,107,66.7z M1.5,65h104.7V1.7H1.5V65z"/>
						</g>
						<g id="Grupo_128804" transform="translate(248.397 153.28)">
							<rect id="Rectángulo_35581" x="0.8" y="0.9" class="st6" width="106.2" height="65"/>
							<path id="Trazado_165764" class="st7" d="M107,66.7H0.8c-0.4,0-0.8-0.4-0.8-0.9v-65C0,0.4,0.3,0,0.8,0H107
								c0.4,0,0.8,0.4,0.8,0.9v65C107.8,66.3,107.4,66.7,107,66.7z M1.5,65h104.7V1.7H1.5V65z"/>
						</g>
						<g id="Grupo_128805" transform="translate(248.397 269.984)">
							<rect id="Rectángulo_35582" x="0.8" y="0.9" class="st6" width="106.2" height="65"/>
							<path id="Trazado_165765" class="st7" d="M107,66.7H0.8c-0.4,0-0.8-0.4-0.8-0.9v-65C0,0.4,0.3,0,0.8,0H107
								c0.4,0,0.8,0.4,0.8,0.9v65C107.8,66.3,107.4,66.7,107,66.7z M1.5,65h104.7V1.7H1.5V65z"/>
						</g>
						<g id="Grupo_128806" transform="translate(134.856 26.002)">
							<rect id="Rectángulo_35583" x="0.8" y="0.9" class="st6" width="106.2" height="65"/>
							<path id="Trazado_165766" class="st7" d="M107,66.7H0.8c-0.4,0-0.8-0.4-0.8-0.9v-65C0,0.4,0.3,0,0.8,0H107
								c0.4,0,0.8,0.4,0.8,0.9v65C107.8,66.3,107.4,66.7,107,66.7z M1.5,65h104.7V1.7H1.5V65z"/>
						</g>
						<g id="Grupo_128807" transform="translate(134.856 153.28)">
							<rect id="Rectángulo_35584" x="0.8" y="0.9" class="st6" width="106.2" height="65"/>
							<path id="Trazado_165767" class="st7" d="M107,66.7H0.8c-0.4,0-0.8-0.4-0.8-0.9v-65C0,0.4,0.3,0,0.8,0H107
								c0.4,0,0.8,0.4,0.8,0.9v65C107.8,66.3,107.4,66.7,107,66.7z M1.5,65h104.7V1.7H1.5V65z"/>
						</g>
						<g id="Grupo_133079" transform="translate(134.856 269.983)">
							<rect id="Rectángulo_35584-2" x="0.8" y="0.9" class="st6" width="106.2" height="65"/>
							<path id="Trazado_165767-2" class="st7" d="M107,66.7H0.8c-0.4,0-0.8-0.4-0.8-0.9v-65C0,0.4,0.3,0,0.8,0H107
								c0.4,0,0.8,0.4,0.8,0.9v65C107.8,66.3,107.4,66.7,107,66.7z M1.5,65h104.7V1.7H1.5V65z"/>
						</g>
						<g id="Grupo_128808" transform="translate(19.338 26.002)">
							<rect id="Rectángulo_35586" x="0.8" y="0.9" class="st6" width="106.2" height="65"/>
							<path id="Trazado_165768" class="st7" d="M107,66.7H0.8c-0.4,0-0.8-0.4-0.8-0.9v-65C0,0.4,0.3,0,0.8,0H107
								c0.4,0,0.8,0.4,0.8,0.9v65C107.8,66.3,107.4,66.7,107,66.7z M1.5,65h104.7V1.7H1.5V65z"/>
						</g>
						<g id="Grupo_128809" transform="translate(19.338 153.28)">
							<rect id="Rectángulo_35587" x="0.8" y="0.9" class="st6" width="106.2" height="65"/>
							<path id="Trazado_165769" class="st7" d="M107,66.7H0.8c-0.4,0-0.8-0.4-0.8-0.9v-65C0,0.4,0.3,0,0.8,0H107
								c0.4,0,0.8,0.4,0.8,0.9v65C107.8,66.3,107.4,66.7,107,66.7z M1.5,65h104.7V1.7H1.5V65z"/>
						</g>
						<g id="Grupo_128810" transform="translate(19.338 269.984)">
							<rect id="Rectángulo_35588" x="0.8" y="0.9" class="st6" width="106.2" height="65"/>
							<path id="Trazado_165770" class="st7" d="M107,66.7H0.8c-0.4,0-0.8-0.4-0.8-0.9v-65C0,0.4,0.3,0,0.8,0H107
								c0.4,0,0.8,0.4,0.8,0.9v65C107.8,66.3,107.4,66.7,107,66.7z M1.5,65h104.7V1.7H1.5V65z"/>
						</g>
						<path id="Trazado_165771" class="st4" d="M320.5,37.3H284c-1.1,0.1-2,1.1-1.9,2.2l0,0c-0.1,1.1,0.8,2.1,1.9,2.2h36.5
							c1.1-0.1,2-1.1,1.9-2.2l0,0C322.5,38.3,321.6,37.4,320.5,37.3z"/>
						<path id="Trazado_165772" class="st4" d="M320.5,158H284c-1.1,0.1-2,1.1-1.9,2.2l0,0c-0.1,1.1,0.8,2.1,1.9,2.2h36.5
							c1.1-0.1,2-1.1,1.9-2.2l0,0C322.5,159.1,321.6,158.1,320.5,158z"/>
						<path id="Trazado_165773" class="st4" d="M320.5,263.1H284c-1.1,0.1-2,1.1-1.9,2.2l0,0c-0.1,1.1,0.8,2.1,1.9,2.2h36.5
							c1.1-0.1,2-1.1,1.9-2.2l0,0C322.5,264.2,321.6,263.2,320.5,263.1z"/>
						<path id="Trazado_165774" class="st4" d="M88.5,37.3H52c-1.1,0.1-2,1.1-1.9,2.2l0,0c-0.1,1.1,0.8,2.1,1.9,2.2h36.5
							c1.1-0.1,2-1.1,1.9-2.2l0,0C90.4,38.3,89.6,37.4,88.5,37.3z"/>
						<path id="Trazado_165775" class="st4" d="M88.5,158H52c-1.1,0.1-2,1.1-1.9,2.2l0,0c-0.1,1.1,0.8,2.1,1.9,2.2h36.5
							c1.1-0.1,2-1.1,1.9-2.2l0,0C90.4,159.1,89.6,158.1,88.5,158z"/>
						<path id="Trazado_165776" class="st4" d="M206,37.3h-36.5c-1.1,0.1-2,1.1-1.9,2.2l0,0c-0.1,1.1,0.8,2.1,1.9,2.2H206
							c1.1-0.1,2-1.1,1.9-2.2l0,0C208,38.3,207.1,37.4,206,37.3z"/>
						<path id="Trazado_165777" class="st4" d="M206,158h-36.5c-1.1,0.1-2,1.1-1.9,2.2l0,0c-0.1,1.1,0.8,2.1,1.9,2.2H206
							c1.1-0.1,2-1.1,1.9-2.2l0,0C208,159.1,207.1,158.1,206,158z"/>
						<path id="Trazado_165778" class="st4" d="M88.5,263.1H52c-1.1,0.1-2,1.1-1.9,2.2l0,0c-0.1,1.1,0.8,2.1,1.9,2.2h36.5
							c1.1-0.1,2-1.1,1.9-2.2l0,0C90.4,264.2,89.6,263.2,88.5,263.1z"/>
						<g id="Grupo_133078" transform="translate(-117.026 -117.353)">
							<rect id="Rectángulo_35585" x="135.6" y="270.6" class="st8" width="106.2" height="65"/>
							<rect id="Rectángulo_35589" x="134.1" y="332.9" class="st6" width="109.6" height="9.1"/>
							<path id="Trazado_165779" class="st9" d="M137.9,327.4h101.5c0,0-7-8.7-20.6-13.9s-13.6-9.8-27.6-9.2
								S155.9,313.5,137.9,327.4z"/>
							<path id="Trazado_165780" class="st10" d="M162.9,328.4c0,0,9.5-1.2,16.6-5.9s5.8-6.8,15.4-6.4s18.8,12.2,18.8,12.2H162.9z"
								/>
							<path id="Trazado_165781" class="st11" d="M204.4,303.6c-0.2-0.2-0.6-0.1-0.8,0c-0.2,0.2-0.4,0.5-0.5,0.7
								c-0.1,0.2-0.1,0.3-0.2,0.5c-0.1-0.2-0.2-0.3-0.3-0.4c0.3-0.5,0.6-1.1,0.8-1.7c0.2-0.5,0.2-1,0.1-1.5
								c-0.1-0.2-0.3-0.4-0.6-0.5c-0.4-0.1-0.8,0-1.1,0.3c-0.1,0.2-0.2,0.3-0.2,0.5l-0.4,1.5c-0.1-0.1-0.2-0.1-0.3-0.2
								c0.2-0.6,0.3-1.2,0.4-1.8c0.1-0.3,0.1-0.6,0-0.9c-0.1-0.4-0.4-0.6-0.8-0.7c-0.4,0-0.7,0.3-0.8,0.6c-0.1,0.2-0.1,0.4-0.1,0.6
								c0,0.5-0.1,1.1-0.1,1.6c-0.2,0-0.3-0.1-0.5-0.1c0,0,0-0.1,0-0.1c0.1-0.6,0.1-1.1,0.1-1.7c0-0.2,0-0.4-0.1-0.6
								c-0.1-0.3-0.2-0.5-0.5-0.7c-0.2-0.1-0.5-0.1-0.7,0c-0.2,0.2-0.4,0.5-0.4,0.8c0,0.3,0,0.6,0,1c0,0.4,0.1,0.8,0.1,1.2
								c-0.2,0-0.4,0-0.6,0.1c-0.1-0.5-0.2-1-0.2-1.5c0-0.5,0-1-0.1-1.5c-0.2-0.6-0.6-1.1-1.2-1.3c-0.6-0.1-1.2,0.1-1.6,0.6
								c-0.5,0.7-0.6,1.5-0.4,2.3c0.2,0.8,0.5,1.5,0.9,2.2c0.1,0.2,0.2,0.4,0.3,0.5c-0.7,1.1-0.9,2.4-0.7,3.7
								c0.2,1.3,0.6,2.5,0.8,3.8c0.3,2,0.2,4-0.4,5.9c-0.6,1.9-1.6,3.7-1.7,5.7c-0.1,1.7,0.6,3.3,1.9,4.3c1.3,0.9,3,0.8,4.2-0.2
								c0.9-0.9,1.5-2.1,1.8-3.3c1.4-4.1,2.4-8.3,3.1-12.5c0.2-1.3,0.3-2.6,0.2-3.9c0.1-0.2,0.2-0.5,0.3-0.7
								c0.2-0.3,0.4-0.5,0.5-0.8c0.2-0.3,0.3-0.7,0.3-1.1C204.8,304.2,204.7,303.8,204.4,303.6z"/>
							<path id="Trazado_165782" class="st11" d="M178.2,303.6c0.2-0.2,0.6-0.1,0.8,0c0.2,0.2,0.4,0.5,0.5,0.7
								c0.1,0.2,0.1,0.3,0.2,0.5c0.1-0.2,0.2-0.3,0.3-0.4c-0.3-0.5-0.6-1.1-0.8-1.7c-0.2-0.5-0.2-1-0.1-1.5c0.1-0.2,0.3-0.4,0.6-0.5
								c0.4-0.1,0.8,0,1.1,0.3c0.1,0.2,0.2,0.3,0.2,0.5l0.4,1.5c0.1-0.1,0.2-0.1,0.3-0.2c-0.2-0.6-0.3-1.2-0.4-1.8
								c-0.1-0.3-0.1-0.6,0-0.9c0.1-0.4,0.4-0.6,0.8-0.7c0.4,0,0.7,0.3,0.8,0.6c0.1,0.2,0.1,0.4,0.1,0.6c0,0.5,0.1,1.1,0.1,1.6
								c0.2,0,0.3-0.1,0.5-0.1c0,0,0-0.1,0-0.1c-0.1-0.6-0.1-1.1-0.1-1.7c0-0.2,0-0.4,0.1-0.6c0.1-0.3,0.2-0.5,0.5-0.7
								c0.2-0.1,0.5-0.1,0.7,0c0.2,0.2,0.4,0.5,0.4,0.8c0,0.3,0,0.6,0,1l-0.1,1.2c0.2,0,0.4,0,0.6,0.1c0.1-0.5,0.2-1,0.2-1.5
								c0-0.5,0-1,0.1-1.5c0.2-0.6,0.6-1.1,1.2-1.3c0.6-0.1,1.2,0.1,1.6,0.6c0.5,0.7,0.6,1.5,0.4,2.3c-0.2,0.8-0.5,1.5-0.9,2.2
								l-0.3,0.5c0.7,1.1,0.9,2.4,0.7,3.7c-0.2,1.3-0.6,2.5-0.8,3.8c-0.3,2-0.2,4,0.4,5.9c0.6,1.9,1.6,3.7,1.7,5.7
								c0.1,1.7-0.6,3.3-1.9,4.3c-1.3,0.9-3,0.8-4.2-0.2c-0.9-0.9-1.5-2.1-1.8-3.3c-1.4-4.1-2.4-8.3-3.1-12.5
								c-0.2-1.3-0.3-2.6-0.2-3.9c-0.1-0.2-0.2-0.5-0.3-0.7c-0.2-0.3-0.4-0.5-0.5-0.8c-0.2-0.3-0.3-0.7-0.3-1.1
								C177.8,304.2,177.9,303.8,178.2,303.6z"/>
							<path id="Trazado_165783" class="st12" d="M196.4,306.7c0,0-0.1,0-0.1-0.1c-0.8-1.1-1.6-2.3-2.1-3.6c0-0.1,0-0.2,0.1-0.2
								c0.1,0,0.1,0,0.2,0.1c0,0,0,0,0,0c0.5,1.2,1.1,2.3,1.9,3.3c0.4-1.6,0.6-3.2,0.5-4.8c0-0.1,0-0.2,0.1-0.2
								c0.1,0,0.1,0.1,0.2,0.1c0.1,1.8-0.1,3.5-0.6,5.2C196.6,306.6,196.5,306.7,196.4,306.7L196.4,306.7z"/>
							<path id="Trazado_165784" class="st13" d="M197.7,305.6l-1.4-2.2l-1.2,2.2v5.2h2.6L197.7,305.6z"/>
							
								<linearGradient id="Trazado_165785_00000023975077161142020730000006701457238010269097_" gradientUnits="userSpaceOnUse" x1="365.3864" y1="688.2482" x2="365.3864" y2="687.2482" gradientTransform="matrix(0.2114 0 0 -4.581 118.4129 3458.5627)">
								<stop  offset="0" style="stop-color:#F5F5F5"/>
								<stop  offset="0.25" style="stop-color:#F5F5F5"/>
								<stop  offset="1" style="stop-color:#A7B3CF"/>
							</linearGradient>
							
								<path id="Trazado_165785" style="opacity:0.24;fill:url(#Trazado_165785_00000023975077161142020730000006701457238010269097_);enable-background:new    ;" d="
								M195.7,305.7L195.7,305.7c-0.1,0-0.1,0.1-0.1,0.1v4.3c0,0.1,0,0.1,0.1,0.1l0,0c0.1,0,0.1-0.1,0.1-0.1v-4.3
								C195.8,305.8,195.7,305.7,195.7,305.7z"/>
							
								<linearGradient id="Trazado_165786_00000114796698354084212080000001641231109224902819_" gradientUnits="userSpaceOnUse" x1="367.1297" y1="688.2482" x2="367.1297" y2="687.2482" gradientTransform="matrix(0.2104 0 0 -4.581 118.9517 3458.5627)">
								<stop  offset="0" style="stop-color:#F5F5F5"/>
								<stop  offset="0.25" style="stop-color:#F5F5F5"/>
								<stop  offset="1" style="stop-color:#A7B3CF"/>
							</linearGradient>
							
								<path id="Trazado_165786" style="opacity:0.24;fill:url(#Trazado_165786_00000114796698354084212080000001641231109224902819_);enable-background:new    ;" d="
								M196.2,305.7L196.2,305.7c-0.1,0-0.1,0.1-0.1,0.1v4.3c0,0.1,0,0.1,0.1,0.1l0,0c0.1,0,0.1-0.1,0.1-0.1v-4.3
								C196.3,305.8,196.3,305.7,196.2,305.7z"/>
							
								<linearGradient id="Trazado_165787_00000047781402746106130830000017676920214154299562_" gradientUnits="userSpaceOnUse" x1="367.1297" y1="688.2482" x2="367.1297" y2="687.2482" gradientTransform="matrix(0.2104 0 0 -4.581 119.4687 3458.5627)">
								<stop  offset="0" style="stop-color:#F5F5F5"/>
								<stop  offset="0.25" style="stop-color:#F5F5F5"/>
								<stop  offset="1" style="stop-color:#A7B3CF"/>
							</linearGradient>
							
								<path id="Trazado_165787" style="opacity:0.24;fill:url(#Trazado_165787_00000047781402746106130830000017676920214154299562_);enable-background:new    ;" d="
								M196.7,305.7L196.7,305.7c-0.1,0-0.1,0.1-0.1,0.1v4.3c0,0.1,0,0.1,0.1,0.1l0,0c0.1,0,0.1-0.1,0.1-0.1v-4.3
								C196.8,305.8,196.8,305.7,196.7,305.7z"/>
						</g>
						<g id="Grupo_133080" transform="translate(113.352 -244.631)">
							<rect id="Rectángulo_35585-2" x="135.6" y="270.6" class="st8" width="106.2" height="65"/>
							<rect id="Rectángulo_35589-2" x="134.1" y="332.9" class="st6" width="109.6" height="9.1"/>
							<path id="Trazado_165779-2" class="st9" d="M137.9,327.4h101.5c0,0-7-8.7-20.6-13.9s-13.6-9.8-27.6-9.2
								S155.9,313.5,137.9,327.4z"/>
							<path id="Trazado_165780-2" class="st10" d="M162.9,328.4c0,0,9.5-1.2,16.6-5.9s5.8-6.8,15.4-6.4s18.8,12.2,18.8,12.2H162.9z
								"/>
							<path id="Trazado_165781-2" class="st11" d="M204.4,303.6c-0.2-0.2-0.6-0.1-0.8,0c-0.2,0.2-0.4,0.5-0.5,0.7
								c-0.1,0.2-0.1,0.3-0.2,0.5c-0.1-0.2-0.2-0.3-0.3-0.4c0.3-0.5,0.6-1.1,0.8-1.7c0.2-0.5,0.2-1,0.1-1.5
								c-0.1-0.2-0.3-0.4-0.6-0.5c-0.4-0.1-0.8,0-1.1,0.3c-0.1,0.2-0.2,0.3-0.2,0.5l-0.4,1.5c-0.1-0.1-0.2-0.1-0.3-0.2
								c0.2-0.6,0.3-1.2,0.4-1.8c0.1-0.3,0.1-0.6,0-0.9c-0.1-0.4-0.4-0.6-0.8-0.7c-0.4,0-0.7,0.3-0.8,0.6c-0.1,0.2-0.1,0.4-0.1,0.6
								c0,0.5-0.1,1.1-0.1,1.6c-0.2,0-0.3-0.1-0.5-0.1c0,0,0-0.1,0-0.1c0.1-0.6,0.1-1.1,0.1-1.7c0-0.2,0-0.4-0.1-0.6
								c-0.1-0.3-0.2-0.5-0.5-0.7c-0.2-0.1-0.5-0.1-0.7,0c-0.2,0.2-0.4,0.5-0.4,0.8c0,0.3,0,0.6,0,1c0,0.4,0.1,0.8,0.1,1.2
								c-0.2,0-0.4,0-0.6,0.1c-0.1-0.5-0.2-1-0.2-1.5c0-0.5,0-1-0.1-1.5c-0.2-0.6-0.6-1.1-1.2-1.3c-0.6-0.1-1.2,0.1-1.6,0.6
								c-0.5,0.7-0.6,1.5-0.4,2.3c0.2,0.8,0.5,1.5,0.9,2.2c0.1,0.2,0.2,0.4,0.3,0.5c-0.7,1.1-0.9,2.4-0.7,3.7
								c0.2,1.3,0.6,2.5,0.8,3.8c0.3,2,0.2,4-0.4,5.9c-0.6,1.9-1.6,3.7-1.7,5.7c-0.1,1.7,0.6,3.3,1.9,4.3c1.3,0.9,3,0.8,4.2-0.2
								c0.9-0.9,1.5-2.1,1.8-3.3c1.4-4.1,2.4-8.3,3.1-12.5c0.2-1.3,0.3-2.6,0.2-3.9c0.1-0.2,0.2-0.5,0.3-0.7
								c0.2-0.3,0.4-0.5,0.5-0.8c0.2-0.3,0.3-0.7,0.3-1.1C204.8,304.2,204.7,303.8,204.4,303.6z"/>
							<path id="Trazado_165782-2" class="st11" d="M178.2,303.6c0.2-0.2,0.6-0.1,0.8,0c0.2,0.2,0.4,0.5,0.5,0.7
								c0.1,0.2,0.1,0.3,0.2,0.5c0.1-0.2,0.2-0.3,0.3-0.4c-0.3-0.5-0.6-1.1-0.8-1.7c-0.2-0.5-0.2-1-0.1-1.5c0.1-0.2,0.3-0.4,0.6-0.5
								c0.4-0.1,0.8,0,1.1,0.3c0.1,0.2,0.2,0.3,0.2,0.5l0.4,1.5c0.1-0.1,0.2-0.1,0.3-0.2c-0.2-0.6-0.3-1.2-0.4-1.8
								c-0.1-0.3-0.1-0.6,0-0.9c0.1-0.4,0.4-0.6,0.8-0.7c0.4,0,0.7,0.3,0.8,0.6c0.1,0.2,0.1,0.4,0.1,0.6c0,0.5,0.1,1.1,0.1,1.6
								c0.2,0,0.3-0.1,0.5-0.1c0,0,0-0.1,0-0.1c-0.1-0.6-0.1-1.1-0.1-1.7c0-0.2,0-0.4,0.1-0.6c0.1-0.3,0.2-0.5,0.5-0.7
								c0.2-0.1,0.5-0.1,0.7,0c0.2,0.2,0.4,0.5,0.4,0.8c0,0.3,0,0.6,0,1l-0.1,1.2c0.2,0,0.4,0,0.6,0.1c0.1-0.5,0.2-1,0.2-1.5
								c0-0.5,0-1,0.1-1.5c0.2-0.6,0.6-1.1,1.2-1.3c0.6-0.1,1.2,0.1,1.6,0.6c0.5,0.7,0.6,1.5,0.4,2.3c-0.2,0.8-0.5,1.5-0.9,2.2
								l-0.3,0.5c0.7,1.1,0.9,2.4,0.7,3.7c-0.2,1.3-0.6,2.5-0.8,3.8c-0.3,2-0.2,4,0.4,5.9c0.6,1.9,1.6,3.7,1.7,5.7
								c0.1,1.7-0.6,3.3-1.9,4.3c-1.3,0.9-3,0.8-4.2-0.2c-0.9-0.9-1.5-2.1-1.8-3.3c-1.4-4.1-2.4-8.3-3.1-12.5
								c-0.2-1.3-0.3-2.6-0.2-3.9c-0.1-0.2-0.2-0.5-0.3-0.7c-0.2-0.3-0.4-0.5-0.5-0.8c-0.2-0.3-0.3-0.7-0.3-1.1
								C177.8,304.2,177.9,303.8,178.2,303.6z"/>
							<path id="Trazado_165783-2" class="st12" d="M196.4,306.7c0,0-0.1,0-0.1-0.1c-0.8-1.1-1.6-2.3-2.1-3.6c0-0.1,0-0.2,0.1-0.2
								c0.1,0,0.1,0,0.2,0.1c0,0,0,0,0,0c0.5,1.2,1.1,2.3,1.9,3.3c0.4-1.6,0.6-3.2,0.5-4.8c0-0.1,0-0.2,0.1-0.2
								c0.1,0,0.1,0.1,0.2,0.1c0.1,1.8-0.1,3.5-0.6,5.2C196.6,306.6,196.5,306.7,196.4,306.7L196.4,306.7z"/>
							<path id="Trazado_165784-2" class="st13" d="M197.7,305.6l-1.4-2.2l-1.2,2.2v5.2h2.6L197.7,305.6z"/>
							
								<linearGradient id="Trazado_165785-2_00000050649907584065245200000007494440780787442306_" gradientUnits="userSpaceOnUse" x1="135.0084" y1="815.5262" x2="135.0084" y2="814.5262" gradientTransform="matrix(0.2114 0 0 -4.581 167.1173 4041.6226)">
								<stop  offset="0" style="stop-color:#F5F5F5"/>
								<stop  offset="0.25" style="stop-color:#F5F5F5"/>
								<stop  offset="1" style="stop-color:#A7B3CF"/>
							</linearGradient>
							
								<path id="Trazado_165785-2" style="opacity:0.24;fill:url(#Trazado_165785-2_00000050649907584065245200000007494440780787442306_);enable-background:new    ;" d="
								M195.7,305.7L195.7,305.7c-0.1,0-0.1,0.1-0.1,0.1v4.3c0,0.1,0,0.1,0.1,0.1l0,0c0.1,0,0.1-0.1,0.1-0.1v-4.3
								C195.8,305.8,195.7,305.7,195.7,305.7z"/>
							
								<linearGradient id="Trazado_165786-2_00000168075443222810832970000007597082221778570152_" gradientUnits="userSpaceOnUse" x1="136.7517" y1="815.5262" x2="136.7517" y2="814.5262" gradientTransform="matrix(0.2104 0 0 -4.581 167.424 4041.6226)">
								<stop  offset="0" style="stop-color:#F5F5F5"/>
								<stop  offset="0.25" style="stop-color:#F5F5F5"/>
								<stop  offset="1" style="stop-color:#A7B3CF"/>
							</linearGradient>
							
								<path id="Trazado_165786-2" style="opacity:0.24;fill:url(#Trazado_165786-2_00000168075443222810832970000007597082221778570152_);enable-background:new    ;" d="
								M196.2,305.7L196.2,305.7c-0.1,0-0.1,0.1-0.1,0.1v4.3c0,0.1,0,0.1,0.1,0.1l0,0c0.1,0,0.1-0.1,0.1-0.1v-4.3
								C196.3,305.8,196.3,305.7,196.2,305.7z"/>
							
								<linearGradient id="Trazado_165787-2_00000109016836102270986240000000464785459109145735_" gradientUnits="userSpaceOnUse" x1="136.7517" y1="815.5262" x2="136.7517" y2="814.5262" gradientTransform="matrix(0.2104 0 0 -4.581 167.941 4041.6226)">
								<stop  offset="0" style="stop-color:#F5F5F5"/>
								<stop  offset="0.25" style="stop-color:#F5F5F5"/>
								<stop  offset="1" style="stop-color:#A7B3CF"/>
							</linearGradient>
							
								<path id="Trazado_165787-2" style="opacity:0.24;fill:url(#Trazado_165787-2_00000109016836102270986240000000464785459109145735_);enable-background:new    ;" d="
								M196.7,305.7L196.7,305.7c-0.1,0-0.1,0.1-0.1,0.1v4.3c0,0.1,0,0.1,0.1,0.1l0,0c0.1,0,0.1-0.1,0.1-0.1v-4.3
								C196.8,305.8,196.8,305.7,196.7,305.7z"/>
						</g>
						<g id="Grupo_128811" transform="translate(359.04 148.829)">
							<path id="Trazado_165788" class="st20" d="M0,59.3c0,2.9,2.4,5.3,5,4.5c1.5-0.5,2.6-1.8,2.9-3.3c0.6-2.2-0.5-4.6-2.5-5.6V0
								H2.7v54.9C1,55.7-0.1,57.4,0,59.3z"/>
							<path id="Trazado_165789" class="st13" d="M1.7,59.3c0.2,1.3,1.4,2.2,2.7,2s2.2-1.4,2-2.7c-0.2-1.2-1.2-2-2.3-2
								C2.7,56.7,1.6,57.9,1.7,59.3z"/>
							<path id="Rectángulo_35590" class="st13" d="M4.3,57.1H3.7c-0.1,0-0.2-0.1-0.2-0.2V1.4c0-0.1,0.1-0.2,0.2-0.2h0.6
								c0.1,0,0.2,0.1,0.2,0.2v55.5C4.6,57,4.5,57.1,4.3,57.1z"/>
							<ellipse id="Elipse_4451" class="st21" cx="5.6" cy="60.4" rx="1.6" ry="1.8"/>
						</g>
						<rect id="Rectángulo_35591" x="0" y="381.9" class="st9" width="377.8" height="6.9"/>
						<rect id="Rectángulo_35592" x="7.8" y="2.6" class="st5" width="361.6" height="11.6"/>
						<rect id="Rectángulo_35593" x="0" y="0" class="st9" width="377.8" height="6.9"/>
						<path id="Trazado_165790" class="st22" d="M349.4,393.5L349.4,393.5c-0.8,0.1-1.4,0.7-1.3,1.5v26.1c0,0.8,0.5,1.5,1.3,1.5l0,0
							c0.8-0.1,1.4-0.7,1.3-1.5V395C350.7,394.2,350.2,393.6,349.4,393.5z"/>
						<path id="Trazado_165791" class="st22" d="M345,393.5L345,393.5c-0.8,0.1-1.4,0.7-1.3,1.5v26.1c0,0.8,0.5,1.5,1.3,1.5l0,0
							c0.8-0.1,1.4-0.7,1.3-1.5V395C346.4,394.2,345.8,393.6,345,393.5z"/>
						<path id="Trazado_165792" class="st22" d="M340.7,393.5L340.7,393.5c-0.8,0.1-1.4,0.7-1.3,1.5v26.1c0,0.8,0.5,1.5,1.3,1.5l0,0
							c0.8-0.1,1.4-0.7,1.3-1.5V395C342.1,394.2,341.5,393.6,340.7,393.5z"/>
						<path id="Trazado_165793" class="st22" d="M259,393.5L259,393.5c-0.8,0.1-1.4,0.7-1.3,1.5v26.1c0,0.8,0.5,1.5,1.3,1.5l0,0
							c0.8-0.1,1.4-0.7,1.3-1.5V395C260.3,394.2,259.8,393.6,259,393.5z"/>
						<path id="Trazado_165794" class="st22" d="M254.6,393.5L254.6,393.5c-0.8,0.1-1.4,0.7-1.3,1.5v26.1c0,0.8,0.5,1.5,1.3,1.5l0,0
							c0.8-0.1,1.4-0.7,1.3-1.5V395C255.9,394.2,255.4,393.6,254.6,393.5z"/>
						<path id="Trazado_165795" class="st22" d="M250.3,393.5L250.3,393.5c-0.8,0.1-1.4,0.7-1.3,1.5v26.1c0,0.8,0.5,1.5,1.3,1.5l0,0
							c0.8-0.1,1.4-0.7,1.3-1.5V395C251.7,394.2,251.1,393.6,250.3,393.5z"/>
						<path id="Trazado_165796" class="st22" d="M125.4,393.5L125.4,393.5c-0.8,0.1-1.4,0.7-1.3,1.5v26.1c0,0.8,0.5,1.5,1.3,1.5l0,0
							c0.8-0.1,1.4-0.7,1.3-1.5V395C126.7,394.2,126.2,393.6,125.4,393.5z"/>
						<path id="Trazado_165797" class="st22" d="M121,393.5L121,393.5c-0.8,0.1-1.4,0.7-1.3,1.5v26.1c0,0.8,0.5,1.5,1.3,1.5l0,0
							c0.8-0.1,1.4-0.7,1.3-1.5V395C122.3,394.2,121.8,393.6,121,393.5z"/>
						<path id="Trazado_165798" class="st22" d="M116.7,393.5L116.7,393.5c-0.8,0.1-1.4,0.7-1.3,1.5v26.1c0,0.8,0.5,1.5,1.3,1.5l0,0
							c0.8-0.1,1.4-0.7,1.3-1.5V395C118.1,394.2,117.5,393.6,116.7,393.5z"/>
						<path id="Rectángulo_35594" class="st22" d="M30.5,393.5h0.9c0.5,0,0.9,0.4,0.9,0.9v27.4c0,0.5-0.4,0.9-0.9,0.9h-0.9
							c-0.5,0-0.9-0.4-0.9-0.9v-27.4C29.6,393.9,30,393.5,30.5,393.5z"/>
						<path id="Trazado_165799" class="st22" d="M26.6,393.5L26.6,393.5c-0.8,0.1-1.4,0.7-1.3,1.5v26.1c0,0.8,0.5,1.5,1.3,1.5l0,0
							c0.8-0.1,1.4-0.7,1.3-1.5V395C27.9,394.2,27.3,393.6,26.6,393.5z"/>
						<path id="Trazado_165800" class="st22" d="M22.3,393.5L22.3,393.5c-0.8,0.1-1.4,0.7-1.3,1.5v26.1c0,0.8,0.5,1.5,1.3,1.5l0,0
							c0.8-0.1,1.4-0.7,1.3-1.5V395C23.7,394.2,23.1,393.6,22.3,393.5z"/>
					</g>
					<g id="Grupo_128823" transform="translate(42.88 0)">
						<path id="Trazado_170392" class="st23" d="M110.1,166.9l17.8-0.4l1.2,67.9l-17.8,0.4L110.1,166.9z"/>
						<path id="Trazado_170390" class="st23" d="M0,13L13.8,0l113.3,159.6l-13.8,13L0,13z"/>
						<g id="Grupo_128822" transform="translate(67.621 221.609)">
							<g id="Grupo_128821">
								<path id="Trazado_165810" class="st24" d="M53.1,56.7c27.2-0.5,49.4-7,52.1-15l-0.1-27.5C104.8,5.8,81.3-0.5,52.4,0
									S0.1,7.6,0,15.9l0.6,27.5C3.5,51.3,25.9,57.1,53.1,56.7z"/>
								<path id="Trazado_165811" class="st25" d="M105.2,38.8l0-12.2C103.5,21,80.7,14.3,53,14.8S2.2,20.5,0.3,28.3l0.3,12.2
									c2.9,7.9,25.3,13.7,52.5,13.3S102.5,46.8,105.2,38.8z"/>
								<path id="Trazado_165812" class="st9" d="M105.2,41.9l0-12.2c-2.1-7.8-24.9-13.5-52.6-13.1s-50.3,7-52.2,14.8l0.3,12.2
									C3.5,51.6,25.9,57.4,53.1,57S102.5,49.9,105.2,41.9z"/>
							</g>
							<path id="Trazado_165813" class="st26" d="M51.2,32.9c-12.4,0.7-22.6-1.4-22.7-4.6s9.8-6.4,22.3-7.1s22.6,1.4,22.7,4.7
								S63.7,32.2,51.2,32.9z"/>
							<path id="Trazado_165814" class="st26" d="M50.4,45.9c-6.2,0.3-11.3-1.3-11.4-3.7s4.9-4.6,11.1-5s11.3,1.3,11.4,3.7
								S56.6,45.6,50.4,45.9z"/>
							<path id="Trazado_165815" class="st26" d="M83.8,46.1c-10.1,0.5-18.4-1.6-18.6-4.9s8-6.3,18.1-6.9s18.4,1.6,18.6,4.9
								S93.9,45.5,83.8,46.1z"/>
							<path id="Trazado_165816" class="st26" d="M19.3,48.2c-9.5-0.2-17.1-3.1-17-6.3s7.8-5.7,17.3-5.4s17.1,3.1,17,6.3
								S28.7,48.5,19.3,48.2z"/>
							<path id="Trazado_165817" class="st26" d="M49.6,54.5c-8.7,0.5-15.9-0.5-16-2.3s7-3.5,15.7-4s15.9,0.5,16,2.3
								S58.4,54,49.6,54.5z"/>
						</g>
						<path id="Trazado_170391" class="st24" d="M109.7,161.8c2-6,7.8-8.9,13-6.6c5.2,2.3,7.8,9,5.8,15c-2,6-7.8,8.9-13,6.6
							C110.3,174.5,107.7,167.8,109.7,161.8z"/>
						<path id="Trazado_165818" class="st9" d="M124.9,160c-2.2-3.2-6.6-4-9.8-1.7c-0.4,0.3-0.8,0.6-1.1,0.9
							c-3.2,3.5-3.5,8.7-0.7,12.5c2.2,3.2,6.6,4,9.8,1.7c0.4-0.3,0.8-0.6,1.1-0.9C127.4,169,127.7,163.8,124.9,160z"/>
					</g>
				</g>
				<path id="Rectángulo_36353" class="st27" d="M1.6,466.4H391c0.5,0,0.9,0.4,0.9,0.9l0,0c0,0.5-0.4,0.9-0.9,0.9H1.6
					c-0.5,0-0.9-0.4-0.9-0.9l0,0C0.8,466.7,1.2,466.4,1.6,466.4C1.6,466.4,1.6,466.4,1.6,466.4z"/>
				<path id="Rectángulo_36354" class="st28" d="M1.6,417.4H391c0.5,0,0.9,0.4,0.9,0.9l0,0c0,0.5-0.4,0.9-0.9,0.9H1.6
					c-0.5,0-0.9-0.4-0.9-0.9l0,0C0.8,417.7,1.2,417.4,1.6,417.4C1.6,417.4,1.6,417.4,1.6,417.4z"/>
			</g>
		</g>
		<g id="Grupo_128825" transform="translate(1328.466 3969.751)">
			<path id="Trazado_150797" class="st29" d="M58.9,140.8c-11,0-26.1-9.8-31-13.2l6-8.6c9.1,6.3,21.8,12.4,26,11.3
				c3.4-3,8.9-43.5,14.2-50.2l4.9,6.7c-1.3,22.3-5,49.7-15.3,53.4C62.1,140.6,60.5,140.8,58.9,140.8z"/>
			<path id="Trazado_150798" class="st30" d="M25.3,123.1c0,0-9-11-9.7-12.3s-2.8-1.7-2.3,0.1c0.6,1.5,1.4,2.9,2.4,4.1l-10.1-7
				c0,0-1.3-1.1-2.1-0.5s1.4,2.1,1.4,2.1l6.4,4.9l-7.8-4.1c0,0-1.7-0.8-2.1,0s1.6,1.8,1.6,1.8l7.5,4.6l-8-3.5c0,0-2-0.9-2.4,0.1
				s2.4,2.1,2.4,2.1l7.5,3.8l-4.6-0.9c0,0-0.8-0.1-0.7,0.6s1.2,1,1.2,1s13.2,6.5,15.6,6.9s2.5,0.2,2.5,0.2l1.3-3.7L25.3,123.1z"/>
			
				<rect id="Rectángulo_34018" x="86.4" y="66.9" transform="matrix(1.699754e-02 -0.9999 0.9999 1.699754e-02 20.7269 165.2321)" class="st30" width="16" height="10.4"/>
			<g id="Grupo_91805" transform="translate(87.031 302.721)">
				<path id="Trazado_150799" class="st30" d="M24.4,0c-0.6,2.2-0.6,4.5,0,6.7c1.1,3,4.3,2.3,5.8,6.7v0.5c0,2.2-1.7,4-3.8,4.1
					c-2.1,0.1-3.8,0.1-5.9,1.6c-4.3,3-0.8,13-6.6,12.8c-3.5-0.1-13.8,0-13.8,0s5.6-3.5,8-4.6S18.7,0,18.7,0L24.4,0z"/>
				<path id="Trazado_150800" class="st13" d="M25.7,7.8c2.2,1.2,3.8,3.2,4.5,5.6v0.5c0,2.2-1.7,4-3.8,4.1c-2.1,0.1-3.1,1.3-5.2,2.8
					c-4.3,3-1.5,11.8-7.3,11.6c-3.5-0.1-13.8,0-13.8,0s5.4-4.9,8-4.6C18.6,28.9,22,13.2,25.7,7.8z"/>
				<path id="Trazado_150801" class="st13" d="M24.7,17.6c0.5,5,0.5,10,0,15h1.4c0,0,0.9-12.1,2.3-14.8S24.7,17.6,24.7,17.6z"/>
			</g>
			<g id="Grupo_91806" transform="translate(58.318 298.59)">
				<path id="Trazado_150802" class="st30" d="M25.7,0c0,0-2.4,7.8-1.3,10.9s4.3,2.3,5.8,6.7V18c0,2.2-1.7,4-3.8,4.1
					c-2.1,0.1-3.8,0.1-5.9,1.6c-4.3,3-0.8,13-6.6,12.8c-3.5-0.1-13.8,0-13.8,0s5.6-3.5,8-4.6S19.2,4.4,19.2,4.4L25.7,0z"/>
				<path id="Trazado_150803" class="st13" d="M25.7,11.9c2.2,1.2,3.8,3.2,4.5,5.6V18c0,2.2-1.7,4-3.8,4.1c-2.1,0.1-3.1,1.3-5.2,2.8
					c-4.3,3-1.5,11.8-7.3,11.6c-3.5-0.1-13.8,0-13.8,0s5.4-4.9,8-4.6C18.6,33.1,22,17.4,25.7,11.9z"/>
				<path id="Trazado_150804" class="st13" d="M24.7,21.7c0.5,5,0.5,10,0,15h1.4c0,0,0.9-12.1,2.3-14.8S24.7,21.7,24.7,21.7z"/>
			</g>
			<path id="Trazado_150805" class="st30" d="M76.8,142.1c8.6,2.4,17.5,2.5,26.4,2.9c6.1,5.9,16.7,12.8,18.4,20.4
				c2.3,10.5-3.3,21-3.3,21l-5.9,49.4c0,0,15.9,3.3-1.4,71.6l-8.4,9.3c0,0,3.6-60.5-0.8-77.6c-11-42.9-6-58-9-60.3
				c-5.3-4.3-6,0.7-6,0.7L82,234.8c0,0,15.8,15.1,0.5,75l-6.8,5.7c0,0-0.1-60.2-4.4-77.3c-2-7.9-12.7-53.8-8-70.3
				C65.7,159.7,74.2,146.3,76.8,142.1z"/>
			<path id="Trazado_150806" class="st27" d="M64.5,203.3l3.9,24.8h45.9l2-36.5L64.5,203.3z"/>
			<path id="Trazado_150807" class="st11" d="M100.5,137.7c0.2,1.3,16.2,19.4,17.4,20.9c-25.9,6.9-48.8,3.6-51.1,1.1
				c2.5-6.9,12-20.3,12-20.3l-7.5-24c-9-3-6.1-12-6.1-12c7.6-5.2,9-23.2,9-23.2l22.4-0.6c0,0,17.7,2,20,3.6s-1.5,18.9-1.5,18.9
				S99.4,130.7,100.5,137.7z"/>
			<path id="Trazado_150808" class="st9" d="M116.5,217c-0.2,0-13.9,2.7-24.5,1.9c-0.2-0.6-4.6-13.7-4.6-13.7l-2.2,13.4
				c-5.7-0.3-14.2,0.1-19.6-1.9c-3.1-16.7-5-39.1-2.1-49.2c1-3,2.2-6,3.6-8.8c1.7-4.1,5.3-10.1,8.2-14.4c0.7-1,1.7-2.6,1.7-2.6
				c0.6-0.8,1.1-1.8,1.3-2.8l-7.2-23.3c-9-3-5.8-12.6-5.8-12.6c7.6-5.2,9-23.2,9-23.2l22.4-0.6c0,0,17.7,2,20,3.6
				s-1.1,19.6-1.1,19.6s-16.2,27.9-15.1,34.9c0.2,1.1,12.2,14.9,16.2,19.5c2.4,2.7,4.3,5.4,5,8.3c2.3,10.5-1.6,22.8-1.6,22.8
				L116.5,217z"/>
			<path id="Trazado_150809" class="st31" d="M85.8,110.1c0,0,8.4,6.5,18.1,0.9C103.9,111,93.6,123.3,85.8,110.1z"/>
			<path id="Trazado_150810" class="st29" d="M102,80l6,0.8l-11.8,15l3.9,1.6l-15.8,15.2l-3.7-18.1l2.8-0.6l-2.8-14.3
				C80.6,79.6,99,79.5,102,80z"/>
			<path id="Trazado_150811" class="st13" d="M102,80l-17.7,32.6l1.9-33.3C86.2,79.3,95.8,78.6,102,80z"/>
			<path id="Trazado_150812" class="st32" d="M92.9,79c-0.8,0-9,2.1-9,2.1s3,2.8,8.3-0.6c0,0,2.7,4.5,11.9,1.4
				C104.1,81.9,93.7,79,92.9,79z"/>
			<path id="Trazado_150813" class="st13" d="M99.6,75.1c0,0-5.9,2.7-6.7,2.7s-3.5-2.5-3.5-2.5L83.7,81c0,0,3.1,1.8,8.4-1.6
				c0,0,1.8,3.6,11.8,2.4C103.9,81.9,101.9,80,99.6,75.1z"/>
			<path id="Trazado_150814" class="st33" d="M82.1,116.5c0-0.8,0.6-1.4,1.3-1.4s1.4,0.6,1.4,1.3s-0.6,1.4-1.3,1.4c0,0,0,0,0,0
				C82.7,117.8,82.1,117.2,82.1,116.5z"/>
			<path id="Trazado_150815" class="st33" d="M82.2,125.2c0-0.8,0.6-1.4,1.3-1.4c0.8,0,1.4,0.6,1.4,1.3s-0.6,1.4-1.3,1.4
				c0,0,0,0,0,0C82.9,126.5,82.2,125.9,82.2,125.2C82.2,125.2,82.2,125.2,82.2,125.2z"/>
			<path id="Trazado_150816" class="st33" d="M82.4,133.9c0-0.8,0.6-1.4,1.3-1.4s1.4,0.6,1.4,1.3c0,0.8-0.6,1.4-1.3,1.4
				C83,135.3,82.4,134.7,82.4,133.9C82.4,133.9,82.4,133.9,82.4,133.9z"/>
			<path id="Trazado_150817" class="st33" d="M82.3,142.1c0-0.8,0.6-1.4,1.3-1.4c0.8,0,1.4,0.6,1.4,1.3c0,0.8-0.6,1.4-1.3,1.4
				C83,143.4,82.3,142.8,82.3,142.1z"/>
			<path id="Trazado_150818" class="st33" d="M82.5,150.8c0-0.8,0.6-1.4,1.3-1.4s1.4,0.6,1.4,1.3s-0.6,1.4-1.3,1.4c0,0,0,0,0,0
				C83.2,152.1,82.6,151.5,82.5,150.8C82.5,150.8,82.5,150.8,82.5,150.8z"/>
			<path id="Trazado_150819" class="st33" d="M82.8,159.5c0-0.8,0.6-1.4,1.3-1.4s1.4,0.6,1.4,1.3s-0.6,1.4-1.3,1.4c0,0,0,0,0,0
				C83.4,160.9,82.8,160.3,82.8,159.5C82.8,159.5,82.8,159.5,82.8,159.5z"/>
			<path id="Trazado_150820" class="st33" d="M83.5,169.3c0-0.8,0.6-1.4,1.3-1.4c0.8,0,1.4,0.6,1.4,1.3c0,0.8-0.6,1.4-1.3,1.4
				C84.1,170.7,83.5,170.1,83.5,169.3C83.5,169.3,83.5,169.3,83.5,169.3z"/>
			<path id="Trazado_150821" class="st33" d="M84,178.7c0-0.8,0.6-1.4,1.3-1.4s1.4,0.6,1.4,1.3s-0.6,1.4-1.3,1.4c0,0,0,0,0,0
				C84.7,180,84.1,179.5,84,178.7z"/>
			<path id="Trazado_150822" class="st33" d="M84.3,187.1c0-0.8,0.6-1.4,1.3-1.4c0.8,0,1.4,0.6,1.4,1.3c0,0.8-0.6,1.4-1.3,1.4
				C84.9,188.5,84.3,187.9,84.3,187.1C84.3,187.1,84.3,187.1,84.3,187.1z"/>
			<path id="Trazado_150823" class="st33" d="M85.1,194.6c0-0.8,0.6-1.4,1.3-1.4c0.8,0,1.4,0.6,1.4,1.3s-0.6,1.4-1.3,1.4
				c0,0,0,0,0,0C85.7,195.9,85.1,195.3,85.1,194.6z"/>
			<path id="Trazado_150824" class="st33" d="M85.6,203.6c0-0.8,0.6-1.4,1.3-1.4s1.4,0.6,1.4,1.3s-0.6,1.4-1.3,1.4c0,0,0,0,0,0
				C86.3,205,85.6,204.4,85.6,203.6C85.6,203.6,85.6,203.6,85.6,203.6z"/>
			<path id="Rectángulo_34019" class="st29" d="M106.3,185.8l-11-0.2c-1.7,0-3.1-1.4-3.1-3.2l0.3-19.4l0,0l17.2,0.2l0,0l-0.3,19.4
				C109.4,184.5,108,185.9,106.3,185.8z"/>
			<path id="Rectángulo_34020" class="st29" d="M75.7,183l-9-0.1c-1,0-1.9-0.9-1.8-1.9c0,0,0,0,0,0l0.2-17l0,0l12.7,0.2l0,0
				l-0.2,17C77.6,182.2,76.7,183,75.7,183z"/>
			<path id="Trazado_150825" class="st34" d="M108.5,53.9c1.4-0.4,2.2-1.8,1.8-3.2c1.6,0.2,2.8-1.4,3.6-2.7c0.3-0.5,0.6-1,0.9-1.5
				c0.6-0.8,1-1.8,0.9-2.9c-0.2-0.4-0.2-0.9-0.3-1.3c0.1-1,1.5-1.5,1.4-2.5c0-0.4-0.3-0.7-0.4-1.1c-0.2-1.2,1.7-1.9,1.6-3.1
				c0-0.6-0.6-1.1-0.7-1.7c-0.2-1.3,1.6-2.4,1.1-3.6c-0.2-0.4-0.5-0.6-0.7-1c-0.5-1,0.4-2.1,0.3-3.2c-0.1-1.4-1.9-2.2-1.9-3.6
				c0-0.5,0.3-1.1,0.1-1.6c-0.1-0.3-0.4-0.5-0.6-0.7c-0.8-0.6-1.6-1.2-2.5-1.9c1.2,0.1,2.4-0.3,3.2-1.2c0.3-0.4,0.6-0.7,0.9-1
				c0.6-0.3,1.2-0.6,1.9-0.8c1.3-0.8,1.5-2.6,1.5-4.1c0.1-1.1-0.1-2.2-0.7-3.1c-0.7-0.5-1.1-1.4-0.8-2.3c-0.1-1.4-1.3-2.4-2.6-2.3
				c-0.2,0-0.4,0.1-0.6,0.1c0.1-1.2-0.6-2.4-1.7-2.9c-1.1-0.5-2.3-0.7-3.5-0.7c-0.6-0.1-1.1,0-1.7,0.1c-0.5,0.2-0.9,0.8-0.8,1.3
				c-0.5,0.2-1.1,0.2-1.7,0c-0.5-0.2-1.1-0.2-1.7,0c-0.5,0.3-0.7,1.1-0.1,1.4c-0.6-0.5-1.4-0.4-1.9,0.2c-0.4,0.5-0.4,1.1-0.1,1.6
				c-0.8-0.2-1.7-0.2-2.4,0.2c-0.7,0.4-0.9,1.6-0.2,2c-0.8,0.1-0.9,1.2-0.6,2s0.6,1.7,0,2.3c-1-0.5-2.1-0.8-3.2-0.8
				c-1.1,0-2.2,0.7-2.6,1.8c-1.3-1.1-3.2-1.1-4.6-0.2c-1.6-1.3-3.9-0.5-5.7,0.4l-2,1c-0.7,0.3-1.4,0.7-1.9,1.3
				c-1.1-0.1-2.3-0.1-3.4,0.2c-1.1,0.3-2,1.1-2.4,2.2c0,0.3-0.2,0.6-0.3,0.9c-0.2,0.2-0.5,0.4-0.8,0.4c-0.8,0.2-1.6,0.2-2.4,0.5
				c-0.8,0.2-1.5,0.8-1.6,1.7c-0.1,0.5,0.2,1.1-0.1,1.6c-0.2,0.3-0.6,0.5-0.8,0.8c-0.7,0.9,0.6,2.4,0.1,3.5c-0.2,0.6-1,1.1-0.9,1.7
				c0.1,0.4,0.4,0.7,0.6,1.1c0.5,1-0.6,2.1-0.6,3.2c-0.1,1,0.7,1.8,1.2,2.7c0.6,1.1,0.7,2.3,0.5,3.5c-0.1,0.4-0.1,0.7-0.1,1.1
				c0.2,0.6,0.9,0.8,1.4,1.2c1,0.8,0.8,2.3,1.1,3.5c0.4,1.7,1.9,2.9,3.3,4c4.3,3.5,8.7,7,13.7,9.3s11,3.1,16.2,1.2l-0.6-0.9
				c1.5,0,2.8-1.1,3.1-2.5c0-0.3,0.1-0.6,0.3-0.9C107.3,54,107.9,54,108.5,53.9z"/>
			<path id="Trazado_150826" class="st30" d="M109.6,52.7c0.7,0.2-8.6,15.4-19.9,16.6c-10.5,1.2-17.8-20.9-17.8-20.9
				c-0.2-0.8-2.1-14.5-2.7-21.3c-0.7-6.9,32.1-18.3,40.5,0.3c1.3,2.9,0.4,19.2,0.4,19.2s4.3-3.2,4.8,2.8
				C115,51.7,109.6,52.7,109.6,52.7z"/>
			<path id="Trazado_150827" class="st35" d="M97.5,40.5c0.6,0.1,1.3-0.3,1.5-0.9c0.1,0.4-0.1,0.8-0.4,1.1c0.4,0.2,0.8,0.1,1.1-0.3
				c0,0.4-0.2,0.7-0.6,0.9c-0.3,0.2-0.7,0.3-1.1,0.3c-0.1,0-0.2,0-0.3,0c-0.1-0.1-0.2-0.2-0.2-0.3l-0.2-0.7"/>
			<path id="Trazado_150828" class="st36" d="M93.1,42.9c-0.2-1.5,0.9-2.9,2.4-3.1c1.5-0.2,2.9,0.9,3.1,2.4c0.2,1.5-0.9,2.9-2.4,3.1
				C94.7,45.5,93.3,44.4,93.1,42.9C93.1,42.9,93.1,42.9,93.1,42.9z"/>
			<path id="Trazado_150829" class="st35" d="M75.9,43c-0.7,0-1.3-0.4-1.4-1.1c-0.1,0.4,0,0.9,0.3,1.2c-0.4,0.2-0.8,0-1.1-0.4
				c0,0.4,0.2,0.8,0.5,1c0.3,0.2,0.7,0.3,1,0.4c0.1,0,0.2,0,0.3,0c0.1-0.1,0.2-0.2,0.2-0.3l0.2-0.7"/>
			<path id="Trazado_150830" class="st36" d="M75.3,44.7c-0.1-1.4,0.9-2.6,2.2-2.7s2.6,0.9,2.7,2.2s-0.9,2.6-2.2,2.7c0,0,0,0,0,0
				C76.7,47.1,75.5,46.1,75.3,44.7C75.3,44.7,75.3,44.7,75.3,44.7z"/>
			<path id="Trazado_150831" class="st37" d="M94.6,41.5c-0.1-0.5,0.3-0.9,0.7-0.9s0.9,0.3,0.9,0.7c0.1,0.4-0.3,0.9-0.7,0.9
				C95.1,42.3,94.7,42,94.6,41.5z"/>
			<path id="Trazado_150832" class="st37" d="M76,44.2c0-0.4,0.2-0.7,0.6-0.7c0.4,0,0.7,0.2,0.7,0.6c0,0.4-0.2,0.7-0.6,0.7
				c0,0,0,0,0,0C76.4,44.8,76,44.6,76,44.2z"/>
			<path id="Trazado_150833" class="st34" d="M80.6,38.6c0,0-4.3-0.8-6.5,0.3c-1,0.6-1.9,1.2-2.8,2l2-3.1c0,0,1.8-1.2,6.3-1.3
				c0.8,0.2,1.2,1,1.1,1.7C80.7,38.4,80.7,38.5,80.6,38.6z"/>
			<path id="Trazado_150834" class="st34" d="M90.8,36.6c0,0,4-1.6,6.4-1c1.1,0.4,2.1,0.8,3.1,1.4l-2.6-2.6c0,0-2-0.8-6.4,0
				c-0.7,0.3-1,1.2-0.7,1.9C90.7,36.4,90.7,36.5,90.8,36.6z"/>
			<path id="Trazado_150835" class="st38" d="M85.1,46l0.6,5.7c0,0.5-0.6-0.1-1,0c-0.6,0-0.9,1.1-0.8,1.7c0.1,0.9,0.8,1.3,4.3,0.6
				c0.4-0.1,0.7-0.4,0.7-0.8C88.7,50.8,88.3,44.4,85.1,46z"/>
			<path id="Trazado_150836" class="st39" d="M85.5,45.8l0.5,5.3c0,0-2.2-0.1-1.9,2c0.1,0.9,1,1.2,4.5,0.5c0.4-0.1,0.8-0.4,0.9-0.8
				c0.1-0.5,0.8-0.6-0.6-2.3C87.4,48.3,88.7,44.7,85.5,45.8z"/>
			<path id="Trazado_150837" class="st37" d="M84.7,53c0.6,0.4,1.4,0.3,1.9-0.3c0.1-0.1,0.1-0.2,0.2-0.3c0.1-0.3-0.3-0.5-0.5-0.6
				c-0.4-0.1-0.8-0.1-1.2,0c-0.4,0.3-0.6,0.8-0.5,1.3"/>
			<path id="Trazado_150838" class="st40" d="M92.9,48.6c-0.2,0.7,0.1,1.5,0.7,1.9c0.6,0.4,1.3,0.7,2,0.8c2.8,0.5,5.8,0.1,8.4-1
				c0.7-0.2,1.4-0.6,2-1.1c0.6-0.5,0.8-1.3,0.6-2.1c-0.3-0.7-0.9-1.2-1.7-1.3c-0.7-0.1-1.5-0.1-2.2,0.1l-7,1.1
				C94.6,47.2,93.3,47.6,92.9,48.6z"/>
			<path id="Trazado_150839" class="st40" d="M80.9,50.1c-0.4-0.1-0.9-0.2-1.3-0.2c-1.3,0-2.5-0.1-3.8-0.2c-0.6-0.1-1.2,0-1.7,0.3
				c-0.3,0.3-0.4,0.8-0.2,1.3c0.2,0.2,0.4,0.4,0.7,0.5c1,0.6,2.1,0.9,3.2,0.9c1.1,0,2.2-0.4,3.2-1c0.3-0.2,0.5-0.6,0.5-1
				C81.4,50.4,81.2,50.1,80.9,50.1z"/>
			<g id="Grupo_91807" transform="translate(83.319 55.847)">
				<path id="Trazado_150840" class="st41" d="M12.8,1.2c0,0-4.6-1.8-6.3-1C4.8,1,4.7,1.8,4.7,1.8C4.2,1.3,3.5,1,2.8,1
					C1.8,1.2,0,3,0,3s1.8,6.4,6.4,5.6C12.3,7.7,12.8,1.2,12.8,1.2z"/>
				<path id="Trazado_150841" class="st37" d="M4.6,7.4C5.4,7.7,6.3,7.5,7,6.9c0.1-0.1,0.2-0.2,0.1-0.3C7,6.5,6.8,6.5,6.7,6.5
					C5.9,6.9,5,7,4.2,6.8C4.1,7.1,4.3,7.4,4.6,7.4C4.6,7.5,4.6,7.5,4.6,7.4"/>
				<path id="Trazado_150842" class="st9" d="M12.9,1c0,0-7,2.7-12.9,2C0,3,4.7,10.1,12.9,1z"/>
			</g>
			<path id="Trazado_150843" class="st34" d="M106.5,36.4c-0.1-0.5,0.3-1.1,0.1-1.6c-0.1-0.3-0.3-0.6-0.6-0.8
				c-0.6-0.7-0.9-1.7-0.7-2.7c0,0.9,0,1.9,0.1,2.8c0,0.3,0,0.5,0.2,0.8c0.1,0.2,0.4,0.3,0.5,0.5c0.4,0.6-0.2,1.3-0.3,2
				c0,0.7,0.2,1.5,0.7,2.1c0.4,0.6,0.4,1.4,0,2.1c0.4-0.3,0.3-1-0.1-1.4c-0.4-0.4-0.7-0.8-0.9-1.2c-0.2-0.8,0.3-1.7,0-2.4
				c-0.3-0.8-1.4-1.1-1.6-1.9c-0.1-0.6,0.4-1.2,0.2-1.8c-0.2-0.5-0.7-0.7-1.1-1c-0.9-0.6-1.2-1.8-0.8-2.8c-1.1,0-2-0.8-2.1-1.8
				c0-0.3,0-0.5-0.1-0.8c-0.2-0.2-0.3-0.4-0.5-0.6c-0.6-0.8-0.8-1.8-0.6-2.7c-0.6,0-1.1,0.1-1.7,0.1c0,1.2,0.4,2.3,1.1,3.2
				c-0.1-0.5-0.8-0.6-1.3-0.8c-0.9-0.5-0.9-1.8-0.8-2.8c-0.7,0.2-1.4-0.1-1.9-0.7c0,0.8-1.1,1.1-1.8,1s-1.7-0.2-2.2,0.4
				c-0.1,0.2-0.3,0.3-0.4,0.5c-0.5,0.3-1.1-0.2-1.6-0.2c-0.5,0-0.8,0.5-1,0.9c-0.3,0.7-0.6,1.4-0.6,2.2c0,0.2-0.1,0.4-0.1,0.5
				c-0.3,0.4-1.1,0.6-0.8,1c0.5-0.2,0.5-0.8,0.3-1.3s-0.5-0.9-0.3-1.4c0.1-0.3,0.3-0.5,0.5-0.7c0.5-0.6,0.6-1.3,0.3-2
				c-0.5,1.1-2.5,0.3-3.1,1.3c-0.2,0.2-0.2,0.5-0.4,0.7c-0.5,0.6-1.8,0-2.1,0.7c-0.1,0.2-0.1,0.4-0.2,0.5c-0.2,0.3-0.6,0.3-1,0.2
				c-0.3-0.2-0.7-0.3-1-0.3c-0.6,0.1-0.9,0.8-1.2,1.3s-1.2,0.9-1.5,0.3c0,0.7-0.5,1.4-1.2,1.5c-0.6,0.1-1.4-0.1-1.7,0.5
				c-0.3,0.5,0.3,1.2,0,1.7c-0.2,0.4-0.8,0.4-1,0.8c-0.2,0.3-0.1,0.6-0.1,1c-0.1,0.6-0.3,1.1-0.6,1.5c-0.7,1.6-0.9,3.3-0.7,5.1
				L69,29.3c-0.9-2.7,0-5.6,2.2-7.3c1.3-1.4,2.8-2.7,4.5-3.8c1.5-0.9,3.2-1.6,4.9-2.1c8.9-2.7,18.8-2.5,26.9,2
				c1.3,0.7,2.4,1.5,3.5,2.5c1.2,1.4,2.2,3.1,2.8,4.9c0.6,1.4,1,3,1.2,4.5c0.1,2.7-1.1,5.3-2.2,7.8c-1.3,3.1-2.3,6.2-3.1,9.5
				c0.4-0.8-0.9-1.4-1-2.3c-0.1-0.5,0.3-1,0.4-1.5c0.3-1.3-1.1-2.5-1-3.8c0-0.3,0.1-0.6,0-0.9C108,37.8,106.6,37.4,106.5,36.4z"/>
			<path id="Trazado_150844" class="st42" d="M73.8,53.4c4.4,0.5,8.9,0.6,13.3,0.2c6-0.8,23.3-7.3,23.3-7.3l-0.6,1l-8,3.2
				c0,0,1.3,7.1,1.8,7.4l6-5.2c0,0,0.2,0.5-0.5,1.9s-13,19-24.6,13.9C84.5,68.5,76.2,61.8,73.8,53.4z"/>
			<g id="Grupo_91813" transform="translate(2.718 88.118)">
				<path id="Trazado_150845" class="st36" d="M35.2,0L0.2,9.2C0.1,9.2,0,9.4,0,9.6L12.2,56c0,0.2,0.2,0.3,0.4,0.2L47.5,47
					c0.2,0,0.3-0.2,0.2-0.4c0,0,0,0,0,0L35.5,0.2C35.5,0.1,35.3,0,35.2,0C35.2,0,35.2,0,35.2,0z"/>
				
					<rect id="Rectángulo_34021" x="8.2" y="5.5" transform="matrix(0.9672 -0.2541 0.2541 0.9672 -6.3018 6.9656)" class="st9" width="31.2" height="44.7"/>
				<g id="Grupo_91808" transform="translate(6.845 7.447)">
					<path id="Trazado_150846" class="st43" d="M25.2,0L0.1,6.6C0,6.6,0,6.7,0,6.8l0,0.1c0,0.1,0.1,0.1,0.2,0.1l25.1-6.6
						c0.1,0,0.1-0.1,0.1-0.2l0-0.1C25.3,0,25.3,0,25.2,0z"/>
					<path id="Trazado_150847" class="st43" d="M25.5,1.1L0.4,7.7c-0.1,0-0.1,0.1-0.1,0.2l0,0.1C0.3,8,0.4,8,0.5,8l25.1-6.6
						c0.1,0,0.1-0.1,0.1-0.2c0,0,0,0,0,0l0-0.1C25.6,1.1,25.6,1.1,25.5,1.1C25.5,1.1,25.5,1.1,25.5,1.1z"/>
					<path id="Trazado_150848" class="st43" d="M25.8,2.3L0.7,8.9C0.6,8.9,0.6,9,0.6,9.1l0,0.1c0,0.1,0.1,0.1,0.2,0.1l25.1-6.6
						C26,2.6,26,2.5,26,2.5l0-0.1C26,2.3,25.9,2.3,25.8,2.3C25.8,2.3,25.8,2.3,25.8,2.3z"/>
					<path id="Trazado_150849" class="st43" d="M26.1,3.4L1,10c-0.1,0-0.1,0.1-0.1,0.2l0,0.1c0,0.1,0.1,0.1,0.2,0.1c0,0,0,0,0,0
						l25.1-6.6c0.1,0,0.1-0.1,0.1-0.2l0-0.1C26.2,3.5,26.2,3.4,26.1,3.4C26.1,3.4,26.1,3.4,26.1,3.4z"/>
				</g>
				<g id="Grupo_91809" transform="translate(13.085 31.194)">
					<path id="Trazado_150850" class="st43" d="M25.2,0L0.1,6.6C0,6.6,0,6.7,0,6.8c0,0,0,0,0,0l0,0.1c0,0.1,0.1,0.1,0.2,0.1
						l25.1-6.6c0.1,0,0.1-0.1,0.1-0.2l0-0.1C25.3,0,25.3,0,25.2,0z"/>
					<path id="Trazado_150851" class="st43" d="M25.5,1.1L0.4,7.7c-0.1,0-0.1,0.1-0.1,0.2c0,0,0,0,0,0l0,0.1C0.3,8,0.4,8,0.5,8
						c0,0,0,0,0,0l25.1-6.6c0.1,0,0.1-0.1,0.1-0.2c0,0,0,0,0,0l0-0.1C25.6,1.1,25.6,1.1,25.5,1.1C25.5,1.1,25.5,1.1,25.5,1.1z"/>
					<path id="Trazado_150852" class="st43" d="M25.8,2.3L0.7,8.9C0.6,8.9,0.6,9,0.6,9.1c0,0,0,0,0,0l0,0.1c0,0.1,0.1,0.1,0.2,0.1
						l25.1-6.6C26,2.6,26,2.5,26,2.5l0-0.1C25.9,2.3,25.9,2.3,25.8,2.3z"/>
					<path id="Trazado_150853" class="st43" d="M26.1,3.4L1,10c-0.1,0-0.1,0.1-0.1,0.2l0,0.1c0,0.1,0.1,0.1,0.2,0.1c0,0,0,0,0,0
						l25.1-6.6c0.1,0,0.1-0.1,0.1-0.2l0-0.1C26.2,3.5,26.2,3.4,26.1,3.4z"/>
				</g>
				<g id="Grupo_91810" transform="translate(8.23 12.723)">
					<path id="Trazado_150854" class="st43" d="M25.2,0L0.1,6.6C0,6.6,0,6.7,0,6.8l0,0.1c0,0.1,0.1,0.1,0.2,0.1c0,0,0,0,0,0
						l25.1-6.6c0.1,0,0.1-0.1,0.1-0.2c0,0,0,0,0,0l0-0.1C25.3,0,25.3,0,25.2,0z"/>
					<path id="Trazado_150855" class="st43" d="M25.5,1.1L0.4,7.7c-0.1,0-0.1,0.1-0.1,0.2c0,0,0,0,0,0l0,0.1C0.3,8,0.4,8,0.5,8
						c0,0,0,0,0,0l25.1-6.6c0.1,0,0.1-0.1,0.1-0.2l0-0.1C25.6,1.1,25.6,1.1,25.5,1.1C25.5,1.1,25.5,1.1,25.5,1.1z"/>
					<path id="Trazado_150856" class="st43" d="M25.8,2.3L0.7,8.9C0.6,8.9,0.6,9,0.6,9.1l0,0.1c0,0.1,0.1,0.1,0.2,0.1c0,0,0,0,0,0
						l25.1-6.6C26,2.6,26,2.5,26,2.5l0-0.1C26,2.3,25.9,2.3,25.8,2.3C25.8,2.3,25.8,2.3,25.8,2.3z"/>
					<path id="Trazado_150857" class="st43" d="M26.1,3.4L1,10c-0.1,0-0.1,0.1-0.1,0.2l0,0.1c0,0.1,0.1,0.1,0.2,0.1l25.1-6.6
						c0.1,0,0.1-0.1,0.1-0.2l0-0.1C26.2,3.5,26.2,3.4,26.1,3.4C26.1,3.4,26.1,3.4,26.1,3.4z"/>
				</g>
				<g id="Grupo_91811" transform="translate(9.412 17.22)">
					<path id="Trazado_150858" class="st43" d="M25.2,0L0.1,6.6C0,6.6,0,6.7,0,6.8l0,0.1c0,0.1,0.1,0.1,0.2,0.1l25.1-6.6
						c0.1,0,0.1-0.1,0.1-0.2l0-0.1C25.3,0,25.3,0,25.2,0z"/>
					<path id="Trazado_150859" class="st43" d="M25.5,1.1L0.4,7.7c-0.1,0-0.1,0.1-0.1,0.2l0,0.1C0.3,8,0.4,8,0.5,8l25.1-6.6
						c0.1,0,0.1-0.1,0.1-0.2c0,0,0,0,0,0l0-0.1C25.6,1.1,25.6,1.1,25.5,1.1z"/>
					<path id="Trazado_150860" class="st43" d="M25.8,2.3L0.7,8.9C0.6,8.9,0.6,9,0.6,9.1l0,0.1c0,0.1,0.1,0.1,0.2,0.1c0,0,0,0,0,0
						l25.1-6.6C26,2.6,26,2.5,26,2.5c0,0,0,0,0,0l0-0.1C25.9,2.3,25.9,2.3,25.8,2.3z"/>
					<path id="Trazado_150861" class="st43" d="M26.1,3.4L1,10c-0.1,0-0.1,0.1-0.1,0.2c0,0,0,0,0,0l0,0.1c0,0.1,0.1,0.1,0.2,0.1
						c0,0,0,0,0,0l25.1-6.6c0.1,0,0.1-0.1,0.1-0.2l0-0.1C26.2,3.5,26.2,3.4,26.1,3.4z"/>
				</g>
				<g id="Grupo_91812" transform="translate(10.6 21.737)">
					<path id="Trazado_150862" class="st43" d="M25.2,0L0.1,6.6C0,6.6,0,6.7,0,6.8c0,0,0,0,0,0l0,0.1c0,0.1,0.1,0.1,0.2,0.1
						l25.1-6.6c0.1,0,0.1-0.1,0.1-0.1c0,0,0,0,0,0l0-0.1C25.3,0,25.3,0,25.2,0z"/>
					<path id="Trazado_150863" class="st43" d="M25.5,1.1L0.4,7.7c-0.1,0-0.1,0.1-0.1,0.2l0,0.1C0.3,8,0.4,8,0.5,8l25.1-6.6
						c0.1,0,0.1-0.1,0.1-0.2l0-0.1C25.6,1.1,25.6,1.1,25.5,1.1z"/>
					<path id="Trazado_150864" class="st43" d="M25.8,2.3L0.7,8.9C0.6,8.9,0.6,9,0.6,9.1l0,0.1c0,0.1,0.1,0.1,0.2,0.1l25.1-6.6
						C26,2.6,26,2.5,26,2.5l0-0.1C26,2.3,25.9,2.3,25.8,2.3C25.8,2.3,25.8,2.3,25.8,2.3z"/>
					<path id="Trazado_150865" class="st43" d="M26.1,3.4L1,10c-0.1,0-0.1,0.1-0.1,0.2l0,0.1c0,0.1,0.1,0.1,0.2,0.1l25.1-6.6
						c0.1,0,0.1-0.1,0.1-0.2l0-0.1C26.2,3.5,26.2,3.4,26.1,3.4z"/>
				</g>
				
					<rect id="Rectángulo_34022" x="13.7" y="2" transform="matrix(0.9672 -0.2541 0.2541 0.9672 -0.4034 4.5715)" class="st44" width="7.7" height="3.7"/>
				
					<rect id="Rectángulo_34023" x="11.7" y="4.6" transform="matrix(0.9672 -0.2541 0.2541 0.9672 -0.899 4.7725)" class="st44" width="12.6" height="2.6"/>
			</g>
			<path id="Trazado_150866" class="st30" d="M114,172.7c0,0-6.6,12.9-7.7,14.1s-0.1,3.3,1.5,2.1c1.2-1.1,2.3-2.5,3.1-4l-1.6,12.1
				c0,0-0.4,1.7,0.7,2.1s1.5-2.2,1.5-2.2l1.5-7.9l0.2,8.9c0,0,0.1,1.8,1.3,1.9s1.1-2.2,1.1-2.2l0.6-8.8l0.9,8.8c0,0,0.2,2.2,1.5,2.2
				s0.8-3.1,0.8-3.1l-0.3-8.4l1.8,4.6c0,0,0.4,0.8,1,0.4s0.3-1.5,0.3-1.5s-0.7-14.8-1.7-17.1s-1.3-2.4-1.3-2.4l-4.9,0.4L114,172.7z"
				/>
			<path id="Trazado_150867" class="st29" d="M122,179.1l-10.4-1.9c0-0.3,4.9-26.7,5.2-40.6c0.3-13.7-4.3-32.6-5.6-38.5l5.5-15.1
				c2.1,0.5,11,39,10.6,53.9C127,151.6,122.2,178,122,179.1z"/>
		</g>
		<g id="Grupo_129323" transform="translate(1070.063 4147.083)">
			<g id="Grupo_127674" transform="translate(13.958 43.173)">
				<path id="Trazado_163810" class="st23" d="M65.8,103.9h-1.4V1.4h-63v102.5H0V0h65.8L65.8,103.9z"/>
			</g>
			<rect id="Rectángulo_35047" x="3.4" y="145.4" class="st45" width="2" height="12.6"/>
			<g id="Grupo_127675" transform="translate(0 145.38)">
				<path id="Trazado_163811" class="st27" d="M0,6.3c0,3.5,1.5,6.3,3.4,6.3s3.4-2.8,3.4-6.3S5.2,0,3.4,0S0,2.8,0,6.3z"/>
			</g>
			<g id="Grupo_127676" transform="translate(2.081 145.38)">
				<path id="Trazado_163812" class="st23" d="M0,6.3c0,3.5,1.5,6.3,3.4,6.3s3.4-2.8,3.4-6.3S5.2,0,3.4,0S0,2.8,0,6.3z"/>
			</g>
			<rect id="Rectángulo_35048" x="13.6" y="145.4" class="st45" width="2" height="12.6"/>
			<g id="Grupo_127677" transform="translate(10.223 145.38)">
				<path id="Trazado_163813" class="st27" d="M0,6.3c0,3.5,1.5,6.3,3.4,6.3s3.4-2.8,3.4-6.3S5.2,0,3.4,0S0,2.8,0,6.3z"/>
			</g>
			<g id="Grupo_127678" transform="translate(12.304 145.38)">
				<path id="Trazado_163814" class="st23" d="M0,6.3c0,3.5,1.5,6.3,3.4,6.3s3.4-2.8,3.4-6.3S5.2,0,3.4,0S0,2.8,0,6.3z"/>
			</g>
			<rect id="Rectángulo_35049" x="67.9" y="145.4" class="st45" width="2" height="12.6"/>
			<g id="Grupo_127679" transform="translate(64.49 145.38)">
				<path id="Trazado_163815" class="st27" d="M0,6.3c0,3.5,1.5,6.3,3.4,6.3s3.4-2.8,3.4-6.3S5.2,0,3.4,0S0,2.8,0,6.3z"/>
			</g>
			<g id="Grupo_127680" transform="translate(66.572 145.38)">
				<path id="Trazado_163816" class="st23" d="M0,6.3c0,3.5,1.5,6.3,3.4,6.3s3.4-2.8,3.4-6.3S5.2,0,3.4,0S0,2.8,0,6.3z"/>
			</g>
			<rect id="Rectángulo_35050" x="78.1" y="145.4" class="st45" width="2" height="12.6"/>
			<g id="Grupo_127681" transform="translate(74.712 145.38)">
				<path id="Trazado_163817" class="st27" d="M0,6.3c0,3.5,1.5,6.3,3.4,6.3s3.4-2.8,3.4-6.3S5.2,0,3.4,0S0,2.8,0,6.3z"/>
			</g>
			<g id="Grupo_127682" transform="translate(76.794 145.38)">
				<path id="Trazado_163818" class="st23" d="M0,6.3c0,3.5,1.5,6.3,3.4,6.3s3.4-2.8,3.4-6.3S5.2,0,3.4,0S0,2.8,0,6.3z"/>
			</g>
			<rect id="Rectángulo_35051" x="4.4" y="121.6" class="st27" width="64.4" height="17.4"/>
			<rect id="Rectángulo_35052" x="68.8" y="121.6" class="st2" width="10.4" height="17.4"/>
			<path id="Trazado_163819" class="st2" d="M29.2,132.4h14.1c1.9,0,3.4-1.5,3.4-3.4c0,0,0,0,0,0H25.8
				C25.8,130.9,27.3,132.4,29.2,132.4C29.2,132.4,29.2,132.4,29.2,132.4z"/>
			<rect id="Rectángulo_35053" x="4.4" y="102.2" class="st27" width="64.4" height="17.4"/>
			<rect id="Rectángulo_35054" x="68.8" y="102.2" class="st2" width="10.4" height="17.4"/>
			<path id="Trazado_163820" class="st2" d="M29.2,113h14.1c1.9,0,3.4-1.5,3.4-3.4l0,0H25.8C25.8,111.4,27.3,113,29.2,113
				C29.2,113,29.2,113,29.2,113z"/>
			<rect id="Rectángulo_35055" x="4.4" y="82.7" class="st27" width="64.4" height="17.4"/>
			<rect id="Rectángulo_35056" x="68.8" y="82.7" class="st2" width="10.4" height="17.4"/>
			<path id="Trazado_163821" class="st2" d="M29.2,93.5h14.1c1.9,0,3.4-1.5,3.4-3.4H25.8C25.8,92,27.4,93.5,29.2,93.5
				C29.2,93.5,29.2,93.5,29.2,93.5z"/>
			<rect id="Rectángulo_35057" x="4.4" y="63.3" class="st27" width="64.4" height="17.4"/>
			<rect id="Rectángulo_35058" x="68.8" y="63.3" class="st2" width="10.4" height="17.4"/>
			<path id="Trazado_163822" class="st2" d="M29.2,74.1h14.1c1.9,0,3.4-1.5,3.4-3.4H25.8C25.8,72.6,27.4,74.1,29.2,74.1
				C29.2,74.1,29.2,74.1,29.2,74.1z"/>
			<rect id="Rectángulo_35059" x="4.4" y="43.9" class="st27" width="64.4" height="17.4"/>
			<rect id="Rectángulo_35060" x="68.8" y="43.9" class="st2" width="10.4" height="17.4"/>
			<path id="Trazado_163823" class="st2" d="M29.2,54.7h14.1c1.9,0,3.4-1.5,3.4-3.4l0,0H25.8C25.8,53.1,27.3,54.7,29.2,54.7
				C29.2,54.7,29.2,54.7,29.2,54.7z"/>
			<g id="Grupo_127683" transform="translate(3.736 43.173)">
				<path id="Trazado_163824" class="st23" d="M65.8,103.9h-1.4V1.4h-63v102.5H0V0h65.8V103.9z"/>
			</g>
			<g id="Grupo_129266" transform="translate(12.069 18.132)">
				<g id="Grupo_128981" transform="translate(9.463 0)">
					<path id="Trazado_166214" class="st46" d="M6.2,5.4H2.4C1.1,5.4,0,6.5,0,7.9v15c0,0.7,0.5,1.2,1.2,1.2h6.3
						c0.7,0,1.2-0.5,1.2-1.2v-15C8.6,6.5,7.5,5.4,6.2,5.4z"/>
					<path id="Trazado_166215" class="st47" d="M6,0H2.7C2.3,0,2.1,0.2,2.1,0.5c0,0,0,0,0,0v4.9h4.4V0.5C6.5,0.2,6.3,0,6,0
						C6,0,6,0,6,0z"/>
					<path id="Trazado_166216" class="st48" d="M2.6,5.4C1.3,5.3,0.1,6.3,0,7.7V23c0.1,0.7,0.6,1.1,1.3,1.1h1
						c-0.3-0.2-0.5-0.5-0.5-0.9V7.9c0.1-1.3,1.3-2.4,2.6-2.3h2.7C6.8,5.5,6.4,5.4,6,5.4L2.6,5.4z"/>
					<path id="Trazado_166217" class="st9" d="M6.7,6.4H6.5c-0.7,0-1.2,0.5-1.2,1.2V23c0,0.2,0.2,0.4,0.4,0.4h1.8
						c0.2,0,0.4-0.2,0.4-0.4V7.6C7.9,6.9,7.4,6.4,6.7,6.4z"/>
					<path id="Trazado_166218" class="st49" d="M3.1,0.3c0-0.1,0-0.2,0.1-0.3H2.7C2.4,0,2.1,0.2,2.1,0.5c0,0,0,0,0,0v4.9h4.4V5.2
						H3.1L3.1,0.3z"/>
				</g>
				<g id="Grupo_128982" transform="translate(11.708 14.384)">
					<path id="Trazado_166219" class="st47" d="M2.7,0.3C2.4,0,1.9-0.1,1.5,0.2L0,1.3l7.2,9.2l1.5-1.2c0.4-0.3,0.4-0.8,0.2-1.2
						c0,0,0,0,0,0L2.7,0.3z"/>
					<path id="Trazado_166220" class="st49" d="M8.4,7.7C8.4,7.8,8.3,7.9,8.2,8L7.6,8.5C7.1,8.9,6.4,8.8,6,8.3L0.3,1.1L0,1.3
						l7.2,9.2l1.5-1.2c0.4-0.3,0.4-0.8,0.2-1.2c0,0,0,0,0,0L8.4,7.7z"/>
				</g>
				<g id="Grupo_128983" transform="translate(0 12.779)">
					<path id="Rectángulo_35765" class="st50" d="M1.6,5h9.6c0.9,0,1.6,0.7,1.6,1.6v4c0,0.9-0.7,1.6-1.6,1.6H1.6
						c-0.9,0-1.6-0.7-1.6-1.6v-4C0,5.7,0.7,5,1.6,5z"/>
					<path id="Rectángulo_35766" class="st51" d="M1.7,3h9.4c0.4,0,0.7,0.3,0.7,0.7v0.1c0,0.4-0.3,0.7-0.7,0.7H1.7
						C1.3,4.6,1,4.3,1,3.9V3.7C1,3.3,1.3,3,1.7,3z"/>
					<path id="Trazado_166221" class="st48" d="M1.3,4.6L1,5h10.9l-0.4-0.5H1.3z"/>
					<path id="Trazado_166222" class="st52" d="M11.9,3.3L0.9,3.7c-0.1,0-0.2,0.1-0.2,0.2c0,0.1,0.1,0.2,0.2,0.2l0,0l10.9-0.4
						c0.1,0,0.2-0.1,0.2-0.2C12.1,3.4,12,3.3,11.9,3.3z"/>
					<path id="Trazado_166223" class="st9" d="M8.3,0c0.1,0.4,0,0.9-0.3,1.1C7.5,1.8,5.9,1.7,4.3,1.8C3.3,2,2.3,2.4,1.5,3h9.7
						c0-0.8-0.3-1.5-0.8-2.1C9.8,0.3,9.1,0,8.3,0z"/>
					<path id="Trazado_166224" class="st53" d="M4,10.9V5H0.5C0.2,5,0,5.3,0,5.6v6.1c0,0.3,0.2,0.5,0.5,0.5h11.7l-7.6-0.5
						C4.3,11.6,4,11.3,4,10.9z"/>
					<path id="Trazado_166225" class="st9" d="M9.1,5.5H7.6c-0.2,0-0.3,0.1-0.3,0.3c0,0.2,0.1,0.3,0.3,0.3c0,0,0,0,0,0h1.5
						c0.2,0,0.3-0.1,0.3-0.3C9.4,5.6,9.3,5.5,9.1,5.5C9.1,5.5,9.1,5.5,9.1,5.5z"/>
					<path id="Trazado_166226" class="st9" d="M5.1,5.6H4.8c-0.1,0-0.3,0.1-0.3,0.2c0,0.1,0.1,0.3,0.2,0.3c0,0,0,0,0,0h0.3
						c0.1,0,0.2-0.1,0.2-0.3C5.3,5.7,5.2,5.6,5.1,5.6z"/>
					<path id="Trazado_166227" class="st52" d="M8.5,0.2c0.2,0.5,0.1,1-0.2,1.4C7.6,2.1,6.8,2.3,6,2.2c-0.9,0-2.2-0.3-2,0.3
						C4.1,3,7.1,3,8.1,2.2c0.5-0.3,0.8-0.9,0.7-1.5C8.7,0.5,8.6,0.4,8.5,0.2z"/>
					<path id="Trazado_166228" class="st52" d="M9.1,0.5C9.3,0.7,9.3,1,9.3,1.2c0,0.3-0.3,1.4,0.3,1.4s0.7-0.7,0.5-1.2
						S9.1,0.5,9.1,0.5z"/>
					<rect id="Rectángulo_35767" x="0" y="6.7" class="st49" width="12.8" height="4"/>
					<path id="Rectángulo_35768" class="st9" d="M11,5.5L11,5.5c0.7,0,1.3,0.6,1.3,1.3v3.6c0,0.7-0.6,1.3-1.3,1.3h0
						c-0.7,0-1.3-0.6-1.3-1.3V6.8C9.7,6.1,10.3,5.5,11,5.5z"/>
				</g>
			</g>
			<g id="Grupo_129267" transform="translate(58.433 21.773)">
				<path id="Rectángulo_35769" class="st54" d="M3.1,4.6h3.6c0.3,0,0.6,0.3,0.6,0.6v0.9c0,0.3-0.3,0.6-0.6,0.6H3.1
					c-0.3,0-0.6-0.3-0.6-0.6V5.2C2.5,4.9,2.8,4.6,3.1,4.6z"/>
				<rect id="Rectángulo_35770" x="3.7" y="3.5" class="st54" width="2.5" height="1.1"/>
				<rect id="Rectángulo_35771" x="4.5" y="1.6" class="st54" width="0.9" height="1.9"/>
				<path id="Trazado_166229" class="st54" d="M6.7,0H0.9C0.8,0,0.8,0,0.8,0.1c0,0,0,0,0,0.1L1,0.6c0,0.1,0.1,0.1,0.2,0.1h5.2
					c0.1,0,0.2-0.1,0.2-0.1l0.2-0.4C6.9,0.1,6.9,0,6.7,0C6.8,0,6.7,0,6.7,0z"/>
				<path id="Trazado_166230" class="st55" d="M1.9,0.9l2.4,0.6h1.3l0.7-0.3c0.1,0,0.1-0.1,0.1-0.2V0.7H1.9L1.9,0.9z"/>
				<path id="Rectángulo_35772" class="st54" d="M2.4,6.9h5.1c0.2,0,0.4,0.2,0.4,0.4v0c0,0.2-0.2,0.4-0.4,0.4H2.4
					C2.2,7.7,2,7.5,2,7.3v0C2,7.1,2.2,6.9,2.4,6.9z"/>
				<rect id="Rectángulo_35773" x="2.7" y="6.7" class="st55" width="4.3" height="0.2"/>
				<path id="Trazado_166231" class="st56" d="M2.5,4.8v1.8c0,0.1,0.1,0.2,0.2,0.2h1.5V4.6H2.7C2.6,4.6,2.5,4.7,2.5,4.8z"/>
				<rect id="Rectángulo_35774" x="3.7" y="3.5" class="st56" width="1" height="1.1"/>
				<path id="Trazado_166232" class="st55" d="M4.5,3.5h0.4V2l0.5-0.1L4.5,1.6V3.5z"/>
				<rect id="Rectángulo_35775" x="4.3" y="1.5" class="st54" width="1.3" height="0.5"/>
				<path id="Trazado_166233" class="st56" d="M4.3,2h0.5V1.6l0.8-0.1H4.3L4.3,2z"/>
				<path id="Rectángulo_35776" class="st27" d="M2,7.3h6c1.1,0,2,0.9,2,2v10.1c0,1.1-0.9,2-2,2H2c-1.1,0-2-0.9-2-2V9.3
					C0,8.2,0.9,7.3,2,7.3z"/>
				<path id="Trazado_166234" class="st57" d="M1.7,19.4V7.7c0-0.1,0-0.3,0.1-0.4H1.3C0.6,7.3,0,7.8,0,8.5v11.7
					c0,0.7,0.6,1.2,1.3,1.2h7.5c0.5,0,1-0.3,1.2-0.8H3C2.3,20.6,1.7,20.1,1.7,19.4C1.7,19.4,1.7,19.4,1.7,19.4z"/>
				<path id="Rectángulo_35777" class="st54" d="M8.2,8.6L8.2,8.6c0.6,0,1.1,0.5,1.1,1.1v9.4c0,0.6-0.5,1.1-1.1,1.1l0,0
					c-0.6,0-1.1-0.5-1.1-1.1V9.7C7.1,9.1,7.6,8.6,8.2,8.6z"/>
				<path id="Trazado_166235" class="st54" d="M9.1,7.7H2.4C2.2,7.7,2.1,7.8,2.1,8c0,0.2,0.1,0.3,0.3,0.3h6.8c0.2,0,0.3-0.1,0.3-0.3
					C9.4,7.8,9.3,7.7,9.1,7.7C9.1,7.7,9.1,7.7,9.1,7.7z"/>
			</g>
			<g id="Grupo_129268" transform="translate(29.583 0)">
				<rect id="Rectángulo_35797" x="15.2" y="29.7" class="st50" width="1.3" height="1.9"/>
				<path id="Trazado_166256" class="st51" d="M29.9,14.6c0,0.1,0,0.2,0,0.3c0,7.8-6.3,14-14,14.1c-7.8,0-14-6.3-14.1-14
					c0,0,0,0,0,0c0-0.1,0-0.2,0-0.3H1c0,0.1,0,0.2,0,0.3c0,8.2,6.7,14.9,14.9,14.9c8.2,0,14.9-6.7,14.9-14.9c0,0,0,0,0,0
					c0-0.1,0-0.2,0-0.3H29.9z"/>
				<path id="Trazado_166257" class="st48" d="M30.4,15.3c-0.3,8-7,14.3-15,14c-7.6-0.3-13.8-6.4-14-14c0-0.1,0-0.2,0-0.3H1
					C1.2,23.3,8,29.8,16.2,29.6c7.9-0.2,14.3-6.6,14.5-14.5h-0.4C30.4,15.1,30.4,15.2,30.4,15.3z"/>
				<rect id="Rectángulo_35798" x="13.7" y="31.9" class="st48" width="0.5" height="0.8"/>
				<g id="Grupo_128994" transform="translate(0 14.053)">
					<path id="Trazado_166258" class="st50" d="M4.2,0H0.9C0.4,0,0,0.4,0,0.9s0.4,0.9,0.9,0.9l0,0h3.3c0.5,0,0.9-0.4,0.9-0.9
						S4.7,0,4.2,0z"/>
					<path id="Trazado_166259" class="st50" d="M30.7,0h-3.3c-0.5,0-0.9,0.4-0.9,0.9s0.4,0.9,0.9,0.9l0,0h3.3c0.5,0,0.9-0.4,0.9-0.9
						S31.2,0,30.7,0z"/>
				</g>
				<circle id="Elipse_4456" class="st58" cx="15.9" cy="14.8" r="12.8"/>
				<rect id="Rectángulo_35799" x="14.1" y="31.5" class="st58" width="3.4" height="11.3"/>
				<path id="Trazado_166260" class="st51" d="M21.5,42.3H10.2c-0.3,0-0.6,0.3-0.6,0.6l0,0v0.7h12.5v-0.7
					C22.1,42.5,21.9,42.3,21.5,42.3z"/>
				<path id="Trazado_166261" class="st51" d="M19.7,41H12c-0.3,0-0.6,0.3-0.6,0.6c0,0,0,0,0,0v0.7h8.9v-0.7
					C20.3,41.2,20.1,41,19.7,41z"/>
				<path id="Rectángulo_35800" class="st51" d="M13.2,31.7L13.2,31.7c0.3,0,0.6,0.3,0.6,0.6v0.1c0,0.3-0.3,0.6-0.6,0.6l0,0
					c-0.3,0-0.6-0.3-0.6-0.6v-0.1C12.6,31.9,12.8,31.7,13.2,31.7z"/>
				
					<linearGradient id="Elipse_4457_00000149376553162368061370000015371345298871580040_" gradientUnits="userSpaceOnUse" x1="-120.6676" y1="269.8228" x2="-120.6676" y2="268.8228" gradientTransform="matrix(8.603 -21.1168 -21.1168 -8.603 6741.2002 -216.273)">
					<stop  offset="0" style="stop-color:#F5F5F5"/>
					<stop  offset="0.25" style="stop-color:#F5F5F5"/>
					<stop  offset="1" style="stop-color:#EEEEF2"/>
				</linearGradient>
				
					<circle id="Elipse_4457" style="fill:url(#Elipse_4457_00000149376553162368061370000015371345298871580040_);" cx="15.9" cy="14.9" r="11.4"/>
				<path id="Trazado_166262" class="st50" d="M15.5,31.5h-1.3v9.4h3.4l-2.1-0.6V31.5z"/>
				<rect id="Rectángulo_35801" x="11.4" y="41.8" class="st48" width="8.9" height="0.4"/>
				<rect id="Rectángulo_35802" x="9.6" y="43.1" class="st48" width="12.5" height="0.5"/>
				<path id="Rectángulo_35803" class="st60" d="M29.3,14.4h1.5c0.2,0,0.4,0.2,0.4,0.4v0c0,0.2-0.2,0.4-0.4,0.4h-1.5
					c-0.2,0-0.4-0.2-0.4-0.4v0C28.9,14.5,29.1,14.4,29.3,14.4z"/>
				<path id="Trazado_166263" class="st60" d="M2.3,14.4H1c-0.2,0-0.3,0.2-0.3,0.3c0,0.2,0.2,0.3,0.3,0.3h1.3c0.2,0,0.3-0.2,0.3-0.3
					C2.7,14.5,2.5,14.4,2.3,14.4L2.3,14.4z"/>
				<path id="Trazado_166264" class="st50" d="M4,14.1c0-3.7,1.6-7.3,4.5-9.7c-5.8,4.1-7.2,12-3.1,17.8s12,7.2,17.8,3.1
					c0.3-0.2,0.6-0.5,0.9-0.7c-5.8,4.1-13.7,2.7-17.8-3.1C4.8,19.3,4,16.8,4,14.1L4,14.1z"/>
				<rect id="Rectángulo_35804" x="15.2" y="29.7" class="st48" width="0.6" height="1.8"/>
				<path id="Trazado_166265" class="st61" d="M10.8,4.7l12.8,18.6c1-0.9,1.7-1.9,2.4-3.1L14.4,3.6C13.2,3.7,11.9,4.1,10.8,4.7z"/>
				<path id="Trazado_166266" class="st61" d="M7.3,7.3l12.6,18.2c0.5-0.2,0.9-0.4,1.3-0.6L8.3,6.3C8,6.6,7.6,7,7.3,7.3z"/>
				<path id="Trazado_166267" class="st62" d="M15.9,3.5C9.6,3.5,4.5,8.6,4.5,14.9s5.1,11.4,11.4,11.4c6.3,0,11.4-5.1,11.4-11.4v0
					C27.3,8.6,22.2,3.5,15.9,3.5z M15.9,26C9.7,26,4.7,21,4.7,14.8c0-6.1,5-11.1,11.1-11.1C22,3.7,27,8.7,27,14.8c0,0,0,0,0,0
					C27,21,22,26,15.9,26z"/>
			</g>
		</g>
	</g>
	<g id="Grupo_133081" transform="translate(944.881 3532.837)">
		<g id="Grupo_128820" transform="translate(-7.907 464.102)">
			<path id="Trazado_165801" class="st63" d="M76,98.2c-6,0-9.1-4.1-9.1-12.3V35.2h1.4v50.7c0,7.3,2.4,10.7,7.7,10.7
				c6,0,7-1.5,7-11.7c0-1.3,0-2.7-0.1-4.2c-0.2-8.6-0.3-19.4,3.5-23.9c1.1-1.3,2.7-2.1,4.4-2.1h10v1.6h-10c-1.3,0-2.6,0.6-3.4,1.6
				c-3.4,4-3.2,14.8-3.1,22.7c0,1.5,0.1,2.9,0.1,4.2C84.4,95.2,83.3,98.2,76,98.2z"/>
			<path id="Rectángulo_35595" class="st64" d="M4.1,0h44.8c1.3,0,2.3,1,2.3,2.3v6.8c0,1.3-1,2.3-2.3,2.3H4.1c-1.3,0-2.3-1-2.3-2.3
				V2.3C1.7,1,2.8,0,4.1,0z"/>
			<path id="Rectángulo_35596" class="st64" d="M54.2,0h245.1c1.3,0,2.3,1,2.3,2.3v6.8c0,1.3-1,2.3-2.3,2.3H54.2
				c-1.3,0-2.3-1-2.3-2.3V2.3C51.9,1,52.9,0,54.2,0z"/>
			<rect id="Rectángulo_35597" x="94.5" y="72.2" class="st65" width="44.8" height="61.3"/>
			<rect id="Rectángulo_35598" x="94.5" y="38.3" class="st66" width="44.8" height="28"/>
			<path id="Trazado_165802" class="st67" d="M169.4,16.1H64.2l30.3,23.8h44.9L169.4,16.1z"/>
			<path id="Trazado_165803" class="st67" d="M184.8,145l-138.1,0.8l47.7-14h44.9L184.8,145z"/>
			<path id="Trazado_165804" class="st68" d="M77.6,26.8h78.2l13.4-10.7H64L77.6,26.8z"/>
			
				<linearGradient id="Rectángulo_35599_00000091738029752565809250000009709144897552091043_" gradientUnits="userSpaceOnUse" x1="-107.6998" y1="269.004" x2="-107.6998" y2="268.004" gradientTransform="matrix(304.181 0 0 -10.944 32912.3359 2952.4617)">
				<stop  offset="0" style="stop-color:#F5F5F5"/>
				<stop  offset="0.25" style="stop-color:#F5F5F5"/>
				<stop  offset="1" style="stop-color:#A7B3CF"/>
			</linearGradient>
			
				<rect id="Rectángulo_35599" x="0" y="8.5" style="fill:url(#Rectángulo_35599_00000091738029752565809250000009709144897552091043_);" width="304.2" height="10.9"/>
			<rect id="Rectángulo_35600" x="46.4" y="145.3" class="st70" width="139.6" height="12.3"/>
			<path id="Rectángulo_35601" class="st70" d="M91.5,65.5h51.4c0.9,0,1.6,0.7,1.6,1.6v4.6c0,0.9-0.7,1.6-1.6,1.6H91.5
				c-0.9,0-1.6-0.7-1.6-1.6v-4.6C90,66.2,90.7,65.5,91.5,65.5z"/>
			<g id="Grupo_128816" transform="translate(99.126 78.513)">
				<path id="Rectángulo_35602" class="st9" d="M0,20.1V0.7C0,0.3,0.3,0,0.7,0h33c0.4,0,0.7,0.3,0.7,0.7v19.4
					c0,0.4-0.3,0.7-0.7,0.7h-33C0.3,20.8,0,20.5,0,20.1z"/>
				<g id="Grupo_128815" transform="translate(3.112 7.043)">
					<path id="Rectángulo_35603" class="st71" d="M0.3,0h12.9c0.1,0,0.3,0.1,0.3,0.3v6c0,0.1-0.1,0.3-0.3,0.3H0.3
						C0.1,6.5,0,6.4,0,6.2v-6C0,0.1,0.1,0,0.3,0z"/>
					<rect id="Rectángulo_35604" x="0.4" y="0.5" class="st13" width="12.4" height="5.5"/>
					<g id="Grupo_128814" transform="translate(0.424 0.513)">
						<g>
							<defs>
								<rect id="SVGID_00000119802832305348360090000007921627578513486229_" x="0" y="0" width="12.4" height="5.5"/>
							</defs>
							<clipPath id="SVGID_00000179607095321214950260000012859979237740832391_">
								<use xlink:href="#SVGID_00000119802832305348360090000007921627578513486229_"  style="overflow:visible;"/>
							</clipPath>
							<g id="Grupo_128813" style="clip-path:url(#SVGID_00000179607095321214950260000012859979237740832391_);">
								<path id="Trazado_170387" class="st73" d="M11.2-1.4l1.2,1.7L3.9,8.6L2.7,6.9L11.2-1.4z"/>
								<path id="Trazado_170388" class="st73" d="M7.7-1.4l0.8,1.1L0.1,8.1l-0.8-1.1L7.7-1.4z"/>
								<path id="Trazado_170389" class="st73" d="M12.4,1.5l0.7,1L5.7,9.8l-0.7-1L12.4,1.5z"/>
							</g>
						</g>
					</g>
				</g>
				<path id="Rectángulo_35609" class="st71" d="M18.8,2.4H31c0.3,0,0.5,0.2,0.5,0.5v15c0,0.3-0.2,0.5-0.5,0.5H18.8
					c-0.3,0-0.5-0.2-0.5-0.5v-15C18.2,2.6,18.5,2.4,18.8,2.4z"/>
				<path id="Rectángulo_35610" class="st74" d="M19.7,3.9h2.6c0.1,0,0.2,0.1,0.2,0.2v1.2c0,0.1-0.1,0.2-0.2,0.2h-2.6
					c-0.1,0-0.2-0.1-0.2-0.2V4C19.5,4,19.6,3.9,19.7,3.9z"/>
				<path id="Rectángulo_35611" class="st74" d="M23.3,3.9h2.6C26,3.9,26.1,4,26.1,4v1.2c0,0.1-0.1,0.2-0.2,0.2h-2.6
					c-0.1,0-0.2-0.1-0.2-0.2V4C23.1,4,23.2,3.9,23.3,3.9z"/>
				<path id="Rectángulo_35612" class="st74" d="M26.9,3.9h2.6c0.1,0,0.2,0.1,0.2,0.2v1.2c0,0.1-0.1,0.2-0.2,0.2h-2.6
					c-0.1,0-0.2-0.1-0.2-0.2V4C26.8,4,26.8,3.9,26.9,3.9z"/>
				<path id="Rectángulo_35613" class="st74" d="M19.7,6.2h2.6c0.1,0,0.2,0.1,0.2,0.2v1.2c0,0.1-0.1,0.2-0.2,0.2h-2.6
					c-0.1,0-0.2-0.1-0.2-0.2V6.3C19.5,6.2,19.6,6.2,19.7,6.2z"/>
				<path id="Rectángulo_35614" class="st74" d="M23.3,6.2h2.6c0.1,0,0.2,0.1,0.2,0.2v1.2c0,0.1-0.1,0.2-0.2,0.2h-2.6
					c-0.1,0-0.2-0.1-0.2-0.2V6.3C23.1,6.2,23.2,6.2,23.3,6.2z"/>
				<path id="Rectángulo_35615" class="st74" d="M26.9,6.2h2.6c0.1,0,0.2,0.1,0.2,0.2v1.2c0,0.1-0.1,0.2-0.2,0.2h-2.6
					c-0.1,0-0.2-0.1-0.2-0.2V6.3C26.8,6.2,26.8,6.2,26.9,6.2z"/>
				<path id="Rectángulo_35616" class="st74" d="M19.7,8.5h2.6c0.1,0,0.2,0.1,0.2,0.2v1.2c0,0.1-0.1,0.2-0.2,0.2h-2.6
					c-0.1,0-0.2-0.1-0.2-0.2V8.7C19.5,8.6,19.6,8.5,19.7,8.5z"/>
				<path id="Rectángulo_35617" class="st74" d="M23.3,8.5h2.6c0.1,0,0.2,0.1,0.2,0.2v1.2c0,0.1-0.1,0.2-0.2,0.2h-2.6
					c-0.1,0-0.2-0.1-0.2-0.2V8.7C23.1,8.6,23.2,8.5,23.3,8.5z"/>
				<path id="Rectángulo_35618" class="st74" d="M26.9,8.5h2.6c0.1,0,0.2,0.1,0.2,0.2v1.2c0,0.1-0.1,0.2-0.2,0.2h-2.6
					c-0.1,0-0.2-0.1-0.2-0.2V8.7C26.8,8.6,26.8,8.5,26.9,8.5z"/>
				<path id="Rectángulo_35619" class="st74" d="M19.7,10.9h2.6c0.1,0,0.2,0.1,0.2,0.2v1.2c0,0.1-0.1,0.2-0.2,0.2h-2.6
					c-0.1,0-0.2-0.1-0.2-0.2V11C19.5,11,19.6,10.9,19.7,10.9z"/>
				<path id="Rectángulo_35620" class="st74" d="M23.3,10.9h2.6c0.1,0,0.2,0.1,0.2,0.2v1.2c0,0.1-0.1,0.2-0.2,0.2h-2.6
					c-0.1,0-0.2-0.1-0.2-0.2V11C23.1,11,23.2,10.9,23.3,10.9z"/>
				<path id="Rectángulo_35621" class="st74" d="M26.9,10.9h2.6c0.1,0,0.2,0.1,0.2,0.2v1.2c0,0.1-0.1,0.2-0.2,0.2h-2.6
					c-0.1,0-0.2-0.1-0.2-0.2V11C26.8,11,26.8,10.9,26.9,10.9z"/>
				<rect id="Rectángulo_35622" x="21.2" y="14.2" class="st75" width="6.8" height="3"/>
				<path id="Rectángulo_35623" class="st76" d="M22,14.8h5c0,0,0.1,0,0.1,0v0.2c0,0,0,0.1-0.1,0.1h-5c0,0-0.1,0-0.1-0.1L22,14.8
					C21.9,14.9,22,14.8,22,14.8z"/>
				<path id="Rectángulo_35624" class="st76" d="M22,15.3h5c0,0,0.1,0,0.1,0v0.2c0,0,0,0.1-0.1,0.1h-5c0,0-0.1,0-0.1-0.1L22,15.3
					C21.9,15.4,22,15.3,22,15.3z"/>
				<path id="Rectángulo_35625" class="st76" d="M22,15.8h4.1c0,0,0,0,0,0V16c0,0,0,0.1,0,0.1H22c0,0-0.1,0-0.1-0.1L22,15.8
					C21.9,15.8,22,15.8,22,15.8z"/>
				<path id="Rectángulo_35626" class="st76" d="M22,16.4h1.9c0,0,0,0,0,0.1v0.2c0,0,0,0,0,0H22c0,0-0.1,0-0.1,0L22,16.4
					C21.9,16.4,22,16.4,22,16.4z"/>
			</g>
			<g id="Grupo_128817" transform="translate(98.071 107.966)">
				<rect id="Rectángulo_35627" x="0" y="0" class="st24" width="17.3" height="12.8"/>
				<path id="Rectángulo_35628" class="st77" d="M2.9,0.9h11.2c0.3,0,0.6,0.2,0.6,0.6v1.6c0,0.3-0.2,0.6-0.6,0.6H2.9
					c-0.3,0-0.6-0.2-0.6-0.6V1.4C2.3,1.1,2.6,0.9,2.9,0.9z"/>
				<path id="Rectángulo_35629" class="st9" d="M3.7,1.9h9.5c0.1,0,0.1,0.1,0.1,0.1v0.4c0,0.1-0.1,0.1-0.1,0.1H3.7
					c-0.1,0-0.1-0.1-0.1-0.1V2C3.6,1.9,3.6,1.9,3.7,1.9z"/>
				<path id="Rectángulo_35630" class="st78" d="M1.2,5.1h14.6c0,0,0.1,0,0.1,0.1v0.3c0,0,0,0.1-0.1,0.1H1.2c0,0-0.1,0-0.1-0.1
					L1.2,5.1C1.1,5.2,1.2,5.1,1.2,5.1z"/>
				<path id="Rectángulo_35631" class="st78" d="M1.2,6.2h14.6c0,0,0.1,0,0.1,0.1v0.3c0,0,0,0.1-0.1,0.1H1.2c0,0-0.1,0-0.1-0.1
					L1.2,6.2C1.1,6.2,1.2,6.2,1.2,6.2z"/>
				<path id="Rectángulo_35632" class="st78" d="M1.2,7.3h14.6c0,0,0.1,0,0.1,0.1v0.3c0,0,0,0.1-0.1,0.1H1.2c0,0-0.1,0-0.1-0.1
					L1.2,7.3C1.1,7.3,1.2,7.3,1.2,7.3z"/>
				<path id="Rectángulo_35633" class="st78" d="M1.2,8.3h14.6c0,0,0.1,0,0.1,0.1v0.3c0,0,0,0.1-0.1,0.1H1.2c0,0-0.1,0-0.1-0.1
					L1.2,8.3C1.1,8.3,1.2,8.3,1.2,8.3z"/>
				<path id="Rectángulo_35634" class="st78" d="M4,9.4h9.7c0,0,0.1,0,0.1,0.1v0.3c0,0,0,0.1-0.1,0.1H4c0,0-0.1,0-0.1-0.1L4,9.4
					C3.9,9.5,4,9.4,4,9.4z"/>
			</g>
			<g id="Grupo_128819" transform="translate(60.731 20.171)">
				<g id="Grupo_128818">
					<path id="Rectángulo_35635" class="st71" d="M1.1,0.6h12.2c0.3,0,0.5,0.2,0.5,0.5v15c0,0.3-0.2,0.5-0.5,0.5H1.1
						c-0.3,0-0.5-0.2-0.5-0.5v-15C0.5,0.9,0.8,0.6,1.1,0.6z"/>
					<path id="Trazado_165805" class="st75" d="M13.1,17.3H1.3c-0.8-0.1-1.3-0.7-1.3-1.5V1.5C-0.1,0.7,0.5,0.1,1.3,0h11.8
						c0.8,0.1,1.3,0.7,1.3,1.5v14.3C14.4,16.6,13.8,17.3,13.1,17.3z M1.3,1.2c-0.1,0-0.2,0.1-0.2,0.3v14.3c0,0.1,0.1,0.2,0.2,0.3
						h11.8c0.1,0,0.2-0.1,0.2-0.3V1.5c0-0.1-0.1-0.2-0.2-0.3L1.3,1.2z"/>
				</g>
				<path id="Rectángulo_35636" class="st74" d="M2,2.1h2.6c0.1,0,0.2,0.1,0.2,0.2v1.2c0,0.1-0.1,0.2-0.2,0.2H2
					c-0.1,0-0.2-0.1-0.2-0.2V2.2C1.8,2.2,1.9,2.1,2,2.1z"/>
				<path id="Rectángulo_35637" class="st74" d="M5.6,2.1h2.6c0.1,0,0.2,0.1,0.2,0.2v1.2c0,0.1-0.1,0.2-0.2,0.2H5.6
					c-0.1,0-0.2-0.1-0.2-0.2V2.2C5.5,2.2,5.5,2.1,5.6,2.1z"/>
				<path id="Rectángulo_35638" class="st74" d="M9.2,2.1h2.6c0.1,0,0.2,0.1,0.2,0.2v1.2c0,0.1-0.1,0.2-0.2,0.2H9.2
					c-0.1,0-0.2-0.1-0.2-0.2V2.2C9.1,2.2,9.1,2.1,9.2,2.1z"/>
				<path id="Rectángulo_35639" class="st74" d="M2,4.4h2.6c0.1,0,0.2,0.1,0.2,0.2v1.2c0,0.1-0.1,0.2-0.2,0.2H2
					c-0.1,0-0.2-0.1-0.2-0.2V4.5C1.8,4.4,1.9,4.4,2,4.4z"/>
				<path id="Rectángulo_35640" class="st74" d="M5.6,4.4h2.6c0.1,0,0.2,0.1,0.2,0.2v1.2c0,0.1-0.1,0.2-0.2,0.2H5.6
					c-0.1,0-0.2-0.1-0.2-0.2V4.5C5.5,4.4,5.5,4.4,5.6,4.4z"/>
				<path id="Rectángulo_35641" class="st74" d="M9.2,4.4h2.6c0.1,0,0.2,0.1,0.2,0.2v1.2c0,0.1-0.1,0.2-0.2,0.2H9.2
					c-0.1,0-0.2-0.1-0.2-0.2V4.5C9.1,4.4,9.1,4.4,9.2,4.4z"/>
				<path id="Rectángulo_35642" class="st74" d="M2,6.8h2.6c0.1,0,0.2,0.1,0.2,0.2v1.2c0,0.1-0.1,0.2-0.2,0.2H2
					c-0.1,0-0.2-0.1-0.2-0.2V6.9C1.8,6.8,1.9,6.8,2,6.8z"/>
				<path id="Rectángulo_35643" class="st74" d="M5.6,6.8h2.6c0.1,0,0.2,0.1,0.2,0.2v1.2c0,0.1-0.1,0.2-0.2,0.2H5.6
					c-0.1,0-0.2-0.1-0.2-0.2V6.9C5.5,6.8,5.5,6.8,5.6,6.8z"/>
				<path id="Rectángulo_35644" class="st74" d="M9.2,6.8h2.6c0.1,0,0.2,0.1,0.2,0.2v1.2c0,0.1-0.1,0.2-0.2,0.2H9.2
					c-0.1,0-0.2-0.1-0.2-0.2V6.9C9.1,6.8,9.1,6.8,9.2,6.8z"/>
				<path id="Rectángulo_35645" class="st74" d="M2,9.1h2.6c0.1,0,0.2,0.1,0.2,0.2v1.2c0,0.1-0.1,0.2-0.2,0.2H2
					c-0.1,0-0.2-0.1-0.2-0.2V9.3C1.8,9.2,1.9,9.1,2,9.1z"/>
				<path id="Rectángulo_35646" class="st74" d="M5.6,9.1h2.6c0.1,0,0.2,0.1,0.2,0.2v1.2c0,0.1-0.1,0.2-0.2,0.2H5.6
					c-0.1,0-0.2-0.1-0.2-0.2V9.3C5.5,9.2,5.5,9.1,5.6,9.1z"/>
				<path id="Rectángulo_35647" class="st74" d="M9.2,9.1h2.6c0.1,0,0.2,0.1,0.2,0.2v1.2c0,0.1-0.1,0.2-0.2,0.2H9.2
					c-0.1,0-0.2-0.1-0.2-0.2V9.3C9.1,9.2,9.1,9.1,9.2,9.1z"/>
				<rect id="Rectángulo_35648" x="3.5" y="12.4" class="st75" width="6.8" height="3"/>
				<path id="Rectángulo_35649" class="st76" d="M4.3,13.1h5c0,0,0.1,0,0.1,0v0.2c0,0,0,0.1-0.1,0.1h-5c0,0,0,0,0-0.1L4.3,13.1
					C4.3,13.1,4.3,13.1,4.3,13.1z"/>
				<path id="Rectángulo_35650" class="st76" d="M4.3,13.5h5c0,0,0.1,0,0.1,0v0.2c0,0,0,0.1-0.1,0.1h-5c0,0,0,0,0-0.1L4.3,13.5
					C4.3,13.6,4.3,13.5,4.3,13.5z"/>
				<path id="Rectángulo_35651" class="st76" d="M4.3,14h4.1c0,0,0.1,0,0.1,0v0.2c0,0,0,0.1-0.1,0.1H4.3c0,0,0,0,0-0.1L4.3,14
					C4.3,14,4.3,14,4.3,14z"/>
				<path id="Rectángulo_35652" class="st76" d="M4.3,14.6h1.9c0,0,0.1,0,0.1,0v0.2c0,0,0,0.1-0.1,0.1H4.3c0,0,0,0,0-0.1L4.3,14.6
					C4.3,14.7,4.3,14.6,4.3,14.6z"/>
			</g>
		</g>
		<path id="Trazado_165806" class="st27" d="M-1.8,464.1c0,0,46.1-1.7,61.3-1.2s65.7,3.3,79.9,1.6c11.1-1.3,141.8-1.1,141.8-1.1
			s4.3-34.8,0.9-35.9s-8.5,6.5-12.8,15.8c0,0-45.4-13.1-76.1-12.5s-60.5,2.7-76.6,1.1S14.5,418-1.8,464.1z"/>
		<path id="Trazado_165807" class="st79" d="M53.3,438.8C42.9,438.7,34,449,23.5,449.1c10.4-8.6,23-14.1,36.3-15.9
			c7.8-1,15.7-0.7,23.5-0.3c5.8,0.3,11.7,0.5,17.5,1.9c-8.1,2.3-16.4,4-24.7,5.1c2,0.7,4,1.4,6,2.1c-12.4,4.1-24.7,8.1-37.1,12.2
			c7.2-5.1,15-9.2,23.3-12.2c-5.1-2.3-10.9-2.6-16.1-0.7C52.3,440.2,52.7,439.4,53.3,438.8z"/>
		<path id="Trazado_165808" class="st79" d="M124.9,450.4c10.5-1.8,20.9-4.5,31-8c-12.3,0-24.8-0.1-36.6-4.1
			c16.4-0.9,32.8-1.8,49.2-2.6c-0.7,0.7,0.6,1.7,1.5,1.7c14.5-0.1,29-0.2,43.4-0.3c-17.3,1.7-34.5,4.6-51.3,8.9
			C149.9,449.1,137.3,453,124.9,450.4z"/>
		<path id="Trazado_165809" class="st79" d="M280.3,438.4c-0.4-0.8-1.6-0.4-2.1,0.3c-2.2,2.5-2.6,7.2-5.5,8.5
			c-1.3,0.5-2.8,0.5-4.1,0.1c-12.8-2.7-25.8-6.9-38.6-4.3c10.2,1,20.1,3.3,29.7,6.8c-5.3,0.7-10.6,2.1-15.6,4.2l27.9,1
			c0.6,0.1,1.1,0,1.6-0.3c0.6-0.5,1-1.1,1.1-1.8C276.6,448,278.5,443.2,280.3,438.4z"/>
	</g>
	<g id="Grupo_133082" transform="translate(1089.065 3607.09)">
		<g class="st80">
			<path class="st64" d="M10.9,30.6V10h6.3c1.8,0,3.4,0.4,4.9,1.2c1.4,0.8,2.5,2,3.3,3.5s1.2,3.2,1.2,5.1v0.9c0,1.9-0.4,3.6-1.2,5.1
				c-0.8,1.5-1.9,2.6-3.3,3.5s-3.1,1.2-4.9,1.2H10.9z M15.2,13.5v13.8h2.1c1.7,0,2.9-0.5,3.8-1.6s1.3-2.6,1.3-4.7v-1.1
				c0-2.1-0.4-3.7-1.3-4.8s-2.1-1.6-3.8-1.6H15.2z"/>
			<path class="st64" d="M42.2,21.7H34v5.6h9.6v3.4H29.8V10h13.8v3.4H34v4.9h8.2V21.7z"/>
			<path class="st64" d="M56.8,25.2c0-0.8-0.3-1.4-0.8-1.8s-1.6-0.9-3.1-1.4s-2.6-0.9-3.5-1.4c-2.3-1.3-3.5-3-3.5-5.1
				c0-1.1,0.3-2.1,0.9-3s1.5-1.6,2.7-2c1.2-0.5,2.5-0.7,4-0.7c1.5,0,2.8,0.3,3.9,0.8c1.2,0.5,2,1.3,2.7,2.3c0.6,1,1,2.1,1,3.3h-4.2
				c0-0.9-0.3-1.7-0.9-2.2c-0.6-0.5-1.4-0.8-2.5-0.8c-1,0-1.8,0.2-2.4,0.7c-0.6,0.4-0.9,1-0.9,1.7c0,0.7,0.3,1.2,1,1.7
				c0.7,0.5,1.7,0.9,3,1.3c2.4,0.7,4.2,1.6,5.3,2.7s1.7,2.4,1.7,4c0,1.8-0.7,3.2-2,4.2c-1.3,1-3.2,1.5-5.5,1.5c-1.6,0-3-0.3-4.3-0.9
				c-1.3-0.6-2.3-1.4-3-2.4c-0.7-1-1-2.2-1-3.5h4.3c0,2.3,1.4,3.4,4.1,3.4c1,0,1.8-0.2,2.4-0.6C56.5,26.5,56.8,26,56.8,25.2z"/>
			<path class="st64" d="M80.1,23.8c-0.2,2.2-1,4-2.5,5.2c-1.5,1.3-3.4,1.9-5.8,1.9c-2.6,0-4.7-0.9-6.2-2.7
				c-1.5-1.8-2.3-4.2-2.3-7.3v-1.3c0-2,0.3-3.7,1-5.2c0.7-1.5,1.7-2.7,3-3.5c1.3-0.8,2.8-1.2,4.5-1.2c2.4,0,4.3,0.6,5.7,1.9
				c1.5,1.3,2.3,3.1,2.5,5.4h-4.2c-0.1-1.3-0.5-2.3-1.1-2.9c-0.6-0.6-1.6-0.9-2.9-0.9c-1.4,0-2.5,0.5-3.2,1.5
				c-0.7,1-1.1,2.6-1.1,4.7V21c0,2.2,0.3,3.9,1,4.9s1.7,1.5,3.2,1.5c1.3,0,2.3-0.3,2.9-0.9c0.6-0.6,1-1.5,1.1-2.8H80.1z"/>
			<path class="st64" d="M99.8,20.8c0,2-0.4,3.8-1.1,5.3c-0.7,1.5-1.7,2.7-3.1,3.5c-1.3,0.8-2.9,1.2-4.6,1.2c-1.7,0-3.2-0.4-4.6-1.2
				c-1.3-0.8-2.4-2-3.1-3.5s-1.1-3.3-1.1-5.3v-1c0-2,0.4-3.8,1.1-5.4c0.7-1.5,1.8-2.7,3.1-3.6c1.3-0.8,2.9-1.2,4.6-1.2
				c1.7,0,3.2,0.4,4.6,1.2s2.4,2,3.1,3.6c0.7,1.5,1.1,3.3,1.1,5.3V20.8z M95.5,19.9c0-2.2-0.4-3.8-1.2-4.9c-0.8-1.1-1.9-1.7-3.3-1.7
				c-1.4,0-2.5,0.6-3.3,1.7c-0.8,1.1-1.2,2.7-1.2,4.9v1c0,2.1,0.4,3.7,1.2,4.9c0.8,1.2,1.9,1.7,3.3,1.7c1.4,0,2.5-0.6,3.3-1.7
				c0.8-1.1,1.2-2.8,1.2-4.9V19.9z"/>
			<path class="st64" d="M108.5,10l5.3,15l5.3-15h5.6v20.6h-4.3V25l0.4-9.7l-5.6,15.4h-2.9l-5.6-15.3l0.4,9.7v5.6h-4.2V10H108.5z"/>
			<path class="st64" d="M132.6,23.4v7.3h-4.2V10h8c1.5,0,2.9,0.3,4.1,0.8c1.2,0.6,2.1,1.4,2.7,2.4c0.6,1,0.9,2.2,0.9,3.6
				c0,2-0.7,3.6-2.1,4.8c-1.4,1.2-3.3,1.7-5.7,1.7H132.6z M132.6,19.9h3.8c1.1,0,2-0.3,2.6-0.8s0.9-1.3,0.9-2.3c0-1-0.3-1.8-0.9-2.4
				s-1.4-0.9-2.5-1h-3.9V19.9z"/>
			<path class="st64" d="M164,20.8c0,2-0.4,3.8-1.1,5.3c-0.7,1.5-1.7,2.7-3.1,3.5s-2.9,1.2-4.6,1.2c-1.7,0-3.2-0.4-4.6-1.2
				c-1.3-0.8-2.4-2-3.1-3.5s-1.1-3.3-1.1-5.3v-1c0-2,0.4-3.8,1.1-5.4c0.7-1.5,1.8-2.7,3.1-3.6s2.9-1.2,4.6-1.2
				c1.7,0,3.2,0.4,4.6,1.2c1.3,0.8,2.4,2,3.1,3.6c0.7,1.5,1.1,3.3,1.1,5.3V20.8z M159.7,19.9c0-2.2-0.4-3.8-1.2-4.9
				c-0.8-1.1-1.9-1.7-3.3-1.7c-1.4,0-2.5,0.6-3.3,1.7c-0.8,1.1-1.2,2.7-1.2,4.9v1c0,2.1,0.4,3.7,1.2,4.9c0.8,1.2,1.9,1.7,3.3,1.7
				c1.4,0,2.5-0.6,3.3-1.7c0.8-1.1,1.2-2.8,1.2-4.9V19.9z"/>
			<path class="st64" d="M177.7,25.2c0-0.8-0.3-1.4-0.8-1.8s-1.6-0.9-3.1-1.4s-2.6-0.9-3.5-1.4c-2.3-1.3-3.5-3-3.5-5.1
				c0-1.1,0.3-2.1,0.9-3s1.5-1.6,2.7-2c1.2-0.5,2.5-0.7,4-0.7c1.5,0,2.8,0.3,3.9,0.8c1.2,0.5,2,1.3,2.7,2.3c0.6,1,1,2.1,1,3.3h-4.2
				c0-0.9-0.3-1.7-0.9-2.2c-0.6-0.5-1.4-0.8-2.5-0.8c-1,0-1.8,0.2-2.4,0.7c-0.6,0.4-0.9,1-0.9,1.7c0,0.7,0.3,1.2,1,1.7
				c0.7,0.5,1.7,0.9,3,1.3c2.4,0.7,4.2,1.6,5.3,2.7s1.7,2.4,1.7,4c0,1.8-0.7,3.2-2,4.2c-1.3,1-3.2,1.5-5.5,1.5c-1.6,0-3-0.3-4.3-0.9
				c-1.3-0.6-2.3-1.4-3-2.4c-0.7-1-1-2.2-1-3.5h4.3c0,2.3,1.4,3.4,4.1,3.4c1,0,1.8-0.2,2.4-0.6C177.5,26.5,177.7,26,177.7,25.2z"/>
			<path class="st64" d="M189.4,30.6h-4.2V10h4.2V30.6z"/>
			<path class="st64" d="M209.5,23.8c-0.2,2.2-1,4-2.5,5.2c-1.5,1.3-3.4,1.9-5.8,1.9c-2.6,0-4.7-0.9-6.2-2.7
				c-1.5-1.8-2.3-4.2-2.3-7.3v-1.3c0-2,0.3-3.7,1-5.2c0.7-1.5,1.7-2.7,3-3.5c1.3-0.8,2.8-1.2,4.5-1.2c2.4,0,4.3,0.6,5.7,1.9
				c1.5,1.3,2.3,3.1,2.5,5.4h-4.2c-0.1-1.3-0.5-2.3-1.1-2.9c-0.6-0.6-1.6-0.9-2.9-0.9c-1.4,0-2.5,0.5-3.2,1.5s-1.1,2.6-1.1,4.7V21
				c0,2.2,0.3,3.9,1,4.9c0.7,1,1.7,1.5,3.2,1.5c1.3,0,2.3-0.3,2.9-0.9s1-1.5,1.1-2.8H209.5z"/>
			<path class="st64" d="M216.8,30.6h-4.2V10h4.2V30.6z"/>
			<path class="st64" d="M237.7,20.8c0,2-0.4,3.8-1.1,5.3c-0.7,1.5-1.7,2.7-3.1,3.5c-1.3,0.8-2.9,1.2-4.6,1.2
				c-1.7,0-3.2-0.4-4.6-1.2c-1.3-0.8-2.4-2-3.1-3.5s-1.1-3.3-1.1-5.3v-1c0-2,0.4-3.8,1.1-5.4c0.7-1.5,1.8-2.7,3.1-3.6
				c1.3-0.8,2.9-1.2,4.6-1.2c1.7,0,3.2,0.4,4.6,1.2s2.4,2,3.1,3.6c0.7,1.5,1.1,3.3,1.1,5.3V20.8z M233.4,19.9c0-2.2-0.4-3.8-1.2-4.9
				c-0.8-1.1-1.9-1.7-3.3-1.7c-1.4,0-2.5,0.6-3.3,1.7c-0.8,1.1-1.2,2.7-1.2,4.9v1c0,2.1,0.4,3.7,1.2,4.9c0.8,1.2,1.9,1.7,3.3,1.7
				c1.4,0,2.5-0.6,3.3-1.7c0.8-1.1,1.2-2.8,1.2-4.9V19.9z M229.7,4.5h4.5l-3.9,4.4H227L229.7,4.5z"/>
			<path class="st64" d="M257.6,30.6h-4.2L245,17.1v13.6h-4.2V10h4.2l8.3,13.6V10h4.2V30.6z"/>
		</g>
		<g class="st80">
			<path class="st27" d="M10.8,49V36.2h3.9c1.1,0,2.1,0.3,3,0.8c0.9,0.5,1.6,1.2,2.1,2.2c0.5,0.9,0.7,2,0.7,3.2v0.6
				c0,1.2-0.2,2.2-0.7,3.2s-1.2,1.6-2.1,2.2s-1.9,0.8-3,0.8H10.8z M13.5,38.3v8.5h1.3c1,0,1.8-0.3,2.4-1s0.8-1.6,0.8-2.9v-0.7
				c0-1.3-0.3-2.3-0.8-3s-1.3-1-2.4-1H13.5z"/>
			<path class="st27" d="M30.2,43.4h-5.1v3.4h5.9V49h-8.6V36.2h8.6v2.1h-5.9v3h5.1V43.4z"/>
			<path class="st27" d="M35.3,46.9h5.6V49h-8.2V36.2h2.6V46.9z"/>
			<path class="st27" d="M56.9,44.7c-0.1,1.4-0.6,2.5-1.5,3.3s-2.1,1.2-3.6,1.2c-1.6,0-2.9-0.6-3.9-1.7s-1.4-2.6-1.4-4.5v-0.8
				c0-1.2,0.2-2.3,0.7-3.3s1.1-1.7,1.9-2.2c0.8-0.5,1.7-0.8,2.8-0.8c1.5,0,2.7,0.4,3.6,1.2s1.4,1.9,1.6,3.3h-2.6
				c-0.1-0.8-0.3-1.4-0.7-1.8s-1-0.6-1.8-0.6c-0.9,0-1.5,0.3-2,0.9s-0.7,1.6-0.7,2.9v1c0,1.4,0.2,2.4,0.6,3s1.1,1,2,1
				c0.8,0,1.4-0.2,1.8-0.6s0.6-0.9,0.7-1.7H56.9z"/>
			<path class="st27" d="M68.4,36.2v8.4c0,1.4-0.4,2.5-1.3,3.3s-2.1,1.2-3.6,1.2c-1.5,0-2.7-0.4-3.6-1.2s-1.3-1.9-1.3-3.3v-8.5h2.6
				v8.4c0,0.8,0.2,1.4,0.6,1.8s1,0.6,1.7,0.6c1.5,0,2.2-0.8,2.3-2.3v-8.5H68.4z"/>
			<path class="st27" d="M78.2,43.4h-5.1v3.4h5.9V49h-8.6V36.2h8.6v2.1h-5.9v3h5.1V43.4z"/>
			<path class="st27" d="M85.4,44.3h-2.1V49h-2.6V36.2h4.8c1.5,0,2.7,0.3,3.5,1s1.2,1.6,1.2,2.9c0,0.9-0.2,1.6-0.6,2.2
				c-0.4,0.6-1,1-1.7,1.4l2.8,5.2V49h-2.8L85.4,44.3z M83.3,42.2h2.1c0.7,0,1.2-0.2,1.5-0.5c0.4-0.3,0.5-0.8,0.5-1.4
				c0-0.6-0.2-1.1-0.5-1.4s-0.9-0.5-1.6-0.5h-2.1V42.2z"/>
			<path class="st27" d="M94.8,44.5V49h-2.6V36.2h5c1,0,1.8,0.2,2.5,0.5s1.3,0.9,1.7,1.5c0.4,0.6,0.6,1.4,0.6,2.2
				c0,1.3-0.4,2.2-1.3,3s-2,1.1-3.6,1.1H94.8z M94.8,42.4h2.4c0.7,0,1.2-0.2,1.6-0.5s0.5-0.8,0.5-1.4c0-0.6-0.2-1.1-0.6-1.5
				s-0.9-0.6-1.5-0.6h-2.4V42.4z"/>
			<path class="st27" d="M114.3,42.9c0,1.3-0.2,2.4-0.7,3.3s-1.1,1.7-1.9,2.2s-1.8,0.8-2.9,0.8c-1.1,0-2-0.3-2.8-0.8
				s-1.5-1.2-1.9-2.2c-0.5-0.9-0.7-2-0.7-3.3v-0.6c0-1.3,0.2-2.4,0.7-3.3c0.5-1,1.1-1.7,1.9-2.2s1.8-0.8,2.8-0.8s2,0.3,2.8,0.8
				s1.5,1.2,1.9,2.2c0.5,1,0.7,2.1,0.7,3.3V42.9z M111.6,42.3c0-1.3-0.2-2.4-0.7-3.1s-1.2-1-2.1-1c-0.9,0-1.6,0.3-2,1
				s-0.7,1.7-0.7,3v0.6c0,1.3,0.2,2.3,0.7,3s1.2,1.1,2.1,1.1c0.9,0,1.6-0.3,2-1c0.5-0.7,0.7-1.7,0.7-3V42.3z"/>
			<path class="st27" d="M131.1,49h-2.6v-5.5h-5.1V49h-2.6V36.2h2.6v5.2h5.1v-5.2h2.6V49z"/>
			<path class="st27" d="M143.1,36.2v8.4c0,1.4-0.4,2.5-1.3,3.3s-2.1,1.2-3.6,1.2c-1.5,0-2.7-0.4-3.6-1.2s-1.3-1.9-1.3-3.3v-8.5h2.6
				v8.4c0,0.8,0.2,1.4,0.6,1.8s1,0.6,1.7,0.6c1.5,0,2.2-0.8,2.3-2.3v-8.5H143.1z"/>
			<path class="st27" d="M148.7,36.2l3.3,9.3l3.3-9.3h3.5V49H156v-3.5l0.3-6l-3.5,9.5H151l-3.4-9.5l0.3,6V49h-2.6V36.2H148.7z"/>
			<path class="st27" d="M168.4,46.4h-4.6l-0.9,2.6h-2.8l4.8-12.8h2.4l4.8,12.8h-2.8L168.4,46.4z M164.5,44.2h3.2l-1.6-4.8
				L164.5,44.2z"/>
			<path class="st27" d="M183.7,49H181l-5.1-8.4V49h-2.6V36.2h2.6l5.1,8.4v-8.4h2.6V49z"/>
			<path class="st27" d="M196.5,42.9c0,1.3-0.2,2.4-0.7,3.3s-1.1,1.7-1.9,2.2s-1.8,0.8-2.9,0.8c-1.1,0-2-0.3-2.8-0.8
				s-1.5-1.2-1.9-2.2c-0.5-0.9-0.7-2-0.7-3.3v-0.6c0-1.3,0.2-2.4,0.7-3.3c0.5-1,1.1-1.7,1.9-2.2S190,36,191,36s2,0.3,2.8,0.8
				s1.5,1.2,1.9,2.2c0.5,1,0.7,2.1,0.7,3.3V42.9z M193.8,42.3c0-1.3-0.2-2.4-0.7-3.1s-1.2-1-2.1-1c-0.9,0-1.6,0.3-2,1
				s-0.7,1.7-0.7,3v0.6c0,1.3,0.2,2.3,0.7,3s1.2,1.1,2.1,1.1c0.9,0,1.6-0.3,2-1c0.5-0.7,0.7-1.7,0.7-3V42.3z"/>
		</g>
		<rect id="Rectángulo_34968" x="0" y="0" class="st13" width="4.8" height="58.2"/>
	</g>
</g>
</svg>
