<svg xmlns="http://www.w3.org/2000/svg" xmlns:xlink="http://www.w3.org/1999/xlink" width="81.543" height="81.543" viewBox="0 0 81.543 81.543">
  <defs>
    <radialGradient id="radial-gradient" cx="0.076" cy="0.019" r="1.465" gradientTransform="translate(0.001)" gradientUnits="objectBoundingBox">
      <stop offset="0" stop-color="#f6f6f7"/>
      <stop offset="0.477" stop-color="#f9f9fa"/>
      <stop offset="0.715" stop-color="#fff"/>
    </radialGradient>
  </defs>
  <g id="Grupo_134278" data-name="Grupo 134278" transform="translate(-644.082 -2797.303)">
    <g id="Grupo_128859" data-name="Grupo 128859" transform="translate(644.082 2797.303)">
      <g id="Grupo_18421" data-name="Grupo 18421">
        <g id="Grupo_18420" data-name="Grupo 18420">
          <g id="Grupo_18419" data-name="Grupo 18419">
            <path id="Trazado_40936" data-name="Trazado 40936" d="M276.166,2186.491a40.771,40.771,0,1,1-40.771-40.77A40.771,40.771,0,0,1,276.166,2186.491Z" transform="translate(-194.623 -2145.721)" fill="#fff"/>
          </g>
        </g>
      </g>
      <path id="Trazado_40937" data-name="Trazado 40937" d="M275.978,2186.287a40.771,40.771,0,1,0-40.771,40.772A40.61,40.61,0,0,0,275.978,2186.287Z" transform="translate(-194.435 -2145.517)" fill="url(#radial-gradient)"/>
      <path id="Trazado_40938" data-name="Trazado 40938" d="M264.735,2184.708a31.121,31.121,0,1,0-31.121,31.12A31,31,0,0,0,264.735,2184.708Z" transform="translate(-192.719 -2143.802)" fill="none" stroke="#1d272d" stroke-miterlimit="10" stroke-width="4"/>
      <g id="Grupo_18422" data-name="Grupo 18422" transform="translate(7.223 22.89)">
        <path id="Trazado_40939" data-name="Trazado 40939" d="M270.742,2164.488a40.776,40.776,0,0,1-70.2,40.6,40.647,40.647,0,0,0,70.2-40.6Z" transform="translate(-200.545 -2164.488)" fill="#eceef0"/>
      </g>
    </g>
    <g id="aiif5o.tif" transform="translate(-5612.871 3578.401)">
      <g id="Grupo_133732" data-name="Grupo 133732" transform="translate(6279.178 -755.802)">
        <path id="Trazado_173462" data-name="Trazado 173462" d="M6317.56-733.322a20.405,20.405,0,0,0-7.124,1.4c-2.13.78-4.258,1.564-6.432,2.363v2.948h-2.251v-2.49l-2.249.261v4.481h-2.247v-4.476l-2.245-.266v2.5h-2.266c0-.9-.012-1.78.008-2.663a.4.4,0,0,0-.362-.48c-.624-.166-1.232-.386-1.89-.6v1.494h-2.254v-1.733c0-.611,0-.613-.567-.83a26.9,26.9,0,0,0-5.955-1.716c-.827-.113-1.662-.163-2.523-.244v-2.167c.645-.048,1.29-.079,1.932-.147a24.429,24.429,0,0,0,5.918-1.557c.3-.113.6-.25.911-.34.24-.07.294-.2.289-.432-.016-.671-.005-1.342-.005-2.032h2.231v1.5c.469-.153.888-.286,1.3-.425.316-.105.742-.131.911-.352s.05-.623.051-.946c0-.662,0-1.323,0-2.016h2.24v2.49l2.249-.261v-4.481h2.246v4.476l2.261.267v-.386c0-1.037,0-2.073,0-3.109a3.374,3.374,0,0,1,3.507-3.522c1.049,0,2.1,0,3.148,0a2.252,2.252,0,0,0,2.339-2.26,2.249,2.249,0,0,0-2.326-2.233c-2.273-.005-4.547,0-6.806,0-.034.027-.061.038-.069.057a3.446,3.446,0,0,1-3.457,2.2q-4.948-.025-9.895,0a2.13,2.13,0,0,0-2.081,1.387,2.133,2.133,0,0,0,.44,2.4,2.25,2.25,0,0,0,1.612.717v2.183c-.012.011-.03.043-.047.042a13.056,13.056,0,0,1-4.343-.342,6.763,6.763,0,0,1-4.587-6.3,6.684,6.684,0,0,1,4.535-6.369c.569-.205,1.174-.31,1.762-.461h13.419c.079.028.157.063.238.084a3.309,3.309,0,0,1,2.29,1.88.429.429,0,0,0,.476.288c2.136-.008,4.272,0,6.407,0a5.55,5.55,0,0,1,.636.02,4.518,4.518,0,0,1,4.041,4.754,4.518,4.518,0,0,1-4.523,4.216c-1.062.006-2.124,0-3.186,0a1.146,1.146,0,0,0-1.28,1.265q0,1.854,0,3.708c0,.109.01.219.012.253,2.176.8,4.3,1.584,6.435,2.363a20.429,20.429,0,0,0,7.122,1.4Zm-33.579-11.656a12.507,12.507,0,0,1-.291-1.591,4.481,4.481,0,0,1,4.515-4.735c3.347-.008,6.694,0,10.041,0a1.14,1.14,0,0,0,1.246-1.111,1.14,1.14,0,0,0-1.26-1.135c-3.97,0-7.941-.013-11.912.012a5.534,5.534,0,0,0-1.758.294,4.321,4.321,0,0,0-3.043,3.352,4.289,4.289,0,0,0,1.566,4.312A9.434,9.434,0,0,0,6283.98-744.978ZM6304-731.94l6.81-2.506-6.81-2.507Zm-2.28.566v-6.145l-2.209-.278v6.7Zm-4.5-6.429-2.2.293v6.136l2.2.277Zm-6.726,5.066,2.233.767v-4.958c-.708.247-1.389.478-2.062.731a.353.353,0,0,0-.165.271C6290.493-734.88,6290.5-733.834,6290.5-732.737Zm-2.26-2.541-2.33.834,2.33.826Z" transform="translate(-6279.178 755.802)" fill="#1d272b"/>
      </g>
    </g>
  </g>
</svg>
