<svg xmlns="http://www.w3.org/2000/svg" width="102.471" height="102.399" viewBox="0 0 102.471 102.399">
  <g id="Grupo_134255" data-name="Grupo 134255" transform="translate(-1097.188 -5379.728)">
    <path id="Trazado_170466" data-name="Trazado 170466" d="M6018.979-14.366H5916.569a25.7,25.7,0,0,1,.689-8.071c3.01-11.677,10.429-18.975,22.068-22,3.854-1,7.73-1.924,11.59-2.911a6.556,6.556,0,0,0,5.232-6.745c0-.823,0-1.646,0-2.614-1.956.553-3.822,1.087-5.69,1.608-1.19.332-2.371.72-3.581.954a8.834,8.834,0,0,1-10.524-8.556c-.056-3.68.007-7.362-.044-11.043a1.75,1.75,0,0,0-.643-1.215c-1.589-1.142-3.239-2.2-4.977-3.356.235-.329.437-.628.655-.913a23.786,23.786,0,0,0,5-14.652,23.086,23.086,0,0,1,22.854-22.824,118.821,118.821,0,0,1,11.959.188,26.968,26.968,0,0,1,24,21.524,26.408,26.408,0,0,1-6.736,24.246c-2.2,2.412-4.571,4.671-6.906,6.958a7.057,7.057,0,0,0-2.245,5.447c.035,1.513-.012,3.027.006,4.541a6.611,6.611,0,0,0,5.11,6.437c4.4,1.1,8.806,2.151,13.184,3.321A28.977,28.977,0,0,1,6018.722-19C6018.862-17.5,6018.892-15.992,6018.979-14.366Zm-65.774-97.962c-.292.1-.519.165-.74.246a19.734,19.734,0,0,0-12.773,18.19,27.378,27.378,0,0,1-2.657,11.761c-.473.983-1.018,1.931-1.575,2.979,1.164.775,2.281,1.567,3.449,2.277a1.515,1.515,0,0,1,.782,1.506c-.033,4.025-.027,8.05-.021,12.074.008,4.3,3.348,6.808,7.511,5.644,2.381-.666,4.755-1.355,7.133-2.031,1.68-.477,3.36-.947,5.166-1.456,0,2.556.024,4.99,0,7.424a9.837,9.837,0,0,1-7.231,9.459c-1.915.542-3.865.958-5.786,1.483-3.638,1-7.343,1.816-10.878,3.1a23.128,23.128,0,0,0-10.317,7.911,13.519,13.519,0,0,0,17.125,1.938,2.106,2.106,0,0,0,.733-1.129,8.228,8.228,0,0,1,5.766-6.184,5.689,5.689,0,0,1,5.317.655,1.4,1.4,0,0,0,1.041.16,14.881,14.881,0,0,0,10.55-9.162,3.569,3.569,0,0,0,.227-1.3c.02-3.268,0-6.536.029-9.8a1.3,1.3,0,0,0-.774-1.357,4.69,4.69,0,0,1-2.542-4.3c-.009-2.2,0-4.4,0-6.6a4.842,4.842,0,0,1,1.641-3.651l.643-.6a10.134,10.134,0,0,0-8.7-3.944c-.24.032-.469.3-.666.49-.746.736-1.492,1.472-2.2,2.24a1.873,1.873,0,0,0-.562.935,6.809,6.809,0,0,1-3.849,5.83c-1.562.773-2.671,1.8-2.78,3.617h-3.354c.044-.464.047-.844.119-1.21a6.927,6.927,0,0,1,4.032-5.151,3.669,3.669,0,0,0,2.418-3.078,24.13,24.13,0,0,1-4.433-1.368,4.262,4.262,0,0,1-2.128-3.994c0-2.856,1.931-4.675,5.5-5.079-.395-.8-.819-1.541-1.133-2.327a2.353,2.353,0,0,0-1.748-1.538c-1.045-.267-2.052-.688-3.146-1.067l1.061-3.139,2.737.847a7.8,7.8,0,0,1,4.291-7.39l1.5,3a4.381,4.381,0,0,0-2.383,3.652,7.016,7.016,0,0,0,.936,4.637c.547.823.847,1.807,1.365,2.654a5.823,5.823,0,0,0,1.182,1.142,18.65,18.65,0,0,1,2.391,2.172,1.507,1.507,0,0,0,1.369.764,13.223,13.223,0,0,1,8.688,2.978,4.6,4.6,0,0,0,.507.3c0-2.088-.019-4.04.011-5.992a1.152,1.152,0,0,0-.693-1.2,4.8,4.8,0,0,1-2.612-4.476c0-2.03.025-4.06-.009-6.089a5.025,5.025,0,0,1,2.761-4.816c.213-.118.509-.355.512-.542.036-2.153.023-4.307.023-6.546-1.9,0-3.649,0-5.4,0a6.647,6.647,0,0,1-5.819-3.129C5954.289-110.691,5953.778-111.465,5953.205-112.328Zm20.041,32.641a8.165,8.165,0,0,0-3.757,4.452,1.585,1.585,0,0,0,.78,2.213,4.458,4.458,0,0,1,2.425,4.149c.021,2.2.015,4.4,0,6.6a4.744,4.744,0,0,1-2.608,4.371,1.15,1.15,0,0,0-.7,1.192c.019,5.263.029,10.527-.01,15.79a1.3,1.3,0,0,0,.832,1.334,18.474,18.474,0,0,0,9.246,2.079,1.432,1.432,0,0,0,.943-.578c.841-1.165,1.615-2.377,2.454-3.631l2.686,1.8a1,1,0,0,1-.054.281c-.791,1.207-1.6,2.4-2.372,3.622a1.961,1.961,0,0,0-.354,1.019c.046,1.347,1.556,3.635,3.506,3.784a5.09,5.09,0,0,1,5.617-2.909,7.844,7.844,0,0,1,6.229,4.394c.542,1.081.555,2.486,1.248,3.415s2.035,1.376,2.935,2.2a11.034,11.034,0,0,1,3.328,6.39h9.822c0-.228.011-.4,0-.565a25.672,25.672,0,0,0-19.061-22.639c-4.38-1.165-8.821-2.11-13.181-3.345a9.216,9.216,0,0,1-7.016-7.712,46.378,46.378,0,0,1-.231-6.478,10.048,10.048,0,0,1,3.187-7.669c2.155-2.126,4.3-4.258,6.418-6.425a24,24,0,0,0-8.686-39.293,24.443,24.443,0,0,0-9.945-1.52,13.707,13.707,0,0,1,2.488,8.893c-.048,1.2.017,2.409-.027,3.611a1.254,1.254,0,0,0,.71,1.3,6.618,6.618,0,0,1,1.786,1.659c.781,1.041,1.146,1.2,2.3.576a3.224,3.224,0,0,0,1.76-2.84,12.947,12.947,0,0,0,0-1.857c-.319-3.323,1.363-5.617,3.713-7.459l2.393,2.183c-.873,1.269-2.464,1.945-2.619,3.77h3.129v3.356h-3.181c-.567,4.1-2.317,5.85-6.668,6.713,0,1.455-.024,2.929.006,4.4a5.061,5.061,0,0,1-2.742,4.834c-.216.123-.521.338-.536.529-.06.821-.025,1.648-.025,2.543.9-.595,1.61-1.136,2.388-1.565a2.887,2.887,0,0,0,1.352-1.416,4.7,4.7,0,0,1,4.4-2.88c1.169-.031,2.34-.028,3.508,0a5.013,5.013,0,0,1,4.824,4.284,4.913,4.913,0,0,1-3.688,5.462,20.647,20.647,0,0,1-3.172.217C5976.634-76.874,5974.574-77.429,5973.246-79.687Zm-10.491,61.978c0-2.952-.065-5.836.027-8.716a4.018,4.018,0,0,1,2.1-3.481,1.993,1.993,0,0,0,1.157-2.287,9.072,9.072,0,0,1-.006-1.031v-6.06a19.124,19.124,0,0,1-9.824,6.249c-.039,3.734-1.564,6.488-4.886,8.053-2.646,1.247-5.634,1.239-7.6-1.443-.031-.043-.123-.042-.179-.059a13.412,13.412,0,0,1-2.442,1.084c-1.332.306-1.756,1.1-2.1,2.35a51.473,51.473,0,0,1-2.06,5.34Zm35.526-5.239c-1.827,1.676-2.652,2.1-4.374,2.023a7.824,7.824,0,0,1-7.312-4.992,3.725,3.725,0,0,0-2.318-2.316,8.072,8.072,0,0,1-4.9-5.893,21.83,21.83,0,0,1-9.974-2.059c0,1.692.025,3.239-.014,4.785a1.149,1.149,0,0,0,.716,1.185,4.822,4.822,0,0,1,2.59,4.389c.008.545,0,1.09,0,1.669a10.332,10.332,0,0,1,7.66,6.059c.112.247.651.421.993.423,3.714.028,7.429.015,11.144.015h9.645A7.817,7.817,0,0,0,5998.281-22.949Zm-74.964-5.94a24.884,24.884,0,0,0-3.339,11.23c4.045,0,7.961.005,11.877-.012a1.066,1.066,0,0,0,.714-.288,13.631,13.631,0,0,0,3.292-6.257A17.416,17.416,0,0,1,5923.317-28.889Zm72.361,2.915a4.892,4.892,0,0,0-4.652-4.743,1.673,1.673,0,0,0-1.7,1.884,4.925,4.925,0,0,0,4.585,4.483A1.7,1.7,0,0,0,5995.679-25.975ZM5952.7-32.432a1.655,1.655,0,0,0-1.675-1.609,5.006,5.006,0,0,0-4.672,4.653,1.661,1.661,0,0,0,1.583,1.7A4.955,4.955,0,0,0,5952.7-32.432Zm13.448-59.6c0,.994-.019,1.989,0,2.983.027,1.153.694,1.94,1.582,1.922a1.7,1.7,0,0,0,1.532-1.866c.028-1.988.032-3.978,0-5.966a1.676,1.676,0,0,0-1.577-1.82,1.713,1.713,0,0,0-1.533,1.867C5966.128-93.953,5966.151-92.992,5966.15-92.032Zm3.128,26.545h-.011c0-1.028.029-2.057-.008-3.084a1.683,1.683,0,0,0-1.5-1.783,1.668,1.668,0,0,0-1.593,1.8q-.048,2.98.011,5.962c.023,1.134.651,1.86,1.5,1.888.885.029,1.566-.761,1.6-1.906C5969.3-63.567,5969.278-64.528,5969.278-65.487Zm0,42.9c0-.926.011-1.852,0-2.777-.018-1.254-.536-1.917-1.5-1.951s-1.582.619-1.609,1.847c-.042,1.953-.04,3.908-.012,5.862a1.686,1.686,0,0,0,1.553,1.843,1.7,1.7,0,0,0,1.557-1.842C5969.3-20.6,5969.278-21.591,5969.279-22.585Zm-12.555-90.8c1.571,3.226,4.239,4.155,8.273,3.023-.739-.857-1.393-1.683-2.127-2.431a1.875,1.875,0,0,0-1.13-.565C5960.137-113.426,5958.528-113.39,5956.725-113.39Zm-7.337,36.266a20.583,20.583,0,0,0,2.11-.171,1.283,1.283,0,0,0,1.163-1.448c-.1-.527-.66-1.31-1.1-1.368a15.161,15.161,0,0,0-4.048.013,1.773,1.773,0,0,0-1.05,1.375,2.033,2.033,0,0,0,1.087,1.371A5.242,5.242,0,0,0,5949.388-77.123Zm29.957-6.471,0-.048a16.772,16.772,0,0,0-1.941.126A1.432,1.432,0,0,0,5976.127-82a1.357,1.357,0,0,0,1.251,1.417,23.544,23.544,0,0,0,3.681,0,1.377,1.377,0,0,0,1.3-1.566c-.033-.929-.671-1.313-1.478-1.43A10.813,10.813,0,0,0,5979.345-83.594Zm-6.59,62.98c-.067,1.024-.127,1.957-.188,2.9h4.149A6.534,6.534,0,0,0,5972.754-20.614Z" transform="translate(-4819.32 5496.493)" fill="#1d272b"/>
    <path id="Trazado_170467" data-name="Trazado 170467" d="M6187.795,348.231a6.532,6.532,0,0,1,3.96,2.9h-4.148C6187.667,350.188,6187.728,349.255,6187.795,348.231Z" transform="translate(-5034.361 5127.648)" fill="#1d272b"/>
  </g>
</svg>
