<svg xmlns="http://www.w3.org/2000/svg" xmlns:xlink="http://www.w3.org/1999/xlink" width="222.94" height="222.945" viewBox="0 0 222.94 222.945">
  <defs>
    <radialGradient id="radial-gradient" cx="0.076" cy="0.019" r="1.465" gradientTransform="translate(0)" gradientUnits="objectBoundingBox">
      <stop offset="0" stop-color="#f6f6f7"/>
      <stop offset="0.477" stop-color="#f9f9fa"/>
      <stop offset="0.715" stop-color="#fff"/>
    </radialGradient>
  </defs>
  <g id="Grupo_134296" data-name="Grupo 134296" transform="translate(-1015.109 -6815.742)">
    <g id="Grupo_18419" data-name="Grupo 18419" transform="translate(1015.109 6815.742)">
      <path id="Trazado_40936" data-name="Trazado 40936" d="M417.562,2257.189a111.47,111.47,0,1,1-111.468-111.468A111.468,111.468,0,0,1,417.562,2257.189Z" transform="translate(-194.623 -2145.721)" fill="#fff"/>
    </g>
    <path id="Trazado_40937" data-name="Trazado 40937" d="M415.569,2255.017A111.467,111.467,0,1,0,304.1,2366.492,111.031,111.031,0,0,0,415.569,2255.017Z" transform="translate(822.48 4672.195)" fill="url(#radial-gradient)"/>
    <path id="Trazado_40938" data-name="Trazado 40938" d="M389.579,2246.181a94.349,94.349,0,1,0-94.349,94.35A94.011,94.011,0,0,0,389.579,2246.181Z" transform="translate(831.569 4681.274)" fill="none" stroke="#1d272b" stroke-miterlimit="10" stroke-width="5"/>
    <path id="Trazado_40939" data-name="Trazado 40939" d="M392.465,2164.488A111.483,111.483,0,0,1,200.545,2275.5a111.8,111.8,0,0,0,11.094,14.849,111.485,111.485,0,0,0,180.826-125.859Z" transform="translate(834.312 4713.838)" fill="#eceef0"/>
    <path id="Trazado_165151" data-name="Trazado 165151" d="M482.813,99.737a2.623,2.623,0,0,1-1.144-2.494q.067-7.446,0-14.894a3.191,3.191,0,0,1,1.035-2.482q11.038-10.984,22.042-22a7.448,7.448,0,0,1,1.011-.724l-.178-.3c-.271-.078-.539-.166-.812-.231a9.5,9.5,0,0,1-4.942-15.471c.223-.254.465-.492.7-.732Q506.947,33.98,513.4,27.52l2.5,2.617c-.213.23-.473.528-.753.808-4.094,4.1-8.22,8.165-12.277,12.3a5.831,5.831,0,1,0,8.479,8q8.787-8.767,17.56-17.549,7.062-7.061,14.129-14.118a8.856,8.856,0,0,1,.983-.745l-.161-.268a7.74,7.74,0,0,0-.827-.073c-3.608.056-7.224-.023-10.819.223A14.48,14.48,0,0,0,523.121,23c-1.3,1.245-2.516,2.581-3.812,3.919L516.8,24.288c4.716-5.653,10.319-9.67,18.2-9.425,3.871.12,7.749,0,11.623.038a2.352,2.352,0,0,0,1.87-.759c3.673-3.717,7.38-7.4,11.121-11.138l2.5,2.73L536.7,31.133h1.271c4.514,0,9.028.018,13.542-.026a2.332,2.332,0,0,0,1.465-.583q13.009-12.6,25.962-25.258c3.3-3.222,2.366-8.342-1.745-9.865a5.331,5.331,0,0,0-5.334.8A44.33,44.33,0,0,0,567.629.226c-.841.851-1.59,1.791-2.5,2.829l-2.6-3.109a89.273,89.273,0,0,1,7.372-6.79,9.235,9.235,0,0,1,12.512,1.58A9.535,9.535,0,0,1,581.942,7.4c-2.023,2.122-4.183,4.113-6.287,6.157-.376.366-.779.7-1.421,1.282h15.735v3.647H588.79c-5.755,0-11.511-.011-17.267.02a2.2,2.2,0,0,0-1.4.469c-4.016,3.854-7.993,7.75-11.978,11.637-.1.1-.19.22-.388.452h14.12v3.67h-1.285q-16.251,0-32.5,0A7.227,7.227,0,1,0,538,49.177q10.213.06,20.426-.019a3.523,3.523,0,0,1,2.993,1.392c3.087,3.656,6.327,7.151,10.472,9.681a35.232,35.232,0,0,0,17.047,5.177c.263.012.526.021.788.043a1.032,1.032,0,0,1,.25.108v3.606c-2.174-.223-4.342-.308-6.457-.686a37.329,37.329,0,0,1-22.783-13.257,6.157,6.157,0,0,0-5.514-2.5c-5.9.194-11.813.161-17.714,0a4.466,4.466,0,0,0-3.669,1.5c-3.5,3.519-7.022,7.025-10.672,10.388a5.772,5.772,0,0,0,8.069,8.255c2.625-2.534,5.175-5.144,7.754-7.725,2.71-2.711,5.416-5.425,8.17-8.185l2.4,2.735c-.081.087-.343.385-.622.665C543.992,65.3,539.027,70.233,534.1,75.2a5.834,5.834,0,1,0,8.358,8.127Q549.816,76,557.137,68.643a5.293,5.293,0,0,0,.646-1.021l3.019,2.91a6.911,6.911,0,0,0-1.083.726q-7.436,7.4-14.844,14.839a5.822,5.822,0,0,0,1.064,9.2,5.5,5.5,0,0,0,7.07-1.107c1.818-1.951,3.577-3.958,5.466-6.055l2.724,2.448c-2.055,2.255-4.026,4.477-6.065,6.633a10.556,10.556,0,0,1-4.829,2.517h-3.16a1.6,1.6,0,0,0-.368-.213,9.3,9.3,0,0,1-7.2-7.779,19.363,19.363,0,0,1-.155-2.775,9.874,9.874,0,0,1-10.849-10.909,10.064,10.064,0,0,1-6.994-1.867,9.861,9.861,0,0,1-3.743-6.208,3.43,3.43,0,0,0-1.89,3.486,44.171,44.171,0,0,1,0,5.969,3.292,3.292,0,0,1-.78,1.979q-4.507,4.658-9.154,9.179A31.044,31.044,0,0,1,491.9,98.624c-1.729.447-3.5.746-5.245,1.113Zm44.015-58.743c-.349.318-.517.459-.672.614Q506.016,61.742,485.9,81.9a2.291,2.291,0,0,0-.578,1.456c-.047,3.871-.027,7.744-.024,11.615,0,.329.033.659.054,1.064a28,28,0,0,0,17.844-7.785c2.942-2.8,5.776-5.707,8.62-8.6a2.183,2.183,0,0,0,.55-1.357c.056-2.216.075-4.437,0-6.652a3.279,3.279,0,0,1,1.117-2.671c5.842-5.639,11.647-11.318,17.476-16.972a6.19,6.19,0,0,1,1.11-.679C528.34,48.651,526.675,45.388,526.828,40.994Z" transform="translate(589.445 6880.004)" fill="#008f85"/>
    <path id="Trazado_165153" data-name="Trazado 165153" d="M833.519,362.55l-2.706-2.44c2.192-2.431,4.3-4.825,6.49-7.139a2.526,2.526,0,0,1,1.635-.521c2.668-.071,5.348.079,8.005-.112a16.15,16.15,0,0,0,11.848-6.43l2.9,2.174a20.163,20.163,0,0,1-10.676,7.264,26.415,26.415,0,0,1-8.951.634,4.713,4.713,0,0,0-4.487,2.006C836.36,359.6,834.9,361.018,833.519,362.55Z" transform="translate(319.249 6605.653)" fill="#008f85"/>
    <path id="Trazado_165154" data-name="Trazado 165154" d="M860.053,44.832l2.336-2.25,3.526,3.535-2.322,2.234Z" transform="translate(296.621 6840.391)" fill="#1d272b"/>
    <path id="Trazado_165155" data-name="Trazado 165155" d="M841.943,69.982l-2.334,2.267-3.547-3.537,2.343-2.279Z" transform="translate(315.187 6821.934)" fill="#1d272b"/>
    <path id="Trazado_165156" data-name="Trazado 165156" d="M818.182,94.343l-2.192,2.2-3.575-3.585,2.289-2.125Z" transform="translate(333.488 6803.047)" fill="#1d272b"/>
    <path id="Trazado_165157" data-name="Trazado 165157" d="M791.33,120.559l-3.228-3.242,2.444-2.168,3.126,3.2Z" transform="translate(352.302 6784.233)" fill="#1d272b"/>
    <path id="Trazado_165158" data-name="Trazado 165158" d="M764.414,140.435l2.263-2.428,3.563,3.568-2.309,2.359Z" transform="translate(370.634 6766.544)" fill="#1d272b"/>
    <path id="Trazado_165159" data-name="Trazado 165159" d="M512.459,370.192l-1.083-3.251c.1-.13.133-.221.19-.24,5.347-1.756,9.324-5.518,13.4-9.136,1.828-1.622,3.677-3.22,5.607-4.908l2.345,2.674a6.341,6.341,0,0,1-.52.581c-3.369,2.944-6.719,5.911-10.124,8.814A28.62,28.62,0,0,1,512.459,370.192Z" transform="translate(566.455 6600.431)" fill="#1d272b"/>
    <path id="Trazado_165160" data-name="Trazado 165160" d="M663.715,248.034l-3.468-3.457,2.379-2.258,3.521,3.52Z" transform="translate(451.247 6685.819)" fill="#1d272b"/>
    <path id="Trazado_165161" data-name="Trazado 165161" d="M642.3,269.334l-2.246,2.409-3.571-3.553,2.315-2.371Z" transform="translate(469.637 6667.633)" fill="#1d272b"/>
  </g>
</svg>
