<svg xmlns="http://www.w3.org/2000/svg" xmlns:xlink="http://www.w3.org/1999/xlink" width="81.543" height="81.543" viewBox="0 0 81.543 81.543">
  <defs>
    <radialGradient id="radial-gradient" cx="0.076" cy="0.019" r="1.465" gradientTransform="translate(0.001)" gradientUnits="objectBoundingBox">
      <stop offset="0" stop-color="#f6f6f7"/>
      <stop offset="0.477" stop-color="#f9f9fa"/>
      <stop offset="0.715" stop-color="#fff"/>
    </radialGradient>
  </defs>
  <g id="Grupo_134280" data-name="Grupo 134280" transform="translate(-1062.082 -2797.303)">
    <g id="Grupo_128861" data-name="Grupo 128861" transform="translate(1062.082 2797.303)">
      <g id="Grupo_18421" data-name="Grupo 18421">
        <g id="Grupo_18420" data-name="Grupo 18420">
          <g id="Grupo_18419" data-name="Grupo 18419">
            <path id="Trazado_40936" data-name="Trazado 40936" d="M276.166,2186.491a40.771,40.771,0,1,1-40.771-40.77A40.771,40.771,0,0,1,276.166,2186.491Z" transform="translate(-194.623 -2145.721)" fill="#fff"/>
          </g>
        </g>
      </g>
      <path id="Trazado_40937" data-name="Trazado 40937" d="M275.978,2186.287a40.771,40.771,0,1,0-40.771,40.772A40.61,40.61,0,0,0,275.978,2186.287Z" transform="translate(-194.435 -2145.517)" fill="url(#radial-gradient)"/>
      <path id="Trazado_40938" data-name="Trazado 40938" d="M264.735,2184.708a31.121,31.121,0,1,0-31.121,31.12A31,31,0,0,0,264.735,2184.708Z" transform="translate(-192.719 -2143.802)" fill="none" stroke="#1d272d" stroke-miterlimit="10" stroke-width="4"/>
      <g id="Grupo_18422" data-name="Grupo 18422" transform="translate(7.223 22.89)">
        <path id="Trazado_40939" data-name="Trazado 40939" d="M270.742,2164.488a40.776,40.776,0,0,1-70.2,40.6,40.647,40.647,0,0,0,70.2-40.6Z" transform="translate(-200.545 -2164.488)" fill="#eceef0"/>
      </g>
    </g>
    <g id="U6bkNI.tif" transform="translate(-5843.337 3661.942)">
      <g id="Grupo_133734" data-name="Grupo 133734" transform="translate(6933.487 -842.153)">
        <path id="Trazado_173472" data-name="Trazado 173472" d="M6958.825-805.918h-25.337v-35.863a.913.913,0,0,1,.846-.371q11.993.012,23.984.006c.717,0,.873.157.873.88v20.759a6.429,6.429,0,0,1,4.013,1.926,5.861,5.861,0,0,1,1.8,4.078c.032,3.91-2.076,6.087-5.813,6.873,0,.282-.02.575,0,.864A.862.862,0,0,1,6958.825-805.918Zm-.83-14.589V-840.96h-23.317v33.848H6958v-.557a6.506,6.506,0,0,1-5.823-6.289,6.423,6.423,0,0,1,1.242-3.929A6.409,6.409,0,0,1,6958-820.508Zm-4.646,6.42a5.267,5.267,0,0,0,5.249,5.247,5.27,5.27,0,0,0,5.264-5.234,5.267,5.267,0,0,0-5.213-5.283A5.262,5.262,0,0,0,6953.349-814.088Z" transform="translate(-6933.487 842.153)" fill="#1d272b"/>
        <path id="Trazado_173473" data-name="Trazado 173473" d="M7007.11-781.82c-.312,0-.712.007-1.113,0a.587.587,0,0,1-.638-.6.589.589,0,0,1,.634-.566c.182-.007.365,0,.547,0h.56a3.73,3.73,0,0,1,1.906-3.667,2.834,2.834,0,0,1,3.921.748c.146-.132.262-.234.374-.34a2.68,2.68,0,0,1,3.565-.418,3.519,3.519,0,0,1,1.92,3.107c.016.267,0,.535,0,.861.53,0,1.047,0,1.564,0a1.2,1.2,0,0,1,.394.046.529.529,0,0,1,.372.6.545.545,0,0,1-.565.515c-.571.014-1.144,0-1.715.014a.436.436,0,0,0-.333.177,8.986,8.986,0,0,1-2.468,3.171c-.852.74-1.776,1.4-2.67,2.086a.608.608,0,0,1-.774.039,17.114,17.114,0,0,1-4.292-3.807A22.387,22.387,0,0,1,7007.11-781.82Zm3.788.074c.64-.646,1.235-1.252,1.836-1.851a.609.609,0,0,1,1.006-.012c.253.245.5.5.75.746a.483.483,0,0,0,.268.159c.944.012,1.89.007,2.863.007,0-.291.006-.544,0-.8a2.529,2.529,0,0,0-1.833-2.372,1.405,1.405,0,0,0-1.488.3q-.436.415-.873.829a.6.6,0,0,1-.955,0c-.3-.284-.6-.573-.9-.852a1.373,1.373,0,0,0-1.284-.324,2.518,2.518,0,0,0-1.949,2.927c.287,0,.58.017.869,0a.952.952,0,0,1,.835.353C7010.3-782.349,7010.579-782.077,7010.9-781.746Zm2.333-.7c-.617.619-1.206,1.214-1.8,1.8-.391.388-.66.384-1.057-.007a9.6,9.6,0,0,1-.793-.8.961.961,0,0,0-1.076-.335,1.078,1.078,0,0,0,.056.165,6.686,6.686,0,0,0,.334.6,14.683,14.683,0,0,0,3.923,3.709.305.305,0,0,0,.279,0,15.282,15.282,0,0,0,3.817-3.564c.135-.191.244-.4.391-.65-.732,0-1.391-.043-2.042.011a1.835,1.835,0,0,1-1.839-.751A1.444,1.444,0,0,0,7013.231-782.446Z" transform="translate(-7000.099 791.175)" fill="#1d272b"/>
        <path id="Trazado_173474" data-name="Trazado 173474" d="M6975.9-599.053h-9.639c-.677,0-.847-.167-.848-.832v-1.789c0-.738.15-.884.905-.884h18.217c.39,0,.779,0,1.169,0,.529,0,.735.2.737.722q.006,1.023,0,2.045c0,.539-.205.738-.758.738Zm9.357-2.313h-18.646v1.126h18.646Z" transform="translate(-6963.075 620.096)" fill="#1d272b"/>
        <path id="Trazado_173475" data-name="Trazado 173475" d="M6971.269-538.684q2.263,0,4.526,0c.416,0,.668.208.69.547a.586.586,0,0,1-.618.617c-.437.011-.876,0-1.314,0-2.6,0-5.208,0-7.812-.006a.786.786,0,0,1-.535-.147.859.859,0,0,1-.182-.609c.037-.279.285-.405.572-.406q1.46,0,2.92,0Z" transform="translate(-6963.638 560.895)" fill="#1d272b"/>
        <path id="Trazado_173476" data-name="Trazado 173476" d="M6971.269-514.732q2.263,0,4.527,0c.416,0,.668.208.69.547a.586.586,0,0,1-.618.617c-.462.011-.925,0-1.387,0-2.58,0-5.16,0-7.739-.006a.786.786,0,0,1-.535-.147.859.859,0,0,1-.182-.609c.037-.279.286-.405.572-.406q1.46,0,2.92,0Z" transform="translate(-6963.638 538.696)" fill="#1d272b"/>
        <path id="Trazado_173477" data-name="Trazado 173477" d="M6967.758-489.632c-.548,0-1.1,0-1.643,0a.592.592,0,0,1-.662-.575.584.584,0,0,1,.646-.589q1.68-.009,3.358,0a.589.589,0,0,1,.662.574c0,.354-.258.587-.684.591C6968.877-489.628,6968.317-489.632,6967.758-489.632Z" transform="translate(-6963.113 516.517)" fill="#1d272b"/>
        <path id="Trazado_173478" data-name="Trazado 173478" d="M7038.164-490.784h.146c.458.005.726.222.724.587s-.27.577-.73.581c-.134,0-.268.005-.4,0a.586.586,0,0,1-.614-.586.587.587,0,0,1,.62-.58C7037.994-490.788,7038.079-490.784,7038.164-490.784Z" transform="translate(-7029.692 516.502)" fill="#1d272b"/>
        <path id="Trazado_173479" data-name="Trazado 173479" d="M7231.186-478.961c1.383-1.21,2.736-2.394,4.091-3.576a1.718,1.718,0,0,1,.318-.238.521.521,0,0,1,.663.124.523.523,0,0,1,.084.67,1.309,1.309,0,0,1-.267.294q-2.193,1.923-4.389,3.841c-.423.37-.665.361-1.063-.036q-.763-.758-1.521-1.521c-.326-.329-.359-.665-.1-.925s.6-.228.926.1C7230.341-479.82,7230.748-479.4,7231.186-478.961Z" transform="translate(-7207.214 509.142)" fill="#1d272b"/>
      </g>
    </g>
  </g>
</svg>
