<svg xmlns="http://www.w3.org/2000/svg" xmlns:xlink="http://www.w3.org/1999/xlink" width="289.657" height="244.606" viewBox="0 0 289.657 244.606">
  <defs>
    <linearGradient id="linear-gradient" x1="0.5" x2="0.5" y2="1" gradientUnits="objectBoundingBox">
      <stop offset="0" stop-color="#f5f5f5"/>
      <stop offset="0.25" stop-color="#f5f5f5"/>
      <stop offset="1" stop-color="#eeeef2"/>
    </linearGradient>
    <linearGradient id="linear-gradient-2" x1="0.5" x2="0.5" y2="1" gradientUnits="objectBoundingBox">
      <stop offset="0" stop-color="#f5f5f5"/>
      <stop offset="0.25" stop-color="#f5f5f5"/>
      <stop offset="1" stop-color="#a7b3cf"/>
    </linearGradient>
    <clipPath id="clip-path">
      <rect id="Rectángulo_35608" data-name="Rectángulo 35608" width="8.06" height="3.105" fill="none"/>
    </clipPath>
    <linearGradient id="linear-gradient-3" x1="0.901" y1="1.06" x2="0.269" y2="-0.179" gradientUnits="objectBoundingBox">
      <stop offset="0" stop-color="#c6c6c6"/>
      <stop offset="1" stop-color="#fff"/>
    </linearGradient>
  </defs>
  <g id="Grupo_128940" data-name="Grupo 128940" transform="translate(-205.361 -13953.376)">
    <g id="Grupo_128937" data-name="Grupo 128937" transform="translate(241.824 13953.376)">
      <path id="Trazado_151846" data-name="Trazado 151846" d="M307.769,315.277a55.182,55.182,0,0,0,7.466-48.369c-3.311-10.176-9.663-19.631-10.476-30.243-1.625-21.217,18.853-38.37,23.1-59.266,1.867-9.183-.17-19.883-8.174-25.461-7.906-5.51-19.189-4.385-28.139-.526s-16.523,10.035-25.116,14.551-19.174,7.307-28.248,3.713c-9.192-3.641-14.406-12.817-17.326-21.76s-4.354-18.469-9.338-26.572c-8.215-13.354-25.73-20.635-42.052-18.751s-30.905,12.2-38.728,25.764-9.189,29.959-5.3,44.935c1.975,7.6,5.229,14.869,7,22.509s1.937,16-2.024,22.881c-8.283,14.389-30.136,16.4-41.579,28.735C79.4,257.6,79.1,273.145,84.463,285.67s15.433,22.686,25.477,32.354c46.846,1.476,94.531,1.574,141.376,3.05C269.522,321.647,289.584,316.281,307.769,315.277Z" transform="translate(-80.961 -94.243)" fill="#a4a4b4" opacity="0.354" style="mix-blend-mode: multiply;isolation: isolate"/>
      <path id="Trazado_151847" data-name="Trazado 151847" d="M359.209,158.067c-.054,8.157,5.423,15.256,4.469,23.3-.51,4.3-2.826,8.668-1.48,12.594,1.191,3.474,4.6,4.076,7.211,2.947,6.105-2.645,9.816-11.481,11.591-20.165,1.669-8.168,2.084-17.292-.59-24.907-2.154-6.135-7.124-11.551-12.171-11.05C363.616,141.246,359.25,151.922,359.209,158.067Z" transform="translate(-129.141 -87.13)" fill="#a4a4b4" opacity="0.31" style="mix-blend-mode: multiply;isolation: isolate"/>
      <path id="Trazado_151848" data-name="Trazado 151848" d="M112.511,133.659a46.752,46.752,0,0,0-.87,44.036c2.238,4.263,5.262,8.235,9.344,10.605s9.348,2.9,13.411.494c6.162-3.648,7.525-12.252,7.034-19.6s-2.094-15.044.631-21.841c1.777-4.43,5.188-7.885,8.214-11.513s5.851-7.863,6.007-12.66c.405-12.433-12.314-11.5-19.979-8.922A43.861,43.861,0,0,0,112.511,133.659Z" transform="translate(-84.987 -112.66)" fill="#a4a4b4" opacity="0.31" style="mix-blend-mode: multiply;isolation: isolate"/>
      <g id="Grupo_107069" data-name="Grupo 107069" transform="translate(5.616 4.229)" style="mix-blend-mode: multiply;isolation: isolate">
        <path id="Trazado_151849" data-name="Trazado 151849" d="M306.634,316.829l-1.005-.862c2.765-2.84,7.18-9.35,5.686-21.055a87.271,87.271,0,0,0-3.908-15.335c-.712-2.224-1.448-4.523-2.091-6.806a99.957,99.957,0,0,1,8.23-73.735c1.074-2,2.235-4,3.36-5.936,3.332-5.742,6.776-11.681,8.258-18.1,2.6-11.257-2.538-19.694-8.409-22.769-5.633-2.952-13.584-2.5-21.813,1.238-3.01,1.367-5.937,3.04-8.766,4.657a82.925,82.925,0,0,1-11.758,5.913c-16.334,6.157-36.756.924-47.5-12.17-5.165-6.293-8.081-13.9-10.9-21.254-1.092-2.85-2.223-5.8-3.465-8.618-3.865-8.768-10.938-19.774-22.688-22.406-10.325-2.314-20.782,2.772-27.735,7.446-13.3,8.943-22.679,21.055-26.4,34.1-2.511,8.8-2.612,18.376-2.71,27.638-.145,13.793-.3,28.055-8.586,39.541-3.771,5.225-8.958,9.394-13.974,13.427-4.7,3.776-9.556,7.681-13.177,12.413-8.205,10.724-10.217,25.906-5.518,41.655,4.222,14.15,12.828,26.7,21.151,38.847l-1.144.691c-8.377-12.221-17.04-24.858-21.317-39.193-4.811-16.125-2.725-31.706,5.723-42.746,3.717-4.858,8.638-8.813,13.4-12.639,4.948-3.977,10.064-8.09,13.732-13.172,8.06-11.167,8.2-24.607,8.351-38.836.1-9.342.2-19,2.758-27.957,3.806-13.333,13.369-25.7,26.926-34.811,7.183-4.829,18.017-10.076,28.842-7.649,12.309,2.758,19.644,14.117,23.629,23.161,1.255,2.848,2.391,5.81,3.488,8.674,2.784,7.262,5.663,14.772,10.7,20.906,10.388,12.659,30.129,17.717,45.919,11.765a82,82,0,0,0,11.557-5.818c2.857-1.634,5.811-3.322,8.88-4.717,8.633-3.922,17.041-4.362,23.068-1.2,6.3,3.3,11.821,12.265,9.076,24.157-1.523,6.595-5.015,12.615-8.394,18.437-1.119,1.928-2.276,3.922-3.339,5.9a98.729,98.729,0,0,0-8.129,72.832c.636,2.263,1.37,4.552,2.079,6.765a88.287,88.287,0,0,1,3.957,15.551C314.225,306.971,309.555,313.829,306.634,316.829Z" transform="translate(-87.906 -97.739)" fill="#a4a4b4"/>
      </g>
    </g>
    <g id="Grupo_91637" data-name="Grupo 91637" transform="translate(284.618 13953.376)">
      <g id="Grupo_91555" data-name="Grupo 91555" transform="translate(0 0)">
        <path id="Trazado_150481" data-name="Trazado 150481" d="M593.251,556.627a12.9,12.9,0,0,1,12.9-12.9H715.835a11.363,11.363,0,0,1,11.349,10.786l8.1,159.024a8.38,8.38,0,0,1-8.217,8.8l-125.714,2.285a7.954,7.954,0,0,1-8.1-7.953Z" transform="translate(-593.251 -519.644)" fill="#2a383e"/>
        <path id="Trazado_150482" data-name="Trazado 150482" d="M649.21,1847.965h0l-14.067-.182a8.675,8.675,0,0,1-8.53-8.641V1817.9a.3.3,0,1,1,.6,0v21.238a8.072,8.072,0,0,0,7.937,8.041l14.067.182a.3.3,0,0,1,0,.6Z" transform="translate(-622.738 -1645.685)" fill="#5c5e61"/>
        <path id="Trazado_150483" data-name="Trazado 150483" d="M626.909,1735.319a.3.3,0,0,1-.3-.3v-3.439a.3.3,0,1,1,.6,0v3.439A.3.3,0,0,1,626.909,1735.319Z" transform="translate(-622.738 -1569.378)" fill="#5c5e61"/>
        <g id="Grupo_91553" data-name="Grupo 91553" transform="translate(8.986 22.761)">
          <path id="Trazado_150484" data-name="Trazado 150484" d="M670.682,536.094a3.747,3.747,0,0,1,4.249-3.737c14.979,2.031,66.486,8.314,109.072,5.044a3.464,3.464,0,0,1,3.731,3.267l8.49,159.733a3.987,3.987,0,0,1-3.745,4.193c-17.911,1.06-91.673,5.157-117.983,2.4a3.159,3.159,0,0,1-2.826-3.126Z" transform="translate(-670.682 -532.323)" fill="#a4a4b4"/>
          <path id="Trazado_150485" data-name="Trazado 150485" d="M685.885,571.668a3.605,3.605,0,0,1,4.089-3.6c14.415,1.955,63.982,8,104.964,4.854a3.334,3.334,0,0,1,3.59,3.144l8.17,153.718a3.837,3.837,0,0,1-3.6,4.035c-17.236,1.02-88.221,4.963-113.54,2.311a3.04,3.04,0,0,1-2.72-3.008Z" transform="translate(-684.121 -563.894)" fill="url(#linear-gradient)"/>
          <g id="Grupo_91552" data-name="Grupo 91552" transform="translate(9.74 17.606)">
            <g id="Grupo_91531" data-name="Grupo 91531" transform="translate(8.945)" opacity="0.75">
              <path id="Trazado_150486" data-name="Trazado 150486" d="M831.754,687.6c.239,1.257,1.06,2.129,2,2.118l76.231-.9c.862-.01,1.552-1,1.533-2.2-.018-1.165-.7-2.1-1.539-2.1l-76.233-.483C832.4,684.024,831.411,685.793,831.754,687.6Z" transform="translate(-831.686 -684.033)" fill="#2a383e"/>
            </g>
            <g id="Grupo_91536" data-name="Grupo 91536" transform="translate(0 12.718)">
              <g id="Grupo_91532" data-name="Grupo 91532" transform="translate(18.256)" opacity="0.6">
                <path id="Trazado_150487" data-name="Trazado 150487" d="M911.95,796.057c.1.859.438,1.454.824,1.447l31.472-.617c.356-.007.641-.682.633-1.5-.008-.8-.289-1.433-.636-1.436l-31.473-.33C912.215,793.614,911.808,794.822,911.95,796.057Z" transform="translate(-911.921 -793.62)" fill="#2a383e"/>
              </g>
              <g id="Grupo_91533" data-name="Grupo 91533" transform="translate(17.757 10.45)" opacity="0.6">
                <path id="Trazado_150488" data-name="Trazado 150488" d="M907.673,886.1a1.626,1.626,0,0,0,1.47,1.447l56.155-.617a1.348,1.348,0,0,0,1.129-1.5,1.329,1.329,0,0,0-1.134-1.437l-56.156-.33C908.146,883.658,907.42,884.866,907.673,886.1Z" transform="translate(-907.623 -883.664)" fill="#2a383e"/>
              </g>
              <g id="Grupo_91534" data-name="Grupo 91534" transform="translate(17.416 21.137)" opacity="0.6">
                <path id="Trazado_150489" data-name="Trazado 150489" d="M904.741,978.2a1.763,1.763,0,0,0,1.671,1.447l63.833-.617a1.481,1.481,0,0,0-.005-2.937l-63.835-.33A1.9,1.9,0,0,0,904.741,978.2Z" transform="translate(-904.684 -975.76)" fill="#2a383e"/>
              </g>
              <g id="Grupo_91535" data-name="Grupo 91535" transform="translate(0 4.737)">
                <path id="Trazado_150490" data-name="Trazado 150490" d="M765.292,868.062h-.021l-7.822-.075A2.1,2.1,0,0,1,755.3,866.2l-.687-6.563a1.427,1.427,0,0,1,.337-1.073,1.718,1.718,0,0,1,1.2-.59h0c.659-.045,1.587-.124,2.569-.208,2.069-.176,4.644-.4,6.092-.414a2.186,2.186,0,0,1,2.19,1.532,32.8,32.8,0,0,1,.294,7.4A1.933,1.933,0,0,1,765.292,868.062Zm-9.1-9.49a1.112,1.112,0,0,0-.778.378.83.83,0,0,0-.2.623l.688,6.563a1.5,1.5,0,0,0,1.554,1.251l7.822.075h.016a1.333,1.333,0,0,0,1.4-1.2,32.65,32.65,0,0,0-.274-7.224,1.614,1.614,0,0,0-1.6-1.088c-1.427.018-3.99.236-6.049.411-.985.084-1.916.163-2.579.209Z" transform="translate(-754.608 -854.693)" fill="#fff"/>
                <path id="Trazado_150491" data-name="Trazado 150491" d="M767.815,867.723c1.643-.112,5.215-.475,6.908-.5a1.514,1.514,0,0,1,1.516,1.047,26.594,26.594,0,0,1,.227,5.842,1.3,1.3,0,0,1-1.376,1.19l-6.251-.06a1.444,1.444,0,0,1-1.479-1.214l-.549-5.244A1.015,1.015,0,0,1,767.815,867.723Z" transform="translate(-765.391 -863.422)" fill="#fff" opacity="0.75"/>
                <path id="Trazado_150492" data-name="Trazado 150492" d="M773.644,840.027h0a1.2,1.2,0,0,1,1.656.45l1.543,2.766a.385.385,0,0,0,.688-.03l3.827-8.519a.427.427,0,0,1,.817.184,16.82,16.82,0,0,1-4.894,11.705s-2.295-.892-4.142-4.949A1.259,1.259,0,0,1,773.644,840.027Z" transform="translate(-770.888 -834.441)" fill="#008f85"/>
              </g>
            </g>
            <g id="Grupo_91541" data-name="Grupo 91541" transform="translate(0.374 49.512)">
              <g id="Grupo_91537" data-name="Grupo 91537" transform="translate(18.256)" opacity="0.6">
                <path id="Trazado_150493" data-name="Trazado 150493" d="M915.221,1113.115a2.16,2.16,0,0,0,2.131,1.447l81.39-.617a1.478,1.478,0,1,0-.007-2.937l-81.392-.33A2.005,2.005,0,0,0,915.221,1113.115Z" transform="translate(-915.148 -1110.678)" fill="#2a383e"/>
              </g>
              <g id="Grupo_91538" data-name="Grupo 91538" transform="translate(17.757 10.45)" opacity="0.6">
                <path id="Trazado_150494" data-name="Trazado 150494" d="M910.883,1203.16c.116.859.515,1.454.969,1.447l37.032-.617c.419-.007.754-.682.745-1.5-.009-.8-.34-1.433-.748-1.437l-37.033-.33C911.194,1200.716,910.716,1201.924,910.883,1203.16Z" transform="translate(-910.849 -1200.722)" fill="#2a383e"/>
              </g>
              <g id="Grupo_91539" data-name="Grupo 91539" transform="translate(17.416 21.137)" opacity="0.6">
                <path id="Trazado_150495" data-name="Trazado 150495" d="M907.967,1295.255a1.763,1.763,0,0,0,1.671,1.447l63.834-.617a1.481,1.481,0,0,0-.005-2.937l-63.835-.33A1.9,1.9,0,0,0,907.967,1295.255Z" transform="translate(-907.91 -1292.818)" fill="#2a383e"/>
              </g>
              <g id="Grupo_91540" data-name="Grupo 91540" transform="translate(0 4.737)">
                <path id="Trazado_150496" data-name="Trazado 150496" d="M768.519,1185.12H768.5l-7.822-.075a2.1,2.1,0,0,1-2.146-1.788l-.688-6.563a1.425,1.425,0,0,1,.337-1.072,1.717,1.717,0,0,1,1.2-.591h0c.659-.045,1.587-.124,2.57-.208,2.069-.176,4.643-.4,6.092-.413a2.186,2.186,0,0,1,2.19,1.532,32.8,32.8,0,0,1,.294,7.4A1.933,1.933,0,0,1,768.519,1185.12Zm-9.1-9.49a1.113,1.113,0,0,0-.778.378.831.831,0,0,0-.2.623l.688,6.563a1.505,1.505,0,0,0,1.554,1.251l7.822.075h.016a1.332,1.332,0,0,0,1.4-1.2,32.649,32.649,0,0,0-.274-7.224,1.614,1.614,0,0,0-1.6-1.088c-1.427.018-3.99.236-6.049.411-.985.084-1.916.163-2.579.209Z" transform="translate(-757.835 -1171.751)" fill="#fff"/>
                <path id="Trazado_150497" data-name="Trazado 150497" d="M771.041,1184.781c1.643-.112,5.215-.475,6.908-.5a1.514,1.514,0,0,1,1.516,1.047,26.584,26.584,0,0,1,.227,5.842,1.3,1.3,0,0,1-1.376,1.19l-6.251-.06a1.444,1.444,0,0,1-1.478-1.214l-.55-5.245A1.015,1.015,0,0,1,771.041,1184.781Z" transform="translate(-768.617 -1180.48)" fill="#fff" opacity="0.75"/>
                <path id="Trazado_150498" data-name="Trazado 150498" d="M776.871,1157.085h0a1.2,1.2,0,0,1,1.656.451l1.543,2.766a.385.385,0,0,0,.688-.03l3.827-8.519a.427.427,0,0,1,.817.185,16.819,16.819,0,0,1-4.894,11.705s-2.294-.892-4.142-4.949A1.259,1.259,0,0,1,776.871,1157.085Z" transform="translate(-774.114 -1151.499)" fill="#008f85"/>
              </g>
            </g>
            <g id="Grupo_91546" data-name="Grupo 91546" transform="translate(0.237 85.697)">
              <g id="Grupo_91542" data-name="Grupo 91542" transform="translate(18.256)" opacity="0.6">
                <path id="Trazado_150499" data-name="Trazado 150499" d="M914.04,1424.911a2.16,2.16,0,0,0,2.131,1.447l81.39-.617a1.478,1.478,0,1,0-.006-2.937l-81.392-.33A2.005,2.005,0,0,0,914.04,1424.911Z" transform="translate(-913.967 -1422.474)" fill="#2a383e"/>
              </g>
              <g id="Grupo_91543" data-name="Grupo 91543" transform="translate(17.757 10.45)" opacity="0.6">
                <path id="Trazado_150500" data-name="Trazado 150500" d="M909.718,1514.955a1.625,1.625,0,0,0,1.47,1.447l56.155-.617a1.348,1.348,0,0,0,1.13-1.5,1.329,1.329,0,0,0-1.134-1.437l-56.156-.33C910.191,1512.512,909.466,1513.72,909.718,1514.955Z" transform="translate(-909.668 -1512.518)" fill="#2a383e"/>
              </g>
              <g id="Grupo_91544" data-name="Grupo 91544" transform="translate(17.416 21.137)" opacity="0.6">
                <path id="Trazado_150501" data-name="Trazado 150501" d="M906.758,1607.051c.1.859.456,1.454.858,1.447l32.765-.617c.371-.007.667-.682.659-1.5-.008-.8-.3-1.433-.662-1.436l-32.765-.33C907.034,1604.608,906.61,1605.816,906.758,1607.051Z" transform="translate(-906.728 -1604.614)" fill="#2a383e"/>
              </g>
              <g id="Grupo_91545" data-name="Grupo 91545" transform="translate(0 4.737)">
                <path id="Trazado_150502" data-name="Trazado 150502" d="M767.337,1496.916h-.021l-7.822-.075a2.1,2.1,0,0,1-2.146-1.788l-.687-6.563a1.426,1.426,0,0,1,.337-1.073,1.717,1.717,0,0,1,1.2-.591h0c.659-.045,1.587-.124,2.569-.208,2.069-.177,4.643-.4,6.092-.414a2.186,2.186,0,0,1,2.19,1.532,32.8,32.8,0,0,1,.294,7.4A1.933,1.933,0,0,1,767.337,1496.916Zm-9.1-9.49a1.113,1.113,0,0,0-.778.378.83.83,0,0,0-.2.623l.687,6.563a1.5,1.5,0,0,0,1.554,1.25l7.822.075h.016a1.333,1.333,0,0,0,1.4-1.2,32.654,32.654,0,0,0-.274-7.224,1.614,1.614,0,0,0-1.6-1.088c-1.427.018-3.99.236-6.049.411-.985.084-1.916.163-2.579.208Z" transform="translate(-756.653 -1483.547)" fill="#fff"/>
                <path id="Trazado_150503" data-name="Trazado 150503" d="M769.859,1496.577c1.643-.112,5.215-.475,6.908-.5a1.514,1.514,0,0,1,1.516,1.047,26.586,26.586,0,0,1,.227,5.842,1.3,1.3,0,0,1-1.375,1.19l-6.251-.06a1.444,1.444,0,0,1-1.478-1.214l-.55-5.244A1.015,1.015,0,0,1,769.859,1496.577Z" transform="translate(-767.436 -1492.276)" fill="#fff" opacity="0.75"/>
                <path id="Trazado_150504" data-name="Trazado 150504" d="M775.689,1468.881h0a1.2,1.2,0,0,1,1.656.451l1.543,2.766a.386.386,0,0,0,.688-.03l3.826-8.519a.427.427,0,0,1,.817.185,16.819,16.819,0,0,1-4.894,11.705s-2.294-.892-4.142-4.949A1.259,1.259,0,0,1,775.689,1468.881Z" transform="translate(-772.932 -1463.295)" fill="#008f85"/>
              </g>
            </g>
            <g id="Grupo_91551" data-name="Grupo 91551" transform="translate(0.009 124.126)">
              <g id="Grupo_91547" data-name="Grupo 91547" transform="translate(18.256)" opacity="0.6">
                <path id="Trazado_150505" data-name="Trazado 150505" d="M912.075,1756.055a2.159,2.159,0,0,0,2.131,1.447l81.39-.617a1.478,1.478,0,1,0-.006-2.937l-81.392-.33A2.005,2.005,0,0,0,912.075,1756.055Z" transform="translate(-912.002 -1753.618)" fill="#2a383e"/>
              </g>
              <g id="Grupo_91548" data-name="Grupo 91548" transform="translate(17.757 10.45)" opacity="0.6">
                <path id="Trazado_150506" data-name="Trazado 150506" d="M907.754,1846.1a1.626,1.626,0,0,0,1.47,1.447l56.155-.617a1.348,1.348,0,0,0,1.13-1.5,1.329,1.329,0,0,0-1.134-1.437l-56.156-.33C908.227,1843.656,907.5,1844.864,907.754,1846.1Z" transform="translate(-907.703 -1843.662)" fill="#2a383e"/>
              </g>
              <g id="Grupo_91549" data-name="Grupo 91549" transform="translate(17.416 21.137)" opacity="0.6">
                <path id="Trazado_150507" data-name="Trazado 150507" d="M904.81,1938.2c.16.859.713,1.454,1.341,1.447l51.245-.617c.58-.007,1.043-.682,1.031-1.5-.012-.8-.471-1.433-1.035-1.437l-51.247-.33C905.241,1935.752,904.579,1936.96,904.81,1938.2Z" transform="translate(-904.764 -1935.758)" fill="#fff"/>
              </g>
              <g id="Grupo_91550" data-name="Grupo 91550" transform="translate(0 4.737)">
                <path id="Trazado_150508" data-name="Trazado 150508" d="M765.373,1828.06h-.021l-7.822-.075a2.1,2.1,0,0,1-2.146-1.788l-.688-6.563a1.425,1.425,0,0,1,.337-1.072,1.718,1.718,0,0,1,1.2-.591h0c.659-.045,1.587-.124,2.569-.207,2.069-.177,4.643-.4,6.092-.414a2.186,2.186,0,0,1,2.19,1.532,32.8,32.8,0,0,1,.294,7.4A1.933,1.933,0,0,1,765.373,1828.06Zm-9.1-9.49a1.113,1.113,0,0,0-.778.378.83.83,0,0,0-.2.623l.688,6.563a1.5,1.5,0,0,0,1.554,1.25l7.822.075h.016a1.332,1.332,0,0,0,1.4-1.2,32.653,32.653,0,0,0-.274-7.224,1.614,1.614,0,0,0-1.6-1.088c-1.427.018-3.99.236-6.049.411-.985.084-1.916.163-2.58.208Z" transform="translate(-754.689 -1814.691)" fill="#fff"/>
                <path id="Trazado_150509" data-name="Trazado 150509" d="M767.895,1827.721c1.643-.112,5.214-.475,6.908-.5a1.514,1.514,0,0,1,1.516,1.047,26.586,26.586,0,0,1,.227,5.842,1.3,1.3,0,0,1-1.376,1.19l-6.251-.06a1.444,1.444,0,0,1-1.479-1.214l-.549-5.244A1.015,1.015,0,0,1,767.895,1827.721Z" transform="translate(-765.471 -1823.42)" fill="#fff" opacity="0.75"/>
                <path id="Trazado_150510" data-name="Trazado 150510" d="M773.725,1800.025h0a1.2,1.2,0,0,1,1.656.45l1.543,2.766a.386.386,0,0,0,.688-.03l3.826-8.519a.427.427,0,0,1,.817.185,16.819,16.819,0,0,1-4.894,11.705s-2.294-.892-4.142-4.949A1.259,1.259,0,0,1,773.725,1800.025Z" transform="translate(-770.968 -1794.439)" fill="#008f85"/>
              </g>
            </g>
          </g>
        </g>
        <path id="Trazado_150511" data-name="Trazado 150511" d="M1134.373,338.6c-3.962-2.756-7.407-2.7-9.832-1.986a4.837,4.837,0,0,0-3.436,5.086l1.046,11.415,12.445,1.1S1142.143,344,1134.373,338.6Zm-5.473,9.209a3.1,3.1,0,1,1,3.1-3.1A3.1,3.1,0,0,1,1128.9,347.806Z" transform="translate(-1059.829 -336.194)" fill="#333435"/>
        <g id="Grupo_91554" data-name="Grupo 91554" transform="translate(62.794 1.672)">
          <path id="Trazado_150512" data-name="Trazado 150512" d="M1135.113,361.041a.3.3,0,0,1-.3-.273l-.167-1.818a.3.3,0,1,1,.6-.055l.167,1.818a.3.3,0,0,1-.272.326Zm-.326-3.563a.3.3,0,0,1-.3-.273l-.127-1.38a4.617,4.617,0,0,1,3.274-4.845,9.3,9.3,0,0,1,4.548-.187.3.3,0,0,1-.12.588,8.717,8.717,0,0,0-4.258.174,4.015,4.015,0,0,0-2.845,4.214l.126,1.38a.3.3,0,0,1-.272.326Z" transform="translate(-1134.342 -350.597)" fill="#5c5e61"/>
        </g>
        <path id="Trazado_150513" data-name="Trazado 150513" d="M983.911,475.146v-5.739a3.5,3.5,0,0,1,3.622-3.5l39.57,1.356a3.406,3.406,0,0,1,3.283,3.2l.331,5.515Z" transform="translate(-938.575 -450.851)" fill="#333435"/>
        <path id="Trazado_150514" data-name="Trazado 150514" d="M1095.8,479.983h-1.7a.3.3,0,0,1,0-.6h1.7a.3.3,0,1,1,0,.6Z" transform="translate(-1035.711 -462.765)" fill="#5c5e61"/>
        <path id="Trazado_150515" data-name="Trazado 150515" d="M1000.079,485.257a.3.3,0,0,1-.3-.3v-2.322a3.257,3.257,0,0,1,3.253-3.253h6.256a.3.3,0,0,1,0,.6h-6.256a2.656,2.656,0,0,0-2.653,2.653v2.322A.3.3,0,0,1,1000.079,485.257Z" transform="translate(-952.601 -462.765)" fill="#5c5e61"/>
        <path id="Trazado_150516" data-name="Trazado 150516" d="M843.79,530.974a3.729,3.729,0,0,1,3.724-3.55l69.2,0a5.114,5.114,0,0,1,5.04,4.242l.059.338a4.392,4.392,0,0,1-4.328,5.142H846.49a2.856,2.856,0,0,1-2.852-2.993Z" transform="translate(-814.577 -505.23)" fill="#333435"/>
      </g>
    </g>
    <g id="Grupo_128939" data-name="Grupo 128939" transform="translate(257.768 14068.388)">
      <g id="Grupo_128938" data-name="Grupo 128938" transform="translate(0 20.761)">
        <path id="Trazado_165801" data-name="Trazado 165801" d="M362.684,463.668c-3.933,0-5.927-2.346-5.927-6.973v-28.7h.93v28.7c0,4.123,1.588,6.043,5,6.043,3.94,0,4.532-.866,4.532-6.623,0-.715-.016-1.509-.034-2.356-.1-4.9-.227-10.99,2.28-13.549a3.868,3.868,0,0,1,2.869-1.179h6.508v.929H372.33a2.933,2.933,0,0,0-2.206.9c-2.232,2.278-2.1,8.405-2.012,12.878.018.853.034,1.656.034,2.376C368.147,461.967,367.43,463.668,362.684,463.668Z" transform="translate(-313.139 -408.04)" fill="#51799e"/>
        <rect id="Rectángulo_35595" data-name="Rectángulo 35595" width="32.23" height="6.508" rx="2.332" transform="translate(1.123)" fill="#008f85"/>
        <rect id="Rectángulo_35596" data-name="Rectángulo 35596" width="162.704" height="6.508" rx="2.332" transform="translate(33.818)" fill="#008f85"/>
        <rect id="Rectángulo_35597" data-name="Rectángulo 35597" width="29.189" height="34.709" transform="translate(61.554 40.907)" fill="#acc1d1"/>
        <rect id="Rectángulo_35598" data-name="Rectángulo 35598" width="29.189" height="15.882" transform="translate(61.554 21.693)" fill="#707b82"/>
        <path id="Trazado_165802" data-name="Trazado 165802" d="M423.846,419.22H355.28L375.036,432.7h29.286Z" transform="translate(-313.482 -410.078)" fill="#c7d0d8"/>
        <path id="Trazado_165803" data-name="Trazado 165803" d="M436.05,479.848l-89.949.465,31.068-7.9h29.286Z" transform="translate(-315.614 -397.724)" fill="#c7d0d8"/>
        <path id="Trazado_165804" data-name="Trazado 165804" d="M364.073,425.263h50.958l8.752-6.043H355.217Z" transform="translate(-313.496 -410.078)" opacity="0.25"/>
        <rect id="Rectángulo_35599" data-name="Rectángulo 35599" width="198.189" height="6.198" transform="translate(0 4.804)" fill="url(#linear-gradient-2)"/>
        <rect id="Rectángulo_35600" data-name="Rectángulo 35600" width="90.956" height="6.973" transform="translate(30.254 82.279)" fill="#f2f3f4"/>
        <rect id="Rectángulo_35601" data-name="Rectángulo 35601" width="35.484" height="4.339" rx="1.554" transform="translate(58.61 37.111)" fill="#f2f3f4"/>
        <g id="Grupo_128816" data-name="Grupo 128816" transform="translate(64.585 44.465)">
          <rect id="Rectángulo_35602" data-name="Rectángulo 35602" width="11.753" height="22.374" rx="0.667" transform="translate(0 11.753) rotate(-90)" fill="#fff"/>
          <g id="Grupo_128815" data-name="Grupo 128815" transform="translate(2.028 3.989)">
            <rect id="Rectángulo_35603" data-name="Rectángulo 35603" width="8.733" height="3.679" rx="0.263" fill="#7aa2cc"/>
            <rect id="Rectángulo_35604" data-name="Rectángulo 35604" width="8.06" height="3.105" transform="translate(0.291 0.277)" fill="#d93328"/>
            <g id="Grupo_128814" data-name="Grupo 128814" transform="translate(0.276 0.291)">
              <g id="Grupo_128813" data-name="Grupo 128813" clip-path="url(#clip-path)">
                <rect id="Rectángulo_35605" data-name="Rectángulo 35605" width="1.248" height="7.287" transform="translate(7.288 -0.81) rotate(49.414)" fill="#fff" opacity="0.26"/>
                <rect id="Rectángulo_35606" data-name="Rectángulo 35606" width="0.838" height="7.287" transform="translate(5.031 -0.81) rotate(49.415)" fill="#fff" opacity="0.26"/>
                <rect id="Rectángulo_35607" data-name="Rectángulo 35607" width="0.735" height="6.396" transform="translate(8.067 0.841) rotate(49.412)" fill="#fff" opacity="0.26"/>
              </g>
            </g>
          </g>
          <rect id="Rectángulo_35609" data-name="Rectángulo 35609" width="8.669" height="9.106" rx="0.531" transform="translate(11.875 1.36)" fill="#7aa2cc"/>
          <rect id="Rectángulo_35610" data-name="Rectángulo 35610" width="1.894" height="0.874" rx="0.156" transform="translate(12.713 2.198)" fill="#b5d6ff"/>
          <rect id="Rectángulo_35611" data-name="Rectángulo 35611" width="1.894" height="0.874" rx="0.156" transform="translate(15.08 2.198)" fill="#b5d6ff"/>
          <rect id="Rectángulo_35612" data-name="Rectángulo 35612" width="1.894" height="0.874" rx="0.156" transform="translate(17.43 2.198)" fill="#b5d6ff"/>
          <rect id="Rectángulo_35613" data-name="Rectángulo 35613" width="1.894" height="0.874" rx="0.156" transform="translate(12.713 3.491)" fill="#b5d6ff"/>
          <rect id="Rectángulo_35614" data-name="Rectángulo 35614" width="1.894" height="0.874" rx="0.156" transform="translate(15.08 3.491)" fill="#b5d6ff"/>
          <rect id="Rectángulo_35615" data-name="Rectángulo 35615" width="1.894" height="0.874" rx="0.156" transform="translate(17.43 3.491)" fill="#b5d6ff"/>
          <rect id="Rectángulo_35616" data-name="Rectángulo 35616" width="1.894" height="0.874" rx="0.156" transform="translate(12.713 4.839)" fill="#b5d6ff"/>
          <rect id="Rectángulo_35617" data-name="Rectángulo 35617" width="1.894" height="0.874" rx="0.156" transform="translate(15.08 4.839)" fill="#b5d6ff"/>
          <rect id="Rectángulo_35618" data-name="Rectángulo 35618" width="1.894" height="0.874" rx="0.156" transform="translate(17.43 4.839)" fill="#b5d6ff"/>
          <rect id="Rectángulo_35619" data-name="Rectángulo 35619" width="1.894" height="0.874" rx="0.156" transform="translate(12.713 6.168)" fill="#b5d6ff"/>
          <rect id="Rectángulo_35620" data-name="Rectángulo 35620" width="1.894" height="0.874" rx="0.156" transform="translate(15.08 6.168)" fill="#b5d6ff"/>
          <rect id="Rectángulo_35621" data-name="Rectángulo 35621" width="1.894" height="0.874" rx="0.156" transform="translate(17.43 6.168)" fill="#b5d6ff"/>
          <rect id="Rectángulo_35622" data-name="Rectángulo 35622" width="4.444" height="1.712" transform="translate(13.805 8.062)" fill="#f2f2f2"/>
          <rect id="Rectángulo_35623" data-name="Rectángulo 35623" width="3.315" height="0.146" rx="0.05" transform="translate(14.297 8.408)" opacity="0.41"/>
          <rect id="Rectángulo_35624" data-name="Rectángulo 35624" width="3.315" height="0.146" rx="0.05" transform="translate(14.297 8.681)" opacity="0.41"/>
          <rect id="Rectángulo_35625" data-name="Rectángulo 35625" width="2.75" height="0.146" rx="0.05" transform="translate(14.297 8.955)" opacity="0.41"/>
          <rect id="Rectángulo_35626" data-name="Rectángulo 35626" width="1.311" height="0.146" rx="0.05" transform="translate(14.297 9.301)" opacity="0.41"/>
        </g>
        <g id="Grupo_128817" data-name="Grupo 128817" transform="translate(63.898 61.146)">
          <rect id="Rectángulo_35627" data-name="Rectángulo 35627" width="11.287" height="7.265" fill="#d7e9f4"/>
          <rect id="Rectángulo_35628" data-name="Rectángulo 35628" width="8.022" height="1.557" rx="0.558" transform="translate(1.514 0.497)" fill="#175a8b"/>
          <rect id="Rectángulo_35629" data-name="Rectángulo 35629" width="6.373" height="0.357" rx="0.128" transform="translate(2.319 1.07)" fill="#fff"/>
          <rect id="Rectángulo_35630" data-name="Rectángulo 35630" width="9.649" height="0.243" rx="0.087" transform="translate(0.746 2.903)" opacity="0.17"/>
          <rect id="Rectángulo_35631" data-name="Rectángulo 35631" width="9.649" height="0.243" rx="0.087" transform="translate(0.746 3.487)" opacity="0.17"/>
          <rect id="Rectángulo_35632" data-name="Rectángulo 35632" width="9.649" height="0.243" rx="0.087" transform="translate(0.746 4.119)" opacity="0.17"/>
          <rect id="Rectángulo_35633" data-name="Rectángulo 35633" width="9.649" height="0.243" rx="0.087" transform="translate(0.746 4.703)" opacity="0.17"/>
          <rect id="Rectángulo_35634" data-name="Rectángulo 35634" width="6.417" height="0.243" rx="0.087" transform="translate(2.551 5.352)" opacity="0.17"/>
        </g>
        <g id="Grupo_128819" data-name="Grupo 128819" transform="translate(39.569 11.423)">
          <g id="Grupo_128818" data-name="Grupo 128818">
            <rect id="Rectángulo_35635" data-name="Rectángulo 35635" width="8.669" height="9.107" rx="0.531" transform="translate(0.348 0.348)" fill="#7aa2cc"/>
            <path id="Trazado_165805" data-name="Trazado 165805" d="M361.995,430.875h-7.682a.843.843,0,0,1-.842-.843v-8.118a.843.843,0,0,1,.842-.843h7.682a.843.843,0,0,1,.843.843v8.118A.843.843,0,0,1,361.995,430.875Zm-7.682-9.106a.145.145,0,0,0-.144.145v8.118a.145.145,0,0,0,.144.145h7.682a.146.146,0,0,0,.146-.145v-8.118a.146.146,0,0,0-.146-.145Z" transform="translate(-353.471 -421.071)" fill="#f2f2f2"/>
          </g>
          <rect id="Rectángulo_35636" data-name="Rectángulo 35636" width="1.894" height="0.874" rx="0.156" transform="translate(1.186 1.186)" fill="#b5d6ff"/>
          <rect id="Rectángulo_35637" data-name="Rectángulo 35637" width="1.894" height="0.874" rx="0.156" transform="translate(3.554 1.186)" fill="#b5d6ff"/>
          <rect id="Rectángulo_35638" data-name="Rectángulo 35638" width="1.894" height="0.874" rx="0.156" transform="translate(5.903 1.186)" fill="#b5d6ff"/>
          <rect id="Rectángulo_35639" data-name="Rectángulo 35639" width="1.894" height="0.874" rx="0.156" transform="translate(1.186 2.479)" fill="#b5d6ff"/>
          <rect id="Rectángulo_35640" data-name="Rectángulo 35640" width="1.894" height="0.874" rx="0.156" transform="translate(3.554 2.479)" fill="#b5d6ff"/>
          <rect id="Rectángulo_35641" data-name="Rectángulo 35641" width="1.894" height="0.874" rx="0.156" transform="translate(5.903 2.479)" fill="#b5d6ff"/>
          <rect id="Rectángulo_35642" data-name="Rectángulo 35642" width="1.894" height="0.874" rx="0.156" transform="translate(1.186 3.827)" fill="#b5d6ff"/>
          <rect id="Rectángulo_35643" data-name="Rectángulo 35643" width="1.894" height="0.874" rx="0.156" transform="translate(3.554 3.827)" fill="#b5d6ff"/>
          <rect id="Rectángulo_35644" data-name="Rectángulo 35644" width="1.894" height="0.874" rx="0.156" transform="translate(5.903 3.827)" fill="#b5d6ff"/>
          <rect id="Rectángulo_35645" data-name="Rectángulo 35645" width="1.894" height="0.874" rx="0.156" transform="translate(1.186 5.156)" fill="#b5d6ff"/>
          <rect id="Rectángulo_35646" data-name="Rectángulo 35646" width="1.894" height="0.874" rx="0.156" transform="translate(3.554 5.156)" fill="#b5d6ff"/>
          <rect id="Rectángulo_35647" data-name="Rectángulo 35647" width="1.894" height="0.874" rx="0.156" transform="translate(5.903 5.156)" fill="#b5d6ff"/>
          <rect id="Rectángulo_35648" data-name="Rectángulo 35648" width="4.444" height="1.712" transform="translate(2.279 7.051)" fill="#f2f2f2"/>
          <rect id="Rectángulo_35649" data-name="Rectángulo 35649" width="3.315" height="0.146" rx="0.05" transform="translate(2.771 7.397)" opacity="0.41"/>
          <rect id="Rectángulo_35650" data-name="Rectángulo 35650" width="3.315" height="0.146" rx="0.05" transform="translate(2.771 7.67)" opacity="0.41"/>
          <rect id="Rectángulo_35651" data-name="Rectángulo 35651" width="2.75" height="0.146" rx="0.05" transform="translate(2.771 7.943)" opacity="0.41"/>
          <rect id="Rectángulo_35652" data-name="Rectángulo 35652" width="1.311" height="0.146" rx="0.05" transform="translate(2.771 8.289)" opacity="0.41"/>
        </g>
      </g>
      <path id="Trazado_166041" data-name="Trazado 166041" d="M324.6,415.714s30.063-.987,39.921-.679,42.821,1.848,52.063.924c7.215-.722,92.419-.616,92.419-.616s2.773-19.716.616-20.332-5.545,3.7-8.318,8.934c0,0-29.574-7.393-49.6-7.085s-39.432,1.54-49.906.616S335.2,389.59,324.6,415.714Z" transform="translate(-320.607 -394.952)" fill="#1d272b"/>
      <path id="Trazado_166042" data-name="Trazado 166042" d="M357.4,400.846c-6.818-.049-12.606,5.766-19.424,5.841a51.22,51.22,0,0,1,23.664-9.019,102.089,102.089,0,0,1,15.326-.192,69.58,69.58,0,0,1,11.377,1.054,119.633,119.633,0,0,1-16.115,2.866l3.91,1.174q-12.083,3.456-24.164,6.915a68.6,68.6,0,0,1,15.191-6.923,16.024,16.024,0,0,0-10.52-.4A2.3,2.3,0,0,1,357.4,400.846Z" transform="translate(-317.5 -394.411)" fill="#fff" opacity="0.28"/>
      <path id="Trazado_166043" data-name="Trazado 166043" d="M392.275,407.085a149.026,149.026,0,0,0,20.2-4.525c-8.013,0-16.161-.029-23.837-2.33l32.064-1.492c-.452.4.4.951,1.008.948l28.3-.154a252.509,252.509,0,0,0-33.426,5.057C408.574,406.356,400.352,408.526,392.275,407.085Z" transform="translate(-305.734 -394.073)" fill="#fff" opacity="0.28"/>
      <path id="Trazado_166044" data-name="Trazado 166044" d="M479.941,400.031c-.278-.465-1.013-.218-1.4.165-1.445,1.442-1.675,4.068-3.565,4.841a4.889,4.889,0,0,1-2.7.035c-8.342-1.517-16.814-3.908-25.164-2.434a89.735,89.735,0,0,1,19.373,3.847,45.563,45.563,0,0,0-10.141,2.356l18.193.543a1.517,1.517,0,0,0,1.805-1.187Q478.142,404.115,479.941,400.031Z" transform="translate(-292.153 -393.83)" fill="#fff" opacity="0.28"/>
    </g>
    <g id="Grupo_91640" data-name="Grupo 91640" transform="translate(205.361 14032.512)">
      <g id="Grupo_91518" data-name="Grupo 91518" transform="translate(0 0)">
        <path id="Trazado_150333" data-name="Trazado 150333" d="M-231.531,392.877c-.771,2.812-2.014,4.941-1.363,8.66a53.659,53.659,0,0,0,9.015,6.786v.021c5.715,3.772,12.892,6.154,15.114,1.692.376-1.19-.575-2.924-1.458-3.818-2.67-2.706-7.127-3.739-7.887-7.88a14.276,14.276,0,0,1-.119-3.6Z" transform="translate(244.502 -260.633)" fill="#4d4948" fill-rule="evenodd"/>
        <path id="Trazado_150334" data-name="Trazado 150334" d="M-232.022,401.939c1.417,3.387,3.337,2.781,4.877,4.042,4.716,3.857,5.655,7.275,12.7,8.629,2.846.547,6.306-.477,6.833-2.211l-.276,1.852c-.605,1.459-4.066,2.7-6.834,2.083-7.666-1.715-17.522-9.955-18.207-11.47C-233.55,403.486-232.324,402.914-232.022,401.939Z" transform="translate(243.449 -263.258)" fill="#3c3c3b" fill-rule="evenodd"/>
        <path id="Trazado_150335" data-name="Trazado 150335" d="M-248,298.238s.239.174.665.5a14.127,14.127,0,0,1,1.023-1.548l.251-.155s21.717,18.4,21.563,34.878c0,.065,0,.129,0,.194h0l-.011.5h0l-.011.487h0l-.013.479h0l-.013.471h0l-.015.462h0l-.016.455h0l-.016.447h0l-.017.44-.02.432-.02.425-.022.418-.023.411-.024.4-.026.4-.028.391-.028.386-.031.379-.032.374-.033.368-.035.363-.036.357-.038.352-.04.347-.041.342-.043.337-.045.333-.046.328-.049.325-.05.32-.052.317h0l-.054.313h0l-.055.31h0l-.058.306h0l-.06.3h0l-.062.3h0l-.065.3h0l-.067.294h0l-.068.292h0l-.07.29h0l-.073.288h0l-.076.286h0l-.078.283h0l-.081.283h0l-.082.281h0l-.085.279h0l-.087.278h0l-.09.278h0l-.092.277h0l-.1.276h0l-.1.276h0l-.1.275-.1.276-.107.275-.109.276-.112.276-.114.276-.118.277-.12.278-.123.279-.125.281-.129.281-.131.284-.135.286-.137.288c-1.047,6.012-8.587,6.7-13.064,3.8.069.011.132.016.2.026a4.663,4.663,0,0,1-2.264-3.2c1.646-15.829-3.757-29.583-12.992-34.97,1.84,10.7-8.527,39.68-11.6,43.95-.291,5.2-13.336,7.849-13.032-2.625-1.433-5.311,4.354-11.12,6.55-24.012.793-4.662-1.453-18.185-1.48-22.3-.092-13.688,1.21-19.547,5.879-24.28,3.566,4.324,14.824,11.221,20.082,8.881Z" transform="translate(294.719 -230.84)" fill="#f9a825" fill-rule="evenodd"/>
        <path id="Trazado_150336" data-name="Trazado 150336" d="M-277.442,328.162l-.015-.009.015-.017v.026Zm0,.124v-.035l-.015-.1A.329.329,0,0,0-277.442,328.287Zm3.954-6.736c0,8.854,8.19-9.057,8.19,3.884,0,3.6,3.068,1.847,4.886,3.668,4.157,4.164,12.58,16.225,12.227,22.775-.18,3.34-.334,6.365-.467,9.133l-.026.06-.125.281-.129.281-.131.284-.135.285-.137.288c-1.047,6.012-8.586,6.7-13.064,3.8.069.011.132.016.2.026a4.664,4.664,0,0,1-2.264-3.2c1.645-15.821-3.751-29.567-12.977-34.961v-.026c1.646-1.889,1.2-6.586,3.954-6.586Zm-3.954,6.7v.035l.015.065Z" transform="translate(310.853 -239.679)" fill="#de9318" fill-rule="evenodd"/>
        <path id="Trazado_150337" data-name="Trazado 150337" d="M-272.43,282.815l-5.491,4.892c-2.462-1.911-7.682-7.45-10.979-11.148-2.646-2.969-16.6-17-19.48-25.474,3.679-8.959-6.5-14.536-1.18-15.191,5.279-.65,8.008.5,11.666,4.863,2.916,5.235,11.609,23.938,15.676,28.942C-274.931,278.338-273.01,278.753-272.43,282.815Z" transform="translate(356.37 -215.102)" fill="#f9a825" fill-rule="evenodd"/>
        <path id="Trazado_150338" data-name="Trazado 150338" d="M-290.176,271.074c8.9,3.24.047,1.928.95,4.336.45,1.2,1.823.046,3.84,1.55,3.711,2.766.511,6.136,7.336,9.937,1.556.867,2.953,1.651,5.723.214.065,2.781-1.428,4.471-5.194,4.569-6.066.75-13.144-10.013-16.439-13.711-3.227-3.622-15.245-24.127-16.759-28.022,7.927-1.188,12.336-.491,14.252,4.065C-294.295,259.174-294.933,268.495-290.176,271.074Z" transform="translate(356.001 -219.074)" fill="#de9318" fill-rule="evenodd"/>
        <path id="Trazado_150339" data-name="Trazado 150339" d="M-291.435,382.535c-.048,2.915-.72,5.287.835,8.726a53.708,53.708,0,0,0,10.419,4.329l0,.02c6.474,2.232,14.019,2.754,15.06-2.122.068-1.246-1.285-2.69-2.362-3.336-3.259-1.957-7.833-1.847-9.6-5.669a14.267,14.267,0,0,1-1.011-3.459Z" transform="translate(336.491 -257.199)" fill="#4d4948" fill-rule="evenodd"/>
        <path id="Trazado_150340" data-name="Trazado 150340" d="M-291.394,392.469c2.215,2.928,3.923,1.863,5.729,2.7,5.527,2.562,7.288,5.64,14.448,5.2,2.893-.178,5.99-2.031,6.068-3.842l.194,1.863c-.223,1.563-3.267,3.629-6.1,3.718-4.416.138-8.108-1.38-13.064-3.529-3.688-1.6-6.371-1.827-7.424-3.05C-292.489,394.347-291.444,393.488-291.394,392.469Z" transform="translate(336.551 -260.515)" fill="#3c3c3b" fill-rule="evenodd"/>
        <path id="Trazado_150341" data-name="Trazado 150341" d="M-210.095,407.078c-4.123-4.034-6.316-2.183-7.527-6.451-3.158,1.422-9.356-.384-11.51-3.791h0c-1.739,4.877,1.451,3.972,4.662,6.368,3.092,2.308,8.125,7.974,12.441,8.2C-208.588,411.585-208.312,408.823-210.095,407.078Z" transform="translate(242.381 -261.78)" fill="#666" fill-rule="evenodd"/>
        <path id="Trazado_150342" data-name="Trazado 150342" d="M-263.964,240.975s-.237,6.922-.85,10.455c-.593,7.1-4.991,16.231-7.83,22.913,3.669,12.445,15.621,19.367,24.283,6.99,9.062-5.035,15.59-17.792,15.249-31.789-1.09-4.263-1.345-10.006-5.591-12.418C-246.269,232.827-264.083,240.74-263.964,240.975Z" transform="translate(293.583 -215.137)" fill="#f9a825" fill-rule="evenodd"/>
        <path id="Trazado_150343" data-name="Trazado 150343" d="M-228.343,323.248c1.623,6.791,2.73,15,1.906,22.684-.532,4.966-9.336,21.266-13.506,21.266-.2,3.594-5.194,6.513-11.613.734.79-.256,4.762.281,5.914-.36,7.924-4.4,4.023-17.6,5.821-19.226,2.642-2.382,5.7-.358,6.424-3.724,2.116-9.768-2.683-25.867-4.98-35.276,1.541-.512,5.755,9.2,11,5.353.983-.72,6.112-6.563,9.482-11.077C-215.119,306.988-226.5,321.557-228.343,323.248Z" transform="translate(266.404 -234.773)" fill="#de9318" fill-rule="evenodd"/>
        <path id="Trazado_150344" data-name="Trazado 150344" d="M-205.938,394.578a15.472,15.472,0,0,0-.011-2.656c-1.241,5.382-13.723,3.426-12.85-2.949a13.138,13.138,0,0,0-1.176,3.745C-219.084,398.147-206.642,399.878-205.938,394.578Z" transform="translate(232.409 -259.498)" fill="#3c3c3b"/>
        <path id="Trazado_150345" data-name="Trazado 150345" d="M-320.9,306.787c-.02-1.137,2.47-3.649,3.36-2.334,1,.964,4.8,4.72,5.012,5.034a12.464,12.464,0,0,1,.875,1.45,2.85,2.85,0,0,1,.364,2.074c-.035.764-.072,2.963-.163,3.644a20.353,20.353,0,0,1-.987,3.875.68.68,0,0,1-.639-.364c-.18.406-.315,1.155-.851,1.009a1.334,1.334,0,0,1-.857-1.251l-.109.493c-.763.356-1.416-.95-1.508-1.446s.147-1.987.073-2.484c-.184-1.208-.589-4-.384-1.123.107,1.246,0,2.968-.612,2.651-1.27-.655-.651-1.722-.881-2.963a12.42,12.42,0,0,0-1.475-4.247C-321.264,308.738-320.874,308.354-320.9,306.787Z" transform="translate(399.856 -234.907)" fill="#3c3c3b" fill-rule="evenodd"/>
        <path id="Trazado_150346" data-name="Trazado 150346" d="M-307.739,302.024a21.443,21.443,0,0,1-5.491,4.892c1.3.962,2.137,1.524,2.137,1.524,3.173-1.235,5.337-3.232,4.745-4.9C-306.748,303.118-307.22,302.609-307.739,302.024Z" transform="translate(389.393 -234.31)" fill="#575756" fill-rule="evenodd"/>
        <path id="Trazado_150347" data-name="Trazado 150347" d="M-259.857,381.212a15.617,15.617,0,0,0-.671-2.569c.137,5.521-12.44,6.733-13.18.341a13.165,13.165,0,0,0-.207,3.92C-271.7,387.94-259.22,386.522-259.857,381.212Z" transform="translate(319.508 -256.489)" fill="#3c3c3b"/>
        <path id="Trazado_150348" data-name="Trazado 150348" d="M-266.789,392.77c-5-2.881-6.659-.542-8.895-4.376-2.705,2.163-9.158,1.957-12.092-.807h0c-.47,5.157,2.394,3.487,6.1,5.008,3.569,1.465,9.854,5.7,14.09,4.846C-264.208,396.76-264.628,394.016-266.789,392.77Z" transform="translate(333.934 -259.1)" fill="#666" fill-rule="evenodd"/>
        <path id="Trazado_150369" data-name="Trazado 150369" d="M-234.959,258.9c-2.352,5.744-6.505,10.337-12.81,10.337-5.478,0-5.868,6.264-8.334,0-.816-2.074-11.721,7.535-13.075,9.206-2.864,3.53.662,4.418,2.873,7.336,3.679,4.853-8.289-2.928-6,.413.931,1.36,1.654,4.851,4.19,7.127,4.436,3.982,9.743,9.172,17.927-5.309C-241.71,283.3-235.449,271.827-234.959,258.9Z" transform="translate(295.249 -221.817)" fill="#de9318" fill-rule="evenodd"/>
        <path id="Trazado_150371" data-name="Trazado 150371" d="M-261.986,216.455c-.631,1.705-3.748,12.038-7.008,15.132,5.549,1.98,4.837,16.626,11.966,13.915,2.272-.864,4.548-4.145,4.631-9.756-1.788-2.6-3.368-2.113,1.308-7.815C-249.913,226.019-261.987,216.455-261.986,216.455Z" transform="translate(307.697 -209.519)" fill="#f9a825" fill-rule="evenodd"/>
        <path id="Trazado_150372" data-name="Trazado 150372" d="M-264.76,222c-.414.865-1.518.552-1.717,4.718-.126,2.573-.505,2.448-3.073,5.858-1.453,1.931-6.473,4.945-8.365,2.5-.592-.765-1.827-6.221-5.135-2.619-.979,1.067-1.487-1.718-1.076-5.319.1-.9,1.921-10.106-.175-4.892-3.2,7.971-.317-10.391,2.865-13.063,3.2-2.808,9.833-4.47,17.13,1.887,2.9,2.522,4.938,7.706,1.948,10.548C-263.208,222.426-264.351,220.547-264.76,222Z" transform="translate(328.472 -206.689)" fill="#de9318" fill-rule="evenodd"/>
        <path id="Trazado_150374" data-name="Trazado 150374" d="M-271.1,220.612c-3.671.835-10.058,5.433-12.08,10.231s-1.43,5.338-.717,6.515c.692.746,1.259,1.354,1.522,1.694,1.892,2.446,6.912-.568,8.365-2.5,2.568-3.411,2.947-3.285,3.073-5.858.2-4.166,1.3-3.853,1.717-4.718.409-1.453,1.553.426,2.4-.382a4.653,4.653,0,0,0,.668-.793C-266.229,221.668-267.433,219.776-271.1,220.612Z" transform="translate(332.734 -210.666)" fill="#f9a825" fill-rule="evenodd"/>
        <path id="Trazado_150375" data-name="Trazado 150375" d="M-271.909,221.98c-3.936.878-8.753,5.52-10.927,11.1s.413,8.655,4.348,7.778,8.6-5.817,10.417-11.03S-267.974,221.1-271.909,221.98Z" transform="translate(333.243 -211.08)" fill="#333" fill-rule="evenodd"/>
        <path id="Trazado_150376" data-name="Trazado 150376" d="M-269.766,229.855l-1.354,9.213-6.763,5c-1.487-1.17-2.339-1.713-3.776-2.941l-.035-.031c-4.866-4.3,3.636-15.872,8.11-16.87C-270.433,223.52-268.876,225.978-269.766,229.855Z" transform="translate(335.004 -211.734)" fill="#7f7f7f" fill-rule="evenodd"/>
        <path id="Trazado_150377" data-name="Trazado 150377" d="M-280.158,243.407c-4.206-2.35-3.407-10.576-1.109-16.047a10.374,10.374,0,0,1,4.517-3.137c3.152-.7,4.709,1.755,3.818,5.632l-1.354,9.213Z" transform="translate(338.049 -211.734)" fill="#b2b2b2" fill-rule="evenodd"/>
        <path id="Trazado_150378" data-name="Trazado 150378" d="M-277.657,225.075l-1.786,14.739-1.43-.126-1.118-15.115a6.752,6.752,0,0,1,1.092-.35A3.084,3.084,0,0,1-277.657,225.075Z" transform="translate(342.061 -211.734)" fill-rule="evenodd" fill="url(#linear-gradient-3)"/>
        <path id="Trazado_150379" data-name="Trazado 150379" d="M-273.65,248.187l-2.47-4.252a.788.788,0,0,0-.124-.153c-2.19-2.339-9.891,2.33-8.335,5.2h0l2.4,4.134Z" transform="translate(340.084 -217.252)" fill="#4c4c4c" fill-rule="evenodd"/>
        <path id="Trazado_150380" data-name="Trazado 150380" d="M-271.667,249.524l-2.244-3.8a6.258,6.258,0,0,0-2.027,2.105l2.264,3.83A6.254,6.254,0,0,1-271.667,249.524Z" transform="translate(332.169 -217.999)" fill="#333" fill-rule="evenodd"/>
        <path id="Trazado_150381" data-name="Trazado 150381" d="M-284.707,255.185c.982,1.048,3.6.67,5.843-.844s3.27-3.591,2.289-4.639-3.6-.671-5.843.843S-285.688,254.137-284.707,255.185Z" transform="translate(342.745 -218.979)" fill="#333" fill-rule="evenodd"/>
        <path id="Trazado_150382" data-name="Trazado 150382" d="M-274.5,248.7l-2.248-3.8c-.192.1-.381.206-.566.32l2.248,3.795Q-274.783,248.846-274.5,248.7Z" transform="translate(335.832 -217.761)" fill="#333" fill-rule="evenodd"/>
        <path id="Trazado_150383" data-name="Trazado 150383" d="M-276.527,251.17l-.487-.839a.745.745,0,0,0-.115-.141c-2.028-2.166-9.16,2.158-7.718,4.817h0l.423.729Z" transform="translate(343.032 -219.122)" fill="#4c4c4c" fill-rule="evenodd"/>
        <path id="Trazado_150384" data-name="Trazado 150384" d="M-284.967,256.387c.908.97,3.332.621,5.412-.781s3.029-3.326,2.12-4.3-3.333-.622-5.412.781S-285.876,255.416-284.967,256.387Z" transform="translate(343.761 -219.458)" fill="#333" fill-rule="evenodd"/>
        <path id="Trazado_150385" data-name="Trazado 150385" d="M-281.434,243.419l2.33,3.984a3.864,3.864,0,0,0-1.562-.026l-2.453-3.946A3.764,3.764,0,0,1-281.434,243.419Z" transform="translate(344.225 -217.305)" fill="#999" fill-rule="evenodd"/>
        <g id="Grupo_91517" data-name="Grupo 91517" transform="translate(0 67.476)">
          <path id="Trazado_150386" data-name="Trazado 150386" d="M-200.489,311.782c-.54,1.166.223,2.038.763,3.221.61,1.336-.578,3.723.575,5.473.589.893,1.287-.507,1.349-2.1s.967-2.609.976-3.909c.006-.771-.193-3.431-1.2-3.781C-199.774,310.074-199.852,310.98-200.489,311.782Z" transform="translate(209.63 -304.237)" fill="#575756" fill-rule="evenodd"/>
          <path id="Trazado_150387" data-name="Trazado 150387" d="M-193.377,302.132c.932-.854,5.03-.5,4.649,1.261,0,1.592,1.027,7.187.938,7.608-.14.708-1.375,1.684-1.606,2.379a2.954,2.954,0,0,1-1.436,1.847c-.666.533-2.528,2.116-3.169,2.537-1.235.636-3.62,2.457-4.026,1.976a1.372,1.372,0,0,1-.324-1.1c-.452.227-1.033.819-1.412.251a1.448,1.448,0,0,1,.354-1.68l-.5.266c-.917-.167-.285-1.686.054-2.133s1.713-1.6,2.069-2.031c.859-1.05,2.857-3.461.627-1.166-.953,1.011-2.555,2.2-2.7,1.408-.252-1.374,1.038-1.885,1.887-3a12.563,12.563,0,0,0,2.228-4.391C-195.3,303.246-194.662,303.309-193.377,302.132Z" transform="translate(200.384 -301.689)" fill="#3c3c3b" fill-rule="evenodd"/>
        </g>
        <path id="Trazado_150388" data-name="Trazado 150388" d="M-191.4,311.51a14.582,14.582,0,0,1-.706,4.323,1.589,1.589,0,0,1-2.5-.2c-.926.1-1.733-.413-1.787-1.065a1.477,1.477,0,0,1-1.442-1.391,2.555,2.555,0,0,1-.712-1.32c.2-1.11.888-1.854,1.344-3.116C-195.142,309.987-192.806,311.831-191.4,311.51Z" transform="translate(202.69 -236.257)" fill="#575756" fill-rule="evenodd"/>
        <path id="Trazado_150389" data-name="Trazado 150389" d="M-234.554,263.948c-4.737,7.088-5.409,23.627-5.409,23.627l8.224.827c5.181-1.922,1.188-9.413,3.657-11.385,1.232-.984,1.223-1.989,1.435-3.443.121-.827,2.011.1,2.328-1.352,1.114-5.113,6.532-7.912,10.857-8.3,13.891-5.326,9.225-22.058,6.575-21.648a16.128,16.128,0,0,0-5.586.943C-218.113,245.544-226.45,251.821-234.554,263.948Z" transform="translate(244.661 -216.997)" fill="#de9318" fill-rule="evenodd"/>
        <path id="Trazado_150390" data-name="Trazado 150390" d="M-233.068,263.978c-4.736,7.088-8.159,19.426-5.476,21.871l2.05.876c1.886-.238,5.061-1,5.284-2.5.455-3.051-3.393-5.3.382-11.538.656-1.084,1.864.531,4.391-2.715.447-.574-2.336-1.158-1.891-1.6.668-.668,4.951-1.1,6-1.907,6.621-5.071,16.431-6.1,18.37-9.558q.087-.18.17-.362c.012-.033.026-.064.037-.1h.006c2.929-6.638-1.727-14.354-3.546-14.073a8.3,8.3,0,0,0-3.695.871C-216.627,245.574-224.965,251.851-233.068,263.978Z" transform="translate(243.176 -217.026)" fill="#f9a825" fill-rule="evenodd"/>
        <path id="Trazado_150391" data-name="Trazado 150391" d="M-192.4,306.169a30.12,30.12,0,0,1-8.29-2.583c-.125,1.609-.151,2.62-.151,2.62,2.735,2.028,6.8,3.338,7.9,1.946C-192.794,307.59-192.615,306.919-192.4,306.169Z" transform="translate(205.318 -234.763)" fill="#575756" fill-rule="evenodd"/>
        <g id="Grupo_91530" data-name="Grupo 91530" transform="matrix(-0.951, -0.309, 0.309, -0.951, 85.613, 165.47)">
          <path id="Trazado_150296" data-name="Trazado 150296" d="M36.316,76.927,1.382,29.162a4.85,4.85,0,0,1-.473-.872C-5.845,13.683,26.918-9.171,37.018,3.882h0L71.544,51.09Z" transform="translate(1.246 1.571)" fill="#2e3c42" fill-rule="evenodd"/>
          <path id="Trazado_150297" data-name="Trazado 150297" d="M41.9,62.171,0,4.5C4.521,1.751,9.443.012,13.74,0L53,54.034Z" transform="translate(15.771 1.576)" fill="#1d272b" fill-rule="evenodd"/>
          <path id="Trazado_150298" data-name="Trazado 150298" d="M34.623,49.565,0,1.91Q1.23.908,2.542,0l34.62,47.651Q35.834,48.565,34.623,49.565Z" transform="translate(11.244 7.357)" fill="#1d272b" fill-rule="evenodd"/>
          <g id="Grupo_91501" data-name="Grupo 91501" transform="translate(24.64 33.914)">
            <path id="Trazado_150299" data-name="Trazado 150299" d="M40.435,6.131a9.1,9.1,0,0,1,.813,3.149l-2.783-3.83-.012.009C28.533-7.831-4.479,15.065,2.308,29.729a7.821,7.821,0,0,0,.827,1.389l2.583,3.63a8.684,8.684,0,0,1-4.566-4.3C-7.172,12.951,32.049-11.569,40.435,6.131Z" transform="translate(0 0)" fill="#afafaf" fill-rule="evenodd"/>
            <path id="Trazado_150300" data-name="Trazado 150300" d="M40.436,6.131a9.112,9.112,0,0,1,.812,3.149l-2.783-3.83-.011.008C28.533-7.831-4.479,15.065,2.309,29.73a7.815,7.815,0,0,0,.827,1.388l2.583,3.63a8.686,8.686,0,0,1-4.566-4.3C-7.172,12.951,32.049-11.569,40.436,6.131Z" transform="translate(0.544 0.84)" fill="#e8e8e8" fill-rule="evenodd"/>
          </g>
          <g id="Grupo_91502" data-name="Grupo 91502" transform="translate(10.24 14.094)">
            <path id="Trazado_150301" data-name="Trazado 150301" d="M40.435,6.131a9.091,9.091,0,0,1,.813,3.149l-2.783-3.83-.012.009C28.533-7.831-4.479,15.065,2.309,29.73a7.813,7.813,0,0,0,.827,1.388l2.583,3.63a8.683,8.683,0,0,1-4.566-4.3C-7.172,12.951,32.049-11.569,40.435,6.131Z" transform="translate(0 0)" fill="#afafaf" fill-rule="evenodd"/>
            <path id="Trazado_150302" data-name="Trazado 150302" d="M40.436,6.131a9.108,9.108,0,0,1,.812,3.149l-2.783-3.83-.011.008C28.533-7.831-4.479,15.064,2.308,29.73a7.82,7.82,0,0,0,.827,1.388l2.583,3.63a8.688,8.688,0,0,1-4.566-4.3C-7.172,12.951,32.049-11.569,40.436,6.131Z" transform="translate(0.544 0.841)" fill="#e8e8e8" fill-rule="evenodd"/>
          </g>
          <path id="Trazado_150303" data-name="Trazado 150303" d="M40.2,5.346C43.423,12.3,37.222,23.4,26.356,30.131S4.069,36.668.85,29.709,3.832,11.651,14.7,4.924,36.985-1.613,40.2,5.346Z" transform="translate(34.311 47.447)" fill="#afafaf" fill-rule="evenodd"/>
          <path id="Trazado_150304" data-name="Trazado 150304" d="M40.2,5.346c3.218,6.959-2.982,18.058-13.848,24.785S4.069,36.669.85,29.71,3.832,11.651,14.7,4.924,36.985-1.613,40.2,5.346Z" transform="translate(34.876 48.346)" fill="#1d272b" fill-rule="evenodd"/>
          <path id="Trazado_150306" data-name="Trazado 150306" d="M34.413,4.576c2.755,5.957-2.552,15.457-11.853,21.215S3.483,31.386.728,25.43,3.28,9.972,12.581,4.215,31.658-1.381,34.413,4.576Z" transform="translate(37.832 50.87)" fill="#2e3c42" fill-rule="evenodd"/>
          <path id="Trazado_150307" data-name="Trazado 150307" d="M32.664,3.027c2.7,5.837-2.5,15.148-11.615,20.789C13.032,28.78,4.657,29.253.918,25.323c-.072-.132-.141-.266-.2-.4-2.7-5.837,2.5-15.147,11.615-20.789C20.345-.834,28.721-1.307,32.459,2.623,32.531,2.755,32.6,2.889,32.664,3.027Z" transform="translate(38.174 51.157)" fill="#afafaf" fill-rule="evenodd"/>
          <g id="Grupo_91503" data-name="Grupo 91503" transform="translate(61.58 61.766)">
            <path id="Trazado_150308" data-name="Trazado 150308" d="M7.213.959C7.79,2.208,6.678,4.2,4.729,5.406S.73,6.579.152,5.33.688,2.09,2.637.883,6.635-.289,7.213.959Z" transform="translate(0.835 1.083)" fill="#afafaf" fill-rule="evenodd"/>
            <path id="Trazado_150309" data-name="Trazado 150309" d="M1.2,6.749h0L1.2,6.743l.006.006Zm-.087-.113L.407,5.711A1.432,1.432,0,0,1,.243,5.5h0A1.407,1.407,0,0,1,.153,5.33C-.425,4.081.688,2.09,2.637.884,4.425-.224,6.3-.286,7.04.674h0l.794,1.034C7.066.8,5.228.88,3.472,1.967,1.523,3.173.411,5.165.988,6.414A1.489,1.489,0,0,0,1.115,6.636Z" transform="translate(0 0)" fill="#1d272b" fill-rule="evenodd"/>
            <path id="Trazado_150310" data-name="Trazado 150310" d="M6.433.856c.516,1.113-.476,2.89-2.216,3.966S.652,5.868.136,4.754.613,1.865,2.352.788,5.918-.258,6.433.856Z" transform="translate(1.233 1.423)" fill="#1d272b" fill-rule="evenodd"/>
            <path id="Trazado_150311" data-name="Trazado 150311" d="M6.433.855c.516,1.113-.476,2.89-2.216,3.966S.652,5.868.136,4.754.613,1.864,2.352.788,5.919-.258,6.433.855Z" transform="translate(1.399 1.652)" fill="#afafaf" fill-rule="evenodd"/>
          </g>
          <g id="Grupo_91504" data-name="Grupo 91504" transform="translate(0 0)">
            <path id="Trazado_150312" data-name="Trazado 150312" d="M40.435,6.131a9.1,9.1,0,0,1,.813,3.149l-2.783-3.83-.012.009C28.533-7.831-4.479,15.065,2.308,29.729a7.826,7.826,0,0,0,.827,1.389l2.583,3.63a8.683,8.683,0,0,1-4.566-4.3C-7.172,12.951,32.049-11.569,40.435,6.131Z" transform="translate(0 0)" fill="#94adca" fill-rule="evenodd"/>
            <path id="Trazado_150313" data-name="Trazado 150313" d="M40.436,6.131a9.108,9.108,0,0,1,.812,3.149l-2.783-3.83-.011.008C28.533-7.832-4.479,15.065,2.309,29.73a7.817,7.817,0,0,0,.827,1.388l2.582,3.629a8.686,8.686,0,0,1-4.566-4.3C-7.172,12.951,32.049-11.569,40.436,6.131Z" transform="translate(0.544 0.841)" fill="#e8e8e8" fill-rule="evenodd"/>
          </g>
        </g>
        <path id="Trazado_150368" data-name="Trazado 150368" d="M-319.061,310.421c.21,1.13,1.872,1.729,2.819,2.286,1.069.63.722,2.6,2.362,3.235,1.576.608-1-4.834-1.388-5.576-.31-.6-1.819-2.359-2.671-2.067C-319.419,308.807-319.026,309.5-319.061,310.421Z" transform="translate(400.674 -236.119)" fill="#575756" fill-rule="evenodd"/>
      </g>
    </g>
    <g id="Grupo_91642" data-name="Grupo 91642" transform="translate(383.198 14136.608)">
      <path id="Trazado_150393" data-name="Trazado 150393" d="M-136.926,334.9l-19.938-11.371a4.668,4.668,0,0,0-4.735,0l-20.036,11.388a2.337,2.337,0,0,0-1.211,2.079,2.338,2.338,0,0,0,1.207,2.08l19.976,11.39a4.674,4.674,0,0,0,4.741,0l20-11.406a2.337,2.337,0,0,0,1.208-2.078A2.337,2.337,0,0,0-136.926,334.9Z" transform="translate(182.846 -298.5)" fill="#b2b2b2" fill-rule="evenodd"/>
      <path id="Trazado_150394" data-name="Trazado 150394" d="M-136.926,333.15l-19.938-11.371a4.667,4.667,0,0,0-4.735,0l-20.036,11.389a2.336,2.336,0,0,0-1.211,2.078,2.337,2.337,0,0,0,1.207,2.08l19.976,11.391a4.672,4.672,0,0,0,4.741,0l20-11.405a2.338,2.338,0,0,0,1.208-2.078A2.336,2.336,0,0,0-136.926,333.15Z" transform="translate(182.846 -298.038)" fill="#fff" fill-rule="evenodd"/>
      <path id="Trazado_150395" data-name="Trazado 150395" d="M-172.619,323.494a5.232,5.232,0,0,0-.329.87l-.18.475h.073a4.688,4.688,0,0,0-.072.813c0,4.814,7.364,8.719,16.444,8.719s16.444-3.905,16.444-8.719a4.689,4.689,0,0,0-.072-.813h.074l-.182-.481a5.282,5.282,0,0,0-.324-.855l-11.539-30.493a4.724,4.724,0,0,0-4.4-3.28,4.725,4.725,0,0,0-4.4,3.28Z" transform="translate(180.275 -289.73)" fill="#ccc" fill-rule="evenodd"/>
      <path id="Trazado_150396" data-name="Trazado 150396" d="M-171.748,329.47c2.318,3.326,8.352,5.7,15.43,5.7a29.089,29.089,0,0,0,6.869-.8l-4.7-36.739c-.361-2.827-.58-4.116-2.174-4.751-1.628-.647-3.248,1.116-3.936,2.935l-11.368,33.368C-171.667,329.28-171.71,329.375-171.748,329.47Z" transform="translate(179.91 -290.528)" fill="#e5e5e5" fill-rule="evenodd"/>
      <path id="Trazado_150397" data-name="Trazado 150397" d="M-171.406,331.262l-1.728,4.565c-.465,6.337,9.073,9.532,16.445,9.532,4.394,0,17.691-2.042,16.372-9.532.071,0-1.484-4.115-1.655-4.566-2.053,3.686-8.024,5.963-14.717,5.963S-169.4,334.862-171.406,331.262Z" transform="translate(180.281 -300.717)" fill="#de9318" fill-rule="evenodd"/>
      <path id="Trazado_150398" data-name="Trazado 150398" d="M-171.708,340.271c2.633,3.836,9.67,5.768,15.4,5.768a32.205,32.205,0,0,0,6.856-.893l-1-7.858a27.335,27.335,0,0,1-5.852.616c-5.436,0-10.424-1.558-13.184-4.073l-2.12,6.225C-171.645,340.128-171.678,340.2-171.708,340.271Z" transform="translate(179.899 -301.397)" fill="#f9a825" fill-rule="evenodd"/>
      <path id="Trazado_150399" data-name="Trazado 150399" d="M-166.774,318.172c1.048,3.791,5.834,6.02,11.772,6.02s11.173-2.4,11.708-6.188l-2.573-6.8c-.613,2.448-4.238,4.833-9.136,4.833s-8.33-1.874-9.2-4.664Z" transform="translate(178.594 -295.411)" fill="#de9318" fill-rule="evenodd"/>
      <path id="Trazado_150400" data-name="Trazado 150400" d="M-165.225,321.065c1.981,2.447,5.949,3.834,10.633,3.834a20.227,20.227,0,0,0,4.87-.576l-1.036-8.1a13.773,13.773,0,0,1-3.834.526c-3.752,0-6.645-1.1-8.184-2.868Z" transform="translate(178.184 -296.118)" fill="#f9a825" fill-rule="evenodd"/>
      <path id="Trazado_150401" data-name="Trazado 150401" d="M-159.792,298.92c.7,2.059,3.957,3.084,6.637,3.084s6.112-1.152,6.637-3.084l-2.236-5.91a4.724,4.724,0,0,0-4.4-3.28,4.725,4.725,0,0,0-4.4,3.28Z" transform="translate(176.747 -289.73)" fill="#de9318" fill-rule="evenodd"/>
      <path id="Trazado_150402" data-name="Trazado 150402" d="M-158.538,300.592a9.212,9.212,0,0,0,5.715,1.761,11.216,11.216,0,0,0,2.787-.37l-.613-4.8c-.361-2.827-.305-5.378-2.172-6-2.392-.8-3.251,2.37-3.938,4.189Z" transform="translate(176.415 -290.08)" fill="#f9a825" fill-rule="evenodd"/>
    </g>
    <g id="Grupo_91643" data-name="Grupo 91643" transform="translate(410.628 13978.415)">
      <g id="Grupo_60248" data-name="Grupo 60248" transform="translate(0 0)">
        <g id="Grupo_60220" data-name="Grupo 60220" transform="translate(10.686 42.131)">
          <path id="Trazado_116995" data-name="Trazado 116995" d="M2733.431,793.313l-2.809,2.137-2.519,2.795c.945.841,2.269-.735,2.269-.735a24.516,24.516,0,0,1-2.693,4.839c-.45.929.477.98.477.98a19.324,19.324,0,0,0,2.9-3.842,47.6,47.6,0,0,1-2.4,4.563c-.233.83.648.7.648.7,1.885-.795,2.976-4.485,2.976-4.485a27.465,27.465,0,0,1-1.893,4.189c.124.609.433.449.433.449,1.591-.4,2.631-3.956,2.631-3.956l-.425,1.321c-.741,1.756.454,1.44.454,1.44l.531-.858a11.116,11.116,0,0,0,1.557-5.22l.437-3.283Z" transform="translate(-2727.555 -735.63)" fill="#e28262"/>
          <path id="Trazado_116996" data-name="Trazado 116996" d="M2782.687,405.172l1.707.892s-1.524,24.979-4.778,29.545-4.889-1.278-5.7-1.994-2.042-28.751-2.042-28.751Z" transform="translate(-2765.985 -398.792)" fill="#e28262"/>
          <path id="Trazado_116997" data-name="Trazado 116997" d="M2773.239,592.457s-.58,21.481-1.463,26.272c0,0,1,2.481,2.578,1.038s7.283-24.749,6.745-26.728S2773.239,592.457,2773.239,592.457Z" transform="translate(-2765.9 -561.046)" fill="#e28262"/>
          <path id="Trazado_116998" data-name="Trazado 116998" d="M2763.3,386.174c4.877,3.618,12.972,1.926,12.972,1.926l2.162-22.408s.692-4.427-4.976-6.248a7.63,7.63,0,0,0-9.259,4.687Z" transform="translate(-2758.55 -359.174)" fill="url(#linear-gradient-2)"/>
        </g>
        <g id="Grupo_60221" data-name="Grupo 60221" transform="translate(0 88.845)">
          <rect id="Rectángulo_6332" data-name="Rectángulo 6332" width="32.802" height="21.214" transform="translate(0 0.726)" fill="#fa9711"/>
          <rect id="Rectángulo_6333" data-name="Rectángulo 6333" width="31.758" height="20.06" transform="translate(0.51 1.197)" fill="#fff"/>
          <rect id="Rectángulo_6334" data-name="Rectángulo 6334" width="32.803" height="20.166" transform="translate(1.03 1.773)" fill="#ffad0b"/>
          <rect id="Rectángulo_6335" data-name="Rectángulo 6335" width="10.201" height="1.773" transform="translate(1.03)" fill="#ffad0b"/>
        </g>
        <path id="Trazado_116999" data-name="Trazado 116999" d="M2795.879,1436.811s-1.032,3.883-2.271,4.927-5.938,2.558-5.938,2.558l-2.6.35s-1.815,1.279,3.127,2.683,13.674-2.632,13.674-2.632l-1.892-7.971Z" transform="translate(-2766.662 -1251.423)" fill="#db8804"/>
        <path id="Trazado_117000" data-name="Trazado 117000" d="M2991.524,1443.926c.914-1.336,2.968-8.7,2.968-8.7l4.049,0,2.289,8.248s.365,1.381-.476,1.869c0,0-5.1,1.6-9.354-.363A2.976,2.976,0,0,1,2991.524,1443.926Z" transform="translate(-2946.146 -1250.116)" fill="#db8804"/>
        <path id="Trazado_117001" data-name="Trazado 117001" d="M2780.027,361.2l-5.17-31.594s-1.781-4.749,1.781-7.124l13.578-6.381h9.575l16.323,9.646-10.7,35.452Z" transform="translate(-2758.615 -279.693)" fill="#f39672"/>
        <path id="Trazado_117002" data-name="Trazado 117002" d="M2842.062,655.527s2.932,6.694,3.639,22.084c0,0-22.066,6.922-28.988,0l-.04-22.084Z" transform="translate(-2794.685 -574.02)" fill="#001b34"/>
        <path id="Trazado_117003" data-name="Trazado 117003" d="M2898.874,760.71a9.058,9.058,0,1,0,9.053-9.351A9.206,9.206,0,0,0,2898.874,760.71Z" transform="translate(-2866.092 -657.119)" fill="#001b34"/>
        <path id="Trazado_117004" data-name="Trazado 117004" d="M2816.971,767.128c0,5.164,2.271,9.352,7.271,9.352a9.356,9.356,0,0,0,0-18.7C2819.242,757.777,2816.971,761.964,2816.971,767.128Z" transform="translate(-2794.722 -662.684)" fill="#1d272b"/>
        <path id="Trazado_117005" data-name="Trazado 117005" d="M2932.365,800.083l1.929,38.882s-3.413,10.686-10.981,4.452l-6.7-42.866S2918.711,789.4,2932.365,800.083Z" transform="translate(-2881.538 -695.353)" fill="#1d272b"/>
        <path id="Trazado_117006" data-name="Trazado 117006" d="M2977.991,1102.147a38.276,38.276,0,0,1,2.788,15.882l-1.3,28.7h-6.826l-5.639-40.135S2972.2,1092.946,2977.991,1102.147Z" transform="translate(-2925.342 -958.535)" fill="#1d272b"/>
        <path id="Trazado_117007" data-name="Trazado 117007" d="M2830.669,810.176l-.557,35.785s-9.1,8.113-11.477,2.177c0,0-2.572-27.481-2.077-41.246C2816.558,806.892,2827.5,797.71,2830.669,810.176Z" transform="translate(-2794.281 -702.448)" fill="#1d272b"/>
        <path id="Trazado_117008" data-name="Trazado 117008" d="M2844.077,1104.995s2.771,4.349,1.41,16.514l-2.4,28.172h-7.321l-3.167-42.509S2837.363,1097.987,2844.077,1104.995Z" transform="translate(-2808.294 -961.482)" fill="#1d272b"/>
        <g id="Grupo_60223" data-name="Grupo 60223" transform="translate(45.181 44.638)">
          <path id="Trazado_117009" data-name="Trazado 117009" d="M3087.619,616.5c1.77,17.747,1.044,18.921.859,26.039,0,0,.945,2.5,2.554,1.1s4.175-25.039,3.366-26.924C3093.2,613.917,3087.619,616.5,3087.619,616.5Z" transform="translate(-3075.388 -583.873)" fill="#f39672"/>
          <path id="Trazado_117010" data-name="Trazado 117010" d="M3065.92,814.25l-2.5,2.5-2.121,3.108c1.05.705,2.15-1.033,2.15-1.033a24.447,24.447,0,0,1-2.018,5.156c-.322.982.6.909.6.909a19.348,19.348,0,0,0,2.361-4.2,47.5,47.5,0,0,1-1.765,4.844c-.119.854.737.612.737.612,1.761-1.042,2.347-4.845,2.347-4.845a27.419,27.419,0,0,1-1.313,4.406c.2.586.49.386.49.386,1.523-.611,2.074-4.274,2.074-4.274l-.242,1.366c-.5,1.841.643,1.366.643,1.366l.411-.922a11.131,11.131,0,0,0,.84-5.382l-.008-3.312Z" transform="translate(-3052.568 -756.291)" fill="#f39672"/>
          <g id="Grupo_60222" data-name="Grupo 60222">
            <path id="Trazado_117011" data-name="Trazado 117011" d="M3010.458,416.293l1.913.223s7.5,23.875,6.091,29.3-4.175.653-5.19.276-13.023-26.227-13.023-26.227Z" transform="translate(-2999.626 -411.21)" fill="#f39672"/>
            <path id="Trazado_117012" data-name="Trazado 117012" d="M3003.636,408.776c4.461,1.356,12.164-5.354,12.164-5.354l-6.385-21.308s-.936-4.383-6.88-4.058a7.631,7.631,0,0,0-6.974,7.686Z" transform="translate(-2995.561 -378.039)" fill="url(#linear-gradient-2)"/>
          </g>
        </g>
        <path id="Trazado_117013" data-name="Trazado 117013" d="M2895.15,263.578v10.235h-10.824a14.208,14.208,0,0,0,1.33-10.235Z" transform="translate(-2853.297 -234.148)" fill="#f39672"/>
        <path id="Trazado_117014" data-name="Trazado 117014" d="M2893.5,272.269c-.976.628-3.048,1.964-4.231,1.182a1.111,1.111,0,0,1-.514-.793,15,15,0,0,0,.742-9.08h9.493v.928C2897.8,267.5,2896.284,270.473,2893.5,272.269Z" transform="translate(-2857.141 -234.148)" fill="#db765e"/>
        <g id="Grupo_60224" data-name="Grupo 60224" transform="translate(28.179 8.71)">
          <path id="Trazado_117015" data-name="Trazado 117015" d="M2931.045,128.761s1.86-.757,4.05-5.266c0,0,4.652-5.286,1.584-11.478,0,0-1.777-5.218-11-3.982C2925.683,108.035,2924.537,121.883,2931.045,128.761Z" transform="translate(-2917.352 -107.817)" fill="#f3906b"/>
          <path id="Trazado_117016" data-name="Trazado 117016" d="M2865.807,131.085l-.576-1.618s-1.553-6.008-1.553-6.009a6.16,6.16,0,0,1-.03-2.529,6.211,6.211,0,0,0,.084-2.6c-.968-4.318,1.288-6.7,1.288-6.7,2.519-3.993,8.49-3.989,8.49-3.989,7.384.362,8.006,7.508,8.006,7.508,1.2,4.752-2.581,8.711-2.588,8.718-.3.316-.147,1.881-.238,2.326-.39,1.9-2.2,3.063-3.812,3.866a17.748,17.748,0,0,1-5.88,2C2868.25,132.124,2866.137,132.013,2865.807,131.085Z" transform="translate(-2863.491 -107.635)" fill="#f39672"/>
        </g>
        <path id="Trazado_117017" data-name="Trazado 117017" d="M2888.168,198.051l2.042.673s-2.694.3-2.837-.476c0,0,.331-1.552.7-3.025C2888.074,195.223,2887.866,197.951,2888.168,198.051Z" transform="translate(-2855.844 -174.875)" fill="#e47a5d"/>
        <g id="Grupo_60225" data-name="Grupo 60225" transform="translate(28.346 17.443)">
          <path id="Trazado_117018" data-name="Trazado 117018" d="M2918.575,188.742c.021.423.273.753.559.739s.5-.368.481-.791-.271-.754-.558-.74S2918.554,188.32,2918.575,188.742Z" transform="translate(-2911.259 -186.012)" fill="#341e13"/>
          <path id="Trazado_117019" data-name="Trazado 117019" d="M2874.865,186.106c.021.423.272.753.559.738s.5-.368.48-.791-.271-.754-.558-.74S2874.843,185.682,2874.865,186.106Z" transform="translate(-2873.356 -183.725)" fill="#341e13"/>
          <path id="Trazado_117020" data-name="Trazado 117020" d="M2912.131,176.888c-.185.048-.243-.2-.243-.2a.877.877,0,0,1-.011-.45.437.437,0,0,1,.211-.237,6.317,6.317,0,0,1,2.227.177c.446.108,1.174.4,1.241.8.019.12.042.329-.094.372A18.054,18.054,0,0,0,2912.131,176.888Z" transform="translate(-2905.431 -175.616)" fill="#341e13"/>
          <path id="Trazado_117021" data-name="Trazado 117021" d="M2863.618,174.31a15.667,15.667,0,0,1,2.595.14c.174.079.274-.155.274-.155a.876.876,0,0,0,.089-.441.435.435,0,0,0-.166-.27,4.711,4.711,0,0,0-1.929-.2,3.791,3.791,0,0,0-.955.178A1.846,1.846,0,0,0,2863.618,174.31Z" transform="translate(-2863.518 -173.364)" fill="#341e13"/>
        </g>
        <g id="Grupo_60226" data-name="Grupo 60226" transform="translate(30.613 25.572)">
          <path id="Trazado_117022" data-name="Trazado 117022" d="M2880.657,234.543c-.164.007-.248.088-.181.2a2.474,2.474,0,0,0,4.3.3c.095-.116,0-.223-.2-.239C2884.572,234.808,2882.381,234.64,2880.657,234.543Z" transform="translate(-2880.453 -234.543)" fill="#fff"/>
        </g>
        <path id="Trazado_117023" data-name="Trazado 117023" d="M2807.172,360.341c-.021,1.053,1.576,12.065.905,12.205,0,0-18.27,4.21-28.011,0l-.04-11.347-5.17-31.594s-1.781-4.749,1.781-7.124l13.578-6.381-.917,2.752,1.964,5.583,8.528-8.335,16.323,9.646q-1.369,4.534-2.731,9.069c-1.683,5.573-3.32,11.161-5.053,16.719C2808.33,351.535,2806.894,357.563,2807.172,360.341Z" transform="translate(-2758.615 -279.693)" fill="url(#linear-gradient-2)"/>
        <path id="Trazado_117024" data-name="Trazado 117024" d="M2910.1,331.051l.114,5.086,1.874-1.832Z" transform="translate(-2875.606 -292.656)" fill="#a7b3cf"/>
        <path id="Trazado_117025" data-name="Trazado 117025" d="M2872.038,306.489a7.611,7.611,0,0,1,3.251-3.93l-.354,7.343S2873.438,306.145,2872.038,306.489Z" transform="translate(-2842.505 -267.95)" fill="url(#linear-gradient-2)"/>
        <path id="Trazado_117026" data-name="Trazado 117026" d="M2870.186,335.4l.246-3.413c.824-.2,1.56.952,2.162,1.9Z" transform="translate(-2840.884 -293.445)" fill="#a7b3cf"/>
        <g id="Grupo_60227" data-name="Grupo 60227" transform="translate(32.165 45.872)">
          <path id="Trazado_117027" data-name="Trazado 117027" d="M2892.147,388.05a.726.726,0,1,0,.726-.726A.726.726,0,0,0,2892.147,388.05Z" transform="translate(-2892.147 -387.324)" fill="#a7b3cf"/>
        </g>
        <g id="Grupo_60228" data-name="Grupo 60228" transform="translate(32.165 59.051)">
          <path id="Trazado_117028" data-name="Trazado 117028" d="M2892.147,487.242a.726.726,0,1,0,.726-.726A.726.726,0,0,0,2892.147,487.242Z" transform="translate(-2892.147 -486.516)" fill="#d2eae6"/>
        </g>
        <g id="Grupo_60229" data-name="Grupo 60229" transform="translate(32.165 58.398)">
          <path id="Trazado_117029" data-name="Trazado 117029" d="M2892.147,586.437a.726.726,0,1,0,.726-.726A.726.726,0,0,0,2892.147,586.437Z" transform="translate(-2892.147 -571.878)" fill="#a7b3cf"/>
          <path id="Trazado_150602" data-name="Trazado 150602" d="M2892.147,586.437a.726.726,0,1,0,.726-.726A.726.726,0,0,0,2892.147,586.437Z" transform="translate(-2892.147 -585.711)" fill="#a7b3cf"/>
        </g>
        <g id="Grupo_60230" data-name="Grupo 60230" transform="translate(32.165 85.41)">
          <path id="Trazado_117030" data-name="Trazado 117030" d="M2892.147,685.628a.726.726,0,1,0,.726-.725A.726.726,0,0,0,2892.147,685.628Z" transform="translate(-2892.147 -684.902)" fill="#a7b3cf"/>
        </g>
        <g id="Grupo_60232" data-name="Grupo 60232" transform="translate(21.74 90.509)">
          <path id="Trazado_117031" data-name="Trazado 117031" d="M2815.139,726.666s9.33,4.37,28.422-.1c.314-.074.182-.889.182-.889l-.182-1.838c-.083-.589-.412-.561-.412-.561s-18.27,4.21-28.011,0c0,0-.393-.068-.41.521v2.292A.606.606,0,0,0,2815.139,726.666Z" transform="translate(-2814.729 -723.279)" fill="#3d1a0c"/>
          <g id="Grupo_60231" data-name="Grupo 60231" transform="translate(9.887 1.57)">
            <path id="Trazado_117032" data-name="Trazado 117032" d="M2889.143,738.3a.522.522,0,0,0,.515.527h3.716a.521.521,0,0,0,.514-.527v-2.677a.521.521,0,0,0-.514-.527h-3.716a.521.521,0,0,0-.515.527Z" transform="translate(-2889.143 -735.098)" fill="none" stroke="#bababa" stroke-miterlimit="10" stroke-width="4.837"/>
            <line id="Línea_211" data-name="Línea 211" x1="1.967" transform="translate(2.779 1.697)" fill="none" stroke="#bababa" stroke-miterlimit="10" stroke-width="4.837"/>
          </g>
        </g>
        <path id="Trazado_117033" data-name="Trazado 117033" d="M2910.1,299.889s5.99-2.326,7.4-4.643l1.77,3.373-6.315,6.055L2910.1,300" transform="translate(-2875.704 -261.609)" fill="url(#linear-gradient-2)"/>
        <path id="Trazado_117034" data-name="Trazado 117034" d="M2858.795,89.638s-3.344-2.933-1.8-5.372a8.726,8.726,0,0,1,7.6-2.219c4.94.734,4.878-.639,8.743,1.329s4.547,1.578,5.413,5.332a11.037,11.037,0,0,1-.286,7c-.614,2.129-1.36,6.5-5.469,8.97,0,0,2.792-6.263-1.833-4.825l-.5-.041s1.082-3.223-.967-4.874c1.018-1.248.273-3.808.08-4.176-.969-1.851-3.906-1.139-5.6-1.662C2862.862,88.692,2859.589,88.059,2858.795,89.638Z" transform="translate(-2829.344 -76.635)" fill="#341e13"/>
        <g id="Grupo_60241" data-name="Grupo 60241" transform="translate(41.739 21.161)">
          <g id="Grupo_60237" data-name="Grupo 60237">
            <g id="Grupo_60236" data-name="Grupo 60236">
              <g id="Grupo_60235" data-name="Grupo 60235">
                <g id="Grupo_60234" data-name="Grupo 60234">
                  <g id="Grupo_60233" data-name="Grupo 60233">
                    <path id="Trazado_117035" data-name="Trazado 117035" d="M2966.828,205.789a1.643,1.643,0,0,0,1.032.4,2.4,2.4,0,0,0,2.35-2.3,2.2,2.2,0,0,0-1.91-2.534,2.075,2.075,0,0,0-1.5.563,2.988,2.988,0,0,0-.619,2.4A2.248,2.248,0,0,0,2966.828,205.789Z" transform="translate(-2966.154 -201.343)" fill="#f39672"/>
                  </g>
                </g>
              </g>
            </g>
          </g>
          <g id="Grupo_60240" data-name="Grupo 60240" transform="translate(1.192 0.78)">
            <g id="Grupo_60238" data-name="Grupo 60238" transform="translate(0.377)">
              <path id="Trazado_117036" data-name="Trazado 117036" d="M2977.979,207.649c.118-.7,1.491.072,1.25.453a2.182,2.182,0,0,1-.608.514,1.039,1.039,0,0,0-.49.737c-.008.041-.023.162.015.194.176.141.824-.5.967-.639a1.176,1.176,0,0,0,.249-1.111.706.706,0,0,0-.744-.582c-.318,0-.646,0-.655.394,0,.008.01.075.016.04Z" transform="translate(-2977.963 -207.214)" fill="#e47a5d"/>
            </g>
            <g id="Grupo_60239" data-name="Grupo 60239" transform="translate(0 1.116)">
              <path id="Trazado_117037" data-name="Trazado 117037" d="M2975.924,215.694c-.138-.159-.287-.046-.446.053a.666.666,0,0,0-.284.4,1.652,1.652,0,0,0,.1,1.184.889.889,0,0,0,.735.46c.429.017.582-.352.623-.713.012-.1.036-.326-.055-.392s-.181.083-.254.146a.6.6,0,0,1-.372.111.773.773,0,0,1-.618-.328.407.407,0,0,1-.057-.115c-.016.237-.008.291.026.161a.685.685,0,0,1,.093-.161c.11-.157.286-.258.407-.406.058-.068.174-.316.106-.4Z" transform="translate(-2975.127 -215.614)" fill="#e47a5d"/>
            </g>
          </g>
        </g>
        <path id="Trazado_117038" data-name="Trazado 117038" d="M2879.917,220.009l-.657-3.477-.5-.041a3.913,3.913,0,0,1-3.342,2.653s-1.177.158-1.68.216c-.066.008-.777-.72-.869-.783a5.678,5.678,0,0,0-2.7-.786,6.709,6.709,0,0,0-2.906.132c-.123.044-1.309.619-1.344.452,0,0,1.146,5.518,1.994,7.1,0,0,.361,1.216,3.191.97a16.065,16.065,0,0,0,8.684-3.789C2880.421,222.2,2879.917,220.009,2879.917,220.009Zm-12.655-.457c.121-.57.15-.93.641-1.011a9.957,9.957,0,0,1,2.986.161c.777.113,1.741.23,2.044,1.087a3.313,3.313,0,0,1-.363,2.518,3.158,3.158,0,0,1-3.931.933A4.466,4.466,0,0,1,2867.261,219.552Z" transform="translate(-2837.321 -193.318)" fill="#341e13"/>
        <path id="Trazado_117039" data-name="Trazado 117039" d="M2889.836,250.049c.217.31-.311.623-.511.749-.4.25-.461.23-.839-.116-.247-.227-.895-.794-.3-.965A4.639,4.639,0,0,1,2889.836,250.049Z" transform="translate(-2856.33 -222.122)" fill="#341e13"/>
        <path id="Trazado_117040" data-name="Trazado 117040" d="M2728.76,853.943s-2.282-3.279-5.369-3.435c0,0-3.941.481-2.961,2.183C2720.429,852.691,2721.665,856.359,2728.76,853.943Z" transform="translate(-2710.463 -743.094)" fill="#e28262"/>
        <g id="Grupo_60246" data-name="Grupo 60246" transform="translate(25.19)">
          <path id="Trazado_117041" data-name="Trazado 117041" d="M2842.124,59.436a10.16,10.16,0,0,1-.106-1.442c0-6.092,5.362-11.031,11.974-11.031s11.973,4.939,11.973,11.031a10.306,10.306,0,0,1-.1,1.442s-.025,4.759-16.379,4.326C2849.48,63.763,2837.247,62.931,2842.124,59.436Z" transform="translate(-2840.975 -46.314)" fill="#fff"/>
          <path id="Trazado_117042" data-name="Trazado 117042" d="M2847.645,59.436a10.062,10.062,0,0,1,.237-4.061,2.574,2.574,0,0,0,.984,1.916,4.043,4.043,0,0,0,2.468.721,2.8,2.8,0,0,0,2.128-.852,4.654,4.654,0,0,0,.756-2.342,44.015,44.015,0,0,1,1.442-6.308,7.97,7.97,0,0,0,.6-1.135,12.93,12.93,0,0,1,5.263-.254,8.292,8.292,0,0,0-1.605,3.375,22.658,22.658,0,0,0-.518,3.348,7.654,7.654,0,0,0,.057,3.029,2.6,2.6,0,0,0,2.083,1.842,6.887,6.887,0,0,0,3.65-.388,4.488,4.488,0,0,0,2.589-2.08,4.421,4.421,0,0,0,.186-3.381,11.366,11.366,0,0,0-3.8-5.038,11.063,11.063,0,0,1,7.315,10.165,10.2,10.2,0,0,1-.105,1.442s-.02,3.633-10.934,4.262a1.223,1.223,0,0,0,.451-.662c.445-1.857-2.677-1.952-4.127-2.047-1.526-.1-3.051-.331-4.569-.5a29.813,29.813,0,0,1-4.858-.825C2847.436,59.593,2847.534,59.516,2847.645,59.436Z" transform="translate(-2846.496 -46.314)" fill="#e8e8e8"/>
          <g id="Grupo_60242" data-name="Grupo 60242" transform="translate(1.149 13.122)">
            <path id="Trazado_117043" data-name="Trazado 117043" d="M2870.308,141.393s-.313.092-.873.2c-.28.052-.619.137-1.012.195s-.835.137-1.32.2-1.013.109-1.572.172c-.56.044-1.148.141-1.76.139l-1.888.056c-.644.035-1.3.005-1.95-.014l-1.948-.09c-.643-.024-1.27-.132-1.879-.191s-1.2-.146-1.752-.219a14.462,14.462,0,0,1-1.556-.28c-.96-.2-1.752-.394-2.308-.517l-.87-.209.889.118c.563.085,1.371.187,2.332.344a14.187,14.187,0,0,0,1.558.2c.557.045,1.143.089,1.747.153.606.048,1.228.145,1.866.158l1.934.059c.647.03,1.295.071,1.934.046l1.874-.024c.609,0,1.193-.055,1.751-.072.557-.034,1.086-.038,1.57-.092s.93-.084,1.325-.114.736-.082,1.02-.112C2869.986,141.444,2870.308,141.393,2870.308,141.393Z" transform="translate(-2849.62 -140.84)" fill="#d2d1d1"/>
          </g>
          <path id="Trazado_117044" data-name="Trazado 117044" d="M2842.124,59.436a10.16,10.16,0,0,1-.106-1.442c0-6.092,5.362-11.031,11.974-11.031s11.973,4.939,11.973,11.031a10.306,10.306,0,0,1-.1,1.442s-.025,4.759-16.379,4.326C2849.48,63.763,2837.247,62.931,2842.124,59.436Z" transform="translate(-2840.975 -46.314)" fill="none" stroke="#bababa" stroke-miterlimit="10" stroke-width="1"/>
          <g id="Grupo_60245" data-name="Grupo 60245" transform="translate(7.517)">
            <path id="Trazado_117045" data-name="Trazado 117045" d="M2899.571,56.234c-1.562-8.673,1.648-13.227,1.648-13.227.435-.763,2.072-.925,2.072-.925h1.905c2.5.072,1.691,1.2,1.691,1.2s-3.6,4.026-3.5,13.233Z" transform="translate(-2898.931 -42.082)" fill="#e4e3e3"/>
            <g id="Grupo_60243" data-name="Grupo 60243" transform="translate(4.23 0.925)">
              <path id="Trazado_117046" data-name="Trazado 117046" d="M2933.323,49.043a16.9,16.9,0,0,0-1.134,1.922c-.164.291-.306.624-.475.965-.144.354-.317.717-.463,1.107s-.3.789-.437,1.2c-.151.409-.262.838-.381,1.264s-.206.86-.311,1.284-.153.851-.228,1.26-.1.811-.152,1.19-.059.74-.081,1.073-.052.64-.045.912,0,.51,0,.705c-.007.393-.01.618-.01.618l-.081-.612c-.024-.2-.052-.433-.083-.706a8.193,8.193,0,0,1-.047-.921c0-.338-.028-.706,0-1.094s.023-.8.083-1.22.1-.858.192-1.295.171-.884.3-1.318.247-.872.406-1.29c.14-.424.315-.827.486-1.215s.366-.751.538-1.1c.2-.335.366-.661.553-.944a12.688,12.688,0,0,1,.953-1.328A6.052,6.052,0,0,1,2933.323,49.043Z" transform="translate(-2929.38 -49.043)" fill="#d2d1d1"/>
            </g>
            <g id="Grupo_60244" data-name="Grupo 60244" transform="translate(0 0.925)">
              <path id="Trazado_117047" data-name="Trazado 117047" d="M2899.836,49.043s-.1.188-.259.524c-.075.17-.167.374-.258.616s-.182.517-.295.812c-.091.3-.206.625-.289.978s-.175.722-.26,1.107-.137.789-.219,1.194c-.052.41-.113.826-.152,1.245s-.082.837-.093,1.251-.04.822-.036,1.217.007.778.006,1.141c.019.363.036.706.052,1.023.023.635.084,1.163.113,1.534s.042.586.042.586l-.133-.571a15.265,15.265,0,0,1-.288-1.521c-.041-.319-.085-.664-.131-1.029-.028-.367-.06-.755-.08-1.156s-.007-.818,0-1.241.052-.851.078-1.28c.046-.427.113-.853.173-1.272.086-.415.157-.826.266-1.215a11.018,11.018,0,0,1,.337-1.113c.112-.352.255-.672.37-.972a10.981,10.981,0,0,1,.721-1.377A5.055,5.055,0,0,1,2899.836,49.043Z" transform="translate(-2897.546 -49.043)" fill="#d2d1d1"/>
            </g>
          </g>
        </g>
        <path id="Trazado_117048" data-name="Trazado 117048" d="M2938.4,332.016s-8.105,13.513-8.105,23.236a404.731,404.731,0,0,0,.9,40.593,59.186,59.186,0,0,0,13.926-1.65l-2.157-18.285s-.112-10.466,3.052-18l5.13-18.361Z" transform="translate(-2893.647 -293.493)" fill="#db8804"/>
        <path id="Trazado_117049" data-name="Trazado 117049" d="M2785.577,331.051l-9.465,4.36A4.53,4.53,0,0,0,2774,340.24l5.356,34.8-1.027,19.978a68.738,68.738,0,0,0,8.349.235c-.939-38.841-.99-38.839-1.358-46.731A166.06,166.06,0,0,1,2785.577,331.051Z" transform="translate(-2757.209 -292.656)" fill="#db8804"/>
        <g id="Grupo_60247" data-name="Grupo 60247" transform="translate(18.113 59.051)">
          <path id="Trazado_117050" data-name="Trazado 117050" d="M2871.657,535.555c-.051,2.75-.092,6.852-.036,11.851h-8.663c-.143-5.513-.246-9.15-.334-11.851Z" transform="translate(-2852.668 -529.039)" fill="none"/>
          <path id="Trazado_117051" data-name="Trazado 117051" d="M2930.709,489.224a21.273,21.273,0,0,1,.188-2.708h17.032l-1.5,5.365c-.159.376-.306.761-.447,1.151h-15.37C2930.657,490.6,2930.709,489.224,2930.709,489.224Z" transform="translate(-2911.623 -486.516)" fill="#f7b242"/>
          <path id="Trazado_117052" data-name="Trazado 117052" d="M2943.366,624.75c-.252,2.943-.23,5-.23,5l.179,1.517h-12.859c-.061-2.3-.1-4.482-.122-6.515Z" transform="translate(-2911.382 -606.383)" fill="#f7b242"/>
          <path id="Trazado_117053" data-name="Trazado 117053" d="M2788.7,493.032l-1-6.516h9.7c.087,1.879.161,3.688.252,6.516Z" transform="translate(-2787.698 -486.516)" fill="#f7b242"/>
          <path id="Trazado_117054" data-name="Trazado 117054" d="M2808.976,624.75h7.462c.05,1.928.1,4.087.166,6.515h-6.943l.08-1.55Z" transform="translate(-2806.148 -606.383)" fill="#f7b242"/>
        </g>
      </g>
    </g>
  </g>
</svg>
