<svg xmlns="http://www.w3.org/2000/svg" xmlns:xlink="http://www.w3.org/1999/xlink" width="222.94" height="222.945" viewBox="0 0 222.94 222.945">
  <defs>
    <radialGradient id="radial-gradient" cx="0.076" cy="0.019" r="1.465" gradientTransform="translate(0)" gradientUnits="objectBoundingBox">
      <stop offset="0" stop-color="#f6f6f7"/>
      <stop offset="0.477" stop-color="#f9f9fa"/>
      <stop offset="0.715" stop-color="#fff"/>
    </radialGradient>
  </defs>
  <g id="Grupo_134262" data-name="Grupo 134262" transform="translate(-380.108 -741.742)">
    <g id="Grupo_18421" data-name="Grupo 18421" transform="translate(380.108 741.742)">
      <g id="Grupo_18420" data-name="Grupo 18420">
        <g id="Grupo_18419" data-name="Grupo 18419">
          <path id="Trazado_40936" data-name="Trazado 40936" d="M417.562,2257.189a111.47,111.47,0,1,1-111.468-111.468A111.468,111.468,0,0,1,417.562,2257.189Z" transform="translate(-194.623 -2145.721)" fill="#fff"/>
        </g>
      </g>
    </g>
    <path id="Trazado_40937" data-name="Trazado 40937" d="M415.569,2255.017A111.467,111.467,0,1,0,304.1,2366.492,111.031,111.031,0,0,0,415.569,2255.017Z" transform="translate(187.479 -1401.805)" fill="url(#radial-gradient)"/>
    <path id="Trazado_40938" data-name="Trazado 40938" d="M389.579,2246.181a94.349,94.349,0,1,0-94.349,94.35A94.011,94.011,0,0,0,389.579,2246.181Z" transform="translate(196.568 -1392.727)" fill="none" stroke="#008f85" stroke-miterlimit="10" stroke-width="5"/>
    <g id="Grupo_18422" data-name="Grupo 18422" transform="translate(399.856 804.325)">
      <path id="Trazado_40939" data-name="Trazado 40939" d="M392.465,2164.488A111.483,111.483,0,0,1,200.545,2275.5a111.8,111.8,0,0,0,11.094,14.849,111.485,111.485,0,0,0,180.826-125.859Z" transform="translate(-200.545 -2164.488)" fill="#eceef0"/>
    </g>
    <g id="w1LOms" transform="translate(-4780.071 -904.932)">
      <g id="Grupo_117565" data-name="Grupo 117565" transform="translate(5221.803 1709.257)">
        <path id="Trazado_157841" data-name="Trazado 157841" d="M5273.015,1810.141q-24.018,0-48.037,0c-3.05,0-3.363-.383-3.1-3.437.72-8.368,1.466-16.733,2.1-25.108a10.382,10.382,0,0,1,5.2-8.721c5.631-3.422,11.151-7.023,16.758-10.485a3.117,3.117,0,0,0,1.682-2.744c.622-10.773,1.419-21.536,1.942-32.314.521-10.753,8-18.07,18.79-18.018,4.342.021,8.742-.274,13.013.314,8.872,1.221,14.724,8.251,15.191,17.163.573,10.919,1.4,21.825,1.994,32.743a3.423,3.423,0,0,0,1.951,3.025c5.594,3.479,11.128,7.057,16.741,10.5a9.614,9.614,0,0,1,4.846,7.777q1.134,13.092,2.205,26.19c.223,2.774-.146,3.112-3.019,3.113Q5297.144,1810.145,5273.015,1810.141Zm47.482-3.465a10.053,10.053,0,0,0,.083-1.179q-.971-12.235-1.968-24.467a6.336,6.336,0,0,0-3.282-5.067c-6.094-3.776-12.167-7.581-18.166-11.5a4.34,4.34,0,0,1-1.866-2.8c-.834-11.7-1.517-23.417-2.224-35.13-.417-6.882-5.165-12.529-12.009-13.42-4.352-.566-8.812-.333-13.225-.341a14.456,14.456,0,0,0-14.777,14.026c-.694,11.494-1.446,22.985-2.084,34.483a3.669,3.669,0,0,1-1.978,3.275c-5.729,3.536-11.32,7.3-17.13,10.7a8.414,8.414,0,0,0-4.519,7.547c-.231,4.7-.775,9.377-1.154,14.066-.259,3.205-.464,6.415-.7,9.677h17.478v-2.461c0-4.2-.019-8.406.02-12.608.014-1.3-.437-3.12,1.653-3.131,2.2-.011,1.776,1.864,1.792,3.25.035,3.188.01,6.376.01,9.565v5.382h24.392a5.42,5.42,0,0,0,.206-.948q.023-15.76.007-31.52a1.919,1.919,0,0,0-.474-1.319c-1.081-.945-4.731-1.035-5.955-.248a7.636,7.636,0,0,1-9.573-.994c-2.427-2.527-3.12-6.825-.8-9.335a7.287,7.287,0,0,0,1.937-6.751,7.7,7.7,0,0,1,0-1.736c.14-1.921,1.028-2.52,2.893-1.891,3.016,1.017,6.018,2.079,9.024,3.125a13.827,13.827,0,0,0,9.568-.1c3.331-1.217,6.656-2.438,10.006-3.591,2.1-.721,3.07-.054,3.08,2.147.009,1.731-.279,3.464-.249,5.193a4.322,4.322,0,0,0,.723,2.5c2.551,3.2,2.665,7.26.134,10.135-2.611,2.963-6.754,3.378-10.234,1.074a2.631,2.631,0,0,0-1.667-.558c-1.6.311-3.173.823-4.7,1.244a4.765,4.765,0,0,0-.155.77c-.009,10.435.016,20.869-.047,31.3-.008,1.642.84,1.669,2.046,1.664,7.029-.028,14.059-.01,21.086-.021.624,0,1.247-.092,1.986-.15,0-5.269,0-10.336,0-15.4,0-1.344-.045-2.825,1.846-2.8,1.839.025,1.609,1.522,1.615,2.734.019,4.565.008,9.13.019,13.7,0,.93-.178,1.947,1.318,1.939C5309.759,1806.658,5315.035,1806.676,5320.5,1806.676Zm-60.681-51.409c-.218,2.375-.088,3.444,2.021,3.641a7.1,7.1,0,0,1,6.072,6.656c.222,3.061.448,3.381,3.547,3.641a32.041,32.041,0,0,0,4.521-.184c1.74-.1,2.411-.858,2.308-2.766a7.113,7.113,0,0,1,5.351-7.26,23.813,23.813,0,0,1,3.334-.379c.108-1.087.212-2.116.392-3.935C5278.083,1759.642,5269.1,1760.913,5259.816,1755.267Zm-3.362,10.968a4,4,0,1,0,3.953-4A3.885,3.885,0,0,0,5256.454,1766.235Zm33.225.065a3.87,3.87,0,0,0-3.865-4.077,4.014,4.014,0,1,0-.108,8.026A3.8,3.8,0,0,0,5289.679,1766.3Z" transform="translate(-5221.804 -1709.257)" fill="#1d272b"/>
        <path id="Trazado_157842" data-name="Trazado 157842" d="M5316.339,1763.664c4.268,0,8.537.008,12.805,0,4.115-.01,5.2,1.031,5.211,5.07.005,2.1.058,4.2-.024,6.294-.1,2.52-1.305,3.68-3.816,3.715-3.184.044-6.37.079-9.549-.023a5.188,5.188,0,0,1-2.809-.864,2.719,2.719,0,0,0-3.844.088,3.848,3.848,0,0,1-2.185.766c-3.544.075-7.091.087-10.633,0a3,3,0,0,1-3.173-3.154c-.094-2.89-.114-5.789.01-8.677.089-2.125,1.437-3.139,4.115-3.176,4.63-.064,9.261-.018,13.891-.018Zm-14.554,11.631c2.116,0,3.988-.056,5.855.013,2.638.1,5.162.062,7.367-1.819a2.649,2.649,0,0,1,2.537,0c4.106,3.266,8.727,1.215,13.176,1.855V1767.4h-28.935Z" transform="translate(-5265.001 -1740.001)" fill="#008f85"/>
      </g>
    </g>
  </g>
</svg>
