<svg xmlns="http://www.w3.org/2000/svg" xmlns:xlink="http://www.w3.org/1999/xlink" width="114.636" height="114.635" viewBox="0 0 114.636 114.635">
  <defs>
    <radialGradient id="radial-gradient" cx="0.076" cy="0.019" r="1.465" gradientTransform="translate(0.001)" gradientUnits="objectBoundingBox">
      <stop offset="0" stop-color="#f6f6f7"/>
      <stop offset="0.477" stop-color="#f9f9fa"/>
      <stop offset="0.715" stop-color="#fff"/>
    </radialGradient>
  </defs>
  <g id="Grupo_134256" data-name="Grupo 134256" transform="translate(-324.764 -849)">
    <g id="Grupo_18420" data-name="Grupo 18420" transform="translate(324.764 849)">
      <g id="Grupo_18419" data-name="Grupo 18419">
        <path id="Trazado_40936" data-name="Trazado 40936" d="M309.259,2203.037a57.318,57.318,0,1,1-57.317-57.316A57.317,57.317,0,0,1,309.259,2203.037Z" transform="translate(-194.623 -2145.721)" fill="#fff"/>
      </g>
    </g>
    <path id="Trazado_40937" data-name="Trazado 40937" d="M308.648,2202.372a57.316,57.316,0,1,0-57.317,57.319A57.091,57.091,0,0,0,308.648,2202.372Z" transform="translate(130.751 -1296.056)" fill="url(#radial-gradient)"/>
    <path id="Trazado_40938" data-name="Trazado 40938" d="M289.672,2196.986a43.75,43.75,0,1,0-43.75,43.75A43.587,43.587,0,0,0,289.672,2196.986Z" transform="translate(136.334 -1290.479)" fill="none" stroke="#1d272d" stroke-miterlimit="10" stroke-width="4"/>
    <path id="Trazado_40939" data-name="Trazado 40939" d="M299.231,2164.488a57.325,57.325,0,0,1-98.686,57.081,57.143,57.143,0,0,0,98.686-57.081Z" transform="translate(134.373 -1283.309)" fill="#eceef0"/>
    <path id="Trazado_173888" data-name="Trazado 173888" d="M1028.439-197.764c-1.178.592-2.271,1.256-3.446,1.707-2.281.876-4.6,1.661-6.918,2.431a72.5,72.5,0,0,0-8.457,3.227,3.384,3.384,0,0,1-3.855-.774,13.585,13.585,0,0,1-3.06-4.007,33.788,33.788,0,0,1-3.976-12.4,23.2,23.2,0,0,1,.793-10.075,14.54,14.54,0,0,1,7.691-8.83,33.247,33.247,0,0,1,10.539-3.178c1.626-.215,3.268-.3,5-.459v-1.874c0-1.735,0-3.47,0-5.2,0-.76-.034-1.52-.03-2.28a1.794,1.794,0,0,1,1.818-1.831,1.79,1.79,0,0,1,1.835,1.818c.01,3.1,0,6.21,0,9.315v.428c1.02.314,2.033.553,2.987.936a7.007,7.007,0,0,1,4.3,3.8,14.19,14.19,0,0,1,.864,3.074,29.985,29.985,0,0,1-.971,13.293c-.09.3-.189.591-.3.879a1.835,1.835,0,0,1-2.319,1.091,1.827,1.827,0,0,1-1.132-2.374,25.172,25.172,0,0,0,1.367-8.729,20.97,20.97,0,0,0-.5-4.754,3.658,3.658,0,0,0-2.029-2.561,10.249,10.249,0,0,0-3.647-1.028,29.6,29.6,0,0,0-15.614,2.661,11.612,11.612,0,0,0-6.973,9.721,26.646,26.646,0,0,0,1.347,11.681,24.719,24.719,0,0,0,3.323,6.877,9.108,9.108,0,0,0,.986,1.111.484.484,0,0,0,.431.1,104.482,104.482,0,0,1,11.48-4.143,25.761,25.761,0,0,0,6.08-2.636,9.244,9.244,0,0,0,2.7-2.589,1.809,1.809,0,0,1,2.085-.724,1.8,1.8,0,0,1,1.293,1.784c0,3.633.007,7.265,0,10.9a1.829,1.829,0,0,1-2.652,1.68,1.846,1.846,0,0,1-1.045-1.826q0-2.864,0-5.729Z" transform="translate(-645.343 1122.499)" fill="#1d272b"/>
    <path id="Trazado_173889" data-name="Trazado 173889" d="M1376.127-230.717c2.2-.113,4.351-.282,6.5-.32a26.545,26.545,0,0,1,8.189.951,6.581,6.581,0,0,1,2.633,1.338,2.6,2.6,0,0,1,.374,3.679,21.545,21.545,0,0,0-2.609,4.59,41.725,41.725,0,0,1-5.672,9.2,27.127,27.127,0,0,1-9.032,6.965.582.582,0,0,0-.393.623q.013,6.125,0,12.25a1.74,1.74,0,0,1-1.073,1.7,1.762,1.762,0,0,1-2.029-.329,1.867,1.867,0,0,1-.588-1.464q.014-6.334.029-12.668c0-.31.01-.621,0-.931a1.916,1.916,0,0,1,1.334-2.008,23.156,23.156,0,0,0,5.849-3.493,25.76,25.76,0,0,0,5.274-5.98,62.157,62.157,0,0,0,3.621-6.808c.5-1.027,1.062-2.025,1.646-3.132-1.017-.187-2.039-.424-3.075-.555a35.559,35.559,0,0,0-8.453-.078c-1.673.188-3.33.542-4.986.86a1.863,1.863,0,0,1-2.236-1.324,1.769,1.769,0,0,1,.683-1.933.756.756,0,0,0,.354-.726q-.034-4.517-.035-9.035a1.873,1.873,0,0,1,1.249-1.924,1.825,1.825,0,0,1,2.438,1.717c.014,2.795.008,5.59.01,8.384C1376.127-231,1376.127-230.832,1376.127-230.717Z" transform="translate(-983.457 1122.559)" fill="#1d272b"/>
    <path id="Trazado_173890" data-name="Trazado 173890" d="M1064.093-32.32a9.728,9.728,0,0,1,1.731-5.4,10.314,10.314,0,0,1,5.3-3.805,16.893,16.893,0,0,1,2.019-.521,1.814,1.814,0,0,1,2.132,1.349,1.858,1.858,0,0,1-1.324,2.238,17.928,17.928,0,0,0-2.8.939,5.939,5.939,0,0,0-3.4,5.693,1.972,1.972,0,0,1-.586,1.553,1.777,1.777,0,0,1-1.86.38,1.7,1.7,0,0,1-1.208-1.453A6.88,6.88,0,0,1,1064.093-32.32Z" transform="translate(-704.802 941.835)" fill="#1d272b"/>
    <path id="Trazado_173891" data-name="Trazado 173891" d="M1323.4-235.765q0,1.815,0,3.63a1.855,1.855,0,0,1-1.835,1.983,1.872,1.872,0,0,1-1.865-1.962c-.005-2.436-.009-4.872,0-7.308a1.85,1.85,0,0,1,2.566-1.829,1.8,1.8,0,0,1,1.13,1.714c.006,1.257,0,2.513,0,3.77Z" transform="translate(-936.606 1122.581)" fill="#1d272b"/>
  </g>
</svg>
