<svg xmlns="http://www.w3.org/2000/svg" width="71.463" height="119.174" viewBox="0 0 71.463 119.174">
  <g id="Grupo_134257" data-name="Grupo 134257" transform="translate(-1141.522 -5720.13)">
    <path id="Trazado_170479" data-name="Trazado 170479" d="M6981.732-1144.751c-5.125,0-10,0-14.873,0-3.817,0-4.407.551-4.411,4.4q-.028,26.947.022,53.894c.006,2.069-.164,3.394-2.752,3.6-1.007.082-2.185,1.512-2.75,2.6a8.186,8.186,0,0,0-.42,3.583c-.027,10.107-.016,20.214-.016,30.53h-15.671c-.472-5.308-.94-10.574-1.408-15.84l-.379-.076a15.075,15.075,0,0,0-.395,1.763c-.425,4.074-.879,8.147-1.2,12.23-.13,1.662-.783,2.26-2.452,2.161-2.161-.129-4.334-.032-6.8-.032-.053-1.167-.139-2.171-.139-3.174q-.015-30.087-.008-60.173c0-7.617,4.771-12.379,12.389-12.419,2.529-.013,5.063-.1,7.585.028,1.614.084,2.334-.432,2.578-2.062.451-3.013.97-6.029,1.7-8.983a4.344,4.344,0,0,0-1.147-4.435,21.746,21.746,0,0,1-5.885-14.188c-.2-8.5,6.032-14.338,14.521-13.674,9.68.756,19.62,9.369,21.784,18.886A12.99,12.99,0,0,1,6981.732-1144.751Zm-49.952,95.131c3.206.377,2.384-2.029,2.53-3.325,1.31-11.6,2.458-23.221,3.75-34.824.1-.913.922-1.746,1.409-2.616a9.3,9.3,0,0,1,1.266,2.741c.775,7.979,1.423,15.97,2.129,23.956.413,4.666.86,9.328,1.292,13.99h8.776c.028-.609.066-1.039.065-1.469-.014-8.543-.049-17.086-.041-25.629,0-3.569.232-7.214,4-8.948,1.721-.792,1.96-1.776,1.958-3.378q-.059-27.462-.024-54.923c0-3.726.546-4.274,4.231-4.285,4.5-.013,8.995,0,13.581,0-2.233-6.71-10.454-12.818-17.382-13.124-6.515-.288-10.82,4-10.429,10.5.309,5.128,2.727,9.261,6.213,12.9a3.8,3.8,0,0,1,1.254,2.557c-.936,5.745-2.079,11.455-3.2,17.382-4.595,0-9.026-.044-13.456.016a7.16,7.16,0,0,0-6.883,4.193c1.28,0,2.213,0,3.147,0,4.534.008,9.07-.061,13.6.106.714.026,1.389,1.12,2.081,1.721a8.48,8.48,0,0,1-1.959,1.685,6.228,6.228,0,0,1-2.327.082c-5.131,0-10.262,0-15.5,0v2.535c2.542,0,4.9-.148,7.229.075.9.086,1.713,1.017,2.566,1.564-.865.618-1.683,1.67-2.6,1.768a69.416,69.416,0,0,1-7.274.085Z" transform="translate(-5786.553 6885.195)" fill="#1d272b"/>
    <path id="Trazado_170480" data-name="Trazado 170480" d="M6994.164-1063.094v-2.647q0-25.116,0-50.232c0-4.265.946-5.189,5.239-5.195,3.83-.005,7.66,0,11.755,0,.307,4.243-.662,8.1-4,10.512-2.571,1.858-3.017,3.926-2.778,6.639.082.937.013,1.888.013,3.237,3.755,0,7.307.234,10.817-.048,7.728-.621,13.521,5.167,13.376,13.421-.345,19.79-.11,39.59-.109,59.387v2.8h-8.946q-.743-8.08-1.484-16.156l-.471.036c-.572,5.337-1.145,10.675-1.733,16.161h-26.82c0-2.193,0-4.337,0-6.482,0-5.058-.025-10.116,0-15.174.021-3.753,1.774-5.716,5.513-6.381a19.921,19.921,0,0,0,13.558-8.512c2.678-3.93,2.045-7.951-.159-11.823a3.426,3.426,0,0,0-5.114-1.456,20.031,20.031,0,0,1-2.5,1.411c-2.237.824-2.955,2.347-2.674,4.65C6997.957-1066.434,6997.305-1064.3,6994.164-1063.094Zm3.514-13.129c1.338-.758,2.141-1.229,2.957-1.672,4.61-2.5,8.7-1.172,11.037,3.582a14.569,14.569,0,0,1-2.4,16.964c-3.719,4.088-8.521,6.224-13.7,7.511-2.2.546-3.1,1.483-3.054,3.7.085,3.921.021,7.845.021,11.767q0,2.8,0,5.606h20.107c.892-8.464,1.768-16.779,2.645-25.093.475-4.505.9-9.019,1.479-13.51.1-.736.9-1.38,1.375-2.066.43.74.9,1.463,1.273,2.23a3.142,3.142,0,0,1,.092,1.034q1.546,17.839,3.08,35.678c.125,1.481.478,2.372,2.108,1.585v-54.455c-2.929,0-5.625.057-8.318-.024-1.436-.043-3.648.657-3.59-1.767.057-2.343,2.272-1.651,3.7-1.708,2.737-.107,5.482-.031,8.153-.031.828-6.4-2.485-10.279-8.395-10.3-5.03-.021-10.059,0-15.027,0a4.367,4.367,0,0,1-.329-.988c-.029-3.486.03-6.975-.081-10.458a2.806,2.806,0,0,1,1.91-3.165,7.522,7.522,0,0,0,4.512-5.769h-3.984c-4.709,0-5.566.873-5.568,5.684q-.006,10.329,0,20.659Z" transform="translate(-5815.602 6864.27)" fill="#1d272b"/>
  </g>
</svg>
