<?xml version="1.0" encoding="utf-8"?>
<!-- Generator: Adobe Illustrator 26.0.1, SVG Export Plug-In . SVG Version: 6.00 Build 0)  -->
<svg version="1.1" id="Layer_1" xmlns="http://www.w3.org/2000/svg" xmlns:xlink="http://www.w3.org/1999/xlink" x="0px" y="0px"
	 viewBox="0 0 376.9 248.4" style="enable-background:new 0 0 376.9 248.4;" xml:space="preserve">
<style type="text/css">
	.st0{opacity:0.354;fill:#A4A4B4;enable-background:new    ;}
	.st1{opacity:0.31;fill:#A4A4B4;enable-background:new    ;}
	.st2{fill:#A4A4B4;}
	.st3{fill:#1D272B;}
	.st4{fill:#008F85;}
	.st5{fill:#DB8804;}
	.st6{fill:#FFFFFF;}
	.st7{enable-background:new    ;}
	.st8{fill:#D93328;}
</style>
<g id="Grupo_134258" transform="translate(-175 -5955.33)">
	<g id="Grupo_128124" transform="translate(175 5955.33)">
		<path id="Trazado_151846" class="st0" d="M324.5,238.7c14.1-15.4,18.2-35.4,10.7-53.1c-4.7-11.2-13.8-21.5-15-33.2
			c-2.3-23.3,27-42.1,33-65c2.7-10.1-0.2-21.8-11.7-27.9c-11.3-6-27.5-4.8-40.3-0.6s-23.6,11-35.9,16s-27.4,8-40.4,4.1
			c-13.1-4-20.6-14.1-24.8-23.9s-6.2-20.3-13.4-29.2C175,11.2,150,3.2,126.6,5.3S82.4,18.6,71.2,33.5s-13.1,32.9-7.6,49.3
			c2.8,8.3,7.5,16.3,10,24.7s2.8,17.6-2.9,25.1c-11.9,15.8-43.1,18-59.5,31.5c-13.5,11.2-13.9,28.2-6.3,42s22.1,24.9,36.4,35.5
			c67,1.6,135.2,1.7,202.2,3.3C269.7,245.7,298.4,239.8,324.5,238.7z"/>
		<path id="Trazado_151847" class="st1" d="M300.8,79.7c-0.2,19,17.8,35.5,14.7,54.1c-1.7,10-9.3,20.1-4.9,29.3
			c3.9,8.1,15.1,9.5,23.7,6.8c20.1-6.1,32.3-26.7,38.1-46.9c5.5-19,6.9-40.2-1.9-57.9c-7.1-14.3-23.4-26.8-40-25.7
			C315.3,40.6,300.9,65.4,300.8,79.7z"/>
		<path id="Trazado_151848" class="st1" d="M38.2,51.8c-13.4,22.4-14,51.9-1.5,74.8c3.9,7.2,9.3,14,16.5,18c7.2,4,16.5,4.9,23.6,0.8
			c10.9-6.2,13.3-20.8,12.4-33.3s-3.7-25.6,1.1-37.1c3.1-7.5,9.1-13.4,14.5-19.6s10.3-13.4,10.6-21.5c0.7-21.1-21.7-19.5-35.2-15.2
			C62.6,24.5,47.8,36.2,38.2,51.8z"/>
		<g id="Grupo_107069" transform="translate(7.507 0)">
			<path id="Trazado_151849" class="st2" d="M313.6,240.5l-1.4-0.9c4-3.1,10.3-10.3,8.2-23.1c-1-5.7-3.3-11.4-5.6-16.8
				c-1-2.4-2.1-5-3-7.5c-9.8-26.7-5.5-56.2,11.8-80.9c1.5-2.2,3.2-4.4,4.8-6.5c4.8-6.3,9.7-12.8,11.8-19.9
				c3.7-12.4-3.6-21.6-12.1-25c-8.1-3.2-19.5-2.7-31.3,1.4c-4.3,1.5-8.5,3.3-12.6,5.1c-5.5,2.5-11.1,4.7-16.9,6.5
				c-23.4,6.8-52.7,1-68.1-13.4c-7.4-6.9-11.6-15.3-15.6-23.3c-1.6-3.1-3.2-6.4-5-9.5C173.2,17,163,4.9,146.2,2
				c-14.8-2.5-29.8,3-39.8,8.2C87.3,20,73.9,33.3,68.6,47.6C65,57.3,64.8,67.8,64.7,78c-0.2,15.1-0.4,30.8-12.3,43.4
				c-5.4,5.7-12.8,10.3-20,14.7c-6.7,4.1-13.7,8.4-18.9,13.6c-11.8,11.8-14.6,28.4-7.9,45.7c6.1,15.5,18.4,29.3,30.3,42.6l-1.6,0.8
				c-12-13.4-24.4-27.3-30.6-43c-6.9-17.7-3.9-34.8,8.2-46.9c5.3-5.3,12.4-9.7,19.2-13.9c7.1-4.4,14.4-8.9,19.7-14.5
				c11.6-12.3,11.8-27,12-42.6c0.1-10.3,0.3-20.9,4-30.7c5.5-14.6,19.2-28.2,38.6-38.2c10.3-5.3,25.8-11.1,41.4-8.4
				c17.6,3,28.2,15.5,33.9,25.4c1.8,3.1,3.4,6.4,5,9.5c4,8,8.1,16.2,15.3,22.9c14.9,13.9,43.2,19.4,65.8,12.9
				c5.7-1.8,11.2-3.9,16.6-6.4c4.1-1.8,8.3-3.6,12.7-5.2c12.4-4.3,24.4-4.8,33.1-1.3c9,3.6,16.9,13.5,13,26.5
				c-2.2,7.2-7.2,13.8-12,20.2c-1.6,2.1-3.3,4.3-4.8,6.5c-17.1,24.4-21.4,53.5-11.7,79.9c0.9,2.5,2,5,3,7.4
				c2.3,5.5,4.7,11.2,5.7,17.1C324.5,229.7,317.8,237.2,313.6,240.5z"/>
		</g>
	</g>
	<g id="rZLulr" transform="translate(194.86 6006.759)">
		<g id="Grupo_127421" transform="translate(0 0)">
			<path id="Trazado_163215" class="st3" d="M322,90.8c-0.3,1.4-0.7,2.8-0.9,4.3c-0.3,2.3-1.4,4.5-3.1,6c-7.7,7-15.5,13.9-23.2,20.8
				c-3.7,3.3-7.3,6.6-11.1,9.8c-0.6,0.5-0.8,1.3-0.4,2c5.2,15,10.4,30,15.5,45c2.3,6-0.7,12.7-6.7,14.9c-0.3,0.1-0.7,0.2-1.1,0.3
				c-5.7,1.6-11.7-1.4-13.8-6.9c-2.5-6.9-4.8-13.8-7.2-20.8c-2.3-6.8-4.7-13.5-7-20.3c-1.5-4.4-3.1-8.8-4.5-13.2
				c-1.7-5.1-0.2-9.4,3.8-12.9c8-7.2,16.1-14.3,24.1-21.5c1.3-1.1,2.5-2.3,3.8-3.3c0.4-0.3,0.6-0.8,0.3-1.3
				c-2.4-6.4-5.4-12.5-8.9-18.3c-0.5-0.9-1-1.7-1.5-2.5c-0.6-0.7-0.6-1.8,0-2.5c3.4-5.9,6.9-11.9,10.2-17.9
				c2.4-4.6,0.7-10.2-3.9-12.7c0,0,0,0-0.1,0c-4.5-2.5-10.2-0.9-12.8,3.6c-4.1,7.2-8.3,14.4-12.4,21.6c-0.2,0.5-0.7,0.7-1.2,0.6
				c-1.9-0.2-3.8-0.4-5.8-0.7c0.4-1.2,0.9-2.5,1.3-3.6c2.9-7.9,5.9-15.8,8.8-23.7c1.3-3.4,4.1-6.1,7.6-7.3c6-2.4,11.9-1.6,17.5,1.4
				c4,2.1,7,5.4,9.8,8.8c4.7,5.5,8.9,11.4,12.5,17.7c3.2,5.9,5.8,12,7.8,18.4c0.9,2.7,1.6,5.5,2.3,8.3c0.2,0.6,0.2,1.2,0.3,1.8
				L322,90.8z"/>
			<path id="Trazado_163216" class="st4" d="M0,124c0.4-1.6,1.3-3.1,2.6-4.3c1.4-1.2,3.2-1.8,5-1.8c4.9,0,9.8,0,14.7,0
				c0.9,0,1.7,0.3,2.2,1c2.7,2.6,5.5,5.1,8.3,7.6c2.3,2,4.5,4.1,6.7,6.3h-1.2c-10.1,0-20.3,0-30.4,0c-4.2,0-6.7-1.9-7.9-6
				c0-0.1-0.1-0.2-0.1-0.3V124z"/>
			<path id="Trazado_163217" class="st3" d="M32.2,76.7c-2.6-1.5-5.1-2.9-7.6-4.4c-4.9-2.8-5.6-8-1.9-12.2
				c6.5-7.4,12.9-14.9,19.4-22.4c2.1-2.5,5.4-3.6,8.5-2.8c2.8,0.6,5.6,1.4,8.3,2.2c7.6,2,15.2,4.2,22.9,6c3.1,0.6,5.6,2.7,6.8,5.6
				c4,8.6,8.2,17.1,12.3,25.6c0.2,0.7,0.8,1.1,1.5,1.1c4.6,0.5,9.1,1.1,13.7,1.7c3.8,0.5,7.6,0.9,11.5,1.4c4,0.5,6.8,4.1,6.4,8.1
				c-0.4,3.8-3.6,6.7-7.3,6.6c-2.9-0.1-5.7-0.6-8.6-1c-5.9-0.7-11.7-1.4-17.6-2.2c-1.9-0.2-3.7-0.4-5.6-0.8c-2.3-0.4-4.2-1.9-5.2-4
				c-1.5-3.1-3-6.3-4.5-9.4c-0.2-0.3-0.3-0.6-0.6-1.1c-1.1,4-2.1,7.9-3.1,11.7c-1.5,5.5-2.9,11.1-4.4,16.6c-0.2,0.6-0.1,1.2,0.4,1.6
				c7.4,6.6,14.8,13.2,22.1,19.8c1.6,1.4,3.1,2.8,4.5,4.3c1.7,1.9,2.1,4.4,2.7,6.8c3.3,12.9,6.5,25.9,9.8,38.8
				c0.8,2.6,1.3,5.2,1.7,7.9c0.6,6.1-3.9,11.6-10,12.2c-5.8,0.8-11.3-2.9-12.7-8.6c-2-7.7-3.9-15.4-5.8-23.1
				c-1.7-6.7-3.4-13.4-5.1-20.1c-0.2-0.5-0.5-1-0.9-1.4c-8.6-7.7-17.2-15.4-25.9-23.1c-1.5-1.3-1.5-1.4-3.4-0.2c1.7,1.5,3.3,3,5,4.5
				c6.1,5.5,12.3,11,18.4,16.5c0.3,0.3,0.4,0.8,0.3,1.2c-1.7,8.1-3.4,16.1-5.1,24.2c-1.5,7.1-3,14.2-4.6,21.3
				c-1.2,5.4-6.1,9.2-11.7,9c-5.4-0.2-10-4.1-11-9.5c-0.5-2.5,0.1-4.9,0.7-7.3c2.6-12.4,5.3-24.7,7.9-37.1c0.1-0.6-0.1-1.1-0.6-1.5
				c-7.1-6.3-14.2-12.6-21.2-18.9c-1.5-1.4-3.1-2.7-4.6-4.1c-3.4-3.3-4.6-8.3-2.9-12.7c0.8-2.3,1.2-4.9,1.9-7.3
				C28.8,89.6,30.5,83.2,32.2,76.7z"/>
			<path id="Trazado_163218" class="st4" d="M149.5,132.8v58.4h-28.6c0.1-0.2,0.2-0.5,0.3-0.7c1.9-3.7,2.4-8.1,1.2-12.1
				c-2.1-8.3-4.2-16.7-6.3-25c-1.1-4.3-2.2-8.7-3.3-13c-0.7-2.6-1.4-5.2-2-7.8c-0.9-4.1-3.2-7.7-6.5-10.2c-1.6-1.3-3.1-2.7-4.8-4.3
				c0.5,0,0.8-0.1,1.1-0.1c36.8,0,73.6,0,110.4,0c9.2,0,18.3,0,27.5,0c2.9-0.1,5.7,1.6,6.8,4.3c1.7,3.7,0.1,8.1-3.6,9.8
				c-0.8,0.4-1.7,0.6-2.6,0.7c-0.7,0-1.4,0-2.1,0c-28.7,0-57.5,0-86.2,0L149.5,132.8z"/>
			<path id="Trazado_163219" class="st3" d="M84.1,98.9l-1-0.2c0.8-2.9,1.5-5.8,2.3-8.6c0.3-0.6,1-0.8,1.6-0.5
				c0.1,0,0.2,0.1,0.3,0.2c2.6,3.2,6.1,4.1,10,4.5c7.3,0.8,14.5,1.8,21.7,2.7c2.9,0.5,5.9,0.7,8.9,0.7c5.2-0.4,9.5-4.2,10.5-9.3
				c0.2-0.8,0.5-0.9,1.1-0.9c9.2-0.1,18.4-0.3,27.6-0.4c3.3-0.1,6.7,0,10,0.2c4.1,0.3,8,2.1,10.9,5.1c2.9,2.9,3.5,6.5,2.9,10.4
				c-0.7,4.5-2.9,8.6-6.2,11.7c-0.5,0.5-1.2,0.8-2,0.8c-23.9,0-47.8,0-71.6,0c-0.6,0.1-1.2-0.2-1.5-0.8c-0.4-0.4-0.7-0.9-0.9-1.4
				c-0.4-1.2-1.2-1.3-2.3-1.2c-4,0.3-8.1,0.4-12.2,0.6c-0.5,0-1-0.1-1.4-0.5c-2.8-2.4-5.5-4.9-8.2-7.4c-0.3-0.3-0.4-0.7-0.4-1.1
				C84,101.9,84.1,100.4,84.1,98.9z"/>
			<path id="Trazado_163220" class="st3" d="M289.3,48.4c-0.3,1.3-0.8,2.5-1.4,3.7c-5.2,9.2-10.4,18.3-15.7,27.5
				c-1.5,2.7-4.6,4.2-7.7,3.7c-7.5-0.9-15-1.7-22.5-2.6c-5.6-0.6-11.2-1.2-16.8-2c-3.9-0.6-6.6-4.3-6-8.3c0-0.1,0-0.2,0.1-0.3
				c0.7-3.9,4.4-6.5,8.3-6c8,0.9,15.9,1.8,23.9,2.7c3.1,0.4,6.3,0.7,9.4,1.1c0.5,0.1,1-0.1,1.2-0.6c4.3-7.6,8.6-15.1,13-22.7
				c1.6-2.9,4.9-4.4,8.2-3.7c3.4,0.8,5.8,3.8,5.7,7.3L289.3,48.4z"/>
			<path id="Trazado_163221" class="st3" d="M216.5,80.2l-3.2,4.9l5.6,3.7l4.8-7.2c4.1,1.5,7.6,4.3,9.9,8c4.3,6.8,4.7,13.9,1.2,21.1
				c-0.8,1.5-1.8,2.8-2.8,4.1c-0.2,0.3-0.6,0.4-0.9,0.4c-9.9,0-19.7,0-29.6,0c-0.4-0.1-0.8-0.3-1.1-0.6c-5.9-6.8-6.7-16.7-2-24.3
				c3.4-5.7,9.5-9.5,16.1-10C215.1,80.2,215.7,80.2,216.5,80.2z"/>
			<path id="Trazado_163222" class="st3" d="M88.8,43.5c-2-2.4-4.9-2.9-7.8-3.6C73.6,38,66.2,36,58.8,34.1c-0.7-0.1-1.2-0.6-1.4-1.3
				c-3.6-11,2.4-22.9,13.4-26.4c0.7-0.2,1.5-0.4,2.2-0.6c8.4-1.7,16.9,1.8,21.6,9C101,24.2,98.5,37,89,43.4
				C88.9,43.5,88.8,43.5,88.8,43.5z"/>
			<path id="Trazado_163223" class="st3" d="M230,37.6c-6.6-5.4-9.4-12.3-7.9-20.5c1.6-8.6,6.9-14.2,15.4-16.4
				c8.1-2.1,15,0.4,20.8,6.4L230,37.6z"/>
			<path id="Trazado_163224" class="st3" d="M259.5,8.7c4.1,6.2,5.1,12.4,2.8,19.1c-2.1,6.1-6.3,10.2-12.4,12.7
				c-0.2-5.5-2.5-10.6-6.6-14.4L259.5,8.7z"/>
			<path id="Trazado_163225" class="st3" d="M21.6,115.2c-3.6,0-7.1,0-10.6,0c-0.4-0.1-0.8-0.3-1.1-0.7c-3.7-5.2-2.4-12.5,2.8-16.2
				c1.5-1.1,3.3-1.8,5.1-2c1.5-0.2,3-0.4,4.6-0.7c-0.2,0.9-0.4,1.6-0.6,2.3c-0.5,2.1-1.2,4.3-1.6,6.4c-0.7,3.3-0.3,6.7,1.1,9.8
				c0.1,0.2,0.2,0.4,0.3,0.6C21.6,114.9,21.6,115,21.6,115.2z"/>
			<path id="Trazado_163226" class="st3" d="M257.8,84.9l-18.4,10.7c-1.2-4.9-3.9-9.3-7.7-12.6c0.8-0.8,2-1.2,3.1-1
				c5.7,0.7,11.4,1.3,17.2,2c1.9,0.2,3.8,0.5,5.8,0.7L257.8,84.9z"/>
			<path id="Trazado_163227" class="st3" d="M230.8,62.4l7.8-11.9l2.1,1.3c-2.3,3.5-4.6,7-6.9,10.4c-0.2,0.2-0.5,0.4-0.8,0.4
				C232.3,62.6,231.7,62.5,230.8,62.4z"/>
			<path id="Trazado_163228" class="st3" d="M222.1,79.9c0,0.1-0.1,0.3-0.2,0.4c-1.2,1.8-2.4,3.6-3.6,5.5l-2.1-1.4l3.9-5.9
				L222.1,79.9z"/>
		</g>
		<g id="Grupo_128125" transform="translate(208.435 118.292)">
			<g id="Grupo_91938" transform="translate(0 0)">
				<g id="Grupo_91937">
					<path id="Trazado_151023" class="st3" d="M5.8,78.7C2.6,78.7,0,76.2,0,73c0-1,0.3-2,0.8-2.9L39.6,2.9c1.6-2.8,5.1-3.7,7.9-2.1
						c0.9,0.5,1.6,1.2,2.1,2.1l38.8,67.2c1.6,2.7,0.7,6.2-2.1,7.8c-0.9,0.5-1.9,0.8-2.9,0.8H5.8z"/>
					<path id="Trazado_151024" class="st5" d="M86.2,74.7c-0.6,1-1.7,1.7-2.8,1.7H5.8c-1.9-0.1-3.3-1.6-3.3-3.5
						c0-0.5,0.2-1.1,0.4-1.6L41.7,4.2c0.5-0.8,1.3-1.4,2.2-1.6c0.2,0,0.4-0.1,0.6-0.1c1.2,0,2.2,0.6,2.8,1.6l38.8,67.2
						C86.8,72.4,86.8,73.7,86.2,74.7z"/>
				</g>
			</g>
			<g id="Grupo_91939" transform="translate(39.751 24.024)">
				<path id="Trazado_151026" class="st6" d="M6.5,27.3l-3.4-0.1c-1-0.1-1.7-0.8-1.8-1.8L0.1,1.6c0-0.5,0.1-0.9,0.5-1.2
					C0.9,0.1,1.4-0.1,1.9,0l5.8,0.4C8.2,0.4,8.6,0.6,9,1c0.3,0.4,0.5,0.8,0.5,1.3L8.2,25.7C8.2,26.6,7.4,27.3,6.5,27.3z"/>
				<path id="Trazado_151027" class="st6" d="M1.3,33.1c1-0.9,2.3-1.3,3.6-1.2c1.3-0.1,2.6,0.4,3.6,1.2c0.9,1,1.3,2.2,1.2,3.5
					c0.1,1.3-0.4,2.5-1.2,3.5c-1,0.9-2.3,1.3-3.6,1.2c-1.3,0.1-2.6-0.4-3.5-1.3c-0.9-0.9-1.4-2.2-1.3-3.5
					C-0.1,35.4,0.4,34.1,1.3,33.1z"/>
			</g>
		</g>
	</g>
	<g class="st7">
		<path class="st4" d="M307.8,5978.7v3.5h-2.1v-10h3.9c0.7,0,1.4,0.1,2,0.4s1,0.7,1.3,1.2c0.3,0.5,0.5,1.1,0.5,1.7
			c0,1-0.3,1.7-1,2.3c-0.7,0.6-1.6,0.8-2.8,0.8H307.8z M307.8,5977h1.8c0.5,0,1-0.1,1.2-0.4s0.4-0.6,0.4-1.1c0-0.5-0.1-0.9-0.4-1.2
			s-0.7-0.5-1.2-0.5h-1.9V5977z"/>
		<path class="st4" d="M318.5,5978.5h-1.6v3.6h-2.1v-10h3.7c1.2,0,2.1,0.3,2.7,0.8s1,1.3,1,2.2c0,0.7-0.1,1.2-0.4,1.7
			c-0.3,0.5-0.7,0.8-1.3,1.1l2.2,4.1v0.1h-2.2L318.5,5978.5z M316.8,5976.9h1.7c0.5,0,0.9-0.1,1.2-0.4c0.3-0.3,0.4-0.6,0.4-1.1
			c0-0.5-0.1-0.8-0.4-1.1s-0.7-0.4-1.2-0.4h-1.6V5976.9z"/>
		<path class="st4" d="M331.9,5977.4c0,1-0.2,1.8-0.5,2.6s-0.8,1.3-1.5,1.7s-1.4,0.6-2.2,0.6c-0.8,0-1.6-0.2-2.2-0.6s-1.1-1-1.5-1.7
			c-0.4-0.7-0.5-1.6-0.5-2.5v-0.5c0-1,0.2-1.8,0.5-2.6c0.4-0.7,0.9-1.3,1.5-1.7c0.6-0.4,1.4-0.6,2.2-0.6s1.6,0.2,2.2,0.6
			c0.6,0.4,1.1,1,1.5,1.7c0.4,0.7,0.5,1.6,0.5,2.6V5977.4z M329.8,5977c0-1-0.2-1.8-0.6-2.4s-0.9-0.8-1.6-0.8
			c-0.7,0-1.2,0.3-1.6,0.8c-0.4,0.5-0.6,1.3-0.6,2.4v0.5c0,1,0.2,1.8,0.6,2.4s0.9,0.8,1.6,0.8c0.7,0,1.2-0.3,1.6-0.8
			c0.4-0.5,0.6-1.3,0.6-2.4V5977z"/>
		<path class="st4" d="M341.2,5978.9c-0.1,1.1-0.5,1.9-1.2,2.5s-1.7,0.9-2.8,0.9c-1.3,0-2.3-0.4-3-1.3c-0.7-0.9-1.1-2-1.1-3.5v-0.6
			c0-1,0.2-1.8,0.5-2.5s0.8-1.3,1.4-1.7c0.6-0.4,1.4-0.6,2.2-0.6c1.1,0,2.1,0.3,2.8,0.9s1.1,1.5,1.2,2.6h-2.1
			c-0.1-0.6-0.2-1.1-0.5-1.4c-0.3-0.3-0.8-0.4-1.4-0.4c-0.7,0-1.2,0.2-1.5,0.7c-0.3,0.5-0.5,1.2-0.5,2.3v0.8c0,1.1,0.2,1.9,0.5,2.4
			s0.8,0.7,1.5,0.7c0.6,0,1.1-0.1,1.4-0.4c0.3-0.3,0.5-0.7,0.5-1.3H341.2z"/>
		<path class="st4" d="M348.5,5977.9h-3.9v2.7h4.6v1.6h-6.7v-10h6.7v1.7h-4.6v2.4h3.9V5977.9z"/>
		<path class="st4" d="M355.6,5979.6c0-0.4-0.1-0.7-0.4-0.9c-0.3-0.2-0.8-0.4-1.5-0.7c-0.7-0.2-1.3-0.5-1.7-0.7
			c-1.1-0.6-1.7-1.4-1.7-2.5c0-0.5,0.2-1,0.5-1.4c0.3-0.4,0.7-0.8,1.3-1s1.2-0.4,1.9-0.4c0.7,0,1.3,0.1,1.9,0.4
			c0.6,0.3,1,0.6,1.3,1.1s0.5,1,0.5,1.6h-2.1c0-0.5-0.1-0.8-0.4-1.1c-0.3-0.3-0.7-0.4-1.2-0.4c-0.5,0-0.9,0.1-1.2,0.3
			c-0.3,0.2-0.4,0.5-0.4,0.8c0,0.3,0.2,0.6,0.5,0.8s0.8,0.4,1.4,0.6c1.2,0.4,2,0.8,2.5,1.3s0.8,1.2,0.8,1.9c0,0.9-0.3,1.5-1,2
			c-0.7,0.5-1.5,0.7-2.6,0.7c-0.8,0-1.5-0.1-2.1-0.4c-0.6-0.3-1.1-0.7-1.4-1.2s-0.5-1.1-0.5-1.7h2.1c0,1.1,0.7,1.6,2,1.6
			c0.5,0,0.9-0.1,1.1-0.3C355.5,5980.2,355.6,5979.9,355.6,5979.6z"/>
		<path class="st4" d="M367.2,5977.4c0,1-0.2,1.8-0.5,2.6c-0.3,0.7-0.8,1.3-1.5,1.7c-0.6,0.4-1.4,0.6-2.2,0.6
			c-0.8,0-1.6-0.2-2.2-0.6s-1.1-1-1.5-1.7c-0.4-0.7-0.5-1.6-0.5-2.5v-0.5c0-1,0.2-1.8,0.5-2.6c0.4-0.7,0.9-1.3,1.5-1.7
			c0.6-0.4,1.4-0.6,2.2-0.6s1.6,0.2,2.2,0.6c0.6,0.4,1.1,1,1.5,1.7c0.4,0.7,0.5,1.6,0.5,2.6V5977.4z M365.1,5977
			c0-1-0.2-1.8-0.6-2.4c-0.4-0.5-0.9-0.8-1.6-0.8c-0.7,0-1.2,0.3-1.6,0.8c-0.4,0.5-0.6,1.3-0.6,2.4v0.5c0,1,0.2,1.8,0.6,2.4
			s0.9,0.8,1.6,0.8c0.7,0,1.2-0.3,1.6-0.8c0.4-0.5,0.6-1.3,0.6-2.4V5977z"/>
		<path class="st4" d="M372.2,5982.2v-10h3.1c0.9,0,1.7,0.2,2.3,0.6c0.7,0.4,1.2,1,1.6,1.7c0.4,0.7,0.6,1.6,0.6,2.5v0.5
			c0,0.9-0.2,1.7-0.6,2.5c-0.4,0.7-0.9,1.3-1.6,1.7c-0.7,0.4-1.5,0.6-2.3,0.6H372.2z M374.2,5973.9v6.6h1c0.8,0,1.4-0.3,1.8-0.8
			s0.6-1.3,0.6-2.2v-0.5c0-1-0.2-1.8-0.6-2.3c-0.4-0.5-1-0.8-1.8-0.8H374.2z"/>
		<path class="st4" d="M387.3,5977.9h-3.9v2.7h4.6v1.6h-6.7v-10h6.7v1.7h-4.6v2.4h3.9V5977.9z"/>
	</g>
	<g class="st7">
		<path class="st3" d="M305.8,5997.2v-10.7h3.3c0.9,0,1.8,0.2,2.5,0.6c0.7,0.4,1.3,1,1.7,1.8c0.4,0.8,0.6,1.7,0.6,2.7v0.5
			c0,1-0.2,1.9-0.6,2.6c-0.4,0.8-1,1.4-1.7,1.8s-1.6,0.6-2.5,0.6H305.8z M308,5988.3v7.1h1.1c0.9,0,1.5-0.3,2-0.8s0.7-1.4,0.7-2.4
			v-0.6c0-1.1-0.2-1.9-0.7-2.5c-0.4-0.6-1.1-0.8-2-0.8H308z"/>
		<path class="st3" d="M322,5992.6h-4.2v2.9h5v1.8h-7.1v-10.7h7.1v1.8h-4.9v2.5h4.2V5992.6z"/>
		<path class="st3" d="M329.5,5994.4c0-0.4-0.1-0.7-0.4-1c-0.3-0.2-0.8-0.5-1.6-0.7c-0.8-0.2-1.4-0.5-1.8-0.7
			c-1.2-0.7-1.8-1.5-1.8-2.6c0-0.6,0.2-1.1,0.5-1.5c0.3-0.5,0.8-0.8,1.4-1.1c0.6-0.3,1.3-0.4,2-0.4c0.8,0,1.4,0.1,2,0.4
			c0.6,0.3,1.1,0.7,1.4,1.2c0.3,0.5,0.5,1.1,0.5,1.7h-2.2c0-0.5-0.2-0.9-0.5-1.1c-0.3-0.3-0.7-0.4-1.3-0.4c-0.5,0-1,0.1-1.3,0.3
			c-0.3,0.2-0.4,0.5-0.4,0.9c0,0.3,0.2,0.6,0.5,0.9s0.9,0.5,1.5,0.7c1.2,0.4,2.2,0.8,2.7,1.4s0.9,1.2,0.9,2.1c0,0.9-0.3,1.6-1,2.2
			c-0.7,0.5-1.6,0.8-2.8,0.8c-0.8,0-1.6-0.2-2.2-0.5c-0.7-0.3-1.2-0.7-1.5-1.2s-0.5-1.1-0.5-1.8h2.2c0,1.2,0.7,1.8,2.1,1.8
			c0.5,0,0.9-0.1,1.2-0.3C329.4,5995.1,329.5,5994.8,329.5,5994.4z"/>
		<path class="st3" d="M341.6,5993.6c-0.1,1.1-0.5,2.1-1.3,2.7c-0.8,0.7-1.8,1-3,1c-1.4,0-2.4-0.5-3.2-1.4c-0.8-0.9-1.2-2.2-1.2-3.8
			v-0.7c0-1,0.2-1.9,0.5-2.7c0.4-0.8,0.9-1.4,1.5-1.8c0.7-0.4,1.5-0.6,2.3-0.6c1.2,0,2.2,0.3,3,1c0.8,0.7,1.2,1.6,1.3,2.8h-2.2
			c-0.1-0.7-0.2-1.2-0.6-1.5c-0.3-0.3-0.8-0.5-1.5-0.5c-0.7,0-1.3,0.3-1.6,0.8c-0.4,0.5-0.6,1.3-0.6,2.4v0.8c0,1.2,0.2,2,0.5,2.5
			s0.9,0.8,1.7,0.8c0.7,0,1.2-0.2,1.5-0.5c0.3-0.3,0.5-0.8,0.6-1.4H341.6z"/>
		<path class="st3" d="M351.8,5992.1c0,1-0.2,2-0.6,2.8s-0.9,1.4-1.6,1.8c-0.7,0.4-1.5,0.6-2.4,0.6c-0.9,0-1.7-0.2-2.4-0.6
			c-0.7-0.4-1.2-1-1.6-1.8c-0.4-0.8-0.6-1.7-0.6-2.7v-0.5c0-1,0.2-2,0.6-2.8c0.4-0.8,0.9-1.4,1.6-1.8c0.7-0.4,1.5-0.6,2.4-0.6
			s1.7,0.2,2.4,0.6c0.7,0.4,1.2,1,1.6,1.8c0.4,0.8,0.6,1.7,0.6,2.8V5992.1z M349.6,5991.6c0-1.1-0.2-2-0.6-2.5
			c-0.4-0.6-1-0.9-1.7-0.9c-0.7,0-1.3,0.3-1.7,0.9c-0.4,0.6-0.6,1.4-0.6,2.5v0.5c0,1.1,0.2,1.9,0.6,2.5c0.4,0.6,1,0.9,1.7,0.9
			c0.7,0,1.3-0.3,1.7-0.9c0.4-0.6,0.6-1.4,0.6-2.5V5991.6z"/>
		<path class="st3" d="M356.3,5986.5l2.7,7.7l2.7-7.7h2.9v10.7h-2.2v-2.9l0.2-5l-2.9,7.9h-1.5l-2.9-7.9l0.2,5v2.9h-2.2v-10.7H356.3z
			"/>
		<path class="st3" d="M368.7,5993.4v3.8h-2.2v-10.7h4.2c0.8,0,1.5,0.1,2.1,0.4c0.6,0.3,1.1,0.7,1.4,1.2c0.3,0.5,0.5,1.2,0.5,1.8
			c0,1-0.4,1.9-1.1,2.5c-0.7,0.6-1.7,0.9-3,0.9H368.7z M368.7,5991.6h2c0.6,0,1-0.1,1.3-0.4c0.3-0.3,0.5-0.7,0.5-1.2
			c0-0.5-0.2-0.9-0.5-1.3s-0.7-0.5-1.3-0.5h-2V5991.6z"/>
		<path class="st3" d="M385,5992.1c0,1-0.2,2-0.6,2.8s-0.9,1.4-1.6,1.8c-0.7,0.4-1.5,0.6-2.4,0.6c-0.9,0-1.7-0.2-2.4-0.6
			c-0.7-0.4-1.2-1-1.6-1.8c-0.4-0.8-0.6-1.7-0.6-2.7v-0.5c0-1,0.2-2,0.6-2.8c0.4-0.8,0.9-1.4,1.6-1.8c0.7-0.4,1.5-0.6,2.4-0.6
			s1.7,0.2,2.4,0.6c0.7,0.4,1.2,1,1.6,1.8c0.4,0.8,0.6,1.7,0.6,2.8V5992.1z M382.8,5991.6c0-1.1-0.2-2-0.6-2.5
			c-0.4-0.6-1-0.9-1.7-0.9c-0.7,0-1.3,0.3-1.7,0.9c-0.4,0.6-0.6,1.4-0.6,2.5v0.5c0,1.1,0.2,1.9,0.6,2.5c0.4,0.6,1,0.9,1.7,0.9
			c0.7,0,1.3-0.3,1.7-0.9c0.4-0.6,0.6-1.4,0.6-2.5V5991.6z"/>
		<path class="st3" d="M392.1,5994.4c0-0.4-0.1-0.7-0.4-1c-0.3-0.2-0.8-0.5-1.6-0.7c-0.8-0.2-1.4-0.5-1.8-0.7
			c-1.2-0.7-1.8-1.5-1.8-2.6c0-0.6,0.2-1.1,0.5-1.5c0.3-0.5,0.8-0.8,1.4-1.1c0.6-0.3,1.3-0.4,2-0.4c0.8,0,1.4,0.1,2,0.4
			c0.6,0.3,1.1,0.7,1.4,1.2c0.3,0.5,0.5,1.1,0.5,1.7h-2.2c0-0.5-0.2-0.9-0.5-1.1c-0.3-0.3-0.7-0.4-1.3-0.4c-0.5,0-1,0.1-1.3,0.3
			c-0.3,0.2-0.4,0.5-0.4,0.9c0,0.3,0.2,0.6,0.5,0.9c0.3,0.2,0.9,0.5,1.5,0.7c1.2,0.4,2.2,0.8,2.7,1.4s0.9,1.2,0.9,2.1
			c0,0.9-0.3,1.6-1,2.2c-0.7,0.5-1.6,0.8-2.8,0.8c-0.8,0-1.6-0.2-2.2-0.5c-0.7-0.3-1.2-0.7-1.5-1.2c-0.4-0.5-0.5-1.1-0.5-1.8h2.2
			c0,1.2,0.7,1.8,2.1,1.8c0.5,0,0.9-0.1,1.2-0.3C392,5995.1,392.1,5994.8,392.1,5994.4z"/>
		<path class="st3" d="M398.1,5997.2h-2.2v-10.7h2.2V5997.2z"/>
		<path class="st3" d="M408.5,5993.6c-0.1,1.1-0.5,2.1-1.3,2.7c-0.8,0.7-1.8,1-3,1c-1.4,0-2.4-0.5-3.2-1.4c-0.8-0.9-1.2-2.2-1.2-3.8
			v-0.7c0-1,0.2-1.9,0.5-2.7c0.4-0.8,0.9-1.4,1.5-1.8c0.7-0.4,1.5-0.6,2.3-0.6c1.2,0,2.2,0.3,3,1c0.8,0.7,1.2,1.6,1.3,2.8h-2.2
			c-0.1-0.7-0.2-1.2-0.6-1.5c-0.3-0.3-0.8-0.5-1.5-0.5c-0.7,0-1.3,0.3-1.6,0.8c-0.4,0.5-0.6,1.3-0.6,2.4v0.8c0,1.2,0.2,2,0.5,2.5
			c0.3,0.5,0.9,0.8,1.7,0.8c0.7,0,1.2-0.2,1.5-0.5c0.3-0.3,0.5-0.8,0.6-1.4H408.5z"/>
		<path class="st3" d="M412.3,5997.2h-2.2v-10.7h2.2V5997.2z"/>
		<path class="st3" d="M423.1,5992.1c0,1-0.2,2-0.6,2.8s-0.9,1.4-1.6,1.8c-0.7,0.4-1.5,0.6-2.4,0.6c-0.9,0-1.7-0.2-2.4-0.6
			c-0.7-0.4-1.2-1-1.6-1.8c-0.4-0.8-0.6-1.7-0.6-2.7v-0.5c0-1,0.2-2,0.6-2.8c0.4-0.8,0.9-1.4,1.6-1.8c0.7-0.4,1.5-0.6,2.4-0.6
			s1.7,0.2,2.4,0.6c0.7,0.4,1.2,1,1.6,1.8c0.4,0.8,0.6,1.7,0.6,2.8V5992.1z M420.9,5991.6c0-1.1-0.2-2-0.6-2.5
			c-0.4-0.6-1-0.9-1.7-0.9c-0.7,0-1.3,0.3-1.7,0.9c-0.4,0.6-0.6,1.4-0.6,2.5v0.5c0,1.1,0.2,1.9,0.6,2.5c0.4,0.6,1,0.9,1.7,0.9
			c0.7,0,1.3-0.3,1.7-0.9c0.4-0.6,0.6-1.4,0.6-2.5V5991.6z M419,5983.7h2.3l-2,2.3h-1.7L419,5983.7z"/>
		<path class="st3" d="M433.4,5997.2h-2.2l-4.3-7v7h-2.2v-10.7h2.2l4.3,7v-7h2.2V5997.2z"/>
	</g>
	<rect id="Rectángulo_35428" x="297.9" y="5962.2" class="st8" width="3" height="44"/>
</g>
</svg>
