<?xml version="1.0" encoding="utf-8"?>
<!-- Generator: Adobe Illustrator 26.0.1, SVG Export Plug-In . SVG Version: 6.00 Build 0)  -->
<svg version="1.1" id="Layer_1" xmlns="http://www.w3.org/2000/svg" xmlns:xlink="http://www.w3.org/1999/xlink" x="0px" y="0px"
	 viewBox="0 0 389 268" style="enable-background:new 0 0 389 268;" xml:space="preserve">
<style type="text/css">
	.st0{fill:#1D272B;}
	.st1{fill:none;}
	.st2{fill:none;stroke:#1D272B;}
	.st3{enable-background:new    ;}
	.st4{fill:#FFFFFF;}
	.st5{fill:#12263F;}
	.st6{fill:#B42218;}
</style>
<g id="Grupo_134300" transform="translate(-978 -8336)">
	<path id="Rectángulo_36395" class="st0" d="M988,8336h369c5.5,0,10,4.5,10,10v25c0,5.5-4.5,10-10,10H988c-5.5,0-10-4.5-10-10v-25
		C978,8340.5,982.5,8336,988,8336z"/>
	<g id="Rectángulo_36396" transform="translate(978 8366)">
		<path class="st1" d="M10,0h369c5.5,0,10,4.5,10,10v218c0,5.5-4.5,10-10,10H10c-5.5,0-10-4.5-10-10V10C0,4.5,4.5,0,10,0z"/>
		<path class="st2" d="M10,0.5h369c5.2,0,9.5,4.3,9.5,9.5v218c0,5.2-4.3,9.5-9.5,9.5H10c-5.2,0-9.5-4.3-9.5-9.5V10
			C0.5,4.8,4.8,0.5,10,0.5z"/>
	</g>
	<g class="st3">
		<path class="st4" d="M1082.8,8362.2h-5.6v5.8h-2.9v-14.2h9.3v2.4h-6.3v3.7h5.6V8362.2z"/>
		<path class="st4" d="M1084.4,8362.6c0-1,0.2-2,0.6-2.8s1-1.5,1.7-1.9s1.6-0.7,2.6-0.7c1.4,0,2.6,0.4,3.5,1.3s1.4,2.1,1.5,3.6
			l0,0.7c0,1.6-0.5,2.9-1.4,3.9s-2.1,1.5-3.6,1.5s-2.7-0.5-3.6-1.5s-1.4-2.3-1.4-4V8362.6z M1087.2,8362.8c0,1,0.2,1.8,0.6,2.3
			s0.9,0.8,1.6,0.8c0.7,0,1.2-0.3,1.6-0.8c0.4-0.5,0.6-1.4,0.6-2.5c0-1-0.2-1.7-0.6-2.3s-0.9-0.8-1.6-0.8c-0.7,0-1.2,0.3-1.6,0.8
			S1087.2,8361.7,1087.2,8362.8z M1089.9,8353h3.1l-2.7,3h-2.3L1089.9,8353z"/>
		<path class="st4" d="M1102.1,8360.1c-0.4-0.1-0.7-0.1-1-0.1c-1.1,0-1.8,0.4-2.1,1.1v6.9h-2.8v-10.6h2.7l0.1,1.3
			c0.6-1,1.4-1.5,2.4-1.5c0.3,0,0.6,0,0.9,0.1L1102.1,8360.1z"/>
		<path class="st4" d="M1106.1,8357.4l0.1,1.2c0.7-0.9,1.8-1.4,3-1.4c1.4,0,2.3,0.5,2.8,1.6c0.7-1.1,1.8-1.6,3.2-1.6
			c1.1,0,2,0.3,2.6,1s0.8,1.7,0.8,3v6.7h-2.8v-6.8c0-0.6-0.1-1-0.4-1.3s-0.6-0.4-1.2-0.4c-0.8,0-1.4,0.4-1.8,1.2l0,7.3h-2.8v-6.7
			c0-0.6-0.1-1.1-0.4-1.3s-0.7-0.4-1.2-0.4c-0.8,0-1.4,0.3-1.7,1v7.5h-2.8v-10.6H1106.1z"/>
		<path class="st4" d="M1127.1,8366.9c-0.7,0.8-1.7,1.3-2.9,1.3c-1.1,0-2-0.3-2.6-1s-0.9-1.6-0.9-2.9v-6.9h2.8v6.8
			c0,1.1,0.5,1.7,1.5,1.7c1,0,1.6-0.3,2-1v-7.5h2.8v10.6h-2.7L1127.1,8366.9z"/>
		<path class="st4" d="M1134.9,8368h-2.8v-15h2.8V8368z"/>
		<path class="st4" d="M1143.4,8368c-0.1-0.3-0.2-0.6-0.3-0.9c-0.7,0.8-1.6,1.1-2.7,1.1c-1,0-1.9-0.3-2.6-0.9s-1-1.4-1-2.3
			c0-1.1,0.4-2,1.2-2.6s2-0.9,3.6-0.9h1.3v-0.6c0-0.5-0.1-0.9-0.4-1.2s-0.6-0.4-1.2-0.4c-0.5,0-0.8,0.1-1.1,0.3s-0.4,0.5-0.4,0.9
			h-2.8c0-0.6,0.2-1.2,0.6-1.7s0.9-0.9,1.6-1.2s1.5-0.4,2.3-0.4c1.3,0,2.3,0.3,3.1,1s1.1,1.6,1.1,2.8v4.6c0,1,0.1,1.8,0.4,2.3v0.2
			H1143.4z M1141,8366c0.4,0,0.8-0.1,1.2-0.3s0.6-0.4,0.8-0.7v-1.8h-1.1c-1.4,0-2.2,0.5-2.3,1.5l0,0.2c0,0.4,0.1,0.6,0.4,0.9
			S1140.6,8366,1141,8366z"/>
		<path class="st4" d="M1148.1,8358.6c0-0.4,0.2-0.8,0.5-1.1s0.7-0.4,1.1-0.4c0.5,0,0.8,0.1,1.1,0.4s0.5,0.6,0.5,1.1
			c0,0.4-0.1,0.8-0.4,1.1s-0.7,0.4-1.2,0.4c-0.5,0-0.8-0.1-1.1-0.4S1148.1,8359.1,1148.1,8358.6z M1148.1,8366.6
			c0-0.4,0.2-0.8,0.5-1.1s0.7-0.4,1.1-0.4c0.5,0,0.8,0.1,1.1,0.4s0.5,0.6,0.5,1.1c0,0.4-0.1,0.8-0.4,1.1s-0.7,0.4-1.2,0.4
			c-0.5,0-0.8-0.1-1.1-0.4S1148.1,8367.1,1148.1,8366.6z"/>
		<path class="st4" d="M1169.9,8363.3c-0.1,1.5-0.7,2.7-1.7,3.6s-2.4,1.3-4,1.3c-1.8,0-3.3-0.6-4.3-1.8s-1.6-2.9-1.6-5.1v-0.9
			c0-1.4,0.2-2.6,0.7-3.6s1.2-1.8,2.1-2.4s1.9-0.8,3.1-0.8c1.6,0,3,0.4,4,1.3s1.6,2.1,1.7,3.7h-2.9c-0.1-0.9-0.3-1.6-0.8-2
			s-1.1-0.6-2-0.6c-1,0-1.7,0.3-2.2,1s-0.7,1.8-0.7,3.3v1.1c0,1.5,0.2,2.7,0.7,3.4s1.2,1.1,2.2,1.1c0.9,0,1.6-0.2,2-0.6
			s0.7-1.1,0.8-1.9H1169.9z"/>
		<path class="st4" d="M1173.9,8358.6l-3.1-0.9l0.6-1.8l3,1.2l-0.2-3.4h1.9l-0.2,3.5l3-1.2l0.6,1.8l-3.1,0.9l2.1,2.6l-1.6,1.1
			l-1.8-2.9l-1.8,2.8l-1.6-1.1L1173.9,8358.6z"/>
		<path class="st4" d="M1186.2,8364.5l3.2-10.7h3.3l-5,14.2h-3.1l-4.9-14.2h3.3L1186.2,8364.5z"/>
		<path class="st4" d="M1202.8,8360.7h-8.7v-2.3h8.7V8360.7z M1202.8,8364.9h-8.7v-2.3h8.7V8364.9z"/>
		<path class="st4" d="M1216.6,8363.3c-0.1,1.5-0.7,2.7-1.7,3.6s-2.4,1.3-4,1.3c-1.8,0-3.3-0.6-4.3-1.8s-1.6-2.9-1.6-5.1v-0.9
			c0-1.4,0.2-2.6,0.7-3.6s1.2-1.8,2.1-2.4s1.9-0.8,3.1-0.8c1.6,0,3,0.4,4,1.3s1.6,2.1,1.7,3.7h-2.9c-0.1-0.9-0.3-1.6-0.8-2
			s-1.1-0.6-2-0.6c-1,0-1.7,0.3-2.2,1s-0.7,1.8-0.7,3.3v1.1c0,1.5,0.2,2.7,0.7,3.4s1.2,1.1,2.2,1.1c0.9,0,1.6-0.2,2-0.6
			s0.7-1.1,0.8-1.9H1216.6z"/>
		<path class="st4" d="M1220.2,8353h3.1l-2.7,3h-2.3L1220.2,8353z"/>
		<path class="st4" d="M1227.2,8358.6l-3.1-0.9l0.6-1.8l3,1.2l-0.2-3.4h1.9l-0.2,3.5l3-1.2l0.6,1.8l-3.1,0.9l2.1,2.6l-1.6,1.1
			l-1.8-2.9l-1.8,2.8l-1.6-1.1L1227.2,8358.6z"/>
		<path class="st4" d="M1239.5,8364.5l3.2-10.7h3.3l-5,14.2h-3.1l-4.9-14.2h3.3L1239.5,8364.5z"/>
		<path class="st4" d="M1248.9,8353h3.1l-2.7,3h-2.3L1248.9,8353z"/>
	</g>
	<g class="st3">
		<path class="st0" d="M1000.3,8426v-14.2h4.4c1.2,0,2.4,0.3,3.4,0.8s1.8,1.4,2.3,2.4s0.8,2.2,0.8,3.5v0.7c0,1.3-0.3,2.5-0.8,3.5
			s-1.3,1.8-2.3,2.4s-2.1,0.9-3.3,0.9H1000.3z M1003.2,8414.2v9.5h1.4c1.1,0,2-0.4,2.6-1.1s0.9-1.8,0.9-3.2v-0.8
			c0-1.4-0.3-2.5-0.9-3.3s-1.5-1.1-2.6-1.1H1003.2z"/>
		<path class="st0" d="M1012.6,8420.6c0-1,0.2-2,0.6-2.8s1-1.5,1.7-1.9s1.6-0.7,2.6-0.7c1.4,0,2.6,0.4,3.5,1.3s1.4,2.1,1.5,3.6
			l0,0.7c0,1.6-0.5,2.9-1.4,3.9s-2.1,1.5-3.6,1.5s-2.7-0.5-3.6-1.5s-1.4-2.3-1.4-4V8420.6z M1015.5,8420.8c0,1,0.2,1.8,0.6,2.3
			s0.9,0.8,1.6,0.8c0.7,0,1.2-0.3,1.6-0.8c0.4-0.5,0.6-1.4,0.6-2.5c0-1-0.2-1.7-0.6-2.3s-0.9-0.8-1.6-0.8c-0.7,0-1.2,0.3-1.6,0.8
			S1015.5,8419.7,1015.5,8420.8z"/>
		<path class="st0" d="M1027,8415.4l0.1,1.2c0.8-0.9,1.8-1.4,3-1.4c1.1,0,2,0.3,2.5,1s0.8,1.6,0.8,2.9v6.8h-2.8v-6.8
			c0-0.6-0.1-1-0.4-1.3s-0.7-0.4-1.3-0.4c-0.8,0-1.4,0.3-1.8,1v7.5h-2.8v-10.6H1027z"/>
		<path class="st0" d="M1035.2,8420.6c0-1.6,0.4-3,1.1-3.9s1.7-1.5,3-1.5c1,0,1.9,0.4,2.5,1.2v-5.4h2.8v15h-2.5l-0.1-1.1
			c-0.7,0.9-1.6,1.3-2.7,1.3c-1.2,0-2.2-0.5-3-1.5S1035.2,8422.4,1035.2,8420.6z M1038,8420.8c0,1,0.2,1.8,0.5,2.3
			c0.3,0.5,0.8,0.8,1.5,0.8c0.9,0,1.5-0.4,1.8-1.1v-4.2c-0.4-0.7-1-1.1-1.8-1.1C1038.7,8417.5,1038,8418.6,1038,8420.8z"/>
		<path class="st0" d="M1051.7,8426.2c-1.5,0-2.8-0.5-3.8-1.4s-1.5-2.2-1.5-3.8v-0.3c0-1.1,0.2-2,0.6-2.8s1-1.5,1.7-1.9
			s1.6-0.7,2.6-0.7c1.4,0,2.6,0.5,3.4,1.4s1.2,2.2,1.2,3.9v1.2h-6.7c0.1,0.7,0.4,1.2,0.8,1.7s1,0.6,1.7,0.6c1.1,0,1.9-0.4,2.5-1.2
			l1.4,1.6c-0.4,0.6-1,1.1-1.7,1.4S1052.6,8426.2,1051.7,8426.2z M1051.4,8417.5c-0.6,0-1,0.2-1.4,0.6c-0.3,0.4-0.6,0.9-0.7,1.6h3.9
			v-0.2c0-0.6-0.2-1.1-0.5-1.5C1052.5,8417.7,1052,8417.5,1051.4,8417.5z"/>
		<path class="st0" d="M1057.8,8416.6c0-0.4,0.2-0.8,0.5-1.1s0.7-0.4,1.1-0.4c0.5,0,0.8,0.1,1.1,0.4s0.5,0.6,0.5,1.1
			c0,0.4-0.1,0.8-0.4,1.1s-0.7,0.4-1.2,0.4c-0.5,0-0.8-0.1-1.1-0.4S1057.8,8417.1,1057.8,8416.6z M1057.8,8424.6
			c0-0.4,0.2-0.8,0.5-1.1s0.7-0.4,1.1-0.4c0.5,0,0.8,0.1,1.1,0.4s0.5,0.6,0.5,1.1c0,0.4-0.1,0.8-0.4,1.1s-0.7,0.4-1.2,0.4
			c-0.5,0-0.8-0.1-1.1-0.4S1057.8,8425.1,1057.8,8424.6z"/>
	</g>
	<g id="Grupo_133141" transform="translate(-13)">
		<g class="st3">
			<path class="st5" d="M1049.4,8460.3c-0.1,1.5-0.7,2.7-1.7,3.6s-2.4,1.3-4,1.3c-1.8,0-3.3-0.6-4.3-1.8s-1.6-2.9-1.6-5.1v-0.9
				c0-1.4,0.2-2.6,0.7-3.6s1.2-1.8,2.1-2.4s1.9-0.8,3.1-0.8c1.6,0,3,0.4,4,1.3s1.6,2.1,1.7,3.7h-2.9c-0.1-0.9-0.3-1.6-0.8-2
				s-1.1-0.6-2-0.6c-1,0-1.7,0.3-2.2,1s-0.7,1.8-0.7,3.3v1.1c0,1.5,0.2,2.7,0.7,3.4s1.2,1.1,2.2,1.1c0.9,0,1.6-0.2,2-0.6
				s0.7-1.1,0.8-1.9H1049.4z"/>
			<path class="st5" d="M1061,8465.2c-1.5,0-2.8-0.5-3.8-1.4s-1.5-2.2-1.5-3.8v-0.3c0-1.1,0.2-2,0.6-2.8s1-1.5,1.7-1.9
				s1.6-0.7,2.6-0.7c1.4,0,2.6,0.5,3.4,1.4s1.2,2.2,1.2,3.9v1.2h-6.7c0.1,0.7,0.4,1.2,0.8,1.7s1,0.6,1.7,0.6c1.1,0,1.9-0.4,2.5-1.2
				l1.4,1.6c-0.4,0.6-1,1.1-1.7,1.4S1061.9,8465.2,1061,8465.2z M1060.7,8456.5c-0.6,0-1,0.2-1.4,0.6c-0.3,0.4-0.6,0.9-0.7,1.6h3.9
				v-0.2c0-0.6-0.2-1.1-0.5-1.5C1061.8,8456.7,1061.3,8456.5,1060.7,8456.5z"/>
			<path class="st5" d="M1072.7,8462.1c0-0.3-0.2-0.6-0.5-0.8s-0.9-0.4-1.6-0.5c-2.5-0.5-3.8-1.6-3.8-3.2c0-0.9,0.4-1.7,1.2-2.3
				s1.8-0.9,3.1-0.9c1.3,0,2.4,0.3,3.2,0.9s1.2,1.5,1.2,2.5h-2.8c0-0.4-0.1-0.7-0.4-1s-0.7-0.4-1.2-0.4c-0.5,0-0.8,0.1-1.1,0.3
				s-0.4,0.5-0.4,0.8c0,0.3,0.1,0.6,0.4,0.8s0.8,0.4,1.5,0.5s1.3,0.3,1.8,0.5c1.5,0.5,2.2,1.5,2.2,2.8c0,1-0.4,1.7-1.2,2.3
				s-1.9,0.9-3.2,0.9c-0.9,0-1.7-0.2-2.4-0.5s-1.2-0.7-1.6-1.3s-0.6-1.1-0.6-1.8h2.7c0,0.5,0.2,0.9,0.6,1.2s0.8,0.4,1.4,0.4
				c0.5,0,0.9-0.1,1.2-0.3S1072.7,8462.4,1072.7,8462.1z"/>
			<path class="st5" d="M1087.1,8465.2c-1.5,0-2.8-0.5-3.8-1.4s-1.5-2.2-1.5-3.8v-0.3c0-1.1,0.2-2,0.6-2.8s1-1.5,1.7-1.9
				s1.6-0.7,2.6-0.7c1.4,0,2.6,0.5,3.4,1.4s1.2,2.2,1.2,3.9v1.2h-6.7c0.1,0.7,0.4,1.2,0.8,1.7s1,0.6,1.7,0.6c1.1,0,1.9-0.4,2.5-1.2
				l1.4,1.6c-0.4,0.6-1,1.1-1.7,1.4S1088,8465.2,1087.1,8465.2z M1086.8,8456.5c-0.6,0-1,0.2-1.4,0.6c-0.3,0.4-0.6,0.9-0.7,1.6h3.9
				v-0.2c0-0.6-0.2-1.1-0.5-1.5C1087.8,8456.7,1087.4,8456.5,1086.8,8456.5z"/>
			<path class="st5" d="M1096,8465h-2.8v-15h2.8V8465z"/>
			<path class="st5" d="M1106.4,8465h-2.8v-10.6h2.8V8465z M1105.5,8450.1h3.1l-2.7,3h-2.3L1105.5,8450.1z"/>
			<path class="st5" d="M1111.4,8454.4l0.1,1.2c0.8-0.9,1.8-1.4,3-1.4c1.1,0,2,0.3,2.5,1s0.8,1.6,0.8,2.9v6.8h-2.8v-6.8
				c0-0.6-0.1-1-0.4-1.3s-0.7-0.4-1.3-0.4c-0.8,0-1.4,0.3-1.8,1v7.5h-2.8v-10.6H1111.4z"/>
			<path class="st5" d="M1119.6,8459.6c0-1.6,0.4-3,1.1-3.9s1.7-1.5,3-1.5c1,0,1.9,0.4,2.5,1.2v-5.4h2.8v15h-2.5l-0.1-1.1
				c-0.7,0.9-1.6,1.3-2.7,1.3c-1.2,0-2.2-0.5-3-1.5S1119.6,8461.4,1119.6,8459.6z M1122.4,8459.8c0,1,0.2,1.8,0.5,2.3
				c0.3,0.5,0.8,0.8,1.5,0.8c0.9,0,1.5-0.4,1.8-1.1v-4.2c-0.4-0.7-1-1.1-1.8-1.1C1123.1,8456.5,1122.4,8457.6,1122.4,8459.8z"/>
			<path class="st5" d="M1131.2,8451.7c0-0.4,0.1-0.8,0.4-1s0.7-0.4,1.2-0.4c0.5,0,0.9,0.1,1.2,0.4s0.4,0.6,0.4,1
				c0,0.4-0.1,0.8-0.4,1.1s-0.7,0.4-1.1,0.4s-0.9-0.1-1.1-0.4S1131.2,8452.1,1131.2,8451.7z M1134.2,8465h-2.8v-10.6h2.8V8465z"/>
			<path class="st5" d="M1141,8462.9c0.5,0,0.9-0.1,1.3-0.4s0.5-0.7,0.5-1.1h2.6c0,0.7-0.2,1.4-0.6,2s-0.9,1.1-1.6,1.4
				s-1.4,0.5-2.2,0.5c-1.5,0-2.7-0.5-3.6-1.4s-1.3-2.3-1.3-4v-0.2c0-1.6,0.4-2.9,1.3-3.9s2.1-1.5,3.6-1.5c1.3,0,2.4,0.4,3.2,1.1
				s1.2,1.8,1.2,3h-2.6c0-0.5-0.2-1-0.5-1.3s-0.8-0.5-1.3-0.5c-0.7,0-1.2,0.2-1.5,0.7s-0.5,1.3-0.5,2.3v0.3c0,1.1,0.2,1.9,0.5,2.3
				S1140.3,8462.9,1141,8462.9z"/>
			<path class="st5" d="M1151.9,8465.2c-1.5,0-2.8-0.5-3.8-1.4s-1.5-2.2-1.5-3.8v-0.3c0-1.1,0.2-2,0.6-2.8s1-1.5,1.7-1.9
				s1.6-0.7,2.6-0.7c1.4,0,2.6,0.5,3.4,1.4s1.2,2.2,1.2,3.9v1.2h-6.7c0.1,0.7,0.4,1.2,0.8,1.7s1,0.6,1.7,0.6c1.1,0,1.9-0.4,2.5-1.2
				l1.4,1.6c-0.4,0.6-1,1.1-1.7,1.4S1152.7,8465.2,1151.9,8465.2z M1151.5,8456.5c-0.6,0-1,0.2-1.4,0.6c-0.3,0.4-0.6,0.9-0.7,1.6
				h3.9v-0.2c0-0.6-0.2-1.1-0.5-1.5C1152.6,8456.7,1152.1,8456.5,1151.5,8456.5z"/>
		</g>
		<g class="st3">
			<path class="st5" d="M1043.5,8497.5l3.2-10.7h3.3l-5,14.2h-3.1l-4.9-14.2h3.3L1043.5,8497.5z"/>
			<path class="st5" d="M1060.1,8497.6l2-7.1h2.9l-3.6,10.6h-2.7l-3.6-10.6h2.9L1060.1,8497.6z"/>
			<path class="st5" d="M1065.7,8495.6c0-1,0.2-2,0.6-2.8s1-1.5,1.7-1.9s1.6-0.7,2.6-0.7c1.4,0,2.6,0.4,3.5,1.3s1.4,2.1,1.5,3.6
				l0,0.7c0,1.6-0.5,2.9-1.4,3.9s-2.1,1.5-3.6,1.5s-2.7-0.5-3.6-1.5s-1.4-2.3-1.4-4V8495.6z M1068.5,8495.8c0,1,0.2,1.8,0.6,2.3
				s0.9,0.8,1.6,0.8c0.7,0,1.2-0.3,1.6-0.8c0.4-0.5,0.6-1.4,0.6-2.5c0-1-0.2-1.7-0.6-2.3s-0.9-0.8-1.6-0.8c-0.7,0-1.2,0.3-1.6,0.8
				S1068.5,8494.7,1068.5,8495.8z"/>
			<path class="st5" d="M1080.4,8501h-2.8v-15h2.8V8501z"/>
			<path class="st5" d="M1089,8499.9c-0.7,0.8-1.7,1.3-2.9,1.3c-1.1,0-2-0.3-2.6-1s-0.9-1.6-0.9-2.9v-6.9h2.8v6.8
				c0,1.1,0.5,1.7,1.5,1.7c1,0,1.6-0.3,2-1v-7.5h2.8v10.6h-2.7L1089,8499.9z"/>
			<path class="st5" d="M1096.6,8490.4l0.1,1.2c0.7-0.9,1.8-1.4,3-1.4c1.4,0,2.3,0.5,2.8,1.6c0.7-1.1,1.8-1.6,3.2-1.6
				c1.1,0,2,0.3,2.6,1s0.8,1.7,0.8,3v6.7h-2.8v-6.8c0-0.6-0.1-1-0.4-1.3s-0.6-0.4-1.2-0.4c-0.8,0-1.4,0.4-1.8,1.2l0,7.3h-2.8v-6.7
				c0-0.6-0.1-1.1-0.4-1.3s-0.7-0.4-1.2-0.4c-0.8,0-1.4,0.3-1.7,1v7.5h-2.8v-10.6H1096.6z"/>
			<path class="st5" d="M1116.1,8501.2c-1.5,0-2.8-0.5-3.8-1.4s-1.5-2.2-1.5-3.8v-0.3c0-1.1,0.2-2,0.6-2.8s1-1.5,1.7-1.9
				s1.6-0.7,2.6-0.7c1.4,0,2.6,0.5,3.4,1.4s1.2,2.2,1.2,3.9v1.2h-6.7c0.1,0.7,0.4,1.2,0.8,1.7s1,0.6,1.7,0.6c1.1,0,1.9-0.4,2.5-1.2
				l1.4,1.6c-0.4,0.6-1,1.1-1.7,1.4S1117,8501.2,1116.1,8501.2z M1115.8,8492.5c-0.6,0-1,0.2-1.4,0.6c-0.3,0.4-0.6,0.9-0.7,1.6h3.9
				v-0.2c0-0.6-0.2-1.1-0.5-1.5C1116.8,8492.7,1116.4,8492.5,1115.8,8492.5z"/>
			<path class="st5" d="M1124.6,8490.4l0.1,1.2c0.8-0.9,1.8-1.4,3-1.4c1.1,0,2,0.3,2.5,1s0.8,1.6,0.8,2.9v6.8h-2.8v-6.8
				c0-0.6-0.1-1-0.4-1.3s-0.7-0.4-1.3-0.4c-0.8,0-1.4,0.3-1.8,1v7.5h-2.8v-10.6H1124.6z"/>
			<path class="st5" d="M1137.8,8495.6c0-1.6,0.4-3,1.1-3.9s1.7-1.5,3-1.5c1,0,1.9,0.4,2.5,1.2v-5.4h2.8v15h-2.5l-0.1-1.1
				c-0.7,0.9-1.6,1.3-2.7,1.3c-1.2,0-2.2-0.5-3-1.5S1137.8,8497.4,1137.8,8495.6z M1140.6,8495.8c0,1,0.2,1.8,0.5,2.3
				c0.3,0.5,0.8,0.8,1.5,0.8c0.9,0,1.5-0.4,1.8-1.1v-4.2c-0.4-0.7-1-1.1-1.8-1.1C1141.3,8492.5,1140.6,8493.6,1140.6,8495.8z"/>
			<path class="st5" d="M1154.3,8501.2c-1.5,0-2.8-0.5-3.8-1.4s-1.5-2.2-1.5-3.8v-0.3c0-1.1,0.2-2,0.6-2.8s1-1.5,1.7-1.9
				s1.6-0.7,2.6-0.7c1.4,0,2.6,0.5,3.4,1.4s1.2,2.2,1.2,3.9v1.2h-6.7c0.1,0.7,0.4,1.2,0.8,1.7s1,0.6,1.7,0.6c1.1,0,1.9-0.4,2.5-1.2
				l1.4,1.6c-0.4,0.6-1,1.1-1.7,1.4S1155.2,8501.2,1154.3,8501.2z M1154,8492.5c-0.6,0-1,0.2-1.4,0.6c-0.3,0.4-0.6,0.9-0.7,1.6h3.9
				v-0.2c0-0.6-0.2-1.1-0.5-1.5C1155.1,8492.7,1154.6,8492.5,1154,8492.5z"/>
			<path class="st5" d="M1164.8,8495.6c0-1.7,0.4-3,1.1-3.9s1.8-1.4,3-1.4c1.1,0,2,0.4,2.7,1.3l0.2-1.1h2.5v14.6h-2.8v-5
				c-0.7,0.7-1.5,1.1-2.6,1.1c-1.3,0-2.3-0.5-3-1.5S1164.8,8497.4,1164.8,8495.6z M1167.7,8495.8c0,1,0.2,1.8,0.5,2.3
				s0.9,0.8,1.5,0.8c0.9,0,1.5-0.3,1.8-1v-4.4c-0.4-0.7-1-1-1.8-1c-0.7,0-1.2,0.3-1.5,0.8S1167.7,8494.7,1167.7,8495.8z"/>
			<path class="st5" d="M1182.9,8499.9c-0.7,0.8-1.7,1.3-2.9,1.3c-1.1,0-2-0.3-2.6-1s-0.9-1.6-0.9-2.9v-6.9h2.8v6.8
				c0,1.1,0.5,1.7,1.5,1.7c1,0,1.6-0.3,2-1v-7.5h2.8v10.6h-2.7L1182.9,8499.9z"/>
			<path class="st5" d="M1190.8,8501h-2.8v-10.6h2.8V8501z M1190,8486.1h3.1l-2.7,3h-2.3L1190,8486.1z"/>
			<path class="st5" d="M1195.9,8490.4l0.1,1.2c0.7-0.9,1.8-1.4,3-1.4c1.4,0,2.3,0.5,2.8,1.6c0.7-1.1,1.8-1.6,3.2-1.6
				c1.1,0,2,0.3,2.6,1s0.8,1.7,0.8,3v6.7h-2.8v-6.8c0-0.6-0.1-1-0.4-1.3s-0.6-0.4-1.2-0.4c-0.8,0-1.4,0.4-1.8,1.2l0,7.3h-2.8v-6.7
				c0-0.6-0.1-1.1-0.4-1.3s-0.7-0.4-1.2-0.4c-0.8,0-1.4,0.3-1.7,1v7.5h-2.8v-10.6H1195.9z"/>
			<path class="st5" d="M1210.5,8487.7c0-0.4,0.1-0.8,0.4-1s0.7-0.4,1.2-0.4c0.5,0,0.9,0.1,1.2,0.4s0.4,0.6,0.4,1
				c0,0.4-0.1,0.8-0.4,1.1s-0.7,0.4-1.1,0.4s-0.9-0.1-1.1-0.4S1210.5,8488.1,1210.5,8487.7z M1213.5,8501h-2.8v-10.6h2.8V8501z"/>
			<path class="st5" d="M1220.3,8498.9c0.5,0,0.9-0.1,1.3-0.4s0.5-0.7,0.5-1.1h2.6c0,0.7-0.2,1.4-0.6,2s-0.9,1.1-1.6,1.4
				s-1.4,0.5-2.2,0.5c-1.5,0-2.7-0.5-3.6-1.4s-1.3-2.3-1.3-4v-0.2c0-1.6,0.4-2.9,1.3-3.9s2.1-1.5,3.6-1.5c1.3,0,2.4,0.4,3.2,1.1
				s1.2,1.8,1.2,3h-2.6c0-0.5-0.2-1-0.5-1.3s-0.8-0.5-1.3-0.5c-0.7,0-1.2,0.2-1.5,0.7s-0.5,1.3-0.5,2.3v0.3c0,1.1,0.2,1.9,0.5,2.3
				S1219.6,8498.9,1220.3,8498.9z"/>
			<path class="st5" d="M1225.8,8495.6c0-1,0.2-2,0.6-2.8s1-1.5,1.7-1.9s1.6-0.7,2.6-0.7c1.4,0,2.6,0.4,3.5,1.3s1.4,2.1,1.5,3.6
				l0,0.7c0,1.6-0.5,2.9-1.4,3.9s-2.1,1.5-3.6,1.5s-2.7-0.5-3.6-1.5s-1.4-2.3-1.4-4V8495.6z M1228.7,8495.8c0,1,0.2,1.8,0.6,2.3
				s0.9,0.8,1.6,0.8c0.7,0,1.2-0.3,1.6-0.8c0.4-0.5,0.6-1.4,0.6-2.5c0-1-0.2-1.7-0.6-2.3s-0.9-0.8-1.6-0.8c-0.7,0-1.2,0.3-1.6,0.8
				S1228.7,8494.7,1228.7,8495.8z"/>
			<path class="st5" d="M1252.1,8495.8c0,1.6-0.4,2.9-1.1,3.9s-1.7,1.5-3,1.5c-1.1,0-1.9-0.4-2.6-1.1v5h-2.8v-14.6h2.6l0.1,1
				c0.7-0.8,1.6-1.2,2.7-1.2c1.3,0,2.3,0.5,3,1.4s1.1,2.3,1.1,4V8495.8z M1249.3,8495.6c0-1-0.2-1.7-0.5-2.3
				c-0.3-0.5-0.9-0.8-1.5-0.8c-0.9,0-1.5,0.3-1.8,1v4.3c0.3,0.7,1,1,1.8,1C1248.6,8498.9,1249.3,8497.8,1249.3,8495.6z"/>
			<path class="st5" d="M1260.2,8499.9c-0.7,0.8-1.7,1.3-2.9,1.3c-1.1,0-2-0.3-2.6-1s-0.9-1.6-0.9-2.9v-6.9h2.8v6.8
				c0,1.1,0.5,1.7,1.5,1.7c1,0,1.6-0.3,2-1v-7.5h2.8v10.6h-2.7L1260.2,8499.9z"/>
			<path class="st5" d="M1271,8493.1c-0.4-0.1-0.7-0.1-1-0.1c-1.1,0-1.8,0.4-2.1,1.1v6.9h-2.8v-10.6h2.7l0.1,1.3
				c0.6-1,1.4-1.5,2.4-1.5c0.3,0,0.6,0,0.9,0.1L1271,8493.1z"/>
			<path class="st5" d="M1271.5,8495.6c0-1,0.2-2,0.6-2.8s1-1.5,1.7-1.9s1.6-0.7,2.6-0.7c1.4,0,2.6,0.4,3.5,1.3s1.4,2.1,1.5,3.6
				l0,0.7c0,1.6-0.5,2.9-1.4,3.9s-2.1,1.5-3.6,1.5s-2.7-0.5-3.6-1.5s-1.4-2.3-1.4-4V8495.6z M1274.4,8495.8c0,1,0.2,1.8,0.6,2.3
				s0.9,0.8,1.6,0.8c0.7,0,1.2-0.3,1.6-0.8c0.4-0.5,0.6-1.4,0.6-2.5c0-1-0.2-1.7-0.6-2.3s-0.9-0.8-1.6-0.8c-0.7,0-1.2,0.3-1.6,0.8
				S1274.4,8494.7,1274.4,8495.8z"/>
		</g>
		<g class="st3">
			<path class="st5" d="M1049.4,8532.3c-0.1,1.5-0.7,2.7-1.7,3.6s-2.4,1.3-4,1.3c-1.8,0-3.3-0.6-4.3-1.8s-1.6-2.9-1.6-5.1v-0.9
				c0-1.4,0.2-2.6,0.7-3.6s1.2-1.8,2.1-2.4s1.9-0.8,3.1-0.8c1.6,0,3,0.4,4,1.3s1.6,2.1,1.7,3.7h-2.9c-0.1-0.9-0.3-1.6-0.8-2
				s-1.1-0.6-2-0.6c-1,0-1.7,0.3-2.2,1s-0.7,1.8-0.7,3.3v1.1c0,1.5,0.2,2.7,0.7,3.4s1.2,1.1,2.2,1.1c0.9,0,1.6-0.2,2-0.6
				s0.7-1.1,0.8-1.9H1049.4z"/>
			<path class="st5" d="M1053,8522h3.1l-2.7,3h-2.3L1053,8522z"/>
			<path class="st5" d="M1067.6,8537.2c-1.5,0-2.8-0.5-3.8-1.4s-1.5-2.2-1.5-3.8v-0.3c0-1.1,0.2-2,0.6-2.8s1-1.5,1.7-1.9
				s1.6-0.7,2.6-0.7c1.4,0,2.6,0.5,3.4,1.4s1.2,2.2,1.2,3.9v1.2h-6.7c0.1,0.7,0.4,1.2,0.8,1.7s1,0.6,1.7,0.6c1.1,0,1.9-0.4,2.5-1.2
				l1.4,1.6c-0.4,0.6-1,1.1-1.7,1.4S1068.5,8537.2,1067.6,8537.2z M1067.3,8528.5c-0.6,0-1,0.2-1.4,0.6c-0.3,0.4-0.6,0.9-0.7,1.6
				h3.9v-0.2c0-0.6-0.2-1.1-0.5-1.5C1068.4,8528.7,1067.9,8528.5,1067.3,8528.5z"/>
			<path class="st5" d="M1079.3,8534.1c0-0.3-0.2-0.6-0.5-0.8s-0.9-0.4-1.6-0.5c-2.5-0.5-3.8-1.6-3.8-3.2c0-0.9,0.4-1.7,1.2-2.3
				s1.8-0.9,3.1-0.9c1.3,0,2.4,0.3,3.2,0.9s1.2,1.5,1.2,2.5h-2.8c0-0.4-0.1-0.7-0.4-1s-0.7-0.4-1.2-0.4c-0.5,0-0.8,0.1-1.1,0.3
				s-0.4,0.5-0.4,0.8c0,0.3,0.1,0.6,0.4,0.8s0.8,0.4,1.5,0.5s1.3,0.3,1.8,0.5c1.5,0.5,2.2,1.5,2.2,2.8c0,1-0.4,1.7-1.2,2.3
				s-1.9,0.9-3.2,0.9c-0.9,0-1.7-0.2-2.4-0.5s-1.2-0.7-1.6-1.3s-0.6-1.1-0.6-1.8h2.7c0,0.5,0.2,0.9,0.6,1.2s0.8,0.4,1.4,0.4
				c0.5,0,0.9-0.1,1.2-0.3S1079.3,8534.4,1079.3,8534.1z"/>
			<path class="st5" d="M1093.7,8537.2c-1.5,0-2.8-0.5-3.8-1.4s-1.5-2.2-1.5-3.8v-0.3c0-1.1,0.2-2,0.6-2.8s1-1.5,1.7-1.9
				s1.6-0.7,2.6-0.7c1.4,0,2.6,0.5,3.4,1.4s1.2,2.2,1.2,3.9v1.2h-6.7c0.1,0.7,0.4,1.2,0.8,1.7s1,0.6,1.7,0.6c1.1,0,1.9-0.4,2.5-1.2
				l1.4,1.6c-0.4,0.6-1,1.1-1.7,1.4S1094.6,8537.2,1093.7,8537.2z M1093.4,8528.5c-0.6,0-1,0.2-1.4,0.6c-0.3,0.4-0.6,0.9-0.7,1.6
				h3.9v-0.2c0-0.6-0.2-1.1-0.5-1.5C1094.5,8528.7,1094,8528.5,1093.4,8528.5z"/>
			<path class="st5" d="M1102.6,8537h-2.8v-15h2.8V8537z"/>
			<path class="st5" d="M1109.8,8525.5c0-0.9,0.3-1.6,0.8-2.1s1.3-0.8,2.2-0.8c0.9,0,1.7,0.3,2.2,0.8s0.8,1.3,0.8,2.2v0.7
				c0,0.9-0.3,1.6-0.8,2.1s-1.3,0.8-2.2,0.8c-0.9,0-1.7-0.3-2.2-0.8s-0.9-1.3-0.9-2.2V8525.5z M1111.7,8526.3c0,0.4,0.1,0.7,0.3,0.9
				s0.5,0.4,0.9,0.4s0.7-0.1,0.9-0.4s0.3-0.6,0.3-1v-0.7c0-0.4-0.1-0.7-0.3-1s-0.5-0.4-0.9-0.4c-0.4,0-0.6,0.1-0.9,0.4
				s-0.3,0.6-0.3,1V8526.3z M1113.4,8535.9l-1.4-0.7l6.9-11.1l1.4,0.7L1113.4,8535.9z M1116.6,8533.5c0-0.9,0.3-1.6,0.9-2.1
				s1.3-0.8,2.2-0.8c0.9,0,1.7,0.3,2.2,0.8s0.9,1.3,0.9,2.2v0.7c0,0.9-0.3,1.6-0.8,2.1s-1.3,0.8-2.2,0.8c-0.9,0-1.7-0.3-2.3-0.8
				s-0.8-1.3-0.8-2.1V8533.5z M1118.5,8534.3c0,0.4,0.1,0.7,0.4,0.9c0.2,0.3,0.5,0.4,0.9,0.4c0.8,0,1.2-0.4,1.2-1.3v-0.7
				c0-0.4-0.1-0.7-0.3-0.9s-0.5-0.4-0.9-0.4s-0.7,0.1-0.9,0.4s-0.3,0.6-0.3,1V8534.3z"/>
			<path class="st5" d="M1129.3,8531.6c0-1.6,0.4-3,1.1-3.9s1.7-1.5,3-1.5c1,0,1.9,0.4,2.5,1.2v-5.4h2.8v15h-2.5l-0.1-1.1
				c-0.7,0.9-1.6,1.3-2.7,1.3c-1.2,0-2.2-0.5-3-1.5S1129.3,8533.4,1129.3,8531.6z M1132.1,8531.8c0,1,0.2,1.8,0.5,2.3
				c0.3,0.5,0.8,0.8,1.5,0.8c0.9,0,1.5-0.4,1.8-1.1v-4.2c-0.4-0.7-1-1.1-1.8-1.1C1132.8,8528.5,1132.1,8529.6,1132.1,8531.8z"/>
			<path class="st5" d="M1145.8,8537.2c-1.5,0-2.8-0.5-3.8-1.4s-1.5-2.2-1.5-3.8v-0.3c0-1.1,0.2-2,0.6-2.8s1-1.5,1.7-1.9
				s1.6-0.7,2.6-0.7c1.4,0,2.6,0.5,3.4,1.4s1.2,2.2,1.2,3.9v1.2h-6.7c0.1,0.7,0.4,1.2,0.8,1.7s1,0.6,1.7,0.6c1.1,0,1.9-0.4,2.5-1.2
				l1.4,1.6c-0.4,0.6-1,1.1-1.7,1.4S1146.7,8537.2,1145.8,8537.2z M1145.5,8528.5c-0.6,0-1,0.2-1.4,0.6c-0.3,0.4-0.6,0.9-0.7,1.6
				h3.9v-0.2c0-0.6-0.2-1.1-0.5-1.5C1146.6,8528.7,1146.1,8528.5,1145.5,8528.5z"/>
			<path class="st5" d="M1159.7,8537h-2.8v-15h2.8V8537z"/>
			<path class="st5" d="M1168.2,8537c-0.1-0.3-0.2-0.6-0.3-0.9c-0.7,0.8-1.6,1.1-2.7,1.1c-1,0-1.9-0.3-2.6-0.9s-1-1.4-1-2.3
				c0-1.1,0.4-2,1.2-2.6s2-0.9,3.6-0.9h1.3v-0.6c0-0.5-0.1-0.9-0.4-1.2s-0.6-0.4-1.2-0.4c-0.5,0-0.8,0.1-1.1,0.3s-0.4,0.5-0.4,0.9
				h-2.8c0-0.6,0.2-1.2,0.6-1.7s0.9-0.9,1.6-1.2s1.5-0.4,2.3-0.4c1.3,0,2.3,0.3,3.1,1s1.1,1.6,1.1,2.8v4.6c0,1,0.1,1.8,0.4,2.3v0.2
				H1168.2z M1165.8,8535c0.4,0,0.8-0.1,1.2-0.3s0.6-0.4,0.8-0.7v-1.8h-1.1c-1.4,0-2.2,0.5-2.3,1.5l0,0.2c0,0.4,0.1,0.6,0.4,0.9
				S1165.4,8535,1165.8,8535z"/>
			<path class="st5" d="M1182.2,8534.9c0.5,0,0.9-0.1,1.3-0.4s0.5-0.7,0.5-1.1h2.6c0,0.7-0.2,1.4-0.6,2c-0.4,0.6-0.9,1.1-1.6,1.4
				s-1.4,0.5-2.2,0.5c-1.5,0-2.7-0.5-3.6-1.4s-1.3-2.3-1.3-4v-0.2c0-1.6,0.4-2.9,1.3-3.9s2.1-1.5,3.6-1.5c1.3,0,2.4,0.4,3.2,1.1
				c0.8,0.8,1.2,1.8,1.2,3h-2.6c0-0.5-0.2-1-0.5-1.3s-0.8-0.5-1.3-0.5c-0.7,0-1.2,0.2-1.5,0.7s-0.5,1.3-0.5,2.3v0.3
				c0,1.1,0.2,1.9,0.5,2.3S1181.5,8534.9,1182.2,8534.9z"/>
			<path class="st5" d="M1187.8,8531.6c0-1,0.2-2,0.6-2.8s1-1.5,1.7-1.9s1.6-0.7,2.6-0.7c1.4,0,2.6,0.4,3.5,1.3s1.4,2.1,1.5,3.6
				l0,0.7c0,1.6-0.5,2.9-1.4,3.9s-2.1,1.5-3.6,1.5s-2.7-0.5-3.6-1.5s-1.4-2.3-1.4-4V8531.6z M1190.6,8531.8c0,1,0.2,1.8,0.6,2.3
				s0.9,0.8,1.6,0.8c0.7,0,1.2-0.3,1.6-0.8c0.4-0.5,0.6-1.4,0.6-2.5c0-1-0.2-1.7-0.6-2.3s-0.9-0.8-1.6-0.8c-0.7,0-1.2,0.3-1.6,0.8
				S1190.6,8530.7,1190.6,8531.8z"/>
			<path class="st5" d="M1202.1,8526.4l0.1,1.2c0.8-0.9,1.8-1.4,3-1.4c1.1,0,2,0.3,2.5,1s0.8,1.6,0.8,2.9v6.8h-2.8v-6.8
				c0-0.6-0.1-1-0.4-1.3s-0.7-0.4-1.3-0.4c-0.8,0-1.4,0.3-1.8,1v7.5h-2.8v-10.6H1202.1z"/>
			<path class="st5" d="M1215.1,8534.9c0.5,0,0.9-0.1,1.3-0.4s0.5-0.7,0.5-1.1h2.6c0,0.7-0.2,1.4-0.6,2s-0.9,1.1-1.6,1.4
				s-1.4,0.5-2.2,0.5c-1.5,0-2.7-0.5-3.6-1.4s-1.3-2.3-1.3-4v-0.2c0-1.6,0.4-2.9,1.3-3.9s2.1-1.5,3.6-1.5c1.3,0,2.4,0.4,3.2,1.1
				s1.2,1.8,1.2,3h-2.6c0-0.5-0.2-1-0.5-1.3s-0.8-0.5-1.3-0.5c-0.7,0-1.2,0.2-1.5,0.7s-0.5,1.3-0.5,2.3v0.3c0,1.1,0.2,1.9,0.5,2.3
				S1214.4,8534.9,1215.1,8534.9z"/>
			<path class="st5" d="M1226,8537.2c-1.5,0-2.8-0.5-3.8-1.4s-1.5-2.2-1.5-3.8v-0.3c0-1.1,0.2-2,0.6-2.8s1-1.5,1.7-1.9
				s1.6-0.7,2.6-0.7c1.4,0,2.6,0.5,3.4,1.4s1.2,2.2,1.2,3.9v1.2h-6.7c0.1,0.7,0.4,1.2,0.8,1.7s1,0.6,1.7,0.6c1.1,0,1.9-0.4,2.5-1.2
				l1.4,1.6c-0.4,0.6-1,1.1-1.7,1.4S1226.9,8537.2,1226,8537.2z M1225.7,8528.5c-0.6,0-1,0.2-1.4,0.6c-0.3,0.4-0.6,0.9-0.7,1.6h3.9
				v-0.2c0-0.6-0.2-1.1-0.5-1.5C1226.7,8528.7,1226.3,8528.5,1225.7,8528.5z"/>
			<path class="st5" d="M1234.5,8526.4l0.1,1.2c0.8-0.9,1.8-1.4,3-1.4c1.1,0,2,0.3,2.5,1s0.8,1.6,0.8,2.9v6.8h-2.8v-6.8
				c0-0.6-0.1-1-0.4-1.3s-0.7-0.4-1.3-0.4c-0.8,0-1.4,0.3-1.8,1v7.5h-2.8v-10.6H1234.5z"/>
			<path class="st5" d="M1246.5,8523.8v2.6h1.8v2.1h-1.8v5.3c0,0.4,0.1,0.7,0.2,0.8s0.4,0.3,0.9,0.3c0.3,0,0.6,0,0.8-0.1v2.1
				c-0.6,0.2-1.1,0.3-1.7,0.3c-2,0-3-1-3-3v-5.7h-1.5v-2.1h1.5v-2.6H1246.5z"/>
			<path class="st5" d="M1255.8,8529.1c-0.4-0.1-0.7-0.1-1-0.1c-1.1,0-1.8,0.4-2.1,1.1v6.9h-2.8v-10.6h2.7l0.1,1.3
				c0.6-1,1.4-1.5,2.4-1.5c0.3,0,0.6,0,0.9,0.1L1255.8,8529.1z"/>
			<path class="st5" d="M1263,8537c-0.1-0.3-0.2-0.6-0.3-0.9c-0.7,0.8-1.6,1.1-2.7,1.1c-1,0-1.9-0.3-2.6-0.9s-1-1.4-1-2.3
				c0-1.1,0.4-2,1.2-2.6s2-0.9,3.6-0.9h1.3v-0.6c0-0.5-0.1-0.9-0.4-1.2s-0.6-0.4-1.2-0.4c-0.5,0-0.8,0.1-1.1,0.3s-0.4,0.5-0.4,0.9
				h-2.8c0-0.6,0.2-1.2,0.6-1.7s0.9-0.9,1.6-1.2s1.5-0.4,2.3-0.4c1.3,0,2.3,0.3,3.1,1s1.1,1.6,1.1,2.8v4.6c0,1,0.1,1.8,0.4,2.3v0.2
				H1263z M1260.7,8535c0.4,0,0.8-0.1,1.2-0.3s0.6-0.4,0.8-0.7v-1.8h-1.1c-1.4,0-2.2,0.5-2.3,1.5l0,0.2c0,0.4,0.1,0.6,0.4,0.9
				S1260.3,8535,1260.7,8535z"/>
			<path class="st5" d="M1272,8534.9c0.5,0,0.9-0.1,1.3-0.4s0.5-0.7,0.5-1.1h2.6c0,0.7-0.2,1.4-0.6,2s-0.9,1.1-1.6,1.4
				s-1.4,0.5-2.2,0.5c-1.5,0-2.7-0.5-3.6-1.4s-1.3-2.3-1.3-4v-0.2c0-1.6,0.4-2.9,1.3-3.9s2.1-1.5,3.6-1.5c1.3,0,2.4,0.4,3.2,1.1
				s1.2,1.8,1.2,3h-2.6c0-0.5-0.2-1-0.5-1.3s-0.8-0.5-1.3-0.5c-0.7,0-1.2,0.2-1.5,0.7s-0.5,1.3-0.5,2.3v0.3c0,1.1,0.2,1.9,0.5,2.3
				S1271.3,8534.9,1272,8534.9z"/>
			<path class="st5" d="M1278,8523.7c0-0.4,0.1-0.8,0.4-1s0.7-0.4,1.2-0.4c0.5,0,0.9,0.1,1.2,0.4s0.4,0.6,0.4,1
				c0,0.4-0.1,0.8-0.4,1.1s-0.7,0.4-1.1,0.4s-0.9-0.1-1.1-0.4S1278,8524.1,1278,8523.7z M1281,8537h-2.8v-10.6h2.8V8537z"/>
			<path class="st5" d="M1282.9,8531.6c0-1,0.2-2,0.6-2.8s1-1.5,1.7-1.9s1.6-0.7,2.6-0.7c1.4,0,2.6,0.4,3.5,1.3s1.4,2.1,1.5,3.6
				l0,0.7c0,1.6-0.5,2.9-1.4,3.9s-2.1,1.5-3.6,1.5s-2.7-0.5-3.6-1.5s-1.4-2.3-1.4-4V8531.6z M1285.7,8531.8c0,1,0.2,1.8,0.6,2.3
				s0.9,0.8,1.6,0.8c0.7,0,1.2-0.3,1.6-0.8c0.4-0.5,0.6-1.4,0.6-2.5c0-1-0.2-1.7-0.6-2.3s-0.9-0.8-1.6-0.8c-0.7,0-1.2,0.3-1.6,0.8
				S1285.7,8530.7,1285.7,8531.8z M1288.5,8522h3.1l-2.7,3h-2.3L1288.5,8522z"/>
			<path class="st5" d="M1297.3,8526.4l0.1,1.2c0.8-0.9,1.8-1.4,3-1.4c1.1,0,2,0.3,2.5,1s0.8,1.6,0.8,2.9v6.8h-2.8v-6.8
				c0-0.6-0.1-1-0.4-1.3s-0.7-0.4-1.3-0.4c-0.8,0-1.4,0.3-1.8,1v7.5h-2.8v-10.6H1297.3z"/>
		</g>
		<g class="st3">
			<path class="st5" d="M1043.5,8569.5l3.2-10.7h3.3l-5,14.2h-3.1l-4.9-14.2h3.3L1043.5,8569.5z"/>
			<path class="st5" d="M1053,8558h3.1l-2.7,3h-2.3L1053,8558z"/>
			<path class="st5" d="M1067.6,8573.2c-1.5,0-2.8-0.5-3.8-1.4s-1.5-2.2-1.5-3.8v-0.3c0-1.1,0.2-2,0.6-2.8s1-1.5,1.7-1.9
				s1.6-0.7,2.6-0.7c1.4,0,2.6,0.5,3.4,1.4s1.2,2.2,1.2,3.9v1.2h-6.7c0.1,0.7,0.4,1.2,0.8,1.7s1,0.6,1.7,0.6c1.1,0,1.9-0.4,2.5-1.2
				l1.4,1.6c-0.4,0.6-1,1.1-1.7,1.4S1068.5,8573.2,1067.6,8573.2z M1067.3,8564.5c-0.6,0-1,0.2-1.4,0.6c-0.3,0.4-0.6,0.9-0.7,1.6
				h3.9v-0.2c0-0.6-0.2-1.1-0.5-1.5C1068.4,8564.7,1067.9,8564.5,1067.3,8564.5z"/>
			<path class="st5" d="M1079.3,8570.1c0-0.3-0.2-0.6-0.5-0.8s-0.9-0.4-1.6-0.5c-2.5-0.5-3.8-1.6-3.8-3.2c0-0.9,0.4-1.7,1.2-2.3
				s1.8-0.9,3.1-0.9c1.3,0,2.4,0.3,3.2,0.9s1.2,1.5,1.2,2.5h-2.8c0-0.4-0.1-0.7-0.4-1s-0.7-0.4-1.2-0.4c-0.5,0-0.8,0.1-1.1,0.3
				s-0.4,0.5-0.4,0.8c0,0.3,0.1,0.6,0.4,0.8s0.8,0.4,1.5,0.5s1.3,0.3,1.8,0.5c1.5,0.5,2.2,1.5,2.2,2.8c0,1-0.4,1.7-1.2,2.3
				s-1.9,0.9-3.2,0.9c-0.9,0-1.7-0.2-2.4-0.5s-1.2-0.7-1.6-1.3s-0.6-1.1-0.6-1.8h2.7c0,0.5,0.2,0.9,0.6,1.2s0.8,0.4,1.4,0.4
				c0.5,0,0.9-0.1,1.2-0.3S1079.3,8570.4,1079.3,8570.1z"/>
			<path class="st5" d="M1093.7,8573.2c-1.5,0-2.8-0.5-3.8-1.4s-1.5-2.2-1.5-3.8v-0.3c0-1.1,0.2-2,0.6-2.8s1-1.5,1.7-1.9
				s1.6-0.7,2.6-0.7c1.4,0,2.6,0.5,3.4,1.4s1.2,2.2,1.2,3.9v1.2h-6.7c0.1,0.7,0.4,1.2,0.8,1.7s1,0.6,1.7,0.6c1.1,0,1.9-0.4,2.5-1.2
				l1.4,1.6c-0.4,0.6-1,1.1-1.7,1.4S1094.6,8573.2,1093.7,8573.2z M1093.4,8564.5c-0.6,0-1,0.2-1.4,0.6c-0.3,0.4-0.6,0.9-0.7,1.6
				h3.9v-0.2c0-0.6-0.2-1.1-0.5-1.5C1094.4,8564.7,1094,8564.5,1093.4,8564.5z"/>
			<path class="st5" d="M1102.6,8573h-2.8v-15h2.8V8573z"/>
			<path class="st5" d="M1113.9,8569.6l2-7.1h2.9l-3.6,10.6h-2.7l-3.6-10.6h2.9L1113.9,8569.6z"/>
			<path class="st5" d="M1119.5,8567.6c0-1,0.2-2,0.6-2.8s1-1.5,1.7-1.9s1.6-0.7,2.6-0.7c1.4,0,2.6,0.4,3.5,1.3s1.4,2.1,1.5,3.6
				l0,0.7c0,1.6-0.5,2.9-1.4,3.9s-2.1,1.5-3.6,1.5s-2.7-0.5-3.6-1.5s-1.4-2.3-1.4-4V8567.6z M1122.3,8567.8c0,1,0.2,1.8,0.6,2.3
				s0.9,0.8,1.6,0.8c0.7,0,1.2-0.3,1.6-0.8c0.4-0.5,0.6-1.4,0.6-2.5c0-1-0.2-1.7-0.6-2.3s-0.9-0.8-1.6-0.8c-0.7,0-1.2,0.3-1.6,0.8
				S1122.3,8566.7,1122.3,8567.8z"/>
			<path class="st5" d="M1134.2,8573h-2.8v-15h2.8V8573z"/>
			<path class="st5" d="M1142.8,8571.9c-0.7,0.8-1.7,1.3-2.9,1.3c-1.1,0-2-0.3-2.6-1s-0.9-1.6-0.9-2.9v-6.9h2.8v6.8
				c0,1.1,0.5,1.7,1.5,1.7c1,0,1.6-0.3,2-1v-7.5h2.8v10.6h-2.7L1142.8,8571.9z"/>
			<path class="st5" d="M1150.3,8562.4l0.1,1.2c0.7-0.9,1.8-1.4,3-1.4c1.4,0,2.3,0.5,2.8,1.6c0.7-1.1,1.8-1.6,3.2-1.6
				c1.1,0,2,0.3,2.6,1s0.8,1.7,0.8,3v6.7h-2.8v-6.8c0-0.6-0.1-1-0.4-1.3s-0.6-0.4-1.2-0.4c-0.8,0-1.4,0.4-1.8,1.2l0,7.3h-2.8v-6.7
				c0-0.6-0.1-1.1-0.4-1.3s-0.7-0.4-1.2-0.4c-0.8,0-1.4,0.3-1.7,1v7.5h-2.8v-10.6H1150.3z"/>
			<path class="st5" d="M1169.9,8573.2c-1.5,0-2.8-0.5-3.8-1.4s-1.5-2.2-1.5-3.8v-0.3c0-1.1,0.2-2,0.6-2.8s1-1.5,1.7-1.9
				s1.6-0.7,2.6-0.7c1.4,0,2.6,0.5,3.4,1.4s1.2,2.2,1.2,3.9v1.2h-6.7c0.1,0.7,0.4,1.2,0.8,1.7s1,0.6,1.7,0.6c1.1,0,1.9-0.4,2.5-1.2
				l1.4,1.6c-0.4,0.6-1,1.1-1.7,1.4S1170.8,8573.2,1169.9,8573.2z M1169.6,8564.5c-0.6,0-1,0.2-1.4,0.6c-0.3,0.4-0.6,0.9-0.7,1.6
				h3.9v-0.2c0-0.6-0.2-1.1-0.5-1.5C1170.6,8564.7,1170.2,8564.5,1169.6,8564.5z"/>
			<path class="st5" d="M1178.4,8562.4l0.1,1.2c0.8-0.9,1.8-1.4,3-1.4c1.1,0,2,0.3,2.5,1s0.8,1.6,0.8,2.9v6.8h-2.8v-6.8
				c0-0.6-0.1-1-0.4-1.3s-0.7-0.4-1.3-0.4c-0.8,0-1.4,0.3-1.8,1v7.5h-2.8v-10.6H1178.4z"/>
			<path class="st5" d="M1195.4,8559.8v2.6h1.8v2.1h-1.8v5.3c0,0.4,0.1,0.7,0.2,0.8s0.4,0.3,0.9,0.3c0.3,0,0.6,0,0.8-0.1v2.1
				c-0.6,0.2-1.1,0.3-1.7,0.3c-2,0-3-1-3-3v-5.7h-1.5v-2.1h1.5v-2.6H1195.4z"/>
			<path class="st5" d="M1198,8567.6c0-1,0.2-2,0.6-2.8s1-1.5,1.7-1.9s1.6-0.7,2.6-0.7c1.4,0,2.6,0.4,3.5,1.3s1.4,2.1,1.5,3.6l0,0.7
				c0,1.6-0.5,2.9-1.4,3.9s-2.1,1.5-3.6,1.5s-2.7-0.5-3.6-1.5s-1.4-2.3-1.4-4V8567.6z M1200.9,8567.8c0,1,0.2,1.8,0.6,2.3
				s0.9,0.8,1.6,0.8c0.7,0,1.2-0.3,1.6-0.8c0.4-0.5,0.6-1.4,0.6-2.5c0-1-0.2-1.7-0.6-2.3s-0.9-0.8-1.6-0.8c-0.7,0-1.2,0.3-1.6,0.8
				S1200.9,8566.7,1200.9,8567.8z"/>
			<path class="st5" d="M1213.2,8559.8v2.6h1.8v2.1h-1.8v5.3c0,0.4,0.1,0.7,0.2,0.8s0.4,0.3,0.9,0.3c0.3,0,0.6,0,0.8-0.1v2.1
				c-0.6,0.2-1.1,0.3-1.7,0.3c-2,0-3-1-3-3v-5.7h-1.5v-2.1h1.5v-2.6H1213.2z"/>
			<path class="st5" d="M1222.7,8573c-0.1-0.3-0.2-0.6-0.3-0.9c-0.7,0.8-1.6,1.1-2.7,1.1c-1,0-1.9-0.3-2.6-0.9s-1-1.4-1-2.3
				c0-1.1,0.4-2,1.2-2.6s2-0.9,3.6-0.9h1.3v-0.6c0-0.5-0.1-0.9-0.4-1.2s-0.6-0.4-1.2-0.4c-0.5,0-0.8,0.1-1.1,0.3s-0.4,0.5-0.4,0.9
				h-2.8c0-0.6,0.2-1.2,0.6-1.7s0.9-0.9,1.6-1.2s1.5-0.4,2.3-0.4c1.3,0,2.3,0.3,3.1,1s1.1,1.6,1.1,2.8v4.6c0,1,0.1,1.8,0.4,2.3v0.2
				H1222.7z M1220.3,8571c0.4,0,0.8-0.1,1.2-0.3s0.6-0.4,0.8-0.7v-1.8h-1.1c-1.4,0-2.2,0.5-2.3,1.5l0,0.2c0,0.4,0.1,0.6,0.4,0.9
				S1219.9,8571,1220.3,8571z"/>
			<path class="st5" d="M1230.2,8573h-2.8v-15h2.8V8573z"/>
			<path class="st5" d="M1237.1,8567.6c0-1.6,0.4-3,1.1-3.9s1.7-1.5,3-1.5c1,0,1.9,0.4,2.5,1.2v-5.4h2.8v15h-2.5l-0.1-1.1
				c-0.7,0.9-1.6,1.3-2.7,1.3c-1.2,0-2.2-0.5-3-1.5S1237.1,8569.4,1237.1,8567.6z M1239.9,8567.8c0,1,0.2,1.8,0.5,2.3
				c0.3,0.5,0.8,0.8,1.5,0.8c0.9,0,1.5-0.4,1.8-1.1v-4.2c-0.4-0.7-1-1.1-1.8-1.1C1240.6,8564.5,1239.9,8565.6,1239.9,8567.8z"/>
			<path class="st5" d="M1253.7,8573.2c-1.5,0-2.8-0.5-3.8-1.4s-1.5-2.2-1.5-3.8v-0.3c0-1.1,0.2-2,0.6-2.8s1-1.5,1.7-1.9
				s1.6-0.7,2.6-0.7c1.4,0,2.6,0.5,3.4,1.4s1.2,2.2,1.2,3.9v1.2h-6.7c0.1,0.7,0.4,1.2,0.8,1.7s1,0.6,1.7,0.6c1.1,0,1.9-0.4,2.5-1.2
				l1.4,1.6c-0.4,0.6-1,1.1-1.7,1.4S1254.6,8573.2,1253.7,8573.2z M1253.4,8564.5c-0.6,0-1,0.2-1.4,0.6c-0.3,0.4-0.6,0.9-0.7,1.6
				h3.9v-0.2c0-0.6-0.2-1.1-0.5-1.5C1254.4,8564.7,1254,8564.5,1253.4,8564.5z"/>
			<path class="st5" d="M1267.6,8573h-2.8v-15h2.8V8573z"/>
			<path class="st5" d="M1276,8573c-0.1-0.3-0.2-0.6-0.3-0.9c-0.7,0.8-1.6,1.1-2.7,1.1c-1,0-1.9-0.3-2.6-0.9s-1-1.4-1-2.3
				c0-1.1,0.4-2,1.2-2.6s2-0.9,3.6-0.9h1.3v-0.6c0-0.5-0.1-0.9-0.4-1.2s-0.6-0.4-1.2-0.4c-0.5,0-0.8,0.1-1.1,0.3s-0.4,0.5-0.4,0.9
				h-2.8c0-0.6,0.2-1.2,0.6-1.7s0.9-0.9,1.6-1.2s1.5-0.4,2.3-0.4c1.3,0,2.3,0.3,3.1,1s1.1,1.6,1.1,2.8v4.6c0,1,0.1,1.8,0.4,2.3v0.2
				H1276z M1273.7,8571c0.4,0,0.8-0.1,1.2-0.3s0.6-0.4,0.8-0.7v-1.8h-1.1c-1.4,0-2.2,0.5-2.3,1.5l0,0.2c0,0.4,0.1,0.6,0.4,0.9
				S1273.3,8571,1273.7,8571z"/>
			<path class="st5" d="M1291.3,8570.1c0-0.3-0.2-0.6-0.5-0.8s-0.9-0.4-1.6-0.5c-2.5-0.5-3.8-1.6-3.8-3.2c0-0.9,0.4-1.7,1.2-2.3
				s1.8-0.9,3.1-0.9c1.3,0,2.4,0.3,3.2,0.9s1.2,1.5,1.2,2.5h-2.8c0-0.4-0.1-0.7-0.4-1s-0.7-0.4-1.2-0.4c-0.5,0-0.8,0.1-1.1,0.3
				s-0.4,0.5-0.4,0.8c0,0.3,0.1,0.6,0.4,0.8s0.8,0.4,1.5,0.5s1.3,0.3,1.8,0.5c1.5,0.5,2.2,1.5,2.2,2.8c0,1-0.4,1.7-1.2,2.3
				s-1.9,0.9-3.2,0.9c-0.9,0-1.7-0.2-2.4-0.5s-1.2-0.7-1.6-1.3s-0.6-1.1-0.6-1.8h2.7c0,0.5,0.2,0.9,0.6,1.2s0.8,0.4,1.4,0.4
				c0.5,0,0.9-0.1,1.2-0.3S1291.3,8570.4,1291.3,8570.1z"/>
			<path class="st5" d="M1295.5,8567.6c0-1,0.2-2,0.6-2.8s1-1.5,1.7-1.9s1.6-0.7,2.6-0.7c1.4,0,2.6,0.4,3.5,1.3s1.4,2.1,1.5,3.6
				l0,0.7c0,1.6-0.5,2.9-1.4,3.9s-2.1,1.5-3.6,1.5s-2.7-0.5-3.6-1.5s-1.4-2.3-1.4-4V8567.6z M1298.3,8567.8c0,1,0.2,1.8,0.6,2.3
				s0.9,0.8,1.6,0.8c0.7,0,1.2-0.3,1.6-0.8c0.4-0.5,0.6-1.4,0.6-2.5c0-1-0.2-1.7-0.6-2.3s-0.9-0.8-1.6-0.8c-0.7,0-1.2,0.3-1.6,0.8
				S1298.3,8566.7,1298.3,8567.8z"/>
			<path class="st5" d="M1310.2,8573h-2.8v-15h2.8V8573z"/>
			<path class="st5" d="M1318.8,8571.9c-0.7,0.8-1.7,1.3-2.9,1.3c-1.1,0-2-0.3-2.6-1s-0.9-1.6-0.9-2.9v-6.9h2.8v6.8
				c0,1.1,0.5,1.7,1.5,1.7c1,0,1.6-0.3,2-1v-7.5h2.8v10.6h-2.7L1318.8,8571.9z"/>
			<path class="st5" d="M1328.1,8570.9c0.5,0,0.9-0.1,1.3-0.4s0.5-0.7,0.5-1.1h2.6c0,0.7-0.2,1.4-0.6,2s-0.9,1.1-1.6,1.4
				s-1.4,0.5-2.2,0.5c-1.5,0-2.7-0.5-3.6-1.4s-1.3-2.3-1.3-4v-0.2c0-1.6,0.4-2.9,1.3-3.9s2.1-1.5,3.6-1.5c1.3,0,2.4,0.4,3.2,1.1
				s1.2,1.8,1.2,3h-2.6c0-0.5-0.2-1-0.5-1.3s-0.8-0.5-1.3-0.5c-0.7,0-1.2,0.2-1.5,0.7s-0.5,1.3-0.5,2.3v0.3c0,1.1,0.2,1.9,0.5,2.3
				S1327.4,8570.9,1328.1,8570.9z"/>
			<path class="st5" d="M1334.1,8559.7c0-0.4,0.1-0.8,0.4-1s0.7-0.4,1.2-0.4c0.5,0,0.9,0.1,1.2,0.4s0.4,0.6,0.4,1
				c0,0.4-0.1,0.8-0.4,1.1s-0.7,0.4-1.1,0.4s-0.9-0.1-1.1-0.4S1334.1,8560.1,1334.1,8559.7z M1337.1,8573h-2.8v-10.6h2.8V8573z"/>
			<path class="st5" d="M1339,8567.6c0-1,0.2-2,0.6-2.8s1-1.5,1.7-1.9s1.6-0.7,2.6-0.7c1.4,0,2.6,0.4,3.5,1.3s1.4,2.1,1.5,3.6l0,0.7
				c0,1.6-0.5,2.9-1.4,3.9s-2.1,1.5-3.6,1.5s-2.7-0.5-3.6-1.5s-1.4-2.3-1.4-4V8567.6z M1341.8,8567.8c0,1,0.2,1.8,0.6,2.3
				s0.9,0.8,1.6,0.8c0.7,0,1.2-0.3,1.6-0.8c0.4-0.5,0.6-1.4,0.6-2.5c0-1-0.2-1.7-0.6-2.3s-0.9-0.8-1.6-0.8c-0.7,0-1.2,0.3-1.6,0.8
				S1341.8,8566.7,1341.8,8567.8z M1344.5,8558h3.1l-2.7,3h-2.3L1344.5,8558z"/>
			<path class="st5" d="M1353.3,8562.4l0.1,1.2c0.8-0.9,1.8-1.4,3-1.4c1.1,0,2,0.3,2.5,1s0.8,1.6,0.8,2.9v6.8h-2.8v-6.8
				c0-0.6-0.1-1-0.4-1.3s-0.7-0.4-1.3-0.4c-0.8,0-1.4,0.3-1.8,1v7.5h-2.8v-10.6H1353.3z"/>
		</g>
		<g id="Grupo_944" transform="translate(1022.249 8448)">
			<g id="Grupo_423">
				<path id="Trazado_635" class="st6" d="M8.4,6.8L1.9,0.2C1.5-0.1,1-0.1,0.7,0.2l0,0L0.2,0.7c-0.3,0.3-0.3,0.8,0,1.1l0,0l5.5,5.5
					l-5.5,5.5c-0.3,0.3-0.3,0.8,0,1.1l0,0l0.5,0.5c0.3,0.3,0.8,0.3,1.1,0l0,0l6.5-6.5C8.7,7.6,8.7,7.1,8.4,6.8L8.4,6.8z"/>
			</g>
		</g>
		<g id="Grupo_944-2" transform="translate(1022.249 8484.055)">
			<g id="Grupo_423-2">
				<path id="Trazado_635-2" class="st6" d="M8.4,6.8L1.9,0.2C1.5-0.1,1-0.1,0.7,0.2l0,0L0.2,0.7c-0.3,0.3-0.3,0.8,0,1.1l0,0
					l5.5,5.5l-5.5,5.5c-0.3,0.3-0.3,0.8,0,1.1l0,0l0.5,0.5c0.3,0.3,0.8,0.3,1.1,0l0,0l6.5-6.5C8.7,7.6,8.7,7.1,8.4,6.8L8.4,6.8z"/>
			</g>
		</g>
		<g id="Grupo_944-3" transform="translate(1022.249 8520.109)">
			<g id="Grupo_423-3">
				<path id="Trazado_635-3" class="st6" d="M8.4,6.8L1.9,0.2C1.5-0.1,1-0.1,0.7,0.2l0,0L0.2,0.7c-0.3,0.3-0.3,0.8,0,1.1l0,0
					l5.5,5.5l-5.5,5.5c-0.3,0.3-0.3,0.8,0,1.1l0,0l0.5,0.5c0.3,0.3,0.8,0.3,1.1,0l0,0l6.5-6.5C8.7,7.6,8.7,7.1,8.4,6.8L8.4,6.8z"/>
			</g>
		</g>
		<g id="Grupo_944-4" transform="translate(1022.249 8556.164)">
			<g id="Grupo_423-4">
				<path id="Trazado_635-4" class="st6" d="M8.4,6.8L1.9,0.2C1.5-0.1,1-0.1,0.7,0.2l0,0L0.2,0.7c-0.3,0.3-0.3,0.8,0,1.1l0,0
					l5.5,5.5l-5.5,5.5c-0.3,0.3-0.3,0.8,0,1.1l0,0l0.5,0.5c0.3,0.3,0.8,0.3,1.1,0l0,0l6.5-6.5C8.7,7.6,8.7,7.1,8.4,6.8L8.4,6.8z"/>
			</g>
		</g>
	</g>
</g>
</svg>
