<?xml version="1.0" encoding="utf-8"?>
<!-- Generator: Adobe Illustrator 26.0.1, SVG Export Plug-In . SVG Version: 6.00 Build 0)  -->
<svg version="1.1" id="Layer_1" xmlns="http://www.w3.org/2000/svg" xmlns:xlink="http://www.w3.org/1999/xlink" x="0px" y="0px"
	 viewBox="0 0 236.7 207.3" style="enable-background:new 0 0 236.7 207.3;" xml:space="preserve">
<style type="text/css">
	.st0{filter:url(#Rectángulo_29523);}
	.st1{fill:url(#Rectángulo_29523-2_00000044154648399072245360000016773428429826975665_);}
	.st2{fill:#B42218;}
	.st3{fill:none;stroke:#12263F;stroke-width:0.806;stroke-linecap:round;stroke-miterlimit:10;}
	.st4{enable-background:new    ;}
	.st5{fill:#12263F;}
	.st6{fill:none;stroke:#12263F;stroke-linecap:round;stroke-miterlimit:10;}
	.st7{fill:#FFFFFF;}
	.st8{fill:url(#Trazado_40937_00000119798211324201835770000017534182127665198230_);}
	.st9{fill:none;stroke:#1D272B;stroke-width:2;stroke-miterlimit:10;}
	.st10{fill:#ECEEF0;}
	.st11{fill:#1D272B;}
</style>
<filter  filterUnits="userSpaceOnUse" height="207.312" id="Rectángulo_29523" width="236.672" x="0" y="0">
	<feOffset  dy="3" input="SourceAlpha"></feOffset>
	<feGaussianBlur  result="blur" stdDeviation="3"></feGaussianBlur>
	<feFlood  flood-opacity="0.161"></feFlood>
	<feComposite  in2="blur" operator="in"></feComposite>
	<feComposite  in="SourceGraphic" operator="over"></feComposite>
</filter>
<g id="Grupo_134234" transform="translate(-1106.158 -10754.215)">
	<g id="Grupo_61744" transform="translate(1108.082 10753.013)">
		<g id="Grupo_57070" transform="translate(0 0)">
			<g transform="matrix(1, 0, 0, 1, -1.92, 1.2)" class="st0">
				
					<linearGradient id="Rectángulo_29523-2_00000124868119249119932100000000433181416030749078_" gradientUnits="userSpaceOnUse" x1="-185.6489" y1="499.465" x2="-185.6489" y2="498.465" gradientTransform="matrix(218.672 0 0 -189.312 40714.5547 94560.7188)">
					<stop  offset="0" style="stop-color:#FFFFFF"/>
					<stop  offset="1" style="stop-color:#F8F8F8"/>
				</linearGradient>
				
					<path id="Rectángulo_29523-2_00000065067261026354004900000012262009725111015096_" style="fill:url(#Rectángulo_29523-2_00000124868119249119932100000000433181416030749078_);" d="
					M19,6h198.7c5.5,0,10,4.5,10,10v169.3c0,5.5-4.5,10-10,10H19c-5.5,0-10-4.5-10-10V16C9,10.5,13.5,6,19,6z"/>
			</g>
			<path id="Trazado_123976" class="st2" d="M7.1,7.2h218.7v9h-97L116,24.8L102.3,16L7.1,16.2V7.2z"/>
			<path id="Trazado_123977" class="st3" d="M124.4,11.8l-7.3,6.9c-0.7,0.7-1.9,0.7-2.6,0l-7.7-7.1"/>
			<g class="st4">
				<path class="st5" d="M53.2,127.2h5.3v2h-7.8v-12.1h2.5V127.2z"/>
				<path class="st5" d="M64.9,129.2c-0.1-0.2-0.2-0.5-0.2-0.8c-0.6,0.6-1.3,1-2.3,1c-0.9,0-1.6-0.3-2.2-0.8
					c-0.6-0.5-0.9-1.2-0.9-1.9c0-1,0.4-1.7,1.1-2.2c0.7-0.5,1.7-0.8,3.1-0.8h1.1v-0.5c0-0.4-0.1-0.7-0.3-1c-0.2-0.2-0.5-0.4-1-0.4
					c-0.4,0-0.7,0.1-1,0.3c-0.2,0.2-0.3,0.5-0.3,0.8h-2.4c0-0.5,0.2-1,0.5-1.4c0.3-0.4,0.8-0.8,1.4-1s1.2-0.4,2-0.4
					c1.1,0,2,0.3,2.6,0.8c0.6,0.6,1,1.3,1,2.3v3.9c0,0.9,0.1,1.5,0.4,1.9v0.1H64.9z M63,127.6c0.4,0,0.7-0.1,1-0.2
					c0.3-0.2,0.5-0.4,0.7-0.6v-1.5h-0.9c-1.2,0-1.8,0.4-1.9,1.2l0,0.1c0,0.3,0.1,0.5,0.3,0.7S62.6,127.6,63,127.6z"/>
				<path class="st5" d="M78.3,129.2c-0.1-0.2-0.2-0.5-0.2-0.8c-0.6,0.6-1.3,1-2.3,1c-0.9,0-1.6-0.3-2.2-0.8
					c-0.6-0.5-0.9-1.2-0.9-1.9c0-1,0.4-1.7,1.1-2.2c0.7-0.5,1.7-0.8,3.1-0.8h1.1v-0.5c0-0.4-0.1-0.7-0.3-1c-0.2-0.2-0.5-0.4-1-0.4
					c-0.4,0-0.7,0.1-1,0.3c-0.2,0.2-0.3,0.5-0.3,0.8h-2.4c0-0.5,0.2-1,0.5-1.4c0.3-0.4,0.8-0.8,1.4-1s1.2-0.4,2-0.4
					c1.1,0,2,0.3,2.6,0.8c0.6,0.6,1,1.3,1,2.3v3.9c0,0.9,0.1,1.5,0.4,1.9v0.1H78.3z M76.3,127.6c0.4,0,0.7-0.1,1-0.2
					c0.3-0.2,0.5-0.4,0.7-0.6v-1.5h-0.9c-1.2,0-1.8,0.4-1.9,1.2l0,0.1c0,0.3,0.1,0.5,0.3,0.7S75.9,127.6,76.3,127.6z"/>
				<path class="st5" d="M87.2,122.5c-0.3,0-0.6-0.1-0.9-0.1c-0.9,0-1.5,0.3-1.8,0.9v5.9h-2.4v-9h2.3l0.1,1.1c0.5-0.8,1.1-1.2,2-1.2
					c0.3,0,0.5,0,0.7,0.1L87.2,122.5z"/>
				<path class="st5" d="M91.7,118v2.2h1.5v1.8h-1.5v4.5c0,0.3,0.1,0.6,0.2,0.7s0.4,0.2,0.7,0.2c0.3,0,0.5,0,0.7-0.1v1.8
					c-0.5,0.1-1,0.2-1.5,0.2c-1.7,0-2.5-0.8-2.6-2.5V122H88v-1.8h1.3V118H91.7z"/>
				<path class="st5" d="M98.7,129.4c-1.3,0-2.4-0.4-3.2-1.2c-0.8-0.8-1.2-1.9-1.2-3.2v-0.2c0-0.9,0.2-1.7,0.5-2.4s0.8-1.3,1.5-1.6
					c0.6-0.4,1.4-0.6,2.2-0.6c1.2,0,2.2,0.4,2.9,1.2c0.7,0.8,1.1,1.9,1.1,3.3v1h-5.7c0.1,0.6,0.3,1.1,0.7,1.4
					c0.4,0.4,0.9,0.5,1.5,0.5c0.9,0,1.6-0.3,2.2-1l1.2,1.3c-0.4,0.5-0.8,0.9-1.5,1.2S99.4,129.4,98.7,129.4z M98.4,122
					c-0.5,0-0.9,0.2-1.2,0.5c-0.3,0.3-0.5,0.8-0.6,1.4h3.3v-0.2c0-0.5-0.2-0.9-0.4-1.2S98.9,122,98.4,122z"/>
				<path class="st5" d="M108.8,122.5c-0.3,0-0.6-0.1-0.9-0.1c-0.9,0-1.5,0.3-1.8,0.9v5.9h-2.4v-9h2.3l0.1,1.1
					c0.5-0.8,1.1-1.2,2-1.2c0.3,0,0.5,0,0.7,0.1L108.8,122.5z"/>
				<path class="st5" d="M109.9,117.9c0-0.4,0.1-0.7,0.4-0.9c0.2-0.2,0.6-0.3,1-0.3c0.4,0,0.7,0.1,1,0.3s0.4,0.5,0.4,0.9
					c0,0.4-0.1,0.7-0.4,0.9c-0.2,0.2-0.6,0.3-1,0.3s-0.7-0.1-1-0.3C110.1,118.6,109.9,118.3,109.9,117.9z M112.5,129.2h-2.4v-9h2.4
					V129.2z"/>
				<path class="st5" d="M119.7,129.2c-0.1-0.2-0.2-0.5-0.2-0.8c-0.6,0.6-1.3,1-2.3,1c-0.9,0-1.6-0.3-2.2-0.8
					c-0.6-0.5-0.9-1.2-0.9-1.9c0-1,0.4-1.7,1.1-2.2c0.7-0.5,1.7-0.8,3.1-0.8h1.1v-0.5c0-0.4-0.1-0.7-0.3-1c-0.2-0.2-0.5-0.4-1-0.4
					c-0.4,0-0.7,0.1-1,0.3c-0.2,0.2-0.3,0.5-0.3,0.8h-2.4c0-0.5,0.2-1,0.5-1.4c0.3-0.4,0.8-0.8,1.4-1s1.2-0.4,2-0.4
					c1.1,0,2,0.3,2.6,0.8c0.7,0.6,1,1.3,1,2.3v3.9c0,0.9,0.1,1.5,0.4,1.9v0.1H119.7z M117.7,127.6c0.4,0,0.7-0.1,1-0.2
					c0.3-0.2,0.5-0.4,0.7-0.6v-1.5h-0.9c-1.2,0-1.8,0.4-1.9,1.2l0,0.1c0,0.3,0.1,0.5,0.3,0.7S117.3,127.6,117.7,127.6z"/>
				<path class="st5" d="M128.5,129.2V122h-1.3v-1.8h1.3v-0.8c0-1,0.3-1.8,0.9-2.3c0.6-0.6,1.4-0.8,2.4-0.8c0.3,0,0.7,0.1,1.2,0.2
					l0,1.8c-0.2,0-0.4-0.1-0.7-0.1c-0.9,0-1.4,0.4-1.4,1.3v0.7h1.8v1.8h-1.8v7.2H128.5z"/>
				<path class="st5" d="M137.8,129.4c-1.3,0-2.4-0.4-3.2-1.2s-1.2-1.9-1.2-3.2v-0.2c0-0.9,0.2-1.7,0.5-2.4s0.8-1.3,1.5-1.6
					c0.6-0.4,1.4-0.6,2.2-0.6c1.2,0,2.2,0.4,2.9,1.2c0.7,0.8,1.1,1.9,1.1,3.3v1h-5.7c0.1,0.6,0.3,1.1,0.7,1.4
					c0.4,0.4,0.9,0.5,1.5,0.5c0.9,0,1.6-0.3,2.2-1l1.2,1.3c-0.4,0.5-0.8,0.9-1.5,1.2S138.6,129.4,137.8,129.4z M137.6,122
					c-0.5,0-0.9,0.2-1.2,0.5c-0.3,0.3-0.5,0.8-0.6,1.4h3.3v-0.2c0-0.5-0.2-0.9-0.4-1.2C138.5,122.2,138.1,122,137.6,122z"/>
				<path class="st5" d="M145.1,120.2l0.1,1c0.6-0.8,1.5-1.2,2.6-1.2c1.2,0,2,0.5,2.4,1.4c0.6-0.9,1.5-1.4,2.7-1.4
					c1,0,1.7,0.3,2.2,0.9c0.5,0.6,0.7,1.4,0.7,2.6v5.7h-2.4v-5.7c0-0.5-0.1-0.9-0.3-1.1c-0.2-0.2-0.6-0.4-1.1-0.4
					c-0.7,0-1.2,0.3-1.5,1l0,6.2h-2.4v-5.7c0-0.5-0.1-0.9-0.3-1.1c-0.2-0.2-0.6-0.3-1-0.3c-0.7,0-1.2,0.3-1.5,0.8v6.4h-2.4v-9H145.1
					z"/>
				<path class="st5" d="M157.2,124.7c0-0.9,0.2-1.7,0.5-2.4c0.3-0.7,0.8-1.2,1.5-1.6c0.6-0.4,1.4-0.6,2.2-0.6c1.2,0,2.2,0.4,3,1.1
					c0.8,0.7,1.2,1.7,1.3,3l0,0.6c0,1.4-0.4,2.5-1.2,3.3c-0.8,0.8-1.8,1.2-3.1,1.2s-2.3-0.4-3.1-1.2c-0.8-0.8-1.2-2-1.2-3.4V124.7z
					 M159.6,124.8c0,0.9,0.2,1.5,0.5,2c0.3,0.5,0.8,0.7,1.4,0.7c0.6,0,1-0.2,1.4-0.7c0.3-0.4,0.5-1.2,0.5-2.1c0-0.8-0.2-1.5-0.5-1.9
					c-0.3-0.5-0.8-0.7-1.4-0.7c-0.6,0-1,0.2-1.4,0.7C159.8,123.2,159.6,123.9,159.6,124.8z"/>
				<path class="st5" d="M172.3,122.5c-0.3,0-0.6-0.1-0.9-0.1c-0.9,0-1.5,0.3-1.8,0.9v5.9h-2.4v-9h2.3l0.1,1.1
					c0.5-0.8,1.1-1.2,2-1.2c0.3,0,0.5,0,0.7,0.1L172.3,122.5z"/>
				<path class="st5" d="M178.4,129.2c-0.1-0.2-0.2-0.5-0.2-0.8c-0.6,0.6-1.3,1-2.3,1c-0.9,0-1.6-0.3-2.2-0.8s-0.9-1.2-0.9-1.9
					c0-1,0.4-1.7,1.1-2.2c0.7-0.5,1.7-0.8,3.1-0.8h1.1v-0.5c0-0.4-0.1-0.7-0.3-1c-0.2-0.2-0.5-0.4-1-0.4c-0.4,0-0.7,0.1-1,0.3
					c-0.2,0.2-0.3,0.5-0.3,0.8H173c0-0.5,0.2-1,0.5-1.4c0.3-0.4,0.8-0.8,1.4-1c0.6-0.3,1.2-0.4,2-0.4c1.1,0,2,0.3,2.6,0.8
					c0.6,0.6,1,1.3,1,2.3v3.9c0,0.9,0.1,1.5,0.4,1.9v0.1H178.4z M176.4,127.6c0.4,0,0.7-0.1,1-0.2c0.3-0.2,0.5-0.4,0.7-0.6v-1.5
					h-0.9c-1.2,0-1.8,0.4-1.9,1.2l0,0.1c0,0.3,0.1,0.5,0.3,0.7C175.7,127.5,176,127.6,176.4,127.6z"/>
				<path class="st5" d="M184.8,129.2h-2.4v-12.8h2.4V129.2z"/>
			</g>
			<g class="st4">
				<path class="st5" d="M51.9,144.7c0-1.4,0.3-2.5,0.9-3.3c0.6-0.8,1.5-1.2,2.6-1.2c0.9,0,1.6,0.3,2.2,1v-4.6H60v12.8h-2.2l-0.1-1
					c-0.6,0.7-1.4,1.1-2.3,1.1c-1.1,0-1.9-0.4-2.5-1.2C52.2,147.3,51.9,146.2,51.9,144.7z M54.3,144.8c0,0.8,0.1,1.5,0.4,1.9
					s0.7,0.7,1.3,0.7c0.7,0,1.3-0.3,1.6-0.9V143c-0.3-0.6-0.8-0.9-1.6-0.9C54.9,142,54.3,143,54.3,144.8z"/>
				<path class="st5" d="M66,149.4c-1.3,0-2.4-0.4-3.2-1.2c-0.8-0.8-1.2-1.9-1.2-3.2v-0.2c0-0.9,0.2-1.7,0.5-2.4s0.8-1.3,1.5-1.6
					c0.6-0.4,1.4-0.6,2.2-0.6c1.2,0,2.2,0.4,2.9,1.2c0.7,0.8,1.1,1.9,1.1,3.3v1H64c0.1,0.6,0.3,1.1,0.7,1.4c0.4,0.4,0.9,0.5,1.5,0.5
					c0.9,0,1.6-0.3,2.2-1l1.2,1.3c-0.4,0.5-0.8,0.9-1.5,1.2S66.8,149.4,66,149.4z M65.7,142c-0.5,0-0.9,0.2-1.2,0.5
					c-0.3,0.3-0.5,0.8-0.6,1.4h3.3v-0.2c0-0.5-0.2-0.9-0.4-1.2S66.2,142,65.7,142z"/>
				<path class="st5" d="M76.1,142.5c-0.3,0-0.6-0.1-0.9-0.1c-0.9,0-1.5,0.3-1.8,0.9v5.9h-2.4v-9h2.3l0.1,1.1c0.5-0.8,1.1-1.2,2-1.2
					c0.3,0,0.5,0,0.7,0.1L76.1,142.5z"/>
				<path class="st5" d="M81.2,149.4c-1.3,0-2.4-0.4-3.2-1.2c-0.8-0.8-1.2-1.9-1.2-3.2v-0.2c0-0.9,0.2-1.7,0.5-2.4s0.8-1.3,1.5-1.6
					c0.6-0.4,1.4-0.6,2.2-0.6c1.2,0,2.2,0.4,2.9,1.2c0.7,0.8,1.1,1.9,1.1,3.3v1h-5.7c0.1,0.6,0.3,1.1,0.7,1.4
					c0.4,0.4,0.9,0.5,1.5,0.5c0.9,0,1.6-0.3,2.2-1l1.2,1.3c-0.4,0.5-0.8,0.9-1.5,1.2S82,149.4,81.2,149.4z M81,142
					c-0.5,0-0.9,0.2-1.2,0.5c-0.3,0.3-0.5,0.8-0.6,1.4h3.3v-0.2c0-0.5-0.2-0.9-0.4-1.2S81.5,142,81,142z"/>
				<path class="st5" d="M90,147.5c0.4,0,0.8-0.1,1.1-0.4c0.3-0.2,0.4-0.6,0.4-1h2.2c0,0.6-0.2,1.2-0.5,1.7
					c-0.3,0.5-0.8,0.9-1.3,1.2c-0.6,0.3-1.2,0.4-1.9,0.4c-1.3,0-2.3-0.4-3-1.2s-1.1-1.9-1.1-3.4v-0.2c0-1.4,0.4-2.5,1.1-3.3
					c0.7-0.8,1.7-1.2,3-1.2c1.1,0,2,0.3,2.7,1c0.7,0.6,1,1.5,1,2.6h-2.2c0-0.5-0.2-0.8-0.4-1.1S90.5,142,90,142
					c-0.6,0-1,0.2-1.3,0.6c-0.3,0.4-0.4,1.1-0.4,2v0.2c0,0.9,0.1,1.6,0.4,2S89.5,147.5,90,147.5z"/>
				<path class="st5" d="M97.5,141.2c0.6-0.8,1.4-1.1,2.4-1.1c1.9,0,2.9,1.1,3,3.4v5.8h-2.4v-5.7c0-0.5-0.1-0.9-0.3-1.1
					c-0.2-0.2-0.6-0.4-1.1-0.4c-0.7,0-1.2,0.3-1.5,0.8v6.4h-2.4v-12.8h2.4V141.2z"/>
				<path class="st5" d="M109.9,149.2c-0.1-0.2-0.2-0.5-0.2-0.8c-0.6,0.6-1.3,1-2.3,1c-0.9,0-1.6-0.3-2.2-0.8
					c-0.6-0.5-0.9-1.2-0.9-1.9c0-1,0.4-1.7,1.1-2.2c0.7-0.5,1.7-0.8,3.1-0.8h1.1v-0.5c0-0.4-0.1-0.7-0.3-1c-0.2-0.2-0.5-0.4-1-0.4
					c-0.4,0-0.7,0.1-1,0.3c-0.2,0.2-0.3,0.5-0.3,0.8h-2.4c0-0.5,0.2-1,0.5-1.4c0.3-0.4,0.8-0.8,1.4-1s1.2-0.4,2-0.4
					c1.1,0,2,0.3,2.6,0.8c0.6,0.6,1,1.3,1,2.3v3.9c0,0.9,0.1,1.5,0.4,1.9v0.1H109.9z M107.9,147.6c0.4,0,0.7-0.1,1-0.2
					c0.3-0.2,0.5-0.4,0.7-0.6v-1.5h-0.9c-1.2,0-1.8,0.4-1.9,1.2l0,0.1c0,0.3,0.1,0.5,0.3,0.7S107.5,147.6,107.9,147.6z"/>
				<path class="st5" d="M121.4,145.8l1.7-5.6h2.6l-3.6,10.4l-0.2,0.5c-0.5,1.2-1.4,1.8-2.7,1.8c-0.3,0-0.7-0.1-1.1-0.2v-1.8l0.4,0
					c0.5,0,0.8-0.1,1-0.2c0.2-0.1,0.4-0.4,0.5-0.7l0.3-0.7l-3.1-9h2.6L121.4,145.8z"/>
				<path class="st5" d="M133.3,149.2h-2.4v-12.8h2.4V149.2z"/>
				<path class="st5" d="M140.5,149.2c-0.1-0.2-0.2-0.5-0.2-0.8c-0.6,0.6-1.3,1-2.3,1c-0.9,0-1.6-0.3-2.2-0.8s-0.9-1.2-0.9-1.9
					c0-1,0.4-1.7,1.1-2.2c0.7-0.5,1.7-0.8,3.1-0.8h1.1v-0.5c0-0.4-0.1-0.7-0.3-1c-0.2-0.2-0.5-0.4-1-0.4c-0.4,0-0.7,0.1-1,0.3
					c-0.2,0.2-0.3,0.5-0.3,0.8h-2.4c0-0.5,0.2-1,0.5-1.4c0.3-0.4,0.8-0.8,1.4-1c0.6-0.3,1.2-0.4,2-0.4c1.1,0,2,0.3,2.6,0.8
					c0.6,0.6,1,1.3,1,2.3v3.9c0,0.9,0.1,1.5,0.4,1.9v0.1H140.5z M138.5,147.6c0.4,0,0.7-0.1,1-0.2c0.3-0.2,0.5-0.4,0.7-0.6v-1.5
					h-0.9c-1.2,0-1.8,0.4-1.9,1.2l0,0.1c0,0.3,0.1,0.5,0.3,0.7C137.9,147.5,138.2,147.6,138.5,147.6z"/>
				<path class="st5" d="M152,146.3l1.7-6.1h2.5l-3,9h-2.3l-3-9h2.5L152,146.3z"/>
				<path class="st5" d="M161.3,149.4c-1.3,0-2.4-0.4-3.2-1.2c-0.8-0.8-1.2-1.9-1.2-3.2v-0.2c0-0.9,0.2-1.7,0.5-2.4s0.8-1.3,1.5-1.6
					c0.6-0.4,1.4-0.6,2.2-0.6c1.2,0,2.2,0.4,2.9,1.2c0.7,0.8,1.1,1.9,1.1,3.3v1h-5.7c0.1,0.6,0.3,1.1,0.7,1.4
					c0.4,0.4,0.9,0.5,1.5,0.5c0.9,0,1.6-0.3,2.2-1l1.2,1.3c-0.4,0.5-0.8,0.9-1.5,1.2S162,149.4,161.3,149.4z M161,142
					c-0.5,0-0.9,0.2-1.2,0.5s-0.5,0.8-0.6,1.4h3.3v-0.2c0-0.5-0.2-0.9-0.4-1.2C161.9,142.2,161.5,142,161,142z"/>
				<path class="st5" d="M168.5,140.2l0.1,1c0.6-0.8,1.5-1.2,2.6-1.2c1,0,1.7,0.3,2.1,0.8c0.5,0.6,0.7,1.4,0.7,2.5v5.8h-2.4v-5.8
					c0-0.5-0.1-0.9-0.3-1.1c-0.2-0.2-0.6-0.3-1.1-0.3c-0.7,0-1.2,0.3-1.5,0.9v6.3h-2.4v-9H168.5z"/>
				<path class="st5" d="M181,149.2c-0.1-0.2-0.2-0.5-0.2-0.8c-0.6,0.6-1.3,1-2.3,1c-0.9,0-1.6-0.3-2.2-0.8s-0.9-1.2-0.9-1.9
					c0-1,0.4-1.7,1.1-2.2c0.7-0.5,1.7-0.8,3.1-0.8h1.1v-0.5c0-0.4-0.1-0.7-0.3-1c-0.2-0.2-0.5-0.4-1-0.4c-0.4,0-0.7,0.1-1,0.3
					c-0.2,0.2-0.3,0.5-0.3,0.8h-2.4c0-0.5,0.2-1,0.5-1.4c0.3-0.4,0.8-0.8,1.4-1c0.6-0.3,1.2-0.4,2-0.4c1.1,0,2,0.3,2.6,0.8
					c0.6,0.6,1,1.3,1,2.3v3.9c0,0.9,0.1,1.5,0.4,1.9v0.1H181z M179.1,147.6c0.4,0,0.7-0.1,1-0.2c0.3-0.2,0.5-0.4,0.7-0.6v-1.5h-0.9
					c-1.2,0-1.8,0.4-1.9,1.2l0,0.1c0,0.3,0.1,0.5,0.3,0.7C178.4,147.5,178.7,147.6,179.1,147.6z"/>
			</g>
			<g class="st4">
				<path class="st5" d="M54.4,169.2V162h-1.3v-1.8h1.3v-0.8c0-1,0.3-1.8,0.9-2.3c0.6-0.6,1.4-0.8,2.4-0.8c0.3,0,0.7,0.1,1.2,0.2
					l0,1.8c-0.2,0-0.4-0.1-0.7-0.1c-0.9,0-1.4,0.4-1.4,1.3v0.7h1.8v1.8h-1.8v7.2H54.4z"/>
				<path class="st5" d="M63.8,169.4c-1.3,0-2.4-0.4-3.2-1.2c-0.8-0.8-1.2-1.9-1.2-3.2v-0.2c0-0.9,0.2-1.7,0.5-2.4s0.8-1.3,1.5-1.6
					c0.6-0.4,1.4-0.6,2.2-0.6c1.2,0,2.2,0.4,2.9,1.2c0.7,0.8,1.1,1.9,1.1,3.3v1h-5.7c0.1,0.6,0.3,1.1,0.7,1.4
					c0.4,0.4,0.9,0.5,1.5,0.5c0.9,0,1.6-0.3,2.2-1l1.2,1.3c-0.4,0.5-0.8,0.9-1.5,1.2S64.5,169.4,63.8,169.4z M63.5,162
					c-0.5,0-0.9,0.2-1.2,0.5c-0.3,0.3-0.5,0.8-0.6,1.4h3.3v-0.2c0-0.5-0.2-0.9-0.4-1.2S64,162,63.5,162z"/>
				<path class="st5" d="M71.1,160.2l0.1,1c0.6-0.8,1.5-1.2,2.6-1.2c1.2,0,2,0.5,2.4,1.4c0.6-0.9,1.5-1.4,2.7-1.4
					c1,0,1.7,0.3,2.2,0.9s0.7,1.4,0.7,2.6v5.7h-2.4v-5.7c0-0.5-0.1-0.9-0.3-1.1c-0.2-0.2-0.6-0.4-1.1-0.4c-0.7,0-1.2,0.3-1.5,1
					l0,6.2h-2.4v-5.7c0-0.5-0.1-0.9-0.3-1.1c-0.2-0.2-0.6-0.3-1-0.3c-0.7,0-1.2,0.3-1.5,0.8v6.4h-2.4v-9H71.1z"/>
				<path class="st5" d="M83.2,164.7c0-0.9,0.2-1.7,0.5-2.4s0.8-1.2,1.5-1.6c0.6-0.4,1.4-0.6,2.2-0.6c1.2,0,2.2,0.4,3,1.1
					c0.8,0.7,1.2,1.7,1.3,3l0,0.6c0,1.4-0.4,2.5-1.2,3.3s-1.8,1.2-3.1,1.2s-2.3-0.4-3.1-1.2c-0.8-0.8-1.2-2-1.2-3.4V164.7z
					 M85.6,164.8c0,0.9,0.2,1.5,0.5,2c0.3,0.5,0.8,0.7,1.4,0.7c0.6,0,1-0.2,1.4-0.7s0.5-1.2,0.5-2.1c0-0.8-0.2-1.5-0.5-1.9
					S88,162,87.4,162c-0.6,0-1,0.2-1.4,0.7S85.6,163.9,85.6,164.8z"/>
				<path class="st5" d="M98.2,162.5c-0.3,0-0.6-0.1-0.9-0.1c-0.9,0-1.5,0.3-1.8,0.9v5.9h-2.4v-9h2.3l0.1,1.1c0.5-0.8,1.1-1.2,2-1.2
					c0.3,0,0.5,0,0.7,0.1L98.2,162.5z"/>
				<path class="st5" d="M104.3,169.2c-0.1-0.2-0.2-0.5-0.2-0.8c-0.6,0.6-1.3,1-2.3,1c-0.9,0-1.6-0.3-2.2-0.8
					c-0.6-0.5-0.9-1.2-0.9-1.9c0-1,0.4-1.7,1.1-2.2c0.7-0.5,1.7-0.8,3.1-0.8h1.1v-0.5c0-0.4-0.1-0.7-0.3-1c-0.2-0.2-0.5-0.4-1-0.4
					c-0.4,0-0.7,0.1-1,0.3c-0.2,0.2-0.3,0.5-0.3,0.8H99c0-0.5,0.2-1,0.5-1.4c0.3-0.4,0.8-0.8,1.4-1s1.2-0.4,2-0.4
					c1.1,0,2,0.3,2.6,0.8c0.6,0.6,1,1.3,1,2.3v3.9c0,0.9,0.1,1.5,0.4,1.9v0.1H104.3z M102.3,167.6c0.4,0,0.7-0.1,1-0.2
					c0.3-0.2,0.5-0.4,0.7-0.6v-1.5h-0.9c-1.2,0-1.8,0.4-1.9,1.2l0,0.1c0,0.3,0.1,0.5,0.3,0.7S102,167.6,102.3,167.6z"/>
				<path class="st5" d="M110.8,169.2h-2.4v-12.8h2.4V169.2z"/>
				<path class="st5" d="M116.6,164.7c0-1.4,0.3-2.5,0.9-3.3s1.5-1.2,2.6-1.2c0.9,0,1.6,0.3,2.2,1v-4.6h2.4v12.8h-2.2l-0.1-1
					c-0.6,0.7-1.4,1.1-2.3,1.1c-1.1,0-1.9-0.4-2.5-1.2C116.9,167.3,116.6,166.2,116.6,164.7z M119,164.8c0,0.8,0.1,1.5,0.4,1.9
					c0.3,0.5,0.7,0.7,1.3,0.7c0.7,0,1.3-0.3,1.6-0.9V163c-0.3-0.6-0.8-0.9-1.6-0.9C119.6,162,119,163,119,164.8z"/>
				<path class="st5" d="M130.7,169.4c-1.3,0-2.4-0.4-3.2-1.2s-1.2-1.9-1.2-3.2v-0.2c0-0.9,0.2-1.7,0.5-2.4s0.8-1.3,1.5-1.6
					c0.6-0.4,1.4-0.6,2.2-0.6c1.2,0,2.2,0.4,2.9,1.2c0.7,0.8,1.1,1.9,1.1,3.3v1h-5.7c0.1,0.6,0.3,1.1,0.7,1.4
					c0.4,0.4,0.9,0.5,1.5,0.5c0.9,0,1.6-0.3,2.2-1l1.2,1.3c-0.4,0.5-0.8,0.9-1.5,1.2S131.4,169.4,130.7,169.4z M130.4,162
					c-0.5,0-0.9,0.2-1.2,0.5c-0.3,0.3-0.5,0.8-0.6,1.4h3.3v-0.2c0-0.5-0.2-0.9-0.4-1.2C131.3,162.2,130.9,162,130.4,162z"/>
				<path class="st5" d="M140.8,162.5c-0.3,0-0.6-0.1-0.9-0.1c-0.9,0-1.5,0.3-1.8,0.9v5.9h-2.4v-9h2.3l0.1,1.1
					c0.5-0.8,1.1-1.2,2-1.2c0.3,0,0.5,0,0.7,0.1L140.8,162.5z"/>
				<path class="st5" d="M145.9,169.4c-1.3,0-2.4-0.4-3.2-1.2c-0.8-0.8-1.2-1.9-1.2-3.2v-0.2c0-0.9,0.2-1.7,0.5-2.4s0.8-1.3,1.5-1.6
					c0.6-0.4,1.4-0.6,2.2-0.6c1.2,0,2.2,0.4,2.9,1.2c0.7,0.8,1.1,1.9,1.1,3.3v1h-5.7c0.1,0.6,0.3,1.1,0.7,1.4
					c0.4,0.4,0.9,0.5,1.5,0.5c0.9,0,1.6-0.3,2.2-1l1.2,1.3c-0.4,0.5-0.8,0.9-1.5,1.2S146.7,169.4,145.9,169.4z M145.6,162
					c-0.5,0-0.9,0.2-1.2,0.5s-0.5,0.8-0.6,1.4h3.3v-0.2c0-0.5-0.2-0.9-0.4-1.2C146.5,162.2,146.2,162,145.6,162z"/>
				<path class="st5" d="M154.7,167.5c0.4,0,0.8-0.1,1.1-0.4c0.3-0.2,0.4-0.6,0.4-1h2.2c0,0.6-0.2,1.2-0.5,1.7
					c-0.3,0.5-0.8,0.9-1.3,1.2c-0.6,0.3-1.2,0.4-1.9,0.4c-1.3,0-2.3-0.4-3-1.2c-0.7-0.8-1.1-1.9-1.1-3.4v-0.2c0-1.4,0.4-2.5,1.1-3.3
					c0.7-0.8,1.7-1.2,3-1.2c1.1,0,2,0.3,2.7,1c0.7,0.6,1,1.5,1,2.6h-2.2c0-0.5-0.2-0.8-0.4-1.1c-0.3-0.3-0.6-0.4-1.1-0.4
					c-0.6,0-1,0.2-1.3,0.6c-0.3,0.4-0.4,1.1-0.4,2v0.2c0,0.9,0.1,1.6,0.4,2S154.1,167.5,154.7,167.5z"/>
				<path class="st5" d="M162.2,161.2c0.6-0.8,1.4-1.1,2.4-1.1c1.9,0,2.9,1.1,3,3.4v5.8h-2.4v-5.7c0-0.5-0.1-0.9-0.3-1.1
					c-0.2-0.2-0.6-0.4-1.1-0.4c-0.7,0-1.2,0.3-1.5,0.8v6.4h-2.4v-12.8h2.4V161.2z"/>
				<path class="st5" d="M174.6,169.2c-0.1-0.2-0.2-0.5-0.2-0.8c-0.6,0.6-1.3,1-2.3,1c-0.9,0-1.6-0.3-2.2-0.8
					c-0.6-0.5-0.9-1.2-0.9-1.9c0-1,0.4-1.7,1.1-2.2c0.7-0.5,1.7-0.8,3.1-0.8h1.1v-0.5c0-0.4-0.1-0.7-0.3-1c-0.2-0.2-0.5-0.4-1-0.4
					c-0.4,0-0.7,0.1-1,0.3c-0.2,0.2-0.3,0.5-0.3,0.8h-2.4c0-0.5,0.2-1,0.5-1.4c0.3-0.4,0.8-0.8,1.4-1c0.6-0.3,1.2-0.4,2-0.4
					c1.1,0,2,0.3,2.6,0.8c0.7,0.6,1,1.3,1,2.3v3.9c0,0.9,0.1,1.5,0.4,1.9v0.1H174.6z M172.6,167.6c0.4,0,0.7-0.1,1-0.2
					c0.3-0.2,0.5-0.4,0.7-0.6v-1.5h-0.9c-1.2,0-1.8,0.4-1.9,1.2l0,0.1c0,0.3,0.1,0.5,0.3,0.7C171.9,167.5,172.2,167.6,172.6,167.6z"
					/>
				<path class="st5" d="M178.6,168c0-0.4,0.1-0.7,0.4-0.9c0.3-0.2,0.6-0.4,1-0.4c0.4,0,0.7,0.1,1,0.4c0.3,0.2,0.4,0.5,0.4,0.9
					c0,0.4-0.1,0.7-0.4,0.9c-0.3,0.2-0.6,0.4-1,0.4c-0.4,0-0.7-0.1-1-0.4C178.7,168.7,178.6,168.4,178.6,168z"/>
			</g>
		</g>
		<line id="Línea_1692" class="st6" x1="97.7" y1="186.4" x2="134.8" y2="186.4"/>
		<g id="Grupo_134146" transform="translate(-157.103 -726.89)">
			<g id="Grupo_42274" transform="translate(233.65 755.984)">
				<g id="Grupo_18423" transform="translate(0 0)">
					<g id="Grupo_18421">
						<g id="Grupo_18420">
							<g id="Grupo_18419">
								<path id="Trazado_40936" class="st7" d="M75.7,37.8c0,20.9-16.9,37.8-37.8,37.8C16.9,75.7,0,58.7,0,37.8
									C0,16.9,16.9,0,37.8,0c0,0,0,0,0,0C58.7,0,75.7,16.9,75.7,37.8z"/>
							</g>
						</g>
					</g>
					
						<radialGradient id="Trazado_40937_00000151501913040660933600000015195390417240819077_" cx="-262.9233" cy="469.2427" r="1.465" gradientTransform="matrix(75.6543 0 0 -75.6545 19897.1055 35501.7852)" gradientUnits="userSpaceOnUse">
						<stop  offset="0" style="stop-color:#F6F6F7"/>
						<stop  offset="0.477" style="stop-color:#F9F9FA"/>
						<stop  offset="0.715" style="stop-color:#FFFFFF"/>
					</radialGradient>
					<path id="Trazado_40937" style="fill:url(#Trazado_40937_00000151501913040660933600000015195390417240819077_);" d="
						M75.7,37.8C75.7,16.9,58.7,0,37.8,0S0,16.9,0,37.8c0,20.9,16.9,37.8,37.8,37.8c20.8,0.1,37.7-16.7,37.8-37.5
						C75.7,38,75.7,37.9,75.7,37.8z"/>
					<path id="Trazado_40938" class="st9" d="M66.8,38C66.8,22,53.9,9.1,37.9,9.1S9.1,22,9.1,38c0,15.9,12.9,28.9,28.9,28.9
						c15.9,0.1,28.8-12.8,28.9-28.7C66.8,38.1,66.8,38,66.8,38z"/>
					<g id="Grupo_18422" transform="translate(6.702 21.238)">
						<path id="Trazado_40939" class="st10" d="M65.1,0c8.5,19.1-0.1,41.5-19.2,49.9C29.6,57.2,10.5,52.1,0,37.7
							c11.7,17.3,35.1,21.8,52.4,10.1C67.9,37.3,73.4,16.9,65.1,0z"/>
					</g>
				</g>
			</g>
			<g id="lVQ2eC" transform="translate(565.868 810.294)">
				<g id="Grupo_133545" transform="translate(-311.028 -31.991)">
					<path id="Trazado_172383" class="st11" d="M9.6,20.9c-0.3,0.2-0.4,0.3-0.6,0.5c-0.9,0.5-1.7,1.1-2.6,1.5
						c-0.5,0.3-0.9,0.6-1.3,1c-1.1,1.1-1.9,2.5-2.4,4c-0.2,0.6-0.7,1-1.3,1c-0.6,0-1.1-0.3-1.3-0.8C0,27.7,0,27.4,0,27.1
						C0.1,26,0.6,25,1.2,24.2c0.5-0.7,1-1.3,1.5-1.9c-0.1,0-0.2,0-0.2,0c-0.5,0-0.9,0-1.4,0c-0.6,0-1-0.4-1.1-0.9c0,0,0-0.1,0-0.1
						c0-0.2,0-0.3,0-0.5c0-0.5,0.4-1,1-1c0,0,0,0,0.1,0c1,0,1.9,0,2.9,0c1.3,0.1,2.5-0.4,3.5-1.3c0.8-0.7,1.5-1.5,2.1-2.3
						c0.1-0.1,0.1-0.2,0.1-0.3c0-0.7,0-1.4,0-2.2c0-0.2-0.1-0.2-0.2-0.2c-0.5-0.1-1-0.2-1.6-0.2c-1-0.1-2-0.5-2.8-1.2
						c-1.3-1-2.5-2.2-3.5-3.6C1.5,8.4,1.4,8.3,1.4,8.2C1.3,8.2,1.2,8.2,1.1,8.1C1.1,8.2,1,8.3,1,8.4C1,8.7,1.1,9,1.3,9.2
						c0.6,0.9,1.3,1.6,2.1,2.3c0.5,0.4,0.9,0.8,1.4,1.2C5,12.8,5.1,13.1,5,13.3c-0.1,0.2-0.3,0.4-0.5,0.3c-1.1,0.1-2.1,0.3-3.1,0.7
						C1.1,14.4,1,14.6,1,14.9c0,0.2,0,0.3,0,0.5c0.1,0,0.3,0,0.4-0.1c1.1-0.3,2.1-0.8,3.2-1c0.8-0.1,1.6-0.2,2.4-0.1
						c0.6,0,1.2,0.1,1.8,0.1c0.1,0,0.2,0,0.4,0.1L9,15.3c-0.5,0-0.9-0.1-1.4-0.1c-1.3-0.1-2.7,0-4,0.3c-0.8,0.3-1.6,0.5-2.3,0.8
						c-0.5,0.2-1,0-1.2-0.5c0-0.1,0-0.1-0.1-0.2C0,15.2,0,14.7,0,14.3c0-0.4,0.3-0.6,0.6-0.7c0.8-0.2,1.5-0.5,2.3-0.7
						c0.1,0,0.2,0,0.3-0.1c-0.5-0.5-1-0.9-1.4-1.3c-0.5-0.5-0.9-1.1-1.4-1.7C0.1,9.3-0.1,8.7,0,8.1c0-0.5,0.4-0.9,0.8-1
						c0.5-0.1,1,0,1.3,0.4c0.9,1.3,2,2.5,3.2,3.5c0.1,0.1,0.2,0.2,0.4,0.3c0.8,0.6,1.7,1,2.7,1c0.4,0,0.8,0.1,1.2,0.2v-0.4
						c0-3.5,0-6.9,0-10.4c0-0.6,0.3-1.2,0.9-1.4c1-0.5,2.2-0.5,3.3,0c0.6,0.2,1,0.8,0.9,1.4c0,0.8,0,1.5,0,2.3c0,1.5,0,2.9,0,4.4
						c0,0.2,0.1,0.3,0.2,0.3c2.8,0.8,5.7,1.3,8.6,1.7c1.2,0.1,2.5,0.1,3.7,0.1c0.4,0,0.7-0.1,1.1-0.2c-0.1-0.1-0.1-0.2-0.2-0.3
						c-0.9-1.1-1.9-1.9-3.2-2.5c-0.1-0.1-0.2-0.1-0.3-0.1c-0.5,0-1,0-1.5,0c-0.2,0-0.2,0.1-0.2,0.2c0,0.4,0,0.8,0,1.2h-1
						c0-0.7,0-1.4,0-2.1c0-0.2,0.2-0.4,0.4-0.4c0,0,0,0,0,0c0.9,0,1.7-0.1,2.6,0c0.4,0.1,0.8,0.2,1.1,0.5c1.2,0.7,2.3,1.6,3.1,2.7
						c0.2,0.2,0.3,0.3,0.6,0.2c0.2-0.1,0.4-0.2,0.7-0.2c-0.1-0.1-0.1-0.2-0.2-0.3c-0.8-0.8-1.7-1.6-2.5-2.4
						c-0.3-0.3-0.3-0.6-0.1-0.8c0.2-0.1,0.4-0.2,0.6-0.1c1.1,0.3,2.2,0.5,3.3,0.4v-1c-0.1,0-0.3,0-0.4,0l-8.5,0
						c-0.6,0-0.7-0.1-0.7-0.7c0-0.6,0-1.2,0-1.7V2.8c-1,0.3-2.1,0.3-3.1,0v6.3h-1c0-0.1,0-0.2,0-0.3c0-1,0-2.1,0-3.1
						c0-1.3,0-2.6,0-3.9c0-0.5,0.2-1,0.7-1.3c1.1-0.6,2.5-0.6,3.7,0c0.5,0.2,0.7,0.7,0.7,1.2c0,0.9,0,1.7,0,2.6
						c0,0.3,0.1,0.3,0.3,0.3c2.7,0,5.4,0,8.1,0c0.8,0,1.2,0.4,1.2,1.2c0,0.3,0,0.5,0,0.8c0,0.6-0.4,1-1,1c0,0,0,0,0,0
						c-0.5,0-1.1,0-1.6,0l0.2,0.2c0.4,0.5,0.8,1,1.2,1.4c0.1,0.1,0.2,0.2,0.3,0.2c0.5,0.1,0.9,0.5,0.9,1.1c0,0.3,0,0.5,0,0.8
						c0,0.4-0.2,0.8-0.6,1c-0.8,0.3-1.7,0.6-2.5,0.9c0,0,0.1,0.1,0.2,0.2c1,0.8,1.8,1.7,2.6,2.7c0.3,0.5,0.5,1,0.4,1.6
						c0,0.5-0.3,0.9-0.8,1.1c-0.5,0.1-1,0-1.3-0.4c-0.6-0.8-1.3-1.6-2-2.3c-0.7-0.7-1.4-1.3-2.3-1.9c-0.6-0.3-1.2-0.5-1.9-0.5
						c-3.1-0.5-6.2-0.9-9.3-1.7c0,0-0.1,0-0.1,0c0,0.5,0,1,0,1.5c0,0,0.1,0.1,0.1,0.1c1,0.2,1.9,0.4,2.9,0.6l0.1-0.3h0.9
						c0,0.4,0,0.7,0,1.1c0,0.3-0.3,0.4-0.7,0.3c-1-0.2-2-0.5-3-0.7c-0.1,0-0.2,0-0.4-0.1c0,0.3,0,0.6,0,0.8c0,0.1,0.2,0.1,0.2,0.2
						c1,0.3,2.1,0.5,3.1,0.8c0.6,0.1,0.7,0.2,0.7,0.8c0,3.4,0,6.7,0,10.1c0,1.2,0,2.4,0,3.6c0,0.2,0.1,0.4,0.3,0.5
						c0.8,0.4,1.7,0.4,2.5,0c0.2-0.1,0.3-0.3,0.3-0.5c0-0.6,0-1.1,0-1.7c0-0.2,0.1-0.4,0.2-0.5c1.4-1.4,3.2-2.3,5.1-2.6
						c0.7-0.1,1.5-0.1,2.3-0.1c0.6,0,1.2,0,1.8,0c0.2,0,0.3,0,0.3-0.3c0-0.2-0.1-0.3-0.3-0.3c-0.7,0-1.4,0-2.1,0
						c-0.4,0-0.5-0.1-0.6-0.4c-0.1-0.3,0.1-0.5,0.4-0.6c0.9-0.3,1.7-0.9,2.2-1.7c0.1-0.3,0.3-0.5,0.4-0.8c-0.4,0-0.7,0-1,0
						c-0.1,0-0.1,0.1-0.2,0.2c-0.3,0.5-0.7,1-1.1,1.3c-0.7,0.5-1.5,0.9-2.4,1.1c-1.4,0.4-2.8,1-4,1.8c0,0-0.1,0.1-0.1,0.1
						c-0.2,0.2-0.5,0.1-0.7-0.1c-0.1-0.1-0.1-0.2-0.1-0.4c0-1,0-2,0-3c0-1.9,0-3.7,0-5.6c0-0.4,0-0.8,0-1.2c0-0.1,0.1-0.2,0.2-0.2
						c0.2,0,0.5,0,0.7,0v9.1c0.1-0.1,0.2-0.1,0.3-0.1c1.1-0.6,2.3-1.1,3.5-1.4c0.8-0.2,1.6-0.6,2.2-1.2c0.2-0.2,0.4-0.5,0.5-0.7
						c0.2-0.4,0.5-0.6,1-0.6c0.3,0,0.7,0,1,0c0.5,0,1,0.4,1,0.9c0,0.1,0,0.2-0.1,0.4c-0.2,0.7-0.6,1.4-1.1,1.9
						c-0.1,0.1-0.2,0.2-0.3,0.3c0,0,0,0,0,0.1c0.2,0,0.3,0,0.5,0c0.6,0,1,0.4,1,1c0,0,0,0.1,0,0.1c0,0,0,0,0,0.1
						c0.1,1-0.4,1.4-1.4,1.4c-1.1,0-2.3,0-3.4,0c-1.4,0.1-2.8,0.7-4,1.6C22.7,29,22.8,29,22.8,30c0,0.2,0,0.4,0,0.6
						c0.1,0.6-0.3,1.2-0.9,1.4c-1.1,0.5-2.3,0.5-3.4,0c-0.6-0.2-0.9-0.8-0.8-1.4c0-0.4,0-0.7,0-1.1c0-0.4,0-0.8,0-1.2
						c0-3.7,0-7.3,0-11c0-0.2-0.1-0.3-0.3-0.4c-0.8-0.2-1.7-0.4-2.5-0.6c-0.1,0-0.1,0-0.3,0v0.5c0,3.2,0,6.4,0,9.5c0,0.7,0,1.3,0,2
						c0,0.8,0,1.6,0,2.4c0,0.4-0.2,0.8-0.5,1.1c-1.2,0.7-2.7,0.8-4,0c-0.4-0.2-0.6-0.7-0.6-1.1c0-3.1,0-6.3,0-9.4L9.6,20.9z
						 M31.4,10.4c-0.1,0-0.2,0.1-0.3,0.1c-0.6,0.2-1.1,0.4-1.7,0.6c-0.7,0.2-1.4,0.4-2.1,0.5c-1.7,0.1-3.4,0-5.1-0.2
						c-2.7-0.4-5.4-1-8-1.7c-0.4-0.1-0.5-0.2-0.5-0.7c0-0.6,0-1.3,0-1.9c0-1,0-2,0-3c0-0.4,0-0.8-0.1-1.3c-1,0.3-2,0.3-3,0
						c0,0.1,0,0.2,0,0.3c0,4.1,0,8.3,0,12.4c0,0.6-0.2,1.2-0.5,1.7c-0.6,0.8-1.3,1.6-2.1,2.2c-1.1,1-2.5,1.5-3.9,1.4
						c-0.9,0-1.8,0-2.7,0c-0.1,0-0.2,0-0.3,0v0.5h0.9c0.7,0,1.4,0,2.1,0c0.2,0,0.4,0.1,0.5,0.3c0.1,0.2,0,0.4-0.2,0.6
						c-0.1,0.1-0.2,0.1-0.2,0.2c-1.1,1-2,2.2-2.7,3.5c-0.3,0.5-0.4,1-0.4,1.6c0,0.2,0.1,0.4,0.3,0.4c0.2,0,0.4-0.1,0.4-0.3
						c0-0.1,0-0.1,0.1-0.2c0.7-1.8,1.8-3.5,3.2-4.8c0.2-0.1,0.3-0.3,0.5-0.3c1.2-0.5,2.3-1.2,3.3-2c0.4-0.3,0.7-0.7,0.8-1.1
						c0-0.2,0.3-0.4,0.5-0.4c0.2,0,0.4,0.2,0.5,0.4c0,0.1,0,0.3,0,0.5c0,3.7,0,7.3,0,11c0,0.2,0,0.4,0.2,0.5c0.8,0.4,1.8,0.4,2.6,0
						c0.1-0.1,0.2-0.2,0.2-0.3c0-0.9,0-1.8,0-2.6c0-0.6,0-1.1,0-1.7c0-4.9,0-9.9,0-14.8c0-0.2,0-0.3,0-0.5c0-0.3,0.2-0.5,0.5-0.5
						c0.1,0,0.1,0,0.2,0c0.2,0.1,0.5,0.1,0.7,0.2c2.9,0.7,5.9,1.2,8.9,1.6c1.3,0.1,2.5,0.6,3.5,1.3c1.3,1.1,2.5,2.3,3.5,3.6
						c0,0.1,0.1,0.1,0.1,0.2c0.1,0.1,0.2,0.1,0.2,0.1c0-0.1,0.1-0.2,0.1-0.2c0-0.3-0.1-0.6-0.2-0.9c-0.4-0.7-0.9-1.3-1.5-1.8
						c-0.6-0.6-1.3-1.1-2-1.7c-0.2-0.1-0.3-0.4-0.2-0.6c0.1-0.2,0.3-0.4,0.5-0.3c1.1,0,2.2-0.3,3.2-0.7c0.1,0,0.2-0.1,0.2-0.2
						C31.4,10.9,31.4,10.7,31.4,10.4L31.4,10.4z M12.1,0.9c-0.4,0.1-0.9,0.2-1.3,0.4c-0.3,0.1-0.3,0.3,0,0.4c0.8,0.4,1.8,0.4,2.6,0
						c0.3-0.1,0.3-0.3,0-0.4C13,1.2,12.6,1.1,12.1,0.9z M20.2,0.9c-0.5,0.1-0.9,0.2-1.3,0.4c-0.3,0.1-0.3,0.3,0,0.4
						c0.8,0.4,1.8,0.4,2.6,0c0.3-0.1,0.3-0.3,0-0.4C21.1,1.2,20.7,1.1,20.2,0.9L20.2,0.9z"/>
					<path id="Trazado_172384" class="st11" d="M21.8,13.7h1c0,0.3,0,0.5,0,0.8c0,0.1-0.1,0.1-0.1,0.1c-0.3,0-0.5,0-0.8-0.1
						c0,0-0.1-0.1-0.1-0.1C21.8,14.2,21.8,14,21.8,13.7z"/>
				</g>
			</g>
		</g>
	</g>
</g>
</svg>
