<svg xmlns="http://www.w3.org/2000/svg" xmlns:xlink="http://www.w3.org/1999/xlink" width="502.562" height="522.699" viewBox="0 0 502.562 522.699">
  <defs>
    <linearGradient id="linear-gradient" x1="0.44" y1="0.637" x2="0.9" y2="-0.426" gradientUnits="objectBoundingBox">
      <stop offset="0.181" stop-color="#fff"/>
      <stop offset="0.284" stop-color="#e5e5e5"/>
      <stop offset="0.504" stop-color="#a4a4a4"/>
      <stop offset="0.819" stop-color="#3d3d3d"/>
      <stop offset="1"/>
    </linearGradient>
    <radialGradient id="radial-gradient" cx="0.5" cy="0.5" r="0.5" gradientUnits="objectBoundingBox">
      <stop offset="0" stop-color="#f6f6f7"/>
      <stop offset="0.477" stop-color="#f9f9fa"/>
      <stop offset="0.715" stop-color="#fff"/>
    </radialGradient>
    <linearGradient id="linear-gradient-2" x1="0.5" x2="0.5" y2="1" gradientUnits="objectBoundingBox">
      <stop offset="0" stop-color="#f5f5f5"/>
      <stop offset="0.25" stop-color="#f5f5f5"/>
      <stop offset="1" stop-color="#a7b3cf"/>
    </linearGradient>
    <linearGradient id="linear-gradient-3" x1="0.5" x2="0.5" y2="1" gradientUnits="objectBoundingBox">
      <stop offset="0" stop-color="#fff"/>
      <stop offset="1" stop-color="#d2e6ee"/>
    </linearGradient>
    <linearGradient id="linear-gradient-9" x1="0.5" x2="0.5" y2="1" gradientUnits="objectBoundingBox">
      <stop offset="0" stop-color="#f5f5f5"/>
      <stop offset="0.25" stop-color="#f5f5f5"/>
      <stop offset="1" stop-color="#eeeef2"/>
    </linearGradient>
  </defs>
  <g id="Grupo_134226" data-name="Grupo 134226" transform="translate(-184.805 -1098.877)">
    <g id="Grupo_131715" data-name="Grupo 131715" transform="translate(184.805 1098.877)">
      <path id="Trazado_151846" data-name="Trazado 151846" d="M505.571,604.086C524.083,571,529.35,528.048,519.548,490.125c-6.2-23.976-18.091-46.251-19.611-71.253-3.041-49.988,35.3-90.4,43.249-139.634,3.5-21.637-.318-46.844-15.3-59.987-14.8-12.981-35.924-10.331-52.679-1.24s-30.933,23.644-47.02,34.284-35.9,17.216-52.884,8.749c-17.208-8.577-26.969-30.2-32.437-51.268s-8.151-43.514-17.482-62.6C310,115.709,277.212,98.555,246.655,102.994s-57.858,28.756-72.5,60.7-17.2,70.585-9.914,105.871c3.7,17.9,9.789,35.033,13.111,53.032s3.626,37.7-3.79,53.91c-15.507,33.9-56.418,38.628-77.841,67.7-17.682,23.995-18.236,60.612-8.2,90.12s28.893,53.449,47.7,76.228c87.7,3.478,176.972,3.708,264.672,7.186C433.968,619.093,471.526,606.45,505.571,604.086Z" transform="translate(-80.961 -95.18)" fill="#a4a4b4" opacity="0.354" style="mix-blend-mode: multiply;isolation: isolate"/>
      <path id="Trazado_151847" data-name="Trazado 151847" d="M359.211,198.832c-.256,27.366,25.758,51.182,21.231,78.172-2.421,14.44-13.424,29.079-7.029,42.251,5.657,11.655,21.861,13.676,34.251,9.887,29-8.872,46.628-38.516,55.059-67.65,7.93-27.4,9.9-58.011-2.8-83.557-10.233-20.581-33.842-38.752-57.817-37.071C380.145,142.4,359.4,178.22,359.211,198.832Z" transform="translate(27.213 -24.993)" fill="#a4a4b4" opacity="0.31" style="mix-blend-mode: multiply;isolation: isolate"/>
      <path id="Trazado_151848" data-name="Trazado 151848" d="M121.714,164.165c-19.372,32.321-20.246,74.919-2.215,108.006,5.7,10.455,13.393,20.2,23.784,26.011s23.795,7.11,34.137,1.211c15.684-8.947,19.154-30.05,17.905-48.064s-5.33-36.9,1.607-53.57c4.523-10.867,13.206-19.339,20.909-28.238s14.893-19.286,15.291-31.05c1.032-30.495-31.344-28.216-50.855-21.883C157.37,124.675,135.22,141.633,121.714,164.165Z" transform="translate(-66.611 -89.372)" fill="#a4a4b4" opacity="0.31" style="mix-blend-mode: multiply;isolation: isolate"/>
      <g id="Grupo_107069" data-name="Grupo 107069" transform="translate(10.838 0.001)" style="mix-blend-mode: multiply;isolation: isolate">
        <path id="Trazado_151849" data-name="Trazado 151849" d="M496.954,613.791l-1.88-2.031c5.172-6.69,13.427-22.024,10.633-49.595-1.244-12.273-4.327-24.4-7.309-36.12-1.331-5.238-2.709-10.654-3.911-16.032-12.825-57.385-7.215-120.689,15.391-173.678,2.008-4.7,4.18-9.421,6.283-13.983,6.231-13.526,12.673-27.514,15.443-42.623,4.859-26.514-4.746-46.387-15.725-53.631-10.534-6.953-25.4-5.89-40.793,2.917a191.466,191.466,0,0,0-16.394,10.969c-6.993,5.036-14.224,10.242-21.988,13.928-30.547,14.5-68.739,2.177-88.835-28.667-9.658-14.822-15.112-32.737-20.385-50.062-2.043-6.713-4.157-13.656-6.48-20.3-7.228-20.652-20.456-46.576-42.43-52.777-19.308-5.451-38.864,6.529-51.867,17.539-24.878,21.065-42.413,49.593-49.38,80.327-4.7,20.726-4.886,43.284-5.069,65.1-.272,32.488-.554,66.082-16.057,93.137-7.053,12.308-16.753,22.128-26.132,31.625-8.786,8.894-17.87,18.091-24.642,29.239C90.08,444.335,86.318,480.1,95.105,517.192c7.9,33.329,23.991,62.9,39.555,91.5l-2.139,1.629C116.856,581.537,100.655,551.77,92.656,518c-9-37.981-5.1-74.68,10.7-100.686,6.951-11.443,16.154-20.759,25.052-29.77,9.254-9.368,18.822-19.056,25.681-31.026,15.073-26.3,15.338-57.961,15.618-91.477.185-22,.375-44.756,5.158-65.852,7.118-31.4,25-60.524,50.356-82,13.433-11.373,33.694-23.733,53.938-18.018,23.019,6.5,36.737,33.252,44.19,54.554,2.348,6.708,4.471,13.684,6.524,20.43,5.207,17.105,10.59,34.794,20.006,49.243,19.427,29.816,56.345,41.73,85.874,27.711,7.567-3.593,14.707-8.733,21.613-13.7a193.018,193.018,0,0,1,16.607-11.11c16.146-9.237,31.87-10.275,43.141-2.837,11.773,7.769,22.107,28.889,16.973,56.9-2.848,15.533-9.379,29.713-15.7,43.427-2.092,4.542-4.257,9.237-6.245,13.9-22.33,52.339-27.871,114.867-15.2,171.55,1.19,5.33,2.562,10.721,3.887,15.935,3.013,11.847,6.129,24.1,7.4,36.629C511.15,590.571,502.418,606.724,496.954,613.791Z" transform="translate(-87.906 -97.739)" fill="#a4a4b4"/>
      </g>
    </g>
    <g id="Grupo_131716" data-name="Grupo 131716" transform="translate(220.041 1130.539)">
      <path id="Trazado_163831" data-name="Trazado 163831" d="M316.827,390.54l8.545-7.54,16.839,20.86L381.416,383l-1.759,33.426,14.074-9.8-13.069,47.248L297.392,502.3l-85.787-51.27,103.607-65.764Z" transform="translate(-135.944 -181.491)" opacity="0.5" fill="url(#linear-gradient)" style="mix-blend-mode: multiply;isolation: isolate"/>
      <path id="Trazado_163832" data-name="Trazado 163832" d="M278.757,473s-1.866-18.57-.86-20.508,8.368-15.505,8.883-17.448c.515-1.958,6.341-21.352,5.987-24-.281-2.055-3.965-3.776-6.788,2.163s-5.63,12.353-6.446,10.829.438-24.5.792-27.537c.442-3.712.225-9.976-2.9-10.6s-3.84,6.265-4.343,10.318c-.487,4.057-1.91,12.3-2.545,12.341s.543-19.663-1.693-25.12c-.768-1.886-5.147-2.907-5.742,1.837s-.306,23.97-.788,23.471-.937-18.7-1.789-20.866-2.216-2.372-3.9-1.025-1.87,16.02-2.3,18.758.036,8.754-.555,8.943.072-13.5-.334-15.807-1.713-3.84-2.9-2.975-2.457,4.52-3.583,12.683c-.74,5.288-.394,19.116.462,24.364s6.868,17.46,6.1,20.633-3.374,18.939-3.185,19.531S278.757,473,278.757,473Z" transform="translate(-30.362 -184.948)" fill="#db8804"/>
      <path id="Trazado_163833" data-name="Trazado 163833" d="M245.266,473.319s2.505-18.5,1.568-20.463c-.933-1.978-7.825-15.787-8.271-17.761-.442-1.958-5.585-21.545-5.143-24.183.346-2.047,4.094-3.631,6.7,2.4s5.211,12.542,6.068,11.042.426-24.509.177-27.549c-.314-3.716.117-9.972,3.257-10.5s3.627,6.4,3.977,10.467,1.492,12.361,2.127,12.426.141-19.668,2.557-25.044c.836-1.862,5.248-2.73,5.682,2.03s-.527,23.962-.028,23.487,1.588-18.662,2.513-20.789,2.3-2.3,3.937-.9c1.629,1.415,1.307,16.085,1.633,18.835s-.334,8.75.245,8.959.4-13.495.885-15.791,1.854-3.772,3-2.863,2.3,4.6,3.137,12.791c.551,5.316-.274,19.128-1.319,24.34s-7.471,17.2-6.808,20.4,2.718,19.048,2.5,19.635C273.463,474.871,245.266,473.319,245.266,473.319Z" transform="translate(-70.12 -182.484)" fill="#db8804"/>
      <g id="Grupo_127706" data-name="Grupo 127706" transform="translate(194.246 134.48)">
        <g id="Grupo_127704" data-name="Grupo 127704" transform="translate(0 0)">
          <path id="Trazado_163834" data-name="Trazado 163834" d="M498.261,436.913V435.46c-6.615-43.969-24.1-55.053-91.927-80.934l-78.46,1.058c-66.215,22.434-83.172,37.354-89.033,87.2l-7.326,65.966H504.6Z" transform="translate(-231.516 -157.207)" fill="#1d272b"/>
          <g id="Grupo_127689" data-name="Grupo 127689" transform="translate(92.952 175.644)">
            <path id="Trazado_163835" data-name="Trazado 163835" d="M254.974,350.961,246.8,379.026l41.709,49.832.149-74.216Z" transform="translate(-246.805 -350.961)" fill="#f8d1b9"/>
            <path id="Trazado_163836" data-name="Trazado 163836" d="M288.1,351.083l7.511,29.858L253.665,429.58l.731-74.839Z" transform="translate(-211.956 -350.341)" fill="#f8d1b9"/>
          </g>
          <g id="Grupo_127700" data-name="Grupo 127700" transform="translate(69.997 28.934)">
            <g id="Grupo_127692" data-name="Grupo 127692" transform="translate(0 2.571)">
              <g id="Grupo_127691" data-name="Grupo 127691">
                <g id="Grupo_127690" data-name="Grupo 127690" transform="translate(26.642 144.577)">
                  <path id="Trazado_163838" data-name="Trazado 163838" d="M247.411,351.033a78.015,78.015,0,0,0,5.156,6.22.3.3,0,0,0,.036-.134A79.172,79.172,0,0,1,247.411,351.033Z" transform="translate(-247.411 -351.033)" fill="#fff"/>
                </g>
                <path id="Trazado_163839" data-name="Trazado 163839" d="M374.261,415.653c0-7.411-2.14-10.439-5.818-11.649.881-15.194,3.094-31.281-2.493-42.425-10.585-21.267-39.817-34.326-59.789-34.326-19.145,0-40.3,11.369-51.015,31.141-6.59,12.226-6.511,28.137-5.642,44.559-4.092,1.088-6.475,3.982-6.475,11.861,0,11.7,5.259,30.174,13.479,32.8,1.04,2.87,2.213,5.593,3.5,8.274.067.152.17.31.231.438a100.314,100.314,0,0,0,9.436,15.5,79.189,79.189,0,0,0,5.192,6.086.292.292,0,0,1-.036.134c9.934,10.8,21.717,17.078,34.357,17.078,19.34,0,36.619-14.585,48.359-37.652a26.848,26.848,0,0,1,3.04-4.645c.687-1.72,1.362-3.423,1.927-5.2C369.738,443.158,374.261,426.5,374.261,415.653Z" transform="translate(-243.029 -327.253)" fill="#f8d1b9"/>
              </g>
            </g>
            <g id="Grupo_127699" data-name="Grupo 127699" transform="translate(5.1)">
              <path id="Trazado_163841" data-name="Trazado 163841" d="M340.161,356.967c1.192,9.764-17.115,9.345-29.323,7.332s-19.407.389-30.818,3.654c-11.527,3.307-22.811,15.206-24.416,21.164-.985,3.569-.146,20.781-.146,20.781l-10.214-4.8s-3.313-23.869.347-39.951c3.532-15.467,11.1-29.213,39.987-35.463,26.2-5.654,44.6-2.225,45.4,4.268,2.043.42,3.684-1.21,6.1-1.21,6.1,0,15.345,7.442,20.659,16,5.29,8.548,12.737,23.875,9.071,50.365-.833,6.913-2.238,8.755-2.238,8.755l-8.536,4.888s3.788-33.4-10.056-43.184C341.589,366.506,340.161,356.967,340.161,356.967Z" transform="translate(-243.868 -326.83)" fill="#1d272b"/>
              <g id="Grupo_127698" data-name="Grupo 127698" transform="translate(87.575 5.556)">
                <g id="Grupo_127697" data-name="Grupo 127697">
                  <g id="Grupo_127695" data-name="Grupo 127695">
                    <path id="Trazado_163842" data-name="Trazado 163842" d="M272.687,364.563c13.831,9.782,10.062,43.16,10.062,43.16l8.524-4.876s1.429-1.842,2.237-8.736c3.684-26.49-1.4-42.151-6.706-50.712s-16.9-15.656-23.012-15.656a27.134,27.134,0,0,0-5.521,1.192c2.6,8.621,8.639,21.006,8.591,23.024C266.863,351.96,268.31,361.5,272.687,364.563Z" transform="translate(-258.272 -327.744)" fill="#1d272b"/>
                  </g>
                  <g id="Grupo_127696" data-name="Grupo 127696" transform="translate(8.445 24.216)">
                    <path id="Trazado_163843" data-name="Trazado 163843" d="M259.807,331.727c-.018.6-.079,1.429-.146,2.274A6.766,6.766,0,0,0,259.807,331.727Z" transform="translate(-259.661 -331.727)" fill="#205f89"/>
                  </g>
                </g>
              </g>
            </g>
          </g>
          <g id="Grupo_127703" data-name="Grupo 127703" transform="translate(76.131)">
            <g id="Grupo_127702" data-name="Grupo 127702">
              <path id="Trazado_163844" data-name="Trazado 163844" d="M365.093,338.225c-.024-4.128-26.69-16.154-60.1-16.154s-60.932,12.026-60.956,16.154h0v53.508a4.683,4.683,0,0,0,.924-.237c0-3.179,26.8-12.22,60.22-12.22,29.955,0,55.071,8.536,59.91,11.248v-52.3Z" transform="translate(-244.038 -322.071)" fill="url(#radial-gradient)"/>
            </g>
          </g>
        </g>
        <path id="Trazado_163846" data-name="Trazado 163846" d="M245.08,340.875c26.18,10.707,69.31,17.255,105.612,1.179,1.192,34.509-3.873,71.109-3.873,71.109s-47.593,32.126-93.994,0C244.637,370.325,245.08,340.875,245.08,340.875Z" transform="translate(-162.633 -226.551)" fill="#1d272b"/>
        <g id="Grupo_127705" data-name="Grupo 127705" transform="translate(135.549 115.601)">
          <path id="Trazado_163847" data-name="Trazado 163847" d="M306.322,341.085c-16.956,7.5-35.208,10.427-52.511,10.36v74.928c27.651-.134,48.638-14.19,48.638-14.19S307.514,375.588,306.322,341.085Z" transform="translate(-253.811 -341.085)" fill="#1d272b"/>
        </g>
      </g>
      <g id="Grupo_127707" data-name="Grupo 127707" transform="translate(4.284 -0.999)">
        <path id="Trazado_163848" data-name="Trazado 163848" d="M202.864,339.944a5.491,5.491,0,0,0,6.13,4.774l13.094-1.648a5.491,5.491,0,0,0,4.774-6.14h0a5.5,5.5,0,0,0-6.144-4.76l-13.08,1.643a5.489,5.489,0,0,0-4.774,6.13Z" transform="translate(-202.82 -180.282)" fill="#1d272b"/>
        <path id="Trazado_163849" data-name="Trazado 163849" d="M213.41,403.508c14.34,27.757,45.1,31.526,78.1,16.525,32.987-14.987,48.638-52.547,30.725-78.129-15.082-21.532-46.371-30.142-77.383-10.759C212.459,351.394,200.057,377.663,213.41,403.508Z" transform="translate(-184.026 -222.115)" fill="#1d272b"/>
        <path id="Trazado_163850" data-name="Trazado 163850" d="M213.133,393.565c9.052,21.3,39.545,27.694,68.135,14.227,28.59-13.449,44.446-41.647,35.412-62.96s-39.558-27.694-68.13-14.231C219.941,344.058,204.1,372.243,213.133,393.565Z" transform="translate(-175.215 -210.752)" fill="url(#linear-gradient-2)"/>
        <path id="Trazado_163851" data-name="Trazado 163851" d="M221.32,351.485c3.75,5.83,12.01,7.2,18.478,3.054s8.643-12.233,4.9-18.068-12.019-7.2-18.468-3.054C219.758,337.563,217.569,345.645,221.32,351.485Z" transform="translate(-143.634 -184.217)" fill="url(#linear-gradient-3)"/>
        <path id="Trazado_163852" data-name="Trazado 163852" d="M216.3,351.744c3.96,4.214,11.537,3.236,16.957-2.194,5.4-5.429,6.59-13.239,2.64-17.444s-11.542-3.236-16.948,2.189S212.354,347.525,216.3,351.744Z" transform="translate(-163.231 -189.647)" fill="url(#linear-gradient-3)"/>
        <path id="Trazado_163853" data-name="Trazado 163853" d="M250.419,335.672c.373,5.766-5.525,10.622-13.194,10.877-7.655.232-14.168-4.246-14.541-10s5.525-10.636,13.185-10.868C243.538,325.427,250.046,329.906,250.419,335.672Z" transform="translate(-132.338 -203.217)" fill="url(#linear-gradient-3)"/>
        <path id="Trazado_163854" data-name="Trazado 163854" d="M214.656,347.329c-.423-5.07,4.692-9.448,11.437-9.794s12.538,3.5,12.962,8.565-4.692,9.453-11.428,9.79S215.079,352.4,214.656,347.329Z" transform="translate(-160.878 -161.144)" fill="url(#linear-gradient-3)"/>
        <path id="Trazado_163855" data-name="Trazado 163855" d="M249.293,332.9c-4.028-4.137-11.592-3.013-16.917,2.508-5.3,5.53-6.335,13.362-2.312,17.5s11.592,3.022,16.907-2.512S253.326,337.054,249.293,332.9Z" transform="translate(-114.778 -186.381)" fill="url(#linear-gradient-3)"/>
        <path id="Trazado_163856" data-name="Trazado 163856" d="M244.036,341.289c-2.412-4.474-9.079-5.348-14.928-1.962-5.821,3.4-8.6,9.776-6.185,14.254s9.084,5.361,14.919,1.961S246.443,345.78,244.036,341.289Z" transform="translate(-134.524 -162.034)" fill="url(#linear-gradient-3)"/>
        <path id="Trazado_163857" data-name="Trazado 163857" d="M214.178,413.665V381.43l68.642-41.738V258.227L269.4,272.509l-2.127,58.1-63.338,49.685.76,35.271Z" transform="translate(-198.85 -258.227)" fill="#1d272b"/>
      </g>
      <g id="Grupo_127712" data-name="Grupo 127712" transform="translate(36.002 235.691)">
        <g id="Grupo_127710" data-name="Grupo 127710" transform="translate(0.054 0)">
          <path id="Trazado_163858" data-name="Trazado 163858" d="M199.489,373.324c-.169.276-4.36.9-4.36.9a93.571,93.571,0,0,1-.8-13.36c.265-5.319.664-6.808,1.9-9.4l.635-.924a11.514,11.514,0,0,1,2.169,3.667c1.682,4.342,1.417,9.7,1.053,13.684S199.489,373.324,199.489,373.324Z" transform="translate(-193.366 -349.577)" fill="#1d272b"/>
          <path id="Trazado_163859" data-name="Trazado 163859" d="M194.595,359.828l4.125-.745s-.078.64-.343.833a7.52,7.52,0,0,1-2.4.678,1.983,1.983,0,0,1-1.2-.254C194.611,360.253,194.595,359.828,194.595,359.828Z" transform="translate(-192.846 -335.232)" fill="#fff"/>
          <path id="Trazado_163860" data-name="Trazado 163860" d="M194.583,367.949c.281-.332.563-1.1.41-2.767s-.351-4.548-.351-4.548a3.035,3.035,0,0,0,1.9.241c1.146-.142,1.829-.263,2.676-2.143a47.37,47.37,0,0,0-.568,8.421,5.416,5.416,0,0,1,.2,1.055Z" transform="translate(-192.866 -335.82)" fill="#1d272b"/>
          <path id="Trazado_163861" data-name="Trazado 163861" d="M195.228,351.2l.747-1.023A21.84,21.84,0,0,1,199,361.69a101.224,101.224,0,0,1-.755,12.023c-.08.806-.5,6.768-.5,7.285s.139,1.328.509,1.479a.735.735,0,0,1-.812-.08s-.043-4.272.279-7.29.884-12.647.686-14.932a20.35,20.35,0,0,0-1.912-7.326A10.6,10.6,0,0,0,195.228,351.2Z" transform="translate(-191.784 -350.178)" fill="#cde3e8"/>
          <g id="Grupo_127709" data-name="Grupo 127709" transform="translate(0 31.338)">
            <g id="Grupo_127708" data-name="Grupo 127708">
              <path id="Trazado_163862" data-name="Trazado 163862" d="M194.88,362.981c.112-.166.265-.137.72-.27a1.279,1.279,0,0,0,.782-.737,8.992,8.992,0,0,1,1.594-.094,18.776,18.776,0,0,0,2.759,1.018c.329.064.737-.086.79.246a129.329,129.329,0,0,1,.458,14.2c-.271,6.093-.964,23.428-1,27.917s.458,11.975.608,14.077.038,2.384-.578,2.879-6.042.5-6.977-.444c-.22-.228.021-2.5.091-4.382a204.829,204.829,0,0,0,.41-30.022s-.546-2.911-.41-10.89C194.245,369.454,194.88,362.981,194.88,362.981Z" transform="translate(-193.94 -361.879)" fill="#1d272b"/>
              <path id="Trazado_163863" data-name="Trazado 163863" d="M201.479,383.506c-.153,1.519-.351,1.768-.8,2.068-.611.415-5.365.5-6.741-.273a1.48,1.48,0,0,0,.091.718c.935.954,6.329.895,6.975.445s.728-.771.579-2.874Z" transform="translate(-193.942 -325.579)" fill="#cde3e8"/>
            </g>
          </g>
        </g>
        <g id="Grupo_127711" data-name="Grupo 127711" transform="translate(0 1.018)">
          <path id="Trazado_163864" data-name="Trazado 163864" d="M196.211,351.479c-1.24,2.59-1.642,4.084-1.9,9.4a93.758,93.758,0,0,0,.8,13.362,2.939,2.939,0,0,0,1.99.388l-.249-24.07Z" transform="translate(-193.347 -350.558)" fill="#cde3e8"/>
          <path id="Trazado_163865" data-name="Trazado 163865" d="M195.58,362.729c-.455.137-.608.1-.72.268,0,0-.638,6.476-.758,13.5-.137,7.979.41,10.89.41,10.89a204.429,204.429,0,0,1-.41,30.025c-.067,1.883-.311,4.154-.088,4.382.5.5,2.263.729,3.9.766V361.9a8.135,8.135,0,0,0-1.556.091A1.266,1.266,0,0,1,195.58,362.729Z" transform="translate(-193.922 -331.52)" fill="#1d272b"/>
        </g>
      </g>
      <g id="Grupo_127713" data-name="Grupo 127713" transform="translate(110.364 238.57)">
        <path id="Trazado_163866" data-name="Trazado 163866" d="M225.522,389.365c-4.636,0-8.4,4.451-8.4,9.942s3.76,9.945,8.4,9.945,8.4-4.452,8.4-9.945S230.161,389.365,225.522,389.365Zm0,17.27c-3.415,0-6.184-3.278-6.184-7.328s2.769-7.325,6.184-7.325,6.19,3.278,6.19,7.325S228.942,406.635,225.522,406.635Z" transform="translate(-217.126 -322.675)" fill="#1d272b"/>
        <path id="Trazado_163867" data-name="Trazado 163867" d="M228.671,439.112l1.768-33.145s1.861-14.594,2.577-17.458c1.178-4.711,6.15-22.206,5.708-23.312s-1.768-.22-2.432,2.212-6.367,20.953-6.367,20.953l-3.244,14.953-2.652,23.42-3.975,5.745,5.3,2.654Z" transform="translate(-212.208 -364.025)" fill="#1d272b"/>
        <path id="Trazado_163868" data-name="Trazado 163868" d="M233.2,389.117c-4.642,0-8.4,4.452-8.4,9.942s3.76,9.945,8.4,9.945,8.394-4.449,8.394-9.945S237.833,389.117,233.2,389.117Zm0,17.27c-3.418,0-6.19-3.278-6.19-7.328s2.772-7.323,6.19-7.323,6.182,3.278,6.182,7.323S236.614,406.387,233.2,406.387Z" transform="translate(-204.249 -323.091)" fill="#1d272b"/>
        <path id="Trazado_163869" data-name="Trazado 163869" d="M228.88,440.434,225.9,412.817l-3.535-2.212,1.987-23.2s5.483-21.633,6.7-22.608c1.1-.884,2.21-.15,1.178,4.272-.571,2.453-4.122,18.708-4.122,18.708l3.975,41.394,5.2,1.323s-4.093,1.987-5.638,4.422A37.71,37.71,0,0,0,228.88,440.434Z" transform="translate(-208.333 -364.465)" fill="#1d272b"/>
        <path id="Trazado_163870" data-name="Trazado 163870" d="M226.614,381.7a1.768,1.768,0,1,1-1.765-1.768A1.769,1.769,0,0,1,226.614,381.7Z" transform="translate(-207.133 -338.505)" fill="#cde3e8"/>
      </g>
      <g id="Grupo_127714" data-name="Grupo 127714" transform="translate(77.727 235.693)">
        <path id="Trazado_163871" data-name="Trazado 163871" d="M227.638,360.917c0-5.933-4.06-10.738-9.072-10.738s-9.066,4.8-9.066,10.738,4.06,10.735,9.066,10.735S227.638,366.847,227.638,360.917Zm-2.386,0c0,4.368-2.992,7.912-6.685,7.912s-6.677-3.543-6.677-7.912S214.878,353,218.566,353,225.251,356.545,225.251,360.917Z" transform="translate(-209.5 -350.179)" fill="#1d272b"/>
        <path id="Trazado_163872" data-name="Trazado 163872" d="M221.97,354.81l1.91,35.8s1.245,13.627,1.13,16.809c-.335,9.115-.182,25.1-.442,26.366-.332,1.6-1.1,1.227-1.216-1.494-.166-3.98-1.1-23.436-1.1-23.436l-2.427-15.382-2.861-25.294-4.3-6.209,5.732-2.863Z" transform="translate(-204.192 -342.406)" fill="#1d272b"/>
        <path id="Trazado_163873" data-name="Trazado 163873" d="M235.925,361.185c0-5.933-4.06-10.74-9.072-10.74s-9.066,4.808-9.066,10.74,4.06,10.738,9.066,10.738S235.925,367.112,235.925,361.185Zm-2.389,0c0,4.368-2.989,7.912-6.683,7.912s-6.68-3.544-6.68-7.912,2.994-7.915,6.68-7.915S233.536,356.814,233.536,361.185Z" transform="translate(-195.592 -349.732)" fill="#1d272b"/>
        <path id="Trazado_163874" data-name="Trazado 163874" d="M222.136,354.362l-3.222,29.832L215.1,386.58l2.148,25.056s.991,20.053,1.082,21.738c.169,3.072.967,3.153,1.575-3.233.257-2.705,1.4-18.9,1.4-18.9l4.293-44.713L231.2,365.1s-4.417-2.148-6.085-4.773A40.845,40.845,0,0,1,222.136,354.362Z" transform="translate(-200.106 -343.158)" fill="#1d272b"/>
        <path id="Trazado_163875" data-name="Trazado 163875" d="M219.748,368.871a1.908,1.908,0,1,0-1.907,1.9A1.907,1.907,0,0,0,219.748,368.871Z" transform="translate(-198.707 -322.016)" fill="url(#linear-gradient-9)"/>
      </g>
      <g id="Grupo_127725" data-name="Grupo 127725" transform="translate(58.86 231.33)">
        <g id="Grupo_127724" data-name="Grupo 127724" transform="translate(0 0)">
          <g id="Grupo_127723" data-name="Grupo 127723">
            <path id="Trazado_163876" data-name="Trazado 163876" d="M217.332,384.386c0,.9-3.123,1.476-6.98,1.5s-6.98-.52-6.985-1.422,3.126-1.371,6.982-1.4S217.332,383.488,217.332,384.386Z" transform="translate(-200.927 -290.621)" fill="#fff"/>
            <path id="Trazado_163877" data-name="Trazado 163877" d="M217.364,383.555c-.455.817-3.468,1.371-7,1.393-3.857.021-7.017-.466-7.017-1.417,0-.011.029,1.216.029,1.216h0c.032.946,3.155,1.505,6.985,1.487s6.948-.616,6.969-1.561l.005,0v-.011l0,0,0,0A9.807,9.807,0,0,0,217.364,383.555Z" transform="translate(-200.967 -289.838)" fill="#1d272b"/>
            <g id="Grupo_127715" data-name="Grupo 127715" transform="translate(5.566 53.801)">
              <path id="Trazado_163878" data-name="Trazado 163878" d="M208.645,408.823l-2.547.021-.013-7.732a20.569,20.569,0,0,1-1.374-5.448c-.123-2.279-.129-2.279-.177-27.027,0,0,2.065.11,3.884.1C208.463,392.769,208.645,408.823,208.645,408.823Z" transform="translate(-204.534 -368.637)" fill="#1d272b"/>
              <path id="Trazado_163879" data-name="Trazado 163879" d="M205.91,368.9l3.659-.075s.289,25.991.2,27.5a32.581,32.581,0,0,1-.884,4.3c0,1.146.083,7.89.083,7.89l-2.8.281Z" transform="translate(-202.225 -368.32)" fill="#1d272b"/>
            </g>
            <path id="Trazado_163880" data-name="Trazado 163880" d="M213.713,368.559l-9.422.051c-.07,0-.134.11-.134.247s.064.244.134.244l.4,0-.019.755-.4,0a.145.145,0,0,0-.131.161c0,.1.064.244.139.244h.4l.013.605h-.4a.169.169,0,0,0-.139.18c.005.1.064.182.139.179l9.422-.051c.07,0,.129-.083.129-.177s-.062-.182-.129-.182h-.407l0-.638.41,0c.07,0,.129-.075.129-.174s-.062-.182-.134-.182l-.4.005,0-.777.4,0c.07,0,.137-.11.137-.244S213.783,368.559,213.713,368.559Z" transform="translate(-199.628 -314.967)" fill="#fff"/>
            <path id="Trazado_163881" data-name="Trazado 163881" d="M203.761,407.289l-.07-46.052a.326.326,0,0,1,.327-.332h0l11.222-.062a.33.33,0,0,1,.233.094h0a.326.326,0,0,1,.094.233h0l.113,45.94a.337.337,0,0,1-.145.268h0a4.8,4.8,0,0,1-2.151.549h0a36.109,36.109,0,0,1-3.64.2h0a27.614,27.614,0,0,1-3.814-.166h0a12.439,12.439,0,0,1-1.936-.356h0a.417.417,0,0,1-.134-.078h0a.328.328,0,0,1-.1-.233Zm.656-.255a14.659,14.659,0,0,0,1.594.271h0a26.3,26.3,0,0,0,3.72.161h0a35.227,35.227,0,0,0,3.578-.19h0a6.658,6.658,0,0,0,1.484-.281h0c.1-.038.169-.059.225-.086h0l-.1-45.412-10.569.064.072,45.473Z" transform="translate(-200.383 -327.917)" fill="#1d272b"/>
            <path id="Trazado_163882" data-name="Trazado 163882" d="M203.715,364.2l-.024-.064.021-.091a.622.622,0,0,1,.155-.284h0a1.793,1.793,0,0,1,.731-.38h0c.8-.206,2.105-.388,2.794-.592h0a1.55,1.55,0,0,0,.3-.1h0c.021-.587.07-3.273.07-3.278h0v-.316l3.918-.024v.33s.011,2.493.035,3.219h0l.011,0h0c.08.032.2.07.343.118h0c.287.083.672.177,1.077.263h0a6.518,6.518,0,0,1,2.3.664h0a.455.455,0,0,1,.155.3h0l.013.118v20.444l-.332,0,.332,0v.329l-11.82.072-.083-20.725Zm.734,20.069,10.513-.07.008-20.069-.008-.021a11.5,11.5,0,0,0-1.95-.466h0a5.629,5.629,0,0,1-1.829-.584h0l-.024-.032h0a.282.282,0,0,1-.088-.2h0c-.029-.289-.035-2.3-.04-3.1h0l-2.622.011c-.016.82-.056,2.93-.059,3.083h0a.429.429,0,0,1-.129.287h0a3.625,3.625,0,0,1-1.553.517h0c-.664.131-1.417.26-1.894.383h0a1.6,1.6,0,0,0-.407.179h0l.083,20.08Z" transform="translate(-200.383 -330.893)" fill="#1d272b"/>
            <path id="Trazado_163883" data-name="Trazado 163883" d="M206.559,368.47l-.727.01-.026-19.931.734,1.784Z" transform="translate(-196.834 -348.55)" fill="#fff"/>
            <path id="Trazado_163884" data-name="Trazado 163884" d="M208.323,356.7s-.131-.533-.161-.616l-.171.029-.217.394.008,3.52a.382.382,0,0,1-.742.005l-.011-3.469-.249-.431s-.155-.059-.177-.04a2.93,2.93,0,0,0-.171.675,1.3,1.3,0,0,0-.321.072,19.806,19.806,0,0,0,.121,2.984c.059.407-.378.846-.568,1.245s-.587,4.543-.587,4.647c0,0,.391.011,2.354.051,1.714-.013,2.247-.07,2.247-.07-.011-.112-.308-4.226-.5-4.634s-.678-.881-.621-1.288a18.861,18.861,0,0,0,.086-3A1.063,1.063,0,0,0,208.323,356.7Z" transform="translate(-198.057 -335.905)" fill="#fff"/>
            <path id="Trazado_163885" data-name="Trazado 163885" d="M205.691,356.4c-.005-.255.295-.477.656-.477s.67.212.67.463c0,0-.34.027-.7.024S205.691,356.4,205.691,356.4Z" transform="translate(-197.026 -336.18)" fill="#fff"/>
            <path id="Trazado_163886" data-name="Trazado 163886" d="M210.379,359.791c0,.1-.1.182-.241.188l-5,.029a.22.22,0,0,1-.241-.19h0c0-.1.11-.188.241-.188l5-.029a.222.222,0,0,1,.241.19Z" transform="translate(-198.361 -330.002)" fill="#fff"/>
            <g id="Grupo_127716" data-name="Grupo 127716" transform="translate(5.405 35.596)">
              <path id="Trazado_163887" data-name="Trazado 163887" d="M204.573,362.019c-.054,0-.1-.029-.1-.072h0c0-.046.046-.075.1-.075h0l5.933-.032c.054,0,.1.032.1.07h0a.091.091,0,0,1-.1.08h0l-5.927.029Z" transform="translate(-204.474 -361.84)" fill="#fff" opacity="0.92"/>
              <path id="Trazado_163888" data-name="Trazado 163888" d="M204.58,364.974c-.056,0-.1-.035-.1-.075h0a.09.09,0,0,1,.1-.078h0l5.933-.032a.084.084,0,0,1,.091.075h0c.005.046-.04.075-.091.075h0l-5.93.035Z" transform="translate(-204.462 -356.89)" fill="#fff" opacity="0.92"/>
              <path id="Trazado_163889" data-name="Trazado 163889" d="M204.583,367.99a.083.083,0,0,1-.1-.072h0a.083.083,0,0,1,.1-.075h0l5.933-.038a.087.087,0,0,1,.091.075h0c0,.046-.04.075-.091.078h0l-5.933.032Z" transform="translate(-204.452 -351.828)" fill="#fff" opacity="0.92"/>
              <path id="Trazado_163890" data-name="Trazado 163890" d="M204.576,362.566a.1.1,0,0,1-.1-.072h0a.1.1,0,0,1,.1-.078h0l2.678-.016a.087.087,0,0,1,.094.075h0a.089.089,0,0,1-.094.075h0l-2.681.016Z" transform="translate(-204.474 -360.9)" fill="#fff" opacity="0.92"/>
              <path id="Trazado_163891" data-name="Trazado 163891" d="M204.573,363.17c-.056,0-.1-.035-.1-.075h0a.089.089,0,0,1,.1-.078h0l2.678-.016c.051.005.1.035.094.081h0c0,.04-.04.069-.094.075h0l-2.678.013Z" transform="translate(-204.469 -359.891)" fill="#fff" opacity="0.92"/>
              <path id="Trazado_163892" data-name="Trazado 163892" d="M204.574,363.772c-.056,0-.094-.035-.094-.072h0c-.005-.046.038-.08.094-.08h0l2.676-.019c.051.005.1.038.1.083h0c0,.04-.046.072-.1.072h0l-2.676.016Z" transform="translate(-204.464 -358.884)" fill="#fff" opacity="0.92"/>
              <path id="Trazado_163893" data-name="Trazado 163893" d="M204.576,364.37c-.059,0-.1-.029-.1-.075h0a.088.088,0,0,1,.1-.075h0l2.678-.016a.089.089,0,0,1,.091.075h0c0,.04-.035.075-.1.078h0l-2.673.013Z" transform="translate(-204.464 -357.872)" fill="#fff" opacity="0.92"/>
              <path id="Trazado_163894" data-name="Trazado 163894" d="M204.579,365.577a.089.089,0,0,1-.1-.08h0c0-.038.043-.072.1-.072h0l2.678-.019a.088.088,0,0,1,.094.078h0a.084.084,0,0,1-.094.075h0l-2.678.019Z" transform="translate(-204.461 -355.855)" fill="#fff" opacity="0.92"/>
              <path id="Trazado_163895" data-name="Trazado 163895" d="M204.579,366.172c-.054,0-.094-.03-.1-.075h0c0-.04.043-.072.1-.072h0l2.676-.016c.056,0,.1.035.094.078h0c.005.037-.035.072-.091.072h0l-2.678.013Z" transform="translate(-204.459 -354.843)" fill="#fff" opacity="0.92"/>
              <path id="Trazado_163896" data-name="Trazado 163896" d="M204.576,366.773c-.051,0-.091-.029-.091-.07h0a.087.087,0,0,1,.091-.083h0l2.684-.011a.081.081,0,0,1,.091.078h0c0,.04-.04.072-.094.072h0l-2.681.013Z" transform="translate(-204.456 -353.834)" fill="#fff" opacity="0.92"/>
              <path id="Trazado_163897" data-name="Trazado 163897" d="M204.581,367.379a.087.087,0,0,1-.1-.075h0a.09.09,0,0,1,.1-.075h0l2.678-.019a.084.084,0,0,1,.094.078h0a.082.082,0,0,1-.088.075h0l-2.684.016Z" transform="translate(-204.456 -352.827)" fill="#fff" opacity="0.92"/>
            </g>
            <g id="Grupo_127718" data-name="Grupo 127718" transform="translate(12.65 35.127)">
              <g id="Grupo_127717" data-name="Grupo 127717">
                <path id="Trazado_163898" data-name="Trazado 163898" d="M207.5,362.726l0-.766-.177.2-.145-.083.362-.407h.147l.005,1.058Z" transform="translate(-207.179 -361.665)" fill="#fff"/>
              </g>
            </g>
            <g id="Grupo_127720" data-name="Grupo 127720" transform="translate(12.462 43.058)">
              <g id="Grupo_127719" data-name="Grupo 127719">
                <path id="Trazado_163899" data-name="Trazado 163899" d="M207.12,364.972a.425.425,0,0,1,.466-.346c.506-.005.643.428.284.632-.19.126-.241.153-.429.281l.608,0v.145l-.935.005-.005-.112.629-.429v0c.212-.12.158-.367-.153-.367a.248.248,0,0,0-.273.2Z" transform="translate(-207.109 -364.626)" fill="#fff"/>
              </g>
            </g>
            <g id="Grupo_127722" data-name="Grupo 127722" transform="translate(12.481 50.986)">
              <g id="Grupo_127721" data-name="Grupo 127721">
                <path id="Trazado_163900" data-name="Trazado 163900" d="M207.429,368.044l.2,0a.166.166,0,0,0,.185-.158c0-.107-.129-.153-.254-.15a.228.228,0,0,0-.23.129l-.174-.035a.394.394,0,0,1,.4-.241c.214,0,.445.091.447.3a.237.237,0,0,1-.123.22.252.252,0,0,1,.169.246c0,.155-.158.305-.477.308-.287,0-.421-.129-.458-.27l.182-.03c.016.083.1.161.273.158.212,0,.313-.094.3-.185-.008-.059-.064-.145-.238-.145l-.2,0Z" transform="translate(-207.116 -367.586)" fill="#fff"/>
              </g>
            </g>
            <path id="Trazado_163901" data-name="Trazado 163901" d="M202.456,378.834c0,.571,4.173,1.01,9.318.986s9.3-.522,9.3-1.093-4.17-1.015-9.318-.988S202.456,378.258,202.456,378.834Zm4.47-.134c0-.265,2.169-.493,4.842-.5s4.84.188,4.84.45-2.167.49-4.84.506S206.926,378.965,206.926,378.7Z" transform="translate(-202.456 -299.562)" fill="#fff"/>
            <path id="Trazado_163902" data-name="Trazado 163902" d="M211.774,379.188c-5.137.027-9.31-.415-9.315-.988l.005.97h0v.005h0c.04.576,4.192,1.012,9.31.983s9.265-.512,9.3-1.087h0l-.011-.94C220.907,378.692,216.82,379.161,211.774,379.188Zm-9.315-.7,0,.011.008-.011Zm0,.011Z" transform="translate(-202.456 -298.903)" fill="#cde3e8"/>
          </g>
        </g>
        <rect id="Rectángulo_35061" data-name="Rectángulo 35061" width="3.78" height="2.637" transform="translate(5.617 76.702)" fill="#cde3e8"/>
      </g>
      <g id="Grupo_127728" data-name="Grupo 127728" transform="translate(267.799 217.851)">
        <g id="Grupo_91930" data-name="Grupo 91930" transform="translate(0 9.528)">
          <path id="Trazado_151017" data-name="Trazado 151017" d="M1620.054,1573.015c-1.719,0-2.176,1.352-2.176,3.072v4.708c0,1.719.456,2.385,2.176,2.385h4.939v-10.164Z" transform="translate(-1617.879 -1573.015)" fill="#008f85"/>
          <path id="Trazado_151018" data-name="Trazado 151018" d="M2053.161,1573.015a3.1,3.1,0,0,1,3.133,3.072v4.708c0,1.719-1.414,2.385-3.133,2.385h-5v-10.164Z" transform="translate(-1927.217 -1573.015)" fill="#008f85"/>
        </g>
        <g id="Grupo_91933" data-name="Grupo 91933" transform="translate(6.098 0)">
          <g id="Grupo_91931" data-name="Grupo 91931" transform="translate(1.016 1.219)">
            <path id="Trazado_151019" data-name="Trazado 151019" d="M1758.037,1548.793V1563.2a17.186,17.186,0,0,1-15.3,16.948l-13.535,1.519a21.43,21.43,0,0,1-18.479-6.644l-7.556-8.016h-4.86l-7.544,8.016a21.526,21.526,0,0,1-18.467,6.82l-13.736-1.608a17.338,17.338,0,0,1-15.375-17.036v-14.409a5.725,5.725,0,0,1,5.915-5.333l51.581,2.186,51.552-2.186a5.529,5.529,0,0,1,4.035,1.469A5.455,5.455,0,0,1,1758.037,1548.793Z" transform="translate(-1643.19 -1543.453)" fill="url(#linear-gradient-3)"/>
            <path id="Trazado_151020" data-name="Trazado 151020" d="M1751.124,1591.954a17.006,17.006,0,0,1-8.431,3.377l-13.51,1.519a21.4,21.4,0,0,1-18.466-6.644l-7.544-8.016h-4.86l-7.544,8.016a21.526,21.526,0,0,1-18.467,6.821l-13.736-1.607a17.339,17.339,0,0,1-15.375-17.036V1564.57c5.082,3.621,12.958,6.719,24.925,7.192C1697.479,1572.916,1737.007,1559.54,1751.124,1591.954Z" transform="translate(-1643.19 -1558.634)" fill="#fff" opacity="0.5" style="mix-blend-mode: soft-light;isolation: isolate"/>
          </g>
          <g id="Grupo_91932" data-name="Grupo 91932">
            <path id="Trazado_151021" data-name="Trazado 151021" d="M1725.174,1580.214a22.062,22.062,0,0,1-16.738-7.088l-7.161-7.2h-3.842l-7.345,7.245c-4.007,4.443-9.916,6.835-16.6,6.835a27.183,27.183,0,0,1-3.013-.208l-13.942-1.536c-9.441-1.061-16.962-9.051-16.962-18.169v-14.415c0-1.517.975-3.065,2.718-4.735a8.059,8.059,0,0,1,5.45-1.817l51.485,2.192,51.566-2.2a5.873,5.873,0,0,1,4.243,1.823c1.412,1.354,1.419,3.122,1.419,4.682v14.468c0,9.588-6.567,17.285-15.617,18.3l-12.886,1.667A24.951,24.951,0,0,1,1725.174,1580.214Zm-28.751-16.323h5.877l7.909,7.773a19.671,19.671,0,0,0,14.965,6.3,22.657,22.657,0,0,0,2.488-.228l13.083-1.71c7.819-.878,13.676-7.6,13.676-15.933v-14.415c0-1.473-.228-2.374-.861-2.98a3.694,3.694,0,0,0-2.652-1.148l-.224,0-51.4,2.193-51.75-2.2a4.991,4.991,0,0,0-3.244,1.147c-1.523,1.458-1.666,2.426-1.666,2.981v14.415a16.17,16.17,0,0,0,14.492,15.735l13.724,1.516a23.888,23.888,0,0,0,2.7.155c5.985,0,11.23-1.832,14.81-5.8Z" transform="translate(-1639.574 -1539.118)" fill="#008f85"/>
          </g>
        </g>
      </g>
    </g>
    <g id="Grupo_131717" data-name="Grupo 131717" transform="translate(528.96 1474.222)">
      <path id="Trazado_163505" data-name="Trazado 163505" d="M444.932,409.054l.013,9.422.012,9.422-24.953.035L420,421.766c0-1.8-1.816-3.253-4.049-3.251l-24.9.035c-2.234,0-4.043,1.462-4.04,3.26l.008,6.168-24.953.034-.013-9.423-.012-9.422Z" transform="translate(-353.967 -288.766)" fill="#38474f"/>
      <path id="Trazado_163506" data-name="Trazado 163506" d="M363.2,412.773c2.406-.506,5.07-.238,7.523-.261l7.913-.069c5.2-.043,10.391-.038,15.586-.04l30.933-.006c2.878,0,5.755.019,8.633.033,2.862.015,5.828-.044,8.545.9a.577.577,0,0,1,0,1.115,23.343,23.343,0,0,1-7.343.913c-2.636.051-5.277.049-7.913.061-5.2.024-10.392.027-15.587.039-10.31.026-20.623.115-30.933.057q-4.315-.023-8.632-.051l-4.317-.027a22.27,22.27,0,0,1-4.406-.22A1.262,1.262,0,0,1,363.2,412.773Z" transform="translate(-353.959 -288.645)" fill="#263238"/>
      <path id="Trazado_163507" data-name="Trazado 163507" d="M419.323,384.731l-.011-8.39a22.158,22.158,0,0,0-.489-4.6l-5.028-23.554a7.507,7.507,0,0,0-7.352-5.94l-9.218.012-.017-12.318,12.688-.018,8.9-.012a9.229,9.229,0,0,1,8.518,5.645l14.393,34.16a22.99,22.99,0,0,1,1.8,8.9l.027,19.885.013,9.175-24.2.033-56.038.078-.007-5.269a3.906,3.906,0,0,1,3.9-3.912l38.333-.052A13.8,13.8,0,0,0,419.323,384.731Z" transform="translate(-353.921 -291.635)" fill="#dbdbdb"/>
      <rect id="Rectángulo_34994" data-name="Rectángulo 34994" width="99.023" height="9.422" rx="4.232" transform="translate(99.036 124.228) rotate(179.921)" fill="#38474f"/>
      <g id="Grupo_127554" data-name="Grupo 127554" transform="translate(19.493 0.001)">
        <rect id="Rectángulo_34995" data-name="Rectángulo 34995" width="9.474" height="16.133" transform="translate(23.868 16.133) rotate(179.921)" fill="#868695"/>
        <rect id="Rectángulo_34996" data-name="Rectángulo 34996" width="13.583" height="75.995" transform="translate(26.012 81.42) rotate(179.921)" fill="#263238"/>
        <rect id="Rectángulo_34997" data-name="Rectángulo 34997" width="25.124" height="60.574" transform="translate(31.777 76.697) rotate(179.921)" fill="#ebebeb"/>
        <g id="Grupo_127552" data-name="Grupo 127552" transform="translate(9.225 21.457)">
          <rect id="Rectángulo_34998" data-name="Rectángulo 34998" width="5.176" height="6.297" transform="matrix(-1, 0.001, -0.001, -1, 5.239, 45.757)" fill="#fff"/>
          <rect id="Rectángulo_34999" data-name="Rectángulo 34999" width="5.176" height="36.408" transform="translate(5.226 36.408) rotate(179.921)" fill="#fff"/>
        </g>
        <rect id="Rectángulo_35000" data-name="Rectángulo 35000" width="7.238" height="12.425" transform="translate(22.875 106.926) rotate(179.921)" fill="#263238"/>
        <g id="Grupo_127553" data-name="Grupo 127553" transform="translate(20.89 26.033)">
          <path id="Trazado_163508" data-name="Trazado 163508" d="M393.219,328.915a10.8,10.8,0,1,0,10.79-10.819A10.8,10.8,0,0,0,393.219,328.915Z" transform="translate(-393.219 -318.097)" fill="#868695"/>
          <path id="Trazado_163509" data-name="Trazado 163509" d="M397.222,328.764a6.656,6.656,0,1,0,6.647-6.665A6.656,6.656,0,0,0,397.222,328.764Z" transform="translate(-393.074 -317.952)" fill="#868695" stroke="#263238" stroke-miterlimit="10" stroke-width="1"/>
        </g>
        <rect id="Rectángulo_35001" data-name="Rectángulo 35001" width="38.474" height="5.662" rx="2.543" transform="matrix(-1, 0.001, -0.001, -1, 38.482, 98.631)" fill="#38474f"/>
      </g>
    </g>
    <g id="Grupo_131719" data-name="Grupo 131719">
      <text id="MUERTE_EN_EL" data-name="MUERTE EN EL" transform="translate(393.348 1154.59)" fill="#008f85" font-size="27" font-family="Roboto-Bold, Roboto" font-weight="700"><tspan x="0" y="0">MUERTE EN EL</tspan></text>
      <text id="BIOLÓGICO" transform="translate(393.348 1220.941)" fill="#008f85" font-size="27" font-family="Roboto-Bold, Roboto" font-weight="700"><tspan x="0" y="0">BIOLÓGICO</tspan></text>
      <text id="CONTEXTO" transform="translate(393.348 1194.154)" fill="#1d272b" font-size="41" font-family="Roboto-Bold, Roboto" font-weight="700"><tspan x="0" y="0">CONTEXTO</tspan></text>
      <rect id="Rectángulo_36284" data-name="Rectángulo 36284" width="6.325" height="103.412" transform="translate(378.168 1124.529)" fill="#d93328"/>
    </g>
    <g id="Grupo_127651" data-name="Grupo 127651" transform="translate(202.691 1469.938)">
      <path id="Trazado_163738" data-name="Trazado 163738" d="M309.044,328.9,230.05,297.856h99.908Z" transform="translate(-192.926 -242.408)" fill="#af9caa"/>
      <rect id="Rectángulo_35034" data-name="Rectángulo 35034" width="43.886" height="54.801" transform="translate(136.832 83.235)" fill="#1d272b"/>
      <rect id="Rectángulo_35035" data-name="Rectángulo 35035" width="29.779" height="13.602" transform="translate(83.045 138.037)" fill="#1d272b"/>
      <rect id="Rectángulo_35036" data-name="Rectángulo 35036" width="43.887" height="54.801" transform="translate(156.247 83.235)" fill="#a4a4b4"/>
      <path id="Trazado_163739" data-name="Trazado 163739" d="M295.888,328.9l132.683-2.967,100.555-28.074H316.8Z" transform="translate(-203.708 -242.407)" fill="#868695"/>
      <g id="Grupo_127636" data-name="Grupo 127636" transform="translate(0 31.277)">
        <path id="Trazado_163740" data-name="Trazado 163740" d="M236.234,301.884,199.109,289.8V277.71L236.234,289.8Z" transform="translate(-199.109 -277.71)" fill="#868695"/>
        <rect id="Rectángulo_35037" data-name="Rectángulo 35037" width="288.292" height="12.087" transform="translate(37.125 12.086)" fill="#1d272b"/>
        <path id="Trazado_163741" data-name="Trazado 163741" d="M524.526,289.8H233.69L199.109,277.71H501.17Z" transform="translate(-199.109 -277.71)" fill="#1d272b"/>
      </g>
      <g id="Grupo_127650" data-name="Grupo 127650" transform="translate(15.965)">
        <path id="Trazado_163742" data-name="Trazado 163742" d="M386.539,283.72c-5.652.192-11.078-.068-16.511-.35q-8.131-.506-16.155-1.346c-5.363-.507-10.7-1.229-16.032-1.9-5.341-.707-10.631-1.5-15.993-2.359l2.492-.02-16.849,1.268c-5.626.337-11.242.758-16.878,1.007-5.628.31-11.268.524-16.909.721-5.646.145-11.293.3-16.96.253-2.805-.025-5.062-2.654-5.041-5.871a5.746,5.746,0,0,1,3.788-5.59c5.482-1.652,10.987-3.1,16.491-4.553,5.508-1.406,11.019-2.794,16.541-4.088,5.514-1.353,11.048-2.534,16.573-3.8l16.6-3.538a5.443,5.443,0,0,1,1.587-.1l.906.083L340,254.946l15.8,1.479,15.717,1.494c5.2.52,10.415.981,15.418,1.422l.1.01c5.86.516,10.245,6.383,9.8,13.1C396.414,278.719,391.891,283.515,386.539,283.72Z" transform="translate(-228.503 -251.285)" fill="#f8d1b9"/>
        <path id="Trazado_163743" data-name="Trazado 163743" d="M248.826,280.353c-2.132-2.544-3.568-2.755-5.908-4.6a23.825,23.825,0,0,1-6.179-7.87c-1.359-2.563-1.943-4.723-3.11-9.041-1.1-4.064-1.683-6.3-.906-6.991,1.122-.991,4.376,1.859,5.217,2.617a66.531,66.531,0,0,0,7.945,5.992c4.2,2.7,8.448,5.424,14.368,6.49a28.749,28.749,0,0,0,10.038,0q.81,6.987,1.621,13.973a67.183,67.183,0,0,0-11.817,2.311c-3.542,1.034-6.424,2.205-8.729.488C250.26,282.9,250.416,282.249,248.826,280.353Z" transform="translate(-232.367 -251.643)" fill="#f8d1b9"/>
        <path id="Trazado_163744" data-name="Trazado 163744" d="M391.562,287.484c-4.648.211-9.292.211-13.936.226-4.645-.038-9.288-.095-13.93-.246-4.642-.09-9.282-.354-13.923-.532-4.64-.217-9.28-.5-13.918-.8l1.562-.092-16.849,1.268c-5.626.336-11.242.757-16.878,1.007-5.63.31-11.269.523-16.909.721-5.646.145-11.293.3-16.961.252-2.805-.024-5.061-2.653-5.039-5.87a5.744,5.744,0,0,1,3.788-5.589c5.482-1.653,10.987-3.1,16.489-4.555,5.51-1.406,11.021-2.793,16.542-4.087,5.514-1.353,11.048-2.536,16.573-3.8l16.6-3.54a3.607,3.607,0,0,1,.664-.079l.9-.013c4.639-.072,9.277-.131,13.915-.122,4.635.046,9.274.007,13.907.14,4.636.074,9.27.242,13.9.428,4.633.24,9.265.463,13.9.9l.055.006c5.86.553,10.22,6.45,9.738,13.173C401.3,282.5,396.865,287.248,391.562,287.484Z" transform="translate(-225.89 -249.646)" fill="#f8d1b9"/>
        <path id="Trazado_163745" data-name="Trazado 163745" d="M444.584,262.968c-1.23-.932-37.453-8.256-47.907-8.24-10.367.016-9.9-.494-73.743,8.368,7.267-1.009-1.049,24.388-1.049,24.388,8.917,1.046,16.163,2.308,21.2,3.285,14.2,2.751,21.244,5.242,30.508,2.066,3.676-1.261,15.035,4.321,28.428,5.583a55.947,55.947,0,0,0,13.051-.49c6.4-.829,11.5-1.491,16.939-4.587,3-1.711,8.893-5.751,13.892-14.744q-.418-4.8-.822-9.63Q444.831,265.963,444.584,262.968Z" transform="translate(-214.479 -251.026)" fill="#f8d1b9"/>
        <path id="Trazado_163746" data-name="Trazado 163746" d="M445.906,282.857c-.612-1.1-1.185-2.3-1.74-3.542-2.283-5.1-4.253-11.119-6.741-15.65a22.65,22.65,0,0,1-5.3.754c-.23.011-.458.009-.686.008-1.587-.023-3.548-1.562-6.49-2.762-3.222-1.316-5.475.614-4.634,3.2,1.011,3.106,2.452,5.094,3.316,8.275.733,2.7.684,9.829-.435,14.489a29,29,0,0,1,3.578-3.829c3.294-3.12,7.84-2.762,9.752-2.534C439.681,281.65,441.009,281.374,445.906,282.857Z" transform="translate(-194.844 -249.724)" fill="#f8d1b9"/>
        <path id="Trazado_163747" data-name="Trazado 163747" d="M442.169,278.911c-2.283-5.1-4.253-11.119-6.741-15.649a22.652,22.652,0,0,1-5.3.754,19.574,19.574,0,0,0,5.747,11.458A15.559,15.559,0,0,0,442.169,278.911Z" transform="translate(-192.847 -249.321)" fill="#f8d1b9"/>
        <g id="Grupo_127644" data-name="Grupo 127644" transform="translate(240.598 8.631)">
          <path id="Trazado_163748" data-name="Trazado 163748" d="M451.309,262.006c-5.475-4.435-14.573-4.367-17.477,1.159-2.832,5.388,1.128,14.242,6.662,17.923,4.936,3.284,13.01,3.71,16.033-1.619C459.541,274.158,456.01,265.814,451.309,262.006Z" transform="translate(-432.893 -258.836)" fill="#f8d1b9"/>
          <g id="Grupo_127643" data-name="Grupo 127643" transform="translate(3.8 0.343)">
            <g id="Grupo_127637" data-name="Grupo 127637" transform="translate(6.288 6.621)">
              <path id="Trazado_163749" data-name="Trazado 163749" d="M441.562,267.75a.254.254,0,0,1-.217-.133.329.329,0,0,1,.072-.416,3.373,3.373,0,0,0,1.044-1.356,3.822,3.822,0,0,0,.258-.952.268.268,0,0,1,.3-.25.3.3,0,0,1,.218.343,4.379,4.379,0,0,1-.306,1.118,3.937,3.937,0,0,1-1.223,1.595A.232.232,0,0,1,441.562,267.75Z" transform="translate(-441.3 -264.64)" fill="#64546f"/>
            </g>
            <g id="Grupo_127638" data-name="Grupo 127638" transform="translate(9.201 0.001)">
              <path id="Trazado_163750" data-name="Trazado 163750" d="M443.99,262.549a.245.245,0,0,1-.178-.079.333.333,0,0,1-.016-.424,3.7,3.7,0,0,0,.732-1.6,3.881,3.881,0,0,0,.055-1,.29.29,0,0,1,.239-.324.272.272,0,0,1,.282.275,4.593,4.593,0,0,1-.065,1.171,4.333,4.333,0,0,1-.857,1.881A.254.254,0,0,1,443.99,262.549Z" transform="translate(-443.728 -259.123)" fill="#64546f"/>
            </g>
            <g id="Grupo_127639" data-name="Grupo 127639" transform="translate(2.803 1.389)">
              <path id="Trazado_163751" data-name="Trazado 163751" d="M442.874,262.987h-.022a3.416,3.416,0,0,1-1.62-.563,12.568,12.568,0,0,1-1.292-1.07l-.12-.113c-.278-.263-.406-.361-.524-.361-.133.018-.279.173-.411.438a.243.243,0,0,1-.356.11.322.322,0,0,1-.1-.408c.277-.558.592-.708.806-.736.34-.04.583.181.914.492l.119.11a12.674,12.674,0,0,0,1.227,1.022,2.969,2.969,0,0,0,1.4.48.291.291,0,0,1,.239.324A.278.278,0,0,1,442.874,262.987Z" transform="translate(-438.396 -260.279)" fill="#64546f"/>
            </g>
            <g id="Grupo_127640" data-name="Grupo 127640" transform="translate(0 1.609)">
              <path id="Trazado_163752" data-name="Trazado 163752" d="M436.59,265.072a.264.264,0,0,1-.241-.186,4.861,4.861,0,0,1-.272-2.059,4.622,4.622,0,0,1,.8-2.252.241.241,0,0,1,.368-.047.33.33,0,0,1,.041.421,3.968,3.968,0,0,0-.69,1.935,4.2,4.2,0,0,0,.234,1.772.315.315,0,0,1-.14.391A.221.221,0,0,1,436.59,265.072Z" transform="translate(-436.06 -260.462)" fill="#64546f"/>
            </g>
            <g id="Grupo_127641" data-name="Grupo 127641" transform="translate(6.714)">
              <path id="Trazado_163753" data-name="Trazado 163753" d="M441.916,261.33a.228.228,0,0,1-.127-.038.326.326,0,0,1-.1-.408l.785-1.607a.242.242,0,0,1,.356-.115.325.325,0,0,1,.1.408l-.785,1.607A.257.257,0,0,1,441.916,261.33Z" transform="translate(-441.656 -259.122)" fill="#64546f"/>
            </g>
            <g id="Grupo_127642" data-name="Grupo 127642" transform="translate(4.213 5.382)">
              <path id="Trazado_163754" data-name="Trazado 163754" d="M439.833,265.75a.235.235,0,0,1-.163-.067.329.329,0,0,1-.041-.421l1.082-1.542a.238.238,0,0,1,.367-.046.329.329,0,0,1,.039.421l-1.082,1.542A.248.248,0,0,1,439.833,265.75Z" transform="translate(-439.571 -263.607)" fill="#64546f"/>
            </g>
          </g>
          <path id="Trazado_163755" data-name="Trazado 163755" d="M450.87,262.239c-1.6-.1-2.051,4.1-1.907,6.529a10.194,10.194,0,0,1,.008,1.065,4.122,4.122,0,0,1-4.136,4.189c-1.693-.114-3.438-.134-3.4.487.088,1.478,2.763,1.677,2.888,3.485a3.145,3.145,0,0,1-.4,2.04c-.647.907-1.651.325-3.372,1.133-.9.418-1.909,1.166-1.814,1.614.068.326.669.251,1.523.643a6.391,6.391,0,0,1,1.943,1.634c1.295,1.231,2.955,1.257,5.052,1.29a12.005,12.005,0,0,0,4.322-.779,13.157,13.157,0,0,0,1.47-.7c2.072-1.187,4.674-4.192,4.942-11.3C458.162,269.114,453.806,262.417,450.87,262.239Z" transform="translate(-431.725 -258.156)" fill="#12263f"/>
          <path id="Trazado_163756" data-name="Trazado 163756" d="M442,272.785c-1.266-1.458-2.976-1.86-3.815-.9s-.5,2.922.77,4.38,2.974,1.86,3.815.9S443.271,274.242,442,272.785Z" transform="translate(-431.927 -256.332)" fill="#f8d1b9"/>
        </g>
        <path id="Trazado_163757" data-name="Trazado 163757" d="M261.9,288.634c-2.133-2.546-3.57-2.755-5.908-4.6a23.827,23.827,0,0,1-6.179-7.872c-1.359-2.562-1.943-4.72-3.111-9.041-1.1-4.064-1.682-6.3-.9-6.99,1.122-.991,4.376,1.86,5.216,2.616a66.67,66.67,0,0,0,7.947,5.994c4.2,2.7,8.447,5.423,14.368,6.489a28.772,28.772,0,0,0,10.038,0q.812,6.987,1.621,13.972a67.449,67.449,0,0,0-11.818,2.31c-3.542,1.034-6.423,2.208-8.728.489C263.336,291.179,263.492,290.53,261.9,288.634Z" transform="translate(-229.754 -249.988)" fill="#f8d1b9"/>
        <path id="Trazado_163758" data-name="Trazado 163758" d="M345.46,256.742c2,.05,17.474-2.221,21.319-1.328,4.509,1.047,10,5.6,21.163,5.6,8.534,0,10.215.471,23.141-4.375-1.05,3.132-1.589,10.307-2.463,16.349a82.957,82.957,0,0,0-.813,13.986c.185,10.137.127,27.673,0,51.047l-64.83,2.1c.609-17.249,1.619-26.094,2.228-43.343,1.1-3.258,1.891-16.275,2.242-21.923A53.394,53.394,0,0,0,345.46,256.742Z" transform="translate(-210.264 -250.931)" fill="url(#radial-gradient)"/>
        <g id="Grupo_127645" data-name="Grupo 127645" transform="translate(97.128 55.449)">
          <path id="Trazado_163759" data-name="Trazado 163759" d="M328.856,307.974l-15.537-5.059v-5.058l15.537,5.058Z" transform="translate(-313.319 -297.856)" fill="#af9caa"/>
          <rect id="Rectángulo_35038" data-name="Rectángulo 35038" width="130.675" height="5.059" transform="translate(15.537 5.058)" fill="#1d272b"/>
          <path id="Trazado_163760" data-name="Trazado 163760" d="M459.531,302.915H328.856l-15.537-5.058H449.037Z" transform="translate(-313.319 -297.856)" fill="#1d272b"/>
        </g>
        <g id="Grupo_127649" data-name="Grupo 127649" transform="translate(115.888 16.786)">
          <path id="Trazado_163761" data-name="Trazado 163761" d="M434.84,292.62l-32.856,8.329-1.435.4-22.928,1.857q-11.468.9-22.954,1.664c-2.548.17-4.737-2.061-4.886-4.984a5.267,5.267,0,0,1,3.486-5.452q11.157-3.227,22.327-6.332l22.354-6.137-1.435.4c5.188-2.7,10.345-5.4,15.556-8.021l7.84-3.9,7.95-3.776c6.065-2.881,13.021.424,15.533,7.38s-.37,14.934-6.435,17.816a10.945,10.945,0,0,1-1.919.7Z" transform="translate(-324.793 -265.633)" fill="#f8d1b9"/>
          <path id="Trazado_163762" data-name="Trazado 163762" d="M364.1,288.871c.119.887.854,6.976-2.62,10.891-3.34,3.763-8.584,3.283-8.947,3.243-2.328-.251-3.6-1.272-6.3-.786-1.543.277-2.149,1-3.71,1.5a24.959,24.959,0,0,1-12.336.554,1.729,1.729,0,0,1-.485-3.079,33.629,33.629,0,0,0,7.037-5.734,15.322,15.322,0,0,1,5.733-4.5c.46-.182,1.385-.557,5.539-.914,4.695-.406,6.692-.218,10.781-.548C361.071,289.313,362.923,289.053,364.1,288.871Z" transform="translate(-328.954 -260.989)" fill="#f8d1b9"/>
          <g id="Grupo_127646" data-name="Grupo 127646" transform="translate(2.539 35.012)">
            <path id="Trazado_163763" data-name="Trazado 163763" d="M331.243,302.1a.173.173,0,0,1-.157-.115.212.212,0,0,1,.085-.264,23.635,23.635,0,0,0,3.956-2.631,25.759,25.759,0,0,0,4.071-4.21.158.158,0,0,1,.244-.018.22.22,0,0,1,.016.281,26.161,26.161,0,0,1-4.131,4.27,23.949,23.949,0,0,1-4.01,2.67A.162.162,0,0,1,331.243,302.1Z" transform="translate(-331.07 -294.813)" fill="#e59ca9"/>
          </g>
          <g id="Grupo_127647" data-name="Grupo 127647" transform="translate(6.374 35.472)">
            <path id="Trazado_163764" data-name="Trazado 163764" d="M334.439,302.484a.175.175,0,0,1-.157-.115.213.213,0,0,1,.085-.264,23.777,23.777,0,0,0,3.956-2.631,25.763,25.763,0,0,0,4.071-4.21.158.158,0,0,1,.244-.018.219.219,0,0,1,.016.281,26.209,26.209,0,0,1-4.13,4.27,24.183,24.183,0,0,1-4.011,2.67A.161.161,0,0,1,334.439,302.484Z" transform="translate(-334.266 -295.196)" fill="#e59ca9"/>
          </g>
          <g id="Grupo_127648" data-name="Grupo 127648" transform="translate(11.953 37.177)">
            <path id="Trazado_163765" data-name="Trazado 163765" d="M339.088,302.183a.17.17,0,0,1-.145-.092.214.214,0,0,1,.054-.274,25.134,25.134,0,0,0,3.627-3.2c.576-.616,1.129-1.267,1.644-1.935a.159.159,0,0,1,.245-.018.222.222,0,0,1,.016.281c-.523.678-1.083,1.339-1.669,1.963a25.408,25.408,0,0,1-3.679,3.241A.15.15,0,0,1,339.088,302.183Z" transform="translate(-338.915 -296.618)" fill="#e59ca9"/>
          </g>
        </g>
      </g>
      <rect id="Rectángulo_35039" data-name="Rectángulo 35039" width="131.125" height="13.602" transform="translate(112.824 138.037)" fill="#a4a4b4"/>
    </g>
    <g id="Grupo_131718" data-name="Grupo 131718" transform="translate(199.082 1521.887)">
      <path id="Trazado_163547" data-name="Trazado 163547" d="M58.852,391.354l.1,75.645,158.981-.22-.1-75.645Zm111.526,61.765-95.471.132-.066-48.193,95.471-.132Z" transform="translate(-58.852 -367.346)" fill="#dbdbdb"/>
      <rect id="Rectángulo_35002" data-name="Rectángulo 35002" width="22.791" height="48.193" transform="translate(15.989 37.711) rotate(-0.079)" fill="#dbdbdb"/>
      <path id="Trazado_163548" data-name="Trazado 163548" d="M94.583,379.606l-16.567.023a4.754,4.754,0,1,0,.012,9.507h.586l.1,72.77a7.7,7.7,0,1,0,15.4-.023l-.1-72.77h.586a4.753,4.753,0,1,0-.012-9.507Z" transform="translate(-43.629 -379.52)" fill="#fff"/>
      <path id="Trazado_163549" data-name="Trazado 163549" d="M109.877,379.585l-16.567.023a4.754,4.754,0,1,0,.012,9.507h.586l.1,72.77a7.7,7.7,0,1,0,15.4-.023l-.1-72.77h.584a4.754,4.754,0,0,0-.012-9.507Z" transform="translate(-27.478 -379.542)" fill="#fff"/>
      <path id="Trazado_163550" data-name="Trazado 163550" d="M125.171,379.564l-16.567.023a4.754,4.754,0,0,0,.012,9.507h.586l.1,72.77a7.7,7.7,0,1,0,15.4-.022l-.1-72.77h.584a4.753,4.753,0,1,0-.012-9.507Z" transform="translate(-11.327 -379.565)" fill="#fff"/>
      <g id="Grupo_127567" data-name="Grupo 127567" transform="translate(29.639 -0.001)">
        <g id="Grupo_127564" data-name="Grupo 127564" transform="translate(0 0.086)">
          <path id="Trazado_163551" data-name="Trazado 163551" d="M91.259,387.8l.09,65.436a7.691,7.691,0,1,1-15.381.021l-.09-65.434Z" transform="translate(-70.512 -370.952)" fill="#008f85"/>
          <path id="Trazado_163552" data-name="Trazado 163552" d="M94.583,379.606l-16.567.023a4.754,4.754,0,1,0,.012,9.507h.586l.1,72.77a7.7,7.7,0,1,0,15.4-.023l-.1-72.77h.586a4.753,4.753,0,1,0-.012-9.507Z" transform="translate(-73.268 -379.606)" fill="none" stroke="#ebebeb" stroke-linecap="round" stroke-linejoin="round" stroke-width="1"/>
        </g>
        <g id="Grupo_127565" data-name="Grupo 127565" transform="translate(31.445 0.043)">
          <path id="Trazado_163553" data-name="Trazado 163553" d="M106.58,406.186l.037,27.594a7.691,7.691,0,1,1-15.381.02L91.2,406.209Z" transform="translate(-85.779 -351.494)" fill="#d93328"/>
          <path id="Trazado_163554" data-name="Trazado 163554" d="M109.877,379.585l-16.567.023a4.754,4.754,0,1,0,.012,9.507h.586l.1,72.77a7.7,7.7,0,1,0,15.4-.023l-.1-72.77h.584a4.754,4.754,0,0,0-.012-9.507Z" transform="translate(-88.562 -379.585)" fill="none" stroke="#ebebeb" stroke-linecap="round" stroke-linejoin="round" stroke-width="1"/>
        </g>
        <g id="Grupo_127566" data-name="Grupo 127566" transform="translate(62.889)">
          <path id="Trazado_163555" data-name="Trazado 163555" d="M121.858,395.462l.068,49.6a7.691,7.691,0,1,1-15.381.021l-.068-49.6Z" transform="translate(-101.088 -362.776)" fill="#db8804"/>
          <path id="Trazado_163556" data-name="Trazado 163556" d="M125.171,379.564l-16.567.023a4.754,4.754,0,0,0,.012,9.507h.586l.1,72.77a7.7,7.7,0,1,0,15.4-.022l-.1-72.77h.584a4.753,4.753,0,1,0-.012-9.507Z" transform="translate(-103.856 -379.564)" fill="none" stroke="#ebebeb" stroke-linecap="round" stroke-linejoin="round" stroke-width="1"/>
        </g>
      </g>
      <path id="Trazado_163557" data-name="Trazado 163557" d="M58.852,391.332l.1,75.645,127.411-.175-.1-75.647ZM170.378,453.1l-95.471.132-.066-48.193,95.471-.132Z" transform="translate(-58.852 -367.324)" fill="#ebebeb"/>
    </g>
  </g>
</svg>
