<?xml version="1.0" encoding="utf-8"?>
<!-- Generator: Adobe Illustrator 26.0.1, SVG Export Plug-In . SVG Version: 6.00 Build 0)  -->
<svg version="1.1" id="Layer_1" xmlns="http://www.w3.org/2000/svg" xmlns:xlink="http://www.w3.org/1999/xlink" x="0px" y="0px"
	 viewBox="0 0 321 353" style="enable-background:new 0 0 321 353;" xml:space="preserve">
<style type="text/css">
	.st0{opacity:0.354;fill:#A4A4B4;enable-background:new    ;}
	.st1{opacity:0.31;fill:#A4A4B4;enable-background:new    ;}
	.st2{fill:#A4A4B4;}
	.st3{fill:url(#Trazado_158690_00000109742071828597223930000006512618819834910652_);}
	.st4{fill:#868695;}
	.st5{fill:#DB8804;}
	.st6{fill:#F7B242;}
	.st7{fill:url(#Trazado_158697_00000017474941922209139140000010245010872073301934_);}
	.st8{fill:url(#Trazado_158698_00000028310899724701498420000011256831380169115314_);}
	.st9{fill:url(#Trazado_158701_00000137828859797911148500000003761798849810781846_);}
	.st10{fill:#A7C6CE;}
	.st11{fill:#FF8B66;}
	.st12{fill:#DB614D;}
	.st13{fill:#0C476B;}
	.st14{fill:#1A4850;}
	.st15{fill:none;stroke:#FFD5A2;stroke-width:0.5;stroke-linecap:round;stroke-miterlimit:10;}
	.st16{fill:#FFFFFF;}
	.st17{fill:none;stroke:#FFD5A2;stroke-width:0.5;stroke-linecap:round;stroke-linejoin:round;}
	.st18{fill:#4BA6C6;}
	.st19{fill:#23687A;}
	.st20{opacity:0.25;fill:#008F85;enable-background:new    ;}
	.st21{opacity:0.25;fill:#FFFFFF;enable-background:new    ;}
	.st22{fill:#1D272B;}
	.st23{fill:url(#Trazado_158737_00000101091289493787212400000011664046330026553510_);}
	.st24{fill:url(#Trazado_158743_00000138564048707698247760000016730897623951175324_);}
	.st25{fill:#51799E;}
	.st26{fill:#008F85;}
	.st27{fill:#ACC1D1;}
	.st28{fill:#707B82;}
	.st29{fill:#C7D0D8;}
	.st30{opacity:0.25;enable-background:new    ;}
	.st31{fill:url(#Rectángulo_35300_00000142866660608954879870000018319188829208062338_);}
	.st32{fill:#F2F3F4;}
	.st33{fill:#7AA2CC;}
	.st34{fill:#D93328;}
	.st35{clip-path:url(#SVGID_00000006703393634695362670000015125428128486868109_);}
	.st36{opacity:0.26;fill:#FFFFFF;enable-background:new    ;}
	.st37{fill:#B5D6FF;}
	.st38{fill:#F2F2F2;}
	.st39{opacity:0.41;enable-background:new    ;}
	.st40{fill:#D7E9F4;}
	.st41{fill:#175A8B;}
	.st42{opacity:0.17;enable-background:new    ;}
	.st43{opacity:0.28;fill:#FFFFFF;enable-background:new    ;}
	.st44{enable-background:new    ;}
	.st45{fill:#64546F;}
	.st46{fill:#3D4A60;}
	.st47{fill:#E6E6E6;}
	.st48{fill:#FF404E;}
	.st49{fill:#FBB03B;}
	.st50{fill:#50759B;}
	.st51{opacity:0.34;enable-background:new    ;}
	.st52{opacity:0.29;enable-background:new    ;}
	.st53{fill:url(#Rectángulo_33879_00000146471160694327983550000009587307716819979454_);}
	.st54{fill:url(#Trazado_150741_00000009569719658095447710000013973411936108468107_);}
	.st55{fill:url(#Rectángulo_33881_00000075851064010431043140000012792019159009330327_);}
	.st56{opacity:0.26;enable-background:new    ;}
	.st57{fill:#A4B6C1;}
	.st58{fill:url(#Rectángulo_33879-2_00000008114089979174748060000015318756023973479553_);}
	.st59{fill:url(#Trazado_150741-2_00000102510512483597697720000005696421496412846263_);}
	.st60{fill:url(#Rectángulo_33881-2_00000183927290106187413440000010383612872408766655_);}
</style>
<g id="Grupo_134305" transform="translate(-1025.847 -11299.344)">
	<g id="Grupo_133237">
		<path id="Trazado_164055" class="st0" d="M1312.5,11625.5c9.5-21.4,12.2-49.1,7.2-73.6c-3.2-15.5-9.3-29.9-10.1-46
			c-1.6-32.3,18.2-58.4,22.2-90.2c1.8-14-0.2-30.3-7.9-38.7c-7.6-8.4-18.5-6.7-27.1-0.8c-8.6,5.9-15.9,15.3-24.2,22.1
			s-18.5,11.1-27.2,5.7c-8.9-5.5-13.9-19.5-16.7-33.1s-4.2-28.1-9-40.4c-7.9-20.3-24.8-31.4-40.5-28.5s-29.8,18.6-37.3,39.2
			c-7.5,20.6-8.8,45.6-5.1,68.4c1.9,11.6,5,22.6,6.7,34.2s1.9,24.3-1.9,34.8c-8,21.9-29,24.9-40,43.7c-9.1,15.5-9.4,39.1-4.2,58.2
			c5.2,19.1,14.9,34.5,24.5,49.2c45.1,2.2,91,2.4,136.2,4.6C1275.7,11635.2,1295,11627,1312.5,11625.5z"/>
		<path id="Trazado_164056" class="st1" d="M1299,11387.1c-0.1,11.9,11.2,22.3,9.2,34c-1.1,6.3-5.8,12.7-3.1,18.4
			c2.5,5.1,9.5,6,14.9,4.3c12.6-3.9,20.3-16.8,24-29.5c3.5-11.9,4.3-25.3-1.2-36.4c-4.5-9-14.7-16.9-25.2-16.1
			C1308.1,11362.5,1299.1,11378.1,1299,11387.1z"/>
		<path id="Trazado_164057" class="st1" d="M1124.9,11327.1c-7.9,13.5-8.2,30.1-0.9,43.9c2.3,4.2,5.4,8.2,9.7,10.6
			c4.2,2.4,9.7,2.9,13.9,0.5c6.4-3.6,7.8-12.2,7.3-19.5c-0.5-7.3-2.2-15,0.7-21.8c1.8-4.4,5.4-7.9,8.5-11.5
			c3.1-3.6,6.1-7.8,6.2-12.6c0.4-12.4-12.7-11.5-20.7-8.9C1139.2,11311,1130.5,11317.9,1124.9,11327.1z"/>
		<g id="Grupo_127879" transform="translate(1097.225 11299.344)">
			<path id="Trazado_151849" class="st2" d="M213.7,333.1l-1-1.3c2.7-4.3,7-14.2,5.6-32c-0.8-7.8-2.1-15.6-3.8-23.3
				c-0.7-3.4-1.4-6.9-2-10.3c-6.7-37-3.8-77.9,8-112.1c1-3,2.2-6.1,3.3-9c3.3-8.7,6.6-17.8,8.1-27.5c2.5-17.1-2.5-29.9-8.2-34.6
				c-5.5-4.5-13.3-3.8-21.3,1.9c-3,2.2-5.8,4.6-8.6,7.1c-3.7,3.2-7.4,6.6-11.5,9c-16,9.4-35.9,1.4-46.4-18.5
				c-5-9.6-7.9-21.1-10.6-32.3c-1.1-4.3-2.2-8.8-3.4-13.1C118,23.6,111.1,6.8,99.6,2.8C89.5-0.7,79.3,7,72.5,14.1
				c-13,13.6-22.2,32-25.8,51.8c-2.5,13.4-2.6,27.9-2.6,42c-0.1,21-0.3,42.7-8.4,60.1c-3.7,7.9-8.8,14.3-13.7,20.4
				c-4.6,5.7-9.3,11.7-12.9,18.9c-8,16.3-10,39.4-5.4,63.3c4.1,21.5,12.5,40.6,20.7,59.1l-1.1,1.1c-8.2-18.6-16.7-37.8-20.8-59.6
				c-4.7-24.5-2.7-48.2,5.6-65c3.6-7.4,8.4-13.4,13.1-19.2c4.8-6,9.8-12.3,13.4-20c7.9-17,8-37.4,8.2-59c0.1-14.2,0.2-28.9,2.7-42.5
				c3.7-20.3,13.1-39.1,26.3-52.9c7-7.3,17.6-15.3,28.2-11.6c12,4.2,19.2,21.5,23.1,35.2c1.2,4.3,2.3,8.8,3.4,13.2
				c2.7,11,5.5,22.5,10.4,31.8c10.1,19.2,29.4,26.9,44.9,17.9c4-2.3,7.7-5.6,11.3-8.8c2.8-2.5,5.7-4.9,8.7-7.2
				c8.4-6,16.6-6.6,22.5-1.8c6.1,5,11.5,18.6,8.9,36.7c-1.5,10-4.9,19.2-8.2,28c-1.1,2.9-2.2,6-3.3,9
				c-11.7,33.8-14.6,74.1-7.9,110.7c0.6,3.4,1.3,6.9,2,10.3c1.8,7.8,3.1,15.7,3.9,23.6C221.1,318.1,216.5,328.5,213.7,333.1z"/>
		</g>
		<g id="Grupo_127880" transform="translate(1112.931 11334.589)">
			<g id="Grupo_121036" transform="translate(0 45.479)">
				
					<linearGradient id="Trazado_158690_00000076561544388495823840000005445370778865091716_" gradientUnits="userSpaceOnUse" x1="-224.5052" y1="489.7355" x2="-224.5052" y2="488.7355" gradientTransform="matrix(23.689 0 0 -61.575 5330.1357 30155.4453)">
					<stop  offset="0" style="stop-color:#F5F5F5"/>
					<stop  offset="0.25" style="stop-color:#F5F5F5"/>
					<stop  offset="1" style="stop-color:#EEEEF2"/>
				</linearGradient>
				<path id="Trazado_158690" style="fill:url(#Trazado_158690_00000076561544388495823840000005445370778865091716_);" d="
					M20.9,0.1c-0.8-1.6-5.7,14.4-5.7,14.4l-0.8-5.3L8.9,4.9c0,0-2.7,3.3-3.3,5.6S-1,39.6,0.2,43.9s0.6,13.4,6.6,17
					s12.3-7.1,15.2-10.4S23.9,6.4,20.9,0.1z"/>
				<path id="Trazado_158691" class="st4" d="M14.7,15.3c0,0-1.1,13.5,0.3,15s-2.4,19.1-0.9,20.1s4.1-8.4,3-11.6s2.6,3,2.6-0.1
					s1.7-15.9-5.1-24.1"/>
			</g>
			<g id="Grupo_121037" transform="translate(3.962 44.693)">
				<path id="Trazado_158692" class="st5" d="M13.7,17.7c-0.4-0.1-2,0.4-3.8,0.6c-1.2,0.2-2.4,0.1-3.5-0.2c-2.8-0.7-5.2-2.6-6.4-5.2
					C1.5,11.3,5.7,0,5.7,0l4.6,0.9l2,0.4c-0.2,1-0.3,2-0.3,2.9v0c-0.2,2.3-0.1,4.6,0.1,7C12.2,13.3,14.9,17.9,13.7,17.7z"/>
				<path id="Trazado_158693" class="st6" d="M12.4,1.3c-0.2,1-0.3,2-0.3,2.9v0c-0.1,0.1-0.1,0.1-0.2,0.1C9.2,5.7,6.7,2.3,6.7,2.3
					l3.7-1.4L12.4,1.3z"/>
				<path id="Trazado_158694" class="st6" d="M13.7,17.7c-0.4-0.1-2,0.4-3.8,0.6c-0.7-0.9-0.9-2.2-0.4-3.3c-0.9-1.4-2.8-5.9-2.8-5.9
					c-0.1-1.4,2.8,1.3,3.9,1.9c0.4,0.3,1,0.3,1.4,0.2C12.2,13.3,14.9,17.9,13.7,17.7z"/>
			</g>
			<g id="Grupo_121038" transform="translate(2.104 23.775)">
				<path id="Trazado_158695" class="st5" d="M19,11.2l-2.1,6.4c-2,6.4-3,5.7-6.4,6.8c-3.2,1.1-5.8-4.5-6.3-7.1
					C3.9,15.1-0.2,11.1,0,9.2c0.1-0.8,0.6-0.4,1.7,1c0.9,1.1,1.9,2,3,2.7c0.9-2.1-4.3-7.7-3-9.8c0.7-1,3.7,7.6,5.2,7.7
					c0,0,0.4-0.7-0.7-5.1C5.5,3.3,4.8,0.7,5.4,0.1c1.2-1,1.6,4.5,4.5,10c0,0-0.2-2.8-0.6-5.4c-0.4-2.4-1-4.5,0.1-4.6
					c0.9-0.1,1.4,3.7,1.8,6c0.5,3.1,1.6,6.2,3.1,8.9c0.2,0.4,0.4,0.8,0.7,1.1C17.6,9.9,19,11.2,19,11.2z"/>
				<path id="Trazado_158696" class="st6" d="M15,16.2c0,0-2.7,1.2-3.2,3.4c-0.5-1.9,0.6-3.9,2.5-4.5C14.5,15.5,14.7,15.8,15,16.2z"
					/>
			</g>
			<g id="Grupo_121039" transform="translate(8.183 41.112)">
				
					<linearGradient id="Trazado_158697_00000063602483263769467210000010447914209467163543_" gradientUnits="userSpaceOnUse" x1="-236.8831" y1="496.7801" x2="-236.8831" y2="495.7801" gradientTransform="matrix(76.4388 0 0 -252.6553 18145.2773 125514.1016)">
					<stop  offset="0" style="stop-color:#FFFFFF"/>
					<stop  offset="1" style="stop-color:#F8F8F8"/>
				</linearGradient>
				<path id="Trazado_158697" style="fill:url(#Trazado_158697_00000063602483263769467210000010447914209467163543_);" d="M76.4,28
					c-0.1,2.6-0.4,5.2-0.9,7.8c-0.4,2.4-0.9,4.8-1.4,7.1v0c-1.4,6-3.1,11.9-5.2,17.8c-1.1,3.6-2.5,7.1-4.1,10.4
					c-0.8,1.5-2.2,2.7-2.4,4.4c-0.3,2.8,0.8,2.9-1.2,5.4c-1.3,1.6-0.5,3.9,0.3,5.8c0.4,0.9,0.8,1.8,1.1,2.8
					c5.8,14.9,7.4,30.4,5.9,46.4c-0.7,7.7-1.7,15.5-2.6,23.2c-0.5,3.9-1.7,8.7-0.9,12.7c0.9,4.4-1.1,46.3-6.9,69.1
					c-0.7,3-1.7,5.9-2.8,8.7l-9.2-0.3c0,0-4-50.9-4.2-71c-0.1-13.7-2.9-32-4.6-42.2c-0.8-4.7-1.4-7.7-1.4-7.7s2.2,31.5,2.2,38.5
					c-0.1,5.1-0.8,10.1-2,15c0,0,4.4,48.5,3,70.1l-8.9,0.6l-0.5,0c0,0-0.2-0.5-0.5-1.4c-0.9-2.5-2.7-8-4.9-15.3
					c-0.1-0.3-0.2-0.5-0.2-0.8c0-0.1,0-0.1-0.1-0.2c-0.4-1.2-0.7-2.4-1-3.6c-0.5-1.6-1-3.3-1.4-4.9c-0.2-0.7-0.4-1.5-0.6-2.2
					c-0.2-0.8-0.4-1.6-0.6-2.3c-0.4-1.6-0.8-3.2-1.2-4.8c-1-4-2-8.2-2.9-12.4c-0.3-1.7-0.7-3.4-1-5.1c-0.2-0.8-0.3-1.7-0.5-2.5
					c-3.2-17.8-4.1-26.8-4.3-30.9c-0.1-0.9-0.1-1.9-0.1-2.8c-5.9-16.1-9.3-33-10.2-50.1c-0.7-15.2,2.8-26.2,6-33
					c1.3-2.8,2.9-5.5,4.8-7.9c0,0,0,0,0,0c-0.2-0.4-1.3-3.8-0.4-4.4c0.3-0.2,0.5-0.3,0.8-0.5c0.4-0.3,0.7-0.6,1-0.9
					c0,0-1-6.3-1.9-14.9C8.7,35.8,7.3,11.8,12.7,4.5c4-5.5,11.8-4.6,14.2-4.1c1.6,0.6,3.2,1.4,4.7,2.3c5.4,3.1,13.2,8.1,13.2,8.1
					s10.8-2,16.9-1.3c0.6,0.1,1.2,0.2,1.8,0.3c5.4,1.4,10.2,4.2,12.6,13.4C76.4,24.8,76.5,26.4,76.4,28z"/>
				
					<linearGradient id="Trazado_158698_00000077312583967159465430000015904230381229414832_" gradientUnits="userSpaceOnUse" x1="-233.9697" y1="484.5229" x2="-233.9697" y2="483.5229" gradientTransform="matrix(30.017 0 0 -16.6159 7069.7109 8053.415)">
					<stop  offset="0" style="stop-color:#F5F5F5"/>
					<stop  offset="0.25" style="stop-color:#F5F5F5"/>
					<stop  offset="1" style="stop-color:#EEEEF2"/>
				</linearGradient>
				<path id="Trazado_158698" style="fill:url(#Trazado_158698_00000077312583967159465430000015904230381229414832_);" d="
					M61.6,9.4C52.1,11.7,39,19.7,36,19.2c-3.8-0.6-6-6.2-2.9-3.9S47,13.9,47,13.9s-10.7,0.7-13.1-3.5c-1.3-2.4-2-5.1-2.3-7.9
					c5.4,3.1,13.2,8.1,13.2,8.1S55.6,8.8,61.6,9.4z"/>
				<path id="Trazado_158699" class="st4" d="M18.4,81c0.9,0.4-6.8,0.8-12.3-0.6c1.3-2.8,2.9-5.5,4.8-7.9
					C10.9,72.5,17.1,80.4,18.4,81z"/>
				<path id="Trazado_158700" class="st4" d="M50.1,71.7c-0.9,0.6-24.5,17.3-38.8-4.1c0.4-0.3,0.7-0.6,1-0.9c0,0-1-6.3-1.9-14.9
					c1.8,5.6,5.4,13.6,13,18.9C34.5,78.4,49.4,72,50.1,71.7z"/>
				
					<linearGradient id="Trazado_158701_00000040560537154043059200000001937544866256936832_" gradientUnits="userSpaceOnUse" x1="-235.754" y1="496.1237" x2="-235.754" y2="495.1237" gradientTransform="matrix(47.7931 0 0 -143.4934 11301.6846 71299.6172)">
					<stop  offset="0" style="stop-color:#F5F5F5"/>
					<stop  offset="0.25" style="stop-color:#F5F5F5"/>
					<stop  offset="1" style="stop-color:#EEEEF2"/>
				</linearGradient>
				<path id="Trazado_158701" style="fill:url(#Trazado_158701_00000040560537154043059200000001937544866256936832_);" d="
					M58.2,240.8c-0.7,3-1.7,5.9-2.8,8.7l-9.2-0.3c0,0-4-50.9-4.2-71c-0.1-13.7-2.9-32-4.6-42.2c-0.8-4.7-1.4-7.7-1.4-7.7
					s2.2,31.5,2.2,38.5c-0.1,5.1-0.8,10.1-2,15c0,0,4.4,48.5,3,70.1l-8.9,0.6c-0.4-0.4-0.7-0.9-1-1.4c-2.7-4.3-3.8-11.1-4.9-15.3
					c-0.1-0.3-0.2-0.5-0.2-0.8c0-0.1,0-0.1-0.1-0.2c-0.4-1.2-0.7-2.4-1-3.6c-0.5-1.6-1-3.3-1.4-4.9c-0.2-0.7-0.4-1.5-0.6-2.2
					c-0.2-0.8-0.4-1.6-0.6-2.3c-0.4-1.6-0.8-3.2-1.2-4.8c-1.1-4.1-2-8.3-2.9-12.4c-0.3-1.7-0.7-3.4-1-5.1c-0.2-0.8-0.3-1.7-0.5-2.5
					c-3.2-17.8-4.1-26.8-4.3-30.9c1,1,1.8,1.8,2.3,2.5c3.3,3.9,2.1,11.7,8.4,13.8s8.7-11.4,8.7-15.3s-10.5-15.9-8.4-17.7
					s6.9-11.7,6.9-11.7s-12.3,6-14.7,1.8s7.2-2.1,9.3-2.1s9-2.4,5.4-3.9s-11.4-1.5-12.6-3.3s6.6-5.7,9.3-4.5
					c0.9,0.4-0.4-0.5-0.6-0.7c-1.2-1.1-2.7-1.9-4-2.9c-2-1.3-3.8-3-5.3-4.8c-0.6-0.9-2.5-4.9,0.5-3.9c0.7,0.3,1.3,0.9,2.1,1
					c0.4,0.1,0.7,0,1.1,0.1c1.4,0.3,1.9,2,3.1,2.8c0.9,0.4,2,0.6,3,0.3c-0.4-0.7-0.9-1.2-1.6-1.6c-1.9-1.3-3.7-2.5-5.5-3.8
					c0,0-3.7-3-1.6-3.2c2.4-0.2,4.4,1.8,6.8,2.2c1.9,0.3,4-0.5,5.9-0.1c0.9,0.3,1.8,0.6,2.7,1c4.3,1.8,9.2,1,13.8-0.2
					c-2.1,1.8-4.2,3.7-6.2,5.5c2.8-0.5,6.6-2.3,9.3-2c-0.2,3.9-7.8,8.2-10.8,10.2c2.7,0.9,5.9,1.6,8.3,3.1c-1.9,2.2-3,5-3.1,7.9
					c-0.9,9.3-1.9,18.9,1,27.8c0.9,2.4,1.7,4.8,2.2,7.3c0.4,2.7,0,5.5,0.5,8.1s2.3,5.5,5,5.8c0.4,0,0.8,0.1,1.2,0.3
					c1,0.7-0.1,2.3-0.8,3.3c-1.6,2.1-1.3,5.1-0.1,7.5s3,4.3,4.5,6.4c0.5,0.5,0.8,1.2,0.9,1.9c-0.1,1-0.4,1.9-1,2.7
					c-1.9,3.1-2.5,6.8-3,10.3c-0.3,1.4-0.3,2.8-0.1,4.2c0.2,0.8,0.6,1.6,0.9,2.5c0.8,2.6-0.1,5.5,0.4,8.2
					C54.9,236,56.9,238.2,58.2,240.8z"/>
				<path id="Trazado_158702" class="st4" d="M76.4,28c-0.1,2.6-0.4,5.2-0.9,7.8c-0.4,2.4-0.9,4.8-1.4,7.1v0
					c-1.4,6-3.1,11.9-5.2,17.8c-1.1,3.6-2.5,7.1-4.1,10.4c-0.8,1.5-2.2,2.7-2.4,4.4c-0.3,2.8,0.8,2.9-1.2,5.4
					c-1.3,1.6-0.5,3.9,0.3,5.8c0.4,0.9,0.8,1.8,1.1,2.8c-0.9,1.4-1.8,2.2-2.6,2.3c-7.5,0.9-8.1-3.9-4.2-6s4.5-7.2,4.5-7.2
					s-6.6,4.8-9.6,4.8s-4.1-5.1,5.6-11.7C63.2,66.8,69.7,33,76,26.6C76.1,27,76.3,27.5,76.4,28z"/>
			</g>
			<g id="Grupo_121040" transform="translate(31.717 276.408)">
				<path id="Trazado_158703" class="st5" d="M19.7,24.6c-1.4-1.5-1.8-20.1-2.4-23.5c0,0-3-1.7-9.3-0.9C2.3,1,0,3.5,0,3.5
					c0.8,2,6.5,17.1,5.9,20.1c-0.5,2.5-3.2,5.7-1.1,9.7h16.9C22.8,30.3,22,26.9,19.7,24.6z"/>
				<path id="Trazado_158704" class="st6" d="M5.5,27.1c0,0,4.6-6,14-1.2c0,0,0.4,4.2-4,3.4S8.5,31.8,5.5,27.1z"/>
			</g>
			<g id="Grupo_121041" transform="translate(52.311 275.653)">
				<path id="Trazado_158705" class="st5" d="M12.9,23.2c-1.2-1.5,2.6-18.5,2.9-20.7c0,0-2-1.6-6.6-2.3C6.1-0.3,3-0.1,0,0.8
					C0.4,3.4,2,22,1.5,25.4c-1,7,1.6,8.7,1.6,8.7H20C24.8,26.1,14.9,25.8,12.9,23.2z"/>
				<path id="Trazado_158706" class="st6" d="M5.3,27.9c0,0,5.6-5.5,14.5-0.3c0,0,0,3.3-4.5,2.5S8.3,32.5,5.3,27.9z"/>
			</g>
			<g id="Grupo_121047" transform="translate(34.031 0)">
				<path id="Trazado_158707" class="st10" d="M19.4,13.5c8.6,0.1,17.6,9.2,18,15s-5.2,22-16.8,21.4S2.1,31.8,2.7,26.5
					S10.5,13.4,19.4,13.5z"/>
				<path id="Trazado_158708" class="st11" d="M33,27c0,0,3.5-4.1,4.3,0.3c0.9,5.1-3.6,7.5-4.6,6S33,27,33,27z"/>
				<path id="Trazado_158709" class="st11" d="M6.4,29.3c0,0-4.1-3.5-4.2,1c-0.2,5.2,4.7,6.9,5.5,5.2S6.4,29.3,6.4,29.3z"/>
				<path id="Trazado_158710" class="st11" d="M21.5,46.6c8.4-0.6,12.8-6.5,11.5-23c-0.6-8.5-5.4-13.4-14.8-12.7s-13,6.3-12.4,14.8
					C7.2,43.4,12.8,47.3,21.5,46.6z"/>
				<path id="Trazado_158711" class="st12" d="M9.1,31.3c-0.3,1,0.2,2.2,1.3,2.5c1,0.3,2.2-0.2,2.5-1.3c0.3-1-0.2-2.2-1.3-2.5
					c-0.1,0-0.3-0.1-0.4-0.1C10.2,29.8,9.3,30.4,9.1,31.3z"/>
				<path id="Trazado_158712" class="st12" d="M26.5,30.5c-0.1,1.1,0.7,2.1,1.8,2.2c1.1,0.1,2.1-0.7,2.2-1.8
					c0.1-1.1-0.7-2.1-1.8-2.2c-0.1,0-0.3,0-0.4,0C27.2,28.7,26.5,29.5,26.5,30.5z"/>
				<g id="Grupo_121042" transform="translate(11.853 20.045)">
					<path id="Trazado_158713" class="st13" d="M0.2,2.4c0.2,0.1,0.4,0,0.5-0.1c0.8-0.8,2-1.4,3.2-1.4c0.2,0,0.4-0.2,0.4-0.4
						C4.3,0.2,4.1,0,3.9,0C2.4,0.1,1.1,0.7,0.1,1.7C-0.1,1.9,0,2.2,0.2,2.4C0.2,2.3,0.2,2.3,0.2,2.4C0.2,2.3,0.2,2.4,0.2,2.4z"/>
				</g>
				<g id="Grupo_121043" transform="translate(24.066 19.36)">
					<path id="Trazado_158714" class="st13" d="M0.2,0.8c0.1,0,0.1,0,0.2,0c1.2-0.1,2.4,0.2,3.3,0.9c0.2,0.2,0.4,0.1,0.6,0
						c0.2-0.2,0.1-0.4,0-0.6C3.2,0.3,1.8-0.1,0.4,0C0.1,0.1,0,0.3,0,0.5C0,0.6,0.1,0.8,0.2,0.8L0.2,0.8z"/>
				</g>
				<path id="Trazado_158715" class="st14" d="M13.4,26.9c0.1,1,0.6,1.9,1.2,1.8s1-0.9,0.9-2s-0.6-1.9-1.2-1.8S13.3,25.8,13.4,26.9z
					"/>
				<path id="Trazado_158716" class="st14" d="M25.3,26c0.1,1,0.6,1.9,1.2,1.8s1-0.9,0.9-2S26.8,24,26.2,24S25.2,25,25.3,26z"/>
				<path id="Trazado_158717" class="st14" d="M24.3,36.3c0,0-5.2,1.1-8-0.1c0,0,1.8,3.8,4.7,3.2C22.6,39.1,23.9,37.9,24.3,36.3z"/>
				<path id="Trazado_158718" class="st14" d="M16.2,26.1c0,0-1-2.5-2-2.3s-1.6,2.5-1.6,2.5L11,25.7l1.5,0.1c0,0,0.6-2.4,1.6-2.4
					C15.6,23.3,16.2,26.1,16.2,26.1z"/>
				<path id="Trazado_158719" class="st14" d="M24.4,25.8c0,0,0.6-2.6,1.6-2.5s2,2.3,2,2.3l1.4-0.9L27.9,25c0,0-1-2.2-2-2.2
					C24.5,22.9,24.4,25.8,24.4,25.8z"/>
				<g id="Grupo_121044" transform="translate(18.657 28.607)">
					<path id="Trazado_158720" class="st12" d="M1.1,3.7c0.2,0.1,0.4,0.2,0.6,0.2L1.9,3c-0.8-0.1-1-0.6-1-0.9C0.9,1.6,1,1.2,1.4,0.9
						c0.2-0.1,0.3,0,0.5,0.3l0.7-0.6c-0.3-0.6-1-0.8-1.6-0.6C0.3,0.5-0.1,1.3,0,2.1C0.1,2.8,0.5,3.4,1.1,3.7z"/>
				</g>
				<path id="Trazado_158721" class="st13" d="M7.9,25.9l-1.1,4.2c0,0-3.2-0.8-1.8-5.9S7.9,25.9,7.9,25.9z"/>
				<path id="Trazado_158722" class="st13" d="M19.5,12.1c0,0-10.2,18.4-15.7,15.9c0,0-1.4-19.7,14.2-19.7s18.7,8.8,18.7,17.5
					c0,0-2.2,3.2-4.1,2.8C32.7,28.6,35.1,12.5,19.5,12.1z"/>
				<path id="Trazado_158723" class="st15" d="M10.9,33.8c0,0-7-4.3-8.3-11.1"/>
				<path id="Trazado_158724" class="st15" d="M29.8,33.8c0,0,7.3-6.7,7.8-16.3"/>
				<path id="Trazado_158725" class="st15" d="M7.3,36.5c2.8,9.8,21.9,14.9,25.9-1.8"/>
				<path id="Trazado_158726" class="st16" d="M20.2,27.5c5.2-0.3,10.7,4.6,11.4,7.9s-3.4,11.2-10.1,11.7
					c-6.2,0.5-11.8-6.9-11.8-10.4S15.5,27.8,20.2,27.5z"/>
				<path id="Trazado_158727" class="st17" d="M18.3,29c1.1-0.8,2.7-0.9,3.9-0.1"/>
				<path id="Trazado_158728" class="st18" d="M8.7,28.8C8.8,28.9,8.9,28.9,9,29c0,0,0,0,0,0C9,29,8.9,28.9,8.7,28.8z"/>
				<g id="Grupo_121045" transform="translate(2.475 20.79)">
					<path id="Trazado_158729" class="st19" d="M30,2.5l0.2,4c1.5-0.3,2.9-0.9,4.2-1.7c0.5-0.3,1.4-2.8,1.2-3.3
						C33.9,2.2,32,2.6,30,2.5z"/>
					<path id="Trazado_158730" class="st19" d="M4.3,3.1C2.9,3,1.5,2.8,0.1,2.5C-0.1,3.5,0,4.6,0.2,5.7c0.5,1,4,1.5,4,1.5L4.3,3.1z"
						/>
					<path id="Trazado_158731" class="st20" d="M29.8,6.9c0,0.9-2.7,2.4-3.8,2.5S21.3,6.1,17.7,6S11,9.4,10.1,9.7
						c-0.3,0.1-0.6,0-0.9-0.1c-1.5-0.4-3-1.1-4.3-2C4.5,7.1,4.6,2,5.2,1.9c3.6-0.5,7.3-0.9,10.9-1l1,0c1.3,0,2.5,0,3.6,0
						c2.9,0,5.7,0.1,8.6,0.5C30.2,1.5,29.8,6,29.8,6.9z"/>
					<path id="Trazado_158732" class="st21" d="M16.1,0.9L9.2,9.6c-1.5-0.4-3-1.1-4.3-2C4.5,7.1,4.6,2,5.2,1.9
						C8.8,1.4,12.5,1,16.1,0.9z"/>
					<path id="Trazado_158733" class="st21" d="M20.7,0.8l-7.1,5.3c0,0,2-2.8,3.6-5.2C18.4,0.8,19.6,0.8,20.7,0.8z"/>
					<path id="Trazado_158734" class="st22" d="M29.9,1.1c-0.8-1.2-5.3-1.2-12-1.1c-6,0.1-12.6,1.1-13.5,1.8C3.6,2.4,3.7,6,4.1,7.6
						c0,0,0,0,0,0c0,0.1,0.1,0.3,0.1,0.4c0.5,1.2,5.1,2.8,6.2,2.7s3.5-3.8,7.3-4c4.1-0.2,6.5,2.9,7.6,3.4s4.1-1.1,4.9-2.3
						c0-0.1,0.1-0.1,0.1-0.2v0C30.9,6.2,30.7,2.2,29.9,1.1z M5.3,2.5c0.4-0.5,3.7-1,12-1.3s11.5,0.2,11.9,0.6
						c0.3,0.3,0.4,3.5,0.2,4.6c0,0.1,0,0.2-0.1,0.3c-0.3,0.4-2.9,2.2-3.5,2s-3.9-3.2-8-3.1S10.6,9.1,10,9.3C9.6,9.5,7.8,8.8,6.6,8.2
						C6.4,8.1,6.3,8.1,6.2,8c0,0,0,0,0,0l0,0C5.9,7.9,5.6,7.7,5.3,7.5C5.1,7,4.9,3,5.3,2.5L5.3,2.5z"/>
					<path id="Trazado_158735" class="st18" d="M29.6,5.9c-0.1,0.2-0.2,0.4-0.3,0.5c0.2-1.1,0.1-4.3-0.2-4.6
						c-0.3-0.3-3.6-0.9-11.9-0.6S5.7,2.1,5.3,2.5C4.9,3,5.1,7,5.3,7.5C5.1,7.3,4.9,7.2,4.8,7c-0.3-0.5-0.3-3.7,0-4.5
						C4.9,1.8,9,0.9,17.2,0.7s11.7,0.4,12.1,0.8S29.9,5,29.6,5.9z"/>
					<path id="Trazado_158736" class="st18" d="M30.3,7.6c0,0.1-0.1,0.1-0.1,0.2c-0.8,1.2-3.8,2.8-4.9,2.3s-3.5-3.7-7.6-3.4
						c-3.8,0.2-6.2,3.9-7.3,4S4.7,9.2,4.2,8C4.1,7.9,4.1,7.7,4.1,7.6c0.3,0.5,0.7,0.9,1.2,1.2c1.2,0.6,4.5,1.7,5,1.5s3.8-4,7.8-3.9
						c3.9,0.1,6.8,3.2,7.5,3.4C26.1,10,28.9,8.7,30.3,7.6z"/>
				</g>
				
					<linearGradient id="Trazado_158737_00000096035548695431391810000006144369704110592653_" gradientUnits="userSpaceOnUse" x1="-261.0897" y1="534.6447" x2="-261.0897" y2="533.6447" gradientTransform="matrix(40.8481 0 0 -53.0392 10685.5098 28357.1191)">
					<stop  offset="0" style="stop-color:#FFFFFF"/>
					<stop  offset="1" style="stop-color:#F8F8F8"/>
				</linearGradient>
				<path id="Trazado_158737" style="fill:url(#Trazado_158737_00000096035548695431391810000006144369704110592653_);" d="
					M39.2,15.2c-1.5-2-1.1-4.4-3.3-7.2S25.6-0.5,18.1,0c-7.7,0.6-5.6,3.8-9.8,5.3C4.2,6.8,1.3,15.4,1.9,16.6s-2.1,2.5-1.8,10.8
					c0,2,0.4,4,1.2,5.9c0.7,1.9,2.1,3.6,3.9,4.6c0,0,0,0,0,0c-0.2,1,2.6,4.5,2.6,4.5c-0.7,0.4-1.3,1-1.8,1.7c-0.3,1.2,1.4,2.2,2.2,3
					c0.9,1.1,1.7,2.3,2.4,3.5c0.8,1.2,2,2.1,3.3,2.4c1.1,0.1,2.3-0.1,3.4-0.5c3.6-0.9,7.3-0.7,11-0.9c1.2-0.1,4.9,0.1,5.8-0.8
					c1-1.1-0.9-2.3-1.8-3c0.9,0,1.2-5.9,2.6-6.6s4.2-7.4,4.8-9.8s0-5.3,0.9-6.6C41.4,23.5,40.7,17.2,39.2,15.2z M21.5,46.6
					c-0.8,0.1-1.5,0.1-2.3,0c-0.8-0.1-1.5-0.2-2.2-0.4c-9-2.5-13.4-15.3-12-20.9c1.7-6.5,8.4-6.5,14.7-6.9
					c6.6-0.5,12.3,1.1,14.6,6.2C36.6,29.7,33.5,45.4,21.5,46.6L21.5,46.6z"/>
				<path id="Trazado_158738" class="st4" d="M34.9,23.8c-2.9-8.1-7.2-5.5-15.6-6.1c-13.9-1-16,6.8-15.1,12.9s6.4,12.3,6.4,12.3
					L8,40.8c0,0,6.5,9.6,10.5,9.5c6.4-0.1,12.1-3.8,14.7-9.6l-2.4,2.4C30.9,43.1,37.8,31.9,34.9,23.8z M21.5,46.6
					C9.6,47.8,3.4,31.8,5,25.3s8.4-6.5,14.7-6.9c6.6-0.5,12.3,1.1,14.6,6.2C36.6,29.7,33.5,45.4,21.5,46.6z"/>
				<path id="Trazado_158739" class="st22" d="M9,17.6c0,0,3.1-1.9,4.8-1.9s5.6,0.1,7.6-0.1s5.1-0.5,7.1,0.3s3.3,1.3,3.3,1.3
					s-5.2-3.4-9-3.1s-5.6,0.3-7.2,0.3S10.2,15.5,9,17.6z"/>
				<path id="Trazado_158740" class="st22" d="M37.5,24.6c0.4,2.8,0.1,5.7-0.7,8.4C38.8,30.7,39.1,27.3,37.5,24.6z"/>
				<path id="Trazado_158741" class="st22" d="M5.2,37.9c-1.8-1.1-3.1-2.7-3.9-4.6c-0.2-1.8,0.1-3.7,0.9-5.4c0,0,0,4,1.5,6.1
					C4.5,35.1,5,36.5,5.2,37.9z"/>
				<g id="Grupo_121046" transform="translate(0 46.233)">
					<path id="Trazado_158742" class="st22" d="M18.7,2.7c-0.1,0.1-0.2,0.4-0.1,0.6c0.1,0.2,0.2,0.3,0.4,0.4
						c-0.4,0.3-0.8,0.5-1.3,0.5c-0.6,0.2-0.6,0-1,0.6c-0.6,0.7-1.2,1.5-1.7,2.3c-0.9,1.2-1.8,2.4-2.7,3.6c-0.3,0.4-0.5,0.7-0.8,1.1
						C5.5,20.1,0.4,29.6,1.3,40c1.4,8.9,1.2,18.1,1,26.9c-0.1,6.6-0.3,13.4,0.2,20c0.7,2.9,0.1,6.4-0.5,9.7c-0.4,2-0.7,4-0.7,6
						c0.2,2.7,1,5.3,2.3,7.6l-1,0.6c-1.5-2.5-2.3-5.3-2.5-8.2c0.1-2.1,0.3-4.1,0.8-6.2c0.6-3.2,1.2-6.5,0.5-9.3
						c-0.5-6.8-0.4-13.7-0.2-20.3c0.2-8.8,0.4-17.8-1-26.7c-0.9-10.4,4-20,9.8-28.3c0.5-0.7,1-1.4,1.5-2.1c0.7-0.9,1.4-1.9,2.1-2.8
						c0.6-0.8,1.2-1.6,1.8-2.4c0.6-0.7,1.3-0.8,2.1-1.2c0.1,0,0.2-0.1,0.2-0.2c0-0.2-0.2-0.3-0.3-0.4c-0.3-0.2-0.3-0.7-0.1-1
						c0,0,0.1-0.1,0.1-0.1c0.2-0.1,0.4-0.2,0.4-0.4c0-0.1-0.1-0.2-0.1-0.2c-0.3-0.3-0.5-0.7-0.5-1.1c0.7,0.2,1.5,0.3,2.2,0.4
						c0,0.4,0,0.8,0.1,1.2c0,0.3,0.1,0.7-0.2,0.9C19,2.6,18.8,2.6,18.7,2.7z"/>
				</g>
			</g>
			<g id="Grupo_121048" transform="translate(22.179 59.852)">
				
					<linearGradient id="Trazado_158743_00000013906285877310308760000008799943771918021531_" gradientUnits="userSpaceOnUse" x1="-250.4522" y1="475.256" x2="-250.4522" y2="474.256" gradientTransform="matrix(62.3159 0 0 -59.7773 15638.2988 28409.5352)">
					<stop  offset="0" style="stop-color:#F5F5F5"/>
					<stop  offset="0.25" style="stop-color:#F5F5F5"/>
					<stop  offset="1" style="stop-color:#EEEEF2"/>
				</linearGradient>
				<path id="Trazado_158743" style="fill:url(#Trazado_158743_00000013906285877310308760000008799943771918021531_);" d="
					M62.3,9.8c-0.1,9.5-13.1,48.1-25.3,49.9c-4.4,0.7-9.7-2.4-14.6-6.8c0,0,0,0,0,0C13.9,45.4,6.2,34.3,5.2,32.6
					c-1.6-2.5-6-9.2-5.1-13.4s4-4.4,4-4.4s1.3,1,2.2,1.6s7.7,7.4,9.4,8.3c1.7,0.9,12.8,8.9,12.8,8.9s1.5-4.5,3.3-4.4
					c1.4,0.2,2.8-0.6,3.3-2c1.6-4.2,3.4-8.2,5.5-12.2C45.1,6.9,52-2.1,60.4,0.4c0,0,0.4,0,0.9,0.9v0C61.8,2.3,62.4,4.6,62.3,9.8z"/>
				<path id="Trazado_158744" class="st4" d="M40.8,30.7c-1.3-0.1-5.9-1.2-7.2-1.2s-3.5,2.4-3.6,3.6s5.3,4.4,7.2,7.2
					s-1.1,5.4-2.9,1.8c-1.7-3-3.6-5.8-5.8-8.4c0,0,1.5-4.5,3.3-4.4c1.4,0.2,2.8-0.6,3.3-2c1.6-4.2,3.4-8.2,5.5-12.2
					C38.3,21.8,42.1,30.8,40.8,30.7z"/>
				<path id="Trazado_158745" class="st22" d="M62.3,9.8c-0.1,9.5-13.1,48.1-25.3,49.9c-4.4,0.7-9.7-2.4-14.6-6.8
					c2.3,1.3,8.2,4.5,11.7,5.1c4.5,0.8,9.8-3.3,10.1-6c0.3-2.7-1.1-6.3,0.6-6.3s5.1-0.9,5.1-2.9c0-1.9,14.6-29.6,11.4-41.5
					C61.8,2.3,62.4,4.6,62.3,9.8z"/>
			</g>
			<g id="Grupo_121049" transform="translate(12.54 56.088)">
				<path id="Trazado_158746" class="st6" d="M3.8,1.7c0-0.5,0.9-0.9,0.9-0.9C5,1.6,5.5,2.4,6.1,3c1.2,1,2.3,2.3,3,3.8
					C10,8.5,11,14.2,11,14.2S5.7,8.7,5.5,7.7S3.8,1.7,3.8,1.7z"/>
				<path id="Trazado_158747" class="st5" d="M21.3,24.5c0,0-1.4,8.8-7.9,10.8c0,0-5.8-13.3-6-14.4c0-0.3-0.1-0.5-0.1-0.5
					c-6.1-3.7-5.7-7.1-5.7-7.1s-2-0.9-0.4-3.2C0.7,9.6,0.4,9,0.3,8.4c0-0.4,1.4-1.6,1.4-1.6S1,5.4,1.4,5.1C2.1,4.7,3,4.6,3.9,4.7
					C3.3,3.9,2.6,3.1,1.8,2.5c-1.9-1-2.7-3.2,0-2.3c1.4,0.4,5.2,4.2,6.3,6c1.2,1.8,3.1,8.5,3.7,9.7S21.3,24.5,21.3,24.5z"/>
				<path id="Trazado_158748" class="st18" d="M1.7,6.8c0.7-0.1,1.4,0,2,0.4C4.8,7.8,1.7,6.8,1.7,6.8z"/>
				<path id="Trazado_158749" class="st18" d="M1.1,10.1c0,0,1.5-0.1,1.8,0.3S2.2,10.6,1.1,10.1z"/>
				<path id="Trazado_158750" class="st6" d="M8.1,21c-0.1,0.1-0.4,0.1-0.8-0.1c0-0.3-0.1-0.5-0.1-0.5c-6.1-3.7-5.7-7.1-5.7-7.1
					l0.8,0.2c0.9,1.5,1.8,3,2.8,4.4c1,1.2,2,2.3,3.2,1.9S8.7,20.6,8.1,21z"/>
			</g>
		</g>
		<g id="Grupo_133234" transform="translate(-24.428 -40.757)">
			<g id="Grupo_127829" transform="translate(1050.275 11570.098)">
				<path id="Trazado_164035" class="st25" d="M68.3,76.7c-5.4,0-8.2-3.2-8.2-9.6V27.5h1.3v39.6c0,5.7,2.2,8.3,6.9,8.3
					c5.4,0,6.2-1.2,6.2-9.1c0-1,0-2.1,0-3.2c-0.1-6.7-0.3-15.1,3.1-18.7c1-1.1,2.5-1.7,4-1.6h9V44h-9c-1.1,0-2.2,0.4-3,1.2
					c-3.1,3.1-2.9,11.6-2.8,17.8c0,1.2,0,2.3,0,3.3C75.8,74.3,74.8,76.7,68.3,76.7z"/>
				<path id="Rectángulo_35296" class="st26" d="M3.9,0h39.8C44.9,0,46,1,46,2.3v4.3c0,1.3-1,2.3-2.3,2.3H3.9c-1.3,0-2.3-1-2.3-2.3
					V2.3C1.5,1,2.6,0,3.9,0z"/>
				<path id="Rectángulo_35297" class="st26" d="M48.9,0h219.6c1.3,0,2.3,1,2.3,2.3v4.3c0,1.3-1,2.3-2.3,2.3H48.9
					c-1.3,0-2.3-1-2.3-2.3V2.3C46.6,1,47.7,0,48.9,0z"/>
				<rect id="Rectángulo_35298" x="84.8" y="56.4" class="st27" width="40.2" height="47.8"/>
				<rect id="Rectángulo_35299" x="84.8" y="29.9" class="st28" width="40.2" height="21.9"/>
				<path id="Trazado_164036" class="st29" d="M152.1,12.6H57.6l27.2,18.6h40.4L152.1,12.6z"/>
				<path id="Trazado_164037" class="st29" d="M166,113.2l-124,0.6l42.8-10.9h40.4L166,113.2z"/>
				<path id="Trazado_164038" class="st30" d="M69.7,20.9h70.2l12.1-8.3H57.5L69.7,20.9z"/>
				
					<linearGradient id="Rectángulo_35300_00000041254248806662673210000014088047517758922674_" gradientUnits="userSpaceOnUse" x1="-142.9728" y1="318.4821" x2="-142.9728" y2="317.4821" gradientTransform="matrix(273.154 0 0 -8.542 39190.168 2727.0955)">
					<stop  offset="0" style="stop-color:#F5F5F5"/>
					<stop  offset="0.25" style="stop-color:#F5F5F5"/>
					<stop  offset="1" style="stop-color:#A7B3CF"/>
				</linearGradient>
				
					<rect id="Rectángulo_35300" x="0" y="6.6" style="fill:url(#Rectángulo_35300_00000041254248806662673210000014088047517758922674_);" width="273.2" height="8.5"/>
				<rect id="Rectángulo_35301" x="41.7" y="113.4" class="st32" width="125.4" height="9.6"/>
				<path id="Rectángulo_35302" class="st32" d="M82.3,51.1h45.8c0.9,0,1.6,0.7,1.6,1.6v2.9c0,0.9-0.7,1.6-1.6,1.6H82.3
					c-0.9,0-1.6-0.7-1.6-1.6v-2.9C80.8,51.8,81.5,51.1,82.3,51.1z"/>
				<g id="Grupo_127825" transform="translate(89.015 61.284)">
					<path id="Rectángulo_35303" class="st16" d="M0,15.5V0.7C0,0.3,0.3,0,0.7,0h29.5c0.4,0,0.7,0.3,0.7,0.7v14.9
						c0,0.4-0.3,0.7-0.7,0.7H0.7C0.3,16.2,0,15.9,0,15.5z"/>
					<g id="Grupo_127824" transform="translate(2.795 5.497)">
						<path id="Rectángulo_35304" class="st33" d="M0.3,0h11.5C11.9,0,12,0.1,12,0.3v4.5c0,0.1-0.1,0.3-0.3,0.3H0.3
							C0.1,5.1,0,5,0,4.8V0.3C0,0.1,0.1,0,0.3,0z"/>
						<rect id="Rectángulo_35305" x="0.4" y="0.4" class="st34" width="11.1" height="4.3"/>
						<g id="Grupo_127823" transform="translate(0.381 0.401)">
							<g>
								<defs>
									<rect id="SVGID_1_" x="0" y="0" width="11.1" height="4.3"/>
								</defs>
								<clipPath id="SVGID_00000173134776099676057670000000939061575295409593_">
									<use xlink:href="#SVGID_1_"  style="overflow:visible;"/>
								</clipPath>
								<g id="Grupo_127822" style="clip-path:url(#SVGID_00000173134776099676057670000000939061575295409593_);">
									
										<rect id="Rectángulo_35306" x="1.8" y="1.9" transform="matrix(0.7594 -0.6506 0.6506 0.7594 -0.1911 5.0919)" class="st36" width="10" height="1.7"/>
									
										<rect id="Rectángulo_35307" x="-1.5" y="2" transform="matrix(0.7594 -0.6506 0.6506 0.7594 -0.8431 2.8967)" class="st36" width="10" height="1.2"/>
									
										<rect id="Rectángulo_35308" x="3.7" y="3.9" transform="matrix(0.7594 -0.6506 0.6506 0.7594 -0.9211 6.3316)" class="st36" width="8.8" height="1"/>
								</g>
							</g>
						</g>
					</g>
					<path id="Rectángulo_35310" class="st33" d="M16.9,1.9h10.9c0.3,0,0.5,0.2,0.5,0.5v11.5c0,0.3-0.2,0.5-0.5,0.5H16.9
						c-0.3,0-0.5-0.2-0.5-0.5V2.4C16.4,2.1,16.6,1.9,16.9,1.9z"/>
					<path id="Rectángulo_35311" class="st37" d="M17.7,3H20c0.1,0,0.2,0.1,0.2,0.2v0.9c0,0.1-0.1,0.2-0.2,0.2h-2.3
						c-0.1,0-0.2-0.1-0.2-0.2V3.2C17.5,3.1,17.6,3,17.7,3z"/>
					<path id="Rectángulo_35312" class="st37" d="M20.9,3h2.3c0.1,0,0.2,0.1,0.2,0.2v0.9c0,0.1-0.1,0.2-0.2,0.2h-2.3
						c-0.1,0-0.2-0.1-0.2-0.2V3.2C20.8,3.1,20.9,3,20.9,3z"/>
					<path id="Rectángulo_35313" class="st37" d="M24.2,3h2.3c0.1,0,0.2,0.1,0.2,0.2v0.9c0,0.1-0.1,0.2-0.2,0.2h-2.3
						c-0.1,0-0.2-0.1-0.2-0.2V3.2C24,3.1,24.1,3,24.2,3z"/>
					<path id="Rectángulo_35314" class="st37" d="M17.7,4.8H20c0.1,0,0.2,0.1,0.2,0.2v0.9C20.1,5.9,20.1,6,20,6h-2.3
						c-0.1,0-0.2-0.1-0.2-0.2V5C17.5,4.9,17.6,4.8,17.7,4.8z"/>
					<path id="Rectángulo_35315" class="st37" d="M20.9,4.8h2.3c0.1,0,0.2,0.1,0.2,0.2v0.9c0,0.1-0.1,0.2-0.2,0.2h-2.3
						c-0.1,0-0.2-0.1-0.2-0.2V5C20.8,4.9,20.9,4.8,20.9,4.8z"/>
					<path id="Rectángulo_35316" class="st37" d="M24.2,4.8h2.3c0.1,0,0.2,0.1,0.2,0.2v0.9c0,0.1-0.1,0.2-0.2,0.2h-2.3
						C24.1,6,24,5.9,24,5.9V5C24,4.9,24.1,4.8,24.2,4.8z"/>
					<path id="Rectángulo_35317" class="st37" d="M17.7,6.7H20c0.1,0,0.2,0.1,0.2,0.2v0.9c0,0.1-0.1,0.2-0.2,0.2h-2.3
						c-0.1,0-0.2-0.1-0.2-0.2V6.8C17.5,6.7,17.6,6.7,17.7,6.7z"/>
					<path id="Rectángulo_35318" class="st37" d="M20.9,6.7h2.3c0.1,0,0.2,0.1,0.2,0.2v0.9c0,0.1-0.1,0.2-0.2,0.2h-2.3
						c-0.1,0-0.2-0.1-0.2-0.2V6.8C20.8,6.7,20.9,6.7,20.9,6.7z"/>
					<path id="Rectángulo_35319" class="st37" d="M24.2,6.7h2.3c0.1,0,0.2,0.1,0.2,0.2v0.9c0,0.1-0.1,0.2-0.2,0.2h-2.3
						c-0.1,0-0.2-0.1-0.2-0.2V6.8C24,6.7,24.1,6.7,24.2,6.7z"/>
					<path id="Rectángulo_35320" class="st37" d="M17.7,8.5H20c0.1,0,0.2,0.1,0.2,0.2v0.9c0,0.1-0.1,0.2-0.2,0.2h-2.3
						c-0.1,0-0.2-0.1-0.2-0.2V8.7C17.5,8.6,17.6,8.5,17.7,8.5z"/>
					<path id="Rectángulo_35321" class="st37" d="M20.9,8.5h2.3c0.1,0,0.2,0.1,0.2,0.2v0.9c0,0.1-0.1,0.2-0.2,0.2h-2.3
						c-0.1,0-0.2-0.1-0.2-0.2V8.7C20.8,8.6,20.9,8.5,20.9,8.5z"/>
					<path id="Rectángulo_35322" class="st37" d="M24.2,8.5h2.3c0.1,0,0.2,0.1,0.2,0.2v0.9c0,0.1-0.1,0.2-0.2,0.2h-2.3
						c-0.1,0-0.2-0.1-0.2-0.2V8.7C24,8.6,24.1,8.5,24.2,8.5z"/>
					<rect id="Rectángulo_35323" x="19" y="11.1" class="st38" width="6.1" height="2.4"/>
					<path id="Rectángulo_35324" class="st39" d="M19.8,11.6h4.5c0,0,0.1,0,0.1,0.1v0.1c0,0,0,0-0.1,0h-4.5c0,0-0.1,0-0.1,0
						L19.8,11.6C19.7,11.6,19.7,11.6,19.8,11.6z"/>
					<path id="Rectángulo_35325" class="st39" d="M19.8,12h4.5c0,0,0.1,0,0.1,0.1v0.1c0,0,0,0-0.1,0h-4.5c0,0-0.1,0-0.1,0L19.8,12
						C19.7,12,19.7,12,19.8,12z"/>
					<path id="Rectángulo_35326" class="st39" d="M19.8,12.3h3.7c0,0,0.1,0,0.1,0.1v0.1c0,0,0,0-0.1,0h-3.7c0,0-0.1,0-0.1,0
						L19.8,12.3C19.7,12.4,19.7,12.3,19.8,12.3z"/>
					<path id="Rectángulo_35327" class="st39" d="M19.8,12.8h1.7c0,0,0.1,0,0.1,0.1V13c0,0,0,0-0.1,0h-1.7c0,0-0.1,0-0.1,0
						L19.8,12.8C19.7,12.8,19.7,12.8,19.8,12.8z"/>
				</g>
				<g id="Grupo_127826" transform="translate(88.067 84.275)">
					<rect id="Rectángulo_35328" x="0" y="0" class="st40" width="15.6" height="10"/>
					<path id="Rectángulo_35329" class="st41" d="M2.6,0.7h9.9c0.3,0,0.6,0.2,0.6,0.6v1c0,0.3-0.2,0.6-0.6,0.6H2.6
						c-0.3,0-0.6-0.2-0.6-0.6v-1C2.1,0.9,2.3,0.7,2.6,0.7z"/>
					<path id="Rectángulo_35330" class="st16" d="M3.3,1.5h8.5c0.1,0,0.1,0.1,0.1,0.1v0.2C12,1.9,11.9,2,11.9,2H3.3
						C3.3,2,3.2,1.9,3.2,1.8V1.6C3.2,1.5,3.3,1.5,3.3,1.5z"/>
					<path id="Rectángulo_35331" class="st42" d="M1.1,4h13.1c0,0,0.1,0,0.1,0.1v0.2c0,0,0,0.1-0.1,0.1H1.1c0,0-0.1,0-0.1-0.1
						L1.1,4C1,4,1.1,4,1.1,4z"/>
					<path id="Rectángulo_35332" class="st42" d="M1.1,4.8h13.1c0,0,0.1,0,0.1,0.1v0.2c0,0,0,0.1-0.1,0.1H1.1c0,0-0.1,0-0.1-0.1
						L1.1,4.8C1,4.8,1.1,4.8,1.1,4.8z"/>
					<path id="Rectángulo_35333" class="st42" d="M1.1,5.7h13.1c0,0,0.1,0,0.1,0.1v0.2c0,0,0,0.1-0.1,0.1H1.1C1.1,6,1,6,1,5.9
						L1.1,5.7C1,5.7,1.1,5.7,1.1,5.7z"/>
					<path id="Rectángulo_35334" class="st42" d="M1.1,6.5h13.1c0,0,0.1,0,0.1,0.1v0.2c0,0,0,0.1-0.1,0.1H1.1c0,0-0.1,0-0.1-0.1
						L1.1,6.5C1,6.5,1.1,6.5,1.1,6.5z"/>
					<path id="Rectángulo_35335" class="st42" d="M3.6,7.4h8.7c0,0,0.1,0,0.1,0.1v0.2c0,0,0,0.1-0.1,0.1H3.6c0,0-0.1,0-0.1-0.1
						L3.6,7.4C3.5,7.4,3.6,7.4,3.6,7.4z"/>
				</g>
				<g id="Grupo_127828" transform="translate(54.536 15.744)">
					<g id="Grupo_127827">
						<path id="Rectángulo_35336" class="st33" d="M1,0.5h10.9c0.3,0,0.5,0.2,0.5,0.5v11.5c0,0.3-0.2,0.5-0.5,0.5H1
							c-0.3,0-0.5-0.2-0.5-0.5V1C0.5,0.7,0.7,0.5,1,0.5z"/>
						<path id="Trazado_164039" class="st38" d="M11.7,13.5H1.2C0.5,13.5,0,13,0,12.4V1.2C0,0.5,0.5,0,1.2,0h10.6
							c0.6,0,1.2,0.5,1.2,1.2v11.2C12.9,13,12.4,13.5,11.7,13.5z M1.2,1C1,1,1,1.1,1,1.2v0v11.2c0,0.1,0.1,0.2,0.2,0.2h0h10.6
							c0.1,0,0.2-0.1,0.2-0.2v0V1.2c0-0.1-0.1-0.2-0.2-0.2h0L1.2,1z"/>
					</g>
					<path id="Rectángulo_35337" class="st37" d="M1.8,1.6h2.3c0.1,0,0.2,0.1,0.2,0.2v0.9c0,0.1-0.1,0.2-0.2,0.2H1.8
						c-0.1,0-0.2-0.1-0.2-0.2V1.8C1.6,1.7,1.7,1.6,1.8,1.6z"/>
					<path id="Rectángulo_35338" class="st37" d="M5.1,1.6h2.3c0.1,0,0.2,0.1,0.2,0.2v0.9c0,0.1-0.1,0.2-0.2,0.2H5.1
						C5,2.8,4.9,2.8,4.9,2.7V1.8C4.9,1.7,5,1.6,5.1,1.6z"/>
					<path id="Rectángulo_35339" class="st37" d="M8.3,1.6h2.3c0.1,0,0.2,0.1,0.2,0.2v0.9c0,0.1-0.1,0.2-0.2,0.2H8.3
						c-0.1,0-0.2-0.1-0.2-0.2V1.8C8.1,1.7,8.2,1.6,8.3,1.6z"/>
					<path id="Rectángulo_35340" class="st37" d="M1.8,3.4h2.3c0.1,0,0.2,0.1,0.2,0.2v0.9c0,0.1-0.1,0.2-0.2,0.2H1.8
						c-0.1,0-0.2-0.1-0.2-0.2V3.6C1.6,3.5,1.7,3.4,1.8,3.4z"/>
					<path id="Rectángulo_35341" class="st37" d="M5.1,3.4h2.3c0.1,0,0.2,0.1,0.2,0.2v0.9c0,0.1-0.1,0.2-0.2,0.2H5.1
						C5,4.6,4.9,4.6,4.9,4.5V3.6C4.9,3.5,5,3.4,5.1,3.4z"/>
					<path id="Rectángulo_35342" class="st37" d="M8.3,3.4h2.3c0.1,0,0.2,0.1,0.2,0.2v0.9c0,0.1-0.1,0.2-0.2,0.2H8.3
						c-0.1,0-0.2-0.1-0.2-0.2V3.6C8.1,3.5,8.2,3.4,8.3,3.4z"/>
					<path id="Rectángulo_35343" class="st37" d="M1.8,5.3h2.3c0.1,0,0.2,0.1,0.2,0.2v0.9c0,0.1-0.1,0.2-0.2,0.2H1.8
						c-0.1,0-0.2-0.1-0.2-0.2V5.4C1.6,5.3,1.7,5.3,1.8,5.3z"/>
					<path id="Rectángulo_35344" class="st37" d="M5.1,5.3h2.3c0.1,0,0.2,0.1,0.2,0.2v0.9c0,0.1-0.1,0.2-0.2,0.2H5.1
						C5,6.5,4.9,6.4,4.9,6.3V5.4C4.9,5.3,5,5.3,5.1,5.3z"/>
					<path id="Rectángulo_35345" class="st37" d="M8.3,5.3h2.3c0.1,0,0.2,0.1,0.2,0.2v0.9c0,0.1-0.1,0.2-0.2,0.2H8.3
						c-0.1,0-0.2-0.1-0.2-0.2V5.4C8.1,5.3,8.2,5.3,8.3,5.3z"/>
					<path id="Rectángulo_35346" class="st37" d="M1.8,7.1h2.3c0.1,0,0.2,0.1,0.2,0.2v0.9c0,0.1-0.1,0.2-0.2,0.2H1.8
						c-0.1,0-0.2-0.1-0.2-0.2V7.3C1.6,7.2,1.7,7.1,1.8,7.1z"/>
					<path id="Rectángulo_35347" class="st37" d="M5.1,7.1h2.3c0.1,0,0.2,0.1,0.2,0.2v0.9c0,0.1-0.1,0.2-0.2,0.2H5.1
						C5,8.3,4.9,8.2,4.9,8.2V7.3C4.9,7.2,5,7.1,5.1,7.1z"/>
					<path id="Rectángulo_35348" class="st37" d="M8.3,7.1h2.3c0.1,0,0.2,0.1,0.2,0.2v0.9c0,0.1-0.1,0.2-0.2,0.2H8.3
						c-0.1,0-0.2-0.1-0.2-0.2V7.3C8.1,7.2,8.2,7.1,8.3,7.1z"/>
					<rect id="Rectángulo_35349" x="3.1" y="9.7" class="st38" width="6.1" height="2.4"/>
					<path id="Rectángulo_35350" class="st39" d="M3.9,10.2h4.5c0,0,0.1,0,0.1,0.1v0.1c0,0,0,0.1-0.1,0.1H3.9c0,0-0.1,0-0.1-0.1
						L3.9,10.2C3.8,10.2,3.8,10.2,3.9,10.2z"/>
					<path id="Rectángulo_35351" class="st39" d="M3.9,10.6h4.5c0,0,0.1,0,0.1,0.1v0.1c0,0,0,0.1-0.1,0.1H3.9c0,0-0.1,0-0.1-0.1
						L3.9,10.6C3.8,10.6,3.8,10.6,3.9,10.6z"/>
					<path id="Rectángulo_35352" class="st39" d="M3.9,10.9h3.7c0,0,0,0,0,0.1v0.1c0,0,0,0.1,0,0.1H3.9c0,0-0.1,0-0.1-0.1L3.9,10.9
						C3.8,11,3.8,10.9,3.9,10.9z"/>
					<path id="Rectángulo_35353" class="st39" d="M3.9,11.4h1.7c0,0,0.1,0,0.1,0.1v0.1c0,0,0,0.1-0.1,0.1H3.9c0,0-0.1,0-0.1-0.1
						L3.9,11.4C3.8,11.4,3.8,11.4,3.9,11.4z"/>
				</g>
			</g>
			<path id="Trazado_164040" class="st22" d="M1055.8,11570.1c0,0,41.4-1.4,55-0.9s59,2.5,71.8,1.3c9.9-1,127.4-0.8,127.4-0.8
				s3.8-27.2,0.8-28c-3-0.8-7.6,5.1-11.5,12.3c0,0-40.8-10.2-68.4-9.8s-54.3,2.1-68.8,0.8
				C1147.7,11543.7,1070.4,11534.1,1055.8,11570.1z"/>
			<path id="Trazado_164041" class="st43" d="M1105.3,11550.4c-9.4-0.1-17.4,7.9-26.8,8c9.7-6.8,20.9-11.1,32.6-12.4
				c7-0.8,14.1-0.5,21.1-0.3c5.3,0.1,10.5,0.5,15.7,1.5c-7.3,1.8-14.7,3.1-22.2,4l5.4,1.6c-11.1,3.2-22.2,6.4-33.3,9.5
				c6.6-4,13.6-7.2,20.9-9.5c-4.6-1.8-9.7-2-14.5-0.6C1104.4,11551.5,1104.7,11550.8,1105.3,11550.4z"/>
			<path id="Trazado_164042" class="st43" d="M1169.6,11559.4c9.4-1.4,18.7-3.5,27.8-6.2c-11,0-22.3,0-32.9-3.2
				c14.7-0.7,29.5-1.4,44.2-2.1c-0.6,0.6,0.6,1.3,1.4,1.3c13-0.1,26-0.1,39-0.2c-15.5,1.3-30.9,3.6-46.1,7
				C1192,11558.4,1180.7,11561.4,1169.6,11559.4z"/>
			<path id="Trazado_164043" class="st43" d="M1309.1,11550c-0.4-0.6-1.4-0.3-1.9,0.2c-2,2-2.3,5.6-4.9,6.7c-1.2,0.4-2.5,0.4-3.7,0
				c-11.5-2.1-23.2-5.4-34.7-3.4c9.1,0.8,18,2.6,26.7,5.3c-4.8,0.5-9.5,1.6-14,3.2l25.1,0.7c1.1,0.2,2.2-0.5,2.5-1.6c0,0,0,0,0,0
				C1305.8,11557.5,1307.4,11553.8,1309.1,11550z"/>
		</g>
		<g id="Grupo_133233" transform="translate(1199.536 11312.645)">
			<g class="st44">
				<path class="st26" d="M18.1,18.6h-5.9v6.1H9.2V9.8h9.7v2.5h-6.6v3.9h5.9V18.6z"/>
				<path class="st26" d="M23.7,22.2h6.5v2.5h-9.6V9.8h3.1V22.2z"/>
				<path class="st26" d="M43.1,9.8v9.8c0,1.6-0.5,2.9-1.5,3.9c-1,1-2.4,1.4-4.2,1.4c-1.7,0-3.1-0.5-4.2-1.4c-1-0.9-1.5-2.2-1.6-3.8
					V9.8h3.1v9.9c0,1,0.2,1.7,0.7,2.1c0.5,0.4,1.1,0.7,1.9,0.7c1.7,0,2.6-0.9,2.6-2.7V9.8H43.1z"/>
				<path class="st26" d="M48.9,24.7h-3.1V9.8h3.1V24.7z"/>
				<path class="st26" d="M51.7,24.7V9.8h4.6c1.3,0,2.5,0.3,3.5,0.9c1,0.6,1.8,1.4,2.4,2.5c0.6,1.1,0.9,2.3,0.9,3.7v0.7
					c0,1.4-0.3,2.6-0.9,3.7c-0.6,1.1-1.4,1.9-2.4,2.5s-2.2,0.9-3.5,0.9H51.7z M54.8,12.3v10h1.5c1.2,0,2.1-0.4,2.8-1.2s1-1.9,1-3.4
					v-0.8c0-1.5-0.3-2.7-0.9-3.5c-0.6-0.8-1.5-1.2-2.8-1.2H54.8z"/>
				<path class="st26" d="M77.6,17.6c0,1.5-0.3,2.8-0.8,3.9s-1.3,2-2.2,2.6c-1,0.6-2.1,0.9-3.3,0.9c-1.2,0-2.3-0.3-3.3-0.9
					c-1-0.6-1.7-1.4-2.3-2.5c-0.5-1.1-0.8-2.4-0.8-3.8v-0.7c0-1.5,0.3-2.8,0.8-3.9c0.5-1.1,1.3-2,2.2-2.6c1-0.6,2.1-0.9,3.3-0.9
					s2.3,0.3,3.3,0.9c1,0.6,1.7,1.5,2.2,2.6c0.5,1.1,0.8,2.4,0.8,3.9V17.6z M74.5,16.9c0-1.6-0.3-2.8-0.8-3.6s-1.4-1.2-2.4-1.2
					c-1,0-1.8,0.4-2.4,1.2c-0.6,0.8-0.8,2-0.9,3.5v0.7c0,1.5,0.3,2.7,0.8,3.5c0.6,0.8,1.4,1.3,2.4,1.3c1,0,1.8-0.4,2.4-1.2
					c0.6-0.8,0.8-2,0.8-3.5V16.9z"/>
				<path class="st26" d="M87.6,20.8c0-0.6-0.2-1-0.6-1.3c-0.4-0.3-1.1-0.6-2.2-1c-1.1-0.3-1.9-0.7-2.5-1c-1.7-0.9-2.5-2.1-2.5-3.7
					c0-0.8,0.2-1.5,0.7-2.2c0.5-0.6,1.1-1.1,2-1.5c0.9-0.4,1.8-0.5,2.9-0.5c1.1,0,2,0.2,2.9,0.6c0.8,0.4,1.5,0.9,1.9,1.6
					c0.5,0.7,0.7,1.5,0.7,2.4h-3.1c0-0.7-0.2-1.2-0.6-1.6c-0.4-0.4-1-0.6-1.8-0.6c-0.8,0-1.3,0.2-1.8,0.5c-0.4,0.3-0.6,0.7-0.6,1.3
					c0,0.5,0.2,0.9,0.7,1.2c0.5,0.3,1.2,0.6,2.2,0.9c1.8,0.5,3,1.2,3.8,2s1.2,1.8,1.2,2.9c0,1.3-0.5,2.3-1.5,3
					c-1,0.7-2.3,1.1-3.9,1.1c-1.1,0-2.2-0.2-3.1-0.6c-0.9-0.4-1.7-1-2.2-1.7c-0.5-0.7-0.7-1.6-0.7-2.5h3.1c0,1.6,1,2.5,3,2.5
					c0.7,0,1.3-0.1,1.7-0.4C87.4,21.7,87.6,21.3,87.6,20.8z"/>
				<path class="st26" d="M98,24.7V9.8h4.6c1.3,0,2.5,0.3,3.5,0.9c1,0.6,1.8,1.4,2.4,2.5c0.6,1.1,0.9,2.3,0.9,3.7v0.7
					c0,1.4-0.3,2.6-0.9,3.7c-0.6,1.1-1.4,1.9-2.4,2.5s-2.2,0.9-3.5,0.9H98z M101.1,12.3v10h1.5c1.2,0,2.1-0.4,2.8-1.2s1-1.9,1-3.4
					v-0.8c0-1.5-0.3-2.7-0.9-3.5c-0.6-0.8-1.5-1.2-2.8-1.2H101.1z"/>
				<path class="st26" d="M120.6,18.2h-5.9v4h6.9v2.5h-10V9.8h10v2.5h-6.9v3.6h5.9V18.2z"/>
				<path class="st26" d="M126.6,22.2h6.5v2.5h-9.6V9.8h3.1V22.2z"/>
			</g>
			<g class="st44">
				<path class="st22" d="M15.2,36.2h-3.9v2.7h4.6v1.6H9.2v-10h6.7v1.7h-4.6v2.4h3.9V36.2z"/>
				<path class="st22" d="M19.8,30.6l2.6,7.2l2.5-7.2h2.7v10h-2.1v-2.7l0.2-4.7L23,40.5h-1.4L19,33.1l0.2,4.7v2.7h-2.1v-10H19.8z"/>
				<path class="st22" d="M29.4,40.5v-10h3.5c1.2,0,2.1,0.2,2.7,0.7c0.6,0.5,0.9,1.1,0.9,2c0,0.5-0.1,0.9-0.4,1.3
					c-0.3,0.4-0.6,0.6-1,0.8c0.5,0.1,0.9,0.4,1.2,0.8s0.4,0.9,0.4,1.4c0,1-0.3,1.7-0.9,2.2c-0.6,0.5-1.5,0.7-2.6,0.8H29.4z
					 M31.4,34.7h1.5c1,0,1.6-0.4,1.6-1.2c0-0.5-0.1-0.8-0.4-1c-0.3-0.2-0.7-0.3-1.2-0.3h-1.4V34.7z M31.4,36.2v2.7h1.8
					c0.5,0,0.9-0.1,1.1-0.3c0.3-0.2,0.4-0.5,0.4-1c0-0.9-0.5-1.4-1.4-1.4H31.4z"/>
				<path class="st22" d="M43.9,38.5h-3.6l-0.7,2.1h-2.2l3.7-10h1.9l3.7,10h-2.2L43.9,38.5z M40.9,36.8h2.5l-1.3-3.7L40.9,36.8z"/>
				<path class="st22" d="M49.8,38.9h4.4v1.6h-6.4v-10h2.1V38.9z"/>
				<path class="st22" d="M60.5,37.9c0-0.4-0.1-0.7-0.4-0.9c-0.3-0.2-0.8-0.4-1.5-0.7c-0.7-0.2-1.3-0.5-1.7-0.7
					c-1.1-0.6-1.7-1.4-1.7-2.5c0-0.5,0.2-1,0.5-1.4c0.3-0.4,0.7-0.8,1.3-1s1.2-0.4,1.9-0.4c0.7,0,1.3,0.1,1.9,0.4
					c0.6,0.3,1,0.6,1.3,1.1s0.5,1,0.5,1.6h-2.1c0-0.5-0.1-0.8-0.4-1.1c-0.3-0.3-0.7-0.4-1.2-0.4c-0.5,0-0.9,0.1-1.2,0.3
					c-0.3,0.2-0.4,0.5-0.4,0.8c0,0.3,0.2,0.6,0.5,0.8c0.3,0.2,0.8,0.4,1.4,0.6c1.2,0.4,2,0.8,2.5,1.3s0.8,1.2,0.8,1.9
					c0,0.9-0.3,1.5-1,2c-0.7,0.5-1.5,0.7-2.6,0.7c-0.8,0-1.5-0.1-2.1-0.4c-0.6-0.3-1.1-0.7-1.4-1.2c-0.3-0.5-0.5-1.1-0.5-1.7h2.1
					c0,1.1,0.7,1.6,2,1.6c0.5,0,0.9-0.1,1.1-0.3C60.3,38.5,60.5,38.3,60.5,37.9z"/>
				<path class="st22" d="M69.5,38.5h-3.6l-0.7,2.1h-2.2l3.7-10h1.9l3.7,10h-2.2L69.5,38.5z M66.5,36.8H69l-1.3-3.7L66.5,36.8z"/>
				<path class="st22" d="M76,30.6l2.6,7.2l2.5-7.2h2.7v10h-2.1v-2.7l0.2-4.7l-2.7,7.4h-1.4l-2.7-7.4l0.2,4.7v2.7h-2.1v-10H76z"/>
				<path class="st22" d="M91.3,38.5h-3.6l-0.7,2.1h-2.2l3.7-10h1.9l3.7,10H92L91.3,38.5z M88.3,36.8h2.5l-1.3-3.7L88.3,36.8z"/>
				<path class="st22" d="M97.8,30.6l2.6,7.2l2.5-7.2h2.7v10h-2.1v-2.7l0.2-4.7l-2.7,7.4h-1.4L97,33.1l0.2,4.7v2.7h-2.1v-10H97.8z"
					/>
				<path class="st22" d="M109.6,40.5h-2.1v-10h2.1V40.5z"/>
				<path class="st22" d="M117.5,36.2h-3.9v2.7h4.6v1.6h-6.7v-10h6.7v1.7h-4.6v2.4h3.9V36.2z"/>
				<path class="st22" d="M127.5,40.5h-2.1l-4-6.5v6.5h-2.1v-10h2.1l4,6.6v-6.6h2V40.5z"/>
				<path class="st22" d="M136.5,32.2h-3v8.3h-2.1v-8.3h-3v-1.7h8.1V32.2z"/>
				<path class="st22" d="M145.7,35.8c0,1-0.2,1.8-0.5,2.6c-0.3,0.7-0.8,1.3-1.5,1.7c-0.6,0.4-1.4,0.6-2.2,0.6
					c-0.8,0-1.6-0.2-2.2-0.6c-0.6-0.4-1.1-1-1.5-1.7c-0.4-0.7-0.5-1.6-0.5-2.5v-0.5c0-1,0.2-1.8,0.5-2.6c0.4-0.7,0.9-1.3,1.5-1.7
					c0.6-0.4,1.4-0.6,2.2-0.6c0.8,0,1.6,0.2,2.2,0.6c0.6,0.4,1.1,1,1.5,1.7c0.4,0.7,0.5,1.6,0.5,2.6V35.8z M143.6,35.3
					c0-1-0.2-1.8-0.6-2.4c-0.4-0.5-0.9-0.8-1.6-0.8c-0.7,0-1.2,0.3-1.6,0.8c-0.4,0.5-0.6,1.3-0.6,2.4v0.5c0,1,0.2,1.8,0.6,2.4
					c0.4,0.6,0.9,0.8,1.6,0.8c0.7,0,1.2-0.3,1.6-0.8c0.4-0.5,0.6-1.3,0.6-2.4V35.3z"/>
			</g>
			<rect id="Rectángulo_34968" x="0" y="0" class="st34" width="4.2" height="50.1"/>
		</g>
		<g id="Grupo_127878" transform="translate(1220.834 11489.471)">
			<path id="Trazado_163809" class="st4" d="M79.7,0H61.2l5.1,27h8.3L79.7,0z"/>
			<path id="Rectángulo_35043" class="st22" d="M66.7,27h7.5c0.6,0,1.1,0.5,1.1,1.1v4.2c0,0.6-0.5,1.1-1.1,1.1h-7.5
				c-0.6,0-1.1-0.5-1.1-1.1v-4.2C65.6,27.5,66.1,27,66.7,27z"/>
			<path id="Rectángulo_35044" class="st22" d="M53.2,9.7h8.2c2.6,0,4.8,2.1,4.8,4.8v14.1c0,2.6-2.1,4.8-4.8,4.8h-8.2
				c-2.6,0-4.8-2.1-4.8-4.8V14.5C48.5,11.9,50.6,9.7,53.2,9.7z"/>
			<rect id="Rectángulo_35045" x="55" y="3.9" class="st4" width="4.6" height="6.8"/>
			<path id="Rectángulo_35046" class="st4" d="M54.6,3.3H60c0.7,0,1.3,0.6,1.3,1.3V7c0,0.7-0.6,1.3-1.3,1.3h-5.4
				c-0.7,0-1.3-0.6-1.3-1.3V4.6C53.3,3.9,53.9,3.3,54.6,3.3z"/>
			<g id="Grupo_127674" transform="translate(14.637 33.389)">
				<path id="Trazado_163810" class="st4" d="M69,108.9h-1.4V1.4H1.4v107.5H0V0h69L69,108.9z"/>
			</g>
			<rect id="Rectángulo_35047" x="3.5" y="140.6" class="st45" width="2.1" height="13.2"/>
			<g id="Grupo_127675" transform="translate(0 140.572)">
				<path id="Trazado_163811" class="st22" d="M0,6.6c0,3.6,1.6,6.6,3.5,6.6s3.5-2.9,3.5-6.6S5.5,0,3.5,0S0,2.9,0,6.6z"/>
			</g>
			<g id="Grupo_127676" transform="translate(2.183 140.572)">
				<path id="Trazado_163812" class="st4" d="M0,6.6c0,3.6,1.6,6.6,3.5,6.6s3.5-2.9,3.5-6.6S5.5,0,3.5,0S0,2.9,0,6.6z"/>
			</g>
			<rect id="Rectángulo_35048" x="14.3" y="140.6" class="st45" width="2.1" height="13.2"/>
			<g id="Grupo_127677" transform="translate(10.72 140.572)">
				<path id="Trazado_163813" class="st22" d="M0,6.6c0,3.6,1.6,6.6,3.5,6.6s3.5-2.9,3.5-6.6S5.5,0,3.5,0S0,2.9,0,6.6z"/>
			</g>
			<g id="Grupo_127678" transform="translate(12.903 140.572)">
				<path id="Trazado_163814" class="st4" d="M0,6.6c0,3.6,1.6,6.6,3.5,6.6s3.5-2.9,3.5-6.6S5.5,0,3.5,0S0,2.9,0,6.6z"/>
			</g>
			<rect id="Rectángulo_35049" x="71.2" y="140.6" class="st45" width="2.1" height="13.2"/>
			<g id="Grupo_127679" transform="translate(67.63 140.572)">
				<path id="Trazado_163815" class="st22" d="M0,6.6c0,3.6,1.6,6.6,3.5,6.6s3.5-2.9,3.5-6.6S5.5,0,3.5,0S0,2.9,0,6.6z"/>
			</g>
			<g id="Grupo_127680" transform="translate(69.814 140.572)">
				<path id="Trazado_163816" class="st4" d="M0,6.6c0,3.6,1.6,6.6,3.5,6.6s3.5-2.9,3.5-6.6S5.5,0,3.5,0S0,2.9,0,6.6z"/>
			</g>
			<rect id="Rectángulo_35050" x="81.9" y="140.6" class="st45" width="2.1" height="13.2"/>
			<g id="Grupo_127681" transform="translate(78.35 140.572)">
				<path id="Trazado_163817" class="st22" d="M0,6.6c0,3.6,1.6,6.6,3.5,6.6s3.5-2.9,3.5-6.6S5.5,0,3.5,0S0,2.9,0,6.6z"/>
			</g>
			<g id="Grupo_127682" transform="translate(80.533 140.572)">
				<path id="Trazado_163818" class="st4" d="M0,6.6c0,3.6,1.6,6.6,3.5,6.6s3.5-2.9,3.5-6.6S5.5,0,3.5,0S0,2.9,0,6.6z"/>
			</g>
			<rect id="Rectángulo_35051" x="4.6" y="115.6" class="st22" width="67.5" height="18.2"/>
			<rect id="Rectángulo_35052" x="72.2" y="115.6" class="st2" width="10.9" height="18.2"/>
			<path id="Trazado_163819" class="st2" d="M30.7,127h14.8c2,0,3.6-1.6,3.6-3.6l0,0h-22C27.1,125.4,28.7,127,30.7,127L30.7,127z"/>
			<rect id="Rectángulo_35053" x="4.6" y="95.2" class="st22" width="67.5" height="18.2"/>
			<rect id="Rectángulo_35054" x="72.2" y="95.2" class="st2" width="10.9" height="18.2"/>
			<path id="Trazado_163820" class="st2" d="M30.7,106.6h14.8c2,0,3.6-1.6,3.6-3.6h-22C27.1,105,28.7,106.6,30.7,106.6L30.7,106.6z"
				/>
			<rect id="Rectángulo_35055" x="4.6" y="74.9" class="st22" width="67.5" height="18.2"/>
			<rect id="Rectángulo_35056" x="72.2" y="74.9" class="st2" width="10.9" height="18.2"/>
			<path id="Trazado_163821" class="st2" d="M30.7,86.2h14.8c2,0,3.6-1.6,3.6-3.6h-22C27.1,84.6,28.7,86.2,30.7,86.2
				C30.7,86.2,30.7,86.2,30.7,86.2z"/>
			<rect id="Rectángulo_35057" x="4.6" y="54.5" class="st22" width="67.5" height="18.2"/>
			<rect id="Rectángulo_35058" x="72.2" y="54.5" class="st2" width="10.9" height="18.2"/>
			<path id="Trazado_163822" class="st2" d="M30.7,65.8h14.8c2,0,3.6-1.6,3.6-3.6h-22C27.1,64.2,28.7,65.8,30.7,65.8
				C30.7,65.8,30.7,65.8,30.7,65.8z"/>
			<rect id="Rectángulo_35059" x="4.6" y="34.1" class="st22" width="67.5" height="18.2"/>
			<rect id="Rectángulo_35060" x="72.2" y="34.1" class="st2" width="10.9" height="18.2"/>
			<path id="Trazado_163823" class="st2" d="M30.7,45.4h14.8c2,0,3.6-1.6,3.6-3.6h-22C27.1,43.8,28.7,45.4,30.7,45.4L30.7,45.4z"/>
			<g id="Grupo_127683" transform="translate(3.918 33.389)">
				<path id="Trazado_163824" class="st4" d="M69,108.9h-1.4V1.4H1.4v107.5H0V0h69V108.9z"/>
			</g>
			<path id="Trazado_163825" class="st2" d="M67,33.4H11.3c-1.2,0-2.2-1-2.2-2.2l0,0c0-1.2,1-2.2,2.2-2.2H67c1.2,0,2.2,1,2.2,2.2
				l0,0l0,0C69.2,32.4,68.2,33.4,67,33.4z"/>
			<g id="Grupo_127684" transform="translate(9.405 21.922)">
				<path id="Trazado_163826" class="st2" d="M59.4,9.9H0V9.3C0,4.2,4.2,0,9.3,0h40.8c5.1,0,9.3,4.2,9.3,9.3L59.4,9.9z M1.2,8.7
					h57.1c-0.3-4.3-3.9-7.6-8.1-7.6H9.3C5,1.1,1.5,4.4,1.2,8.7L1.2,8.7z"/>
			</g>
		</g>
		<g id="Grupo_133235" transform="translate(1214.113 11362.695)">
			<rect id="Rectángulo_33829" x="2.2" y="2.2" class="st22" width="99.3" height="43.6"/>
			<g id="Grupo_91754" transform="translate(63.299 29.249)">
				<rect id="Rectángulo_33830" x="0" y="0" class="st46" width="9.4" height="14.4"/>
				<rect id="Rectángulo_33831" x="0.7" y="4.8" class="st47" width="7.9" height="5"/>
				<path id="Rectángulo_33832" class="st16" d="M2.8,1.6h3.7c0.1,0,0.1,0.1,0.1,0.1v0.1C6.7,1.9,6.6,2,6.6,2H2.8
					C2.8,2,2.7,1.9,2.7,1.8V1.7C2.7,1.7,2.8,1.6,2.8,1.6z"/>
				<path id="Rectángulo_33833" class="st16" d="M1.9,2.5h5.7c0.1,0,0.1,0.1,0.1,0.1v0.1c0,0.1-0.1,0.1-0.1,0.1H1.9
					c-0.1,0-0.1-0.1-0.1-0.1V2.6C1.7,2.5,1.8,2.5,1.9,2.5z"/>
				<path id="Rectángulo_33834" class="st46" d="M2.8,5.5h3.7c0.1,0,0.1,0.1,0.1,0.1l0,0v0.1c0,0.1-0.1,0.1-0.1,0.1l0,0H2.8
					c-0.1,0-0.1-0.1-0.1-0.1c0,0,0,0,0,0V5.6C2.7,5.5,2.8,5.5,2.8,5.5z"/>
				<path id="Rectángulo_33835" class="st46" d="M1.9,6.3h5.7c0.1,0,0.1,0.1,0.1,0.1v0.1c0,0.1-0.1,0.1-0.1,0.1H1.9
					c-0.1,0-0.1-0.1-0.1-0.1V6.5C1.7,6.4,1.8,6.3,1.9,6.3C1.9,6.3,1.9,6.3,1.9,6.3z"/>
			</g>
			<g id="Grupo_91755" transform="translate(74.928 29.793)">
				<rect id="Rectángulo_33836" x="0" y="0" class="st47" width="5.5" height="13.8"/>
				<rect id="Rectángulo_33837" x="0" y="0" class="st48" width="5.5" height="6.1"/>
				<path id="Rectángulo_33838" class="st16" d="M1.5,2h2.3c0.1,0,0.1,0,0.1,0.1v0.1c0,0.1,0,0.1-0.1,0.1H1.5c-0.1,0-0.1,0-0.1-0.1
					V2.1C1.4,2,1.5,2,1.5,2z"/>
				<path id="Rectángulo_33839" class="st16" d="M0.7,2.5h3.7c0.1,0,0.1,0,0.1,0.1v0.1c0,0.1,0,0.1-0.1,0.1H0.7
					c-0.1,0-0.1,0-0.1-0.1V2.7C0.6,2.6,0.6,2.5,0.7,2.5z"/>
				<rect id="Rectángulo_33840" x="1.4" y="6.9" class="st49" width="2.5" height="4.4"/>
				<rect id="Rectángulo_33841" x="4.9" y="5.3" class="st16" width="17.7" height="8.5"/>
				<rect id="Rectángulo_33842" x="15.5" y="5.3" class="st50" width="7.2" height="8.5"/>
				<rect id="Rectángulo_33843" x="6.4" y="7.6" class="st26" width="7.3" height="0.7"/>
				<path id="Trazado_150739" class="st16" d="M20.5,9.7c0-0.7-0.6-1.3-1.3-1.3c-0.7,0-1.3,0.6-1.3,1.3c0,0.7,0.6,1.3,1.3,1.3
					C19.9,11,20.5,10.4,20.5,9.7z"/>
				<path id="Rectángulo_33844" class="st51" d="M6.5,9.3h6.6c0,0,0.1,0,0.1,0.1v0.1c0,0,0,0.1-0.1,0.1H6.5c0,0-0.1,0-0.1-0.1
					L6.5,9.3C6.4,9.4,6.5,9.3,6.5,9.3z"/>
				<path id="Rectángulo_33845" class="st51" d="M6.5,10h6.6c0,0,0.1,0,0.1,0.1v0.1c0,0,0,0.1-0.1,0.1H6.5c0,0-0.1,0-0.1-0.1
					L6.5,10C6.4,10,6.5,10,6.5,10z"/>
			</g>
			<g id="Grupo_91756" transform="translate(6.563 10.395)">
				<rect id="Rectángulo_33846" x="0" y="0" class="st16" width="24.7" height="12.7"/>
				<rect id="Rectángulo_33847" x="0" y="0" class="st26" width="24.7" height="3.7"/>
				<rect id="Rectángulo_33848" x="0" y="9" class="st26" width="24.7" height="3.7"/>
				<path id="Rectángulo_33849" class="st52" d="M6.8,5.4H22c0.1,0,0.1,0.1,0.1,0.1v0.1c0,0.1-0.1,0.1-0.1,0.1H6.8
					c-0.1,0-0.1-0.1-0.1-0.1V5.5C6.7,5.4,6.8,5.4,6.8,5.4z"/>
				<path id="Rectángulo_33850" class="st52" d="M6.8,6.3H22c0.1,0,0.1,0.1,0.1,0.1v0.1c0,0.1-0.1,0.1-0.1,0.1H6.8
					c-0.1,0-0.1-0.1-0.1-0.1V6.5C6.7,6.4,6.8,6.3,6.8,6.3z"/>
				<path id="Rectángulo_33851" class="st52" d="M6.8,7.2H22c0.1,0,0.1,0.1,0.1,0.1v0.1c0,0.1-0.1,0.1-0.1,0.1H6.8
					c-0.1,0-0.1-0.1-0.1-0.1V7.4C6.7,7.3,6.8,7.2,6.8,7.2z"/>
			</g>
			<g id="Grupo_91761" transform="translate(71.575 14.774)">
				<g id="Grupo_91757" transform="translate(14.3)">
					<path id="Rectángulo_33852" class="st49" d="M0.4,1.1H4l0,0v6.6C4,8,3.8,8.2,3.5,8.2c0,0,0,0,0,0H0.9C0.6,8.2,0.4,8,0.4,7.7
						c0,0,0,0,0,0V1.1L0.4,1.1z"/>
					<rect id="Rectángulo_33853" x="0" y="0" class="st16" width="4.4" height="1.3"/>
					<rect id="Rectángulo_33854" x="0.7" y="3.5" class="st16" width="2.9" height="2"/>
				</g>
				<g id="Grupo_91758" transform="translate(9.514 0.136)">
					<path id="Rectángulo_33855" class="st49" d="M0.4,1H4l0,0v6.7c0,0.2-0.2,0.4-0.4,0.4c0,0,0,0,0,0H0.8c-0.2,0-0.4-0.2-0.4-0.4
						c0,0,0,0,0,0V1L0.4,1z"/>
					<rect id="Rectángulo_33856" x="0" y="0" class="st16" width="4.4" height="1.3"/>
					<rect id="Rectángulo_33857" x="0.7" y="3.5" class="st16" width="2.9" height="2"/>
				</g>
				<g id="Grupo_91759" transform="translate(4.786 0.136)">
					<path id="Rectángulo_33858" class="st49" d="M0.4,1H4l0,0v6.6c0,0.3-0.2,0.5-0.5,0.5l0,0H0.9c-0.3,0-0.5-0.2-0.5-0.5
						c0,0,0,0,0,0V1L0.4,1z"/>
					<rect id="Rectángulo_33859" x="0" y="0" class="st16" width="4.4" height="1.3"/>
					<rect id="Rectángulo_33860" x="0.7" y="3.5" class="st16" width="2.9" height="2"/>
				</g>
				<g id="Grupo_91760" transform="translate(0 0.136)">
					<path id="Rectángulo_33861" class="st49" d="M0.4,1H4l0,0v6.6c0,0.3-0.2,0.5-0.6,0.5H0.9c-0.3,0-0.5-0.2-0.5-0.5V1L0.4,1z"/>
					<rect id="Rectángulo_33862" x="0" y="0" class="st16" width="4.4" height="1.3"/>
					<rect id="Rectángulo_33863" x="0.7" y="3.5" class="st16" width="2.9" height="2"/>
				</g>
			</g>
			<g id="Grupo_91766" transform="translate(43.066 35.559)">
				<g id="Grupo_91762" transform="translate(14.3)">
					<path id="Rectángulo_33864" class="st49" d="M0.4,1.1H4l0,0v6.6C4,8,3.8,8.2,3.5,8.2c0,0,0,0,0,0H0.9C0.6,8.2,0.4,8,0.4,7.7
						c0,0,0,0,0,0V1.1L0.4,1.1z"/>
					<rect id="Rectángulo_33865" x="0" y="0" class="st16" width="4.4" height="1.3"/>
					<rect id="Rectángulo_33866" x="0.7" y="3.5" class="st16" width="2.9" height="2"/>
				</g>
				<g id="Grupo_91763" transform="translate(9.514 0.136)">
					<path id="Rectángulo_33867" class="st49" d="M0.4,1H4l0,0v6.7c0,0.2-0.2,0.4-0.4,0.4c0,0,0,0,0,0H0.8c-0.2,0-0.4-0.2-0.4-0.4
						c0,0,0,0,0,0V1L0.4,1z"/>
					<rect id="Rectángulo_33868" x="0" y="0" class="st16" width="4.4" height="1.3"/>
					<rect id="Rectángulo_33869" x="0.7" y="3.5" class="st16" width="2.9" height="2"/>
				</g>
				<g id="Grupo_91764" transform="translate(4.785 0.136)">
					<path id="Rectángulo_33870" class="st49" d="M0.4,1H4l0,0v6.6c0,0.3-0.2,0.5-0.5,0.5l0,0H0.9c-0.3,0-0.5-0.2-0.5-0.5
						c0,0,0,0,0,0V1L0.4,1z"/>
					<rect id="Rectángulo_33871" x="0" y="0" class="st16" width="4.4" height="1.3"/>
					<rect id="Rectángulo_33872" x="0.7" y="3.5" class="st16" width="2.9" height="2"/>
				</g>
				<g id="Grupo_91765" transform="translate(0 0.136)">
					<path id="Rectángulo_33873" class="st49" d="M0.4,1H4l0,0v6.6c0,0.3-0.2,0.5-0.6,0.5c0,0,0,0,0,0H0.9c-0.3,0-0.5-0.2-0.5-0.5
						V1L0.4,1z"/>
					<rect id="Rectángulo_33874" x="0" y="0" class="st16" width="4.4" height="1.3"/>
					<rect id="Rectángulo_33875" x="0.7" y="3.5" class="st16" width="2.9" height="2"/>
				</g>
			</g>
			<g id="Grupo_91767" transform="translate(51.86 10.165)">
				<rect id="Rectángulo_33876" x="0" y="0" class="st16" width="13.5" height="12.8"/>
				<path id="Trazado_150740" class="st5" d="M1.3,7.2c0,0,6,2.1,6.5,2.5S9.1,9.6,8.6,9C8.1,8.6,7.5,8.2,6.8,8l5,0.1
					c0,0,0.7,0.1,0.8-0.4s-0.9-0.5-0.9-0.5L8.4,6.9l3.6-0.5c0,0,0.7-0.1,0.7-0.6s-1-0.3-1-0.3L8.2,5.7l3.5-0.8c0,0,0.9-0.2,0.8-0.7
					S11.3,4,11.3,4L7.8,4.5l1.8-0.9c0,0,0.3-0.2,0.1-0.4S9.1,3,9.1,3S4.9,4.4,4,4.9C3.1,5.2,2.2,5.3,1.3,5.1L1.3,7.2z"/>
				<rect id="Rectángulo_33877" x="0" y="0" class="st50" width="13.5" height="2.4"/>
				<rect id="Rectángulo_33878" x="0" y="10.4" class="st50" width="13.5" height="2.4"/>
			</g>
			
				<linearGradient id="Rectángulo_33879_00000114757144309635868200000015852019461170228109_" gradientUnits="userSpaceOnUse" x1="-330.3021" y1="461.8352" x2="-330.3021" y2="460.8352" gradientTransform="matrix(98.365 0 0 -4.466 32542.4824 2085.6079)">
				<stop  offset="0" style="stop-color:#F5F5F5"/>
				<stop  offset="0.25" style="stop-color:#F5F5F5"/>
				<stop  offset="1" style="stop-color:#A7B3CF"/>
			</linearGradient>
			
				<rect id="Rectángulo_33879" x="3.1" y="23.1" style="fill:url(#Rectángulo_33879_00000114757144309635868200000015852019461170228109_);" width="98.4" height="4.5"/>
			
				<linearGradient id="Trazado_150741_00000104664847177741750260000008180372755756823444_" gradientUnits="userSpaceOnUse" x1="-330.3771" y1="506.1015" x2="-330.3771" y2="505.1015" gradientTransform="matrix(103.678 0 0 -47.944 34304.6758 24264.5293)">
				<stop  offset="0" style="stop-color:#F5F5F5"/>
				<stop  offset="0.25" style="stop-color:#F5F5F5"/>
				<stop  offset="1" style="stop-color:#A7B3CF"/>
			</linearGradient>
			<path id="Trazado_150741" style="fill:url(#Trazado_150741_00000104664847177741750260000008180372755756823444_);" d="
				M103.7,47.9H0V0h103.7V47.9z M4.3,43.6h95V4.3h-95L4.3,43.6z"/>
			
				<linearGradient id="Rectángulo_33881_00000118378111313799915550000012237608532047644856_" gradientUnits="userSpaceOnUse" x1="-293.2736" y1="505.5461" x2="-293.2736" y2="504.5461" gradientTransform="matrix(3.741 0 0 -42.725 1148.6121 21601.7461)">
				<stop  offset="0" style="stop-color:#F5F5F5"/>
				<stop  offset="0.25" style="stop-color:#F5F5F5"/>
				<stop  offset="1" style="stop-color:#A7B3CF"/>
			</linearGradient>
			
				<rect id="Rectángulo_33881" x="49.6" y="2.3" style="fill:url(#Rectángulo_33881_00000118378111313799915550000012237608532047644856_);" width="3.7" height="42.7"/>
			<rect id="Rectángulo_33882" x="51.3" y="0" class="st56" width="0.1" height="47.9"/>
			<path id="Rectángulo_33883" class="st57" d="M52,18.5h1.5c0.6,0,1,0.4,1,1v9.6c0,0.6-0.4,1-1,1H52l0,0V18.5L52,18.5z"/>
			<path id="Rectángulo_33884" class="st57" d="M50.5,30.1H49c-0.6,0-1-0.4-1-1v-9.6c0-0.6,0.4-1,1-1h1.5l0,0V30.1L50.5,30.1z"/>
		</g>
		<g id="Grupo_133236" transform="translate(1214.113 11417.941)">
			<rect id="Rectángulo_33829-2" x="2.2" y="2.2" class="st22" width="99.3" height="43.6"/>
			<g id="Grupo_91754-2" transform="translate(63.299 29.249)">
				<rect id="Rectángulo_33830-2" x="0" y="0" class="st46" width="9.4" height="14.4"/>
				<rect id="Rectángulo_33831-2" x="0.7" y="4.8" class="st47" width="7.9" height="5"/>
				<path id="Rectángulo_33832-2" class="st16" d="M2.8,1.6h3.7c0.1,0,0.1,0.1,0.1,0.1v0.1C6.7,1.9,6.6,2,6.6,2H2.8
					C2.8,2,2.7,1.9,2.7,1.8V1.7C2.7,1.7,2.8,1.6,2.8,1.6z"/>
				<path id="Rectángulo_33833-2" class="st16" d="M1.9,2.5h5.7c0.1,0,0.1,0.1,0.1,0.1v0.1c0,0.1-0.1,0.1-0.1,0.1H1.9
					c-0.1,0-0.1-0.1-0.1-0.1V2.6C1.7,2.5,1.8,2.5,1.9,2.5z"/>
				<path id="Rectángulo_33834-2" class="st46" d="M2.8,5.5h3.7c0.1,0,0.1,0.1,0.1,0.1l0,0v0.1c0,0.1-0.1,0.1-0.1,0.1l0,0H2.8
					c-0.1,0-0.1-0.1-0.1-0.1c0,0,0,0,0,0V5.6C2.7,5.5,2.8,5.5,2.8,5.5z"/>
				<path id="Rectángulo_33835-2" class="st46" d="M1.9,6.3h5.7c0.1,0,0.1,0.1,0.1,0.1v0.1c0,0.1-0.1,0.1-0.1,0.1H1.9
					c-0.1,0-0.1-0.1-0.1-0.1V6.5C1.7,6.4,1.8,6.3,1.9,6.3C1.9,6.3,1.9,6.3,1.9,6.3z"/>
			</g>
			<g id="Grupo_91755-2" transform="translate(74.928 29.793)">
				<rect id="Rectángulo_33836-2" x="0" y="0" class="st47" width="5.5" height="13.8"/>
				<rect id="Rectángulo_33837-2" x="0" y="0" class="st48" width="5.5" height="6.1"/>
				<path id="Rectángulo_33838-2" class="st16" d="M1.5,2h2.3c0.1,0,0.1,0,0.1,0.1v0.1c0,0.1,0,0.1-0.1,0.1H1.5
					c-0.1,0-0.1,0-0.1-0.1V2.1C1.4,2,1.5,2,1.5,2z"/>
				<path id="Rectángulo_33839-2" class="st16" d="M0.7,2.5h3.7c0.1,0,0.1,0,0.1,0.1v0.1c0,0.1,0,0.1-0.1,0.1H0.7
					c-0.1,0-0.1,0-0.1-0.1V2.7C0.6,2.6,0.6,2.5,0.7,2.5z"/>
				<rect id="Rectángulo_33840-2" x="1.4" y="6.9" class="st49" width="2.5" height="4.4"/>
				<rect id="Rectángulo_33841-2" x="4.9" y="5.3" class="st16" width="17.7" height="8.5"/>
				<rect id="Rectángulo_33842-2" x="15.5" y="5.3" class="st50" width="7.2" height="8.5"/>
				<rect id="Rectángulo_33843-2" x="6.4" y="7.6" class="st26" width="7.3" height="0.7"/>
				<path id="Trazado_150739-2" class="st16" d="M20.5,9.7c0-0.7-0.6-1.3-1.3-1.3c-0.7,0-1.3,0.6-1.3,1.3c0,0.7,0.6,1.3,1.3,1.3
					C19.9,11,20.5,10.4,20.5,9.7z"/>
				<path id="Rectángulo_33844-2" class="st51" d="M6.5,9.3h6.6c0,0,0.1,0,0.1,0.1v0.1c0,0,0,0.1-0.1,0.1H6.5c0,0-0.1,0-0.1-0.1
					L6.5,9.3C6.4,9.4,6.5,9.3,6.5,9.3z"/>
				<path id="Rectángulo_33845-2" class="st51" d="M6.5,10h6.6c0,0,0.1,0,0.1,0.1v0.1c0,0,0,0.1-0.1,0.1H6.5c0,0-0.1,0-0.1-0.1
					L6.5,10C6.4,10,6.5,10,6.5,10z"/>
			</g>
			<g id="Grupo_91756-2" transform="translate(6.563 10.395)">
				<rect id="Rectángulo_33846-2" x="0" y="0" class="st16" width="24.7" height="12.7"/>
				<rect id="Rectángulo_33847-2" x="0" y="0" class="st26" width="24.7" height="3.7"/>
				<rect id="Rectángulo_33848-2" x="0" y="9" class="st26" width="24.7" height="3.7"/>
				<path id="Rectángulo_33849-2" class="st52" d="M6.8,5.4H22c0.1,0,0.1,0.1,0.1,0.1v0.1c0,0.1-0.1,0.1-0.1,0.1H6.8
					c-0.1,0-0.1-0.1-0.1-0.1V5.5C6.7,5.4,6.8,5.4,6.8,5.4z"/>
				<path id="Rectángulo_33850-2" class="st52" d="M6.8,6.3H22c0.1,0,0.1,0.1,0.1,0.1v0.1c0,0.1-0.1,0.1-0.1,0.1H6.8
					c-0.1,0-0.1-0.1-0.1-0.1V6.5C6.7,6.4,6.8,6.3,6.8,6.3z"/>
				<path id="Rectángulo_33851-2" class="st52" d="M6.8,7.2H22c0.1,0,0.1,0.1,0.1,0.1v0.1c0,0.1-0.1,0.1-0.1,0.1H6.8
					c-0.1,0-0.1-0.1-0.1-0.1V7.4C6.7,7.3,6.8,7.2,6.8,7.2z"/>
			</g>
			<g id="Grupo_91761-2" transform="translate(71.575 14.774)">
				<g id="Grupo_91757-2" transform="translate(14.3)">
					<path id="Rectángulo_33852-2" class="st49" d="M0.4,1.1H4l0,0v6.6C4,8,3.8,8.2,3.5,8.2c0,0,0,0,0,0H0.9C0.6,8.2,0.4,8,0.4,7.7
						c0,0,0,0,0,0V1.1L0.4,1.1z"/>
					<rect id="Rectángulo_33853-2" x="0" y="0" class="st16" width="4.4" height="1.3"/>
					<rect id="Rectángulo_33854-2" x="0.7" y="3.5" class="st16" width="2.9" height="2"/>
				</g>
				<g id="Grupo_91758-2" transform="translate(9.514 0.136)">
					<path id="Rectángulo_33855-2" class="st49" d="M0.4,1H4l0,0v6.7c0,0.2-0.2,0.4-0.4,0.4c0,0,0,0,0,0H0.8
						c-0.2,0-0.4-0.2-0.4-0.4c0,0,0,0,0,0V1L0.4,1z"/>
					<rect id="Rectángulo_33856-2" x="0" y="0" class="st16" width="4.4" height="1.3"/>
					<rect id="Rectángulo_33857-2" x="0.7" y="3.5" class="st16" width="2.9" height="2"/>
				</g>
				<g id="Grupo_91759-2" transform="translate(4.786 0.136)">
					<path id="Rectángulo_33858-2" class="st49" d="M0.4,1H4l0,0v6.6c0,0.3-0.2,0.5-0.5,0.5l0,0H0.9c-0.3,0-0.5-0.2-0.5-0.5
						c0,0,0,0,0,0V1L0.4,1z"/>
					<rect id="Rectángulo_33859-2" x="0" y="0" class="st16" width="4.4" height="1.3"/>
					<rect id="Rectángulo_33860-2" x="0.7" y="3.5" class="st16" width="2.9" height="2"/>
				</g>
				<g id="Grupo_91760-2" transform="translate(0 0.136)">
					<path id="Rectángulo_33861-2" class="st49" d="M0.4,1H4l0,0v6.6c0,0.3-0.2,0.5-0.6,0.5H0.9c-0.3,0-0.5-0.2-0.5-0.5V1L0.4,1z"
						/>
					<rect id="Rectángulo_33862-2" x="0" y="0" class="st16" width="4.4" height="1.3"/>
					<rect id="Rectángulo_33863-2" x="0.7" y="3.5" class="st16" width="2.9" height="2"/>
				</g>
			</g>
			<g id="Grupo_91766-2" transform="translate(43.066 35.559)">
				<g id="Grupo_91762-2" transform="translate(14.3)">
					<path id="Rectángulo_33864-2" class="st49" d="M0.4,1.1H4l0,0v6.6C4,8,3.8,8.2,3.5,8.2c0,0,0,0,0,0H0.9C0.6,8.2,0.4,8,0.4,7.7
						c0,0,0,0,0,0V1.1L0.4,1.1z"/>
					<rect id="Rectángulo_33865-2" x="0" y="0" class="st16" width="4.4" height="1.3"/>
					<rect id="Rectángulo_33866-2" x="0.7" y="3.5" class="st16" width="2.9" height="2"/>
				</g>
				<g id="Grupo_91763-2" transform="translate(9.514 0.136)">
					<path id="Rectángulo_33867-2" class="st49" d="M0.4,1H4l0,0v6.7c0,0.2-0.2,0.4-0.4,0.4c0,0,0,0,0,0H0.8
						c-0.2,0-0.4-0.2-0.4-0.4c0,0,0,0,0,0V1L0.4,1z"/>
					<rect id="Rectángulo_33868-2" x="0" y="0" class="st16" width="4.4" height="1.3"/>
					<rect id="Rectángulo_33869-2" x="0.7" y="3.5" class="st16" width="2.9" height="2"/>
				</g>
				<g id="Grupo_91764-2" transform="translate(4.785 0.136)">
					<path id="Rectángulo_33870-2" class="st49" d="M0.4,1H4l0,0v6.6c0,0.3-0.2,0.5-0.5,0.5l0,0H0.9c-0.3,0-0.5-0.2-0.5-0.5
						c0,0,0,0,0,0V1L0.4,1z"/>
					<rect id="Rectángulo_33871-2" x="0" y="0" class="st16" width="4.4" height="1.3"/>
					<rect id="Rectángulo_33872-2" x="0.7" y="3.5" class="st16" width="2.9" height="2"/>
				</g>
				<g id="Grupo_91765-2" transform="translate(0 0.136)">
					<path id="Rectángulo_33873-2" class="st49" d="M0.4,1H4l0,0v6.6c0,0.3-0.2,0.5-0.6,0.5c0,0,0,0,0,0H0.9
						c-0.3,0-0.5-0.2-0.5-0.5V1L0.4,1z"/>
					<rect id="Rectángulo_33874-2" x="0" y="0" class="st16" width="4.4" height="1.3"/>
					<rect id="Rectángulo_33875-2" x="0.7" y="3.5" class="st16" width="2.9" height="2"/>
				</g>
			</g>
			<g id="Grupo_91767-2" transform="translate(51.86 10.165)">
				<rect id="Rectángulo_33876-2" x="0" y="0" class="st16" width="13.5" height="12.8"/>
				<path id="Trazado_150740-2" class="st5" d="M1.3,7.2c0,0,6,2.1,6.5,2.5S9.1,9.6,8.6,9C8.1,8.6,7.5,8.2,6.8,8l5,0.1
					c0,0,0.7,0.1,0.8-0.4s-0.9-0.5-0.9-0.5L8.4,6.9l3.6-0.5c0,0,0.7-0.1,0.7-0.6s-1-0.3-1-0.3L8.2,5.7l3.5-0.8c0,0,0.9-0.2,0.8-0.7
					S11.3,4,11.3,4L7.8,4.5l1.8-0.9c0,0,0.3-0.2,0.1-0.4S9.1,3,9.1,3S4.9,4.4,4,4.9C3.1,5.2,2.2,5.3,1.3,5.1L1.3,7.2z"/>
				<rect id="Rectángulo_33877-2" x="0" y="0" class="st50" width="13.5" height="2.4"/>
				<rect id="Rectángulo_33878-2" x="0" y="10.4" class="st50" width="13.5" height="2.4"/>
			</g>
			
				<linearGradient id="Rectángulo_33879-2_00000111889568418119124150000003685693080321800322_" gradientUnits="userSpaceOnUse" x1="-330.3021" y1="406.5891" x2="-330.3021" y2="405.5891" gradientTransform="matrix(98.365 0 0 -4.466 32542.4824 1838.8789)">
				<stop  offset="0" style="stop-color:#F5F5F5"/>
				<stop  offset="0.25" style="stop-color:#F5F5F5"/>
				<stop  offset="1" style="stop-color:#A7B3CF"/>
			</linearGradient>
			
				<rect id="Rectángulo_33879-2" x="3.1" y="23.1" style="fill:url(#Rectángulo_33879-2_00000111889568418119124150000003685693080321800322_);" width="98.4" height="4.5"/>
			
				<linearGradient id="Trazado_150741-2_00000018235567760818363270000011963708652486576317_" gradientUnits="userSpaceOnUse" x1="-330.3771" y1="450.8554" x2="-330.3771" y2="449.8554" gradientTransform="matrix(103.678 0 0 -47.944 34304.6758 21615.8105)">
				<stop  offset="0" style="stop-color:#F5F5F5"/>
				<stop  offset="0.25" style="stop-color:#F5F5F5"/>
				<stop  offset="1" style="stop-color:#A7B3CF"/>
			</linearGradient>
			<path id="Trazado_150741-2" style="fill:url(#Trazado_150741-2_00000018235567760818363270000011963708652486576317_);" d="
				M103.7,47.9H0V0h103.7V47.9z M4.3,43.6h95V4.3h-95L4.3,43.6z"/>
			
				<linearGradient id="Rectángulo_33881-2_00000085956958711983578900000011128867510756422816_" gradientUnits="userSpaceOnUse" x1="-293.2736" y1="450.3" x2="-293.2736" y2="449.3" gradientTransform="matrix(3.741 0 0 -42.725 1148.6121 19241.3574)">
				<stop  offset="0" style="stop-color:#F5F5F5"/>
				<stop  offset="0.25" style="stop-color:#F5F5F5"/>
				<stop  offset="1" style="stop-color:#A7B3CF"/>
			</linearGradient>
			
				<rect id="Rectángulo_33881-2" x="49.6" y="2.3" style="fill:url(#Rectángulo_33881-2_00000085956958711983578900000011128867510756422816_);" width="3.7" height="42.7"/>
			<rect id="Rectángulo_33882-2" x="51.3" y="0" class="st56" width="0.1" height="47.9"/>
			<path id="Rectángulo_33883-2" class="st57" d="M52,18.5h1.5c0.6,0,1,0.4,1,1v9.6c0,0.6-0.4,1-1,1H52l0,0V18.5L52,18.5z"/>
			<path id="Rectángulo_33884-2" class="st57" d="M50.5,30.1H49c-0.6,0-1-0.4-1-1v-9.6c0-0.6,0.4-1,1-1h1.5l0,0V30.1L50.5,30.1z"/>
		</g>
	</g>
</g>
</svg>
