<svg xmlns="http://www.w3.org/2000/svg" xmlns:xlink="http://www.w3.org/1999/xlink" width="105.911" height="105.91" viewBox="0 0 105.911 105.91">
  <defs>
    <radialGradient id="radial-gradient" cx="0.076" cy="0.019" r="1.465" gradientTransform="translate(0.001)" gradientUnits="objectBoundingBox">
      <stop offset="0" stop-color="#f6f6f7"/>
      <stop offset="0.477" stop-color="#f9f9fa"/>
      <stop offset="0.715" stop-color="#fff"/>
    </radialGradient>
  </defs>
  <g id="Grupo_134243" data-name="Grupo 134243" transform="translate(-314.178 -16016)">
    <g id="Grupo_18420" data-name="Grupo 18420" transform="translate(314.178 16016)">
      <g id="Grupo_18419" data-name="Grupo 18419">
        <path id="Trazado_40936" data-name="Trazado 40936" d="M300.533,2198.675a52.955,52.955,0,1,1-52.954-52.954A52.954,52.954,0,0,1,300.533,2198.675Z" transform="translate(-194.623 -2145.721)" fill="#fff"/>
      </g>
    </g>
    <path id="Trazado_40937" data-name="Trazado 40937" d="M300.034,2198.131a52.954,52.954,0,1,0-52.954,52.956A52.746,52.746,0,0,0,300.034,2198.131Z" transform="translate(120.054 13870.822)" fill="url(#radial-gradient)"/>
    <path id="Trazado_40938" data-name="Trazado 40938" d="M283.1,2193.749a40.42,40.42,0,1,0-40.42,40.42A40.269,40.269,0,0,0,283.1,2193.749Z" transform="translate(124.617 13875.381)" fill="none" stroke="#1d272b" stroke-miterlimit="10" stroke-width="4"/>
    <path id="Trazado_40939" data-name="Trazado 40939" d="M291.719,2164.488a52.962,52.962,0,0,1-91.174,52.736,52.793,52.793,0,0,0,91.174-52.736Z" transform="translate(123.015 13881.242)" fill="#eceef0"/>
    <path id="Trazado_173835" data-name="Trazado 173835" d="M-1156.675,115.632c-.863,1.637-1.471,3.491-2.645,4.862a73.266,73.266,0,0,1-7.017,7.031,12.057,12.057,0,0,1-3.981,2.071c-.446.159-1.2-.553-1.816-.867a6.964,6.964,0,0,1,1.217-1.616c1.1-.81,2.454-1.307,3.453-2.21,2.078-1.878,4-3.924,5.969-5.924,2.125-2.163,2.272-4.871.4-6.79s-4.662-1.843-6.789.23c-2.236,2.18-4.486,4.351-6.6,6.646a21.121,21.121,0,0,0-1.625,2.93,9.365,9.365,0,0,1-1.45,1.441c-.384-.624-1.182-1.338-1.07-1.855a7.955,7.955,0,0,1,1.543-3.6c2.567-2.827,5.267-5.55,8.089-8.123a6.691,6.691,0,0,1,7.686-1.019C-1158.573,110.082-1157.208,112.354-1156.675,115.632Z" transform="translate(1545.31 15940.062)" fill="#1d272b"/>
    <path id="Trazado_173836" data-name="Trazado 173836" d="M-1221.7,180.9c-3.963-.175-6.26-1.464-7.557-4.193a6.615,6.615,0,0,1,.957-7.684,109.778,109.778,0,0,1,8.125-8.086,8.965,8.965,0,0,1,3.777-1.617c.484-.122,1.178.588,1.777.919a6.719,6.719,0,0,1-1.238,1.562,38.107,38.107,0,0,0-3.806,2.321c-2.1,1.851-4.017,3.91-5.983,5.909-2.12,2.155-2.235,4.863-.328,6.785s4.629,1.841,6.793-.279c2.231-2.185,4.475-4.363,6.584-6.662a23.118,23.118,0,0,0,1.64-2.931,6.762,6.762,0,0,1,1.433-1.221c.373.57,1.177,1.289,1.042,1.683a12.442,12.442,0,0,1-2.065,4.178,70.416,70.416,0,0,1-7.026,7.02A19.425,19.425,0,0,1-1221.7,180.9Z" transform="translate(1577.044 15908.445)" fill="#1d272b"/>
    <path id="Trazado_173837" data-name="Trazado 173837" d="M-1180.482,141.519a23.008,23.008,0,0,1-1.514,2.064q-6.279,6.314-12.585,12.6c-.716.717-1.527,1.431-2.441.5-.934-.95-.127-1.724.574-2.424,4.155-4.15,8.287-8.322,12.482-12.431a3.655,3.655,0,0,1,1.961-.81C-1181.544,140.953-1181.02,141.327-1180.482,141.519Z" transform="translate(1556.917 15919.734)" fill="#1d272b"/>
  </g>
</svg>
