<svg xmlns="http://www.w3.org/2000/svg" xmlns:xlink="http://www.w3.org/1999/xlink" width="114.636" height="114.636" viewBox="0 0 114.636 114.636">
  <defs>
    <radialGradient id="radial-gradient" cx="0.076" cy="0.019" r="1.465" gradientTransform="translate(0.001)" gradientUnits="objectBoundingBox">
      <stop offset="0" stop-color="#f6f6f7"/>
      <stop offset="0.477" stop-color="#f9f9fa"/>
      <stop offset="0.715" stop-color="#fff"/>
    </radialGradient>
  </defs>
  <g id="Grupo_134306" data-name="Grupo 134306" transform="translate(-327.903 -12030.484)">
    <g id="Grupo_18421" data-name="Grupo 18421" transform="translate(327.903 12030.484)">
      <g id="Grupo_18420" data-name="Grupo 18420">
        <g id="Grupo_18419" data-name="Grupo 18419">
          <path id="Trazado_40936" data-name="Trazado 40936" d="M309.259,2203.037a57.318,57.318,0,1,1-57.317-57.316A57.317,57.317,0,0,1,309.259,2203.037Z" transform="translate(-194.623 -2145.721)" fill="#fff"/>
        </g>
      </g>
    </g>
    <path id="Trazado_40937" data-name="Trazado 40937" d="M308.648,2202.372a57.316,57.316,0,1,0-57.317,57.319A57.091,57.091,0,0,0,308.648,2202.372Z" transform="translate(133.891 9885.429)" fill="url(#radial-gradient)"/>
    <path id="Trazado_40938" data-name="Trazado 40938" d="M289.672,2196.986a43.75,43.75,0,1,0-43.75,43.75A43.587,43.587,0,0,0,289.672,2196.986Z" transform="translate(139.473 9891.006)" fill="none" stroke="#1d272b" stroke-miterlimit="10" stroke-width="4"/>
    <g id="Grupo_18422" data-name="Grupo 18422" transform="translate(338.058 12062.664)">
      <path id="Trazado_40939" data-name="Trazado 40939" d="M299.231,2164.488a57.325,57.325,0,0,1-98.686,57.081,57.143,57.143,0,0,0,98.686-57.081Z" transform="translate(-200.545 -2164.488)" fill="#eceef0"/>
    </g>
    <g id="Grupo_133240" data-name="Grupo 133240" transform="translate(359.181 12065.328)">
      <path id="Trazado_170729" data-name="Trazado 170729" d="M1703.44-255.414h-23.4a.654.654,0,0,0-.175-.075,7.716,7.716,0,0,1-6.74-8.043c.037-1.557.007-3.115,0-4.673,0-.134-.02-.269-.037-.5-.161.222-.266.361-.365.5q-1.6,2.323-3.2,4.646a1.749,1.749,0,0,1-2.713.522q-1.49-1.011-2.968-2.04a7.428,7.428,0,0,1-2.825-3.507c-.249-.659-.387-1.36-.575-2.041v-1.657a.712.712,0,0,0,.074-.179,8.377,8.377,0,0,1,1.6-3.818c1.91-2.745,3.8-5.506,5.7-8.258,2.214-3.206,4.375-6.449,6.665-9.6a7.442,7.442,0,0,1,9.3-2.222,39.818,39.818,0,0,1,3.961,2.559c1.29.865,1.441,1.718.568,2.984q-5.954,8.642-11.907,17.285c-.116.169-.226.343-.372.567h3.794c.028-.212.057-.4.078-.593a9.316,9.316,0,0,1,3.585-6.509,4.205,4.205,0,0,1,2.345-1.078,8.475,8.475,0,0,0,3.336-1,4.064,4.064,0,0,0,2.428-3.087,9.51,9.51,0,0,0-.087-2.416,1.749,1.749,0,0,1,1.919-2.171,9.423,9.423,0,0,1,9.153,8.99,1.168,1.168,0,0,0,.47.941,8.707,8.707,0,0,1,2.924,4.276c.263.859.4,1.755.61,2.675.627,0,1.292-.016,1.957,0a1.712,1.712,0,0,1,1.823,1.792c.009,2.712.061,5.426-.015,8.136a7.363,7.363,0,0,1-4.409,6.807A16.331,16.331,0,0,1,1703.44-255.414ZM1667.5-266.621l17.274-25.077c-.679-.459-1.3-.932-1.969-1.321a4.247,4.247,0,0,0-5.9,1.317c-.44.623-.867,1.255-1.3,1.883q-5.415,7.859-10.828,15.718a4.171,4.171,0,0,0,.187,5.457A20.606,20.606,0,0,0,1667.5-266.621Zm39.43,2.268h-30.38c0,.394-.009.763,0,1.132a4.273,4.273,0,0,0,4.377,4.383q10.816.034,21.633,0a4.245,4.245,0,0,0,3.652-1.888A5.442,5.442,0,0,0,1706.927-264.353Zm-3.865-8.59a5.861,5.861,0,0,0-2.7-4.671,2.343,2.343,0,0,1-1.212-2.381,5.738,5.738,0,0,0-2.367-5.167,13.783,13.783,0,0,0-1.68-.966c-.024.336-.04.512-.048.689a6.933,6.933,0,0,1-2.013,4.624,10.569,10.569,0,0,1-6.114,2.955,3.184,3.184,0,0,0-1.893.968,7.152,7.152,0,0,0-.515.584,5.892,5.892,0,0,0-1.248,3.366Zm3.872,3.47h-30.359v2.658h30.359Z" transform="translate(-1660.442 297.137)" fill="#1d272b"/>
    </g>
  </g>
</svg>
