<svg xmlns="http://www.w3.org/2000/svg" xmlns:xlink="http://www.w3.org/1999/xlink" width="114.636" height="114.636" viewBox="0 0 114.636 114.636">
  <defs>
    <radialGradient id="radial-gradient" cx="0.076" cy="0.019" r="1.465" gradientTransform="translate(0.001)" gradientUnits="objectBoundingBox">
      <stop offset="0" stop-color="#f6f6f7"/>
      <stop offset="0.477" stop-color="#f9f9fa"/>
      <stop offset="0.715" stop-color="#fff"/>
    </radialGradient>
  </defs>
  <g id="Grupo_134307" data-name="Grupo 134307" transform="translate(-744.903 -12030.484)">
    <g id="Grupo_18420" data-name="Grupo 18420" transform="translate(744.903 12030.484)">
      <g id="Grupo_18419" data-name="Grupo 18419">
        <path id="Trazado_40936" data-name="Trazado 40936" d="M309.259,2203.037a57.318,57.318,0,1,1-57.317-57.316A57.317,57.317,0,0,1,309.259,2203.037Z" transform="translate(-194.623 -2145.721)" fill="#fff"/>
      </g>
    </g>
    <path id="Trazado_40937" data-name="Trazado 40937" d="M308.648,2202.372a57.316,57.316,0,1,0-57.317,57.319A57.091,57.091,0,0,0,308.648,2202.372Z" transform="translate(550.891 9885.429)" fill="url(#radial-gradient)"/>
    <path id="Trazado_40938" data-name="Trazado 40938" d="M289.672,2196.986a43.75,43.75,0,1,0-43.75,43.75A43.587,43.587,0,0,0,289.672,2196.986Z" transform="translate(556.473 9891.006)" fill="none" stroke="#1d272b" stroke-miterlimit="10" stroke-width="4"/>
    <path id="Trazado_40939" data-name="Trazado 40939" d="M299.231,2164.488a57.325,57.325,0,0,1-98.686,57.081,57.143,57.143,0,0,0,98.686-57.081Z" transform="translate(554.513 9898.176)" fill="#eceef0"/>
    <path id="Trazado_170728" data-name="Trazado 170728" d="M1128.6,92.814c.521-1.039,1.173-1.429,2.032-1.148a2.3,2.3,0,0,1,.8.512c.556.512,1.081,1.059,1.618,1.591.011.011.028.016-.016-.008l4.114-4.031c-.266-.22-.579-.446-.853-.713q-1.227-1.2-2.426-2.424a1.593,1.593,0,1,1,2.246-2.25c.452.435.9.878,1.346,1.316a.577.577,0,0,1,.151.11,3.216,3.216,0,0,1,.331-.474q9.986-10,19.979-19.985c.137-.137.269-.278.414-.406a1.57,1.57,0,0,1,2.188,0c.285.257.527.562.813.872.473-.468.893-.879,1.307-1.3.579-.582,1.149-1.174,1.732-1.752a1.6,1.6,0,0,1,2.5-.013c.2.2.385.431.668.751a4.875,4.875,0,0,1,.4-.538q3.615-3.626,7.237-7.246a1.667,1.667,0,0,1,1.773-.574,1.563,1.563,0,0,1,.809,2.454,4.276,4.276,0,0,1-.423.463q-3.585,3.588-7.175,7.171a5.43,5.43,0,0,1-.525.4c.326.275.573.454.784.669a1.6,1.6,0,0,1,.007,2.434c-.982,1.021-1.967,2.04-3.06,3.173a5.622,5.622,0,0,1,.6.469,1.636,1.636,0,0,1,.013,2.673q-3.567,3.572-7.138,7.14-6.524,6.524-13.051,13.046a5.211,5.211,0,0,1-.56.4c.625.576,1.167,1.03,1.655,1.536a1.525,1.525,0,0,1,.249,1.792,1.467,1.467,0,0,1-1.6.827,2.386,2.386,0,0,1-1.069-.583c-1.086-1.031-2.131-2.1-3.185-3.168a3.084,3.084,0,0,1-.292-.393l-4.077,4.058c.683.676,1.4,1.364,2.091,2.076a1.542,1.542,0,0,1,.085,2.246,4.415,4.415,0,0,1-.792.519h-.676a8.8,8.8,0,0,1-1.155-.831q-4.535-4.5-9.031-9.031a8.794,8.794,0,0,1-.831-1.155Zm11.268-4.825,5.249,5.233,19.55-19.55-5.216-5.224-3.38,3.381,2.017,1.859L1155.921,76l-2.075-2.011-1.6,1.633,3.113,3.217-2.28,2.2-3.081-3.2-1.7,1.716,1.981,1.951-2.227,2.234-1.9-2.026-1.728,1.724,3.154,3.127-2.238,2.233-3.132-3.145Zm-.427,4.234-3.921,3.818,1.12,1.2,3.905-3.908Zm26.247-26.143-1.966,1.9,1.4,1.4,1.889-1.95Z" transform="translate(-351.857 12008.707)" fill="#1d272b"/>
  </g>
</svg>
