<svg xmlns="http://www.w3.org/2000/svg" xmlns:xlink="http://www.w3.org/1999/xlink" width="105.91" height="105.91" viewBox="0 0 105.91 105.91">
  <defs>
    <radialGradient id="radial-gradient" cx="0.076" cy="0.019" r="1.465" gradientTransform="translate(0.001)" gradientUnits="objectBoundingBox">
      <stop offset="0" stop-color="#f6f6f7"/>
      <stop offset="0.477" stop-color="#f9f9fa"/>
      <stop offset="0.715" stop-color="#fff"/>
    </radialGradient>
  </defs>
  <g id="Grupo_134246" data-name="Grupo 134246" transform="translate(-1178.178 -16016)">
    <path id="Trazado_40936" data-name="Trazado 40936" d="M300.533,2198.675a52.955,52.955,0,1,1-52.954-52.954A52.954,52.954,0,0,1,300.533,2198.675Z" transform="translate(983.555 13870.279)" fill="#fff"/>
    <path id="Trazado_40937" data-name="Trazado 40937" d="M300.034,2198.131a52.954,52.954,0,1,0-52.954,52.956A52.746,52.746,0,0,0,300.034,2198.131Z" transform="translate(984.054 13870.822)" fill="url(#radial-gradient)"/>
    <path id="Trazado_40938" data-name="Trazado 40938" d="M283.1,2193.749a40.42,40.42,0,1,0-40.42,40.42A40.269,40.269,0,0,0,283.1,2193.749Z" transform="translate(988.617 13875.381)" fill="none" stroke="#1d272b" stroke-miterlimit="10" stroke-width="4"/>
    <path id="Trazado_40939" data-name="Trazado 40939" d="M291.719,2164.488a52.962,52.962,0,0,1-91.174,52.736,52.793,52.793,0,0,0,91.174-52.736Z" transform="translate(987.015 13881.242)" fill="#eceef0"/>
    <path id="Trazado_173844" data-name="Trazado 173844" d="M-2136.609,240.112c0-3.475-.018-6.951.016-10.426a1.769,1.769,0,0,0-.685-1.482c-2.022-1.781-4.013-3.6-6.016-5.4-.172-.155-.353-.3-.511-.471a1.2,1.2,0,0,1-.094-1.722,1.183,1.183,0,0,1,1.778-.107q3.8,3.376,7.551,6.815a1.741,1.741,0,0,1,.429,1.164q.037,11.206.014,22.412c0,.935-.468,1.453-1.24,1.454s-1.236-.508-1.238-1.453C-2136.615,247.3-2136.61,243.706-2136.609,240.112Z" transform="translate(3361.964 15843.277)" fill="#1d272b"/>
    <path id="Trazado_173845" data-name="Trazado 173845" d="M-2031.8,240.184c0-3.65.014-7.3-.01-10.951a2.106,2.106,0,0,1,.77-1.738c2.346-2.072,4.643-4.2,7.005-6.252a1.959,1.959,0,0,1,1.456-.447c1.005.209,1.155,1.41.307,2.185-2.119,1.935-4.245,3.862-6.4,5.757a1.777,1.777,0,0,0-.661,1.491c.022,6.917.014,13.834.013,20.751a4.557,4.557,0,0,1-.027.867,1.136,1.136,0,0,1-1.219,1.009,1.116,1.116,0,0,1-1.2-1.021,6.3,6.3,0,0,1-.034-.954Q-2031.8,245.532-2031.8,240.184Z" transform="translate(3269.108 15842.763)" fill="#1d272b"/>
    <path id="Trazado_173846" data-name="Trazado 173846" d="M-2092,132.3q1.423-1.44,2.846-2.88c.224-.227.444-.458.68-.673a1.279,1.279,0,0,1,1.861-.082,1.27,1.27,0,0,1-.1,1.856c-1.485,1.507-2.988,3-4.484,4.493-.451.451-.889.916-1.359,1.345a1.2,1.2,0,0,1-1.791.008q-2.978-2.923-5.9-5.907a1.161,1.161,0,0,1,0-1.719,1.2,1.2,0,0,1,1.783.006c1.008.958,1.976,1.959,2.963,2.939.2.2.411.387.8.753V131.33c0-2.464,0-4.928,0-7.391,0-1.054.469-1.633,1.264-1.611.766.021,1.2.585,1.2,1.589q.007,4.125,0,8.251Z" transform="translate(3325.951 15924.083)" fill="#1d272b"/>
    <path id="Trazado_173847" data-name="Trazado 173847" d="M-2065.487,400.094a1.784,1.784,0,0,1-1.778,1.767,1.808,1.808,0,0,1-1.775-1.781,1.809,1.809,0,0,1,1.79-1.768A1.784,1.784,0,0,1-2065.487,400.094Z" transform="translate(3299.863 15696.113)" fill="#1d272b"/>
    <path id="Trazado_173848" data-name="Trazado 173848" d="M-2067.262,289.364a1.808,1.808,0,0,1,1.832,1.8,1.775,1.775,0,0,1-1.77,1.676,1.625,1.625,0,0,1-1.811-1.746A1.644,1.644,0,0,1-2067.262,289.364Z" transform="translate(3299.839 15786.106)" fill="#1d272b"/>
    <path id="Trazado_173849" data-name="Trazado 173849" d="M-2029.012,205.288a1.753,1.753,0,0,1-1.75,1.775,1.751,1.751,0,0,1-1.758-1.769,1.753,1.753,0,0,1,1.752-1.775A1.745,1.745,0,0,1-2029.012,205.288Z" transform="translate(3269.697 15857.016)" fill="#1d272b"/>
    <path id="Trazado_173850" data-name="Trazado 173850" d="M-2067.259,234.788a1.751,1.751,0,0,1,1.782,1.743,1.753,1.753,0,0,1-1.759,1.767,1.767,1.767,0,0,1-1.792-1.742A1.771,1.771,0,0,1-2067.259,234.788Z" transform="translate(3299.853 15831.188)" fill="#1d272b"/>
    <path id="Trazado_173851" data-name="Trazado 173851" d="M-2067.227,347.4a1.764,1.764,0,0,1-1.789-1.744,1.76,1.76,0,0,1,1.768-1.764,1.747,1.747,0,0,1,1.781,1.743A1.747,1.747,0,0,1-2067.227,347.4Z" transform="translate(3299.842 15741.068)" fill="#1d272b"/>
    <path id="Trazado_173852" data-name="Trazado 173852" d="M-1977.185,168.71a1.723,1.723,0,0,1-1.67,1.839,1.719,1.719,0,0,1-1.842-1.668,1.727,1.727,0,0,1,1.669-1.841A1.736,1.736,0,0,1-1977.185,168.71Z" transform="translate(3226.892 15887.149)" fill="#1d272b"/>
    <path id="Trazado_173853" data-name="Trazado 173853" d="M-2104.906,200.957a1.734,1.734,0,0,1,1.736,1.78,1.726,1.726,0,0,1-1.782,1.731,1.715,1.715,0,0,1-1.732-1.778A1.719,1.719,0,0,1-2104.906,200.957Z" transform="translate(3330.958 15859.133)" fill="#1d272b"/>
    <path id="Trazado_173854" data-name="Trazado 173854" d="M-2015.576,123.975a1.72,1.72,0,0,1,1.721,1.788,1.71,1.71,0,0,1-1.792,1.713,1.725,1.725,0,0,1-1.725-1.784A1.731,1.731,0,0,1-2015.576,123.975Z" transform="translate(3257.185 15922.721)" fill="#1d272b"/>
    <path id="Trazado_173855" data-name="Trazado 173855" d="M-2141.554,141.962a1.721,1.721,0,0,1,1.716,1.8,1.721,1.721,0,0,1-1.8,1.712,1.728,1.728,0,0,1-1.715-1.8A1.73,1.73,0,0,1-2141.554,141.962Z" transform="translate(3361.247 15907.863)" fill="#1d272b"/>
  </g>
</svg>
