<svg xmlns="http://www.w3.org/2000/svg" xmlns:xlink="http://www.w3.org/1999/xlink" width="114.636" height="114.635" viewBox="0 0 114.636 114.635">
  <defs>
    <radialGradient id="radial-gradient" cx="0.076" cy="0.019" r="1.465" gradientTransform="translate(0.001)" gradientUnits="objectBoundingBox">
      <stop offset="0" stop-color="#f6f6f7"/>
      <stop offset="0.477" stop-color="#f9f9fa"/>
      <stop offset="0.715" stop-color="#fff"/>
    </radialGradient>
  </defs>
  <g id="Grupo_134258" data-name="Grupo 134258" transform="translate(-1154.764 -849)">
    <path id="Trazado_40936" data-name="Trazado 40936" d="M309.259,2203.037a57.318,57.318,0,1,1-57.317-57.316A57.317,57.317,0,0,1,309.259,2203.037Z" transform="translate(960.141 -1296.721)" fill="#fff"/>
    <path id="Trazado_40937" data-name="Trazado 40937" d="M308.648,2202.372a57.316,57.316,0,1,0-57.317,57.319A57.091,57.091,0,0,0,308.648,2202.372Z" transform="translate(960.751 -1296.056)" fill="url(#radial-gradient)"/>
    <path id="Trazado_40938" data-name="Trazado 40938" d="M289.672,2196.986a43.75,43.75,0,1,0-43.75,43.75A43.587,43.587,0,0,0,289.672,2196.986Z" transform="translate(966.334 -1290.479)" fill="none" stroke="#1d272b" stroke-miterlimit="10" stroke-width="4"/>
    <path id="Trazado_40939" data-name="Trazado 40939" d="M299.231,2164.488a57.325,57.325,0,0,1-98.686,57.081,57.143,57.143,0,0,0,98.686-57.081Z" transform="translate(964.373 -1283.309)" fill="#eceef0"/>
    <path id="Trazado_173893" data-name="Trazado 173893" d="M1427.2,388.086c.594,0,1.142-.005,1.69,0a2.711,2.711,0,0,1,.624.062,1.078,1.078,0,0,1,.79.936,4.281,4.281,0,0,1,.01.434c0,1.163-.155,1.37-1.269,1.668v.46q0,3,0,6a3.068,3.068,0,0,1-1.8,2.916.533.533,0,0,0-.242.372c-.031.419-.006.842-.013,1.263a1.011,1.011,0,1,1-2.021.035c-.018-.42-.012-.843,0-1.263a.39.39,0,0,0-.252-.425,3.039,3.039,0,0,1-1.808-2.946c0-2.131,0-4.262,0-6.418l-.3-.069a1.072,1.072,0,0,1-.937-1.054,7.05,7.05,0,0,1-.039-.708,1.19,1.19,0,0,1,1.259-1.263c.513,0,1.026.011,1.539.032.255.01.342-.086.342-.344-.009-3.027.031-6.055-.022-9.082a4.68,4.68,0,0,0-9.356.158c-.011,7.831.016,15.663-.013,23.494a10.266,10.266,0,0,1-5.48,9.407,10.6,10.6,0,0,1-15.683-8.235c-.158-1.856-.064-3.735-.073-5.6a.8.8,0,0,0-.26-.654,1.962,1.962,0,0,1-.615-1.45c-.006-.263-.006-.527,0-.79.006-.327.055-.615-.428-.713-.373-.076-.5-.467-.5-.853,0-.537,0-1.073,0-1.671-.52,0-1.014.009-1.507,0a18.691,18.691,0,0,1-2.157-.083,3.2,3.2,0,0,1-2.6-2.851c-.016-.2-.018-.394-.018-.592q0-6.041-.007-12.083c0-.359.067-.5.479-.5,5.119.012,10.239,0,15.358,0,.775,0,1.549.008,2.323,0,.33-.006.475.1.461.454-.026.643-.007,1.287-.007,2h-.484q-2.665,0-5.331,0a.79.79,0,0,0-.822.553.706.706,0,0,0,.274.874,1.317,1.317,0,0,0,.666.171c1.724.014,3.448.008,5.173.008h.5v2.441h-1.224c-.461,0-.921,0-1.382,0-.607.008-.96.307-.963.807s.348.812.951.817c.724.006,1.448,0,2.172,0h.447v2.437h-.489c-1.764,0-3.527,0-5.291,0a.792.792,0,0,0-.868.733.819.819,0,0,0,.769.885,1.8,1.8,0,0,0,.276.011l5.132-.023h.418a3.24,3.24,0,0,1-1.96,3.7,3.855,3.855,0,0,1-1.226.242c-.879.033-1.759,0-2.639,0-.115,0-.231.018-.381.031,0,.491,0,.96,0,1.429,0,.789-.156,1-.931,1.23,0,.4-.005.822,0,1.239a2.18,2.18,0,0,1-.672,1.63.748.748,0,0,0-.192.474c-.014,1.592-.019,3.185-.005,4.778a8.185,8.185,0,0,0,14.013,5.624,8.057,8.057,0,0,0,2.372-5.869q-.014-11.708,0-23.415a7.089,7.089,0,0,1,10.113-6.477,6.834,6.834,0,0,1,4.114,6.491c.045,2.882.01,5.765.01,8.647Z" transform="translate(-192.084 518.58)" fill="#1d272b"/>
    <path id="Trazado_173894" data-name="Trazado 173894" d="M1404.714,297.852h-5.606a2.329,2.329,0,0,0-.393.017.8.8,0,0,0-.023,1.58,2.477,2.477,0,0,0,.471.026c1.826,0,3.652,0,5.515,0v2.4h-18.54c-.009-.1-.028-.216-.029-.328,0-1.565-.006-3.129,0-4.694a3.281,3.281,0,0,1,3.431-3.423q5.9,0,11.8,0a3.279,3.279,0,0,1,3.371,3.248C1404.726,297.043,1404.714,297.411,1404.714,297.852Z" transform="translate(-192.138 590.73)" fill="#1d272b"/>
  </g>
</svg>
