<svg xmlns="http://www.w3.org/2000/svg" xmlns:xlink="http://www.w3.org/1999/xlink" width="222.94" height="222.945" viewBox="0 0 222.94 222.945">
  <defs>
    <radialGradient id="radial-gradient" cx="0.076" cy="0.019" r="1.465" gradientTransform="translate(0)" gradientUnits="objectBoundingBox">
      <stop offset="0" stop-color="#f6f6f7"/>
      <stop offset="0.477" stop-color="#f9f9fa"/>
      <stop offset="0.715" stop-color="#fff"/>
    </radialGradient>
  </defs>
  <g id="Grupo_134249" data-name="Grupo 134249" transform="translate(-1015.969 -18470.742)">
    <path id="Trazado_40936" data-name="Trazado 40936" d="M417.562,2257.189a111.47,111.47,0,1,1-111.468-111.468A111.468,111.468,0,0,1,417.562,2257.189Z" transform="translate(821.346 16325.021)" fill="#fff"/>
    <path id="Trazado_40937" data-name="Trazado 40937" d="M415.569,2255.017A111.467,111.467,0,1,0,304.1,2366.492,111.031,111.031,0,0,0,415.569,2255.017Z" transform="translate(823.34 16327.195)" fill="url(#radial-gradient)"/>
    <path id="Trazado_40938" data-name="Trazado 40938" d="M389.579,2246.181a94.349,94.349,0,1,0-94.349,94.35A94.011,94.011,0,0,0,389.579,2246.181Z" transform="translate(832.429 16336.273)" fill="none" stroke="#1d272b" stroke-miterlimit="10" stroke-width="5"/>
    <path id="Trazado_40939" data-name="Trazado 40939" d="M392.465,2164.488A111.483,111.483,0,0,1,200.545,2275.5a111.8,111.8,0,0,0,11.094,14.849,111.485,111.485,0,0,0,180.826-125.859Z" transform="translate(835.172 16368.838)" fill="#eceef0"/>
    <path id="Trazado_173857" data-name="Trazado 173857" d="M-2412.191-102.926V-99.6h-74.721c1.824,2.48,3.324,4.677,5.021,6.709.4.473,1.455.5,2.219.536a12.2,12.2,0,0,1,10.936,7.076c2.248,4.491,1.575,8.834-1.2,12.963a8.274,8.274,0,0,0-1.105,3.008,6.7,6.7,0,0,1-5.4,5.447,27.6,27.6,0,0,0-5.029,2.307l.355,1.1h68.813v3.617h-113.951v-3.349h11c-1.074-1.175-1.694-1.876-2.338-2.554a18.291,18.291,0,0,1-2.108-22.994c1.638-2.529,3.039-5.211,4.69-7.73,1.271-1.939,2.764-3.731,4.486-6.026h-15.627v-3.438Zm-87.817,42.291c-2.094-3.078-3.709-6.251-2.937-10.082h3.11c.836,6.725,3.563,10.044,8.406,10.391,5.439.39,8.1-2.34,10.183-10.577l2.864.158.444,3.2c2.163.1,3.083-.747,3.314-2.771a7.051,7.051,0,0,1,1.314-3.533,8.938,8.938,0,0,0-.038-11.943,8.837,8.837,0,0,0-11.846-1.273c-.705.5-1.381,1.04-2.154,1.625l-2.179-2.635,4.16-3.424c-3.059-5.2-7.463-7.937-13.442-7.969-5.113-.028-9.835,2.547-11.433,6.028l7.844-.84v3.346c-12.217,2.116-18.256,8.636-16.659,17.844C-2517.58-64.564-2509.4-59.132-2500.008-60.635Z" transform="translate(3596.885 18667.475)" fill="#008f85"/>
    <path id="Trazado_173858" data-name="Trazado 173858" d="M-2412.132-114.708v3.246h-113.946v-3.246Z" transform="translate(3596.815 18672.076)" fill="#008f85"/>
    <path id="Trazado_173859" data-name="Trazado 173859" d="M-2412.281-20.844v3.235h-114.047l-.152-3.235Z" transform="translate(3596.972 18635.416)" fill="#008f85"/>
    <path id="Trazado_173860" data-name="Trazado 173860" d="M-2395.4-76.773l3.824-3.232c-5.836,0-11.065-.232-16.262.076a6.922,6.922,0,0,0-6.526,7.142,7.118,7.118,0,0,0,7.1,6.959c4.661.216,9.338.08,14.008.084,7.7.007,15.4,0,23.345,0,.056,1.216.1,2.171.139,3.01-.381.235-.552.431-.723.432-12.282.037-24.568.219-36.847.015A10.511,10.511,0,0,1-2417.949-73c.048-5.8,4.462-10.285,10.762-10.627,3.948-.214,7.917-.038,11.876-.059.963,0,1.926-.1,3.5-.18l-3.566-3.019,2.044-2.785,10.451,7.82-10.435,7.831Z" transform="translate(3554.583 18662.297)" fill="#008f85"/>
    <path id="Trazado_173861" data-name="Trazado 173861" d="M-2347.156-70.593v3.1h-3.337l-.189-3.1Z" transform="translate(3528.31 18654.848)" fill="#008f85"/>
    <path id="Trazado_173862" data-name="Trazado 173862" d="M-2400.368-64.554v-3.11h3.348c.056.945.113,1.906.184,3.11Z" transform="translate(3547.716 18653.703)" fill="#008f85"/>
    <path id="Trazado_173863" data-name="Trazado 173863" d="M-2364.943-62h3.113v3.336h-3.113Z" transform="translate(3533.88 18651.49)" fill="#008f85"/>
    <path id="Trazado_173864" data-name="Trazado 173864" d="M-2352.952-90.976l-.147,3.109h-3.275c-.071-.973-.14-1.923-.228-3.109Z" transform="translate(3530.622 18662.809)" fill="#008f85"/>
    <path id="Trazado_173865" data-name="Trazado 173865" d="M-2423.2-43.934h-3.282V-47.1h3.282Z" transform="translate(3557.917 18645.672)" fill="#008f85"/>
    <path id="Trazado_173866" data-name="Trazado 173866" d="M-2423.577-85v-3.836a12.455,12.455,0,0,1,3.272.955,2.353,2.353,0,0,1-.141,2.145A9.961,9.961,0,0,1-2423.577-85Z" transform="translate(3556.781 18661.973)" fill="#008f85"/>
  </g>
</svg>
