<svg xmlns="http://www.w3.org/2000/svg" xmlns:xlink="http://www.w3.org/1999/xlink" width="319.672" height="226.875" viewBox="0 0 319.672 226.875">
  <defs>
    <linearGradient id="linear-gradient" x1="0.5" x2="0.5" y2="1" gradientUnits="objectBoundingBox">
      <stop offset="0" stop-color="#f5f5f5"/>
      <stop offset="0.25" stop-color="#f5f5f5"/>
      <stop offset="1" stop-color="#a7b3cf"/>
    </linearGradient>
    <radialGradient id="radial-gradient" cx="0.5" cy="0.5" r="0.5" gradientUnits="objectBoundingBox">
      <stop offset="0" stop-color="#f6f6f7"/>
      <stop offset="0.477" stop-color="#f9f9fa"/>
      <stop offset="0.715" stop-color="#fff"/>
    </radialGradient>
  </defs>
  <g id="Grupo_134158" data-name="Grupo 134158" transform="translate(-252.584 -20084.813)">
    <g id="Grupo_128940" data-name="Grupo 128940" transform="translate(43.999 6131.438)">
      <g id="Grupo_128937" data-name="Grupo 128937" transform="translate(241.824 13953.376)">
        <path id="Trazado_151846" data-name="Trazado 151846" d="M307.769,315.277a55.182,55.182,0,0,0,7.466-48.369c-3.311-10.176-9.663-19.631-10.476-30.243-1.625-21.217,18.853-38.37,23.1-59.266,1.867-9.183-.17-19.883-8.174-25.461-7.906-5.51-19.189-4.385-28.139-.526s-16.523,10.035-25.116,14.551-19.174,7.307-28.248,3.713c-9.192-3.641-14.406-12.817-17.326-21.76s-4.354-18.469-9.338-26.572c-8.215-13.354-25.73-20.635-42.052-18.751s-30.905,12.2-38.728,25.764-9.189,29.959-5.3,44.935c1.975,7.6,5.229,14.869,7,22.509s1.937,16-2.024,22.881c-8.283,14.389-30.136,16.4-41.579,28.735C79.4,257.6,79.1,273.145,84.463,285.67s15.433,22.686,25.477,32.354c46.846,1.476,94.531,1.574,141.376,3.05C269.522,321.647,289.584,316.281,307.769,315.277Z" transform="translate(-80.961 -94.243)" fill="#a4a4b4" opacity="0.354" style="mix-blend-mode: multiply;isolation: isolate"/>
        <path id="Trazado_151847" data-name="Trazado 151847" d="M359.209,158.067c-.054,8.157,5.423,15.256,4.469,23.3-.51,4.3-2.826,8.668-1.48,12.594,1.191,3.474,4.6,4.076,7.211,2.947,6.105-2.645,9.816-11.481,11.591-20.165,1.669-8.168,2.084-17.292-.59-24.907-2.154-6.135-7.124-11.551-12.171-11.05C363.616,141.246,359.25,151.922,359.209,158.067Z" transform="translate(-129.141 -87.13)" fill="#a4a4b4" opacity="0.31" style="mix-blend-mode: multiply;isolation: isolate"/>
        <path id="Trazado_151848" data-name="Trazado 151848" d="M112.511,133.659a46.752,46.752,0,0,0-.87,44.036c2.238,4.263,5.262,8.235,9.344,10.605s9.348,2.9,13.411.494c6.162-3.648,7.525-12.252,7.034-19.6s-2.094-15.044.631-21.841c1.777-4.43,5.188-7.885,8.214-11.513s5.851-7.863,6.007-12.66c.405-12.433-12.314-11.5-19.979-8.922A43.861,43.861,0,0,0,112.511,133.659Z" transform="translate(-84.987 -112.66)" fill="#a4a4b4" opacity="0.31" style="mix-blend-mode: multiply;isolation: isolate"/>
        <g id="Grupo_107069" data-name="Grupo 107069" transform="translate(5.616 4.229)" style="mix-blend-mode: multiply;isolation: isolate">
          <path id="Trazado_151849" data-name="Trazado 151849" d="M306.634,316.829l-1.005-.862c2.765-2.84,7.18-9.35,5.686-21.055a87.271,87.271,0,0,0-3.908-15.335c-.712-2.224-1.448-4.523-2.091-6.806a99.957,99.957,0,0,1,8.23-73.735c1.074-2,2.235-4,3.36-5.936,3.332-5.742,6.776-11.681,8.258-18.1,2.6-11.257-2.538-19.694-8.409-22.769-5.633-2.952-13.584-2.5-21.813,1.238-3.01,1.367-5.937,3.04-8.766,4.657a82.925,82.925,0,0,1-11.758,5.913c-16.334,6.157-36.756.924-47.5-12.17-5.165-6.293-8.081-13.9-10.9-21.254-1.092-2.85-2.223-5.8-3.465-8.618-3.865-8.768-10.938-19.774-22.688-22.406-10.325-2.314-20.782,2.772-27.735,7.446-13.3,8.943-22.679,21.055-26.4,34.1-2.511,8.8-2.612,18.376-2.71,27.638-.145,13.793-.3,28.055-8.586,39.541-3.771,5.225-8.958,9.394-13.974,13.427-4.7,3.776-9.556,7.681-13.177,12.413-8.205,10.724-10.217,25.906-5.518,41.655,4.222,14.15,12.828,26.7,21.151,38.847l-1.144.691c-8.377-12.221-17.04-24.858-21.317-39.193-4.811-16.125-2.725-31.706,5.723-42.746,3.717-4.858,8.638-8.813,13.4-12.639,4.948-3.977,10.064-8.09,13.732-13.172,8.06-11.167,8.2-24.607,8.351-38.836.1-9.342.2-19,2.758-27.957,3.806-13.333,13.369-25.7,26.926-34.811,7.183-4.829,18.017-10.076,28.842-7.649,12.309,2.758,19.644,14.117,23.629,23.161,1.255,2.848,2.391,5.81,3.488,8.674,2.784,7.262,5.663,14.772,10.7,20.906,10.388,12.659,30.129,17.717,45.919,11.765a82,82,0,0,0,11.557-5.818c2.857-1.634,5.811-3.322,8.88-4.717,8.633-3.922,17.041-4.362,23.068-1.2,6.3,3.3,11.821,12.265,9.076,24.157-1.523,6.595-5.015,12.615-8.394,18.437-1.119,1.928-2.276,3.922-3.339,5.9a98.729,98.729,0,0,0-8.129,72.832c.636,2.263,1.37,4.552,2.079,6.765a88.287,88.287,0,0,1,3.957,15.551C314.225,306.971,309.555,313.829,306.634,316.829Z" transform="translate(-87.906 -97.739)" fill="#a4a4b4"/>
        </g>
      </g>
    </g>
    <g id="Grupo_134156" data-name="Grupo 134156" transform="translate(252.584 20160.455)">
      <path id="Trazado_163738" data-name="Trazado 163738" d="M307.65,328.351l-77.6-30.494h98.144Z" transform="translate(-193.581 -243.387)" fill="url(#linear-gradient)"/>
      <rect id="Rectángulo_35034" data-name="Rectángulo 35034" width="43.111" height="53.834" transform="translate(134.416 81.766)" fill="#1d272b"/>
      <rect id="Rectángulo_35035" data-name="Rectángulo 35035" width="29.253" height="13.362" transform="translate(81.579 135.599)" fill="#1d272b"/>
      <rect id="Rectángulo_35036" data-name="Rectángulo 35036" width="43.112" height="53.834" transform="translate(153.488 81.766)" fill="#a4a4b4"/>
      <path id="Trazado_163739" data-name="Trazado 163739" d="M295.888,328.351l130.341-2.914,98.779-27.579H316.433Z" transform="translate(-205.336 -243.386)" fill="#868695"/>
      <g id="Grupo_127636" data-name="Grupo 127636" transform="translate(0 30.725)">
        <path id="Trazado_163740" data-name="Trazado 163740" d="M235.578,301.457l-36.469-11.874V277.71l36.469,11.873Z" transform="translate(-199.109 -277.71)" fill="#868695"/>
        <rect id="Rectángulo_35037" data-name="Rectángulo 35037" width="283.202" height="11.874" transform="translate(36.469 11.873)" fill="#1d272b"/>
        <path id="Trazado_163741" data-name="Trazado 163741" d="M518.781,289.583h-285.7l-33.97-11.873H495.837Z" transform="translate(-199.109 -277.71)" fill="url(#linear-gradient)"/>
      </g>
      <g id="Grupo_127650" data-name="Grupo 127650" transform="translate(15.683)">
        <path id="Trazado_163742" data-name="Trazado 163742" d="M384.159,283.186c-5.553.189-10.882-.067-16.219-.344q-7.988-.5-15.869-1.322c-5.269-.5-10.51-1.207-15.749-1.863-5.246-.694-10.443-1.473-15.71-2.317l2.448-.02-16.552,1.246c-5.527.331-11.044.745-16.58.989-5.529.3-11.069.515-16.611.708-5.547.143-11.094.3-16.66.249-2.756-.025-4.973-2.607-4.952-5.767a5.645,5.645,0,0,1,3.721-5.491c5.385-1.623,10.793-3.042,16.2-4.473,5.411-1.381,10.825-2.745,16.249-4.016,5.417-1.33,10.853-2.489,16.281-3.734l16.308-3.476a5.347,5.347,0,0,1,1.559-.1l.89.081,15.526,1.386,15.524,1.453L369.4,257.84c5.108.51,10.231.964,15.146,1.4l.1.009c5.757.507,10.065,6.27,9.624,12.872C393.859,278.273,389.416,282.984,384.159,283.186Z" transform="translate(-228.913 -251.323)" fill="#f8d1b9"/>
        <path id="Trazado_163743" data-name="Trazado 163743" d="M248.536,279.846c-2.095-2.5-3.505-2.706-5.8-4.52a23.4,23.4,0,0,1-6.07-7.731c-1.335-2.518-1.908-4.639-3.055-8.881-1.08-3.992-1.654-6.191-.89-6.868,1.1-.974,4.3,1.826,5.125,2.571a65.349,65.349,0,0,0,7.805,5.886c4.124,2.648,8.3,5.329,14.114,6.375a28.24,28.24,0,0,0,9.861,0q.8,6.863,1.592,13.727a66,66,0,0,0-11.609,2.27c-3.479,1.016-6.311,2.166-8.575.48C249.944,282.346,250.1,281.708,248.536,279.846Z" transform="translate(-232.367 -251.643)" fill="#f8d1b9"/>
        <path id="Trazado_163744" data-name="Trazado 163744" d="M389.324,287.028c-4.566.208-9.127.208-13.69.222-4.563-.038-9.124-.093-13.684-.242-4.56-.088-9.118-.348-13.677-.522-4.558-.213-9.116-.491-13.672-.783l1.535-.091-16.552,1.246c-5.527.33-11.044.744-16.58.989-5.53.3-11.07.514-16.611.708-5.547.143-11.093.3-16.662.248-2.756-.024-4.972-2.606-4.95-5.766a5.643,5.643,0,0,1,3.721-5.49c5.385-1.624,10.793-3.043,16.2-4.474,5.412-1.381,10.826-2.744,16.25-4.015,5.417-1.329,10.853-2.492,16.281-3.734l16.308-3.477a3.54,3.54,0,0,1,.652-.078l.883-.013c4.557-.071,9.113-.129,13.669-.12,4.553.045,9.11.007,13.662.138,4.554.073,9.106.238,13.658.421,4.551.236,9.1.455,13.65.884l.054.006c5.757.543,10.04,6.336,9.566,12.941C398.893,282.134,394.533,286.8,389.324,287.028Z" transform="translate(-226.577 -249.857)" fill="#f8d1b9"/>
        <path id="Trazado_163745" data-name="Trazado 163745" d="M442.418,262.822c-1.208-.916-36.792-8.11-47.061-8.095-10.184.015-9.723-.486-72.441,8.22,7.139-.991-1.03,23.957-1.03,23.957,8.76,1.028,15.878,2.268,20.828,3.227,13.953,2.7,20.869,5.15,29.97,2.03,3.611-1.239,14.77,4.244,27.926,5.484a54.958,54.958,0,0,0,12.82-.481c6.288-.814,11.3-1.465,16.64-4.506,2.951-1.681,8.736-5.649,13.647-14.483q-.41-4.719-.807-9.46Q442.661,265.765,442.418,262.822Z" transform="translate(-216.375 -251.092)" fill="#f8d1b9"/>
        <path id="Trazado_163746" data-name="Trazado 163746" d="M445.451,282.476c-.6-1.082-1.165-2.257-1.709-3.479-2.243-5.008-4.178-10.923-6.622-15.373a22.251,22.251,0,0,1-5.206.74c-.226.01-.45.009-.674.008-1.559-.022-3.485-1.535-6.375-2.713-3.165-1.293-5.378.6-4.552,3.147.994,3.052,2.409,5,3.258,8.129.72,2.652.672,9.655-.428,14.233a28.488,28.488,0,0,1,3.515-3.761c3.235-3.065,7.7-2.713,9.58-2.489C439.336,281.29,440.641,281.019,445.451,282.476Z" transform="translate(-198.821 -249.928)" fill="#f8d1b9"/>
        <path id="Trazado_163747" data-name="Trazado 163747" d="M441.957,278.635c-2.243-5.008-4.178-10.922-6.622-15.373a22.247,22.247,0,0,1-5.206.74,19.228,19.228,0,0,0,5.646,11.256A15.283,15.283,0,0,0,441.957,278.635Z" transform="translate(-197.036 -249.567)" fill="#f8d1b9"/>
        <g id="Grupo_127644" data-name="Grupo 127644" transform="translate(236.35 8.479)">
          <path id="Trazado_163748" data-name="Trazado 163748" d="M450.984,261.95c-5.378-4.356-14.316-4.29-17.168,1.139-2.782,5.293,1.108,13.991,6.544,17.607,4.849,3.226,12.78,3.644,15.75-1.59C459.071,273.887,455.6,265.691,450.984,261.95Z" transform="translate(-432.893 -258.836)" fill="#f8d1b9"/>
          <g id="Grupo_127643" data-name="Grupo 127643" transform="translate(3.733 0.337)">
            <g id="Grupo_127637" data-name="Grupo 127637" transform="translate(6.177 6.505)">
              <path id="Trazado_163749" data-name="Trazado 163749" d="M441.557,267.7a.25.25,0,0,1-.213-.131.323.323,0,0,1,.071-.409,3.313,3.313,0,0,0,1.025-1.332,3.75,3.75,0,0,0,.253-.935.263.263,0,0,1,.293-.245.291.291,0,0,1,.215.337,4.3,4.3,0,0,1-.3,1.1,3.869,3.869,0,0,1-1.2,1.566A.228.228,0,0,1,441.557,267.7Z" transform="translate(-441.3 -264.64)" fill="#64546f"/>
            </g>
            <g id="Grupo_127638" data-name="Grupo 127638" transform="translate(9.038 0.001)">
              <path id="Trazado_163750" data-name="Trazado 163750" d="M443.985,262.488a.241.241,0,0,1-.174-.078.327.327,0,0,1-.015-.416,3.631,3.631,0,0,0,.719-1.574,3.812,3.812,0,0,0,.054-.978.285.285,0,0,1,.235-.318.267.267,0,0,1,.277.27,4.511,4.511,0,0,1-.064,1.15,4.257,4.257,0,0,1-.842,1.848A.249.249,0,0,1,443.985,262.488Z" transform="translate(-443.728 -259.123)" fill="#64546f"/>
            </g>
            <g id="Grupo_127639" data-name="Grupo 127639" transform="translate(2.754 1.364)">
              <path id="Trazado_163751" data-name="Trazado 163751" d="M442.795,262.939h-.021a3.356,3.356,0,0,1-1.591-.553,12.351,12.351,0,0,1-1.269-1.051l-.118-.111c-.273-.258-.4-.355-.515-.355-.131.018-.275.17-.4.43a.239.239,0,0,1-.35.108.316.316,0,0,1-.1-.4c.272-.548.581-.7.792-.723.334-.039.573.178.9.483l.117.108a12.439,12.439,0,0,0,1.206,1,2.915,2.915,0,0,0,1.373.471.285.285,0,0,1,.235.318A.273.273,0,0,1,442.795,262.939Z" transform="translate(-438.396 -260.279)" fill="#64546f"/>
            </g>
            <g id="Grupo_127640" data-name="Grupo 127640" transform="translate(0 1.58)">
              <path id="Trazado_163752" data-name="Trazado 163752" d="M436.581,264.99a.259.259,0,0,1-.237-.183,4.775,4.775,0,0,1-.268-2.023,4.539,4.539,0,0,1,.787-2.212.236.236,0,0,1,.362-.046.324.324,0,0,1,.04.414,3.9,3.9,0,0,0-.678,1.9,4.124,4.124,0,0,0,.23,1.741.31.31,0,0,1-.138.384A.217.217,0,0,1,436.581,264.99Z" transform="translate(-436.06 -260.462)" fill="#64546f"/>
            </g>
            <g id="Grupo_127641" data-name="Grupo 127641" transform="translate(6.596)">
              <path id="Trazado_163753" data-name="Trazado 163753" d="M441.912,261.291a.224.224,0,0,1-.125-.038.32.32,0,0,1-.1-.4l.771-1.578a.238.238,0,0,1,.35-.113.32.32,0,0,1,.1.4l-.771,1.578A.253.253,0,0,1,441.912,261.291Z" transform="translate(-441.656 -259.122)" fill="#64546f"/>
            </g>
            <g id="Grupo_127642" data-name="Grupo 127642" transform="translate(4.138 5.287)">
              <path id="Trazado_163754" data-name="Trazado 163754" d="M439.828,265.712a.231.231,0,0,1-.16-.066.323.323,0,0,1-.04-.414l1.063-1.515a.234.234,0,0,1,.361-.045.323.323,0,0,1,.039.414l-1.063,1.515A.243.243,0,0,1,439.828,265.712Z" transform="translate(-439.571 -263.607)" fill="#64546f"/>
            </g>
          </g>
          <path id="Trazado_163755" data-name="Trazado 163755" d="M450.656,262.239c-1.569-.094-2.014,4.024-1.873,6.414a10.026,10.026,0,0,1,.008,1.047,4.05,4.05,0,0,1-4.063,4.115c-1.663-.112-3.377-.132-3.339.479.086,1.452,2.714,1.648,2.837,3.424a3.09,3.09,0,0,1-.389,2c-.635.891-1.622.319-3.312,1.113-.879.41-1.875,1.146-1.782,1.585.067.321.658.246,1.5.632a6.278,6.278,0,0,1,1.908,1.605c1.272,1.209,2.9,1.235,4.963,1.267a11.794,11.794,0,0,0,4.245-.765,12.929,12.929,0,0,0,1.444-.692c2.035-1.166,4.592-4.118,4.855-11.1C457.819,268.993,453.54,262.414,450.656,262.239Z" transform="translate(-431.849 -258.228)" fill="#12263f"/>
          <path id="Trazado_163756" data-name="Trazado 163756" d="M441.929,272.76c-1.243-1.432-2.923-1.827-3.748-.882s-.488,2.87.757,4.3,2.922,1.827,3.748.882S443.173,274.192,441.929,272.76Z" transform="translate(-432.029 -256.598)" fill="#f8d1b9"/>
        </g>
        <path id="Trazado_163757" data-name="Trazado 163757" d="M261.612,288.127c-2.1-2.5-3.507-2.706-5.8-4.52a23.405,23.405,0,0,1-6.07-7.733c-1.335-2.516-1.908-4.637-3.056-8.881-1.078-3.992-1.652-6.19-.889-6.867,1.1-.974,4.3,1.827,5.124,2.569a65.5,65.5,0,0,0,7.806,5.889c4.124,2.648,8.3,5.327,14.114,6.374a28.264,28.264,0,0,0,9.861,0q.8,6.863,1.592,13.726a66.254,66.254,0,0,0-11.61,2.269c-3.479,1.016-6.309,2.169-8.574.481C263.02,290.627,263.173,289.989,261.612,288.127Z" transform="translate(-230.031 -250.163)" fill="#f8d1b9"/>
        <path id="Trazado_163758" data-name="Trazado 163758" d="M345.416,256.715c1.961.05,17.166-2.182,20.942-1.3,4.429,1.029,9.822,5.5,20.789,5.5,8.384,0,10.035.463,22.733-4.3-1.031,3.076-1.56,10.125-2.42,16.06a81.487,81.487,0,0,0-.8,13.74c.181,9.958.125,27.185,0,50.146l-63.685,2.062c.6-16.944,1.59-25.633,2.189-42.578,1.077-3.2,1.858-15.987,2.2-21.536A52.451,52.451,0,0,0,345.416,256.715Z" transform="translate(-212.607 -251.006)" fill="url(#radial-gradient)"/>
        <g id="Grupo_127645" data-name="Grupo 127645" transform="translate(95.413 54.47)">
          <path id="Trazado_163759" data-name="Trazado 163759" d="M328.582,307.8l-15.263-4.97v-4.969l15.263,4.969Z" transform="translate(-313.319 -297.856)" fill="url(#linear-gradient)"/>
          <rect id="Rectángulo_35038" data-name="Rectángulo 35038" width="128.368" height="4.97" transform="translate(15.263 4.969)" fill="#1d272b"/>
          <path id="Trazado_163760" data-name="Trazado 163760" d="M456.949,302.826H328.582l-15.263-4.969H446.641Z" transform="translate(-313.319 -297.856)" fill="#1d272b"/>
        </g>
        <g id="Grupo_127649" data-name="Grupo 127649" transform="translate(113.842 16.489)">
          <path id="Trazado_163761" data-name="Trazado 163761" d="M433.338,292.143l-32.276,8.182-1.41.395-22.523,1.825q-11.266.882-22.549,1.635c-2.5.167-4.653-2.025-4.8-4.9a5.174,5.174,0,0,1,3.424-5.356q10.96-3.17,21.932-6.22l21.96-6.029-1.41.395c5.1-2.652,10.162-5.3,15.281-7.879l7.7-3.831,7.81-3.709c5.958-2.83,12.791.416,15.259,7.25s-.363,14.671-6.321,17.5a10.747,10.747,0,0,1-1.885.689Z" transform="translate(-325.234 -265.633)" fill="#f8d1b9"/>
          <path id="Trazado_163762" data-name="Trazado 163762" d="M363.476,288.871c.117.871.839,6.853-2.574,10.7-3.281,3.7-8.432,3.225-8.789,3.186-2.287-.246-3.535-1.249-6.189-.772-1.516.272-2.111.984-3.644,1.469a24.518,24.518,0,0,1-12.118.545,1.7,1.7,0,0,1-.476-3.024,33.038,33.038,0,0,0,6.913-5.633,15.051,15.051,0,0,1,5.632-4.416c.451-.179,1.36-.547,5.441-.9,4.612-.4,6.573-.215,10.59-.539C360.5,289.3,362.323,289.05,363.476,288.871Z" transform="translate(-328.954 -261.481)" fill="#f8d1b9"/>
          <g id="Grupo_127646" data-name="Grupo 127646" transform="translate(2.494 34.394)">
            <path id="Trazado_163763" data-name="Trazado 163763" d="M331.24,301.972a.17.17,0,0,1-.154-.113.208.208,0,0,1,.084-.259,23.217,23.217,0,0,0,3.886-2.585,25.3,25.3,0,0,0,4-4.136.155.155,0,0,1,.239-.018.216.216,0,0,1,.015.276,25.7,25.7,0,0,1-4.058,4.195,23.52,23.52,0,0,1-3.939,2.622A.158.158,0,0,1,331.24,301.972Z" transform="translate(-331.07 -294.813)" fill="#e59ca9"/>
          </g>
          <g id="Grupo_127647" data-name="Grupo 127647" transform="translate(6.262 34.845)">
            <path id="Trazado_163764" data-name="Trazado 163764" d="M334.436,302.355a.172.172,0,0,1-.154-.113.21.21,0,0,1,.084-.259,23.357,23.357,0,0,0,3.886-2.585,25.309,25.309,0,0,0,4-4.136.155.155,0,0,1,.239-.018.215.215,0,0,1,.015.276,25.747,25.747,0,0,1-4.057,4.195,23.757,23.757,0,0,1-3.94,2.622A.157.157,0,0,1,334.436,302.355Z" transform="translate(-334.266 -295.196)" fill="#e59ca9"/>
          </g>
          <g id="Grupo_127648" data-name="Grupo 127648" transform="translate(11.742 36.521)">
            <path id="Trazado_163765" data-name="Trazado 163765" d="M339.085,302.085a.167.167,0,0,1-.143-.091.211.211,0,0,1,.053-.269,24.686,24.686,0,0,0,3.563-3.14c.566-.6,1.109-1.245,1.615-1.9a.156.156,0,0,1,.24-.018.219.219,0,0,1,.015.276c-.514.666-1.064,1.315-1.64,1.928a24.958,24.958,0,0,1-3.614,3.184A.148.148,0,0,1,339.085,302.085Z" transform="translate(-338.915 -296.618)" fill="#e59ca9"/>
          </g>
        </g>
      </g>
      <rect id="Rectángulo_35039" data-name="Rectángulo 35039" width="128.81" height="13.362" transform="translate(110.832 135.599)" fill="#a4a4b4"/>
    </g>
    <g id="Grupo_134157" data-name="Grupo 134157" transform="translate(254.481 20106.424)">
      <g id="Grupo_128932" data-name="Grupo 128932" transform="translate(0 0)">
        <path id="Rectángulo_35713" data-name="Rectángulo 35713" d="M4.333,0H16.326a4.333,4.333,0,0,1,4.333,4.333V39.894a0,0,0,0,1,0,0H0a0,0,0,0,1,0,0V4.333A4.333,4.333,0,0,1,4.333,0Z" transform="translate(12.718 160.693)" fill="#db8804"/>
        <path id="Trazado_165975" data-name="Trazado 165975" d="M223.625,298.865h0a10.818,10.818,0,0,1-10.817-10.817V272.216a8.567,8.567,0,0,0-8.567-8.567h-6.571a7.166,7.166,0,0,0-7.167,7.167v32.827a4.576,4.576,0,0,0,4.576,4.576H223.91a4.689,4.689,0,0,0,4.609-5.476A4.882,4.882,0,0,0,223.625,298.865Z" transform="translate(-150.07 -102.956)" fill="#db8804"/>
        <path id="Trazado_165976" data-name="Trazado 165976" d="M171.958,237.494a23.863,23.863,0,0,0,6.507,18.543c-8.9,21.236-9.567,47.459,1.126,66.583,3.763,6.729,13.626,6.5,16.77-.54a64.286,64.286,0,0,0,5.04-32.7,28.95,28.95,0,0,0,5.368,13.989,23.806,23.806,0,0,0-1.659,16.9c2.651,9.74,16.249,10.228,19.8.78,8.084-21.481,3.657-48.185-9.685-68.266a22,22,0,0,0,3.213-19.4,49.994,49.994,0,0,0-7.565-30.62,20.317,20.317,0,0,0-1.1-18.666,16.967,16.967,0,0,0-1.615-18.53c-4.713-5.978-14.3-4.421-17.158,2.637a22.042,22.042,0,0,0-1.6,8.938,26.744,26.744,0,0,0-10.735,18.178h0a11.841,11.841,0,0,0-12.142,10.283l-1.118,8.482C163.725,226.843,169.593,234,171.958,237.494Z" transform="translate(-164.77 -161.875)" fill="url(#linear-gradient)"/>
        <path id="Trazado_165977" data-name="Trazado 165977" d="M200.561,177.7a14.962,14.962,0,0,1-5.788,10.782,7.172,7.172,0,0,1-11.3-3.535,13.826,13.826,0,0,1,1.92-12.087l13.053,3.5Z" transform="translate(-154.498 -155.515)" fill="#868695"/>
        <path id="Trazado_165978" data-name="Trazado 165978" d="M175.722,208.817a.3.3,0,0,1-.129-.028.319.319,0,0,1-.163-.422,25.058,25.058,0,0,0-1.042-22.485.317.317,0,1,1,.553-.313,25.7,25.7,0,0,1,1.072,23.06A.317.317,0,0,1,175.722,208.817Z" transform="translate(-159.424 -148.251)" fill="#241414"/>
        <path id="Trazado_165979" data-name="Trazado 165979" d="M192.006,191.422a24.589,24.589,0,0,1-14.908-5.03.318.318,0,0,1-.062-.447.324.324,0,0,1,.445-.062,23.956,23.956,0,0,0,16.538,4.817l.027,0a.319.319,0,0,1,.028.636Q193.037,191.422,192.006,191.422Z" transform="translate(-157.904 -148.012)" fill="#241414"/>
        <path id="Trazado_165980" data-name="Trazado 165980" d="M180.56,218.13a17.4,17.4,0,0,1-6.769-1.378.321.321,0,0,1-.169-.418.325.325,0,0,1,.418-.169,16.615,16.615,0,0,0,16.138-1.745,6.38,6.38,0,0,0,2.75-5.893,6.556,6.556,0,0,0-3.982-5.367,15.966,15.966,0,0,0-5.55-1.336c-.313-.019-.627-.027-.941-.027a15.979,15.979,0,0,0-11.883,5.277.316.316,0,0,1-.45.022.319.319,0,0,1-.022-.45,16.7,16.7,0,0,1,19.1-4.069,7.2,7.2,0,0,1,4.358,5.886,7.013,7.013,0,0,1-3.016,6.475A17.3,17.3,0,0,1,180.56,218.13Z" transform="translate(-161.928 -139.13)" fill="#241414"/>
        <path id="Trazado_165981" data-name="Trazado 165981" d="M175.977,221.32a.319.319,0,0,1-.017-.638l29.463-1.587a.339.339,0,0,1,.336.3.32.32,0,0,1-.3.336l-29.464,1.587Z" transform="translate(-158.664 -128.749)" fill="#1d272b"/>
        <path id="Trazado_165982" data-name="Trazado 165982" d="M176.131,223.6a.319.319,0,0,1-.017-.638l29.464-1.585a.34.34,0,0,1,.336.3.323.323,0,0,1-.3.336L176.148,223.6Z" transform="translate(-158.574 -127.429)" fill="#1d272b"/>
        <path id="Trazado_165983" data-name="Trazado 165983" d="M189.086,248.613A.375.375,0,0,1,189,248.6a.319.319,0,0,1-.226-.388,35.776,35.776,0,0,0-1.53-22.651.317.317,0,1,1,.586-.245,36.394,36.394,0,0,1,1.562,23.057A.319.319,0,0,1,189.086,248.613Z" transform="translate(-151.968 -125.259)" fill="#1d272b"/>
        <path id="Trazado_165984" data-name="Trazado 165984" d="M191.559,248.613a.374.374,0,0,1-.082-.009.319.319,0,0,1-.226-.388,35.8,35.8,0,0,0-1.53-22.651.318.318,0,1,1,.587-.245,36.449,36.449,0,0,1,1.56,23.057A.319.319,0,0,1,191.559,248.613Z" transform="translate(-150.537 -125.259)" fill="#1d272b"/>
        <path id="Trazado_165985" data-name="Trazado 165985" d="M219.141,185.925H194l-9.1,37.2h25.14Z" transform="translate(-153.313 -147.951)" fill="#241414"/>
        <path id="Trazado_165986" data-name="Trazado 165986" d="M187.49,223.17a.315.315,0,0,1-.183-.058.321.321,0,0,1-.079-.444,19.52,19.52,0,0,0,3.482-12.123.321.321,0,0,1,.3-.335h.017a.319.319,0,0,1,.317.3,20.151,20.151,0,0,1-3.6,12.521A.318.318,0,0,1,187.49,223.17Z" transform="translate(-151.999 -133.892)" fill="#1d272b"/>
        <path id="Trazado_165987" data-name="Trazado 165987" d="M190.078,223.17a.307.307,0,0,1-.182-.058.319.319,0,0,1-.081-.444,19.52,19.52,0,0,0,3.482-12.123.323.323,0,0,1,.3-.335h.017a.321.321,0,0,1,.319.3,20.152,20.152,0,0,1-3.6,12.521A.318.318,0,0,1,190.078,223.17Z" transform="translate(-150.5 -133.892)" fill="#1d272b"/>
        <path id="Trazado_165988" data-name="Trazado 165988" d="M204.546,175.978l-.535,2.319a104.866,104.866,0,0,1-17.354-4.077c-2.294-.739-4.561-1.555-6.83-2.473l.256-2.4c2.318.943,4.688,1.784,7.058,2.548A109.874,109.874,0,0,0,204.546,175.978Z" transform="translate(-156.251 -157.545)" fill="#1d272b"/>
        <path id="Trazado_165989" data-name="Trazado 165989" d="M193.288,177.729a.31.31,0,0,1-.076-.008.317.317,0,0,1-.234-.385,15.994,15.994,0,0,0-3.313-13.994.319.319,0,0,1,.038-.448.324.324,0,0,1,.45.038,16.629,16.629,0,0,1,3.442,14.554A.317.317,0,0,1,193.288,177.729Z" transform="translate(-150.597 -161.327)" fill="#1d272b"/>
        <path id="Trazado_165990" data-name="Trazado 165990" d="M191.484,177.267a.409.409,0,0,1-.074-.008.317.317,0,0,1-.234-.385,15.98,15.98,0,0,0-3.313-13.994.32.32,0,0,1,.038-.45.326.326,0,0,1,.45.039,16.618,16.618,0,0,1,3.442,14.553A.317.317,0,0,1,191.484,177.267Z" transform="translate(-151.641 -161.595)" fill="#1d272b"/>
        <path id="Trazado_165991" data-name="Trazado 165991" d="M202.047,175.044l-.535,2.319c-.84,3.619-6.167,6.066-6.65.281-4.639,5.836-11.086,1.5-10.7-4.358a8.582,8.582,0,0,1,.483-2.319A109.873,109.873,0,0,0,202.047,175.044Z" transform="translate(-153.752 -156.611)" fill="#1d272b"/>
        <path id="Trazado_165992" data-name="Trazado 165992" d="M187.49,186.607a.311.311,0,0,1-.275-.158.317.317,0,0,1,.112-.436,10.175,10.175,0,0,0,5.01-8.635.318.318,0,0,1,.319-.316h0a.317.317,0,0,1,.316.322,10.813,10.813,0,0,1-5.323,9.178A.322.322,0,0,1,187.49,186.607Z" transform="translate(-151.999 -153.082)" fill="#1d272b"/>
        <path id="Trazado_165993" data-name="Trazado 165993" d="M191.011,199.072c-.562,2.3-9.594,4.2-9.717,10.178s13.162,3.172,13.162,3.172,2.627-.722.827-2.552a1.37,1.37,0,0,0,1.478-1.355c0-1.129-1.783-.873-1.783-.873,2.16-.414,2.275-2.067,1.333-2.318s-5.921,1.1-6.829,0,5.82-.48,6.025-2.272-5.266-.834-5.266-.834Z" transform="translate(-155.401 -140.34)" fill="#db8804"/>
        <path id="Trazado_165994" data-name="Trazado 165994" d="M184.868,202.9a.312.312,0,0,1-.248-.12.316.316,0,0,1,.052-.448,6.389,6.389,0,0,1,2.713-1.255.328.328,0,0,1,.376.249.322.322,0,0,1-.251.374,5.783,5.783,0,0,0-2.444,1.132A.319.319,0,0,1,184.868,202.9Z" transform="translate(-153.516 -139.183)" fill="#1d272b"/>
        <path id="Trazado_165995" data-name="Trazado 165995" d="M187.633,205.48a19.366,19.366,0,0,1-2.452-.155.318.318,0,1,1,.081-.632,18.874,18.874,0,0,0,6.527-.316.326.326,0,0,1,.381.242.32.32,0,0,1-.242.38A19.441,19.441,0,0,1,187.633,205.48Z" transform="translate(-153.312 -137.272)" fill="#1d272b"/>
        <path id="Trazado_165996" data-name="Trazado 165996" d="M187.488,206.974a20.444,20.444,0,0,1-2.215-.12.318.318,0,0,1-.281-.352.294.294,0,0,1,.35-.283,19.648,19.648,0,0,0,6.756-.43.323.323,0,0,1,.384.235.316.316,0,0,1-.234.385A20.373,20.373,0,0,1,187.488,206.974Z" transform="translate(-153.262 -136.456)" fill="#1d272b"/>
        <path id="Trazado_165997" data-name="Trazado 165997" d="M192.5,295.307H175.824a4.691,4.691,0,0,1-4.677-4.677h0a4.691,4.691,0,0,1,4.677-4.677H192.5a4.689,4.689,0,0,1,4.675,4.677h0A4.689,4.689,0,0,1,192.5,295.307Z" transform="translate(-161.275 -90.044)" fill="#db8804"/>
        <path id="Trazado_165998" data-name="Trazado 165998" d="M178.165,292.808a.318.318,0,0,1-.317-.319V268.658a.318.318,0,0,1,.636,0v23.831A.319.319,0,0,1,178.165,292.808Z" transform="translate(-157.396 -100.239)" fill="#1d272b"/>
        <path id="Trazado_165999" data-name="Trazado 165999" d="M180.9,292.808a.318.318,0,0,1-.317-.319V268.658a.318.318,0,0,1,.636,0v23.831A.319.319,0,0,1,180.9,292.808Z" transform="translate(-155.816 -100.239)" fill="#1d272b"/>
        <path id="Trazado_166000" data-name="Trazado 166000" d="M178.165,293.869a.318.318,0,0,1-.317-.319v-6.14a.318.318,0,1,1,.636,0v6.14A.319.319,0,0,1,178.165,293.869Z" transform="translate(-157.396 -89.385)" fill="#1d272b"/>
        <path id="Trazado_166001" data-name="Trazado 166001" d="M180.9,293.869a.318.318,0,0,1-.317-.319v-6.14a.318.318,0,1,1,.636,0v6.14A.319.319,0,0,1,180.9,293.869Z" transform="translate(-155.816 -89.385)" fill="#1d272b"/>
        <path id="Trazado_166002" data-name="Trazado 166002" d="M217.337,300.821a14.428,14.428,0,0,1-14.428-14.43V270.56a4.918,4.918,0,0,0-1.454-3.5.325.325,0,0,1,0-.452.321.321,0,0,1,.453,0,5.563,5.563,0,0,1,1.637,3.955v15.832a13.792,13.792,0,0,0,13.792,13.792.319.319,0,1,1,0,.638Z" transform="translate(-143.783 -101.299)" fill="#1d272b"/>
        <path id="Trazado_166003" data-name="Trazado 166003" d="M181.932,268.077a10.521,10.521,0,0,1-6.379-2.318.318.318,0,0,1,.384-.508,9.254,9.254,0,0,0,11.975-.036.325.325,0,0,1,.448.054.319.319,0,0,1-.055.448A10.3,10.3,0,0,1,181.932,268.077Z" transform="translate(-158.798 -102.088)" fill="#241414"/>
        <path id="Trazado_166004" data-name="Trazado 166004" d="M199.337,268.677a11.9,11.9,0,0,1-6.881-2.458.318.318,0,0,1,.368-.519c4.743,3.357,9.41,3.076,13.882-.834a.318.318,0,0,1,.418.48A11.829,11.829,0,0,1,199.337,268.677Z" transform="translate(-149.017 -102.298)" fill="#241414"/>
        <path id="Trazado_166005" data-name="Trazado 166005" d="M191.972,252.55a.319.319,0,0,1-.291-.445l1.38-3.172a.318.318,0,1,1,.583.254l-1.045,2.4,1.678-.783a.319.319,0,0,1,.268.578l-2.439,1.138A.308.308,0,0,1,191.972,252.55Z" transform="translate(-149.404 -111.587)" fill="#241414"/>
        <path id="Trazado_166006" data-name="Trazado 166006" d="M190.87,267.936a.325.325,0,0,1-.309-.235,24.029,24.029,0,0,1,.625-14.665.32.32,0,0,1,.409-.189.316.316,0,0,1,.188.409,23.393,23.393,0,0,0-.6,14.278.319.319,0,0,1-.224.392A.4.4,0,0,1,190.87,267.936Z" transform="translate(-150.532 -109.221)" fill="#241414"/>
        <path id="Trazado_166007" data-name="Trazado 166007" d="M175.369,283.051a.319.319,0,0,1-.289-.185c-7.661-16.58-8.026-38.424-.977-58.431a.32.32,0,0,1,.6.212c-7,19.855-6.641,41.519.952,57.953a.314.314,0,0,1-.153.422A.326.326,0,0,1,175.369,283.051Z" transform="translate(-162.481 -125.779)" fill="#241414"/>
        <path id="Trazado_166008" data-name="Trazado 166008" d="M208.115,278.761l-.66-.155c4.211-17.692.881-38.573-8.905-55.857l.586-.333C209.006,239.846,212.362,260.91,208.115,278.761Z" transform="translate(-145.411 -126.826)" fill="#1d272b"/>
        <path id="Trazado_166009" data-name="Trazado 166009" d="M185.324,272.02l-.617-.275a62.249,62.249,0,0,0,5.3-23.161l.676.024A62.92,62.92,0,0,1,185.324,272.02Z" transform="translate(-153.425 -111.677)" fill="#fff"/>
        <path id="Trazado_166010" data-name="Trazado 166010" d="M171.8,231.508c-.18-.264-.377-.546-.591-.853-2.653-3.8-7.585-10.868-6.016-22.787l1.118-8.48A12.137,12.137,0,0,1,178.377,188.8h.118a27.12,27.12,0,0,1,8.578-16.261l.453.5a26.431,26.431,0,0,0-8.4,16.151l-.039.3-.306-.011c-.134,0-.27-.006-.4-.006a11.461,11.461,0,0,0-11.392,10l-1.119,8.48c-1.535,11.659,3.3,18.589,5.9,22.312.216.308.417.6.6.86Z" transform="translate(-164.895 -155.699)" fill="#1d272b"/>
      </g>
      <g id="Grupo_128933" data-name="Grupo 128933" transform="translate(53.912 5.306)">
        <path id="Trazado_166011" data-name="Trazado 166011" d="M234.623,207.708a35.287,35.287,0,0,1-17.428-15.2,8.54,8.54,0,0,1,.248-9.1,47.524,47.524,0,0,1,17.18-15.107L245.3,201.423Z" transform="translate(-208.998 -163.46)" fill="#fff"/>
        <path id="Trazado_166012" data-name="Trazado 166012" d="M232.589,298.865h0a10.817,10.817,0,0,0,10.817-10.817V272.216a8.567,8.567,0,0,1,8.567-8.567h6.573a7.167,7.167,0,0,1,7.167,7.167v32.827a4.577,4.577,0,0,1-4.576,4.576H232.305a4.689,4.689,0,0,1-4.61-5.476A4.882,4.882,0,0,1,232.589,298.865Z" transform="translate(-202.269 -108.262)" fill="#db8804"/>
        <path id="Trazado_166013" data-name="Trazado 166013" d="M256.826,190.824q1.3.606,2.544,1.312c11.675,6.635,14.959,21.808,7.9,33.228a37.277,37.277,0,0,0-5.4,23.287,26.557,26.557,0,0,1,3.579,30.743,49.731,49.731,0,0,1,5.008,34.007c-2.394,11.43-16.9,14.878-24.506,6.019a73.317,73.317,0,0,1-14.987-67.475,44.415,44.415,0,0,1,1.273-49.161,33.041,33.041,0,0,1-9.518-28.7,10.064,10.064,0,0,1,18.072-4.293,31.963,31.963,0,0,1,4.325,8.343A16.584,16.584,0,0,1,256.826,190.824Z" transform="translate(-205.339 -165)" fill="url(#linear-gradient)"/>
        <path id="Trazado_166014" data-name="Trazado 166014" d="M230.515,178.062a8.649,8.649,0,0,1,2.684,14.926l-6.954-1.383-3.92-7.831,1.521-4.734Z" transform="translate(-205.339 -157.809)" fill="#868695"/>
        <path id="Trazado_166015" data-name="Trazado 166015" d="M231.08,221.152a.318.318,0,0,1-.036-.635l21.593-2.5a.329.329,0,0,1,.354.279.317.317,0,0,1-.278.352l-21.595,2.5Z" transform="translate(-200.455 -134.68)" fill="#1d272b"/>
        <path id="Trazado_166016" data-name="Trazado 166016" d="M231.08,223.722a.318.318,0,0,1-.036-.635l21.593-2.5a.324.324,0,0,1,.354.279.316.316,0,0,1-.278.352l-21.595,2.5Z" transform="translate(-200.455 -133.193)" fill="#1d272b"/>
        <path id="Trazado_166017" data-name="Trazado 166017" d="M240.26,274.071a.321.321,0,0,1-.264-.137,66.093,66.093,0,0,1-10.664-48.545.318.318,0,1,1,.627.106,65.457,65.457,0,0,0,10.565,48.078.318.318,0,0,1-.084.444A.313.313,0,0,1,240.26,274.071Z" transform="translate(-201.826 -130.565)" fill="#1d272b"/>
        <path id="Trazado_166018" data-name="Trazado 166018" d="M233.013,187.661a.323.323,0,0,1-.193-.063.317.317,0,0,1-.062-.445,14.911,14.911,0,0,1,14.711-5.66.319.319,0,1,1-.125.625,14.277,14.277,0,0,0-14.079,5.416A.313.313,0,0,1,233.013,187.661Z" transform="translate(-199.336 -155.981)" fill="#241414"/>
        <path id="Trazado_166019" data-name="Trazado 166019" d="M226.946,203.8a.4.4,0,0,1-.095-.014.316.316,0,0,1-.208-.4,42.645,42.645,0,0,1,8.63-15.555.32.32,0,0,1,.483.418,42.036,42.036,0,0,0-8.507,15.323A.317.317,0,0,1,226.946,203.8Z" transform="translate(-202.848 -152.215)" fill="#1d272b"/>
        <path id="Trazado_166020" data-name="Trazado 166020" d="M231.111,224.42a.316.316,0,0,1-.276-.161,42.8,42.8,0,0,1-4.967-13.675.317.317,0,0,1,.256-.368.307.307,0,0,1,.371.257,42.134,42.134,0,0,0,4.893,13.47.317.317,0,0,1-.12.434A.306.306,0,0,1,231.111,224.42Z" transform="translate(-203.291 -139.199)" fill="#1d272b"/>
        <path id="Trazado_166021" data-name="Trazado 166021" d="M230.887,300.821a.319.319,0,1,1,0-.638,13.8,13.8,0,0,0,13.792-13.792V270.56a5.557,5.557,0,0,1,1.637-3.955.321.321,0,0,1,.453,0,.325.325,0,0,1,0,.452,4.912,4.912,0,0,0-1.454,3.5v15.832a14.434,14.434,0,0,1-14.428,14.43Z" transform="translate(-200.567 -106.605)" fill="#1d272b"/>
        <path id="Trazado_166022" data-name="Trazado 166022" d="M230.276,166.116c6.088-2.946,12.341,2.01,10.452,7.306a2.191,2.191,0,0,1-3.44.976,3.4,3.4,0,0,1-1.1-4.369A10.082,10.082,0,0,0,230.276,166.116Z" transform="translate(-200.736 -165.235)" fill="#fff"/>
        <path id="Trazado_166023" data-name="Trazado 166023" d="M224.32,179.3a.317.317,0,0,1-.3-.223,11.885,11.885,0,0,1,2.632-11.638.319.319,0,0,1,.469.433,11.252,11.252,0,0,0-2.495,11.015.317.317,0,0,1-.3.414Z" transform="translate(-204.675 -164.017)" fill="#1d272b"/>
        <path id="Trazado_166024" data-name="Trazado 166024" d="M245.287,174.629l-22.407,8.093-.854-3.579,22.091-7.443Z" transform="translate(-205.512 -161.492)" fill="#1d272b"/>
        <path id="Trazado_166025" data-name="Trazado 166025" d="M222.88,181.133c1.746,6.7,10.238,7.771,8.371-6.688l-9.224,3.109Z" transform="translate(-205.511 -159.903)" fill="#1d272b"/>
        <path id="Trazado_166026" data-name="Trazado 166026" d="M226.193,184.754a.312.312,0,0,1-.172-.051.319.319,0,0,1-.1-.439,10.319,10.319,0,0,0,1.156-8.581.317.317,0,1,1,.606-.186,10.946,10.946,0,0,1-1.224,9.109A.316.316,0,0,1,226.193,184.754Z" transform="translate(-203.285 -159.424)" fill="#fff"/>
        <path id="Trazado_166027" data-name="Trazado 166027" d="M229.709,203.053c-5.289,1.209-9.245-7.584-17.6-2.646a.9.9,0,0,0,.542,1.68,5.794,5.794,0,0,0,1.334-.284c2.043-.7,4.592.671,4.592.671a8.338,8.338,0,0,0-6.766,1.724.607.607,0,0,0,.4,1.089,16.212,16.212,0,0,1,3.753.205,7.3,7.3,0,0,0-3.014,3.092.607.607,0,0,0,.777.861,15.626,15.626,0,0,1,3.4-1.115,11.473,11.473,0,0,0-1.674,1.614.607.607,0,0,0,.731.939c2.343-1.173,4.284-1.715,6.586-.845,2.989,1.127,6.344-.733,6.344-.733l.793-6.314Z" transform="translate(-211.567 -145.753)" fill="#db8804"/>
        <path id="Trazado_166028" data-name="Trazado 166028" d="M214.97,203.711a.325.325,0,0,1-.259-.131.32.32,0,0,1,.073-.445,6.579,6.579,0,0,1,3.842-1.25.338.338,0,0,1,.354.319.319.319,0,0,1-.319.319h-.035a5.944,5.944,0,0,0-3.469,1.127A.314.314,0,0,1,214.97,203.711Z" transform="translate(-209.781 -144.018)" fill="#1d272b"/>
        <path id="Trazado_166029" data-name="Trazado 166029" d="M215.646,205.408a.319.319,0,0,1-.178-.583,6.262,6.262,0,0,1,3.818-1.123.314.314,0,0,1,.309.325.318.318,0,0,1-.317.311,1.416,1.416,0,0,1-.142,0,5.879,5.879,0,0,0-3.309,1.015A.326.326,0,0,1,215.646,205.408Z" transform="translate(-209.39 -142.97)" fill="#1d272b"/>
        <path id="Trazado_166030" data-name="Trazado 166030" d="M251.017,183.727a22.418,22.418,0,0,0-3.807,25.744,34.3,34.3,0,0,0-18.4-1.772c-9.129,1.631-9.393,14.769-.292,16.553a51.666,51.666,0,0,0,24.289-1.064,17.589,17.589,0,0,0,11.371-10.41,37.8,37.8,0,0,0,1.969-21.445Z" transform="translate(-205.629 -154.53)" fill="url(#linear-gradient)"/>
        <path id="Trazado_166031" data-name="Trazado 166031" d="M238.56,225.648a51.877,51.877,0,0,1-9.988-.966,8.44,8.44,0,0,1-6.95-8.556,8.627,8.627,0,0,1,7.25-8.622,34.6,34.6,0,0,1,17.818,1.506,22.745,22.745,0,0,1,4.216-25.386.322.322,0,0,1,.452-.009.317.317,0,0,1,.006.448,22.12,22.12,0,0,0-3.753,25.381.314.314,0,0,1-.047.357.325.325,0,0,1-.35.084,34.061,34.061,0,0,0-18.23-1.754,8,8,0,0,0-6.723,8,7.737,7.737,0,0,0,6.437,7.926A51.623,51.623,0,0,0,252.832,223,17.359,17.359,0,0,0,264,212.777a37.351,37.351,0,0,0,1.952-21.263.32.32,0,0,1,.627-.125,38.022,38.022,0,0,1-1.986,21.625,18,18,0,0,1-11.577,10.6A52.154,52.154,0,0,1,238.56,225.648Z" transform="translate(-205.747 -154.646)" fill="#241414"/>
        <path id="Trazado_166032" data-name="Trazado 166032" d="M238.208,174.868h-.017a2.413,2.413,0,0,1-1.418-.561,3.673,3.673,0,0,1-1.262-4.58,9.873,9.873,0,0,0-4.492-3.3.317.317,0,0,1-.189-.407.314.314,0,0,1,.409-.189,10.149,10.149,0,0,1,4.907,3.691.316.316,0,0,1,.017.306,3.063,3.063,0,0,0,1.017,3.987,1.776,1.776,0,0,0,1.045.414.318.318,0,0,1-.017.636Z" transform="translate(-200.426 -164.901)" fill="#241414"/>
        <path id="Trazado_166033" data-name="Trazado 166033" d="M222.532,177.762a.317.317,0,0,1-.316-.279,22.246,22.246,0,0,1,.017-4.732.315.315,0,0,1,.316-.29l.028,0a.316.316,0,0,1,.289.346,21.631,21.631,0,0,0-.017,4.6.319.319,0,0,1-.276.355Z" transform="translate(-205.473 -161.053)" fill="#241414"/>
        <path id="Trazado_166034" data-name="Trazado 166034" d="M226.946,195.07a.318.318,0,0,1-.155-.039.322.322,0,0,1-.125-.434c.073-.128,1.659-2.97,2.667-4.364l-2.149-2.338a.318.318,0,1,1,.467-.431L229.979,190a.324.324,0,0,1,.021.411c-.958,1.25-2.758,4.468-2.776,4.5A.317.317,0,0,1,226.946,195.07Z" transform="translate(-202.848 -152.427)" fill="#241414"/>
        <path id="Trazado_166035" data-name="Trazado 166035" d="M239.727,203.321a.318.318,0,0,1-.308-.242l-.613-2.441a.322.322,0,0,1,.107-.325.315.315,0,0,1,.341-.038l3.783,1.83a.32.32,0,0,1,.147.425.314.314,0,0,1-.426.148l-3.167-1.533.445,1.779a.317.317,0,0,1-.232.385A.262.262,0,0,1,239.727,203.321Z" transform="translate(-195.803 -144.969)" fill="#241414"/>
        <path id="Trazado_166036" data-name="Trazado 166036" d="M246.464,267.5a15.068,15.068,0,0,1-6.112-1.351.318.318,0,0,1,.259-.581,13.917,13.917,0,0,0,13.369-.919.32.32,0,0,1,.33.548A15.192,15.192,0,0,1,246.464,267.5Z" transform="translate(-195.012 -107.708)" fill="#241414"/>
        <path id="Trazado_166037" data-name="Trazado 166037" d="M248.043,239.351a.319.319,0,0,1-.09-.625l1.642-.477-3.174-1.65a.319.319,0,1,1,.294-.565l3.878,2.018a.32.32,0,0,1-.057.589l-2.4.7A.341.341,0,0,1,248.043,239.351Z" transform="translate(-191.488 -124.27)" fill="#241414"/>
        <path id="Trazado_166038" data-name="Trazado 166038" d="M252.381,246.664a.332.332,0,0,1-.122-.024.319.319,0,0,1-.172-.417,26.34,26.34,0,0,0-4.838-27.677.319.319,0,0,1,.474-.428,26.975,26.975,0,0,1,4.952,28.349A.314.314,0,0,1,252.381,246.664Z" transform="translate(-190.957 -134.681)" fill="#241414"/>
        <path id="Trazado_166039" data-name="Trazado 166039" d="M252.906,270.952l-.627-.253a14.191,14.191,0,0,0,.733-2.414,49.533,49.533,0,0,0-1.124-24.629l.644-.2a50.2,50.2,0,0,1,1.14,24.964A14.887,14.887,0,0,1,252.906,270.952Z" transform="translate(-188.224 -119.951)" fill="#1d272b"/>
        <path id="Trazado_166040" data-name="Trazado 166040" d="M252.521,235.384l-.671-.081a37.926,37.926,0,0,1,5.351-15.238,24.292,24.292,0,0,0,2.91-18.685,22.4,22.4,0,0,0-10.683-14.073c-.815-.464-1.661-.9-2.518-1.3l-.156-.073-.032-.167a16.3,16.3,0,0,0-7.509-10.7l.349-.578a16.972,16.972,0,0,1,7.786,10.978c.823.387,1.633.808,2.414,1.251a23.076,23.076,0,0,1,11.005,14.494,24.967,24.967,0,0,1-2.991,19.208A37.229,37.229,0,0,0,252.521,235.384Z" transform="translate(-195.563 -159.877)" fill="#1d272b"/>
      </g>
    </g>
    <g id="Grupo_133235" data-name="Grupo 133235" transform="translate(386.861 20101.813)">
      <rect id="Rectángulo_33829" data-name="Rectángulo 33829" width="99.33" height="43.6" transform="translate(2.172 2.172)" fill="#1d272b"/>
      <g id="Grupo_91754" data-name="Grupo 91754" transform="translate(63.299 29.249)">
        <rect id="Rectángulo_33830" data-name="Rectángulo 33830" width="9.41" height="14.37" fill="#3d4a60"/>
        <rect id="Rectángulo_33831" data-name="Rectángulo 33831" width="7.931" height="5.003" transform="translate(0.739 4.756)" fill="#e6e6e6"/>
        <rect id="Rectángulo_33832" data-name="Rectángulo 33832" width="3.98" height="0.37" rx="0.128" transform="translate(2.715 1.604)" fill="#fff"/>
        <rect id="Rectángulo_33833" data-name="Rectángulo 33833" width="5.949" height="0.37" rx="0.128" transform="translate(1.731 2.477)" fill="#fff"/>
        <path id="Rectángulo_33834" data-name="Rectángulo 33834" d="M.128,0H3.852A.128.128,0,0,1,3.98.128V.242A.128.128,0,0,1,3.852.37H.127A.127.127,0,0,1,0,.242V.128A.128.128,0,0,1,.128,0Z" transform="translate(2.715 5.453)" fill="#3d4a60"/>
        <path id="Rectángulo_33835" data-name="Rectángulo 33835" d="M.127,0H5.821a.128.128,0,0,1,.128.128V.242A.128.128,0,0,1,5.821.37H.128A.128.128,0,0,1,0,.242V.127A.127.127,0,0,1,.127,0Z" transform="translate(1.731 6.325)" fill="#3d4a60"/>
      </g>
      <g id="Grupo_91755" data-name="Grupo 91755" transform="translate(74.928 29.793)">
        <rect id="Rectángulo_33836" data-name="Rectángulo 33836" width="5.501" height="13.827" fill="#e6e6e6"/>
        <rect id="Rectángulo_33837" data-name="Rectángulo 33837" width="5.501" height="6.141" fill="#ff404e"/>
        <rect id="Rectángulo_33838" data-name="Rectángulo 33838" width="2.473" height="0.313" rx="0.108" transform="translate(1.407 1.962)" fill="#fff"/>
        <rect id="Rectángulo_33839" data-name="Rectángulo 33839" width="3.934" height="0.313" rx="0.108" transform="translate(0.565 2.548)" fill="#fff"/>
        <rect id="Rectángulo_33840" data-name="Rectángulo 33840" width="2.473" height="4.43" transform="translate(1.407 6.913)" fill="#fbb03b"/>
        <rect id="Rectángulo_33841" data-name="Rectángulo 33841" width="17.746" height="8.513" transform="translate(4.883 5.324)" fill="#fff"/>
        <rect id="Rectángulo_33842" data-name="Rectángulo 33842" width="7.171" height="8.518" transform="translate(15.458 5.314)" fill="#50759b"/>
        <rect id="Rectángulo_33843" data-name="Rectángulo 33843" width="7.331" height="0.739" transform="translate(6.425 7.624)" fill="#008f85"/>
        <path id="Trazado_150739" data-name="Trazado 150739" d="M483.809,358.95a1.336,1.336,0,1,0-1.336,1.343A1.34,1.34,0,0,0,483.809,358.95Z" transform="translate(-463.311 -349.244)" fill="#fff"/>
        <rect id="Rectángulo_33844" data-name="Rectángulo 33844" width="6.709" height="0.229" rx="0.079" transform="translate(6.425 9.344)" opacity="0.34"/>
        <rect id="Rectángulo_33845" data-name="Rectángulo 33845" width="6.709" height="0.229" rx="0.079" transform="translate(6.425 9.984)" opacity="0.34"/>
      </g>
      <g id="Grupo_91756" data-name="Grupo 91756" transform="translate(6.563 10.395)">
        <rect id="Rectángulo_33846" data-name="Rectángulo 33846" width="24.696" height="12.749" fill="#fff"/>
        <rect id="Rectángulo_33847" data-name="Rectángulo 33847" width="24.696" height="3.732" fill="#008f85"/>
        <rect id="Rectángulo_33848" data-name="Rectángulo 33848" width="24.696" height="3.732" transform="translate(0 9.031)" fill="#008f85"/>
        <rect id="Rectángulo_33849" data-name="Rectángulo 33849" width="15.45" height="0.356" rx="0.123" transform="translate(6.718 5.352)" opacity="0.29"/>
        <rect id="Rectángulo_33850" data-name="Rectángulo 33850" width="15.45" height="0.356" rx="0.123" transform="translate(6.718 6.34)" opacity="0.29"/>
        <rect id="Rectángulo_33851" data-name="Rectángulo 33851" width="15.45" height="0.356" rx="0.123" transform="translate(6.718 7.229)" opacity="0.29"/>
      </g>
      <g id="Grupo_91761" data-name="Grupo 91761" transform="translate(71.575 14.774)">
        <g id="Grupo_91757" data-name="Grupo 91757" transform="translate(14.3)">
          <path id="Rectángulo_33852" data-name="Rectángulo 33852" d="M0,0H3.651a0,0,0,0,1,0,0V6.617a.486.486,0,0,1-.486.486H.486A.486.486,0,0,1,0,6.617V0A0,0,0,0,1,0,0Z" transform="translate(0.365 1.098)" fill="#fbb03b"/>
          <rect id="Rectángulo_33853" data-name="Rectángulo 33853" width="4.381" height="1.294" fill="#fff"/>
          <rect id="Rectángulo_33854" data-name="Rectángulo 33854" width="2.943" height="2.013" transform="translate(0.719 3.529)" fill="#fff"/>
        </g>
        <g id="Grupo_91758" data-name="Grupo 91758" transform="translate(9.514 0.136)">
          <path id="Rectángulo_33855" data-name="Rectángulo 33855" d="M0,0H3.651a0,0,0,0,1,0,0V6.675a.427.427,0,0,1-.427.427H.427A.427.427,0,0,1,0,6.675V0A0,0,0,0,1,0,0Z" transform="translate(0.365 0.963)" fill="#fbb03b"/>
          <rect id="Rectángulo_33856" data-name="Rectángulo 33856" width="4.381" height="1.294" fill="#fff"/>
          <rect id="Rectángulo_33857" data-name="Rectángulo 33857" width="2.943" height="2.013" transform="translate(0.719 3.529)" fill="#fff"/>
        </g>
        <g id="Grupo_91759" data-name="Grupo 91759" transform="translate(4.786 0.136)">
          <path id="Rectángulo_33858" data-name="Rectángulo 33858" d="M0,0H3.651a0,0,0,0,1,0,0V6.558a.545.545,0,0,1-.545.545H.545A.545.545,0,0,1,0,6.558V0A0,0,0,0,1,0,0Z" transform="translate(0.365 0.963)" fill="#fbb03b"/>
          <rect id="Rectángulo_33859" data-name="Rectángulo 33859" width="4.381" height="1.294" fill="#fff"/>
          <rect id="Rectángulo_33860" data-name="Rectángulo 33860" width="2.943" height="2.013" transform="translate(0.719 3.529)" fill="#fff"/>
        </g>
        <g id="Grupo_91760" data-name="Grupo 91760" transform="translate(0 0.136)">
          <path id="Rectángulo_33861" data-name="Rectángulo 33861" d="M0,0H3.651a0,0,0,0,1,0,0V6.554A.549.549,0,0,1,3.1,7.1H.549A.549.549,0,0,1,0,6.554V0A0,0,0,0,1,0,0Z" transform="translate(0.365 0.963)" fill="#fbb03b"/>
          <rect id="Rectángulo_33862" data-name="Rectángulo 33862" width="4.381" height="1.294" fill="#fff"/>
          <rect id="Rectángulo_33863" data-name="Rectángulo 33863" width="2.943" height="2.013" transform="translate(0.719 3.529)" fill="#fff"/>
        </g>
      </g>
      <g id="Grupo_91766" data-name="Grupo 91766" transform="translate(43.066 35.559)">
        <g id="Grupo_91762" data-name="Grupo 91762" transform="translate(14.3)">
          <path id="Rectángulo_33864" data-name="Rectángulo 33864" d="M0,0H3.651a0,0,0,0,1,0,0V6.617a.486.486,0,0,1-.486.486H.486A.486.486,0,0,1,0,6.617V0A0,0,0,0,1,0,0Z" transform="translate(0.365 1.098)" fill="#fbb03b"/>
          <rect id="Rectángulo_33865" data-name="Rectángulo 33865" width="4.381" height="1.294" fill="#fff"/>
          <rect id="Rectángulo_33866" data-name="Rectángulo 33866" width="2.943" height="2.014" transform="translate(0.719 3.529)" fill="#fff"/>
        </g>
        <g id="Grupo_91763" data-name="Grupo 91763" transform="translate(9.514 0.136)">
          <path id="Rectángulo_33867" data-name="Rectángulo 33867" d="M0,0H3.651a0,0,0,0,1,0,0V6.675a.427.427,0,0,1-.427.427H.427A.427.427,0,0,1,0,6.675V0A0,0,0,0,1,0,0Z" transform="translate(0.365 0.963)" fill="#fbb03b"/>
          <rect id="Rectángulo_33868" data-name="Rectángulo 33868" width="4.381" height="1.294" fill="#fff"/>
          <rect id="Rectángulo_33869" data-name="Rectángulo 33869" width="2.943" height="2.014" transform="translate(0.719 3.529)" fill="#fff"/>
        </g>
        <g id="Grupo_91764" data-name="Grupo 91764" transform="translate(4.785 0.136)">
          <path id="Rectángulo_33870" data-name="Rectángulo 33870" d="M0,0H3.651a0,0,0,0,1,0,0V6.558a.545.545,0,0,1-.545.545H.545A.545.545,0,0,1,0,6.558V0A0,0,0,0,1,0,0Z" transform="translate(0.365 0.963)" fill="#fbb03b"/>
          <rect id="Rectángulo_33871" data-name="Rectángulo 33871" width="4.381" height="1.294" fill="#fff"/>
          <rect id="Rectángulo_33872" data-name="Rectángulo 33872" width="2.943" height="2.014" transform="translate(0.719 3.529)" fill="#fff"/>
        </g>
        <g id="Grupo_91765" data-name="Grupo 91765" transform="translate(0 0.136)">
          <path id="Rectángulo_33873" data-name="Rectángulo 33873" d="M0,0H3.651a0,0,0,0,1,0,0V6.553A.549.549,0,0,1,3.1,7.1H.549A.549.549,0,0,1,0,6.553V0A0,0,0,0,1,0,0Z" transform="translate(0.365 0.963)" fill="#fbb03b"/>
          <rect id="Rectángulo_33874" data-name="Rectángulo 33874" width="4.381" height="1.294" fill="#fff"/>
          <rect id="Rectángulo_33875" data-name="Rectángulo 33875" width="2.943" height="2.014" transform="translate(0.719 3.529)" fill="#fff"/>
        </g>
      </g>
      <g id="Grupo_91767" data-name="Grupo 91767" transform="translate(51.86 10.165)">
        <rect id="Rectángulo_33876" data-name="Rectángulo 33876" width="12.837" height="13.49" transform="translate(0 12.837) rotate(-90)" fill="#fff"/>
        <path id="Trazado_150740" data-name="Trazado 150740" d="M453.24,344.211s5.98,2.13,6.518,2.533,1.352-.1.792-.69a6.052,6.052,0,0,0-1.755-1.074l5.036.133s.713.105.811-.386-.947-.525-.947-.525l-3.3-.271,3.623-.462s.748-.141.736-.609-.953-.332-.953-.332l-3.614.159,3.55-.767s.888-.192.822-.716-1.315-.207-1.315-.207l-3.432.5,1.794-.933s.308-.183.1-.437-.632-.075-.632-.075-4.259,1.4-5.156,1.9a5.2,5.2,0,0,1-2.677.162Z" transform="translate(-451.962 -337.019)" fill="#db8804"/>
        <rect id="Rectángulo_33877" data-name="Rectángulo 33877" width="2.413" height="13.49" transform="translate(0 2.413) rotate(-90)" fill="#50759b"/>
        <rect id="Rectángulo_33878" data-name="Rectángulo 33878" width="2.413" height="13.49" transform="translate(0 12.837) rotate(-90)" fill="#50759b"/>
      </g>
      <rect id="Rectángulo_33879" data-name="Rectángulo 33879" width="98.365" height="4.466" transform="translate(3.138 23.052)" fill="url(#linear-gradient)"/>
      <path id="Trazado_150741" data-name="Trazado 150741" d="M519.5,378.683H415.822V330.739H519.5Zm-99.329-4.346h94.985V335.083H420.168Z" transform="translate(-415.822 -330.739)" fill="url(#linear-gradient)"/>
      <rect id="Rectángulo_33881" data-name="Rectángulo 33881" width="3.741" height="42.725" transform="translate(49.605 2.292)" fill="url(#linear-gradient)"/>
      <rect id="Rectángulo_33882" data-name="Rectángulo 33882" width="0.128" height="47.87" transform="translate(51.294 0.044)" opacity="0.26"/>
      <path id="Rectángulo_33883" data-name="Rectángulo 33883" d="M0,0H1.534a1,1,0,0,1,1,1v9.587a1,1,0,0,1-1,1H0a0,0,0,0,1,0,0V0A0,0,0,0,1,0,0Z" transform="translate(52.018 18.465)" fill="#a4b6c1"/>
      <path id="Rectángulo_33884" data-name="Rectángulo 33884" d="M0,0H1.534a1,1,0,0,1,1,1v9.587a1,1,0,0,1-1,1H0a0,0,0,0,1,0,0V0A0,0,0,0,1,0,0Z" transform="translate(50.51 30.052) rotate(180)" fill="#a4b6c1"/>
    </g>
  </g>
</svg>
