<svg xmlns="http://www.w3.org/2000/svg" xmlns:xlink="http://www.w3.org/1999/xlink" width="79.155" height="79.154" viewBox="0 0 79.155 79.154">
  <defs>
    <linearGradient id="linear-gradient" x1="0.5" x2="0.5" y2="1" gradientUnits="objectBoundingBox">
      <stop offset="0" stop-color="#fff"/>
      <stop offset="1" stop-color="#f8f8f8"/>
    </linearGradient>
  </defs>
  <g id="Grupo_134228" data-name="Grupo 134228" transform="translate(-800 -1406.71)">
    <g id="Group_18531" data-name="Group 18531" transform="translate(800 1406.71)">
      <g id="Group_18423" data-name="Group 18423">
        <g id="Group_18421" data-name="Group 18421">
          <g id="Group_18420" data-name="Group 18420">
            <g id="Group_18419" data-name="Group 18419">
              <path id="Path_40936" data-name="Path 40936" d="M201.954,554.407a39.577,39.577,0,1,1-39.578-39.575h0A39.576,39.576,0,0,1,201.954,554.407Z" transform="translate(-122.8 -514.832)" fill="#fff"/>
            </g>
          </g>
        </g>
        <path id="Path_40937" data-name="Path 40937" d="M201.953,554.407a39.42,39.42,0,1,0,0,.312Z" transform="translate(-122.799 -514.832)" fill="url(#linear-gradient)"/>
        <path id="Path_40938" data-name="Path 40938" d="M190.028,551.858a30.209,30.209,0,1,0-30.209,30.209h0a30.1,30.1,0,0,0,30.209-29.984Z" transform="translate(-120.122 -512.151)" fill="none" stroke="#008f85" stroke-miterlimit="10" stroke-width="3"/>
        <g id="Group_18422" data-name="Group 18422" transform="translate(7.012 22.22)">
          <path id="Path_40939" data-name="Path 40939" d="M195.973,530.78a39.581,39.581,0,0,1-68.14,39.411,39.456,39.456,0,0,0,68.14-39.411Z" transform="translate(-127.833 -530.78)" fill="#e7e9eb"/>
        </g>
      </g>
    </g>
    <g id="QB69v8" transform="translate(-2801.032 1936.675)">
      <g id="Grupo_133724" data-name="Grupo 133724" transform="translate(3622.127 -509.586)">
        <path id="Trazado_173403" data-name="Trazado 173403" d="M3628.113-479.432l1.668-1.639a14.8,14.8,0,0,1-3.74-9.034h-2.288s-.032.015-.04.035c-.191.537-.486.764-.909.7-.446-.069-.672-.392-.676-.97,0-.371,0-.742,0-1.113,0-.612.222-.939.676-1.009.43-.066.719.162.933.747h2.236l.61-3.495-2.088-.756a3.108,3.108,0,0,1-.282.306.725.725,0,0,1-.886.079.683.683,0,0,1-.369-.805,17.418,17.418,0,0,1,.6-1.682.739.739,0,0,1,.9-.4c.395.108.583.445.541,1.014l2.172.786a15.012,15.012,0,0,1,7.841-7.862c-.248-.68-.484-1.35-.742-2.011-.027-.07-.177-.122-.274-.131a.819.819,0,0,1-.817-.672.8.8,0,0,1,.585-.878c.383-.147.77-.284,1.155-.423.581-.211.962-.117,1.181.287.208.385.087.741-.4,1.139l.764,2.092,3.533-.622v-2.237c-.095-.036-.194-.066-.287-.11a.735.735,0,0,1-.454-.8.681.681,0,0,1,.635-.662,14.319,14.319,0,0,1,1.824,0,.719.719,0,0,1,.642.7c.029.4-.2.674-.75.863v2.262c.854.139,1.688.273,2.521.411a3.873,3.873,0,0,1,.426.1.791.791,0,0,1,.616.994.792.792,0,0,1-1.011.519,13.982,13.982,0,0,0-3.659-.422,13.3,13.3,0,0,0-12.579,10.273,13.246,13.246,0,0,0,10.639,15.959,12.694,12.694,0,0,0,4.194.045.811.811,0,0,1,1.023.628.785.785,0,0,1-.766.915c-.457.067-.917.1-1.4.156v2.278c.005.006.018.035.038.042.536.189.764.486.7.91-.07.446-.391.671-.971.674-.371,0-.742,0-1.113,0-.6,0-.91-.2-1-.639s.135-.747.737-.971v-2.3a14.806,14.806,0,0,1-9.042-3.739l-1.645,1.647a2.684,2.684,0,0,1,.12.265.723.723,0,0,1-.269.881.684.684,0,0,1-.917,0,15.493,15.493,0,0,1-1.263-1.264.683.683,0,0,1,0-.917.724.724,0,0,1,.882-.266A2.275,2.275,0,0,1,3628.113-479.432Z" transform="translate(-3622.127 509.586)" fill="#1d272b"/>
        <path id="Trazado_173404" data-name="Trazado 173404" d="M3766.4-373.939a8.583,8.583,0,0,1-8.538,8.564,8.584,8.584,0,0,1-8.583-8.558,8.585,8.585,0,0,1,8.578-8.564A8.583,8.583,0,0,1,3766.4-373.939Zm-15.557.006a7.011,7.011,0,0,0,6.97,6.992,7.01,7.01,0,0,0,7.022-6.98,7.009,7.009,0,0,0-6.99-7.012A7.009,7.009,0,0,0,3750.839-373.932Z" transform="translate(-3739.162 392.605)" fill="#1d272b"/>
        <path id="Trazado_173405" data-name="Trazado 173405" d="M3949.536-447.741l1.64-1.643a2.4,2.4,0,0,1-.123-.252.736.736,0,0,1,.253-.887.719.719,0,0,1,.951.01c.42.384.822.789,1.209,1.207a.738.738,0,0,1,.02.984.808.808,0,0,1-1.1.132l-1.631,1.639c2.109,3.01,2.591,2.893,3.734,9.038h2.262c.034-.089.063-.175.1-.258a.733.733,0,0,1,.782-.491.686.686,0,0,1,.7.643,13.692,13.692,0,0,1,0,1.824.68.68,0,0,1-.667.629.734.734,0,0,1-.8-.461c-.039-.084-.063-.174-.1-.28h-2.248l-.613,3.487c.626.227,1.293.476,1.967.7.073.025.211-.054.28-.123a.782.782,0,0,1,1.031-.2.792.792,0,0,1,.3,1.008c-.138.4-.288.8-.434,1.193-.2.553-.5.767-.956.685-.429-.077-.643-.423-.614-1.03l-2.17-.784c-.07.149-.131.278-.192.407a14.751,14.751,0,0,1-4.95,5.945.785.785,0,0,1-1.11-.03.787.787,0,0,1,.192-1.228,13.464,13.464,0,0,0,2.941-2.824,13.2,13.2,0,0,0-1.609-17.789c-.107-.1-.222-.189-.326-.291a.781.781,0,0,1-.093-1.076.8.8,0,0,1,1.108-.107C3949.36-447.891,3949.449-447.812,3949.536-447.741Z" transform="translate(-3921.01 455.382)" fill="#1d272b"/>
        <path id="Trazado_173406" data-name="Trazado 173406" d="M3711-284.736a.805.805,0,0,1,.766.8.8.8,0,0,1-.794.769.806.806,0,0,1-.77-.8A.807.807,0,0,1,3711-284.736Z" transform="translate(-3703.194 302.619)" fill="#1d272b"/>
        <path id="Trazado_173407" data-name="Trazado 173407" d="M3753.92-382.558a.777.777,0,0,1-.8-.758.779.779,0,0,1,.771-.786.774.774,0,0,1,.8.758A.769.769,0,0,1,3753.92-382.558Z" transform="translate(-3742.702 394.081)" fill="#1d272b"/>
        <path id="Trazado_173408" data-name="Trazado 173408" d="M3962.933-209.058a.8.8,0,0,1-.791-.776.8.8,0,0,1,.777-.79.794.794,0,0,1,.789.776A.793.793,0,0,1,3962.933-209.058Z" transform="translate(-3935.1 234.401)" fill="#1d272b"/>
        <path id="Trazado_173409" data-name="Trazado 173409" d="M3984.741-284.575a.785.785,0,0,1,.791.778.8.8,0,0,1-.8.778.8.8,0,0,1-.767-.765A.775.775,0,0,1,3984.741-284.575Z" transform="translate(-3955.19 302.471)" fill="#1d272b"/>
        <path id="Trazado_173410" data-name="Trazado 173410" d="M3904.709-158.461a.76.76,0,0,1-.786-.761.764.764,0,0,1,.769-.78.777.777,0,0,1,.794.763A.773.773,0,0,1,3904.709-158.461Z" transform="translate(-3881.511 187.805)" fill="#1d272b"/>
        <path id="Trazado_173411" data-name="Trazado 173411" d="M3784.808-405.005a.785.785,0,0,1-.777.791.8.8,0,0,1-.783-.792.792.792,0,0,1,.761-.77A.79.79,0,0,1,3784.808-405.005Z" transform="translate(-3770.433 414.032)" fill="#1d272b"/>
        <path id="Trazado_173412" data-name="Trazado 173412" d="M3925.192-396.107a.78.78,0,0,1-.78-.777.786.786,0,0,1,.776-.785.781.781,0,0,1,.778.779A.777.777,0,0,1,3925.192-396.107Z" transform="translate(-3900.371 406.57)" fill="#1d272b"/>
        <path id="Trazado_173413" data-name="Trazado 173413" d="M3952.689-371.022a.8.8,0,0,1-.762-.809.782.782,0,0,1,.817-.747.777.777,0,0,1,.742.783A.8.8,0,0,1,3952.689-371.022Z" transform="translate(-3925.697 383.475)" fill="#1d272b"/>
        <path id="Trazado_173414" data-name="Trazado 173414" d="M3758.8-180.619a.781.781,0,0,1-.789.769.792.792,0,0,1-.777-.786.8.8,0,0,1,.794-.774A.8.8,0,0,1,3758.8-180.619Z" transform="translate(-3746.49 207.511)" fill="#1d272b"/>
        <path id="Trazado_173415" data-name="Trazado 173415" d="M3790.769-158.559a.773.773,0,0,1-.725-.827.78.78,0,0,1,.842-.713.776.776,0,0,1,.724.828A.773.773,0,0,1,3790.769-158.559Z" transform="translate(-3776.687 187.895)" fill="#1d272b"/>
        <path id="Trazado_173416" data-name="Trazado 173416" d="M3818.8-416.884a.784.784,0,0,1-.788-.771.792.792,0,0,1,.776-.787.787.787,0,0,1,.788.774A.788.788,0,0,1,3818.8-416.884Z" transform="translate(-3802.434 425.692)" fill="#1d272b"/>
        <path id="Trazado_173417" data-name="Trazado 173417" d="M3892.178-414.13a.764.764,0,0,1,.74.807.763.763,0,0,1-.81.737.775.775,0,0,1-.743-.809A.757.757,0,0,1,3892.178-414.13Z" transform="translate(-3869.952 421.723)" fill="#1d272b"/>
        <path id="Trazado_173418" data-name="Trazado 173418" d="M3715.984-321.363a.783.783,0,0,1,.773.785.781.781,0,0,1-.789.768.778.778,0,0,1-.773-.782A.78.78,0,0,1,3715.984-321.363Z" transform="translate(-3707.793 336.333)" fill="#1d272b"/>
        <path id="Trazado_173419" data-name="Trazado 173419" d="M3731.5-354.633a.787.787,0,0,1-.787.773.784.784,0,0,1-.772-.784.788.788,0,0,1,.784-.776A.791.791,0,0,1,3731.5-354.633Z" transform="translate(-3721.362 367.682)" fill="#1d272b"/>
        <path id="Trazado_173420" data-name="Trazado 173420" d="M3855.763-419.724a.763.763,0,0,1-.786-.773.779.779,0,0,1,.749-.776.788.788,0,0,1,.812.757A.781.781,0,0,1,3855.763-419.724Z" transform="translate(-3836.458 428.297)" fill="#1d272b"/>
        <path id="Trazado_173421" data-name="Trazado 173421" d="M3980.018-245.166a.75.75,0,0,1-.8.751.758.758,0,0,1-.751-.767.779.779,0,0,1,.788-.777A.76.76,0,0,1,3980.018-245.166Z" transform="translate(-3950.126 266.925)" fill="#1d272b"/>
        <path id="Trazado_173422" data-name="Trazado 173422" d="M3930.533-439.577a.79.79,0,0,1-.783.787.781.781,0,0,1-.785-.781.782.782,0,0,1,.761-.765A.782.782,0,0,1,3930.533-439.577Z" transform="translate(-3904.561 445.844)" fill="#1d272b"/>
        <path id="Trazado_173423" data-name="Trazado 173423" d="M3867.346-147.508a.752.752,0,0,1-.761-.789.754.754,0,0,1,.762-.751.759.759,0,0,1,.783.771A.755.755,0,0,1,3867.346-147.508Z" transform="translate(-3847.142 177.723)" fill="#1d272b"/>
        <path id="Trazado_173424" data-name="Trazado 173424" d="M3828.427-149.052a.754.754,0,0,1,.764.788.754.754,0,0,1-.8.752.751.751,0,0,1-.744-.768A.749.749,0,0,1,3828.427-149.052Z" transform="translate(-3811.303 177.727)" fill="#1d272b"/>
        <path id="Trazado_173425" data-name="Trazado 173425" d="M3914.179-120.358a.757.757,0,0,1-.784.768.75.75,0,0,1-.758-.79.756.756,0,0,1,.763-.75A.756.756,0,0,1,3914.179-120.358Z" transform="translate(-3889.532 152.025)" fill="#1d272b"/>
        <path id="Trazado_173426" data-name="Trazado 173426" d="M3936.761-180.267a.756.756,0,0,1,.779-.776.751.751,0,0,1,.766.747.759.759,0,0,1-.759.8A.755.755,0,0,1,3936.761-180.267Z" transform="translate(-3911.738 207.172)" fill="#1d272b"/>
        <path id="Trazado_173427" data-name="Trazado 173427" d="M3806.736-331.6c-.141.464-.291.925-.416,1.393a.735.735,0,0,0,0,.459,3.131,3.131,0,0,1-.583,3.632,3.126,3.126,0,0,1-3.635.558.567.567,0,0,0-.424,0,3.135,3.135,0,0,1-3.634-.568,3.14,3.14,0,0,1-.569-3.635.57.57,0,0,0,0-.425,3.139,3.139,0,0,1,.559-3.637,3.149,3.149,0,0,1,3.635-.58.658.658,0,0,0,.493-.024A3.207,3.207,0,0,1,3806.736-331.6Zm-8.039-.031a1.555,1.555,0,0,0,1.556,1.566,1.581,1.581,0,0,0,1.546-1.548,1.554,1.554,0,0,0-1.567-1.554A1.528,1.528,0,0,0,3798.7-331.627Zm6.388,3.322a1.523,1.523,0,0,0-1.521-1.554,1.552,1.552,0,0,0-1.581,1.545,1.537,1.537,0,0,0,1.552,1.529A1.515,1.515,0,0,0,3805.085-328.305Zm-2-4.773c.119.573.228,1.1.329,1.586l1.6.338a1.456,1.456,0,0,0-.358-1.535A1.481,1.481,0,0,0,3803.083-333.079Zm-4.291,4.3a1.458,1.458,0,0,0,.377,1.58,1.425,1.425,0,0,0,1.531.326l-.325-1.571Z" transform="translate(-3783.218 348.638)" fill="#1d272b"/>
      </g>
    </g>
  </g>
</svg>
