<svg xmlns="http://www.w3.org/2000/svg" width="183.747" height="199.397" viewBox="0 0 183.747 199.397">
  <g id="Grupo_133165" data-name="Grupo 133165" transform="translate(102.937 199.397) rotate(-150)">
    <path id="Trazado_170515" data-name="Trazado 170515" d="M114.049,163.085c.454,2.629.989,5.1,1.28,7.592a51.785,51.785,0,0,1,.366,7.027,2.486,2.486,0,0,1-4.071,1.881,12.233,12.233,0,0,0-7.052-2.724,27.132,27.132,0,0,0-11.009.91,20.966,20.966,0,0,0-4.041,1.882c-1.877,1.072-4.174.033-4.135-2.086.11-5.872-1.432-11.428-3.131-16.946-1-3.263-2.244-6.454-3.386-9.674-.115-.324-.29-.626-.528-1.131-.279.993-.536,1.766-.713,2.557-1.2,5.394-4.292,9.556-8.478,12.994a44.655,44.655,0,0,1-10.508,6.1,3.513,3.513,0,0,1-2.549-.1c-3.656-1.632-5.488-4.7-6.27-8.495a9.959,9.959,0,0,1-.178-1.912,4.062,4.062,0,0,1,2.545-4.132,36.146,36.146,0,0,0,6.265-3.819c2.795-2.118,3.587-5.354,4.227-8.62.637-3.248,1.308-6.49,2.067-9.711a18.081,18.081,0,0,1,3-6.566,1.348,1.348,0,0,0,.117-1.056c-2.166-6.683-3.027-13.613-3.915-20.538-.91-7.1-1.63-14.224-3.419-21.182-1.363-5.3-3.966-10.05-6.551-14.806-1.341-2.467-2.756-4.894-4.259-7.552-.338.724-.563,1.256-.83,1.768q-3.571,6.866-7.153,13.728A2.889,2.889,0,0,1,38.565,80.1c-4.209-.469-6.976-2.958-9.032-6.433a11.786,11.786,0,0,1-.776-1.757,3.422,3.422,0,0,1,.343-3.144,93.379,93.379,0,0,0,9.476-23.388,3.071,3.071,0,0,0-.354-2.33c-2.558-4.971-5.051-9.975-7.6-14.951a3.473,3.473,0,0,1,.486-4.146,13.914,13.914,0,0,1,8.186-4.679A25.452,25.452,0,0,1,56.963,21.3,11.588,11.588,0,0,1,62.6,27.28c3.358,7.851,7.945,15.043,12.453,22.268A185.319,185.319,0,0,1,85.613,67.869a70.966,70.966,0,0,1,5.018,16.513,3.921,3.921,0,0,0,2.384,2.94c1.095.495,1.388.3,1.481-.9a21.463,21.463,0,0,1,2.662-8.944c4.6-8.184,11.673-12.716,20.956-13.64,8.88-.884,16.591,1.865,22.675,8.436,9.922,10.716,8.454,26.622-3.152,35.857-10.655,8.479-27.121,7.3-36.432-2.629-.8-.855-1.531-1.782-2.257-2.7a4.986,4.986,0,0,0-3.329-1.929c-1.232-.173-1.974.38-1.787,1.432,1.288,7.22,2.357,14.534,5.742,21.15,2.632,5.145,5.053,10.365,7.162,15.741a4.912,4.912,0,0,0,1.592,1.793,75.531,75.531,0,0,0,14.466,8.849c1.7.815,3.472,1.468,5.237,2.129a4.324,4.324,0,0,1,2.43,2.282,11.064,11.064,0,0,1-.05,10.186,8.387,8.387,0,0,1-2.039,2.272,2.56,2.56,0,0,1-2.612.519q-5.347-1.826-10.68-3.691C114.764,163.419,114.462,163.264,114.049,163.085ZM110.3,172.8a6.208,6.208,0,0,0-.047-.677c-.947-4.563-1.871-9.131-2.862-13.684-.363-1.668-.116-2.779,1.008-3.5,1.06-.677,2.193-.438,3.5.576,4.128,3.205,8.959,4.867,13.941,6.365a6.126,6.126,0,0,0,.2-4.655c-.09-.265-.481-.481-.781-.613-1.79-.791-3.635-1.47-5.386-2.337a73.037,73.037,0,0,1-16.151-10.344,8.005,8.005,0,0,1-1.834-2.667c-1.994-4.37-3.88-8.79-5.847-13.172-.742-1.654-1.7-3.215-2.382-4.89-2.644-6.475-3.865-13.324-5.037-20.165a6.162,6.162,0,0,1,5.342-7.359c3.971-.651,6.95,1.139,9.387,4.107a27.644,27.644,0,0,0,2.61,2.96,22.2,22.2,0,0,0,28.916.744,18.729,18.729,0,0,0,3.185-26.212,20.616,20.616,0,0,0-15.046-8.172,21.285,21.285,0,0,0-18.172,6.719A19.082,19.082,0,0,0,99.683,87.97a5.24,5.24,0,0,1-4.257,4.741c-4.232.918-9.012-2.456-9.868-6.987-1.324-7-3.289-13.786-6.926-19.979-2.6-4.423-5.208-8.841-7.913-13.2-4.9-7.9-9.808-15.8-13.537-24.354a2.779,2.779,0,0,0-.793-.969c-2.889-2.368-6.337-3.176-9.946-3.38a17.28,17.28,0,0,0-9.519,1.884c-.956.524-1.23,1.041-.676,2.088q3.646,6.893,7.156,13.856a4.312,4.312,0,0,1,.56,2.318,38.657,38.657,0,0,1-1.189,5.951,106.469,106.469,0,0,1-8.2,19.917c-.218.408-.529,1.035-.37,1.332A7.067,7.067,0,0,0,37.893,74.6c.192-.291.361-.518.5-.762a122.079,122.079,0,0,0,8.2-17.257c.437-1.143,1.034-2.031,2.354-2.175a2.8,2.8,0,0,1,2.885,1.76c2.42,4.278,4.941,8.5,7.3,12.811,2.65,4.844,5.143,9.761,6.524,15.17,1.848,7.236,2.588,14.643,3.552,22.017.942,7.2,1.772,14.426,4.385,21.288a2.77,2.77,0,0,1-.756,3.023,8.781,8.781,0,0,0-2.008,2.84c-.888,2.619-1.552,5.317-2.22,8.005-.773,3.108-1.2,6.326-2.234,9.338-1.6,4.633-5.239,7.51-9.444,9.737-2.345,1.242-2.425,1.537-1.064,3.884a13.12,13.12,0,0,0,.927,1.305,1,1,0,0,0,1.473.306c1.879-1.088,3.86-2.018,5.662-3.217a19.732,19.732,0,0,0,8.841-12.238,92.621,92.621,0,0,1,2.857-8.821,2.507,2.507,0,0,1,2.519-1.8,2.651,2.651,0,0,1,2.53,1.808,145.761,145.761,0,0,1,7.8,21.567c.855,3.26,1.47,6.583,2.21,9.95a33.552,33.552,0,0,1,9.64-1.679A29.93,29.93,0,0,1,110.3,172.8Z" transform="translate(-28.518 -18.549)" fill="#1d272b"/>
    <path id="Trazado_170516" data-name="Trazado 170516" d="M329.1,651.049c.013,1.545-.783,2.276-2.311,2.039a5.912,5.912,0,0,1-2.557-.956,10.443,10.443,0,0,1-4.6-9.53,3.662,3.662,0,0,1,.393-1.319c.934-1.9,2.486-2.217,3.876-.653a23.845,23.845,0,0,1,5.143,9.84A2.626,2.626,0,0,1,329.1,651.049Z" transform="translate(-257.317 -506.735)" fill="#1d272b"/>
    <path id="Trazado_170517" data-name="Trazado 170517" d="M248.831,445.482a13.556,13.556,0,0,1,1.216-2.568c.71-.992,1.61-.994,2.625-.3a2.731,2.731,0,0,1,.5.4,23.624,23.624,0,0,1,5.446,10.03c.432,1.69-.559,2.708-2.316,2.475a5.854,5.854,0,0,1-2.387-.835C250.787,452.628,249.258,449.609,248.831,445.482Z" transform="translate(-201.689 -351.491)" fill="#1d272b"/>
    <path id="Trazado_170518" data-name="Trazado 170518" d="M302.682,543.8a30.886,30.886,0,0,1,.485-3.285c.339-1.384,1.139-1.761,2.5-1.364a4.679,4.679,0,0,1,2.782,2.356,10.976,10.976,0,0,1,.867,8.875,4.367,4.367,0,0,1-2.478,2.921c-1.275.533-2.11.319-2.605-.966a24.982,24.982,0,0,1-1.163-4.406C302.837,546.68,302.821,545.387,302.682,543.8Z" transform="translate(-244.017 -427.639)" fill="#1d272b"/>
    <path id="Trazado_170519" data-name="Trazado 170519" d="M244.729,329.915a34.691,34.691,0,0,1,.561-3.471,1.6,1.6,0,0,1,2.442-1.24,5.667,5.667,0,0,1,2.4,1.816,10.11,10.11,0,0,1,.768,10.158,5.064,5.064,0,0,1-1.951,2.015c-1.332.824-2.342.468-2.885-1a20.943,20.943,0,0,1-.979-3.914C244.872,332.987,244.86,331.66,244.729,329.915Z" transform="translate(-198.465 -259.414)" fill="#1d272b"/>
    <path id="Trazado_170520" data-name="Trazado 170520" d="M133.274,104.815c-.052.346-.081.738-.174,1.114-.556,2.256-2.112,2.872-3.845,1.379a23.856,23.856,0,0,1-6.467-8.892c-.927-2.2.158-3.447,2.559-3.081a8.276,8.276,0,0,1,4.849,2.9A11,11,0,0,1,133.274,104.815Z" transform="translate(-102.358 -78.855)" fill="#1d272b"/>
    <path id="Trazado_170521" data-name="Trazado 170521" d="M186.751,208.911a4.077,4.077,0,0,1,1.287-3.078,1.775,1.775,0,0,1,2.739-.046,7.562,7.562,0,0,1,1.181,1.367,25.7,25.7,0,0,1,3.884,8.716c.56,2.471-.694,3.648-3.09,2.734a9.158,9.158,0,0,1-3.175-2.206A10.94,10.94,0,0,1,186.751,208.911Z" transform="translate(-152.892 -165.233)" fill="#1d272b"/>
    <path id="Trazado_170522" data-name="Trazado 170522" d="M384.547,336.166q3.411-1.158,6.822-2.315,8.534-2.881,17.073-5.75a5.485,5.485,0,0,1,1.75-.387,2.2,2.2,0,0,1,2.177,2.081,2.231,2.231,0,0,1-2.024,2.242c-1.715.3-3.437.57-5.155.857q-10.15,1.695-20.3,3.39a1.921,1.921,0,0,1-.31,0Z" transform="translate(-308.365 -261.559)" fill="#b42218"/>
    <path id="Trazado_170523" data-name="Trazado 170523" d="M387.233,378.407c7.006-.855,13.933-.737,20.658,1.814,1.486.564,2.079,1.769,1.516,3.006a2.353,2.353,0,0,1-3.465.89c-5.3-3.4-11.215-4.739-17.369-5.322-.449-.043-.9-.07-1.35-.1Z" transform="translate(-310.468 -301.03)" fill="#b42218"/>
    <path id="Trazado_170524" data-name="Trazado 170524" d="M379.113,301.287A46.158,46.158,0,0,0,390,293c1.161-1.237,2.061-2.717,3.168-4.011a4.883,4.883,0,0,1,1.856-1.429,1.951,1.951,0,0,1,2.432,1.057,2.029,2.029,0,0,1-.373,2.543,29.664,29.664,0,0,1-9.175,6.7c-2.625,1.244-5.384,2.208-8.087,3.286A3.909,3.909,0,0,1,379.113,301.287Z" transform="translate(-304.094 -229.901)" fill="#b42218"/>
  </g>
</svg>
