<svg xmlns="http://www.w3.org/2000/svg" width="140.665" height="121.602" viewBox="0 0 140.665 121.602">
  <g id="PgFFS9" transform="translate(-120.969 -251.03)">
    <g id="Grupo_133164" data-name="Grupo 133164" transform="translate(120.969 251.03)">
      <path id="Trazado_170503" data-name="Trazado 170503" d="M143.587,293.715q0-16.156,0-32.312c0-2.986.951-3.957,3.954-3.966q10.9-.032,21.8-.006c2.834.006,3.825,1.026,3.825,3.9q.011,32.41.05,64.819a7.716,7.716,0,0,0,.977,3.639c6.646,11.658,13.373,23.27,20.075,34.9a16.183,16.183,0,0,1,.912,1.715c2.1,4.938-.575,9.456-5.921,9.994-.708.071-1.426.051-2.139.051-19.076,0-38.154-.168-57.227.083-7.906.1-11.253-5.587-7.2-12.335,6.876-11.446,13.424-23.089,20.059-34.679a6.183,6.183,0,0,0,.794-2.907C143.606,315.646,143.585,304.68,143.587,293.715Zm6.05-20.267v2.578c0,17.128.018,34.255-.05,51.383a8.616,8.616,0,0,1-1,4.048c-4.976,8.8-10.075,17.536-15.132,26.293-1.978,3.424-3.969,6.841-5.91,10.285-1.046,1.854-.795,2.265,1.258,2.327.389.012.779.005,1.168.006H186.8c.519,0,1.038-.021,1.557-.016,1.608.015,1.737-.767,1.072-1.978-.219-.4-.45-.789-.677-1.182-6.807-11.788-13.643-23.56-20.378-35.39a8.926,8.926,0,0,1-1.116-4.2c-.077-17-.052-34-.053-50.993a6.75,6.75,0,0,0-.037-1.932c-.149-.476-.691-1.176-1.066-1.181C160.731,273.423,155.355,273.448,149.637,273.448Zm.125-2.92c5.551,0,10.981.016,16.411-.039a1.334,1.334,0,0,0,.962-.874c.089-1.984.045-3.974.045-5.982H149.761Z" transform="translate(-120.969 -254.931)" fill="#1d272b"/>
      <path id="Trazado_170504" data-name="Trazado 170504" d="M290.583,421.2l2.081-6.083h8.3q13.629,0,27.258,0c4.884,0,7.312-2.389,7.316-7.276q.025-29.5-.023-58.995a6.561,6.561,0,0,1,1.83-4.9c2.039-2.159,3.907-4.48,6.078-7a16.2,16.2,0,0,0-1.728-.217q-31.444-.012-62.888-.042c-1.627,0-1.937.583-1.933,2.036.042,13.824.025,27.647.026,41.471v3.094l-.4.154c-1.446-2.47-3.017-4.878-4.289-7.434a10.83,10.83,0,0,1-1.22-4.544c-.1-12.2-.057-24.4-.05-36.6,0-3.288.832-4.121,4.166-4.123q36.8-.019,73.6-.02c.324,0,.649.022.973.02,1.384-.007,2.614.337,3.218,1.716a3.312,3.312,0,0,1-.783,3.749c-3.123,3.56-6.278,7.1-9.271,10.764a5.921,5.921,0,0,0-1.289,3.435c-.078,19.146-.219,38.293.022,57.436a12.969,12.969,0,0,1-13.386,13.426c-11.547-.243-23.1-.065-34.655-.065Z" transform="translate(-212.513 -299.677)" fill="#1d272b"/>
      <path id="Trazado_170505" data-name="Trazado 170505" d="M378.368,427.918H355.442V360.441h22.926ZM358.343,424.9H375.4a4.54,4.54,0,0,0,.145-.726q.02-29.794.053-59.588c0-1.458-.756-1.524-1.839-1.518-4.674.023-9.347.005-14.021.018a10.747,10.747,0,0,0-1.393.192Z" transform="translate(-264.113 -317.824)" fill="#1d272b"/>
      <path id="Trazado_170506" data-name="Trazado 170506" d="M319.879,251.03c2.134.463,4.515.481,6.339,1.5,2.41,1.344,2.676,3.678,1.2,6.068-1.018,1.644-2.328,3.107-3.5,4.656-.626.827-1.3,1.624-1.842,2.5-1.529,2.5-1.252,4.43.842,6.436.261.25.523.5,1.2,1.143-2.75-.35-5.084.689-7.128-1.117-2.075-1.833-2.514-3.627-1.149-6.022a30.8,30.8,0,0,1,2.381-3.307c.589-.773,1.251-1.49,1.854-2.254,2.92-3.7,2.84-5.6-.361-8.878Z" transform="translate(-239.458 -251.03)" fill="#1d272b"/>
      <path id="Trazado_170507" data-name="Trazado 170507" d="M363.274,251.825c2.848.385,5.369-.709,7.427,1.437,1.631,1.7,2.086,3.379.923,5.441a39.431,39.431,0,0,1-2.82,3.941c-.924,1.248-1.974,2.417-2.787,3.732-1.487,2.406-1.171,4.322.88,6.25.268.251.648.383.827.8-2.493.127-4.945,1.1-7.021-.975-1.762-1.757-2.161-3.395-.956-5.582a27.014,27.014,0,0,1,2.219-3.178c.743-.981,1.588-1.885,2.325-2.871C367.019,257.171,366.891,255.435,363.274,251.825Z" transform="translate(-266.318 -251.515)" fill="#1d272b"/>
      <path id="Trazado_170508" data-name="Trazado 170508" d="M183.557,497.1c-6.295,0-12.59.015-18.885,0-2.621-.007-3.148-.942-1.834-3.229,3.52-6.129,7.077-12.236,10.572-18.379a2.28,2.28,0,0,1,2.281-1.364c5.191.063,10.384.052,15.575,0a2.291,2.291,0,0,1,2.327,1.287c3.487,6.148,7.052,12.251,10.565,18.383,1.376,2.4.858,3.287-1.911,3.294C196.017,497.1,189.787,497.093,183.557,497.1Z" transform="translate(-146.107 -387.224)" fill="#008f85"/>
      <path id="Trazado_170509" data-name="Trazado 170509" d="M382.046,381.638h-8.87l-.231-.566a4.611,4.611,0,0,1,1.417-.667C379.336,379.99,381.466,380.3,382.046,381.638Z" transform="translate(-274.798 -329.907)" fill="#1d272b"/>
      <path id="Trazado_170510" data-name="Trazado 170510" d="M377.67,407.714c-1.1,0-2.206.064-3.3-.035-.374-.033-.71-.472-1.064-.726.331-.21.659-.593.995-.6,2.264-.054,4.53-.062,6.793.005.367.011.721.471,1.08.723-.338.211-.664.58-1.015.6C380,407.761,378.835,407.713,377.67,407.714Z" transform="translate(-275.021 -345.826)" fill="#1d272b"/>
      <path id="Trazado_170511" data-name="Trazado 170511" d="M382.137,484.552h-8.676c.3-1.484.3-1.5,7.209-1.269a5.564,5.564,0,0,1,1.7.666Z" transform="translate(-275.114 -392.752)" fill="#1d272b"/>
      <path id="Trazado_170512" data-name="Trazado 170512" d="M373.406,509.509h8.564c.074,1.971-1.377,1.248-2.153,1.257a40.071,40.071,0,0,1-6.771-.127Z" transform="translate(-274.86 -408.829)" fill="#1d272b"/>
      <path id="Trazado_170513" data-name="Trazado 170513" d="M382.289,432.708c-.306.262-.607.744-.919.751-2.447.062-4.9.053-7.344,0-.252-.005-.5-.417-.743-.64.254-.21.5-.6.762-.6,2.677-.045,5.355-.028,8.032-.028Z" transform="translate(-275.005 -361.626)" fill="#1d272b"/>
      <path id="Trazado_170514" data-name="Trazado 170514" d="M372.369,458.938c1.632-1.409,8.219-1.345,9.391,0Z" transform="translate(-274.447 -377.325)" fill="#1d272b"/>
    </g>
  </g>
</svg>
