<svg xmlns="http://www.w3.org/2000/svg" xmlns:xlink="http://www.w3.org/1999/xlink" width="126.927" height="126.927" viewBox="0 0 126.927 126.927">
  <defs>
    <radialGradient id="radial-gradient" cx="0.076" cy="0.019" r="1.465" gradientTransform="translate(0.001)" gradientUnits="objectBoundingBox">
      <stop offset="0" stop-color="#f6f6f7"/>
      <stop offset="0.477" stop-color="#f9f9fa"/>
      <stop offset="0.715" stop-color="#fff"/>
    </radialGradient>
  </defs>
  <g id="Grupo_134222" data-name="Grupo 134222" transform="translate(-237.422 -3955.089)">
    <path id="Trazado_40936" data-name="Trazado 40936" d="M321.55,2209.183a63.464,63.464,0,1,1-63.463-63.462A63.463,63.463,0,0,1,321.55,2209.183Z" transform="translate(42.799 1809.368)" fill="#fff"/>
    <path id="Trazado_40937" data-name="Trazado 40937" d="M320.783,2208.346a63.462,63.462,0,1,0-63.463,63.465A63.213,63.213,0,0,0,320.783,2208.346Z" transform="translate(43.566 1810.205)" fill="url(#radial-gradient)"/>
    <path id="Trazado_40938" data-name="Trazado 40938" d="M298.935,2201.548a48.442,48.442,0,1,0-48.441,48.441A48.262,48.262,0,0,0,298.935,2201.548Z" transform="translate(50.584 1817.216)" fill="none" stroke="#d93328" stroke-miterlimit="10" stroke-width="4"/>
    <path id="Trazado_40939" data-name="Trazado 40939" d="M309.812,2164.488a63.471,63.471,0,0,1-109.267,63.2,63.27,63.27,0,0,0,109.267-63.2Z" transform="translate(48.12 1826.231)" fill="#eceef0"/>
    <path id="Trazado_172385" data-name="Trazado 172385" d="M326.655,329.052a13.693,13.693,0,0,1-1.723-1.268,67.875,67.875,0,0,1-4.786-5,19.954,19.954,0,0,1-4.532-14.4,15.387,15.387,0,0,1,2.281-7.164,7.041,7.041,0,0,1,7.641-3.373c1.188.22,2.382.432,3.548.744a11.467,11.467,0,0,1,7.484,6.07c.666,1.289,1.3,2.593,1.943,3.9a2.389,2.389,0,1,1-4.277,2.1c-.6-1.179-1.194-2.356-1.77-3.545a7.055,7.055,0,0,0-5.212-4.054c-.912-.183-1.821-.379-2.736-.547a2.209,2.209,0,0,0-2.357.923,11.281,11.281,0,0,0-1.828,6.586c.8.04,1.555.055,2.308.121a15.721,15.721,0,0,1,10.582,5.26,2.389,2.389,0,1,1-3.526,3.207,11.111,11.111,0,0,0-8.125-3.757c-.11,0-.221,0-.527,0a37.031,37.031,0,0,0,1.724,3.392,21.989,21.989,0,0,0,2.314,2.925,41.038,41.038,0,0,0,3.39,3.4c1.587,1.375,1.453,3.7-.811,4.485Z" transform="translate(-12.708 3718.476)" fill="#1d272b"/>
    <path id="Trazado_172386" data-name="Trazado 172386" d="M353.168,97.582a2.62,2.62,0,0,1-1.516,1.94,2.338,2.338,0,0,1-2.863-.853q-.926-1.327-1.786-2.7a15.5,15.5,0,0,0-10.782-7.334,4.679,4.679,0,0,1-3.9-5.118A15.353,15.353,0,0,0,327.553,70.9a2.874,2.874,0,0,1-1.141-2.082,2.378,2.378,0,0,1,4-1.777,20.314,20.314,0,0,1,6.68,16.6c-.009.11,0,.221,0,.378.763.18,1.538.341,2.3.546a19.266,19.266,0,0,1,11.377,8.458c.48.731.98,1.451,1.432,2.2.352.582.644,1.2.962,1.8Z" transform="translate(-22.344 3923.894)" fill="#1d272b"/>
    <path id="Trazado_172387" data-name="Trazado 172387" d="M166.351,465.434c-.162-.08-.323-.16-.486-.238a2.269,2.269,0,0,1-1.191-2.913,47.33,47.33,0,0,1,3.923-7.435,10.664,10.664,0,0,1,3.266-2.921,4.634,4.634,0,0,1,6.534,2.029c1.21,2.47,2.336,4.988,3.662,7.394.937,1.7.474,3.669-1.738,4.084H180.1a3.05,3.05,0,0,1-2.386-2.013c-1.152-2.451-2.38-4.867-3.6-7.342a7.43,7.43,0,0,0-2.493,2.867c-.782,1.542-1.577,3.079-2.31,4.645a3.133,3.133,0,0,1-1.954,1.843Z" transform="translate(121.441 3582.094)" fill="#1d272b"/>
    <path id="Trazado_172388" data-name="Trazado 172388" d="M114.092,76.016a13.914,13.914,0,0,0-2.628-3.174c-.751-.668-1.541-1.293-2.309-1.941a2.392,2.392,0,1,1,3.063-3.656,24.2,24.2,0,0,1,5.589,5.66c4.387,6.868,4.794,13.961,1.1,21.248-.9,1.775-1.891,3.5-2.818,5.266a17.443,17.443,0,0,0-1.012,2.173,7.111,7.111,0,0,1-4.527,4.463,13.125,13.125,0,0,0-6.014,4c-.974,1.214-1.771,2.571-2.631,3.874-.41.621-.751,1.289-1.18,1.9a2.349,2.349,0,0,1-3.133.652,2.29,2.29,0,0,1-.92-3.057,42.778,42.778,0,0,1,4.232-6.495,17.978,17.978,0,0,1,7.725-5.233,3.42,3.42,0,0,0,2.107-2.032c.874-1.969,1.92-3.862,2.913-5.777a27.4,27.4,0,0,0,2.332-5.056,16.1,16.1,0,0,0,.29-7.519c-.077-.406-.263-.537-.665-.55a8.482,8.482,0,0,0-7.545,3.666,2.42,2.42,0,0,1-3.491.766,2.347,2.347,0,0,1-.6-3.228,13.107,13.107,0,0,1,8.921-5.783C113.254,76.119,113.624,76.081,114.092,76.016Z" transform="translate(181.909 3923.715)" fill="#1d272b"/>
  </g>
</svg>
