<svg xmlns="http://www.w3.org/2000/svg" xmlns:xlink="http://www.w3.org/1999/xlink" width="81.543" height="81.543" viewBox="0 0 81.543 81.543">
  <defs>
    <radialGradient id="radial-gradient" cx="0.076" cy="0.019" r="1.465" gradientTransform="translate(0.001)" gradientUnits="objectBoundingBox">
      <stop offset="0" stop-color="#f6f6f7"/>
      <stop offset="0.477" stop-color="#f9f9fa"/>
      <stop offset="0.715" stop-color="#fff"/>
    </radialGradient>
  </defs>
  <g id="Grupo_134267" data-name="Grupo 134267" transform="translate(-553.082 -2355.303)">
    <g id="Grupo_128858" data-name="Grupo 128858" transform="translate(553.082 2355.303)">
      <g id="Grupo_18421" data-name="Grupo 18421">
        <g id="Grupo_18420" data-name="Grupo 18420">
          <g id="Grupo_18419" data-name="Grupo 18419">
            <path id="Trazado_40936" data-name="Trazado 40936" d="M276.166,2186.491a40.771,40.771,0,1,1-40.771-40.77A40.771,40.771,0,0,1,276.166,2186.491Z" transform="translate(-194.623 -2145.721)" fill="#fff"/>
          </g>
        </g>
      </g>
      <path id="Trazado_40937" data-name="Trazado 40937" d="M275.978,2186.287a40.771,40.771,0,1,0-40.771,40.772A40.61,40.61,0,0,0,275.978,2186.287Z" transform="translate(-194.435 -2145.517)" fill="url(#radial-gradient)"/>
      <path id="Trazado_40938" data-name="Trazado 40938" d="M264.735,2184.708a31.121,31.121,0,1,0-31.121,31.12A31,31,0,0,0,264.735,2184.708Z" transform="translate(-192.719 -2143.802)" fill="none" stroke="#1d272d" stroke-miterlimit="10" stroke-width="4"/>
      <g id="Grupo_18422" data-name="Grupo 18422" transform="translate(7.223 22.89)">
        <path id="Trazado_40939" data-name="Trazado 40939" d="M270.742,2164.488a40.776,40.776,0,0,1-70.2,40.6,40.647,40.647,0,0,0,70.2-40.6Z" transform="translate(-200.545 -2164.488)" fill="#eceef0"/>
      </g>
    </g>
    <g id="Grupo_117565" data-name="Grupo 117565" transform="translate(574.983 2374.977)">
      <path id="Trazado_157841" data-name="Trazado 157841" d="M5241.071,1747.214H5223c-1.147,0-1.266-.144-1.167-1.293.271-3.148.552-6.3.791-9.446a3.906,3.906,0,0,1,1.957-3.281c2.118-1.287,4.2-2.642,6.3-3.945a1.171,1.171,0,0,0,.633-1.032c.234-4.053.534-8.1.731-12.158a6.753,6.753,0,0,1,7.069-6.779,37.415,37.415,0,0,1,4.9.118,6.588,6.588,0,0,1,5.715,6.457c.215,4.108.526,8.211.75,12.319a1.289,1.289,0,0,0,.734,1.138c2.1,1.309,4.186,2.655,6.3,3.951a3.617,3.617,0,0,1,1.823,2.926q.427,4.926.83,9.854c.084,1.044-.055,1.171-1.136,1.171Q5250.15,1747.215,5241.071,1747.214Zm17.865-1.3a3.889,3.889,0,0,0,.031-.444q-.365-4.6-.74-9.206a2.385,2.385,0,0,0-1.235-1.906c-2.292-1.421-4.578-2.852-6.834-4.328a1.634,1.634,0,0,1-.7-1.054c-.314-4.4-.571-8.81-.836-13.217a5.25,5.25,0,0,0-4.519-5.049,39.294,39.294,0,0,0-4.976-.128,5.438,5.438,0,0,0-5.56,5.277c-.261,4.324-.544,8.648-.784,12.974a1.38,1.38,0,0,1-.744,1.232c-2.155,1.33-4.259,2.747-6.445,4.025a3.167,3.167,0,0,0-1.7,2.84c-.087,1.767-.292,3.528-.434,5.292-.1,1.206-.175,2.414-.263,3.641h6.576v-.926c0-1.581-.007-3.163.007-4.744.005-.489-.164-1.174.622-1.178.827,0,.668.7.674,1.223.013,1.2,0,2.4,0,3.6v2.025h9.177a2.009,2.009,0,0,0,.078-.356q.009-5.93,0-11.859a.722.722,0,0,0-.178-.5,2.688,2.688,0,0,0-2.241-.093,2.873,2.873,0,0,1-3.6-.374,2.659,2.659,0,0,1-.3-3.512,2.741,2.741,0,0,0,.729-2.54,2.923,2.923,0,0,1,0-.653c.053-.723.387-.948,1.088-.711,1.135.383,2.264.782,3.4,1.176a5.2,5.2,0,0,0,3.6-.039c1.253-.458,2.5-.917,3.764-1.351.79-.271,1.156-.02,1.159.808,0,.651-.105,1.3-.094,1.954a1.627,1.627,0,0,0,.272.939,2.85,2.85,0,0,1-3.8,4.217.991.991,0,0,0-.627-.21c-.6.117-1.193.31-1.77.468a1.783,1.783,0,0,0-.058.29c0,3.926.006,7.852-.018,11.777,0,.618.315.628.77.626,2.645-.011,5.29,0,7.934-.008.234,0,.469-.035.747-.057,0-1.982,0-3.889,0-5.8,0-.505-.017-1.063.695-1.053.691.009.605.573.607,1.028.007,1.717,0,3.435.007,5.153,0,.35-.067.733.5.73C5254.9,1745.9,5256.88,1745.91,5258.936,1745.91Zm-22.83-19.342c-.082.894-.033,1.3.76,1.37a2.67,2.67,0,0,1,2.284,2.5c.084,1.152.169,1.272,1.335,1.37a12.054,12.054,0,0,0,1.7-.069c.655-.039.907-.323.869-1.041a2.675,2.675,0,0,1,2.013-2.732,8.963,8.963,0,0,1,1.254-.143c.041-.409.08-.8.147-1.48C5242.978,1728.214,5239.6,1728.692,5236.105,1726.568Zm-1.266,4.126a1.505,1.505,0,1,0,1.488-1.507A1.462,1.462,0,0,0,5234.84,1730.694Zm12.5.025a1.456,1.456,0,0,0-1.454-1.534,1.51,1.51,0,1,0-.042,3.02A1.431,1.431,0,0,0,5247.34,1730.719Z" transform="translate(-5221.803 -1709.257)" fill="#1d272b"/>
      <path id="Trazado_157842" data-name="Trazado 157842" d="M5305.052,1763.663c1.605,0,3.211,0,4.818,0,1.548,0,1.956.388,1.96,1.907,0,.789.022,1.58-.009,2.368a1.272,1.272,0,0,1-1.436,1.4c-1.2.016-2.4.03-3.593-.009a1.951,1.951,0,0,1-1.057-.325,1.023,1.023,0,0,0-1.446.033,1.448,1.448,0,0,1-.822.288c-1.334.028-2.668.033-4,0a1.127,1.127,0,0,1-1.194-1.187c-.036-1.087-.043-2.178,0-3.265.034-.8.541-1.181,1.548-1.2,1.742-.024,3.484-.007,5.227-.007Zm-5.476,4.376c.8,0,1.5-.021,2.2.005a3.709,3.709,0,0,0,2.772-.684,1,1,0,0,1,.954,0c1.545,1.229,3.283.457,4.958.7v-2.987h-10.886Z" transform="translate(-5285.737 -1754.76)" fill="#1d272b"/>
    </g>
  </g>
</svg>
