<svg id="Group_87331" data-name="Group 87331" xmlns="http://www.w3.org/2000/svg" xmlns:xlink="http://www.w3.org/1999/xlink" width="79.155" height="79.154" viewBox="0 0 79.155 79.154">
  <defs>
    <radialGradient id="radial-gradient" cx="0.077" cy="0.019" r="1.465" gradientTransform="matrix(1, 0, 0, -1, 0, 9.666)" gradientUnits="objectBoundingBox">
      <stop offset="0" stop-color="#f4f4f5"/>
      <stop offset="0.477" stop-color="#f7f8fa"/>
      <stop offset="0.715" stop-color="#fff"/>
    </radialGradient>
  </defs>
  <g id="Group_18531" data-name="Group 18531">
    <g id="Group_18423" data-name="Group 18423">
      <g id="Group_18421" data-name="Group 18421">
        <g id="Group_18420" data-name="Group 18420">
          <g id="Group_18419" data-name="Group 18419">
            <path id="Path_40936" data-name="Path 40936" d="M201.954,554.407a39.577,39.577,0,1,1-39.578-39.575h0A39.576,39.576,0,0,1,201.954,554.407Z" transform="translate(-122.8 -514.832)" fill="#fff"/>
          </g>
        </g>
      </g>
      <path id="Path_40937" data-name="Path 40937" d="M201.953,554.407a39.42,39.42,0,1,0,0,.312Z" transform="translate(-122.799 -514.832)" fill="url(#radial-gradient)"/>
      <path id="Path_40938" data-name="Path 40938" d="M190.028,551.858a30.209,30.209,0,1,0-30.209,30.209h0a30.1,30.1,0,0,0,30.209-29.984Z" transform="translate(-120.122 -512.151)" fill="none" stroke="#1d272b" stroke-miterlimit="10" stroke-width="2"/>
      <g id="Group_18422" data-name="Group 18422" transform="translate(7.012 22.22)">
        <path id="Path_40939" data-name="Path 40939" d="M195.973,530.78a39.581,39.581,0,0,1-68.14,39.411,39.456,39.456,0,0,0,68.14-39.411Z" transform="translate(-127.833 -530.78)" fill="#e7e9eb"/>
      </g>
    </g>
  </g>
  <g id="OX2IPG.tif" transform="translate(406.741 -149.28)">
    <g id="Grupo_133166" data-name="Grupo 133166" transform="translate(-375.503 167.826)">
      <path id="Trazado_170525" data-name="Trazado 170525" d="M-357.883,191.9v19.019H-375.5c0-6.044-.008-12.089.006-18.133a9.38,9.38,0,0,1,2.206-6.071,1.253,1.253,0,0,0,.266-1.148h-1.2v-7.213c1.1-.368,2.2-.746,3.3-1.092a.551.551,0,0,0,.472-.635c-.03-1.247-.013-2.5-.01-3.744a13.775,13.775,0,0,1,.029-1.765,3.781,3.781,0,0,1,4.089-3.279,3.793,3.793,0,0,1,3.427,3.8c.005,1.655.018,3.31-.011,4.964a.57.57,0,0,0,.492.661c1.1.341,2.193.722,3.268,1.081V185.6h-1.2a1.228,1.228,0,0,0,.308,1.153,9.046,9.046,0,0,1,1.844,3.637C-358.09,190.891-357.992,191.4-357.883,191.9Zm-2.545,16.477V193.191h-12.535v15.183Zm-1.228-25.332v-.3c0-.757-.008-1.514.005-2.27,0-.227-.086-.312-.29-.377-.73-.232-1.454-.484-2.18-.731-.422-.144-1.008-.175-1.216-.471-.22-.313-.091-.882-.092-1.339-.005-1.948,0-3.9,0-5.844a1.291,1.291,0,0,0-1.213-1.354,1.3,1.3,0,0,0-1.3,1.222c-.009.112,0,.224,0,.336,0,2.214-.006,4.429.007,6.643a.426.426,0,0,1-.354.5c-.852.26-1.692.557-2.537.842-.892.3-.891.3-.891,1.235v1.91Zm-8.812,2.549c0,.5.018,1-.01,1.491a.966.966,0,0,1-.2.507c-.318.406-.71.76-.989,1.189-.366.564-.652,1.18-1,1.825h4.688v-5.012Zm5.06.01v5.015h4.566c.008-.046.023-.077.016-.1-.039-.119-.081-.237-.127-.354a6.87,6.87,0,0,0-1.645-2.451.94.94,0,0,1-.322-.805c.026-.428.006-.859.006-1.305Z" transform="translate(375.503 -167.826)" fill="#1d272b"/>
      <path id="Trazado_170526" data-name="Trazado 170526" d="M-315.784,498.2a6.523,6.523,0,0,1,5.87,2.02,6.231,6.231,0,0,1,1.676,4.273c.007,1.26,0,2.521,0,3.809a6.681,6.681,0,0,1-4.854-1.117,6.292,6.292,0,0,1-2.692-5.24C-315.792,500.7-315.784,499.452-315.784,498.2Zm2.532,2.764c-.142,2.324.844,4.129,2.47,4.556A4.054,4.054,0,0,0-313.252,500.959Z" transform="translate(320.821 -470.298)" fill="#1d272b"/>
    </g>
  </g>
</svg>
