<svg xmlns="http://www.w3.org/2000/svg" width="136.986" height="153.705" viewBox="0 0 136.986 153.705">
  <g id="Grupo_134285" data-name="Grupo 134285" transform="translate(-654 -4102.617)">
    <path id="Trazado_170541" data-name="Trazado 170541" d="M-1470.18,73.419l-4.881,1.282c-.882,7.25-4.416,11.156-10.184,11.422a10.581,10.581,0,0,1-11.1-8.165,10.7,10.7,0,0,1,6.547-12.5c5.6-2.147,10.456.121,14.374,6.835,1.694-.442,3.463-.831,5.174-1.394a2.175,2.175,0,0,0,1.187-1.264c6.25-20.288,15.859-39.084,25.782-57.718,5.922-11.122,12.265-22.02,18.442-33.006,1.407-2.5,2.086-2.508,3.531-.011,3.837,6.635,7.663,13.277,11.407,19.965a2.174,2.174,0,0,0,2.6,1.3,14.866,14.866,0,0,1,15.541,8.05,15.034,15.034,0,0,1-2.4,17.212c-.963,1.022-.685,1.713-.244,2.709,4.887,11.04,10.055,21.97,14.486,33.191a68.285,68.285,0,0,1,4.759,18.4c2.035,21.8-12.39,42.16-33.935,48.881-27.558,8.6-56.919-9.716-61.511-38.367a38.609,38.609,0,0,1,.254-15.11A16.052,16.052,0,0,0-1470.18,73.419Zm49.705,9.281c-.458.2-.7.281-.928.4-13.385,6.911-27.927,1.81-34.094-12a1.382,1.382,0,0,0-1.935-.934c-2.695.73-5.39,1.482-8.122,2.045a2.7,2.7,0,0,0-2.307,2.42,38.476,38.476,0,0,0-.291,15.888,45.8,45.8,0,0,0,63.548,33.847c20.769-9.048,31.763-32.712,25.57-52.942A259.821,259.821,0,0,0-1392.491,37.6c-1.476-3.159-3.045-6.275-4.631-9.532a16.051,16.051,0,0,1-16.259,0l-7.907,13.05c7.258,4.671,11.523,10.974,12.043,19.453.517,8.433-2.788,15.29-9.253,20.717l9.16,14.827c6.867-1.914,12.05.049,14.45,5.387a10.71,10.71,0,0,1-3.876,13.41,10.717,10.717,0,0,1-13.979-1.933,10.361,10.361,0,0,1-2.586-6.977,10.887,10.887,0,0,1,3.993-8.531Zm-36.314-15.138c-1.584-9.661.84-17.838,8.325-23.995s15.959-6.934,25-3.564c1.4-2.3,2.749-4.506,4.089-6.723s2.662-4.428,4.022-6.694c-3.94-3.915-5.716-8.5-4.872-13.9s4.065-9.1,8.9-11.619l-11.69-20.418c-.658,1.093-1.109,1.8-1.521,2.534-4.532,8.032-9.177,16-13.562,24.115-9.668,17.887-19.012,35.937-26.025,55.081-.878,2.4-1.62,4.845-2.553,7.655Zm45.192-5.331a21.684,21.684,0,0,0-21.417-21.8c-11.948-.066-21.986,9.816-21.929,21.588a21.786,21.786,0,0,0,21.722,21.763A21.586,21.586,0,0,0-1411.6,62.231Zm6.354-59.817A12.622,12.622,0,0,0-1418,15.106a12.769,12.769,0,0,0,12.709,12.8,12.777,12.777,0,0,0,12.761-12.747A12.64,12.64,0,0,0-1405.243,2.415Zm.54,111.829a8.238,8.238,0,0,0,8.344-8.227,8.314,8.314,0,0,0-8.21-8.408,8.384,8.384,0,0,0-8.368,8.273A8.28,8.28,0,0,0-1404.7,114.243Zm-72.908-38.858A8.284,8.284,0,0,0-1486,67.178a8.285,8.285,0,0,0-8.247,8.355,8.337,8.337,0,0,0,8.4,8.232A8.327,8.327,0,0,0-1477.611,75.386Z" transform="translate(2150.608 4125.59)" fill="#1d272b"/>
    <path id="Trazado_170542" data-name="Trazado 170542" d="M-1472.483,92.155a11,11,0,0,1-10.208-15.048c2.155-5.434,5.709-10.02,9.342-14.529a1.333,1.333,0,0,1,2.4.129c3.031,4.593,6.348,9.038,8.938,13.871C-1458.075,83.916-1464.534,92.538-1472.483,92.155Zm.851-27.151-1.1-.021c-2.583,4.317-5.221,8.6-7.707,12.976a6.389,6.389,0,0,0-.624,3.2,8.359,8.359,0,0,0,5.365,7.876c3.587,1.57,6.862.817,9.7-1.79A7.669,7.669,0,0,0-1464,78.017C-1466.289,73.547-1469.066,69.33-1471.633,65Z" transform="translate(2142.605 4073.856)" fill="#b42218"/>
    <path id="Trazado_170543" data-name="Trazado 170543" d="M-1192.352,114.944c-8.606.047-13.546-8.908-10.53-15.321a74.7,74.7,0,0,1,9.307-14.339,1.3,1.3,0,0,1,2.284.021c3.774,4.8,7.6,9.6,9.659,15.455C-1179.264,107.5-1184.942,114.928-1192.352,114.944Zm.222-27.61c-3.6,4.646-6.739,8.755-8.66,13.622a8.311,8.311,0,0,0,3.035,9.809,8.681,8.681,0,0,0,10.819-.155c3.123-2.412,4.464-6.38,2.681-9.873C-1186.537,96.267-1189.325,92.055-1192.13,87.334Z" transform="translate(1972.074 4059.999)" fill="#b42218"/>
    <path id="Trazado_170544" data-name="Trazado 170544" d="M-1408.026,20.155a7.344,7.344,0,0,1-6.8-10.515,82.529,82.529,0,0,1,5.528-8.675c.706-1.063,1.744-1.338,2.529-.17,2.02,3.005,4.283,5.924,5.784,9.184C-1398.705,14.92-1402.549,20.195-1408.026,20.155Zm.5-16.839-.815-.037c-1.466,2.491-3.069,4.914-4.356,7.5-1.114,2.232-.322,4.5,1.7,6.01a5.1,5.1,0,0,0,6.161-.052,4.582,4.582,0,0,0,1.639-5.864C-1404.463,8.267-1406.063,5.826-1407.521,3.316Z" transform="translate(2101.213 4111.563)" fill="#b42218"/>
    <path id="Trazado_170545" data-name="Trazado 170545" d="M-1206.315,20.148c-5.45-.11-9.118-5.483-6.764-10.393a73.278,73.278,0,0,1,5.726-9,1.317,1.317,0,0,1,2.4.053c1.974,2.963,4.212,5.814,5.725,9C-1196.871,14.781-1200.8,20.259-1206.315,20.148Zm.5-16.845-.734-.072c-1.442,2.436-3.012,4.806-4.287,7.327a4.744,4.744,0,0,0,1.54,6.19,5.335,5.335,0,0,0,6.342-.073,4.78,4.78,0,0,0,1.4-6.261C-1202.822,7.966-1204.38,5.667-1205.813,3.3Z" transform="translate(1978.19 4111.581)" fill="#b42218"/>
    <path id="Trazado_170556" data-name="Trazado 170556" d="M-1320.4,194.805c-.123,8.806-7.457,16.126-15.6,16.181-.646,0-1.3-.655-1.944-1.006.595-.433,1.159-1.189,1.789-1.249,7.491-.724,12.8-5.98,13.43-13.309.057-.668.726-1.283,1.111-1.923Z" transform="translate(2053.88 3993.613)" fill="#1d272b"/>
    <path id="Trazado_170557" data-name="Trazado 170557" d="M-1255.346,73.107c-.125,5.066-4.287,9.252-8.83,9.3-.566.005-1.139-.714-1.709-1.1.531-.429,1.008-1.124,1.6-1.245,4.087-.833,5.858-2.636,6.643-6.74.108-.565.869-1.005,1.329-1.5Z" transform="translate(2009.943 4067.799)" fill="#1d272b"/>
    <path id="Trazado_170558" data-name="Trazado 170558" d="M-1262.5,311.354c-.182-.2-.85-.611-.944-1.13-.059-.327.7-1.093,1.167-1.172a4.13,4.13,0,0,0,3.8-3.778c.076-.473.89-.829,1.364-1.238.327.476.905.934.941,1.431C-1255.961,308.307-1259.114,311.441-1262.5,311.354Z" transform="translate(2008.453 3926.221)" fill="#1d272b"/>
    <path id="Trazado_170559" data-name="Trazado 170559" d="M-1463.525,228.453c-.061,3.427-2.883,6.314-5.761,6.268-.551-.009-1.092-.614-1.638-.945.425-.45.79-1.2,1.288-1.3a4.38,4.38,0,0,0,3.813-3.8c.092-.493.849-.863,1.3-1.289Z" transform="translate(2134.949 3972.954)" fill="#1d272b"/>
  </g>
</svg>
