<svg xmlns="http://www.w3.org/2000/svg" width="90.687" height="81.279" viewBox="0 0 90.687 81.279">
  <g id="Grupo_131781" data-name="Grupo 131781" transform="translate(0 0)">
    <g id="Grupo_87606" data-name="Grupo 87606">
      <path id="Trazado_139403" data-name="Trazado 139403" d="M147.571-15.49H77.58a10.225,10.225,0,0,1-8.948-5.167,10.226,10.226,0,0,1,0-10.331L103.627-91.6a10.23,10.23,0,0,1,8.948-5.165h0a10.229,10.229,0,0,1,8.946,5.165l35,60.615a10.226,10.226,0,0,1,0,10.331A10.226,10.226,0,0,1,147.571-15.49Zm-39.3-73.434L73.272-28.31a4.921,4.921,0,0,0,0,4.975,4.925,4.925,0,0,0,4.309,2.488h69.99a4.926,4.926,0,0,0,4.309-2.488,4.925,4.925,0,0,0,0-4.975l-35-60.614a4.924,4.924,0,0,0-4.307-2.488,4.927,4.927,0,0,0-4.31,2.488Z" transform="translate(-67.232 96.769)" fill="#008f85"/>
    </g>
    <g id="Grupo_87607" data-name="Grupo 87607" transform="translate(38.893 21.941)">
      <path id="Trazado_139404" data-name="Trazado 139404" d="M98.029-83.045h0a6.468,6.468,0,0,1,6.422,7.236L101.61-52.044a3.627,3.627,0,0,1-3.6,3.194h0a3.626,3.626,0,0,1-3.6-3.2l-2.8-23.768A6.468,6.468,0,0,1,98.029-83.045Z" transform="translate(-91.56 83.045)" fill="#008f85"/>
      <path id="Trazado_139405" data-name="Trazado 139405" d="M93.874-51.129a4.978,4.978,0,0,1-1.5-3.664,4.987,4.987,0,0,1,1.5-3.666,4.983,4.983,0,0,1,3.664-1.495,4.989,4.989,0,0,1,3.666,1.495,4.985,4.985,0,0,1,1.495,3.666,4.977,4.977,0,0,1-1.495,3.664,4.984,4.984,0,0,1-3.666,1.5A4.978,4.978,0,0,1,93.874-51.129Z" transform="translate(-91.07 96.87)" fill="#008f85"/>
    </g>
  </g>
</svg>
